<?xml version="1.0" encoding="utf-8"?>
<svg xmlns="http://www.w3.org/2000/svg" xmlns:xlink="http://www.w3.org/1999/xlink" width="600" height="400" viewBox="0 0 2400 1600">
<defs>
  <clipPath id="clip430">
    <rect x="0" y="0" width="2400" height="1600"/>
  </clipPath>
</defs>
<path clip-path="url(#clip430)" d="M0 1600 L2400 1600 L2400 0 L0 0  Z" fill="#ffffff" fill-rule="evenodd" fill-opacity="1"/>
<defs>
  <clipPath id="clip431">
    <rect x="480" y="0" width="1681" height="1600"/>
  </clipPath>
</defs>
<path clip-path="url(#clip430)" d="M224.584 1423.18 L2352.76 1423.18 L2352.76 123.472 L224.584 123.472  Z" fill="#ffffff" fill-rule="evenodd" fill-opacity="1"/>
<defs>
  <clipPath id="clip432">
    <rect x="224" y="123" width="2129" height="1301"/>
  </clipPath>
</defs>
<polyline clip-path="url(#clip432)" style="stroke:#000000; stroke-linecap:round; stroke-linejoin:round; stroke-width:2; stroke-opacity:0.1; fill:none" points="224.584,1423.18 224.584,123.472 "/>
<polyline clip-path="url(#clip432)" style="stroke:#000000; stroke-linecap:round; stroke-linejoin:round; stroke-width:2; stroke-opacity:0.1; fill:none" points="756.627,1423.18 756.627,123.472 "/>
<polyline clip-path="url(#clip432)" style="stroke:#000000; stroke-linecap:round; stroke-linejoin:round; stroke-width:2; stroke-opacity:0.1; fill:none" points="1288.67,1423.18 1288.67,123.472 "/>
<polyline clip-path="url(#clip432)" style="stroke:#000000; stroke-linecap:round; stroke-linejoin:round; stroke-width:2; stroke-opacity:0.1; fill:none" points="1820.71,1423.18 1820.71,123.472 "/>
<polyline clip-path="url(#clip432)" style="stroke:#000000; stroke-linecap:round; stroke-linejoin:round; stroke-width:2; stroke-opacity:0.1; fill:none" points="2352.76,1423.18 2352.76,123.472 "/>
<polyline clip-path="url(#clip432)" style="stroke:#000000; stroke-linecap:round; stroke-linejoin:round; stroke-width:2; stroke-opacity:0.1; fill:none" points="224.584,1268.2 2352.76,1268.2 "/>
<polyline clip-path="url(#clip432)" style="stroke:#000000; stroke-linecap:round; stroke-linejoin:round; stroke-width:2; stroke-opacity:0.1; fill:none" points="224.584,1020.76 2352.76,1020.76 "/>
<polyline clip-path="url(#clip432)" style="stroke:#000000; stroke-linecap:round; stroke-linejoin:round; stroke-width:2; stroke-opacity:0.1; fill:none" points="224.584,773.32 2352.76,773.32 "/>
<polyline clip-path="url(#clip432)" style="stroke:#000000; stroke-linecap:round; stroke-linejoin:round; stroke-width:2; stroke-opacity:0.1; fill:none" points="224.584,525.883 2352.76,525.883 "/>
<polyline clip-path="url(#clip432)" style="stroke:#000000; stroke-linecap:round; stroke-linejoin:round; stroke-width:2; stroke-opacity:0.1; fill:none" points="224.584,278.445 2352.76,278.445 "/>
<polyline clip-path="url(#clip430)" style="stroke:#000000; stroke-linecap:round; stroke-linejoin:round; stroke-width:4; stroke-opacity:1; fill:none" points="224.584,1423.18 2352.76,1423.18 "/>
<polyline clip-path="url(#clip430)" style="stroke:#000000; stroke-linecap:round; stroke-linejoin:round; stroke-width:4; stroke-opacity:1; fill:none" points="224.584,1423.18 224.584,1404.28 "/>
<polyline clip-path="url(#clip430)" style="stroke:#000000; stroke-linecap:round; stroke-linejoin:round; stroke-width:4; stroke-opacity:1; fill:none" points="756.627,1423.18 756.627,1404.28 "/>
<polyline clip-path="url(#clip430)" style="stroke:#000000; stroke-linecap:round; stroke-linejoin:round; stroke-width:4; stroke-opacity:1; fill:none" points="1288.67,1423.18 1288.67,1404.28 "/>
<polyline clip-path="url(#clip430)" style="stroke:#000000; stroke-linecap:round; stroke-linejoin:round; stroke-width:4; stroke-opacity:1; fill:none" points="1820.71,1423.18 1820.71,1404.28 "/>
<polyline clip-path="url(#clip430)" style="stroke:#000000; stroke-linecap:round; stroke-linejoin:round; stroke-width:4; stroke-opacity:1; fill:none" points="2352.76,1423.18 2352.76,1404.28 "/>
<path clip-path="url(#clip430)" d="M171.112 1468.75 L200.788 1468.75 L200.788 1472.69 L171.112 1472.69 L171.112 1468.75 Z" fill="#000000" fill-rule="nonzero" fill-opacity="1" /><path clip-path="url(#clip430)" d="M211.691 1481.64 L219.329 1481.64 L219.329 1455.28 L211.019 1456.95 L211.019 1452.69 L219.283 1451.02 L223.959 1451.02 L223.959 1481.64 L231.598 1481.64 L231.598 1485.58 L211.691 1485.58 L211.691 1481.64 Z" fill="#000000" fill-rule="nonzero" fill-opacity="1" /><path clip-path="url(#clip430)" d="M241.042 1479.7 L245.926 1479.7 L245.926 1485.58 L241.042 1485.58 L241.042 1479.7 Z" fill="#000000" fill-rule="nonzero" fill-opacity="1" /><path clip-path="url(#clip430)" d="M266.112 1454.1 Q262.5 1454.1 260.672 1457.66 Q258.866 1461.2 258.866 1468.33 Q258.866 1475.44 260.672 1479.01 Q262.5 1482.55 266.112 1482.55 Q269.746 1482.55 271.551 1479.01 Q273.38 1475.44 273.38 1468.33 Q273.38 1461.2 271.551 1457.66 Q269.746 1454.1 266.112 1454.1 M266.112 1450.39 Q271.922 1450.39 274.977 1455 Q278.056 1459.58 278.056 1468.33 Q278.056 1477.06 274.977 1481.67 Q271.922 1486.25 266.112 1486.25 Q260.301 1486.25 257.223 1481.67 Q254.167 1477.06 254.167 1468.33 Q254.167 1459.58 257.223 1455 Q260.301 1450.39 266.112 1450.39 Z" fill="#000000" fill-rule="nonzero" fill-opacity="1" /><path clip-path="url(#clip430)" d="M703.653 1468.75 L733.328 1468.75 L733.328 1472.69 L703.653 1472.69 L703.653 1468.75 Z" fill="#000000" fill-rule="nonzero" fill-opacity="1" /><path clip-path="url(#clip430)" d="M753.421 1454.1 Q749.81 1454.1 747.981 1457.66 Q746.176 1461.2 746.176 1468.33 Q746.176 1475.44 747.981 1479.01 Q749.81 1482.55 753.421 1482.55 Q757.055 1482.55 758.861 1479.01 Q760.689 1475.44 760.689 1468.33 Q760.689 1461.2 758.861 1457.66 Q757.055 1454.1 753.421 1454.1 M753.421 1450.39 Q759.231 1450.39 762.287 1455 Q765.365 1459.58 765.365 1468.33 Q765.365 1477.06 762.287 1481.67 Q759.231 1486.25 753.421 1486.25 Q747.611 1486.25 744.532 1481.67 Q741.477 1477.06 741.477 1468.33 Q741.477 1459.58 744.532 1455 Q747.611 1450.39 753.421 1450.39 Z" fill="#000000" fill-rule="nonzero" fill-opacity="1" /><path clip-path="url(#clip430)" d="M773.583 1479.7 L778.467 1479.7 L778.467 1485.58 L773.583 1485.58 L773.583 1479.7 Z" fill="#000000" fill-rule="nonzero" fill-opacity="1" /><path clip-path="url(#clip430)" d="M788.699 1451.02 L807.055 1451.02 L807.055 1454.96 L792.981 1454.96 L792.981 1463.43 Q793.999 1463.08 795.018 1462.92 Q796.036 1462.73 797.055 1462.73 Q802.842 1462.73 806.222 1465.9 Q809.601 1469.08 809.601 1474.49 Q809.601 1480.07 806.129 1483.17 Q802.657 1486.25 796.337 1486.25 Q794.161 1486.25 791.893 1485.88 Q789.648 1485.51 787.24 1484.77 L787.24 1480.07 Q789.324 1481.2 791.546 1481.76 Q793.768 1482.32 796.245 1482.32 Q800.249 1482.32 802.587 1480.21 Q804.925 1478.1 804.925 1474.49 Q804.925 1470.88 802.587 1468.77 Q800.249 1466.67 796.245 1466.67 Q794.37 1466.67 792.495 1467.08 Q790.643 1467.5 788.699 1468.38 L788.699 1451.02 Z" fill="#000000" fill-rule="nonzero" fill-opacity="1" /><path clip-path="url(#clip430)" d="M1266.05 1454.1 Q1262.44 1454.1 1260.61 1457.66 Q1258.81 1461.2 1258.81 1468.33 Q1258.81 1475.44 1260.61 1479.01 Q1262.44 1482.55 1266.05 1482.55 Q1269.69 1482.55 1271.49 1479.01 Q1273.32 1475.44 1273.32 1468.33 Q1273.32 1461.2 1271.49 1457.66 Q1269.69 1454.1 1266.05 1454.1 M1266.05 1450.39 Q1271.86 1450.39 1274.92 1455 Q1278 1459.58 1278 1468.33 Q1278 1477.06 1274.92 1481.67 Q1271.86 1486.25 1266.05 1486.25 Q1260.24 1486.25 1257.17 1481.67 Q1254.11 1477.06 1254.11 1468.33 Q1254.11 1459.58 1257.17 1455 Q1260.24 1450.39 1266.05 1450.39 Z" fill="#000000" fill-rule="nonzero" fill-opacity="1" /><path clip-path="url(#clip430)" d="M1286.22 1479.7 L1291.1 1479.7 L1291.1 1485.58 L1286.22 1485.58 L1286.22 1479.7 Z" fill="#000000" fill-rule="nonzero" fill-opacity="1" /><path clip-path="url(#clip430)" d="M1311.29 1454.1 Q1307.67 1454.1 1305.85 1457.66 Q1304.04 1461.2 1304.04 1468.33 Q1304.04 1475.44 1305.85 1479.01 Q1307.67 1482.55 1311.29 1482.55 Q1314.92 1482.55 1316.73 1479.01 Q1318.55 1475.44 1318.55 1468.33 Q1318.55 1461.2 1316.73 1457.66 Q1314.92 1454.1 1311.29 1454.1 M1311.29 1450.39 Q1317.1 1450.39 1320.15 1455 Q1323.23 1459.58 1323.23 1468.33 Q1323.23 1477.06 1320.15 1481.67 Q1317.1 1486.25 1311.29 1486.25 Q1305.48 1486.25 1302.4 1481.67 Q1299.34 1477.06 1299.34 1468.33 Q1299.34 1459.58 1302.4 1455 Q1305.48 1450.39 1311.29 1450.39 Z" fill="#000000" fill-rule="nonzero" fill-opacity="1" /><path clip-path="url(#clip430)" d="M1798.59 1454.1 Q1794.98 1454.1 1793.16 1457.66 Q1791.35 1461.2 1791.35 1468.33 Q1791.35 1475.44 1793.16 1479.01 Q1794.98 1482.55 1798.59 1482.55 Q1802.23 1482.55 1804.03 1479.01 Q1805.86 1475.44 1805.86 1468.33 Q1805.86 1461.2 1804.03 1457.66 Q1802.23 1454.1 1798.59 1454.1 M1798.59 1450.39 Q1804.41 1450.39 1807.46 1455 Q1810.54 1459.58 1810.54 1468.33 Q1810.54 1477.06 1807.46 1481.67 Q1804.41 1486.25 1798.59 1486.25 Q1792.78 1486.25 1789.71 1481.67 Q1786.65 1477.06 1786.65 1468.33 Q1786.65 1459.58 1789.71 1455 Q1792.78 1450.39 1798.59 1450.39 Z" fill="#000000" fill-rule="nonzero" fill-opacity="1" /><path clip-path="url(#clip430)" d="M1818.76 1479.7 L1823.64 1479.7 L1823.64 1485.58 L1818.76 1485.58 L1818.76 1479.7 Z" fill="#000000" fill-rule="nonzero" fill-opacity="1" /><path clip-path="url(#clip430)" d="M1833.87 1451.02 L1852.23 1451.02 L1852.23 1454.96 L1838.15 1454.96 L1838.15 1463.43 Q1839.17 1463.08 1840.19 1462.92 Q1841.21 1462.73 1842.23 1462.73 Q1848.02 1462.73 1851.4 1465.9 Q1854.78 1469.08 1854.78 1474.49 Q1854.78 1480.07 1851.3 1483.17 Q1847.83 1486.25 1841.51 1486.25 Q1839.34 1486.25 1837.07 1485.88 Q1834.82 1485.51 1832.41 1484.77 L1832.41 1480.07 Q1834.5 1481.2 1836.72 1481.76 Q1838.94 1482.32 1841.42 1482.32 Q1845.42 1482.32 1847.76 1480.21 Q1850.1 1478.1 1850.1 1474.49 Q1850.1 1470.88 1847.76 1468.77 Q1845.42 1466.67 1841.42 1466.67 Q1839.54 1466.67 1837.67 1467.08 Q1835.82 1467.5 1833.87 1468.38 L1833.87 1451.02 Z" fill="#000000" fill-rule="nonzero" fill-opacity="1" /><path clip-path="url(#clip430)" d="M2319.91 1481.64 L2327.55 1481.64 L2327.55 1455.28 L2319.24 1456.95 L2319.24 1452.69 L2327.5 1451.02 L2332.18 1451.02 L2332.18 1481.64 L2339.82 1481.64 L2339.82 1485.58 L2319.91 1485.58 L2319.91 1481.64 Z" fill="#000000" fill-rule="nonzero" fill-opacity="1" /><path clip-path="url(#clip430)" d="M2349.26 1479.7 L2354.14 1479.7 L2354.14 1485.58 L2349.26 1485.58 L2349.26 1479.7 Z" fill="#000000" fill-rule="nonzero" fill-opacity="1" /><path clip-path="url(#clip430)" d="M2374.33 1454.1 Q2370.72 1454.1 2368.89 1457.66 Q2367.08 1461.2 2367.08 1468.33 Q2367.08 1475.44 2368.89 1479.01 Q2370.72 1482.55 2374.33 1482.55 Q2377.96 1482.55 2379.77 1479.01 Q2381.6 1475.44 2381.6 1468.33 Q2381.6 1461.2 2379.77 1457.66 Q2377.96 1454.1 2374.33 1454.1 M2374.33 1450.39 Q2380.14 1450.39 2383.2 1455 Q2386.27 1459.58 2386.27 1468.33 Q2386.27 1477.06 2383.2 1481.67 Q2380.14 1486.25 2374.33 1486.25 Q2368.52 1486.25 2365.44 1481.67 Q2362.39 1477.06 2362.39 1468.33 Q2362.39 1459.58 2365.44 1455 Q2368.52 1450.39 2374.33 1450.39 Z" fill="#000000" fill-rule="nonzero" fill-opacity="1" /><path clip-path="url(#clip430)" d="M1302.84 1528.8 Q1302.84 1530.61 1301.72 1531.64 Q1300.59 1532.64 1299.3 1532.64 Q1298.08 1532.64 1297.43 1531.93 Q1296.79 1531.22 1296.79 1530.32 Q1296.79 1529.09 1297.69 1528.03 Q1298.59 1526.97 1299.94 1526.74 Q1298.62 1525.91 1296.66 1525.91 Q1295.37 1525.91 1294.24 1526.58 Q1293.15 1527.26 1292.47 1528.13 Q1291.83 1529 1291.25 1530.25 Q1290.7 1531.48 1290.48 1532.22 Q1290.28 1532.93 1290.12 1533.7 L1287.87 1542.72 Q1286.77 1547 1286.77 1548.51 Q1286.77 1550.38 1287.67 1551.64 Q1288.58 1552.86 1290.38 1552.86 Q1291.09 1552.86 1291.89 1552.67 Q1292.7 1552.44 1293.73 1551.86 Q1294.79 1551.25 1295.73 1550.35 Q1296.69 1549.42 1297.63 1547.84 Q1298.56 1546.26 1299.17 1544.23 Q1299.37 1543.52 1300.01 1543.52 Q1300.81 1543.52 1300.81 1544.17 Q1300.81 1544.71 1300.36 1545.87 Q1299.94 1547 1299.01 1548.48 Q1298.11 1549.93 1296.92 1551.25 Q1295.73 1552.54 1293.95 1553.44 Q1292.18 1554.34 1290.25 1554.34 Q1287.48 1554.34 1285.65 1552.86 Q1283.81 1551.38 1283.13 1549.32 Q1282.97 1549.61 1282.75 1550 Q1282.52 1550.38 1281.85 1551.25 Q1281.2 1552.09 1280.46 1552.73 Q1279.72 1553.34 1278.56 1553.83 Q1277.43 1554.34 1276.21 1554.34 Q1274.66 1554.34 1273.28 1553.89 Q1271.93 1553.44 1270.96 1552.41 Q1269.99 1551.38 1269.99 1549.96 Q1269.99 1548.38 1271.06 1547.29 Q1272.15 1546.16 1273.63 1546.16 Q1274.57 1546.16 1275.31 1546.71 Q1276.08 1547.26 1276.08 1548.45 Q1276.08 1549.77 1275.18 1550.77 Q1274.28 1551.77 1272.99 1552.02 Q1274.31 1552.86 1276.27 1552.86 Q1278.4 1552.86 1280.07 1550.99 Q1281.75 1549.13 1282.55 1546 Q1284.55 1538.5 1285.32 1535.15 Q1286.1 1531.77 1286.1 1530.32 Q1286.1 1528.96 1285.74 1528.03 Q1285.39 1527.1 1284.78 1526.68 Q1284.2 1526.23 1283.65 1526.07 Q1283.13 1525.91 1282.55 1525.91 Q1281.59 1525.91 1280.49 1526.29 Q1279.43 1526.68 1278.14 1527.58 Q1276.89 1528.45 1275.69 1530.25 Q1274.5 1532.06 1273.7 1534.54 Q1273.54 1535.28 1272.83 1535.28 Q1272.05 1535.24 1272.05 1534.6 Q1272.05 1534.05 1272.47 1532.93 Q1272.92 1531.77 1273.83 1530.32 Q1274.76 1528.87 1275.95 1527.58 Q1277.18 1526.26 1278.95 1525.36 Q1280.75 1524.46 1282.68 1524.46 Q1283.55 1524.46 1284.39 1524.65 Q1285.26 1524.81 1286.29 1525.29 Q1287.35 1525.78 1288.29 1526.84 Q1289.22 1527.9 1289.8 1529.45 Q1290.19 1528.71 1290.7 1528 Q1291.25 1527.29 1292.09 1526.42 Q1292.96 1525.52 1294.15 1525 Q1295.37 1524.46 1296.72 1524.46 Q1298.04 1524.46 1299.33 1524.81 Q1300.62 1525.13 1301.72 1526.19 Q1302.84 1527.23 1302.84 1528.8 Z" fill="#000000" fill-rule="nonzero" fill-opacity="1" /><polyline clip-path="url(#clip430)" style="stroke:#000000; stroke-linecap:round; stroke-linejoin:round; stroke-width:4; stroke-opacity:1; fill:none" points="224.584,1423.18 224.584,123.472 "/>
<polyline clip-path="url(#clip430)" style="stroke:#000000; stroke-linecap:round; stroke-linejoin:round; stroke-width:4; stroke-opacity:1; fill:none" points="224.584,1268.2 243.482,1268.2 "/>
<polyline clip-path="url(#clip430)" style="stroke:#000000; stroke-linecap:round; stroke-linejoin:round; stroke-width:4; stroke-opacity:1; fill:none" points="224.584,1020.76 243.482,1020.76 "/>
<polyline clip-path="url(#clip430)" style="stroke:#000000; stroke-linecap:round; stroke-linejoin:round; stroke-width:4; stroke-opacity:1; fill:none" points="224.584,773.32 243.482,773.32 "/>
<polyline clip-path="url(#clip430)" style="stroke:#000000; stroke-linecap:round; stroke-linejoin:round; stroke-width:4; stroke-opacity:1; fill:none" points="224.584,525.883 243.482,525.883 "/>
<polyline clip-path="url(#clip430)" style="stroke:#000000; stroke-linecap:round; stroke-linejoin:round; stroke-width:4; stroke-opacity:1; fill:none" points="224.584,278.445 243.482,278.445 "/>
<path clip-path="url(#clip430)" d="M50.9921 1268.65 L80.6679 1268.65 L80.6679 1272.58 L50.9921 1272.58 L50.9921 1268.65 Z" fill="#000000" fill-rule="nonzero" fill-opacity="1" /><path clip-path="url(#clip430)" d="M100.76 1253.99 Q97.1493 1253.99 95.3206 1257.56 Q93.515 1261.1 93.515 1268.23 Q93.515 1275.34 95.3206 1278.9 Q97.1493 1282.44 100.76 1282.44 Q104.395 1282.44 106.2 1278.9 Q108.029 1275.34 108.029 1268.23 Q108.029 1261.1 106.2 1257.56 Q104.395 1253.99 100.76 1253.99 M100.76 1250.29 Q106.571 1250.29 109.626 1254.9 Q112.705 1259.48 112.705 1268.23 Q112.705 1276.96 109.626 1281.56 Q106.571 1286.15 100.76 1286.15 Q94.9502 1286.15 91.8715 1281.56 Q88.816 1276.96 88.816 1268.23 Q88.816 1259.48 91.8715 1254.9 Q94.9502 1250.29 100.76 1250.29 Z" fill="#000000" fill-rule="nonzero" fill-opacity="1" /><path clip-path="url(#clip430)" d="M120.922 1279.6 L125.807 1279.6 L125.807 1285.48 L120.922 1285.48 L120.922 1279.6 Z" fill="#000000" fill-rule="nonzero" fill-opacity="1" /><path clip-path="url(#clip430)" d="M145.992 1253.99 Q142.381 1253.99 140.552 1257.56 Q138.746 1261.1 138.746 1268.23 Q138.746 1275.34 140.552 1278.9 Q142.381 1282.44 145.992 1282.44 Q149.626 1282.44 151.431 1278.9 Q153.26 1275.34 153.26 1268.23 Q153.26 1261.1 151.431 1257.56 Q149.626 1253.99 145.992 1253.99 M145.992 1250.29 Q151.802 1250.29 154.857 1254.9 Q157.936 1259.48 157.936 1268.23 Q157.936 1276.96 154.857 1281.56 Q151.802 1286.15 145.992 1286.15 Q140.181 1286.15 137.103 1281.56 Q134.047 1276.96 134.047 1268.23 Q134.047 1259.48 137.103 1254.9 Q140.181 1250.29 145.992 1250.29 Z" fill="#000000" fill-rule="nonzero" fill-opacity="1" /><path clip-path="url(#clip430)" d="M179.001 1254.99 L167.195 1273.44 L179.001 1273.44 L179.001 1254.99 M177.774 1250.92 L183.653 1250.92 L183.653 1273.44 L188.584 1273.44 L188.584 1277.33 L183.653 1277.33 L183.653 1285.48 L179.001 1285.48 L179.001 1277.33 L163.399 1277.33 L163.399 1272.81 L177.774 1250.92 Z" fill="#000000" fill-rule="nonzero" fill-opacity="1" /><path clip-path="url(#clip430)" d="M53.0754 1021.21 L82.7512 1021.21 L82.7512 1025.14 L53.0754 1025.14 L53.0754 1021.21 Z" fill="#000000" fill-rule="nonzero" fill-opacity="1" /><path clip-path="url(#clip430)" d="M102.844 1006.56 Q99.2326 1006.56 97.4039 1010.12 Q95.5984 1013.66 95.5984 1020.79 Q95.5984 1027.9 97.4039 1031.46 Q99.2326 1035.01 102.844 1035.01 Q106.478 1035.01 108.283 1031.46 Q110.112 1027.9 110.112 1020.79 Q110.112 1013.66 108.283 1010.12 Q106.478 1006.56 102.844 1006.56 M102.844 1002.85 Q108.654 1002.85 111.709 1007.46 Q114.788 1012.04 114.788 1020.79 Q114.788 1029.52 111.709 1034.13 Q108.654 1038.71 102.844 1038.71 Q97.0335 1038.71 93.9549 1034.13 Q90.8993 1029.52 90.8993 1020.79 Q90.8993 1012.04 93.9549 1007.46 Q97.0335 1002.85 102.844 1002.85 Z" fill="#000000" fill-rule="nonzero" fill-opacity="1" /><path clip-path="url(#clip430)" d="M123.006 1032.16 L127.89 1032.16 L127.89 1038.04 L123.006 1038.04 L123.006 1032.16 Z" fill="#000000" fill-rule="nonzero" fill-opacity="1" /><path clip-path="url(#clip430)" d="M148.075 1006.56 Q144.464 1006.56 142.635 1010.12 Q140.83 1013.66 140.83 1020.79 Q140.83 1027.9 142.635 1031.46 Q144.464 1035.01 148.075 1035.01 Q151.709 1035.01 153.515 1031.46 Q155.343 1027.9 155.343 1020.79 Q155.343 1013.66 153.515 1010.12 Q151.709 1006.56 148.075 1006.56 M148.075 1002.85 Q153.885 1002.85 156.941 1007.46 Q160.019 1012.04 160.019 1020.79 Q160.019 1029.52 156.941 1034.13 Q153.885 1038.71 148.075 1038.71 Q142.265 1038.71 139.186 1034.13 Q136.131 1029.52 136.131 1020.79 Q136.131 1012.04 139.186 1007.46 Q142.265 1002.85 148.075 1002.85 Z" fill="#000000" fill-rule="nonzero" fill-opacity="1" /><path clip-path="url(#clip430)" d="M172.265 1034.1 L188.584 1034.1 L188.584 1038.04 L166.64 1038.04 L166.64 1034.1 Q169.302 1031.35 173.885 1026.72 Q178.491 1022.07 179.672 1020.72 Q181.917 1018.2 182.797 1016.46 Q183.7 1014.7 183.7 1013.01 Q183.7 1010.26 181.755 1008.52 Q179.834 1006.79 176.732 1006.79 Q174.533 1006.79 172.079 1007.55 Q169.649 1008.32 166.871 1009.87 L166.871 1005.14 Q169.695 1004.01 172.149 1003.43 Q174.603 1002.85 176.64 1002.85 Q182.01 1002.85 185.204 1005.54 Q188.399 1008.22 188.399 1012.71 Q188.399 1014.84 187.589 1016.76 Q186.802 1018.66 184.695 1021.26 Q184.116 1021.93 181.015 1025.14 Q177.913 1028.34 172.265 1034.1 Z" fill="#000000" fill-rule="nonzero" fill-opacity="1" /><path clip-path="url(#clip430)" d="M101.246 759.119 Q97.6354 759.119 95.8067 762.684 Q94.0012 766.225 94.0012 773.355 Q94.0012 780.461 95.8067 784.026 Q97.6354 787.568 101.246 787.568 Q104.881 787.568 106.686 784.026 Q108.515 780.461 108.515 773.355 Q108.515 766.225 106.686 762.684 Q104.881 759.119 101.246 759.119 M101.246 755.415 Q107.057 755.415 110.112 760.022 Q113.191 764.605 113.191 773.355 Q113.191 782.082 110.112 786.688 Q107.057 791.272 101.246 791.272 Q95.4363 791.272 92.3576 786.688 Q89.3021 782.082 89.3021 773.355 Q89.3021 764.605 92.3576 760.022 Q95.4363 755.415 101.246 755.415 Z" fill="#000000" fill-rule="nonzero" fill-opacity="1" /><path clip-path="url(#clip430)" d="M121.408 784.721 L126.293 784.721 L126.293 790.6 L121.408 790.6 L121.408 784.721 Z" fill="#000000" fill-rule="nonzero" fill-opacity="1" /><path clip-path="url(#clip430)" d="M146.478 759.119 Q142.867 759.119 141.038 762.684 Q139.232 766.225 139.232 773.355 Q139.232 780.461 141.038 784.026 Q142.867 787.568 146.478 787.568 Q150.112 787.568 151.918 784.026 Q153.746 780.461 153.746 773.355 Q153.746 766.225 151.918 762.684 Q150.112 759.119 146.478 759.119 M146.478 755.415 Q152.288 755.415 155.343 760.022 Q158.422 764.605 158.422 773.355 Q158.422 782.082 155.343 786.688 Q152.288 791.272 146.478 791.272 Q140.668 791.272 137.589 786.688 Q134.533 782.082 134.533 773.355 Q134.533 764.605 137.589 760.022 Q140.668 755.415 146.478 755.415 Z" fill="#000000" fill-rule="nonzero" fill-opacity="1" /><path clip-path="url(#clip430)" d="M176.64 759.119 Q173.029 759.119 171.2 762.684 Q169.394 766.225 169.394 773.355 Q169.394 780.461 171.2 784.026 Q173.029 787.568 176.64 787.568 Q180.274 787.568 182.079 784.026 Q183.908 780.461 183.908 773.355 Q183.908 766.225 182.079 762.684 Q180.274 759.119 176.64 759.119 M176.64 755.415 Q182.45 755.415 185.505 760.022 Q188.584 764.605 188.584 773.355 Q188.584 782.082 185.505 786.688 Q182.45 791.272 176.64 791.272 Q170.829 791.272 167.751 786.688 Q164.695 782.082 164.695 773.355 Q164.695 764.605 167.751 760.022 Q170.829 755.415 176.64 755.415 Z" fill="#000000" fill-rule="nonzero" fill-opacity="1" /><path clip-path="url(#clip430)" d="M102.844 511.681 Q99.2326 511.681 97.4039 515.246 Q95.5984 518.788 95.5984 525.917 Q95.5984 533.024 97.4039 536.588 Q99.2326 540.13 102.844 540.13 Q106.478 540.13 108.283 536.588 Q110.112 533.024 110.112 525.917 Q110.112 518.788 108.283 515.246 Q106.478 511.681 102.844 511.681 M102.844 507.978 Q108.654 507.978 111.709 512.584 Q114.788 517.167 114.788 525.917 Q114.788 534.644 111.709 539.251 Q108.654 543.834 102.844 543.834 Q97.0335 543.834 93.9549 539.251 Q90.8993 534.644 90.8993 525.917 Q90.8993 517.167 93.9549 512.584 Q97.0335 507.978 102.844 507.978 Z" fill="#000000" fill-rule="nonzero" fill-opacity="1" /><path clip-path="url(#clip430)" d="M123.006 537.283 L127.89 537.283 L127.89 543.163 L123.006 543.163 L123.006 537.283 Z" fill="#000000" fill-rule="nonzero" fill-opacity="1" /><path clip-path="url(#clip430)" d="M148.075 511.681 Q144.464 511.681 142.635 515.246 Q140.83 518.788 140.83 525.917 Q140.83 533.024 142.635 536.588 Q144.464 540.13 148.075 540.13 Q151.709 540.13 153.515 536.588 Q155.343 533.024 155.343 525.917 Q155.343 518.788 153.515 515.246 Q151.709 511.681 148.075 511.681 M148.075 507.978 Q153.885 507.978 156.941 512.584 Q160.019 517.167 160.019 525.917 Q160.019 534.644 156.941 539.251 Q153.885 543.834 148.075 543.834 Q142.265 543.834 139.186 539.251 Q136.131 534.644 136.131 525.917 Q136.131 517.167 139.186 512.584 Q142.265 507.978 148.075 507.978 Z" fill="#000000" fill-rule="nonzero" fill-opacity="1" /><path clip-path="url(#clip430)" d="M172.265 539.227 L188.584 539.227 L188.584 543.163 L166.64 543.163 L166.64 539.227 Q169.302 536.473 173.885 531.843 Q178.491 527.19 179.672 525.848 Q181.917 523.325 182.797 521.589 Q183.7 519.829 183.7 518.14 Q183.7 515.385 181.755 513.649 Q179.834 511.913 176.732 511.913 Q174.533 511.913 172.079 512.677 Q169.649 513.44 166.871 514.991 L166.871 510.269 Q169.695 509.135 172.149 508.556 Q174.603 507.978 176.64 507.978 Q182.01 507.978 185.204 510.663 Q188.399 513.348 188.399 517.839 Q188.399 519.968 187.589 521.889 Q186.802 523.788 184.695 526.38 Q184.116 527.052 181.015 530.269 Q177.913 533.464 172.265 539.227 Z" fill="#000000" fill-rule="nonzero" fill-opacity="1" /><path clip-path="url(#clip430)" d="M100.76 264.244 Q97.1493 264.244 95.3206 267.808 Q93.515 271.35 93.515 278.48 Q93.515 285.586 95.3206 289.151 Q97.1493 292.692 100.76 292.692 Q104.395 292.692 106.2 289.151 Q108.029 285.586 108.029 278.48 Q108.029 271.35 106.2 267.808 Q104.395 264.244 100.76 264.244 M100.76 260.54 Q106.571 260.54 109.626 265.146 Q112.705 269.73 112.705 278.48 Q112.705 287.206 109.626 291.813 Q106.571 296.396 100.76 296.396 Q94.9502 296.396 91.8715 291.813 Q88.816 287.206 88.816 278.48 Q88.816 269.73 91.8715 265.146 Q94.9502 260.54 100.76 260.54 Z" fill="#000000" fill-rule="nonzero" fill-opacity="1" /><path clip-path="url(#clip430)" d="M120.922 289.845 L125.807 289.845 L125.807 295.725 L120.922 295.725 L120.922 289.845 Z" fill="#000000" fill-rule="nonzero" fill-opacity="1" /><path clip-path="url(#clip430)" d="M145.992 264.244 Q142.381 264.244 140.552 267.808 Q138.746 271.35 138.746 278.48 Q138.746 285.586 140.552 289.151 Q142.381 292.692 145.992 292.692 Q149.626 292.692 151.431 289.151 Q153.26 285.586 153.26 278.48 Q153.26 271.35 151.431 267.808 Q149.626 264.244 145.992 264.244 M145.992 260.54 Q151.802 260.54 154.857 265.146 Q157.936 269.73 157.936 278.48 Q157.936 287.206 154.857 291.813 Q151.802 296.396 145.992 296.396 Q140.181 296.396 137.103 291.813 Q134.047 287.206 134.047 278.48 Q134.047 269.73 137.103 265.146 Q140.181 260.54 145.992 260.54 Z" fill="#000000" fill-rule="nonzero" fill-opacity="1" /><path clip-path="url(#clip430)" d="M179.001 265.239 L167.195 283.688 L179.001 283.688 L179.001 265.239 M177.774 261.165 L183.653 261.165 L183.653 283.688 L188.584 283.688 L188.584 287.577 L183.653 287.577 L183.653 295.725 L179.001 295.725 L179.001 287.577 L163.399 287.577 L163.399 283.063 L177.774 261.165 Z" fill="#000000" fill-rule="nonzero" fill-opacity="1" /><path clip-path="url(#clip430)" d="M1199.33 28.5427 L1199.33 35.5912 Q1196.17 33.9709 1192.76 33.1607 Q1189.36 32.3505 1185.72 32.3505 Q1180.17 32.3505 1177.37 34.0519 Q1174.62 35.7533 1174.62 39.156 Q1174.62 41.7486 1176.6 43.2475 Q1178.59 44.7058 1184.58 46.0426 L1187.13 46.6097 Q1195.07 48.3111 1198.4 51.4303 Q1201.76 54.509 1201.76 60.0587 Q1201.76 66.3781 1196.73 70.0644 Q1191.75 73.7508 1183 73.7508 Q1179.36 73.7508 1175.39 73.0216 Q1171.46 72.3329 1167.08 70.9151 L1167.08 63.2184 Q1171.21 65.3654 1175.22 66.4591 Q1179.23 67.5124 1183.16 67.5124 Q1188.43 67.5124 1191.27 65.73 Q1194.1 63.9071 1194.1 60.6258 Q1194.1 57.5877 1192.04 55.9673 Q1190.01 54.3469 1183.08 52.8481 L1180.49 52.2405 Q1173.56 50.7821 1170.48 47.7845 Q1167.41 44.7463 1167.41 39.4801 Q1167.41 33.0797 1171.94 29.5959 Q1176.48 26.1121 1184.83 26.1121 Q1188.96 26.1121 1192.6 26.7198 Q1196.25 27.3274 1199.33 28.5427 Z" fill="#000000" fill-rule="nonzero" fill-opacity="1" /><path clip-path="url(#clip430)" d="M1246.28 28.9478 L1246.28 35.9153 Q1243.12 34.1734 1239.92 33.3227 Q1236.76 32.4315 1233.52 32.4315 Q1226.27 32.4315 1222.26 37.0496 Q1218.24 41.6271 1218.24 49.9314 Q1218.24 58.2358 1222.26 62.8538 Q1226.27 67.4314 1233.52 67.4314 Q1236.76 67.4314 1239.92 66.5807 Q1243.12 65.6895 1246.28 63.9476 L1246.28 70.8341 Q1243.16 72.2924 1239.8 73.0216 Q1236.47 73.7508 1232.71 73.7508 Q1222.46 73.7508 1216.42 67.3098 Q1210.39 60.8689 1210.39 49.9314 Q1210.39 38.832 1216.46 32.472 Q1222.58 26.1121 1233.19 26.1121 Q1236.64 26.1121 1239.92 26.8413 Q1243.2 27.5299 1246.28 28.9478 Z" fill="#000000" fill-rule="nonzero" fill-opacity="1" /><path clip-path="url(#clip430)" d="M1279.86 49.7694 Q1270.83 49.7694 1267.34 51.8354 Q1263.86 53.9013 1263.86 58.8839 Q1263.86 62.8538 1266.45 65.2034 Q1269.08 67.5124 1273.58 67.5124 Q1279.78 67.5124 1283.51 63.1374 Q1287.27 58.7219 1287.27 51.4303 L1287.27 49.7694 L1279.86 49.7694 M1294.73 46.6907 L1294.73 72.576 L1287.27 72.576 L1287.27 65.6895 Q1284.72 69.8214 1280.91 71.8063 Q1277.1 73.7508 1271.6 73.7508 Q1264.63 73.7508 1260.5 69.8619 Q1256.4 65.9325 1256.4 59.3701 Q1256.4 51.7138 1261.51 47.825 Q1266.65 43.9361 1276.82 43.9361 L1287.27 43.9361 L1287.27 43.2069 Q1287.27 38.0623 1283.87 35.2672 Q1280.51 32.4315 1274.39 32.4315 Q1270.5 32.4315 1266.82 33.3632 Q1263.13 34.295 1259.73 36.1584 L1259.73 29.2718 Q1263.82 27.692 1267.67 26.9223 Q1271.51 26.1121 1275.16 26.1121 Q1285 26.1121 1289.86 31.2163 Q1294.73 36.3204 1294.73 46.6907 Z" fill="#000000" fill-rule="nonzero" fill-opacity="1" /><path clip-path="url(#clip430)" d="M1310.08 9.54393 L1317.53 9.54393 L1317.53 72.576 L1310.08 72.576 L1310.08 9.54393 Z" fill="#000000" fill-rule="nonzero" fill-opacity="1" /><path clip-path="url(#clip430)" d="M1353.75 49.7694 Q1344.71 49.7694 1341.23 51.8354 Q1337.75 53.9013 1337.75 58.8839 Q1337.75 62.8538 1340.34 65.2034 Q1342.97 67.5124 1347.47 67.5124 Q1353.67 67.5124 1357.39 63.1374 Q1361.16 58.7219 1361.16 51.4303 L1361.16 49.7694 L1353.75 49.7694 M1368.61 46.6907 L1368.61 72.576 L1361.16 72.576 L1361.16 65.6895 Q1358.61 69.8214 1354.8 71.8063 Q1350.99 73.7508 1345.48 73.7508 Q1338.52 73.7508 1334.38 69.8619 Q1330.29 65.9325 1330.29 59.3701 Q1330.29 51.7138 1335.4 47.825 Q1340.54 43.9361 1350.71 43.9361 L1361.16 43.9361 L1361.16 43.2069 Q1361.16 38.0623 1357.76 35.2672 Q1354.4 32.4315 1348.28 32.4315 Q1344.39 32.4315 1340.7 33.3632 Q1337.02 34.295 1333.61 36.1584 L1333.61 29.2718 Q1337.71 27.692 1341.55 26.9223 Q1345.4 26.1121 1349.05 26.1121 Q1358.89 26.1121 1363.75 31.2163 Q1368.61 36.3204 1368.61 46.6907 Z" fill="#000000" fill-rule="nonzero" fill-opacity="1" /><path clip-path="url(#clip430)" d="M1410.26 34.1734 Q1409 33.4443 1407.5 33.1202 Q1406.04 32.7556 1404.26 32.7556 Q1397.94 32.7556 1394.54 36.8875 Q1391.18 40.9789 1391.18 48.6757 L1391.18 72.576 L1383.68 72.576 L1383.68 27.2059 L1391.18 27.2059 L1391.18 34.2544 Q1393.53 30.1225 1397.29 28.1376 Q1401.06 26.1121 1406.45 26.1121 Q1407.22 26.1121 1408.15 26.2337 Q1409.08 26.3147 1410.22 26.5172 L1410.26 34.1734 Z" fill="#000000" fill-rule="nonzero" fill-opacity="1" /><polyline clip-path="url(#clip432)" style="stroke:#009af9; stroke-linecap:round; stroke-linejoin:round; stroke-width:4; stroke-opacity:1; fill:none" points="224.584,768.425 243.586,735.7 262.587,701.863 281.589,667.515 300.59,633.257 319.592,599.689 338.593,567.413 357.595,537.029 357.595,534.096 376.596,504.516 395.598,474.544 414.599,444.751 433.601,415.706 452.602,387.982 471.604,362.15 490.605,338.78 490.605,336.422 509.607,314.317 528.609,292.677 547.61,271.942 566.612,252.552 585.613,234.949 604.615,219.572 623.616,206.862 623.616,205.134 642.618,193.915 661.619,183.958 680.621,175.489 699.622,168.734 718.624,163.919 737.625,161.269 756.627,161.011 756.627,160.256 775.628,161.734 794.63,165.01 813.632,170.085 832.633,176.958 851.635,185.628 870.636,196.097 889.638,208.362 889.638,208.868 908.639,222.716 927.641,238.662 946.642,256.476 965.644,275.932 984.645,296.799 1003.65,318.851 1022.65,341.857 1022.65,343.394 1041.65,367.484 1060.65,393.681 1079.65,421.548 1098.65,450.65 1117.66,480.549 1136.66,510.809 1155.66,540.993 1155.66,543.258 1174.66,574.009 1193.66,606.517 1212.66,640.211 1231.67,674.518 1250.67,708.866 1269.67,742.681 1288.67,775.391 1288.67,778.204 1307.67,810.926 1326.67,844.769 1345.67,879.127 1364.68,913.394 1383.68,946.961 1402.68,979.223 1421.68,1009.57 1421.68,1012.52 1440.68,1042.13 1459.68,1072.11 1478.69,1101.9 1497.69,1130.93 1516.69,1158.65 1535.69,1184.48 1554.69,1207.87 1554.69,1210.26 1573.69,1232.33 1592.69,1253.96 1611.7,1274.69 1630.7,1294.08 1649.7,1311.7 1668.7,1327.09 1687.7,1339.8 1687.7,1341.47 1706.7,1352.71 1725.71,1362.68 1744.71,1371.16 1763.71,1377.92 1782.71,1382.73 1801.71,1385.36 1820.71,1385.58 1820.71,1386.4 1839.71,1384.92 1858.72,1381.64 1877.72,1376.55 1896.72,1369.67 1915.72,1361 1934.72,1350.55 1953.72,1338.32 1953.72,1337.8 1972.73,1323.92 1991.73,1307.97 2010.73,1290.16 2029.73,1270.71 2048.73,1249.85 2067.73,1227.8 2086.73,1204.77 2086.73,1203.2 2105.74,1179.15 2124.74,1152.97 2143.74,1125.1 2162.74,1096 2181.74,1066.09 2200.74,1035.81 2219.75,1005.62 2219.75,1003.42 2238.75,972.65 2257.75,940.123 2276.75,906.419 2295.75,872.11 2314.75,837.771 2333.75,803.975 2352.76,771.296 "/>
<path clip-path="url(#clip430)" d="M1745.02 270.476 L2281.82 270.476 L2281.82 166.796 L1745.02 166.796  Z" fill="#ffffff" fill-rule="evenodd" fill-opacity="1"/>
<polyline clip-path="url(#clip430)" style="stroke:#000000; stroke-linecap:round; stroke-linejoin:round; stroke-width:4; stroke-opacity:1; fill:none" points="1745.02,270.476 2281.82,270.476 2281.82,166.796 1745.02,166.796 1745.02,270.476 "/>
<polyline clip-path="url(#clip430)" style="stroke:#009af9; stroke-linecap:round; stroke-linejoin:round; stroke-width:4; stroke-opacity:1; fill:none" points="1768.67,218.636 1910.54,218.636 "/>
<path clip-path="url(#clip430)" d="M1955.9 220.268 L1955.9 235.916 L1951.64 235.916 L1951.64 220.407 Q1951.64 216.726 1950.21 214.897 Q1948.77 213.069 1945.9 213.069 Q1942.45 213.069 1940.46 215.268 Q1938.47 217.467 1938.47 221.263 L1938.47 235.916 L1934.19 235.916 L1934.19 209.99 L1938.47 209.99 L1938.47 214.018 Q1940 211.68 1942.06 210.522 Q1944.14 209.365 1946.85 209.365 Q1951.32 209.365 1953.61 212.143 Q1955.9 214.897 1955.9 220.268 Z" fill="#000000" fill-rule="nonzero" fill-opacity="1" /><path clip-path="url(#clip430)" d="M1963.96 225.684 L1963.96 209.99 L1968.22 209.99 L1968.22 225.522 Q1968.22 229.203 1969.65 231.055 Q1971.09 232.883 1973.96 232.883 Q1977.41 232.883 1979.4 230.684 Q1981.41 228.485 1981.41 224.689 L1981.41 209.99 L1985.67 209.99 L1985.67 235.916 L1981.41 235.916 L1981.41 231.934 Q1979.86 234.295 1977.8 235.453 Q1975.76 236.587 1973.06 236.587 Q1968.59 236.587 1966.27 233.809 Q1963.96 231.031 1963.96 225.684 M1974.68 209.365 L1974.68 209.365 Z" fill="#000000" fill-rule="nonzero" fill-opacity="1" /><path clip-path="url(#clip430)" d="M2014.63 214.967 Q2016.23 212.096 2018.45 210.731 Q2020.67 209.365 2023.68 209.365 Q2027.73 209.365 2029.93 212.212 Q2032.13 215.036 2032.13 220.268 L2032.13 235.916 L2027.85 235.916 L2027.85 220.407 Q2027.85 216.68 2026.53 214.874 Q2025.21 213.069 2022.5 213.069 Q2019.19 213.069 2017.27 215.268 Q2015.35 217.467 2015.35 221.263 L2015.35 235.916 L2011.07 235.916 L2011.07 220.407 Q2011.07 216.657 2009.75 214.874 Q2008.43 213.069 2005.67 213.069 Q2002.41 213.069 2000.49 215.291 Q1998.57 217.49 1998.57 221.263 L1998.57 235.916 L1994.28 235.916 L1994.28 209.99 L1998.57 209.99 L1998.57 214.018 Q2000.02 211.633 2002.06 210.499 Q2004.1 209.365 2006.9 209.365 Q2009.72 209.365 2011.69 210.8 Q2013.68 212.235 2014.63 214.967 Z" fill="#000000" fill-rule="nonzero" fill-opacity="1" /><path clip-path="url(#clip430)" d="M2062.8 221.888 L2062.8 223.971 L2043.22 223.971 Q2043.5 228.369 2045.86 230.684 Q2048.24 232.976 2052.48 232.976 Q2054.93 232.976 2057.22 232.374 Q2059.54 231.772 2061.81 230.569 L2061.81 234.596 Q2059.51 235.568 2057.11 236.078 Q2054.7 236.587 2052.22 236.587 Q2046.02 236.587 2042.38 232.976 Q2038.77 229.365 2038.77 223.207 Q2038.77 216.842 2042.2 213.115 Q2045.65 209.365 2051.48 209.365 Q2056.71 209.365 2059.75 212.745 Q2062.8 216.101 2062.8 221.888 M2058.54 220.638 Q2058.5 217.143 2056.57 215.059 Q2054.68 212.976 2051.53 212.976 Q2047.96 212.976 2045.81 214.99 Q2043.68 217.004 2043.36 220.661 L2058.54 220.638 Z" fill="#000000" fill-rule="nonzero" fill-opacity="1" /><path clip-path="url(#clip430)" d="M2084.81 213.971 Q2084.1 213.555 2083.24 213.37 Q2082.41 213.161 2081.39 213.161 Q2077.78 213.161 2075.83 215.522 Q2073.91 217.86 2073.91 222.258 L2073.91 235.916 L2069.63 235.916 L2069.63 209.99 L2073.91 209.99 L2073.91 214.018 Q2075.25 211.657 2077.41 210.522 Q2079.56 209.365 2082.64 209.365 Q2083.08 209.365 2083.61 209.434 Q2084.14 209.481 2084.79 209.596 L2084.81 213.971 Z" fill="#000000" fill-rule="nonzero" fill-opacity="1" /><path clip-path="url(#clip430)" d="M2089.28 209.99 L2093.54 209.99 L2093.54 235.916 L2089.28 235.916 L2089.28 209.99 M2089.28 199.897 L2093.54 199.897 L2093.54 205.291 L2089.28 205.291 L2089.28 199.897 Z" fill="#000000" fill-rule="nonzero" fill-opacity="1" /><path clip-path="url(#clip430)" d="M2121.11 210.985 L2121.11 214.967 Q2119.31 213.971 2117.48 213.485 Q2115.67 212.976 2113.82 212.976 Q2109.68 212.976 2107.38 215.615 Q2105.09 218.231 2105.09 222.976 Q2105.09 227.721 2107.38 230.36 Q2109.68 232.976 2113.82 232.976 Q2115.67 232.976 2117.48 232.49 Q2119.31 231.981 2121.11 230.985 L2121.11 234.92 Q2119.33 235.754 2117.41 236.17 Q2115.51 236.587 2113.36 236.587 Q2107.5 236.587 2104.05 232.906 Q2100.6 229.226 2100.6 222.976 Q2100.6 216.633 2104.07 212.999 Q2107.57 209.365 2113.63 209.365 Q2115.6 209.365 2117.48 209.782 Q2119.35 210.175 2121.11 210.985 Z" fill="#000000" fill-rule="nonzero" fill-opacity="1" /><path clip-path="url(#clip430)" d="M2140.3 222.883 Q2135.14 222.883 2133.15 224.064 Q2131.16 225.244 2131.16 228.092 Q2131.16 230.36 2132.64 231.703 Q2134.14 233.022 2136.71 233.022 Q2140.25 233.022 2142.38 230.522 Q2144.54 227.999 2144.54 223.832 L2144.54 222.883 L2140.3 222.883 M2148.8 221.124 L2148.8 235.916 L2144.54 235.916 L2144.54 231.981 Q2143.08 234.342 2140.9 235.476 Q2138.73 236.587 2135.58 236.587 Q2131.6 236.587 2129.24 234.365 Q2126.9 232.119 2126.9 228.369 Q2126.9 223.994 2129.81 221.772 Q2132.75 219.55 2138.56 219.55 L2144.54 219.55 L2144.54 219.133 Q2144.54 216.194 2142.59 214.596 Q2140.67 212.976 2137.18 212.976 Q2134.95 212.976 2132.85 213.508 Q2130.74 214.041 2128.8 215.106 L2128.8 211.17 Q2131.13 210.268 2133.33 209.828 Q2135.53 209.365 2137.62 209.365 Q2143.24 209.365 2146.02 212.282 Q2148.8 215.198 2148.8 221.124 Z" fill="#000000" fill-rule="nonzero" fill-opacity="1" /><path clip-path="url(#clip430)" d="M2157.57 199.897 L2161.83 199.897 L2161.83 235.916 L2157.57 235.916 L2157.57 199.897 Z" fill="#000000" fill-rule="nonzero" fill-opacity="1" /><path clip-path="url(#clip430)" d="M2202.34 210.754 L2202.34 214.782 Q2200.53 213.856 2198.59 213.393 Q2196.64 212.93 2194.56 212.93 Q2191.39 212.93 2189.79 213.902 Q2188.22 214.874 2188.22 216.819 Q2188.22 218.3 2189.35 219.157 Q2190.49 219.99 2193.91 220.754 L2195.37 221.078 Q2199.91 222.05 2201.81 223.832 Q2203.73 225.592 2203.73 228.763 Q2203.73 232.374 2200.86 234.481 Q2198.01 236.587 2193.01 236.587 Q2190.93 236.587 2188.66 236.17 Q2186.41 235.777 2183.91 234.967 L2183.91 230.569 Q2186.27 231.795 2188.56 232.42 Q2190.86 233.022 2193.1 233.022 Q2196.11 233.022 2197.73 232.004 Q2199.35 230.962 2199.35 229.087 Q2199.35 227.351 2198.17 226.425 Q2197.01 225.499 2193.06 224.643 L2191.57 224.295 Q2187.62 223.462 2185.86 221.749 Q2184.1 220.013 2184.1 217.004 Q2184.1 213.346 2186.69 211.356 Q2189.28 209.365 2194.05 209.365 Q2196.41 209.365 2198.49 209.712 Q2200.58 210.059 2202.34 210.754 Z" fill="#000000" fill-rule="nonzero" fill-opacity="1" /><path clip-path="url(#clip430)" d="M2220.55 212.976 Q2217.13 212.976 2215.14 215.661 Q2213.15 218.323 2213.15 222.976 Q2213.15 227.629 2215.12 230.314 Q2217.11 232.976 2220.55 232.976 Q2223.96 232.976 2225.95 230.291 Q2227.94 227.606 2227.94 222.976 Q2227.94 218.37 2225.95 215.684 Q2223.96 212.976 2220.55 212.976 M2220.55 209.365 Q2226.11 209.365 2229.28 212.976 Q2232.45 216.587 2232.45 222.976 Q2232.45 229.342 2229.28 232.976 Q2226.11 236.587 2220.55 236.587 Q2214.98 236.587 2211.8 232.976 Q2208.66 229.342 2208.66 222.976 Q2208.66 216.587 2211.8 212.976 Q2214.98 209.365 2220.55 209.365 Z" fill="#000000" fill-rule="nonzero" fill-opacity="1" /><path clip-path="url(#clip430)" d="M2239.51 199.897 L2243.77 199.897 L2243.77 235.916 L2239.51 235.916 L2239.51 199.897 Z" fill="#000000" fill-rule="nonzero" fill-opacity="1" /><path clip-path="url(#clip430)" d="M2253.29 230.036 L2258.17 230.036 L2258.17 235.916 L2253.29 235.916 L2253.29 230.036 Z" fill="#000000" fill-rule="nonzero" fill-opacity="1" /></svg>
