<?xml version="1.0" encoding="utf-8"?>
<svg xmlns="http://www.w3.org/2000/svg" xmlns:xlink="http://www.w3.org/1999/xlink" width="600" height="400" viewBox="0 0 2400 1600">
<defs>
  <clipPath id="clip960">
    <rect x="0" y="0" width="2400" height="1600"/>
  </clipPath>
</defs>
<path clip-path="url(#clip960)" d="M0 1600 L2400 1600 L2400 0 L0 0  Z" fill="#ffffff" fill-rule="evenodd" fill-opacity="1"/>
<defs>
  <clipPath id="clip961">
    <rect x="480" y="0" width="1681" height="1600"/>
  </clipPath>
</defs>
<path clip-path="url(#clip960)" d="M156.274 1423.18 L2352.76 1423.18 L2352.76 123.472 L156.274 123.472  Z" fill="#ffffff" fill-rule="evenodd" fill-opacity="1"/>
<defs>
  <clipPath id="clip962">
    <rect x="156" y="123" width="2197" height="1301"/>
  </clipPath>
</defs>
<polyline clip-path="url(#clip962)" style="stroke:#000000; stroke-linecap:round; stroke-linejoin:round; stroke-width:2; stroke-opacity:0.1; fill:none" points="156.274,1423.18 156.274,123.472 "/>
<polyline clip-path="url(#clip962)" style="stroke:#000000; stroke-linecap:round; stroke-linejoin:round; stroke-width:2; stroke-opacity:0.1; fill:none" points="705.395,1423.18 705.395,123.472 "/>
<polyline clip-path="url(#clip962)" style="stroke:#000000; stroke-linecap:round; stroke-linejoin:round; stroke-width:2; stroke-opacity:0.1; fill:none" points="1254.52,1423.18 1254.52,123.472 "/>
<polyline clip-path="url(#clip962)" style="stroke:#000000; stroke-linecap:round; stroke-linejoin:round; stroke-width:2; stroke-opacity:0.1; fill:none" points="1803.64,1423.18 1803.64,123.472 "/>
<polyline clip-path="url(#clip962)" style="stroke:#000000; stroke-linecap:round; stroke-linejoin:round; stroke-width:2; stroke-opacity:0.1; fill:none" points="2352.76,1423.18 2352.76,123.472 "/>
<polyline clip-path="url(#clip962)" style="stroke:#000000; stroke-linecap:round; stroke-linejoin:round; stroke-width:2; stroke-opacity:0.1; fill:none" points="156.274,1263.78 2352.76,1263.78 "/>
<polyline clip-path="url(#clip962)" style="stroke:#000000; stroke-linecap:round; stroke-linejoin:round; stroke-width:2; stroke-opacity:0.1; fill:none" points="156.274,1018.55 2352.76,1018.55 "/>
<polyline clip-path="url(#clip962)" style="stroke:#000000; stroke-linecap:round; stroke-linejoin:round; stroke-width:2; stroke-opacity:0.1; fill:none" points="156.274,773.326 2352.76,773.326 "/>
<polyline clip-path="url(#clip962)" style="stroke:#000000; stroke-linecap:round; stroke-linejoin:round; stroke-width:2; stroke-opacity:0.1; fill:none" points="156.274,528.097 2352.76,528.097 "/>
<polyline clip-path="url(#clip962)" style="stroke:#000000; stroke-linecap:round; stroke-linejoin:round; stroke-width:2; stroke-opacity:0.1; fill:none" points="156.274,282.869 2352.76,282.869 "/>
<polyline clip-path="url(#clip960)" style="stroke:#000000; stroke-linecap:round; stroke-linejoin:round; stroke-width:4; stroke-opacity:1; fill:none" points="156.274,1423.18 2352.76,1423.18 "/>
<polyline clip-path="url(#clip960)" style="stroke:#000000; stroke-linecap:round; stroke-linejoin:round; stroke-width:4; stroke-opacity:1; fill:none" points="156.274,1423.18 156.274,1404.28 "/>
<polyline clip-path="url(#clip960)" style="stroke:#000000; stroke-linecap:round; stroke-linejoin:round; stroke-width:4; stroke-opacity:1; fill:none" points="705.395,1423.18 705.395,1404.28 "/>
<polyline clip-path="url(#clip960)" style="stroke:#000000; stroke-linecap:round; stroke-linejoin:round; stroke-width:4; stroke-opacity:1; fill:none" points="1254.52,1423.18 1254.52,1404.28 "/>
<polyline clip-path="url(#clip960)" style="stroke:#000000; stroke-linecap:round; stroke-linejoin:round; stroke-width:4; stroke-opacity:1; fill:none" points="1803.64,1423.18 1803.64,1404.28 "/>
<polyline clip-path="url(#clip960)" style="stroke:#000000; stroke-linecap:round; stroke-linejoin:round; stroke-width:4; stroke-opacity:1; fill:none" points="2352.76,1423.18 2352.76,1404.28 "/>
<path clip-path="url(#clip960)" d="M102.802 1468.75 L132.478 1468.75 L132.478 1472.69 L102.802 1472.69 L102.802 1468.75 Z" fill="#000000" fill-rule="nonzero" fill-opacity="1" /><path clip-path="url(#clip960)" d="M143.381 1481.64 L151.02 1481.64 L151.02 1455.28 L142.709 1456.95 L142.709 1452.69 L150.973 1451.02 L155.649 1451.02 L155.649 1481.64 L163.288 1481.64 L163.288 1485.58 L143.381 1485.58 L143.381 1481.64 Z" fill="#000000" fill-rule="nonzero" fill-opacity="1" /><path clip-path="url(#clip960)" d="M172.732 1479.7 L177.617 1479.7 L177.617 1485.58 L172.732 1485.58 L172.732 1479.7 Z" fill="#000000" fill-rule="nonzero" fill-opacity="1" /><path clip-path="url(#clip960)" d="M197.802 1454.1 Q194.191 1454.1 192.362 1457.66 Q190.556 1461.2 190.556 1468.33 Q190.556 1475.44 192.362 1479.01 Q194.191 1482.55 197.802 1482.55 Q201.436 1482.55 203.242 1479.01 Q205.07 1475.44 205.07 1468.33 Q205.07 1461.2 203.242 1457.66 Q201.436 1454.1 197.802 1454.1 M197.802 1450.39 Q203.612 1450.39 206.667 1455 Q209.746 1459.58 209.746 1468.33 Q209.746 1477.06 206.667 1481.67 Q203.612 1486.25 197.802 1486.25 Q191.992 1486.25 188.913 1481.67 Q185.857 1477.06 185.857 1468.33 Q185.857 1459.58 188.913 1455 Q191.992 1450.39 197.802 1450.39 Z" fill="#000000" fill-rule="nonzero" fill-opacity="1" /><path clip-path="url(#clip960)" d="M652.42 1468.75 L682.096 1468.75 L682.096 1472.69 L652.42 1472.69 L652.42 1468.75 Z" fill="#000000" fill-rule="nonzero" fill-opacity="1" /><path clip-path="url(#clip960)" d="M702.189 1454.1 Q698.578 1454.1 696.749 1457.66 Q694.943 1461.2 694.943 1468.33 Q694.943 1475.44 696.749 1479.01 Q698.578 1482.55 702.189 1482.55 Q705.823 1482.55 707.628 1479.01 Q709.457 1475.44 709.457 1468.33 Q709.457 1461.2 707.628 1457.66 Q705.823 1454.1 702.189 1454.1 M702.189 1450.39 Q707.999 1450.39 711.054 1455 Q714.133 1459.58 714.133 1468.33 Q714.133 1477.06 711.054 1481.67 Q707.999 1486.25 702.189 1486.25 Q696.378 1486.25 693.3 1481.67 Q690.244 1477.06 690.244 1468.33 Q690.244 1459.58 693.3 1455 Q696.378 1450.39 702.189 1450.39 Z" fill="#000000" fill-rule="nonzero" fill-opacity="1" /><path clip-path="url(#clip960)" d="M722.351 1479.7 L727.235 1479.7 L727.235 1485.58 L722.351 1485.58 L722.351 1479.7 Z" fill="#000000" fill-rule="nonzero" fill-opacity="1" /><path clip-path="url(#clip960)" d="M737.466 1451.02 L755.823 1451.02 L755.823 1454.96 L741.749 1454.96 L741.749 1463.43 Q742.767 1463.08 743.786 1462.92 Q744.804 1462.73 745.823 1462.73 Q751.61 1462.73 754.989 1465.9 Q758.369 1469.08 758.369 1474.49 Q758.369 1480.07 754.897 1483.17 Q751.424 1486.25 745.105 1486.25 Q742.929 1486.25 740.661 1485.88 Q738.415 1485.51 736.008 1484.77 L736.008 1480.07 Q738.091 1481.2 740.313 1481.76 Q742.536 1482.32 745.012 1482.32 Q749.017 1482.32 751.355 1480.21 Q753.693 1478.1 753.693 1474.49 Q753.693 1470.88 751.355 1468.77 Q749.017 1466.67 745.012 1466.67 Q743.137 1466.67 741.262 1467.08 Q739.411 1467.5 737.466 1468.38 L737.466 1451.02 Z" fill="#000000" fill-rule="nonzero" fill-opacity="1" /><path clip-path="url(#clip960)" d="M1231.9 1454.1 Q1228.29 1454.1 1226.46 1457.66 Q1224.65 1461.2 1224.65 1468.33 Q1224.65 1475.44 1226.46 1479.01 Q1228.29 1482.55 1231.9 1482.55 Q1235.53 1482.55 1237.34 1479.01 Q1239.17 1475.44 1239.17 1468.33 Q1239.17 1461.2 1237.34 1457.66 Q1235.53 1454.1 1231.9 1454.1 M1231.9 1450.39 Q1237.71 1450.39 1240.77 1455 Q1243.84 1459.58 1243.84 1468.33 Q1243.84 1477.06 1240.77 1481.67 Q1237.71 1486.25 1231.9 1486.25 Q1226.09 1486.25 1223.01 1481.67 Q1219.96 1477.06 1219.96 1468.33 Q1219.96 1459.58 1223.01 1455 Q1226.09 1450.39 1231.9 1450.39 Z" fill="#000000" fill-rule="nonzero" fill-opacity="1" /><path clip-path="url(#clip960)" d="M1252.06 1479.7 L1256.95 1479.7 L1256.95 1485.58 L1252.06 1485.58 L1252.06 1479.7 Z" fill="#000000" fill-rule="nonzero" fill-opacity="1" /><path clip-path="url(#clip960)" d="M1277.13 1454.1 Q1273.52 1454.1 1271.69 1457.66 Q1269.89 1461.2 1269.89 1468.33 Q1269.89 1475.44 1271.69 1479.01 Q1273.52 1482.55 1277.13 1482.55 Q1280.76 1482.55 1282.57 1479.01 Q1284.4 1475.44 1284.4 1468.33 Q1284.4 1461.2 1282.57 1457.66 Q1280.76 1454.1 1277.13 1454.1 M1277.13 1450.39 Q1282.94 1450.39 1286 1455 Q1289.08 1459.58 1289.08 1468.33 Q1289.08 1477.06 1286 1481.67 Q1282.94 1486.25 1277.13 1486.25 Q1271.32 1486.25 1268.24 1481.67 Q1265.19 1477.06 1265.19 1468.33 Q1265.19 1459.58 1268.24 1455 Q1271.32 1450.39 1277.13 1450.39 Z" fill="#000000" fill-rule="nonzero" fill-opacity="1" /><path clip-path="url(#clip960)" d="M1781.52 1454.1 Q1777.91 1454.1 1776.08 1457.66 Q1774.27 1461.2 1774.27 1468.33 Q1774.27 1475.44 1776.08 1479.01 Q1777.91 1482.55 1781.52 1482.55 Q1785.15 1482.55 1786.96 1479.01 Q1788.79 1475.44 1788.79 1468.33 Q1788.79 1461.2 1786.96 1457.66 Q1785.15 1454.1 1781.52 1454.1 M1781.52 1450.39 Q1787.33 1450.39 1790.38 1455 Q1793.46 1459.58 1793.46 1468.33 Q1793.46 1477.06 1790.38 1481.67 Q1787.33 1486.25 1781.52 1486.25 Q1775.71 1486.25 1772.63 1481.67 Q1769.57 1477.06 1769.57 1468.33 Q1769.57 1459.58 1772.63 1455 Q1775.71 1450.39 1781.52 1450.39 Z" fill="#000000" fill-rule="nonzero" fill-opacity="1" /><path clip-path="url(#clip960)" d="M1801.68 1479.7 L1806.56 1479.7 L1806.56 1485.58 L1801.68 1485.58 L1801.68 1479.7 Z" fill="#000000" fill-rule="nonzero" fill-opacity="1" /><path clip-path="url(#clip960)" d="M1816.8 1451.02 L1835.15 1451.02 L1835.15 1454.96 L1821.08 1454.96 L1821.08 1463.43 Q1822.1 1463.08 1823.11 1462.92 Q1824.13 1462.73 1825.15 1462.73 Q1830.94 1462.73 1834.32 1465.9 Q1837.7 1469.08 1837.7 1474.49 Q1837.7 1480.07 1834.23 1483.17 Q1830.75 1486.25 1824.43 1486.25 Q1822.26 1486.25 1819.99 1485.88 Q1817.74 1485.51 1815.34 1484.77 L1815.34 1480.07 Q1817.42 1481.2 1819.64 1481.76 Q1821.86 1482.32 1824.34 1482.32 Q1828.35 1482.32 1830.68 1480.21 Q1833.02 1478.1 1833.02 1474.49 Q1833.02 1470.88 1830.68 1468.77 Q1828.35 1466.67 1824.34 1466.67 Q1822.47 1466.67 1820.59 1467.08 Q1818.74 1467.5 1816.8 1468.38 L1816.8 1451.02 Z" fill="#000000" fill-rule="nonzero" fill-opacity="1" /><path clip-path="url(#clip960)" d="M2319.91 1481.64 L2327.55 1481.64 L2327.55 1455.28 L2319.24 1456.95 L2319.24 1452.69 L2327.5 1451.02 L2332.18 1451.02 L2332.18 1481.64 L2339.82 1481.64 L2339.82 1485.58 L2319.91 1485.58 L2319.91 1481.64 Z" fill="#000000" fill-rule="nonzero" fill-opacity="1" /><path clip-path="url(#clip960)" d="M2349.26 1479.7 L2354.14 1479.7 L2354.14 1485.58 L2349.26 1485.58 L2349.26 1479.7 Z" fill="#000000" fill-rule="nonzero" fill-opacity="1" /><path clip-path="url(#clip960)" d="M2374.33 1454.1 Q2370.72 1454.1 2368.89 1457.66 Q2367.08 1461.2 2367.08 1468.33 Q2367.08 1475.44 2368.89 1479.01 Q2370.72 1482.55 2374.33 1482.55 Q2377.96 1482.55 2379.77 1479.01 Q2381.6 1475.44 2381.6 1468.33 Q2381.6 1461.2 2379.77 1457.66 Q2377.96 1454.1 2374.33 1454.1 M2374.33 1450.39 Q2380.14 1450.39 2383.2 1455 Q2386.27 1459.58 2386.27 1468.33 Q2386.27 1477.06 2383.2 1481.67 Q2380.14 1486.25 2374.33 1486.25 Q2368.52 1486.25 2365.44 1481.67 Q2362.39 1477.06 2362.39 1468.33 Q2362.39 1459.58 2365.44 1455 Q2368.52 1450.39 2374.33 1450.39 Z" fill="#000000" fill-rule="nonzero" fill-opacity="1" /><path clip-path="url(#clip960)" d="M1268.69 1528.8 Q1268.69 1530.61 1267.56 1531.64 Q1266.43 1532.64 1265.15 1532.64 Q1263.92 1532.64 1263.28 1531.93 Q1262.63 1531.22 1262.63 1530.32 Q1262.63 1529.09 1263.54 1528.03 Q1264.44 1526.97 1265.79 1526.74 Q1264.47 1525.91 1262.5 1525.91 Q1261.22 1525.91 1260.09 1526.58 Q1258.99 1527.26 1258.32 1528.13 Q1257.67 1529 1257.09 1530.25 Q1256.55 1531.48 1256.32 1532.22 Q1256.13 1532.93 1255.97 1533.7 L1253.71 1542.72 Q1252.62 1547 1252.62 1548.51 Q1252.62 1550.38 1253.52 1551.64 Q1254.42 1552.86 1256.22 1552.86 Q1256.93 1552.86 1257.74 1552.67 Q1258.54 1552.44 1259.57 1551.86 Q1260.64 1551.25 1261.57 1550.35 Q1262.54 1549.42 1263.47 1547.84 Q1264.41 1546.26 1265.02 1544.23 Q1265.21 1543.52 1265.85 1543.52 Q1266.66 1543.52 1266.66 1544.17 Q1266.66 1544.71 1266.21 1545.87 Q1265.79 1547 1264.86 1548.48 Q1263.95 1549.93 1262.76 1551.25 Q1261.57 1552.54 1259.8 1553.44 Q1258.03 1554.34 1256.1 1554.34 Q1253.33 1554.34 1251.49 1552.86 Q1249.65 1551.38 1248.98 1549.32 Q1248.82 1549.61 1248.59 1550 Q1248.37 1550.38 1247.69 1551.25 Q1247.05 1552.09 1246.31 1552.73 Q1245.56 1553.34 1244.41 1553.83 Q1243.28 1554.34 1242.05 1554.34 Q1240.51 1554.34 1239.12 1553.89 Q1237.77 1553.44 1236.8 1552.41 Q1235.84 1551.38 1235.84 1549.96 Q1235.84 1548.38 1236.9 1547.29 Q1238 1546.16 1239.48 1546.16 Q1240.41 1546.16 1241.15 1546.71 Q1241.93 1547.26 1241.93 1548.45 Q1241.93 1549.77 1241.02 1550.77 Q1240.12 1551.77 1238.83 1552.02 Q1240.15 1552.86 1242.12 1552.86 Q1244.24 1552.86 1245.92 1550.99 Q1247.59 1549.13 1248.4 1546 Q1250.4 1538.5 1251.17 1535.15 Q1251.94 1531.77 1251.94 1530.32 Q1251.94 1528.96 1251.59 1528.03 Q1251.23 1527.1 1250.62 1526.68 Q1250.04 1526.23 1249.49 1526.07 Q1248.98 1525.91 1248.4 1525.91 Q1247.43 1525.91 1246.34 1526.29 Q1245.27 1526.68 1243.99 1527.58 Q1242.73 1528.45 1241.54 1530.25 Q1240.35 1532.06 1239.54 1534.54 Q1239.38 1535.28 1238.67 1535.28 Q1237.9 1535.24 1237.9 1534.6 Q1237.9 1534.05 1238.32 1532.93 Q1238.77 1531.77 1239.67 1530.32 Q1240.6 1528.87 1241.8 1527.58 Q1243.02 1526.26 1244.79 1525.36 Q1246.6 1524.46 1248.53 1524.46 Q1249.4 1524.46 1250.23 1524.65 Q1251.1 1524.81 1252.13 1525.29 Q1253.2 1525.78 1254.13 1526.84 Q1255.07 1527.9 1255.65 1529.45 Q1256.03 1528.71 1256.55 1528 Q1257.09 1527.29 1257.93 1526.42 Q1258.8 1525.52 1259.99 1525 Q1261.22 1524.46 1262.57 1524.46 Q1263.89 1524.46 1265.18 1524.81 Q1266.47 1525.13 1267.56 1526.19 Q1268.69 1527.23 1268.69 1528.8 Z" fill="#000000" fill-rule="nonzero" fill-opacity="1" /><polyline clip-path="url(#clip960)" style="stroke:#000000; stroke-linecap:round; stroke-linejoin:round; stroke-width:4; stroke-opacity:1; fill:none" points="156.274,1423.18 156.274,123.472 "/>
<polyline clip-path="url(#clip960)" style="stroke:#000000; stroke-linecap:round; stroke-linejoin:round; stroke-width:4; stroke-opacity:1; fill:none" points="156.274,1263.78 175.172,1263.78 "/>
<polyline clip-path="url(#clip960)" style="stroke:#000000; stroke-linecap:round; stroke-linejoin:round; stroke-width:4; stroke-opacity:1; fill:none" points="156.274,1018.55 175.172,1018.55 "/>
<polyline clip-path="url(#clip960)" style="stroke:#000000; stroke-linecap:round; stroke-linejoin:round; stroke-width:4; stroke-opacity:1; fill:none" points="156.274,773.326 175.172,773.326 "/>
<polyline clip-path="url(#clip960)" style="stroke:#000000; stroke-linecap:round; stroke-linejoin:round; stroke-width:4; stroke-opacity:1; fill:none" points="156.274,528.097 175.172,528.097 "/>
<polyline clip-path="url(#clip960)" style="stroke:#000000; stroke-linecap:round; stroke-linejoin:round; stroke-width:4; stroke-opacity:1; fill:none" points="156.274,282.869 175.172,282.869 "/>
<path clip-path="url(#clip960)" d="M62.9365 1249.58 Q59.3254 1249.58 57.4967 1253.15 Q55.6912 1256.69 55.6912 1263.82 Q55.6912 1270.92 57.4967 1274.49 Q59.3254 1278.03 62.9365 1278.03 Q66.5707 1278.03 68.3763 1274.49 Q70.205 1270.92 70.205 1263.82 Q70.205 1256.69 68.3763 1253.15 Q66.5707 1249.58 62.9365 1249.58 M62.9365 1245.88 Q68.7467 1245.88 71.8022 1250.48 Q74.8809 1255.07 74.8809 1263.82 Q74.8809 1272.54 71.8022 1277.15 Q68.7467 1281.73 62.9365 1281.73 Q57.1264 1281.73 54.0477 1277.15 Q50.9921 1272.54 50.9921 1263.82 Q50.9921 1255.07 54.0477 1250.48 Q57.1264 1245.88 62.9365 1245.88 Z" fill="#000000" fill-rule="nonzero" fill-opacity="1" /><path clip-path="url(#clip960)" d="M83.0984 1275.18 L87.9827 1275.18 L87.9827 1281.06 L83.0984 1281.06 L83.0984 1275.18 Z" fill="#000000" fill-rule="nonzero" fill-opacity="1" /><path clip-path="url(#clip960)" d="M108.746 1261.92 Q105.598 1261.92 103.746 1264.07 Q101.918 1266.23 101.918 1269.98 Q101.918 1273.7 103.746 1275.88 Q105.598 1278.03 108.746 1278.03 Q111.895 1278.03 113.723 1275.88 Q115.575 1273.7 115.575 1269.98 Q115.575 1266.23 113.723 1264.07 Q111.895 1261.92 108.746 1261.92 M118.029 1247.27 L118.029 1251.53 Q116.27 1250.69 114.464 1250.25 Q112.682 1249.81 110.922 1249.81 Q106.293 1249.81 103.839 1252.94 Q101.409 1256.06 101.061 1262.38 Q102.427 1260.37 104.487 1259.3 Q106.547 1258.22 109.024 1258.22 Q114.233 1258.22 117.242 1261.39 Q120.274 1264.54 120.274 1269.98 Q120.274 1275.3 117.126 1278.52 Q113.978 1281.73 108.746 1281.73 Q102.751 1281.73 99.5798 1277.15 Q96.4085 1272.54 96.4085 1263.82 Q96.4085 1255.62 100.297 1250.76 Q104.186 1245.88 110.737 1245.88 Q112.496 1245.88 114.279 1246.23 Q116.084 1246.57 118.029 1247.27 Z" fill="#000000" fill-rule="nonzero" fill-opacity="1" /><path clip-path="url(#clip960)" d="M63.1911 1004.35 Q59.58 1004.35 57.7513 1007.92 Q55.9458 1011.46 55.9458 1018.59 Q55.9458 1025.7 57.7513 1029.26 Q59.58 1032.8 63.1911 1032.8 Q66.8254 1032.8 68.6309 1029.26 Q70.4596 1025.7 70.4596 1018.59 Q70.4596 1011.46 68.6309 1007.92 Q66.8254 1004.35 63.1911 1004.35 M63.1911 1000.65 Q69.0013 1000.65 72.0568 1005.26 Q75.1355 1009.84 75.1355 1018.59 Q75.1355 1027.32 72.0568 1031.92 Q69.0013 1036.51 63.1911 1036.51 Q57.381 1036.51 54.3023 1031.92 Q51.2468 1027.32 51.2468 1018.59 Q51.2468 1009.84 54.3023 1005.26 Q57.381 1000.65 63.1911 1000.65 Z" fill="#000000" fill-rule="nonzero" fill-opacity="1" /><path clip-path="url(#clip960)" d="M83.3531 1029.95 L88.2373 1029.95 L88.2373 1035.83 L83.3531 1035.83 L83.3531 1029.95 Z" fill="#000000" fill-rule="nonzero" fill-opacity="1" /><path clip-path="url(#clip960)" d="M108.422 1019.42 Q105.089 1019.42 103.168 1021.21 Q101.27 1022.99 101.27 1026.11 Q101.27 1029.24 103.168 1031.02 Q105.089 1032.8 108.422 1032.8 Q111.756 1032.8 113.677 1031.02 Q115.598 1029.21 115.598 1026.11 Q115.598 1022.99 113.677 1021.21 Q111.779 1019.42 108.422 1019.42 M103.746 1017.43 Q100.737 1016.69 99.0474 1014.63 Q97.3808 1012.57 97.3808 1009.61 Q97.3808 1005.46 100.321 1003.06 Q103.284 1000.65 108.422 1000.65 Q113.584 1000.65 116.524 1003.06 Q119.464 1005.46 119.464 1009.61 Q119.464 1012.57 117.774 1014.63 Q116.108 1016.69 113.121 1017.43 Q116.501 1018.22 118.376 1020.51 Q120.274 1022.8 120.274 1026.11 Q120.274 1031.14 117.195 1033.82 Q114.14 1036.51 108.422 1036.51 Q102.705 1036.51 99.6261 1033.82 Q96.5706 1031.14 96.5706 1026.11 Q96.5706 1022.8 98.4687 1020.51 Q100.367 1018.22 103.746 1017.43 M102.034 1010.05 Q102.034 1012.73 103.7 1014.24 Q105.39 1015.74 108.422 1015.74 Q111.432 1015.74 113.121 1014.24 Q114.834 1012.73 114.834 1010.05 Q114.834 1007.36 113.121 1005.86 Q111.432 1004.35 108.422 1004.35 Q105.39 1004.35 103.7 1005.86 Q102.034 1007.36 102.034 1010.05 Z" fill="#000000" fill-rule="nonzero" fill-opacity="1" /><path clip-path="url(#clip960)" d="M53.9088 786.671 L61.5476 786.671 L61.5476 760.305 L53.2375 761.972 L53.2375 757.713 L61.5013 756.046 L66.1772 756.046 L66.1772 786.671 L73.8161 786.671 L73.8161 790.606 L53.9088 790.606 L53.9088 786.671 Z" fill="#000000" fill-rule="nonzero" fill-opacity="1" /><path clip-path="url(#clip960)" d="M83.2605 784.726 L88.1447 784.726 L88.1447 790.606 L83.2605 790.606 L83.2605 784.726 Z" fill="#000000" fill-rule="nonzero" fill-opacity="1" /><path clip-path="url(#clip960)" d="M108.33 759.125 Q104.719 759.125 102.89 762.689 Q101.084 766.231 101.084 773.361 Q101.084 780.467 102.89 784.032 Q104.719 787.574 108.33 787.574 Q111.964 787.574 113.77 784.032 Q115.598 780.467 115.598 773.361 Q115.598 766.231 113.77 762.689 Q111.964 759.125 108.33 759.125 M108.33 755.421 Q114.14 755.421 117.195 760.027 Q120.274 764.611 120.274 773.361 Q120.274 782.088 117.195 786.694 Q114.14 791.277 108.33 791.277 Q102.52 791.277 99.4409 786.694 Q96.3854 782.088 96.3854 773.361 Q96.3854 764.611 99.4409 760.027 Q102.52 755.421 108.33 755.421 Z" fill="#000000" fill-rule="nonzero" fill-opacity="1" /><path clip-path="url(#clip960)" d="M55.506 541.442 L63.1448 541.442 L63.1448 515.077 L54.8347 516.743 L54.8347 512.484 L63.0985 510.817 L67.7744 510.817 L67.7744 541.442 L75.4133 541.442 L75.4133 545.377 L55.506 545.377 L55.506 541.442 Z" fill="#000000" fill-rule="nonzero" fill-opacity="1" /><path clip-path="url(#clip960)" d="M84.8577 539.498 L89.7419 539.498 L89.7419 545.377 L84.8577 545.377 L84.8577 539.498 Z" fill="#000000" fill-rule="nonzero" fill-opacity="1" /><path clip-path="url(#clip960)" d="M103.955 541.442 L120.274 541.442 L120.274 545.377 L98.3298 545.377 L98.3298 541.442 Q100.992 538.688 105.575 534.058 Q110.182 529.405 111.362 528.063 Q113.608 525.54 114.487 523.803 Q115.39 522.044 115.39 520.354 Q115.39 517.6 113.445 515.864 Q111.524 514.128 108.422 514.128 Q106.223 514.128 103.77 514.891 Q101.339 515.655 98.5613 517.206 L98.5613 512.484 Q101.385 511.35 103.839 510.771 Q106.293 510.192 108.33 510.192 Q113.7 510.192 116.895 512.878 Q120.089 515.563 120.089 520.053 Q120.089 522.183 119.279 524.104 Q118.492 526.003 116.385 528.595 Q115.807 529.266 112.705 532.484 Q109.603 535.678 103.955 541.442 Z" fill="#000000" fill-rule="nonzero" fill-opacity="1" /><path clip-path="url(#clip960)" d="M53.4227 296.214 L61.0615 296.214 L61.0615 269.848 L52.7514 271.515 L52.7514 267.255 L61.0152 265.589 L65.6911 265.589 L65.6911 296.214 L73.33 296.214 L73.33 300.149 L53.4227 300.149 L53.4227 296.214 Z" fill="#000000" fill-rule="nonzero" fill-opacity="1" /><path clip-path="url(#clip960)" d="M82.7744 294.269 L87.6586 294.269 L87.6586 300.149 L82.7744 300.149 L82.7744 294.269 Z" fill="#000000" fill-rule="nonzero" fill-opacity="1" /><path clip-path="url(#clip960)" d="M110.691 269.663 L98.8854 288.112 L110.691 288.112 L110.691 269.663 M109.464 265.589 L115.344 265.589 L115.344 288.112 L120.274 288.112 L120.274 292.001 L115.344 292.001 L115.344 300.149 L110.691 300.149 L110.691 292.001 L95.0891 292.001 L95.0891 287.487 L109.464 265.589 Z" fill="#000000" fill-rule="nonzero" fill-opacity="1" /><path clip-path="url(#clip960)" d="M1165.17 28.5427 L1165.17 35.5912 Q1162.01 33.9709 1158.61 33.1607 Q1155.21 32.3505 1151.56 32.3505 Q1146.01 32.3505 1143.22 34.0519 Q1140.46 35.7533 1140.46 39.156 Q1140.46 41.7486 1142.45 43.2475 Q1144.43 44.7058 1150.43 46.0426 L1152.98 46.6097 Q1160.92 48.3111 1164.24 51.4303 Q1167.6 54.509 1167.6 60.0587 Q1167.6 66.3781 1162.58 70.0644 Q1157.6 73.7508 1148.85 73.7508 Q1145.2 73.7508 1141.23 73.0216 Q1137.3 72.3329 1132.93 70.9151 L1132.93 63.2184 Q1137.06 65.3654 1141.07 66.4591 Q1145.08 67.5124 1149.01 67.5124 Q1154.28 67.5124 1157.11 65.73 Q1159.95 63.9071 1159.95 60.6258 Q1159.95 57.5877 1157.88 55.9673 Q1155.86 54.3469 1148.93 52.8481 L1146.34 52.2405 Q1139.41 50.7821 1136.33 47.7845 Q1133.25 44.7463 1133.25 39.4801 Q1133.25 33.0797 1137.79 29.5959 Q1142.33 26.1121 1150.67 26.1121 Q1154.8 26.1121 1158.45 26.7198 Q1162.09 27.3274 1165.17 28.5427 Z" fill="#000000" fill-rule="nonzero" fill-opacity="1" /><path clip-path="url(#clip960)" d="M1212.12 28.9478 L1212.12 35.9153 Q1208.96 34.1734 1205.76 33.3227 Q1202.6 32.4315 1199.36 32.4315 Q1192.11 32.4315 1188.1 37.0496 Q1184.09 41.6271 1184.09 49.9314 Q1184.09 58.2358 1188.1 62.8538 Q1192.11 67.4314 1199.36 67.4314 Q1202.6 67.4314 1205.76 66.5807 Q1208.96 65.6895 1212.12 63.9476 L1212.12 70.8341 Q1209 72.2924 1205.64 73.0216 Q1202.32 73.7508 1198.55 73.7508 Q1188.3 73.7508 1182.27 67.3098 Q1176.23 60.8689 1176.23 49.9314 Q1176.23 38.832 1182.31 32.472 Q1188.42 26.1121 1199.04 26.1121 Q1202.48 26.1121 1205.76 26.8413 Q1209.04 27.5299 1212.12 28.9478 Z" fill="#000000" fill-rule="nonzero" fill-opacity="1" /><path clip-path="url(#clip960)" d="M1245.7 49.7694 Q1236.67 49.7694 1233.19 51.8354 Q1229.7 53.9013 1229.7 58.8839 Q1229.7 62.8538 1232.3 65.2034 Q1234.93 67.5124 1239.43 67.5124 Q1245.62 67.5124 1249.35 63.1374 Q1253.12 58.7219 1253.12 51.4303 L1253.12 49.7694 L1245.7 49.7694 M1260.57 46.6907 L1260.57 72.576 L1253.12 72.576 L1253.12 65.6895 Q1250.57 69.8214 1246.76 71.8063 Q1242.95 73.7508 1237.44 73.7508 Q1230.47 73.7508 1226.34 69.8619 Q1222.25 65.9325 1222.25 59.3701 Q1222.25 51.7138 1227.35 47.825 Q1232.5 43.9361 1242.67 43.9361 L1253.12 43.9361 L1253.12 43.2069 Q1253.12 38.0623 1249.71 35.2672 Q1246.35 32.4315 1240.24 32.4315 Q1236.35 32.4315 1232.66 33.3632 Q1228.97 34.295 1225.57 36.1584 L1225.57 29.2718 Q1229.66 27.692 1233.51 26.9223 Q1237.36 26.1121 1241.01 26.1121 Q1250.85 26.1121 1255.71 31.2163 Q1260.57 36.3204 1260.57 46.6907 Z" fill="#000000" fill-rule="nonzero" fill-opacity="1" /><path clip-path="url(#clip960)" d="M1275.92 9.54393 L1283.38 9.54393 L1283.38 72.576 L1275.92 72.576 L1275.92 9.54393 Z" fill="#000000" fill-rule="nonzero" fill-opacity="1" /><path clip-path="url(#clip960)" d="M1319.59 49.7694 Q1310.56 49.7694 1307.08 51.8354 Q1303.59 53.9013 1303.59 58.8839 Q1303.59 62.8538 1306.18 65.2034 Q1308.82 67.5124 1313.31 67.5124 Q1319.51 67.5124 1323.24 63.1374 Q1327.01 58.7219 1327.01 51.4303 L1327.01 49.7694 L1319.59 49.7694 M1334.46 46.6907 L1334.46 72.576 L1327.01 72.576 L1327.01 65.6895 Q1324.45 69.8214 1320.65 71.8063 Q1316.84 73.7508 1311.33 73.7508 Q1304.36 73.7508 1300.23 69.8619 Q1296.14 65.9325 1296.14 59.3701 Q1296.14 51.7138 1301.24 47.825 Q1306.39 43.9361 1316.55 43.9361 L1327.01 43.9361 L1327.01 43.2069 Q1327.01 38.0623 1323.6 35.2672 Q1320.24 32.4315 1314.12 32.4315 Q1310.24 32.4315 1306.55 33.3632 Q1302.86 34.295 1299.46 36.1584 L1299.46 29.2718 Q1303.55 27.692 1307.4 26.9223 Q1311.25 26.1121 1314.89 26.1121 Q1324.74 26.1121 1329.6 31.2163 Q1334.46 36.3204 1334.46 46.6907 Z" fill="#000000" fill-rule="nonzero" fill-opacity="1" /><path clip-path="url(#clip960)" d="M1376.1 34.1734 Q1374.85 33.4443 1373.35 33.1202 Q1371.89 32.7556 1370.11 32.7556 Q1363.79 32.7556 1360.39 36.8875 Q1357.02 40.9789 1357.02 48.6757 L1357.02 72.576 L1349.53 72.576 L1349.53 27.2059 L1357.02 27.2059 L1357.02 34.2544 Q1359.37 30.1225 1363.14 28.1376 Q1366.91 26.1121 1372.3 26.1121 Q1373.06 26.1121 1374 26.2337 Q1374.93 26.3147 1376.06 26.5172 L1376.1 34.1734 Z" fill="#000000" fill-rule="nonzero" fill-opacity="1" /><polyline clip-path="url(#clip962)" style="stroke:#009af9; stroke-linecap:round; stroke-linejoin:round; stroke-width:12; stroke-opacity:1; fill:none" points="156.274,773.33 194.217,839.755 255.611,945.213 293.554,1007.95 293.554,1007.93 331.498,1067.93 392.891,1157.33 430.834,1206.84 430.834,1206.81 468.778,1251.26 530.171,1310.98 568.114,1339.73 568.114,1339.69 606.058,1361.83 667.451,1382.78 705.395,1386.4 705.395,1386.36 743.338,1382.8 804.731,1361.8 842.675,1339.72 842.675,1339.69 880.618,1310.98 942.012,1251.23 979.955,1206.82 979.955,1206.8 1017.9,1157.32 1079.29,1067.9 1117.23,1007.92 1117.23,1007.92 1155.18,945.189 1216.57,839.723 1254.52,773.312 1254.52,773.322 1292.46,706.897 1353.85,601.439 1391.8,538.701 1391.8,538.726 1429.74,478.719 1491.13,389.323 1529.08,339.81 1529.08,339.845 1567.02,295.391 1628.41,235.669 1666.36,206.918 1666.36,206.958 1704.3,184.825 1765.69,163.867 1803.64,160.256 1803.64,160.295 1841.58,163.853 1902.97,184.851 1940.92,206.929 1940.92,206.961 1978.86,235.667 2040.25,295.424 2078.2,339.83 2078.2,339.85 2116.14,389.336 2177.53,478.754 2215.48,538.727 2215.48,538.733 2253.42,601.463 2314.81,706.929 2352.76,773.34 "/>
<polyline clip-path="url(#clip962)" style="stroke:#e26f46; stroke-linecap:round; stroke-linejoin:round; stroke-width:8; stroke-opacity:1; fill:none" stroke-dasharray="32, 20" points="156.274,773.33 175.886,807.715 195.497,841.985 215.108,876.035 234.72,909.761 254.331,943.058 273.943,975.823 293.554,1007.95 293.554,1007.93 313.166,1039.34 332.777,1069.9 352.389,1099.52 372,1128.1 391.611,1155.58 411.223,1181.85 430.834,1206.84 430.834,1206.81 450.446,1230.47 470.057,1252.66 489.669,1273.34 509.28,1292.43 528.892,1309.9 548.503,1325.69 568.114,1339.73 568.114,1339.69 587.726,1352 607.337,1362.45 626.949,1371.03 646.56,1377.73 666.172,1382.54 685.783,1385.43 705.395,1386.4 705.395,1386.36 725.006,1385.43 744.617,1382.55 764.229,1377.74 783.84,1371.02 803.452,1362.43 823.063,1351.98 842.675,1339.72 842.675,1339.69 862.286,1325.68 881.898,1309.9 901.509,1292.42 921.12,1273.31 940.732,1252.63 960.343,1230.44 979.955,1206.82 979.955,1206.8 999.566,1181.83 1019.18,1155.56 1038.79,1128.08 1058.4,1099.49 1078.01,1069.86 1097.62,1039.31 1117.23,1007.92 1117.23,1007.92 1136.85,975.798 1156.46,943.034 1176.07,909.734 1195.68,876.004 1215.29,841.953 1234.9,807.687 1254.52,773.312 1254.52,773.322 1274.13,738.937 1293.74,704.667 1313.35,670.617 1332.96,636.891 1352.57,603.594 1372.18,570.829 1391.8,538.701 1391.8,538.726 1411.41,507.311 1431.02,476.752 1450.63,447.137 1470.24,418.549 1489.85,391.075 1509.46,364.8 1529.08,339.81 1529.08,339.845 1548.69,316.183 1568.3,293.989 1587.91,273.316 1607.52,254.218 1627.13,236.75 1646.74,220.966 1666.36,206.918 1666.36,206.958 1685.97,194.652 1705.58,184.2 1725.19,175.617 1744.8,168.917 1764.41,164.114 1784.02,161.223 1803.64,160.256 1803.64,160.295 1823.25,161.218 1842.86,164.1 1862.47,168.914 1882.08,175.632 1901.69,184.225 1921.3,194.667 1940.92,206.929 1940.92,206.961 1960.53,220.972 1980.14,236.749 1999.75,254.227 2019.36,273.34 2038.97,294.022 2058.58,316.207 2078.2,339.83 2078.2,339.85 2097.81,364.817 2117.42,391.088 2137.03,418.568 2156.64,447.166 2176.25,476.788 2195.86,507.339 2215.48,538.727 2215.48,538.733 2235.09,570.854 2254.7,603.618 2274.31,636.918 2293.92,670.648 2313.53,704.699 2333.14,738.965 2352.76,773.34 "/>
<path clip-path="url(#clip960)" d="M229.49 322.316 L1109.34 322.316 L1109.34 166.796 L229.49 166.796  Z" fill="#ffffff" fill-rule="evenodd" fill-opacity="1"/>
<polyline clip-path="url(#clip960)" style="stroke:#000000; stroke-linecap:round; stroke-linejoin:round; stroke-width:4; stroke-opacity:1; fill:none" points="229.49,322.316 1109.34,322.316 1109.34,166.796 229.49,166.796 229.49,322.316 "/>
<polyline clip-path="url(#clip960)" style="stroke:#009af9; stroke-linecap:round; stroke-linejoin:round; stroke-width:12; stroke-opacity:1; fill:none" points="253.896,218.636 400.328,218.636 "/>
<path clip-path="url(#clip960)" d="M443.159 210.754 L443.159 214.782 Q441.353 213.856 439.409 213.393 Q437.464 212.93 435.381 212.93 Q432.21 212.93 430.613 213.902 Q429.039 214.874 429.039 216.819 Q429.039 218.3 430.173 219.157 Q431.307 219.99 434.733 220.754 L436.191 221.078 Q440.728 222.05 442.626 223.832 Q444.548 225.592 444.548 228.763 Q444.548 232.374 441.677 234.481 Q438.83 236.587 433.83 236.587 Q431.747 236.587 429.478 236.17 Q427.233 235.777 424.733 234.967 L424.733 230.569 Q427.094 231.795 429.386 232.42 Q431.677 233.022 433.923 233.022 Q436.932 233.022 438.552 232.004 Q440.173 230.962 440.173 229.087 Q440.173 227.351 438.992 226.425 Q437.835 225.499 433.877 224.643 L432.395 224.295 Q428.437 223.462 426.677 221.749 Q424.918 220.013 424.918 217.004 Q424.918 213.346 427.511 211.356 Q430.103 209.365 434.872 209.365 Q437.233 209.365 439.316 209.712 Q441.4 210.059 443.159 210.754 Z" fill="#000000" fill-rule="nonzero" fill-opacity="1" /><path clip-path="url(#clip960)" d="M461.376 212.976 Q457.95 212.976 455.96 215.661 Q453.969 218.323 453.969 222.976 Q453.969 227.629 455.937 230.314 Q457.927 232.976 461.376 232.976 Q464.779 232.976 466.77 230.291 Q468.761 227.606 468.761 222.976 Q468.761 218.37 466.77 215.684 Q464.779 212.976 461.376 212.976 M461.376 209.365 Q466.932 209.365 470.103 212.976 Q473.274 216.587 473.274 222.976 Q473.274 229.342 470.103 232.976 Q466.932 236.587 461.376 236.587 Q455.798 236.587 452.626 232.976 Q449.478 229.342 449.478 222.976 Q449.478 216.587 452.626 212.976 Q455.798 209.365 461.376 209.365 Z" fill="#000000" fill-rule="nonzero" fill-opacity="1" /><path clip-path="url(#clip960)" d="M480.335 199.897 L484.594 199.897 L484.594 235.916 L480.335 235.916 L480.335 199.897 Z" fill="#000000" fill-rule="nonzero" fill-opacity="1" /><path clip-path="url(#clip960)" d="M493.066 225.684 L493.066 209.99 L497.325 209.99 L497.325 225.522 Q497.325 229.203 498.76 231.055 Q500.196 232.883 503.066 232.883 Q506.515 232.883 508.506 230.684 Q510.52 228.485 510.52 224.689 L510.52 209.99 L514.779 209.99 L514.779 235.916 L510.52 235.916 L510.52 231.934 Q508.969 234.295 506.909 235.453 Q504.872 236.587 502.163 236.587 Q497.696 236.587 495.381 233.809 Q493.066 231.031 493.066 225.684 M503.784 209.365 L503.784 209.365 Z" fill="#000000" fill-rule="nonzero" fill-opacity="1" /><path clip-path="url(#clip960)" d="M527.765 202.629 L527.765 209.99 L536.538 209.99 L536.538 213.3 L527.765 213.3 L527.765 227.374 Q527.765 230.545 528.621 231.448 Q529.501 232.351 532.163 232.351 L536.538 232.351 L536.538 235.916 L532.163 235.916 Q527.232 235.916 525.358 234.087 Q523.483 232.235 523.483 227.374 L523.483 213.3 L520.358 213.3 L520.358 209.99 L523.483 209.99 L523.483 202.629 L527.765 202.629 Z" fill="#000000" fill-rule="nonzero" fill-opacity="1" /><path clip-path="url(#clip960)" d="M542.14 209.99 L546.399 209.99 L546.399 235.916 L542.14 235.916 L542.14 209.99 M542.14 199.897 L546.399 199.897 L546.399 205.291 L542.14 205.291 L542.14 199.897 Z" fill="#000000" fill-rule="nonzero" fill-opacity="1" /><path clip-path="url(#clip960)" d="M565.357 212.976 Q561.931 212.976 559.941 215.661 Q557.95 218.323 557.95 222.976 Q557.95 227.629 559.918 230.314 Q561.908 232.976 565.357 232.976 Q568.76 232.976 570.751 230.291 Q572.742 227.606 572.742 222.976 Q572.742 218.37 570.751 215.684 Q568.76 212.976 565.357 212.976 M565.357 209.365 Q570.913 209.365 574.084 212.976 Q577.255 216.587 577.255 222.976 Q577.255 229.342 574.084 232.976 Q570.913 236.587 565.357 236.587 Q559.779 236.587 556.607 232.976 Q553.459 229.342 553.459 222.976 Q553.459 216.587 556.607 212.976 Q559.779 209.365 565.357 209.365 Z" fill="#000000" fill-rule="nonzero" fill-opacity="1" /><path clip-path="url(#clip960)" d="M605.866 220.268 L605.866 235.916 L601.607 235.916 L601.607 220.407 Q601.607 216.726 600.172 214.897 Q598.737 213.069 595.866 213.069 Q592.417 213.069 590.427 215.268 Q588.436 217.467 588.436 221.263 L588.436 235.916 L584.153 235.916 L584.153 209.99 L588.436 209.99 L588.436 214.018 Q589.964 211.68 592.024 210.522 Q594.107 209.365 596.815 209.365 Q601.283 209.365 603.575 212.143 Q605.866 214.897 605.866 220.268 Z" fill="#000000" fill-rule="nonzero" fill-opacity="1" /><path clip-path="url(#clip960)" d="M641.213 222.883 Q636.051 222.883 634.061 224.064 Q632.07 225.244 632.07 228.092 Q632.07 230.36 633.551 231.703 Q635.056 233.022 637.625 233.022 Q641.167 233.022 643.297 230.522 Q645.449 227.999 645.449 223.832 L645.449 222.883 L641.213 222.883 M649.709 221.124 L649.709 235.916 L645.449 235.916 L645.449 231.981 Q643.991 234.342 641.815 235.476 Q639.639 236.587 636.491 236.587 Q632.51 236.587 630.149 234.365 Q627.811 232.119 627.811 228.369 Q627.811 223.994 630.727 221.772 Q633.667 219.55 639.477 219.55 L645.449 219.55 L645.449 219.133 Q645.449 216.194 643.505 214.596 Q641.584 212.976 638.088 212.976 Q635.866 212.976 633.76 213.508 Q631.653 214.041 629.709 215.106 L629.709 211.17 Q632.047 210.268 634.246 209.828 Q636.445 209.365 638.528 209.365 Q644.153 209.365 646.931 212.282 Q649.709 215.198 649.709 221.124 Z" fill="#000000" fill-rule="nonzero" fill-opacity="1" /><path clip-path="url(#clip960)" d="M662.695 202.629 L662.695 209.99 L671.468 209.99 L671.468 213.3 L662.695 213.3 L662.695 227.374 Q662.695 230.545 663.551 231.448 Q664.431 232.351 667.093 232.351 L671.468 232.351 L671.468 235.916 L667.093 235.916 Q662.162 235.916 660.287 234.087 Q658.412 232.235 658.412 227.374 L658.412 213.3 L655.287 213.3 L655.287 209.99 L658.412 209.99 L658.412 202.629 L662.695 202.629 Z" fill="#000000" fill-rule="nonzero" fill-opacity="1" /><path clip-path="url(#clip960)" d="M696.352 202.629 L696.352 209.99 L705.125 209.99 L705.125 213.3 L696.352 213.3 L696.352 227.374 Q696.352 230.545 697.208 231.448 Q698.088 232.351 700.75 232.351 L705.125 232.351 L705.125 235.916 L700.75 235.916 Q695.82 235.916 693.945 234.087 Q692.07 232.235 692.07 227.374 L692.07 213.3 L688.945 213.3 L688.945 209.99 L692.07 209.99 L692.07 202.629 L696.352 202.629 Z" fill="#000000" fill-rule="nonzero" fill-opacity="1" /><path clip-path="url(#clip960)" d="M711.282 214.388 L740.958 214.388 L740.958 218.277 L711.282 218.277 L711.282 214.388 M711.282 223.832 L740.958 223.832 L740.958 227.768 L711.282 227.768 L711.282 223.832 Z" fill="#000000" fill-rule="nonzero" fill-opacity="1" /><path clip-path="url(#clip960)" d="M755.078 231.981 L771.398 231.981 L771.398 235.916 L749.454 235.916 L749.454 231.981 Q752.116 229.226 756.699 224.596 Q761.305 219.944 762.486 218.601 Q764.731 216.078 765.611 214.342 Q766.514 212.583 766.514 210.893 Q766.514 208.138 764.569 206.402 Q762.648 204.666 759.546 204.666 Q757.347 204.666 754.893 205.43 Q752.463 206.194 749.685 207.745 L749.685 203.022 Q752.509 201.888 754.963 201.309 Q757.416 200.731 759.453 200.731 Q764.824 200.731 768.018 203.416 Q771.213 206.101 771.213 210.592 Q771.213 212.721 770.402 214.643 Q769.615 216.541 767.509 219.133 Q766.93 219.805 763.828 223.022 Q760.727 226.217 755.078 231.981 Z" fill="#000000" fill-rule="nonzero" fill-opacity="1" /><path clip-path="url(#clip960)" d="M781.213 230.036 L786.097 230.036 L786.097 235.916 L781.213 235.916 L781.213 230.036 Z" fill="#000000" fill-rule="nonzero" fill-opacity="1" /><path clip-path="url(#clip960)" d="M806.282 204.434 Q802.671 204.434 800.842 207.999 Q799.037 211.541 799.037 218.67 Q799.037 225.777 800.842 229.342 Q802.671 232.883 806.282 232.883 Q809.916 232.883 811.722 229.342 Q813.55 225.777 813.55 218.67 Q813.55 211.541 811.722 207.999 Q809.916 204.434 806.282 204.434 M806.282 200.731 Q812.092 200.731 815.148 205.337 Q818.226 209.92 818.226 218.67 Q818.226 227.397 815.148 232.004 Q812.092 236.587 806.282 236.587 Q800.472 236.587 797.393 232.004 Q794.338 227.397 794.338 218.67 Q794.338 209.92 797.393 205.337 Q800.472 200.731 806.282 200.731 Z" fill="#000000" fill-rule="nonzero" fill-opacity="1" /><polyline clip-path="url(#clip960)" style="stroke:#e26f46; stroke-linecap:round; stroke-linejoin:round; stroke-width:8; stroke-opacity:1; fill:none" stroke-dasharray="32, 20" points="253.896,270.476 400.328,270.476 "/>
<path clip-path="url(#clip960)" d="M443.159 262.594 L443.159 266.622 Q441.353 265.696 439.409 265.233 Q437.464 264.77 435.381 264.77 Q432.21 264.77 430.613 265.742 Q429.039 266.714 429.039 268.659 Q429.039 270.14 430.173 270.997 Q431.307 271.83 434.733 272.594 L436.191 272.918 Q440.728 273.89 442.626 275.672 Q444.548 277.432 444.548 280.603 Q444.548 284.214 441.677 286.321 Q438.83 288.427 433.83 288.427 Q431.747 288.427 429.478 288.01 Q427.233 287.617 424.733 286.807 L424.733 282.409 Q427.094 283.635 429.386 284.26 Q431.677 284.862 433.923 284.862 Q436.932 284.862 438.552 283.844 Q440.173 282.802 440.173 280.927 Q440.173 279.191 438.992 278.265 Q437.835 277.339 433.877 276.483 L432.395 276.135 Q428.437 275.302 426.677 273.589 Q424.918 271.853 424.918 268.844 Q424.918 265.186 427.511 263.196 Q430.103 261.205 434.872 261.205 Q437.233 261.205 439.316 261.552 Q441.4 261.899 443.159 262.594 Z" fill="#000000" fill-rule="nonzero" fill-opacity="1" /><path clip-path="url(#clip960)" d="M461.376 264.816 Q457.95 264.816 455.96 267.501 Q453.969 270.163 453.969 274.816 Q453.969 279.469 455.937 282.154 Q457.927 284.816 461.376 284.816 Q464.779 284.816 466.77 282.131 Q468.761 279.446 468.761 274.816 Q468.761 270.21 466.77 267.524 Q464.779 264.816 461.376 264.816 M461.376 261.205 Q466.932 261.205 470.103 264.816 Q473.274 268.427 473.274 274.816 Q473.274 281.182 470.103 284.816 Q466.932 288.427 461.376 288.427 Q455.798 288.427 452.626 284.816 Q449.478 281.182 449.478 274.816 Q449.478 268.427 452.626 264.816 Q455.798 261.205 461.376 261.205 Z" fill="#000000" fill-rule="nonzero" fill-opacity="1" /><path clip-path="url(#clip960)" d="M480.335 251.737 L484.594 251.737 L484.594 287.756 L480.335 287.756 L480.335 251.737 Z" fill="#000000" fill-rule="nonzero" fill-opacity="1" /><path clip-path="url(#clip960)" d="M493.066 277.524 L493.066 261.83 L497.325 261.83 L497.325 277.362 Q497.325 281.043 498.76 282.895 Q500.196 284.723 503.066 284.723 Q506.515 284.723 508.506 282.524 Q510.52 280.325 510.52 276.529 L510.52 261.83 L514.779 261.83 L514.779 287.756 L510.52 287.756 L510.52 283.774 Q508.969 286.135 506.909 287.293 Q504.872 288.427 502.163 288.427 Q497.696 288.427 495.381 285.649 Q493.066 282.871 493.066 277.524 M503.784 261.205 L503.784 261.205 Z" fill="#000000" fill-rule="nonzero" fill-opacity="1" /><path clip-path="url(#clip960)" d="M527.765 254.469 L527.765 261.83 L536.538 261.83 L536.538 265.14 L527.765 265.14 L527.765 279.214 Q527.765 282.385 528.621 283.288 Q529.501 284.191 532.163 284.191 L536.538 284.191 L536.538 287.756 L532.163 287.756 Q527.232 287.756 525.358 285.927 Q523.483 284.075 523.483 279.214 L523.483 265.14 L520.358 265.14 L520.358 261.83 L523.483 261.83 L523.483 254.469 L527.765 254.469 Z" fill="#000000" fill-rule="nonzero" fill-opacity="1" /><path clip-path="url(#clip960)" d="M542.14 261.83 L546.399 261.83 L546.399 287.756 L542.14 287.756 L542.14 261.83 M542.14 251.737 L546.399 251.737 L546.399 257.131 L542.14 257.131 L542.14 251.737 Z" fill="#000000" fill-rule="nonzero" fill-opacity="1" /><path clip-path="url(#clip960)" d="M565.357 264.816 Q561.931 264.816 559.941 267.501 Q557.95 270.163 557.95 274.816 Q557.95 279.469 559.918 282.154 Q561.908 284.816 565.357 284.816 Q568.76 284.816 570.751 282.131 Q572.742 279.446 572.742 274.816 Q572.742 270.21 570.751 267.524 Q568.76 264.816 565.357 264.816 M565.357 261.205 Q570.913 261.205 574.084 264.816 Q577.255 268.427 577.255 274.816 Q577.255 281.182 574.084 284.816 Q570.913 288.427 565.357 288.427 Q559.779 288.427 556.607 284.816 Q553.459 281.182 553.459 274.816 Q553.459 268.427 556.607 264.816 Q559.779 261.205 565.357 261.205 Z" fill="#000000" fill-rule="nonzero" fill-opacity="1" /><path clip-path="url(#clip960)" d="M605.866 272.108 L605.866 287.756 L601.607 287.756 L601.607 272.247 Q601.607 268.566 600.172 266.737 Q598.737 264.909 595.866 264.909 Q592.417 264.909 590.427 267.108 Q588.436 269.307 588.436 273.103 L588.436 287.756 L584.153 287.756 L584.153 261.83 L588.436 261.83 L588.436 265.858 Q589.964 263.52 592.024 262.362 Q594.107 261.205 596.815 261.205 Q601.283 261.205 603.575 263.983 Q605.866 266.737 605.866 272.108 Z" fill="#000000" fill-rule="nonzero" fill-opacity="1" /><path clip-path="url(#clip960)" d="M641.213 274.723 Q636.051 274.723 634.061 275.904 Q632.07 277.084 632.07 279.932 Q632.07 282.2 633.551 283.543 Q635.056 284.862 637.625 284.862 Q641.167 284.862 643.297 282.362 Q645.449 279.839 645.449 275.672 L645.449 274.723 L641.213 274.723 M649.709 272.964 L649.709 287.756 L645.449 287.756 L645.449 283.821 Q643.991 286.182 641.815 287.316 Q639.639 288.427 636.491 288.427 Q632.51 288.427 630.149 286.205 Q627.811 283.959 627.811 280.209 Q627.811 275.834 630.727 273.612 Q633.667 271.39 639.477 271.39 L645.449 271.39 L645.449 270.973 Q645.449 268.034 643.505 266.436 Q641.584 264.816 638.088 264.816 Q635.866 264.816 633.76 265.348 Q631.653 265.881 629.709 266.946 L629.709 263.01 Q632.047 262.108 634.246 261.668 Q636.445 261.205 638.528 261.205 Q644.153 261.205 646.931 264.122 Q649.709 267.038 649.709 272.964 Z" fill="#000000" fill-rule="nonzero" fill-opacity="1" /><path clip-path="url(#clip960)" d="M662.695 254.469 L662.695 261.83 L671.468 261.83 L671.468 265.14 L662.695 265.14 L662.695 279.214 Q662.695 282.385 663.551 283.288 Q664.431 284.191 667.093 284.191 L671.468 284.191 L671.468 287.756 L667.093 287.756 Q662.162 287.756 660.287 285.927 Q658.412 284.075 658.412 279.214 L658.412 265.14 L655.287 265.14 L655.287 261.83 L658.412 261.83 L658.412 254.469 L662.695 254.469 Z" fill="#000000" fill-rule="nonzero" fill-opacity="1" /><path clip-path="url(#clip960)" d="M696.352 254.469 L696.352 261.83 L705.125 261.83 L705.125 265.14 L696.352 265.14 L696.352 279.214 Q696.352 282.385 697.208 283.288 Q698.088 284.191 700.75 284.191 L705.125 284.191 L705.125 287.756 L700.75 287.756 Q695.82 287.756 693.945 285.927 Q692.07 284.075 692.07 279.214 L692.07 265.14 L688.945 265.14 L688.945 261.83 L692.07 261.83 L692.07 254.469 L696.352 254.469 Z" fill="#000000" fill-rule="nonzero" fill-opacity="1" /><path clip-path="url(#clip960)" d="M711.282 266.228 L740.958 266.228 L740.958 270.117 L711.282 270.117 L711.282 266.228 M711.282 275.672 L740.958 275.672 L740.958 279.608 L711.282 279.608 L711.282 275.672 Z" fill="#000000" fill-rule="nonzero" fill-opacity="1" /><path clip-path="url(#clip960)" d="M755.078 283.821 L771.398 283.821 L771.398 287.756 L749.454 287.756 L749.454 283.821 Q752.116 281.066 756.699 276.436 Q761.305 271.784 762.486 270.441 Q764.731 267.918 765.611 266.182 Q766.514 264.423 766.514 262.733 Q766.514 259.978 764.569 258.242 Q762.648 256.506 759.546 256.506 Q757.347 256.506 754.893 257.27 Q752.463 258.034 749.685 259.585 L749.685 254.862 Q752.509 253.728 754.963 253.149 Q757.416 252.571 759.453 252.571 Q764.824 252.571 768.018 255.256 Q771.213 257.941 771.213 262.432 Q771.213 264.561 770.402 266.483 Q769.615 268.381 767.509 270.973 Q766.93 271.645 763.828 274.862 Q760.727 278.057 755.078 283.821 Z" fill="#000000" fill-rule="nonzero" fill-opacity="1" /><path clip-path="url(#clip960)" d="M781.213 281.876 L786.097 281.876 L786.097 287.756 L781.213 287.756 L781.213 281.876 Z" fill="#000000" fill-rule="nonzero" fill-opacity="1" /><path clip-path="url(#clip960)" d="M806.282 256.274 Q802.671 256.274 800.842 259.839 Q799.037 263.381 799.037 270.51 Q799.037 277.617 800.842 281.182 Q802.671 284.723 806.282 284.723 Q809.916 284.723 811.722 281.182 Q813.55 277.617 813.55 270.51 Q813.55 263.381 811.722 259.839 Q809.916 256.274 806.282 256.274 M806.282 252.571 Q812.092 252.571 815.148 257.177 Q818.226 261.76 818.226 270.51 Q818.226 279.237 815.148 283.844 Q812.092 288.427 806.282 288.427 Q800.472 288.427 797.393 283.844 Q794.338 279.237 794.338 270.51 Q794.338 261.76 797.393 257.177 Q800.472 252.571 806.282 252.571 Z" fill="#000000" fill-rule="nonzero" fill-opacity="1" /><path clip-path="url(#clip960)" d="M838.435 261.83 L842.694 261.83 L848.018 282.061 L853.319 261.83 L858.342 261.83 L863.666 282.061 L868.967 261.83 L873.226 261.83 L866.444 287.756 L861.421 287.756 L855.842 266.506 L850.24 287.756 L845.217 287.756 L838.435 261.83 Z" fill="#000000" fill-rule="nonzero" fill-opacity="1" /><path clip-path="url(#clip960)" d="M879.684 261.83 L883.944 261.83 L883.944 287.756 L879.684 287.756 L879.684 261.83 M879.684 251.737 L883.944 251.737 L883.944 257.131 L879.684 257.131 L879.684 251.737 Z" fill="#000000" fill-rule="nonzero" fill-opacity="1" /><path clip-path="url(#clip960)" d="M897.068 254.469 L897.068 261.83 L905.842 261.83 L905.842 265.14 L897.068 265.14 L897.068 279.214 Q897.068 282.385 897.925 283.288 Q898.805 284.191 901.467 284.191 L905.842 284.191 L905.842 287.756 L901.467 287.756 Q896.536 287.756 894.661 285.927 Q892.786 284.075 892.786 279.214 L892.786 265.14 L889.661 265.14 L889.661 261.83 L892.786 261.83 L892.786 254.469 L897.068 254.469 Z" fill="#000000" fill-rule="nonzero" fill-opacity="1" /><path clip-path="url(#clip960)" d="M932.994 272.108 L932.994 287.756 L928.735 287.756 L928.735 272.247 Q928.735 268.566 927.3 266.737 Q925.865 264.909 922.994 264.909 Q919.545 264.909 917.554 267.108 Q915.564 269.307 915.564 273.103 L915.564 287.756 L911.281 287.756 L911.281 251.737 L915.564 251.737 L915.564 265.858 Q917.092 263.52 919.152 262.362 Q921.235 261.205 923.943 261.205 Q928.411 261.205 930.703 263.983 Q932.994 266.737 932.994 272.108 Z" fill="#000000" fill-rule="nonzero" fill-opacity="1" /><path clip-path="url(#clip960)" d="M951.952 253.196 L981.188 253.196 L981.188 257.131 L968.92 257.131 L968.92 287.756 L964.221 287.756 L964.221 257.131 L951.952 257.131 L951.952 253.196 Z" fill="#000000" fill-rule="nonzero" fill-opacity="1" /><path clip-path="url(#clip960)" d="M993.573 265.811 Q992.855 265.395 991.999 265.21 Q991.165 265.001 990.147 265.001 Q986.536 265.001 984.591 267.362 Q982.67 269.7 982.67 274.098 L982.67 287.756 L978.387 287.756 L978.387 261.83 L982.67 261.83 L982.67 265.858 Q984.012 263.497 986.165 262.362 Q988.318 261.205 991.397 261.205 Q991.836 261.205 992.369 261.274 Q992.901 261.321 993.549 261.436 L993.573 265.811 Z" fill="#000000" fill-rule="nonzero" fill-opacity="1" /><path clip-path="url(#clip960)" d="M998.04 261.83 L1002.3 261.83 L1002.3 287.756 L998.04 287.756 L998.04 261.83 M998.04 251.737 L1002.3 251.737 L1002.3 257.131 L998.04 257.131 L998.04 251.737 Z" fill="#000000" fill-rule="nonzero" fill-opacity="1" /><path clip-path="url(#clip960)" d="M1032.76 261.83 L1023.39 274.446 L1033.25 287.756 L1028.23 287.756 L1020.68 277.571 L1013.13 287.756 L1008.11 287.756 L1018.18 274.191 L1008.97 261.83 L1013.99 261.83 L1020.86 271.066 L1027.74 261.83 L1032.76 261.83 Z" fill="#000000" fill-rule="nonzero" fill-opacity="1" /><path clip-path="url(#clip960)" d="M1039.27 261.83 L1043.53 261.83 L1043.53 287.756 L1039.27 287.756 L1039.27 261.83 M1039.27 251.737 L1043.53 251.737 L1043.53 257.131 L1039.27 257.131 L1039.27 251.737 Z" fill="#000000" fill-rule="nonzero" fill-opacity="1" /><path clip-path="url(#clip960)" d="M1053.04 281.876 L1057.92 281.876 L1057.92 287.756 L1053.04 287.756 L1053.04 281.876 Z" fill="#000000" fill-rule="nonzero" fill-opacity="1" /><path clip-path="url(#clip960)" d="M1067.51 261.83 L1071.77 261.83 L1071.77 288.219 Q1071.77 293.172 1069.87 295.395 Q1067.99 297.617 1063.8 297.617 L1062.18 297.617 L1062.18 294.006 L1063.32 294.006 Q1065.75 294.006 1066.63 292.871 Q1067.51 291.76 1067.51 288.219 L1067.51 261.83 M1067.51 251.737 L1071.77 251.737 L1071.77 257.131 L1067.51 257.131 L1067.51 251.737 Z" fill="#000000" fill-rule="nonzero" fill-opacity="1" /><path clip-path="url(#clip960)" d="M1080.68 251.737 L1084.94 251.737 L1084.94 287.756 L1080.68 287.756 L1080.68 251.737 Z" fill="#000000" fill-rule="nonzero" fill-opacity="1" /></svg>
