<?xml version="1.0" encoding="utf-8"?>
<svg xmlns="http://www.w3.org/2000/svg" xmlns:xlink="http://www.w3.org/1999/xlink" width="600" height="400" viewBox="0 0 2400 1600">
<defs>
  <clipPath id="clip690">
    <rect x="0" y="0" width="2400" height="1600"/>
  </clipPath>
</defs>
<path clip-path="url(#clip690)" d="M0 1600 L2400 1600 L2400 0 L0 0  Z" fill="#ffffff" fill-rule="evenodd" fill-opacity="1"/>
<defs>
  <clipPath id="clip691">
    <rect x="480" y="0" width="1681" height="1600"/>
  </clipPath>
</defs>
<path clip-path="url(#clip690)" d="M112.177 1423.18 L690.75 1423.18 L690.75 123.472 L112.177 123.472  Z" fill="#ffffff" fill-rule="evenodd" fill-opacity="1"/>
<defs>
  <clipPath id="clip692">
    <rect x="112" y="123" width="580" height="1301"/>
  </clipPath>
</defs>
<polyline clip-path="url(#clip692)" style="stroke:#000000; stroke-linecap:round; stroke-linejoin:round; stroke-width:2; stroke-opacity:0.1; fill:none" points="112.177,1423.18 112.177,123.472 "/>
<polyline clip-path="url(#clip692)" style="stroke:#000000; stroke-linecap:round; stroke-linejoin:round; stroke-width:2; stroke-opacity:0.1; fill:none" points="256.82,1423.18 256.82,123.472 "/>
<polyline clip-path="url(#clip692)" style="stroke:#000000; stroke-linecap:round; stroke-linejoin:round; stroke-width:2; stroke-opacity:0.1; fill:none" points="401.464,1423.18 401.464,123.472 "/>
<polyline clip-path="url(#clip692)" style="stroke:#000000; stroke-linecap:round; stroke-linejoin:round; stroke-width:2; stroke-opacity:0.1; fill:none" points="546.107,1423.18 546.107,123.472 "/>
<polyline clip-path="url(#clip692)" style="stroke:#000000; stroke-linecap:round; stroke-linejoin:round; stroke-width:2; stroke-opacity:0.1; fill:none" points="690.75,1423.18 690.75,123.472 "/>
<polyline clip-path="url(#clip692)" style="stroke:#000000; stroke-linecap:round; stroke-linejoin:round; stroke-width:2; stroke-opacity:0.1; fill:none" points="112.177,1179.46 690.75,1179.46 "/>
<polyline clip-path="url(#clip692)" style="stroke:#000000; stroke-linecap:round; stroke-linejoin:round; stroke-width:2; stroke-opacity:0.1; fill:none" points="112.177,834.812 690.75,834.812 "/>
<polyline clip-path="url(#clip692)" style="stroke:#000000; stroke-linecap:round; stroke-linejoin:round; stroke-width:2; stroke-opacity:0.1; fill:none" points="112.177,490.169 690.75,490.169 "/>
<polyline clip-path="url(#clip692)" style="stroke:#000000; stroke-linecap:round; stroke-linejoin:round; stroke-width:2; stroke-opacity:0.1; fill:none" points="112.177,145.525 690.75,145.525 "/>
<polyline clip-path="url(#clip690)" style="stroke:#000000; stroke-linecap:round; stroke-linejoin:round; stroke-width:4; stroke-opacity:1; fill:none" points="112.177,1423.18 690.75,1423.18 "/>
<polyline clip-path="url(#clip690)" style="stroke:#000000; stroke-linecap:round; stroke-linejoin:round; stroke-width:4; stroke-opacity:1; fill:none" points="112.177,1423.18 112.177,1404.28 "/>
<polyline clip-path="url(#clip690)" style="stroke:#000000; stroke-linecap:round; stroke-linejoin:round; stroke-width:4; stroke-opacity:1; fill:none" points="256.82,1423.18 256.82,1404.28 "/>
<polyline clip-path="url(#clip690)" style="stroke:#000000; stroke-linecap:round; stroke-linejoin:round; stroke-width:4; stroke-opacity:1; fill:none" points="401.464,1423.18 401.464,1404.28 "/>
<polyline clip-path="url(#clip690)" style="stroke:#000000; stroke-linecap:round; stroke-linejoin:round; stroke-width:4; stroke-opacity:1; fill:none" points="546.107,1423.18 546.107,1404.28 "/>
<polyline clip-path="url(#clip690)" style="stroke:#000000; stroke-linecap:round; stroke-linejoin:round; stroke-width:4; stroke-opacity:1; fill:none" points="690.75,1423.18 690.75,1404.28 "/>
<path clip-path="url(#clip690)" d="M82.1195 1468.75 L111.795 1468.75 L111.795 1472.69 L82.1195 1472.69 L82.1195 1468.75 Z" fill="#000000" fill-rule="nonzero" fill-opacity="1" /><path clip-path="url(#clip690)" d="M125.916 1481.64 L142.235 1481.64 L142.235 1485.58 L120.291 1485.58 L120.291 1481.64 Q122.953 1478.89 127.536 1474.26 Q132.142 1469.61 133.323 1468.27 Q135.568 1465.74 136.448 1464.01 Q137.351 1462.25 137.351 1460.56 Q137.351 1457.8 135.406 1456.07 Q133.485 1454.33 130.383 1454.33 Q128.184 1454.33 125.73 1455.09 Q123.3 1455.86 120.522 1457.41 L120.522 1452.69 Q123.346 1451.55 125.8 1450.97 Q128.253 1450.39 130.291 1450.39 Q135.661 1450.39 138.855 1453.08 Q142.05 1455.77 142.05 1460.26 Q142.05 1462.39 141.24 1464.31 Q140.452 1466.2 138.346 1468.8 Q137.767 1469.47 134.665 1472.69 Q131.564 1475.88 125.916 1481.64 Z" fill="#000000" fill-rule="nonzero" fill-opacity="1" /><path clip-path="url(#clip690)" d="M226.578 1468.75 L256.253 1468.75 L256.253 1472.69 L226.578 1472.69 L226.578 1468.75 Z" fill="#000000" fill-rule="nonzero" fill-opacity="1" /><path clip-path="url(#clip690)" d="M267.156 1481.64 L274.795 1481.64 L274.795 1455.28 L266.485 1456.95 L266.485 1452.69 L274.749 1451.02 L279.424 1451.02 L279.424 1481.64 L287.063 1481.64 L287.063 1485.58 L267.156 1485.58 L267.156 1481.64 Z" fill="#000000" fill-rule="nonzero" fill-opacity="1" /><path clip-path="url(#clip690)" d="M401.464 1454.1 Q397.853 1454.1 396.024 1457.66 Q394.218 1461.2 394.218 1468.33 Q394.218 1475.44 396.024 1479.01 Q397.853 1482.55 401.464 1482.55 Q405.098 1482.55 406.903 1479.01 Q408.732 1475.44 408.732 1468.33 Q408.732 1461.2 406.903 1457.66 Q405.098 1454.1 401.464 1454.1 M401.464 1450.39 Q407.274 1450.39 410.329 1455 Q413.408 1459.58 413.408 1468.33 Q413.408 1477.06 410.329 1481.67 Q407.274 1486.25 401.464 1486.25 Q395.653 1486.25 392.575 1481.67 Q389.519 1477.06 389.519 1468.33 Q389.519 1459.58 392.575 1455 Q395.653 1450.39 401.464 1450.39 Z" fill="#000000" fill-rule="nonzero" fill-opacity="1" /><path clip-path="url(#clip690)" d="M536.489 1481.64 L544.128 1481.64 L544.128 1455.28 L535.818 1456.95 L535.818 1452.69 L544.081 1451.02 L548.757 1451.02 L548.757 1481.64 L556.396 1481.64 L556.396 1485.58 L536.489 1485.58 L536.489 1481.64 Z" fill="#000000" fill-rule="nonzero" fill-opacity="1" /><path clip-path="url(#clip690)" d="M685.403 1481.64 L701.722 1481.64 L701.722 1485.58 L679.778 1485.58 L679.778 1481.64 Q682.44 1478.89 687.023 1474.26 Q691.63 1469.61 692.81 1468.27 Q695.056 1465.74 695.935 1464.01 Q696.838 1462.25 696.838 1460.56 Q696.838 1457.8 694.894 1456.07 Q692.972 1454.33 689.87 1454.33 Q687.671 1454.33 685.218 1455.09 Q682.787 1455.86 680.009 1457.41 L680.009 1452.69 Q682.833 1451.55 685.287 1450.97 Q687.741 1450.39 689.778 1450.39 Q695.148 1450.39 698.343 1453.08 Q701.537 1455.77 701.537 1460.26 Q701.537 1462.39 700.727 1464.31 Q699.94 1466.2 697.833 1468.8 Q697.255 1469.47 694.153 1472.69 Q691.051 1475.88 685.403 1481.64 Z" fill="#000000" fill-rule="nonzero" fill-opacity="1" /><path clip-path="url(#clip690)" d="M415.637 1528.8 Q415.637 1530.61 414.51 1531.64 Q413.383 1532.64 412.094 1532.64 Q410.871 1532.64 410.226 1531.93 Q409.582 1531.22 409.582 1530.32 Q409.582 1529.09 410.484 1528.03 Q411.386 1526.97 412.739 1526.74 Q411.418 1525.91 409.454 1525.91 Q408.165 1525.91 407.038 1526.58 Q405.943 1527.26 405.267 1528.13 Q404.623 1529 404.043 1530.25 Q403.495 1531.48 403.27 1532.22 Q403.077 1532.93 402.916 1533.7 L400.661 1542.72 Q399.566 1547 399.566 1548.51 Q399.566 1550.38 400.468 1551.64 Q401.37 1552.86 403.173 1552.86 Q403.882 1552.86 404.687 1552.67 Q405.492 1552.44 406.523 1551.86 Q407.586 1551.25 408.52 1550.35 Q409.486 1549.42 410.42 1547.84 Q411.354 1546.26 411.966 1544.23 Q412.159 1543.52 412.803 1543.52 Q413.608 1543.52 413.608 1544.17 Q413.608 1544.71 413.157 1545.87 Q412.739 1547 411.805 1548.48 Q410.903 1549.93 409.711 1551.25 Q408.52 1552.54 406.748 1553.44 Q404.977 1554.34 403.045 1554.34 Q400.275 1554.34 398.439 1552.86 Q396.603 1551.38 395.927 1549.32 Q395.766 1549.61 395.541 1550 Q395.315 1550.38 394.639 1551.25 Q393.995 1552.09 393.254 1552.73 Q392.513 1553.34 391.354 1553.83 Q390.227 1554.34 389.003 1554.34 Q387.457 1554.34 386.072 1553.89 Q384.719 1553.44 383.753 1552.41 Q382.787 1551.38 382.787 1549.96 Q382.787 1548.38 383.85 1547.29 Q384.945 1546.16 386.426 1546.16 Q387.36 1546.16 388.101 1546.71 Q388.874 1547.26 388.874 1548.45 Q388.874 1549.77 387.972 1550.77 Q387.07 1551.77 385.782 1552.02 Q387.103 1552.86 389.067 1552.86 Q391.193 1552.86 392.867 1550.99 Q394.542 1549.13 395.347 1546 Q397.344 1538.5 398.117 1535.15 Q398.89 1531.77 398.89 1530.32 Q398.89 1528.96 398.536 1528.03 Q398.181 1527.1 397.57 1526.68 Q396.99 1526.23 396.442 1526.07 Q395.927 1525.91 395.347 1525.91 Q394.381 1525.91 393.286 1526.29 Q392.223 1526.68 390.935 1527.58 Q389.679 1528.45 388.487 1530.25 Q387.296 1532.06 386.491 1534.54 Q386.33 1535.28 385.621 1535.28 Q384.848 1535.24 384.848 1534.6 Q384.848 1534.05 385.267 1532.93 Q385.718 1531.77 386.62 1530.32 Q387.554 1528.87 388.745 1527.58 Q389.969 1526.26 391.74 1525.36 Q393.544 1524.46 395.476 1524.46 Q396.346 1524.46 397.183 1524.65 Q398.053 1524.81 399.083 1525.29 Q400.146 1525.78 401.08 1526.84 Q402.014 1527.9 402.594 1529.45 Q402.98 1528.71 403.495 1528 Q404.043 1527.29 404.88 1526.42 Q405.75 1525.52 406.941 1525 Q408.165 1524.46 409.518 1524.46 Q410.838 1524.46 412.127 1524.81 Q413.415 1525.13 414.51 1526.19 Q415.637 1527.23 415.637 1528.8 Z" fill="#000000" fill-rule="nonzero" fill-opacity="1" /><polyline clip-path="url(#clip690)" style="stroke:#000000; stroke-linecap:round; stroke-linejoin:round; stroke-width:4; stroke-opacity:1; fill:none" points="112.177,1423.18 112.177,123.472 "/>
<polyline clip-path="url(#clip690)" style="stroke:#000000; stroke-linecap:round; stroke-linejoin:round; stroke-width:4; stroke-opacity:1; fill:none" points="112.177,1179.46 131.075,1179.46 "/>
<polyline clip-path="url(#clip690)" style="stroke:#000000; stroke-linecap:round; stroke-linejoin:round; stroke-width:4; stroke-opacity:1; fill:none" points="112.177,834.812 131.075,834.812 "/>
<polyline clip-path="url(#clip690)" style="stroke:#000000; stroke-linecap:round; stroke-linejoin:round; stroke-width:4; stroke-opacity:1; fill:none" points="112.177,490.169 131.075,490.169 "/>
<polyline clip-path="url(#clip690)" style="stroke:#000000; stroke-linecap:round; stroke-linejoin:round; stroke-width:4; stroke-opacity:1; fill:none" points="112.177,145.525 131.075,145.525 "/>
<path clip-path="url(#clip690)" d="M56.2699 1192.8 L63.9087 1192.8 L63.9087 1166.43 L55.5986 1168.1 L55.5986 1163.84 L63.8624 1162.18 L68.5383 1162.18 L68.5383 1192.8 L76.1772 1192.8 L76.1772 1196.74 L56.2699 1196.74 L56.2699 1192.8 Z" fill="#000000" fill-rule="nonzero" fill-opacity="1" /><path clip-path="url(#clip690)" d="M59.8578 848.157 L76.1772 848.157 L76.1772 852.092 L54.2328 852.092 L54.2328 848.157 Q56.8949 845.402 61.4782 840.773 Q66.0846 836.12 67.2652 834.777 Q69.5105 832.254 70.3902 830.518 Q71.2929 828.759 71.2929 827.069 Q71.2929 824.314 69.3485 822.578 Q67.4272 820.842 64.3254 820.842 Q62.1263 820.842 59.6726 821.606 Q57.2421 822.37 54.4643 823.921 L54.4643 819.199 Q57.2884 818.064 59.7421 817.486 Q62.1958 816.907 64.2328 816.907 Q69.6031 816.907 72.7976 819.592 Q75.992 822.277 75.992 826.768 Q75.992 828.898 75.1818 830.819 Q74.3948 832.717 72.2883 835.31 Q71.7096 835.981 68.6078 839.199 Q65.5059 842.393 59.8578 848.157 Z" fill="#000000" fill-rule="nonzero" fill-opacity="1" /><path clip-path="url(#clip690)" d="M69.0476 488.815 Q72.404 489.532 74.279 491.801 Q76.1772 494.069 76.1772 497.402 Q76.1772 502.518 72.6587 505.319 Q69.1402 508.12 62.6587 508.12 Q60.4828 508.12 58.168 507.68 Q55.8764 507.264 53.4227 506.407 L53.4227 501.893 Q55.3671 503.027 57.6819 503.606 Q59.9967 504.185 62.5198 504.185 Q66.918 504.185 69.2096 502.449 Q71.5244 500.713 71.5244 497.402 Q71.5244 494.347 69.3717 492.634 Q67.242 490.898 63.4226 490.898 L59.3949 490.898 L59.3949 487.055 L63.6078 487.055 Q67.0569 487.055 68.8855 485.69 Q70.7142 484.301 70.7142 481.708 Q70.7142 479.046 68.8161 477.634 Q66.9411 476.199 63.4226 476.199 Q61.5013 476.199 59.3023 476.616 Q57.1032 477.032 54.4643 477.912 L54.4643 473.745 Q57.1264 473.004 59.4412 472.634 Q61.7791 472.264 63.8393 472.264 Q69.1633 472.264 72.2652 474.694 Q75.367 477.102 75.367 481.222 Q75.367 484.092 73.7235 486.083 Q72.08 488.051 69.0476 488.815 Z" fill="#000000" fill-rule="nonzero" fill-opacity="1" /><path clip-path="url(#clip690)" d="M66.5939 132.32 L54.7884 150.769 L66.5939 150.769 L66.5939 132.32 M65.367 128.245 L71.2466 128.245 L71.2466 150.769 L76.1772 150.769 L76.1772 154.657 L71.2466 154.657 L71.2466 162.805 L66.5939 162.805 L66.5939 154.657 L50.9921 154.657 L50.9921 150.144 L65.367 128.245 Z" fill="#000000" fill-rule="nonzero" fill-opacity="1" /><path clip-path="url(#clip690)" d="M366.079 34.1734 Q364.823 33.4443 363.324 33.1202 Q361.866 32.7556 360.084 32.7556 Q353.764 32.7556 350.361 36.8875 Q346.999 40.9789 346.999 48.6757 L346.999 72.576 L339.505 72.576 L339.505 27.2059 L346.999 27.2059 L346.999 34.2544 Q349.349 30.1225 353.116 28.1376 Q356.883 26.1121 362.271 26.1121 Q363.041 26.1121 363.973 26.2337 Q364.904 26.3147 366.038 26.5172 L366.079 34.1734 Z" fill="#000000" fill-rule="nonzero" fill-opacity="1" /><path clip-path="url(#clip690)" d="M410.153 45.1919 L410.153 72.576 L402.699 72.576 L402.699 45.4349 Q402.699 38.994 400.188 35.7938 Q397.676 32.5936 392.653 32.5936 Q386.617 32.5936 383.133 36.4419 Q379.65 40.2903 379.65 46.9338 L379.65 72.576 L372.155 72.576 L372.155 9.54393 L379.65 9.54393 L379.65 34.2544 Q382.323 30.163 385.928 28.1376 Q389.574 26.1121 394.314 26.1121 Q402.132 26.1121 406.142 30.9732 Q410.153 35.7938 410.153 45.1919 Z" fill="#000000" fill-rule="nonzero" fill-opacity="1" /><path clip-path="url(#clip690)" d="M442.601 32.4315 Q436.605 32.4315 433.121 37.1306 Q429.638 41.7891 429.638 49.9314 Q429.638 58.0738 433.081 62.7728 Q436.565 67.4314 442.601 67.4314 Q448.555 67.4314 452.039 62.7323 Q455.523 58.0333 455.523 49.9314 Q455.523 41.8701 452.039 37.1711 Q448.555 32.4315 442.601 32.4315 M442.601 26.1121 Q452.323 26.1121 457.872 32.4315 Q463.422 38.7509 463.422 49.9314 Q463.422 61.0714 457.872 67.4314 Q452.323 73.7508 442.601 73.7508 Q432.838 73.7508 427.288 67.4314 Q421.779 61.0714 421.779 49.9314 Q421.779 38.7509 427.288 32.4315 Q432.838 26.1121 442.601 26.1121 Z" fill="#000000" fill-rule="nonzero" fill-opacity="1" /><polyline clip-path="url(#clip692)" style="stroke:#009af9; stroke-linecap:round; stroke-linejoin:round; stroke-width:4; stroke-opacity:1; fill:none" points="112.177,168.338 113.469,163.598 114.76,160.896 116.052,160.256 117.343,161.704 118.634,165.264 119.926,170.96 121.217,178.817 121.217,201.492 122.509,209.458 123.8,219.669 125.092,233.905 126.383,253.948 127.675,281.577 128.966,318.574 130.258,366.719 130.258,353.658 131.549,442.068 132.84,519.692 134.132,586.472 135.423,642.349 136.715,687.266 138.006,721.164 139.298,743.987 139.298,742.855 140.589,755.906 141.881,767.051 143.172,776.792 144.464,785.625 145.755,794.052 147.047,802.57 148.338,811.68 148.338,811.728 149.629,821.429 150.921,830.988 152.212,840.418 153.504,849.735 154.795,858.951 156.087,868.083 157.378,877.144 157.378,877.121 158.67,886.092 159.961,894.912 161.253,903.592 162.544,912.144 163.835,920.58 165.127,928.91 166.418,937.146 166.418,937.175 167.71,945.31 169.001,953.389 170.293,961.412 171.584,969.383 172.876,977.305 174.167,985.181 175.459,993.013 175.459,993.027 176.75,1000.88 178.042,1008.69 179.333,1016.45 180.624,1024.16 181.916,1031.8 183.207,1039.37 184.499,1046.88 184.499,1046.88 185.79,1054.36 187.082,1061.8 188.373,1069.19 189.665,1076.53 190.956,1083.81 192.248,1091.03 193.539,1098.19 193.539,1098.18 194.83,1105.15 196.122,1112.01 197.413,1118.79 198.705,1125.49 199.996,1132.14 201.288,1138.74 202.579,1145.32 202.579,1145.3 203.871,1151.79 205.162,1158.17 206.454,1164.46 207.745,1170.65 209.036,1176.76 210.328,1182.8 211.619,1188.76 211.619,1188.76 212.911,1194.49 214.202,1200.09 215.494,1205.57 216.785,1210.97 218.077,1216.32 219.368,1221.63 220.66,1226.92 220.66,1226.92 221.951,1232.06 223.243,1237.08 224.534,1241.99 225.825,1246.81 227.117,1251.54 228.408,1256.22 229.7,1260.86 229.7,1260.89 230.991,1265.33 232.283,1269.57 233.574,1273.66 234.866,1277.6 236.157,1281.45 237.449,1285.22 238.74,1288.94 238.74,1289.07 240.031,1292.8 241.323,1296.4 242.614,1299.88 243.906,1303.23 245.197,1306.48 246.489,1309.61 247.78,1312.63 247.78,1312.8 249.072,1315.96 250.363,1318.99 251.655,1321.89 252.946,1324.64 254.237,1327.23 255.529,1329.65 256.82,1331.88 256.82,1332.07 258.112,1334.51 259.403,1336.88 260.695,1339.16 261.986,1341.31 263.278,1343.32 264.569,1345.16 265.861,1346.79 265.861,1346.92 267.152,1348.77 268.444,1350.63 269.735,1352.46 271.026,1354.23 272.318,1355.89 273.609,1357.42 274.901,1358.78 274.901,1358.76 276.192,1360.15 277.484,1361.54 278.775,1362.9 280.067,1364.23 281.358,1365.5 282.65,1366.69 283.941,1367.79 283.941,1367.66 285.232,1368.58 286.524,1369.46 287.815,1370.33 289.107,1371.19 290.398,1372.05 291.69,1372.93 292.981,1373.84 292.981,1373.68 294.273,1374.31 295.564,1374.89 296.856,1375.45 298.147,1376.01 299.438,1376.6 300.73,1377.25 302.021,1377.98 302.021,1377.9 303.313,1378.44 304.604,1378.92 305.896,1379.35 307.187,1379.75 308.479,1380.13 309.77,1380.53 311.062,1380.94 311.062,1380.98 312.353,1381.39 313.645,1381.73 314.936,1382.02 316.227,1382.26 317.519,1382.44 318.81,1382.58 320.102,1382.66 320.102,1382.76 321.393,1382.95 322.685,1383.14 323.976,1383.31 325.268,1383.46 326.559,1383.57 327.851,1383.64 329.142,1383.65 329.142,1383.69 330.433,1383.78 331.725,1383.88 333.016,1384.01 334.308,1384.14 335.599,1384.27 336.891,1384.39 338.182,1384.49 338.182,1384.47 339.474,1384.55 340.765,1384.64 342.057,1384.72 343.348,1384.81 344.639,1384.89 345.931,1384.98 347.222,1385.06 347.222,1385.03 348.514,1385.07 349.805,1385.08 351.097,1385.08 352.388,1385.07 353.68,1385.06 354.971,1385.04 356.263,1385.04 356.263,1385.04 357.554,1385.01 358.846,1384.98 360.137,1384.95 361.428,1384.93 362.72,1384.9 364.011,1384.89 365.303,1384.89 365.303,1384.9 366.594,1384.92 367.886,1384.95 369.177,1384.99 370.469,1385.04 371.76,1385.1 373.052,1385.16 374.343,1385.21 374.343,1385.22 375.634,1385.3 376.926,1385.39 378.217,1385.48 379.509,1385.55 380.8,1385.62 382.092,1385.67 383.383,1385.68 383.383,1385.67 384.675,1385.66 385.966,1385.64 387.258,1385.65 388.549,1385.7 389.841,1385.83 391.132,1386.05 392.423,1386.4 392.423,1386.06 393.715,1385.84 395.006,1385.7 396.298,1385.62 397.589,1385.62 398.881,1385.68 400.172,1385.78 401.464,1385.94 401.464,1385.94 402.755,1385.78 404.047,1385.68 405.338,1385.62 406.629,1385.62 407.921,1385.7 409.212,1385.84 410.504,1386.06 410.504,1386.4 411.795,1386.05 413.087,1385.83 414.378,1385.7 415.67,1385.65 416.961,1385.64 418.253,1385.66 419.544,1385.67 419.544,1385.68 420.835,1385.67 422.127,1385.62 423.418,1385.55 424.71,1385.48 426.001,1385.39 427.293,1385.3 428.584,1385.22 428.584,1385.21 429.876,1385.16 431.167,1385.1 432.459,1385.04 433.75,1384.99 435.042,1384.95 436.333,1384.92 437.624,1384.9 437.624,1384.89 438.916,1384.89 440.207,1384.9 441.499,1384.93 442.79,1384.95 444.082,1384.98 445.373,1385.01 446.665,1385.04 446.665,1385.04 447.956,1385.04 449.248,1385.06 450.539,1385.07 451.83,1385.08 453.122,1385.08 454.413,1385.07 455.705,1385.03 455.705,1385.06 456.996,1384.98 458.288,1384.89 459.579,1384.81 460.871,1384.72 462.162,1384.64 463.454,1384.55 464.745,1384.47 464.745,1384.49 466.036,1384.39 467.328,1384.27 468.619,1384.14 469.911,1384.01 471.202,1383.88 472.494,1383.78 473.785,1383.69 473.785,1383.65 475.077,1383.64 476.368,1383.57 477.66,1383.46 478.951,1383.31 480.243,1383.14 481.534,1382.95 482.825,1382.76 482.825,1382.66 484.117,1382.58 485.408,1382.44 486.7,1382.26 487.991,1382.02 489.283,1381.73 490.574,1381.39 491.866,1380.98 491.866,1380.94 493.157,1380.53 494.449,1380.13 495.74,1379.75 497.031,1379.35 498.323,1378.92 499.614,1378.44 500.906,1377.9 500.906,1377.98 502.197,1377.25 503.489,1376.6 504.78,1376.01 506.072,1375.45 507.363,1374.89 508.655,1374.31 509.946,1373.68 509.946,1373.84 511.237,1372.93 512.529,1372.05 513.82,1371.19 515.112,1370.33 516.403,1369.46 517.695,1368.58 518.986,1367.66 518.986,1367.79 520.278,1366.69 521.569,1365.5 522.861,1364.23 524.152,1362.9 525.444,1361.54 526.735,1360.15 528.026,1358.76 528.026,1358.78 529.318,1357.42 530.609,1355.89 531.901,1354.23 533.192,1352.46 534.484,1350.63 535.775,1348.77 537.067,1346.92 537.067,1346.79 538.358,1345.16 539.65,1343.32 540.941,1341.31 542.232,1339.16 543.524,1336.88 544.815,1334.51 546.107,1332.07 546.107,1331.88 547.398,1329.65 548.69,1327.23 549.981,1324.64 551.273,1321.89 552.564,1318.99 553.856,1315.96 555.147,1312.8 555.147,1312.63 556.439,1309.61 557.73,1306.48 559.021,1303.23 560.313,1299.88 561.604,1296.4 562.896,1292.8 564.187,1289.07 564.187,1288.94 565.479,1285.22 566.77,1281.45 568.062,1277.6 569.353,1273.66 570.645,1269.57 571.936,1265.33 573.227,1260.89 573.227,1260.86 574.519,1256.22 575.81,1251.54 577.102,1246.81 578.393,1241.99 579.685,1237.08 580.976,1232.06 582.268,1226.92 582.268,1226.92 583.559,1221.63 584.851,1216.32 586.142,1210.97 587.433,1205.57 588.725,1200.09 590.016,1194.49 591.308,1188.76 591.308,1188.76 592.599,1182.8 593.891,1176.76 595.182,1170.65 596.474,1164.46 597.765,1158.17 599.057,1151.79 600.348,1145.3 600.348,1145.32 601.64,1138.74 602.931,1132.14 604.222,1125.49 605.514,1118.79 606.805,1112.01 608.097,1105.15 609.388,1098.18 609.388,1098.19 610.68,1091.03 611.971,1083.81 613.263,1076.53 614.554,1069.19 615.846,1061.8 617.137,1054.36 618.428,1046.88 618.428,1046.88 619.72,1039.37 621.011,1031.8 622.303,1024.16 623.594,1016.45 624.886,1008.69 626.177,1000.88 627.469,993.027 627.469,993.013 628.76,985.181 630.052,977.305 631.343,969.383 632.634,961.412 633.926,953.389 635.217,945.31 636.509,937.175 636.509,937.146 637.8,928.91 639.092,920.58 640.383,912.144 641.675,903.592 642.966,894.912 644.258,886.092 645.549,877.121 645.549,877.144 646.841,868.083 648.132,858.951 649.423,849.734 650.715,840.418 652.006,830.988 653.298,821.429 654.589,811.728 654.589,811.68 655.881,802.57 657.172,794.052 658.464,785.625 659.755,776.792 661.047,767.051 662.338,755.906 663.629,742.856 663.629,743.987 664.921,721.164 666.212,687.266 667.504,642.349 668.795,586.472 670.087,519.692 671.378,442.068 672.67,353.658 672.67,366.719 673.961,318.574 675.253,281.577 676.544,253.948 677.835,233.905 679.127,219.669 680.418,209.458 681.71,201.492 681.71,178.817 683.001,170.96 684.293,165.264 685.584,161.704 686.876,160.256 688.167,160.896 689.459,163.598 690.75,168.339 "/>
<path clip-path="url(#clip690)" d="M962.092 1423.18 L1540.66 1423.18 L1540.66 123.472 L962.092 123.472  Z" fill="#ffffff" fill-rule="evenodd" fill-opacity="1"/>
<defs>
  <clipPath id="clip693">
    <rect x="962" y="123" width="580" height="1301"/>
  </clipPath>
</defs>
<polyline clip-path="url(#clip693)" style="stroke:#000000; stroke-linecap:round; stroke-linejoin:round; stroke-width:2; stroke-opacity:0.1; fill:none" points="962.092,1423.18 962.092,123.472 "/>
<polyline clip-path="url(#clip693)" style="stroke:#000000; stroke-linecap:round; stroke-linejoin:round; stroke-width:2; stroke-opacity:0.1; fill:none" points="1106.74,1423.18 1106.74,123.472 "/>
<polyline clip-path="url(#clip693)" style="stroke:#000000; stroke-linecap:round; stroke-linejoin:round; stroke-width:2; stroke-opacity:0.1; fill:none" points="1251.38,1423.18 1251.38,123.472 "/>
<polyline clip-path="url(#clip693)" style="stroke:#000000; stroke-linecap:round; stroke-linejoin:round; stroke-width:2; stroke-opacity:0.1; fill:none" points="1396.02,1423.18 1396.02,123.472 "/>
<polyline clip-path="url(#clip693)" style="stroke:#000000; stroke-linecap:round; stroke-linejoin:round; stroke-width:2; stroke-opacity:0.1; fill:none" points="1540.66,1423.18 1540.66,123.472 "/>
<polyline clip-path="url(#clip693)" style="stroke:#000000; stroke-linecap:round; stroke-linejoin:round; stroke-width:2; stroke-opacity:0.1; fill:none" points="962.092,1206.83 1540.66,1206.83 "/>
<polyline clip-path="url(#clip693)" style="stroke:#000000; stroke-linecap:round; stroke-linejoin:round; stroke-width:2; stroke-opacity:0.1; fill:none" points="962.092,990.076 1540.66,990.076 "/>
<polyline clip-path="url(#clip693)" style="stroke:#000000; stroke-linecap:round; stroke-linejoin:round; stroke-width:2; stroke-opacity:0.1; fill:none" points="962.092,773.326 1540.66,773.326 "/>
<polyline clip-path="url(#clip693)" style="stroke:#000000; stroke-linecap:round; stroke-linejoin:round; stroke-width:2; stroke-opacity:0.1; fill:none" points="962.092,556.576 1540.66,556.576 "/>
<polyline clip-path="url(#clip693)" style="stroke:#000000; stroke-linecap:round; stroke-linejoin:round; stroke-width:2; stroke-opacity:0.1; fill:none" points="962.092,339.826 1540.66,339.826 "/>
<polyline clip-path="url(#clip690)" style="stroke:#000000; stroke-linecap:round; stroke-linejoin:round; stroke-width:4; stroke-opacity:1; fill:none" points="962.092,1423.18 1540.66,1423.18 "/>
<polyline clip-path="url(#clip690)" style="stroke:#000000; stroke-linecap:round; stroke-linejoin:round; stroke-width:4; stroke-opacity:1; fill:none" points="962.092,1423.18 962.092,1404.28 "/>
<polyline clip-path="url(#clip690)" style="stroke:#000000; stroke-linecap:round; stroke-linejoin:round; stroke-width:4; stroke-opacity:1; fill:none" points="1106.74,1423.18 1106.74,1404.28 "/>
<polyline clip-path="url(#clip690)" style="stroke:#000000; stroke-linecap:round; stroke-linejoin:round; stroke-width:4; stroke-opacity:1; fill:none" points="1251.38,1423.18 1251.38,1404.28 "/>
<polyline clip-path="url(#clip690)" style="stroke:#000000; stroke-linecap:round; stroke-linejoin:round; stroke-width:4; stroke-opacity:1; fill:none" points="1396.02,1423.18 1396.02,1404.28 "/>
<polyline clip-path="url(#clip690)" style="stroke:#000000; stroke-linecap:round; stroke-linejoin:round; stroke-width:4; stroke-opacity:1; fill:none" points="1540.66,1423.18 1540.66,1404.28 "/>
<path clip-path="url(#clip690)" d="M932.034 1468.75 L961.71 1468.75 L961.71 1472.69 L932.034 1472.69 L932.034 1468.75 Z" fill="#000000" fill-rule="nonzero" fill-opacity="1" /><path clip-path="url(#clip690)" d="M975.83 1481.64 L992.15 1481.64 L992.15 1485.58 L970.205 1485.58 L970.205 1481.64 Q972.867 1478.89 977.451 1474.26 Q982.057 1469.61 983.238 1468.27 Q985.483 1465.74 986.363 1464.01 Q987.266 1462.25 987.266 1460.56 Q987.266 1457.8 985.321 1456.07 Q983.4 1454.33 980.298 1454.33 Q978.099 1454.33 975.645 1455.09 Q973.215 1455.86 970.437 1457.41 L970.437 1452.69 Q973.261 1451.55 975.715 1450.97 Q978.168 1450.39 980.205 1450.39 Q985.576 1450.39 988.77 1453.08 Q991.965 1455.77 991.965 1460.26 Q991.965 1462.39 991.154 1464.31 Q990.367 1466.2 988.261 1468.8 Q987.682 1469.47 984.58 1472.69 Q981.479 1475.88 975.83 1481.64 Z" fill="#000000" fill-rule="nonzero" fill-opacity="1" /><path clip-path="url(#clip690)" d="M1076.49 1468.75 L1106.17 1468.75 L1106.17 1472.69 L1076.49 1472.69 L1076.49 1468.75 Z" fill="#000000" fill-rule="nonzero" fill-opacity="1" /><path clip-path="url(#clip690)" d="M1117.07 1481.64 L1124.71 1481.64 L1124.71 1455.28 L1116.4 1456.95 L1116.4 1452.69 L1124.66 1451.02 L1129.34 1451.02 L1129.34 1481.64 L1136.98 1481.64 L1136.98 1485.58 L1117.07 1485.58 L1117.07 1481.64 Z" fill="#000000" fill-rule="nonzero" fill-opacity="1" /><path clip-path="url(#clip690)" d="M1251.38 1454.1 Q1247.77 1454.1 1245.94 1457.66 Q1244.13 1461.2 1244.13 1468.33 Q1244.13 1475.44 1245.94 1479.01 Q1247.77 1482.55 1251.38 1482.55 Q1255.01 1482.55 1256.82 1479.01 Q1258.65 1475.44 1258.65 1468.33 Q1258.65 1461.2 1256.82 1457.66 Q1255.01 1454.1 1251.38 1454.1 M1251.38 1450.39 Q1257.19 1450.39 1260.24 1455 Q1263.32 1459.58 1263.32 1468.33 Q1263.32 1477.06 1260.24 1481.67 Q1257.19 1486.25 1251.38 1486.25 Q1245.57 1486.25 1242.49 1481.67 Q1239.43 1477.06 1239.43 1468.33 Q1239.43 1459.58 1242.49 1455 Q1245.57 1450.39 1251.38 1450.39 Z" fill="#000000" fill-rule="nonzero" fill-opacity="1" /><path clip-path="url(#clip690)" d="M1386.4 1481.64 L1394.04 1481.64 L1394.04 1455.28 L1385.73 1456.95 L1385.73 1452.69 L1394 1451.02 L1398.67 1451.02 L1398.67 1481.64 L1406.31 1481.64 L1406.31 1485.58 L1386.4 1485.58 L1386.4 1481.64 Z" fill="#000000" fill-rule="nonzero" fill-opacity="1" /><path clip-path="url(#clip690)" d="M1535.32 1481.64 L1551.64 1481.64 L1551.64 1485.58 L1529.69 1485.58 L1529.69 1481.64 Q1532.35 1478.89 1536.94 1474.26 Q1541.54 1469.61 1542.73 1468.27 Q1544.97 1465.74 1545.85 1464.01 Q1546.75 1462.25 1546.75 1460.56 Q1546.75 1457.8 1544.81 1456.07 Q1542.89 1454.33 1539.79 1454.33 Q1537.59 1454.33 1535.13 1455.09 Q1532.7 1455.86 1529.92 1457.41 L1529.92 1452.69 Q1532.75 1451.55 1535.2 1450.97 Q1537.66 1450.39 1539.69 1450.39 Q1545.06 1450.39 1548.26 1453.08 Q1551.45 1455.77 1551.45 1460.26 Q1551.45 1462.39 1550.64 1464.31 Q1549.85 1466.2 1547.75 1468.8 Q1547.17 1469.47 1544.07 1472.69 Q1540.97 1475.88 1535.32 1481.64 Z" fill="#000000" fill-rule="nonzero" fill-opacity="1" /><path clip-path="url(#clip690)" d="M1265.55 1528.8 Q1265.55 1530.61 1264.42 1531.64 Q1263.3 1532.64 1262.01 1532.64 Q1260.79 1532.64 1260.14 1531.93 Q1259.5 1531.22 1259.5 1530.32 Q1259.5 1529.09 1260.4 1528.03 Q1261.3 1526.97 1262.65 1526.74 Q1261.33 1525.91 1259.37 1525.91 Q1258.08 1525.91 1256.95 1526.58 Q1255.86 1527.26 1255.18 1528.13 Q1254.54 1529 1253.96 1530.25 Q1253.41 1531.48 1253.18 1532.22 Q1252.99 1532.93 1252.83 1533.7 L1250.58 1542.72 Q1249.48 1547 1249.48 1548.51 Q1249.48 1550.38 1250.38 1551.64 Q1251.28 1552.86 1253.09 1552.86 Q1253.8 1552.86 1254.6 1552.67 Q1255.41 1552.44 1256.44 1551.86 Q1257.5 1551.25 1258.43 1550.35 Q1259.4 1549.42 1260.33 1547.84 Q1261.27 1546.26 1261.88 1544.23 Q1262.07 1543.52 1262.72 1543.52 Q1263.52 1543.52 1263.52 1544.17 Q1263.52 1544.71 1263.07 1545.87 Q1262.65 1547 1261.72 1548.48 Q1260.82 1549.93 1259.63 1551.25 Q1258.43 1552.54 1256.66 1553.44 Q1254.89 1554.34 1252.96 1554.34 Q1250.19 1554.34 1248.35 1552.86 Q1246.52 1551.38 1245.84 1549.32 Q1245.68 1549.61 1245.46 1550 Q1245.23 1550.38 1244.55 1551.25 Q1243.91 1552.09 1243.17 1552.73 Q1242.43 1553.34 1241.27 1553.83 Q1240.14 1554.34 1238.92 1554.34 Q1237.37 1554.34 1235.99 1553.89 Q1234.63 1553.44 1233.67 1552.41 Q1232.7 1551.38 1232.7 1549.96 Q1232.7 1548.38 1233.76 1547.29 Q1234.86 1546.16 1236.34 1546.16 Q1237.28 1546.16 1238.02 1546.71 Q1238.79 1547.26 1238.79 1548.45 Q1238.79 1549.77 1237.89 1550.77 Q1236.99 1551.77 1235.7 1552.02 Q1237.02 1552.86 1238.98 1552.86 Q1241.11 1552.86 1242.78 1550.99 Q1244.46 1549.13 1245.26 1546 Q1247.26 1538.5 1248.03 1535.15 Q1248.8 1531.77 1248.8 1530.32 Q1248.8 1528.96 1248.45 1528.03 Q1248.1 1527.1 1247.48 1526.68 Q1246.9 1526.23 1246.36 1526.07 Q1245.84 1525.91 1245.26 1525.91 Q1244.3 1525.91 1243.2 1526.29 Q1242.14 1526.68 1240.85 1527.58 Q1239.59 1528.45 1238.4 1530.25 Q1237.21 1532.06 1236.41 1534.54 Q1236.24 1535.28 1235.54 1535.28 Q1234.76 1535.24 1234.76 1534.6 Q1234.76 1534.05 1235.18 1532.93 Q1235.63 1531.77 1236.53 1530.32 Q1237.47 1528.87 1238.66 1527.58 Q1239.88 1526.26 1241.66 1525.36 Q1243.46 1524.46 1245.39 1524.46 Q1246.26 1524.46 1247.1 1524.65 Q1247.97 1524.81 1249 1525.29 Q1250.06 1525.78 1250.99 1526.84 Q1251.93 1527.9 1252.51 1529.45 Q1252.89 1528.71 1253.41 1528 Q1253.96 1527.29 1254.8 1526.42 Q1255.66 1525.52 1256.86 1525 Q1258.08 1524.46 1259.43 1524.46 Q1260.75 1524.46 1262.04 1524.81 Q1263.33 1525.13 1264.42 1526.19 Q1265.55 1527.23 1265.55 1528.8 Z" fill="#000000" fill-rule="nonzero" fill-opacity="1" /><polyline clip-path="url(#clip690)" style="stroke:#000000; stroke-linecap:round; stroke-linejoin:round; stroke-width:4; stroke-opacity:1; fill:none" points="962.092,1423.18 962.092,123.472 "/>
<polyline clip-path="url(#clip690)" style="stroke:#000000; stroke-linecap:round; stroke-linejoin:round; stroke-width:4; stroke-opacity:1; fill:none" points="962.092,1206.83 980.99,1206.83 "/>
<polyline clip-path="url(#clip690)" style="stroke:#000000; stroke-linecap:round; stroke-linejoin:round; stroke-width:4; stroke-opacity:1; fill:none" points="962.092,990.076 980.99,990.076 "/>
<polyline clip-path="url(#clip690)" style="stroke:#000000; stroke-linecap:round; stroke-linejoin:round; stroke-width:4; stroke-opacity:1; fill:none" points="962.092,773.326 980.99,773.326 "/>
<polyline clip-path="url(#clip690)" style="stroke:#000000; stroke-linecap:round; stroke-linejoin:round; stroke-width:4; stroke-opacity:1; fill:none" points="962.092,556.576 980.99,556.576 "/>
<polyline clip-path="url(#clip690)" style="stroke:#000000; stroke-linecap:round; stroke-linejoin:round; stroke-width:4; stroke-opacity:1; fill:none" points="962.092,339.826 980.99,339.826 "/>
<path clip-path="url(#clip690)" d="M788.986 1207.28 L818.662 1207.28 L818.662 1211.21 L788.986 1211.21 L788.986 1207.28 Z" fill="#000000" fill-rule="nonzero" fill-opacity="1" /><path clip-path="url(#clip690)" d="M838.755 1192.62 Q835.143 1192.62 833.315 1196.19 Q831.509 1199.73 831.509 1206.86 Q831.509 1213.97 833.315 1217.53 Q835.143 1221.07 838.755 1221.07 Q842.389 1221.07 844.194 1217.53 Q846.023 1213.97 846.023 1206.86 Q846.023 1199.73 844.194 1196.19 Q842.389 1192.62 838.755 1192.62 M838.755 1188.92 Q844.565 1188.92 847.62 1193.53 Q850.699 1198.11 850.699 1206.86 Q850.699 1215.59 847.62 1220.19 Q844.565 1224.78 838.755 1224.78 Q832.944 1224.78 829.866 1220.19 Q826.81 1215.59 826.81 1206.86 Q826.81 1198.11 829.866 1193.53 Q832.944 1188.92 838.755 1188.92 Z" fill="#000000" fill-rule="nonzero" fill-opacity="1" /><path clip-path="url(#clip690)" d="M858.916 1218.23 L863.801 1218.23 L863.801 1224.11 L858.916 1224.11 L858.916 1218.23 Z" fill="#000000" fill-rule="nonzero" fill-opacity="1" /><path clip-path="url(#clip690)" d="M874.796 1220.17 L882.435 1220.17 L882.435 1193.81 L874.125 1195.47 L874.125 1191.21 L882.389 1189.55 L887.064 1189.55 L887.064 1220.17 L894.703 1220.17 L894.703 1224.11 L874.796 1224.11 L874.796 1220.17 Z" fill="#000000" fill-rule="nonzero" fill-opacity="1" /><path clip-path="url(#clip690)" d="M914.148 1192.62 Q910.537 1192.62 908.708 1196.19 Q906.902 1199.73 906.902 1206.86 Q906.902 1213.97 908.708 1217.53 Q910.537 1221.07 914.148 1221.07 Q917.782 1221.07 919.587 1217.53 Q921.416 1213.97 921.416 1206.86 Q921.416 1199.73 919.587 1196.19 Q917.782 1192.62 914.148 1192.62 M914.148 1188.92 Q919.958 1188.92 923.013 1193.53 Q926.092 1198.11 926.092 1206.86 Q926.092 1215.59 923.013 1220.19 Q919.958 1224.78 914.148 1224.78 Q908.337 1224.78 905.259 1220.19 Q902.203 1215.59 902.203 1206.86 Q902.203 1198.11 905.259 1193.53 Q908.337 1188.92 914.148 1188.92 Z" fill="#000000" fill-rule="nonzero" fill-opacity="1" /><path clip-path="url(#clip690)" d="M789.982 990.527 L819.657 990.527 L819.657 994.463 L789.982 994.463 L789.982 990.527 Z" fill="#000000" fill-rule="nonzero" fill-opacity="1" /><path clip-path="url(#clip690)" d="M839.75 975.875 Q836.139 975.875 834.31 979.44 Q832.505 982.981 832.505 990.111 Q832.505 997.217 834.31 1000.78 Q836.139 1004.32 839.75 1004.32 Q843.384 1004.32 845.19 1000.78 Q847.018 997.217 847.018 990.111 Q847.018 982.981 845.19 979.44 Q843.384 975.875 839.75 975.875 M839.75 972.171 Q845.56 972.171 848.616 976.778 Q851.694 981.361 851.694 990.111 Q851.694 998.838 848.616 1003.44 Q845.56 1008.03 839.75 1008.03 Q833.94 1008.03 830.861 1003.44 Q827.806 998.838 827.806 990.111 Q827.806 981.361 830.861 976.778 Q833.94 972.171 839.75 972.171 Z" fill="#000000" fill-rule="nonzero" fill-opacity="1" /><path clip-path="url(#clip690)" d="M859.912 1001.48 L864.796 1001.48 L864.796 1007.36 L859.912 1007.36 L859.912 1001.48 Z" fill="#000000" fill-rule="nonzero" fill-opacity="1" /><path clip-path="url(#clip690)" d="M884.981 975.875 Q881.37 975.875 879.541 979.44 Q877.736 982.981 877.736 990.111 Q877.736 997.217 879.541 1000.78 Q881.37 1004.32 884.981 1004.32 Q888.615 1004.32 890.421 1000.78 Q892.25 997.217 892.25 990.111 Q892.25 982.981 890.421 979.44 Q888.615 975.875 884.981 975.875 M884.981 972.171 Q890.791 972.171 893.847 976.778 Q896.926 981.361 896.926 990.111 Q896.926 998.838 893.847 1003.44 Q890.791 1008.03 884.981 1008.03 Q879.171 1008.03 876.092 1003.44 Q873.037 998.838 873.037 990.111 Q873.037 981.361 876.092 976.778 Q879.171 972.171 884.981 972.171 Z" fill="#000000" fill-rule="nonzero" fill-opacity="1" /><path clip-path="url(#clip690)" d="M905.189 972.796 L923.546 972.796 L923.546 976.731 L909.472 976.731 L909.472 985.203 Q910.49 984.856 911.509 984.694 Q912.527 984.509 913.546 984.509 Q919.333 984.509 922.712 987.68 Q926.092 990.852 926.092 996.268 Q926.092 1001.85 922.62 1004.95 Q919.148 1008.03 912.828 1008.03 Q910.652 1008.03 908.384 1007.66 Q906.138 1007.29 903.731 1006.55 L903.731 1001.85 Q905.814 1002.98 908.037 1003.54 Q910.259 1004.09 912.736 1004.09 Q916.74 1004.09 919.078 1001.99 Q921.416 999.879 921.416 996.268 Q921.416 992.657 919.078 990.551 Q916.74 988.444 912.736 988.444 Q910.861 988.444 908.986 988.861 Q907.134 989.277 905.189 990.157 L905.189 972.796 Z" fill="#000000" fill-rule="nonzero" fill-opacity="1" /><path clip-path="url(#clip690)" d="M838.755 759.125 Q835.143 759.125 833.315 762.69 Q831.509 766.231 831.509 773.361 Q831.509 780.467 833.315 784.032 Q835.143 787.574 838.755 787.574 Q842.389 787.574 844.194 784.032 Q846.023 780.467 846.023 773.361 Q846.023 766.231 844.194 762.69 Q842.389 759.125 838.755 759.125 M838.755 755.421 Q844.565 755.421 847.62 760.027 Q850.699 764.611 850.699 773.361 Q850.699 782.088 847.62 786.694 Q844.565 791.277 838.755 791.277 Q832.944 791.277 829.866 786.694 Q826.81 782.088 826.81 773.361 Q826.81 764.611 829.866 760.027 Q832.944 755.421 838.755 755.421 Z" fill="#000000" fill-rule="nonzero" fill-opacity="1" /><path clip-path="url(#clip690)" d="M858.916 784.726 L863.801 784.726 L863.801 790.606 L858.916 790.606 L858.916 784.726 Z" fill="#000000" fill-rule="nonzero" fill-opacity="1" /><path clip-path="url(#clip690)" d="M883.986 759.125 Q880.375 759.125 878.546 762.69 Q876.74 766.231 876.74 773.361 Q876.74 780.467 878.546 784.032 Q880.375 787.574 883.986 787.574 Q887.62 787.574 889.426 784.032 Q891.254 780.467 891.254 773.361 Q891.254 766.231 889.426 762.69 Q887.62 759.125 883.986 759.125 M883.986 755.421 Q889.796 755.421 892.851 760.027 Q895.93 764.611 895.93 773.361 Q895.93 782.088 892.851 786.694 Q889.796 791.277 883.986 791.277 Q878.176 791.277 875.097 786.694 Q872.041 782.088 872.041 773.361 Q872.041 764.611 875.097 760.027 Q878.176 755.421 883.986 755.421 Z" fill="#000000" fill-rule="nonzero" fill-opacity="1" /><path clip-path="url(#clip690)" d="M914.148 759.125 Q910.537 759.125 908.708 762.69 Q906.902 766.231 906.902 773.361 Q906.902 780.467 908.708 784.032 Q910.537 787.574 914.148 787.574 Q917.782 787.574 919.587 784.032 Q921.416 780.467 921.416 773.361 Q921.416 766.231 919.587 762.69 Q917.782 759.125 914.148 759.125 M914.148 755.421 Q919.958 755.421 923.013 760.027 Q926.092 764.611 926.092 773.361 Q926.092 782.088 923.013 786.694 Q919.958 791.277 914.148 791.277 Q908.337 791.277 905.259 786.694 Q902.203 782.088 902.203 773.361 Q902.203 764.611 905.259 760.027 Q908.337 755.421 914.148 755.421 Z" fill="#000000" fill-rule="nonzero" fill-opacity="1" /><path clip-path="url(#clip690)" d="M839.75 542.375 Q836.139 542.375 834.31 545.939 Q832.505 549.481 832.505 556.611 Q832.505 563.717 834.31 567.282 Q836.139 570.824 839.75 570.824 Q843.384 570.824 845.19 567.282 Q847.018 563.717 847.018 556.611 Q847.018 549.481 845.19 545.939 Q843.384 542.375 839.75 542.375 M839.75 538.671 Q845.56 538.671 848.616 543.277 Q851.694 547.861 851.694 556.611 Q851.694 565.337 848.616 569.944 Q845.56 574.527 839.75 574.527 Q833.94 574.527 830.861 569.944 Q827.806 565.337 827.806 556.611 Q827.806 547.861 830.861 543.277 Q833.94 538.671 839.75 538.671 Z" fill="#000000" fill-rule="nonzero" fill-opacity="1" /><path clip-path="url(#clip690)" d="M859.912 567.976 L864.796 567.976 L864.796 573.856 L859.912 573.856 L859.912 567.976 Z" fill="#000000" fill-rule="nonzero" fill-opacity="1" /><path clip-path="url(#clip690)" d="M884.981 542.375 Q881.37 542.375 879.541 545.939 Q877.736 549.481 877.736 556.611 Q877.736 563.717 879.541 567.282 Q881.37 570.824 884.981 570.824 Q888.615 570.824 890.421 567.282 Q892.25 563.717 892.25 556.611 Q892.25 549.481 890.421 545.939 Q888.615 542.375 884.981 542.375 M884.981 538.671 Q890.791 538.671 893.847 543.277 Q896.926 547.861 896.926 556.611 Q896.926 565.337 893.847 569.944 Q890.791 574.527 884.981 574.527 Q879.171 574.527 876.092 569.944 Q873.037 565.337 873.037 556.611 Q873.037 547.861 876.092 543.277 Q879.171 538.671 884.981 538.671 Z" fill="#000000" fill-rule="nonzero" fill-opacity="1" /><path clip-path="url(#clip690)" d="M905.189 539.296 L923.546 539.296 L923.546 543.231 L909.472 543.231 L909.472 551.703 Q910.49 551.356 911.509 551.194 Q912.527 551.009 913.546 551.009 Q919.333 551.009 922.712 554.18 Q926.092 557.351 926.092 562.768 Q926.092 568.347 922.62 571.449 Q919.148 574.527 912.828 574.527 Q910.652 574.527 908.384 574.157 Q906.138 573.787 903.731 573.046 L903.731 568.347 Q905.814 569.481 908.037 570.037 Q910.259 570.592 912.736 570.592 Q916.74 570.592 919.078 568.486 Q921.416 566.379 921.416 562.768 Q921.416 559.157 919.078 557.051 Q916.74 554.944 912.736 554.944 Q910.861 554.944 908.986 555.361 Q907.134 555.777 905.189 556.657 L905.189 539.296 Z" fill="#000000" fill-rule="nonzero" fill-opacity="1" /><path clip-path="url(#clip690)" d="M838.755 325.625 Q835.143 325.625 833.315 329.189 Q831.509 332.731 831.509 339.861 Q831.509 346.967 833.315 350.532 Q835.143 354.074 838.755 354.074 Q842.389 354.074 844.194 350.532 Q846.023 346.967 846.023 339.861 Q846.023 332.731 844.194 329.189 Q842.389 325.625 838.755 325.625 M838.755 321.921 Q844.565 321.921 847.62 326.527 Q850.699 331.111 850.699 339.861 Q850.699 348.587 847.62 353.194 Q844.565 357.777 838.755 357.777 Q832.944 357.777 829.866 353.194 Q826.81 348.587 826.81 339.861 Q826.81 331.111 829.866 326.527 Q832.944 321.921 838.755 321.921 Z" fill="#000000" fill-rule="nonzero" fill-opacity="1" /><path clip-path="url(#clip690)" d="M858.916 351.226 L863.801 351.226 L863.801 357.106 L858.916 357.106 L858.916 351.226 Z" fill="#000000" fill-rule="nonzero" fill-opacity="1" /><path clip-path="url(#clip690)" d="M874.796 353.171 L882.435 353.171 L882.435 326.805 L874.125 328.472 L874.125 324.213 L882.389 322.546 L887.064 322.546 L887.064 353.171 L894.703 353.171 L894.703 357.106 L874.796 357.106 L874.796 353.171 Z" fill="#000000" fill-rule="nonzero" fill-opacity="1" /><path clip-path="url(#clip690)" d="M914.148 325.625 Q910.537 325.625 908.708 329.189 Q906.902 332.731 906.902 339.861 Q906.902 346.967 908.708 350.532 Q910.537 354.074 914.148 354.074 Q917.782 354.074 919.587 350.532 Q921.416 346.967 921.416 339.861 Q921.416 332.731 919.587 329.189 Q917.782 325.625 914.148 325.625 M914.148 321.921 Q919.958 321.921 923.013 326.527 Q926.092 331.111 926.092 339.861 Q926.092 348.587 923.013 353.194 Q919.958 357.777 914.148 357.777 Q908.337 357.777 905.259 353.194 Q902.203 348.587 902.203 339.861 Q902.203 331.111 905.259 326.527 Q908.337 321.921 914.148 321.921 Z" fill="#000000" fill-rule="nonzero" fill-opacity="1" /><path clip-path="url(#clip690)" d="M1205.5 27.2059 L1213.4 27.2059 L1227.58 65.2844 L1241.76 27.2059 L1249.66 27.2059 L1232.64 72.576 L1222.52 72.576 L1205.5 27.2059 Z" fill="#000000" fill-rule="nonzero" fill-opacity="1" /><path clip-path="url(#clip690)" d="M1262.42 65.6895 L1275.79 65.6895 L1275.79 19.5497 L1261.24 22.4663 L1261.24 15.0127 L1275.7 12.096 L1283.89 12.096 L1283.89 65.6895 L1297.25 65.6895 L1297.25 72.576 L1262.42 72.576 L1262.42 65.6895 Z" fill="#000000" fill-rule="nonzero" fill-opacity="1" /><polyline clip-path="url(#clip693)" style="stroke:#009af9; stroke-linecap:round; stroke-linejoin:round; stroke-width:4; stroke-opacity:1; fill:none" points="962.092,772.968 963.383,765.754 964.675,759.311 965.966,753.314 967.258,747.435 968.549,741.352 969.841,734.737 971.132,727.266 971.132,737.069 972.424,723.392 973.715,713.366 975.007,709.669 976.298,714.979 977.59,731.974 978.881,763.332 980.172,811.732 980.172,786.429 981.464,903.942 982.755,1018.7 984.047,1125.48 985.338,1219.05 986.63,1294.18 987.921,1345.64 989.213,1368.21 989.213,1372.99 990.504,1381.66 991.796,1385.73 993.087,1386.4 994.378,1384.88 995.67,1382.37 996.961,1380.08 998.253,1379.21 998.253,1379.28 999.544,1380.21 1000.84,1380.91 1002.13,1381.41 1003.42,1381.72 1004.71,1381.86 1006,1381.85 1007.29,1381.71 1007.29,1381.68 1008.58,1381.5 1009.88,1380.98 1011.17,1380.15 1012.46,1379.03 1013.75,1377.64 1015.04,1376 1016.33,1374.14 1016.33,1374.2 1017.62,1372.05 1018.92,1369.8 1020.21,1367.49 1021.5,1365.15 1022.79,1362.8 1024.08,1360.47 1025.37,1358.19 1025.37,1358.11 1026.66,1355.81 1027.96,1353.41 1029.25,1350.94 1030.54,1348.42 1031.83,1345.9 1033.12,1343.38 1034.41,1340.91 1034.41,1340.92 1035.71,1338.55 1037,1336.22 1038.29,1333.88 1039.58,1331.47 1040.87,1328.97 1042.16,1326.32 1043.45,1323.49 1043.45,1323.67 1044.75,1320.79 1046.04,1317.99 1047.33,1315.3 1048.62,1312.72 1049.91,1310.28 1051.2,1307.99 1052.49,1305.86 1052.49,1305.58 1053.79,1303.44 1055.08,1301.12 1056.37,1298.64 1057.66,1296 1058.95,1293.19 1060.24,1290.22 1061.53,1287.08 1061.53,1287.34 1062.83,1284.15 1064.12,1281.04 1065.41,1278.03 1066.7,1275.1 1067.99,1272.28 1069.28,1269.54 1070.57,1266.91 1070.57,1266.75 1071.87,1264.15 1073.16,1261.54 1074.45,1258.89 1075.74,1256.17 1077.03,1253.38 1078.32,1250.48 1079.61,1247.45 1079.61,1247.51 1080.91,1244.5 1082.2,1241.37 1083.49,1238.15 1084.78,1234.89 1086.07,1231.62 1087.36,1228.39 1088.65,1225.24 1088.65,1225.26 1089.95,1221.92 1091.24,1218.74 1092.53,1215.68 1093.82,1212.7 1095.11,1209.76 1096.4,1206.82 1097.7,1203.84 1097.7,1203.79 1098.99,1201.04 1100.28,1198.16 1101.57,1195.18 1102.86,1192.09 1104.15,1188.94 1105.44,1185.72 1106.74,1182.47 1106.74,1182.46 1108.03,1179.02 1109.32,1175.5 1110.61,1171.93 1111.9,1168.31 1113.19,1164.67 1114.48,1161.03 1115.78,1157.39 1115.78,1157.48 1117.07,1153.82 1118.36,1150.33 1119.65,1146.99 1120.94,1143.78 1122.23,1140.65 1123.52,1137.6 1124.82,1134.6 1124.82,1134.54 1126.11,1131.72 1127.4,1128.83 1128.69,1125.88 1129.98,1122.86 1131.27,1119.77 1132.56,1116.6 1133.86,1113.36 1133.86,1113.31 1135.15,1109.93 1136.44,1106.39 1137.73,1102.69 1139.02,1098.86 1140.31,1094.92 1141.6,1090.89 1142.9,1086.78 1142.9,1086.86 1144.19,1082.6 1145.48,1078.44 1146.77,1074.38 1148.06,1070.44 1149.35,1066.62 1150.64,1062.93 1151.94,1059.4 1151.94,1059.42 1153.23,1056.08 1154.52,1052.89 1155.81,1049.83 1157.1,1046.85 1158.39,1043.92 1159.69,1040.99 1160.98,1038.02 1160.98,1037.96 1162.27,1035.08 1163.56,1032.04 1164.85,1028.84 1166.14,1025.5 1167.43,1022.01 1168.73,1018.39 1170.02,1014.64 1170.02,1014.58 1171.31,1010.54 1172.6,1006.31 1173.89,1001.95 1175.18,997.475 1176.47,992.931 1177.77,988.352 1179.06,983.773 1179.06,983.936 1180.35,979.406 1181.64,975.126 1182.93,971.08 1184.22,967.256 1185.51,963.64 1186.81,960.216 1188.1,956.972 1188.1,956.909 1189.39,953.885 1190.68,950.943 1191.97,948.053 1193.26,945.184 1194.55,942.306 1195.85,939.389 1197.14,936.403 1197.14,936.328 1198.43,933.291 1199.72,930.004 1201.01,926.475 1202.3,922.71 1203.59,918.717 1204.89,914.505 1206.18,910.08 1206.18,910.087 1207.47,905.388 1208.76,900.573 1210.05,895.699 1211.34,890.818 1212.63,885.986 1213.93,881.257 1215.22,876.685 1215.22,876.842 1216.51,872.415 1217.8,868.368 1219.09,864.649 1220.38,861.209 1221.67,857.996 1222.97,854.961 1224.26,852.051 1224.26,851.934 1225.55,849.293 1226.84,846.601 1228.13,843.843 1229.42,841.004 1230.72,838.067 1232.01,835.017 1233.3,831.838 1233.3,831.745 1234.59,828.31 1235.88,824.517 1237.17,820.405 1238.46,816.013 1239.76,811.381 1241.05,806.546 1242.34,801.55 1242.34,797.64 1243.63,790.77 1244.92,786.913 1246.21,785.012 1247.5,784.009 1248.8,782.847 1250.09,780.471 1251.38,775.822 1251.38,770.83 1252.67,766.181 1253.96,763.805 1255.25,762.644 1256.54,761.641 1257.84,759.739 1259.13,755.882 1260.42,749.013 1260.42,745.103 1261.71,740.106 1263,735.272 1264.29,730.639 1265.58,726.247 1266.88,722.135 1268.17,718.342 1269.46,714.907 1269.46,714.814 1270.75,711.635 1272.04,708.586 1273.33,705.649 1274.62,702.809 1275.92,700.051 1277.21,697.359 1278.5,694.718 1278.5,694.601 1279.79,691.691 1281.08,688.656 1282.37,685.443 1283.66,682.003 1284.96,678.284 1286.25,674.237 1287.54,669.81 1287.54,669.968 1288.83,665.396 1290.12,660.666 1291.41,655.834 1292.71,650.954 1294,646.079 1295.29,641.265 1296.58,636.565 1296.58,636.572 1297.87,632.147 1299.16,627.935 1300.45,623.942 1301.75,620.178 1303.04,616.648 1304.33,613.361 1305.62,610.324 1305.62,610.249 1306.91,607.263 1308.2,604.346 1309.49,601.468 1310.79,598.599 1312.08,595.709 1313.37,592.767 1314.66,589.744 1314.66,589.68 1315.95,586.436 1317.24,583.012 1318.53,579.396 1319.83,575.572 1321.12,571.526 1322.41,567.246 1323.7,562.716 1323.7,562.879 1324.99,558.3 1326.28,553.721 1327.57,549.177 1328.87,544.704 1330.16,540.338 1331.45,536.115 1332.74,532.07 1332.74,532.01 1334.03,528.262 1335.32,524.642 1336.61,521.156 1337.91,517.812 1339.2,514.615 1340.49,511.573 1341.78,508.693 1341.78,508.628 1343.07,505.665 1344.36,502.735 1345.65,499.8 1346.95,496.821 1348.24,493.759 1349.53,490.575 1350.82,487.23 1350.82,487.256 1352.11,483.72 1353.4,480.036 1354.7,476.215 1355.99,472.27 1357.28,468.21 1358.57,464.047 1359.86,459.793 1359.86,459.872 1361.15,455.764 1362.44,451.73 1363.74,447.79 1365.03,443.962 1366.32,440.266 1367.61,436.72 1368.9,433.345 1368.9,433.293 1370.19,430.052 1371.48,426.886 1372.78,423.793 1374.07,420.772 1375.36,417.819 1376.65,414.933 1377.94,412.111 1377.94,412.05 1379.23,409.048 1380.52,405.998 1381.82,402.877 1383.11,399.659 1384.4,396.319 1385.69,392.832 1386.98,389.174 1386.98,389.258 1388.27,385.622 1389.56,381.977 1390.86,378.34 1392.15,374.726 1393.44,371.152 1394.73,367.636 1396.02,364.193 1396.02,364.182 1397.31,360.929 1398.6,357.715 1399.9,354.559 1401.19,351.477 1402.48,348.488 1403.77,345.609 1405.06,342.857 1405.06,342.814 1406.35,339.831 1407.64,336.89 1408.94,333.949 1410.23,330.97 1411.52,327.911 1412.81,324.733 1414.1,321.396 1414.1,321.411 1415.39,318.259 1416.69,315.03 1417.98,311.765 1419.27,308.504 1420.56,305.285 1421.85,302.15 1423.14,299.138 1423.14,299.205 1424.43,296.174 1425.73,293.273 1427.02,290.477 1428.31,287.765 1429.6,285.114 1430.89,282.501 1432.18,279.904 1432.18,279.738 1433.47,277.108 1434.77,274.377 1436.06,271.547 1437.35,268.623 1438.64,265.607 1439.93,262.502 1441.22,259.312 1441.22,259.568 1442.51,256.433 1443.81,253.46 1445.1,250.651 1446.39,248.007 1447.68,245.528 1448.97,243.216 1450.26,241.071 1450.26,240.787 1451.55,238.665 1452.85,236.373 1454.14,233.93 1455.43,231.352 1456.72,228.657 1458.01,225.863 1459.3,222.986 1459.3,223.166 1460.59,220.332 1461.89,217.684 1463.18,215.18 1464.47,212.776 1465.76,210.429 1467.05,208.097 1468.34,205.736 1468.34,205.745 1469.63,203.271 1470.93,200.756 1472.22,198.228 1473.51,195.715 1474.8,193.245 1476.09,190.845 1477.38,188.544 1477.38,188.458 1478.67,186.181 1479.97,183.854 1481.26,181.505 1482.55,179.162 1483.84,176.853 1485.13,174.605 1486.42,172.448 1486.42,172.51 1487.72,170.65 1489.01,169.013 1490.3,167.622 1491.59,166.5 1492.88,165.67 1494.17,165.154 1495.46,164.976 1495.46,164.94 1496.76,164.8 1498.05,164.791 1499.34,164.932 1500.63,165.241 1501.92,165.738 1503.21,166.441 1504.5,167.369 1504.5,167.438 1505.8,166.572 1507.09,164.284 1508.38,161.777 1509.67,160.256 1510.96,160.927 1512.25,164.992 1513.54,173.658 1513.54,178.444 1514.84,201.011 1516.13,252.473 1517.42,327.603 1518.71,421.172 1520,527.95 1521.29,642.71 1522.58,760.222 1522.58,734.92 1523.88,783.32 1525.17,814.678 1526.46,831.673 1527.75,836.983 1529.04,833.286 1530.33,823.26 1531.62,809.583 1531.62,819.387 1532.92,811.915 1534.21,805.3 1535.5,799.217 1536.79,793.339 1538.08,787.341 1539.37,780.898 1540.66,773.684 "/>
<path clip-path="url(#clip690)" d="M1774.18 1423.18 L2352.76 1423.18 L2352.76 123.472 L1774.18 123.472  Z" fill="#ffffff" fill-rule="evenodd" fill-opacity="1"/>
<defs>
  <clipPath id="clip694">
    <rect x="1774" y="123" width="580" height="1301"/>
  </clipPath>
</defs>
<polyline clip-path="url(#clip694)" style="stroke:#000000; stroke-linecap:round; stroke-linejoin:round; stroke-width:2; stroke-opacity:0.1; fill:none" points="1774.18,1423.18 1774.18,123.472 "/>
<polyline clip-path="url(#clip694)" style="stroke:#000000; stroke-linecap:round; stroke-linejoin:round; stroke-width:2; stroke-opacity:0.1; fill:none" points="1918.83,1423.18 1918.83,123.472 "/>
<polyline clip-path="url(#clip694)" style="stroke:#000000; stroke-linecap:round; stroke-linejoin:round; stroke-width:2; stroke-opacity:0.1; fill:none" points="2063.47,1423.18 2063.47,123.472 "/>
<polyline clip-path="url(#clip694)" style="stroke:#000000; stroke-linecap:round; stroke-linejoin:round; stroke-width:2; stroke-opacity:0.1; fill:none" points="2208.11,1423.18 2208.11,123.472 "/>
<polyline clip-path="url(#clip694)" style="stroke:#000000; stroke-linecap:round; stroke-linejoin:round; stroke-width:2; stroke-opacity:0.1; fill:none" points="2352.76,1423.18 2352.76,123.472 "/>
<polyline clip-path="url(#clip694)" style="stroke:#000000; stroke-linecap:round; stroke-linejoin:round; stroke-width:2; stroke-opacity:0.1; fill:none" points="1774.18,1332.32 2352.76,1332.32 "/>
<polyline clip-path="url(#clip694)" style="stroke:#000000; stroke-linecap:round; stroke-linejoin:round; stroke-width:2; stroke-opacity:0.1; fill:none" points="1774.18,1069.49 2352.76,1069.49 "/>
<polyline clip-path="url(#clip694)" style="stroke:#000000; stroke-linecap:round; stroke-linejoin:round; stroke-width:2; stroke-opacity:0.1; fill:none" points="1774.18,806.666 2352.76,806.666 "/>
<polyline clip-path="url(#clip694)" style="stroke:#000000; stroke-linecap:round; stroke-linejoin:round; stroke-width:2; stroke-opacity:0.1; fill:none" points="1774.18,543.841 2352.76,543.841 "/>
<polyline clip-path="url(#clip694)" style="stroke:#000000; stroke-linecap:round; stroke-linejoin:round; stroke-width:2; stroke-opacity:0.1; fill:none" points="1774.18,281.016 2352.76,281.016 "/>
<polyline clip-path="url(#clip690)" style="stroke:#000000; stroke-linecap:round; stroke-linejoin:round; stroke-width:4; stroke-opacity:1; fill:none" points="1774.18,1423.18 2352.76,1423.18 "/>
<polyline clip-path="url(#clip690)" style="stroke:#000000; stroke-linecap:round; stroke-linejoin:round; stroke-width:4; stroke-opacity:1; fill:none" points="1774.18,1423.18 1774.18,1404.28 "/>
<polyline clip-path="url(#clip690)" style="stroke:#000000; stroke-linecap:round; stroke-linejoin:round; stroke-width:4; stroke-opacity:1; fill:none" points="1918.83,1423.18 1918.83,1404.28 "/>
<polyline clip-path="url(#clip690)" style="stroke:#000000; stroke-linecap:round; stroke-linejoin:round; stroke-width:4; stroke-opacity:1; fill:none" points="2063.47,1423.18 2063.47,1404.28 "/>
<polyline clip-path="url(#clip690)" style="stroke:#000000; stroke-linecap:round; stroke-linejoin:round; stroke-width:4; stroke-opacity:1; fill:none" points="2208.11,1423.18 2208.11,1404.28 "/>
<polyline clip-path="url(#clip690)" style="stroke:#000000; stroke-linecap:round; stroke-linejoin:round; stroke-width:4; stroke-opacity:1; fill:none" points="2352.76,1423.18 2352.76,1404.28 "/>
<path clip-path="url(#clip690)" d="M1744.13 1468.75 L1773.8 1468.75 L1773.8 1472.69 L1744.13 1472.69 L1744.13 1468.75 Z" fill="#000000" fill-rule="nonzero" fill-opacity="1" /><path clip-path="url(#clip690)" d="M1787.92 1481.64 L1804.24 1481.64 L1804.24 1485.58 L1782.3 1485.58 L1782.3 1481.64 Q1784.96 1478.89 1789.54 1474.26 Q1794.15 1469.61 1795.33 1468.27 Q1797.57 1465.74 1798.45 1464.01 Q1799.36 1462.25 1799.36 1460.56 Q1799.36 1457.8 1797.41 1456.07 Q1795.49 1454.33 1792.39 1454.33 Q1790.19 1454.33 1787.74 1455.09 Q1785.31 1455.86 1782.53 1457.41 L1782.53 1452.69 Q1785.35 1451.55 1787.81 1450.97 Q1790.26 1450.39 1792.3 1450.39 Q1797.67 1450.39 1800.86 1453.08 Q1804.06 1455.77 1804.06 1460.26 Q1804.06 1462.39 1803.25 1464.31 Q1802.46 1466.2 1800.35 1468.8 Q1799.77 1469.47 1796.67 1472.69 Q1793.57 1475.88 1787.92 1481.64 Z" fill="#000000" fill-rule="nonzero" fill-opacity="1" /><path clip-path="url(#clip690)" d="M1888.58 1468.75 L1918.26 1468.75 L1918.26 1472.69 L1888.58 1472.69 L1888.58 1468.75 Z" fill="#000000" fill-rule="nonzero" fill-opacity="1" /><path clip-path="url(#clip690)" d="M1929.16 1481.64 L1936.8 1481.64 L1936.8 1455.28 L1928.49 1456.95 L1928.49 1452.69 L1936.75 1451.02 L1941.43 1451.02 L1941.43 1481.64 L1949.07 1481.64 L1949.07 1485.58 L1929.16 1485.58 L1929.16 1481.64 Z" fill="#000000" fill-rule="nonzero" fill-opacity="1" /><path clip-path="url(#clip690)" d="M2063.47 1454.1 Q2059.86 1454.1 2058.03 1457.66 Q2056.22 1461.2 2056.22 1468.33 Q2056.22 1475.44 2058.03 1479.01 Q2059.86 1482.55 2063.47 1482.55 Q2067.1 1482.55 2068.91 1479.01 Q2070.74 1475.44 2070.74 1468.33 Q2070.74 1461.2 2068.91 1457.66 Q2067.1 1454.1 2063.47 1454.1 M2063.47 1450.39 Q2069.28 1450.39 2072.34 1455 Q2075.41 1459.58 2075.41 1468.33 Q2075.41 1477.06 2072.34 1481.67 Q2069.28 1486.25 2063.47 1486.25 Q2057.66 1486.25 2054.58 1481.67 Q2051.53 1477.06 2051.53 1468.33 Q2051.53 1459.58 2054.58 1455 Q2057.66 1450.39 2063.47 1450.39 Z" fill="#000000" fill-rule="nonzero" fill-opacity="1" /><path clip-path="url(#clip690)" d="M2198.49 1481.64 L2206.13 1481.64 L2206.13 1455.28 L2197.82 1456.95 L2197.82 1452.69 L2206.09 1451.02 L2210.76 1451.02 L2210.76 1481.64 L2218.4 1481.64 L2218.4 1485.58 L2198.49 1485.58 L2198.49 1481.64 Z" fill="#000000" fill-rule="nonzero" fill-opacity="1" /><path clip-path="url(#clip690)" d="M2347.41 1481.64 L2363.73 1481.64 L2363.73 1485.58 L2341.78 1485.58 L2341.78 1481.64 Q2344.45 1478.89 2349.03 1474.26 Q2353.64 1469.61 2354.82 1468.27 Q2357.06 1465.74 2357.94 1464.01 Q2358.84 1462.25 2358.84 1460.56 Q2358.84 1457.8 2356.9 1456.07 Q2354.98 1454.33 2351.88 1454.33 Q2349.68 1454.33 2347.22 1455.09 Q2344.79 1455.86 2342.02 1457.41 L2342.02 1452.69 Q2344.84 1451.55 2347.29 1450.97 Q2349.75 1450.39 2351.78 1450.39 Q2357.15 1450.39 2360.35 1453.08 Q2363.54 1455.77 2363.54 1460.26 Q2363.54 1462.39 2362.73 1464.31 Q2361.95 1466.2 2359.84 1468.8 Q2359.26 1469.47 2356.16 1472.69 Q2353.06 1475.88 2347.41 1481.64 Z" fill="#000000" fill-rule="nonzero" fill-opacity="1" /><path clip-path="url(#clip690)" d="M2077.64 1528.8 Q2077.64 1530.61 2076.52 1531.64 Q2075.39 1532.64 2074.1 1532.64 Q2072.88 1532.64 2072.23 1531.93 Q2071.59 1531.22 2071.59 1530.32 Q2071.59 1529.09 2072.49 1528.03 Q2073.39 1526.97 2074.74 1526.74 Q2073.42 1525.91 2071.46 1525.91 Q2070.17 1525.91 2069.04 1526.58 Q2067.95 1527.26 2067.27 1528.13 Q2066.63 1529 2066.05 1530.25 Q2065.5 1531.48 2065.28 1532.22 Q2065.08 1532.93 2064.92 1533.7 L2062.67 1542.72 Q2061.57 1547 2061.57 1548.51 Q2061.57 1550.38 2062.47 1551.64 Q2063.38 1552.86 2065.18 1552.86 Q2065.89 1552.86 2066.69 1552.67 Q2067.5 1552.44 2068.53 1551.86 Q2069.59 1551.25 2070.53 1550.35 Q2071.49 1549.42 2072.43 1547.84 Q2073.36 1546.26 2073.97 1544.23 Q2074.16 1543.52 2074.81 1543.52 Q2075.61 1543.52 2075.61 1544.17 Q2075.61 1544.71 2075.16 1545.87 Q2074.74 1547 2073.81 1548.48 Q2072.91 1549.93 2071.72 1551.25 Q2070.53 1552.54 2068.75 1553.44 Q2066.98 1554.34 2065.05 1554.34 Q2062.28 1554.34 2060.44 1552.86 Q2058.61 1551.38 2057.93 1549.32 Q2057.77 1549.61 2057.55 1550 Q2057.32 1550.38 2056.64 1551.25 Q2056 1552.09 2055.26 1552.73 Q2054.52 1553.34 2053.36 1553.83 Q2052.23 1554.34 2051.01 1554.34 Q2049.46 1554.34 2048.08 1553.89 Q2046.73 1553.44 2045.76 1552.41 Q2044.79 1551.38 2044.79 1549.96 Q2044.79 1548.38 2045.86 1547.29 Q2046.95 1546.16 2048.43 1546.16 Q2049.37 1546.16 2050.11 1546.71 Q2050.88 1547.26 2050.88 1548.45 Q2050.88 1549.77 2049.98 1550.77 Q2049.08 1551.77 2047.79 1552.02 Q2049.11 1552.86 2051.07 1552.86 Q2053.2 1552.86 2054.87 1550.99 Q2056.55 1549.13 2057.35 1546 Q2059.35 1538.5 2060.12 1535.15 Q2060.9 1531.77 2060.9 1530.32 Q2060.9 1528.96 2060.54 1528.03 Q2060.19 1527.1 2059.58 1526.68 Q2059 1526.23 2058.45 1526.07 Q2057.93 1525.91 2057.35 1525.91 Q2056.39 1525.91 2055.29 1526.29 Q2054.23 1526.68 2052.94 1527.58 Q2051.68 1528.45 2050.49 1530.25 Q2049.3 1532.06 2048.5 1534.54 Q2048.34 1535.28 2047.63 1535.28 Q2046.85 1535.24 2046.85 1534.6 Q2046.85 1534.05 2047.27 1532.93 Q2047.72 1531.77 2048.63 1530.32 Q2049.56 1528.87 2050.75 1527.58 Q2051.97 1526.26 2053.75 1525.36 Q2055.55 1524.46 2057.48 1524.46 Q2058.35 1524.46 2059.19 1524.65 Q2060.06 1524.81 2061.09 1525.29 Q2062.15 1525.78 2063.09 1526.84 Q2064.02 1527.9 2064.6 1529.45 Q2064.99 1528.71 2065.5 1528 Q2066.05 1527.29 2066.89 1526.42 Q2067.76 1525.52 2068.95 1525 Q2070.17 1524.46 2071.52 1524.46 Q2072.84 1524.46 2074.13 1524.81 Q2075.42 1525.13 2076.52 1526.19 Q2077.64 1527.23 2077.64 1528.8 Z" fill="#000000" fill-rule="nonzero" fill-opacity="1" /><polyline clip-path="url(#clip690)" style="stroke:#000000; stroke-linecap:round; stroke-linejoin:round; stroke-width:4; stroke-opacity:1; fill:none" points="1774.18,1423.18 1774.18,123.472 "/>
<polyline clip-path="url(#clip690)" style="stroke:#000000; stroke-linecap:round; stroke-linejoin:round; stroke-width:4; stroke-opacity:1; fill:none" points="1774.18,1332.32 1793.08,1332.32 "/>
<polyline clip-path="url(#clip690)" style="stroke:#000000; stroke-linecap:round; stroke-linejoin:round; stroke-width:4; stroke-opacity:1; fill:none" points="1774.18,1069.49 1793.08,1069.49 "/>
<polyline clip-path="url(#clip690)" style="stroke:#000000; stroke-linecap:round; stroke-linejoin:round; stroke-width:4; stroke-opacity:1; fill:none" points="1774.18,806.666 1793.08,806.666 "/>
<polyline clip-path="url(#clip690)" style="stroke:#000000; stroke-linecap:round; stroke-linejoin:round; stroke-width:4; stroke-opacity:1; fill:none" points="1774.18,543.841 1793.08,543.841 "/>
<polyline clip-path="url(#clip690)" style="stroke:#000000; stroke-linecap:round; stroke-linejoin:round; stroke-width:4; stroke-opacity:1; fill:none" points="1774.18,281.016 1793.08,281.016 "/>
<path clip-path="url(#clip690)" d="M1650.85 1318.11 Q1647.23 1318.11 1645.41 1321.68 Q1643.6 1325.22 1643.6 1332.35 Q1643.6 1339.46 1645.41 1343.02 Q1647.23 1346.56 1650.85 1346.56 Q1654.48 1346.56 1656.29 1343.02 Q1658.11 1339.46 1658.11 1332.35 Q1658.11 1325.22 1656.29 1321.68 Q1654.48 1318.11 1650.85 1318.11 M1650.85 1314.41 Q1656.66 1314.41 1659.71 1319.02 Q1662.79 1323.6 1662.79 1332.35 Q1662.79 1341.08 1659.71 1345.68 Q1656.66 1350.27 1650.85 1350.27 Q1645.04 1350.27 1641.96 1345.68 Q1638.9 1341.08 1638.9 1332.35 Q1638.9 1323.6 1641.96 1319.02 Q1645.04 1314.41 1650.85 1314.41 Z" fill="#000000" fill-rule="nonzero" fill-opacity="1" /><path clip-path="url(#clip690)" d="M1671.01 1343.72 L1675.89 1343.72 L1675.89 1349.6 L1671.01 1349.6 L1671.01 1343.72 Z" fill="#000000" fill-rule="nonzero" fill-opacity="1" /><path clip-path="url(#clip690)" d="M1700.24 1330.96 Q1703.6 1331.68 1705.47 1333.95 Q1707.37 1336.22 1707.37 1339.55 Q1707.37 1344.67 1703.85 1347.47 Q1700.34 1350.27 1693.85 1350.27 Q1691.68 1350.27 1689.36 1349.83 Q1687.07 1349.41 1684.62 1348.55 L1684.62 1344.04 Q1686.56 1345.17 1688.88 1345.75 Q1691.19 1346.33 1693.72 1346.33 Q1698.11 1346.33 1700.41 1344.6 Q1702.72 1342.86 1702.72 1339.55 Q1702.72 1336.49 1700.57 1334.78 Q1698.44 1333.04 1694.62 1333.04 L1690.59 1333.04 L1690.59 1329.2 L1694.8 1329.2 Q1698.25 1329.2 1700.08 1327.84 Q1701.91 1326.45 1701.91 1323.86 Q1701.91 1321.19 1700.01 1319.78 Q1698.14 1318.35 1694.62 1318.35 Q1692.7 1318.35 1690.5 1318.76 Q1688.3 1319.18 1685.66 1320.06 L1685.66 1315.89 Q1688.32 1315.15 1690.64 1314.78 Q1692.97 1314.41 1695.04 1314.41 Q1700.36 1314.41 1703.46 1316.84 Q1706.56 1319.25 1706.56 1323.37 Q1706.56 1326.24 1704.92 1328.23 Q1703.28 1330.2 1700.24 1330.96 Z" fill="#000000" fill-rule="nonzero" fill-opacity="1" /><path clip-path="url(#clip690)" d="M1726.24 1318.11 Q1722.63 1318.11 1720.8 1321.68 Q1718.99 1325.22 1718.99 1332.35 Q1718.99 1339.46 1720.8 1343.02 Q1722.63 1346.56 1726.24 1346.56 Q1729.87 1346.56 1731.68 1343.02 Q1733.51 1339.46 1733.51 1332.35 Q1733.51 1325.22 1731.68 1321.68 Q1729.87 1318.11 1726.24 1318.11 M1726.24 1314.41 Q1732.05 1314.41 1735.1 1319.02 Q1738.18 1323.6 1738.18 1332.35 Q1738.18 1341.08 1735.1 1345.68 Q1732.05 1350.27 1726.24 1350.27 Q1720.43 1350.27 1717.35 1345.68 Q1714.29 1341.08 1714.29 1332.35 Q1714.29 1323.6 1717.35 1319.02 Q1720.43 1314.41 1726.24 1314.41 Z" fill="#000000" fill-rule="nonzero" fill-opacity="1" /><path clip-path="url(#clip690)" d="M1651.84 1055.29 Q1648.23 1055.29 1646.4 1058.85 Q1644.6 1062.4 1644.6 1069.53 Q1644.6 1076.63 1646.4 1080.2 Q1648.23 1083.74 1651.84 1083.74 Q1655.48 1083.74 1657.28 1080.2 Q1659.11 1076.63 1659.11 1069.53 Q1659.11 1062.4 1657.28 1058.85 Q1655.48 1055.29 1651.84 1055.29 M1651.84 1051.59 Q1657.65 1051.59 1660.71 1056.19 Q1663.79 1060.78 1663.79 1069.53 Q1663.79 1078.25 1660.71 1082.86 Q1657.65 1087.44 1651.84 1087.44 Q1646.03 1087.44 1642.95 1082.86 Q1639.9 1078.25 1639.9 1069.53 Q1639.9 1060.78 1642.95 1056.19 Q1646.03 1051.59 1651.84 1051.59 Z" fill="#000000" fill-rule="nonzero" fill-opacity="1" /><path clip-path="url(#clip690)" d="M1672 1080.89 L1676.89 1080.89 L1676.89 1086.77 L1672 1086.77 L1672 1080.89 Z" fill="#000000" fill-rule="nonzero" fill-opacity="1" /><path clip-path="url(#clip690)" d="M1701.24 1068.14 Q1704.6 1068.85 1706.47 1071.12 Q1708.37 1073.39 1708.37 1076.72 Q1708.37 1081.84 1704.85 1084.64 Q1701.33 1087.44 1694.85 1087.44 Q1692.67 1087.44 1690.36 1087 Q1688.07 1086.59 1685.61 1085.73 L1685.61 1081.22 Q1687.56 1082.35 1689.87 1082.93 Q1692.19 1083.51 1694.71 1083.51 Q1699.11 1083.51 1701.4 1081.77 Q1703.72 1080.03 1703.72 1076.72 Q1703.72 1073.67 1701.56 1071.96 Q1699.43 1070.22 1695.61 1070.22 L1691.59 1070.22 L1691.59 1066.38 L1695.8 1066.38 Q1699.25 1066.38 1701.08 1065.01 Q1702.91 1063.62 1702.91 1061.03 Q1702.91 1058.37 1701.01 1056.96 Q1699.13 1055.52 1695.61 1055.52 Q1693.69 1055.52 1691.49 1055.94 Q1689.29 1056.35 1686.66 1057.23 L1686.66 1053.07 Q1689.32 1052.33 1691.63 1051.96 Q1693.97 1051.59 1696.03 1051.59 Q1701.35 1051.59 1704.46 1054.02 Q1707.56 1056.42 1707.56 1060.54 Q1707.56 1063.41 1705.91 1065.41 Q1704.27 1067.37 1701.24 1068.14 Z" fill="#000000" fill-rule="nonzero" fill-opacity="1" /><path clip-path="url(#clip690)" d="M1717.28 1052.21 L1735.64 1052.21 L1735.64 1056.15 L1721.56 1056.15 L1721.56 1064.62 Q1722.58 1064.27 1723.6 1064.11 Q1724.62 1063.92 1725.64 1063.92 Q1731.42 1063.92 1734.8 1067.1 Q1738.18 1070.27 1738.18 1075.68 Q1738.18 1081.26 1734.71 1084.36 Q1731.24 1087.44 1724.92 1087.44 Q1722.74 1087.44 1720.47 1087.07 Q1718.23 1086.7 1715.82 1085.96 L1715.82 1081.26 Q1717.91 1082.4 1720.13 1082.95 Q1722.35 1083.51 1724.83 1083.51 Q1728.83 1083.51 1731.17 1081.4 Q1733.51 1079.29 1733.51 1075.68 Q1733.51 1072.07 1731.17 1069.97 Q1728.83 1067.86 1724.83 1067.86 Q1722.95 1067.86 1721.08 1068.28 Q1719.22 1068.69 1717.28 1069.57 L1717.28 1052.21 Z" fill="#000000" fill-rule="nonzero" fill-opacity="1" /><path clip-path="url(#clip690)" d="M1650.85 792.465 Q1647.23 792.465 1645.41 796.029 Q1643.6 799.571 1643.6 806.701 Q1643.6 813.807 1645.41 817.372 Q1647.23 820.913 1650.85 820.913 Q1654.48 820.913 1656.29 817.372 Q1658.11 813.807 1658.11 806.701 Q1658.11 799.571 1656.29 796.029 Q1654.48 792.465 1650.85 792.465 M1650.85 788.761 Q1656.66 788.761 1659.71 793.367 Q1662.79 797.951 1662.79 806.701 Q1662.79 815.427 1659.71 820.034 Q1656.66 824.617 1650.85 824.617 Q1645.04 824.617 1641.96 820.034 Q1638.9 815.427 1638.9 806.701 Q1638.9 797.951 1641.96 793.367 Q1645.04 788.761 1650.85 788.761 Z" fill="#000000" fill-rule="nonzero" fill-opacity="1" /><path clip-path="url(#clip690)" d="M1671.01 818.066 L1675.89 818.066 L1675.89 823.946 L1671.01 823.946 L1671.01 818.066 Z" fill="#000000" fill-rule="nonzero" fill-opacity="1" /><path clip-path="url(#clip690)" d="M1698.92 793.46 L1687.12 811.909 L1698.92 811.909 L1698.92 793.46 M1697.7 789.386 L1703.58 789.386 L1703.58 811.909 L1708.51 811.909 L1708.51 815.798 L1703.58 815.798 L1703.58 823.946 L1698.92 823.946 L1698.92 815.798 L1683.32 815.798 L1683.32 811.284 L1697.7 789.386 Z" fill="#000000" fill-rule="nonzero" fill-opacity="1" /><path clip-path="url(#clip690)" d="M1726.24 792.465 Q1722.63 792.465 1720.8 796.029 Q1718.99 799.571 1718.99 806.701 Q1718.99 813.807 1720.8 817.372 Q1722.63 820.913 1726.24 820.913 Q1729.87 820.913 1731.68 817.372 Q1733.51 813.807 1733.51 806.701 Q1733.51 799.571 1731.68 796.029 Q1729.87 792.465 1726.24 792.465 M1726.24 788.761 Q1732.05 788.761 1735.1 793.367 Q1738.18 797.951 1738.18 806.701 Q1738.18 815.427 1735.1 820.034 Q1732.05 824.617 1726.24 824.617 Q1720.43 824.617 1717.35 820.034 Q1714.29 815.427 1714.29 806.701 Q1714.29 797.951 1717.35 793.367 Q1720.43 788.761 1726.24 788.761 Z" fill="#000000" fill-rule="nonzero" fill-opacity="1" /><path clip-path="url(#clip690)" d="M1651.84 529.64 Q1648.23 529.64 1646.4 533.204 Q1644.6 536.746 1644.6 543.876 Q1644.6 550.982 1646.4 554.547 Q1648.23 558.089 1651.84 558.089 Q1655.48 558.089 1657.28 554.547 Q1659.11 550.982 1659.11 543.876 Q1659.11 536.746 1657.28 533.204 Q1655.48 529.64 1651.84 529.64 M1651.84 525.936 Q1657.65 525.936 1660.71 530.542 Q1663.79 535.126 1663.79 543.876 Q1663.79 552.602 1660.71 557.209 Q1657.65 561.792 1651.84 561.792 Q1646.03 561.792 1642.95 557.209 Q1639.9 552.602 1639.9 543.876 Q1639.9 535.126 1642.95 530.542 Q1646.03 525.936 1651.84 525.936 Z" fill="#000000" fill-rule="nonzero" fill-opacity="1" /><path clip-path="url(#clip690)" d="M1672 555.241 L1676.89 555.241 L1676.89 561.121 L1672 561.121 L1672 555.241 Z" fill="#000000" fill-rule="nonzero" fill-opacity="1" /><path clip-path="url(#clip690)" d="M1699.92 530.635 L1688.11 549.084 L1699.92 549.084 L1699.92 530.635 M1698.69 526.561 L1704.57 526.561 L1704.57 549.084 L1709.5 549.084 L1709.5 552.973 L1704.57 552.973 L1704.57 561.121 L1699.92 561.121 L1699.92 552.973 L1684.32 552.973 L1684.32 548.459 L1698.69 526.561 Z" fill="#000000" fill-rule="nonzero" fill-opacity="1" /><path clip-path="url(#clip690)" d="M1717.28 526.561 L1735.64 526.561 L1735.64 530.496 L1721.56 530.496 L1721.56 538.968 Q1722.58 538.621 1723.6 538.459 Q1724.62 538.274 1725.64 538.274 Q1731.42 538.274 1734.8 541.445 Q1738.18 544.616 1738.18 550.033 Q1738.18 555.612 1734.71 558.714 Q1731.24 561.792 1724.92 561.792 Q1722.74 561.792 1720.47 561.422 Q1718.23 561.051 1715.82 560.311 L1715.82 555.612 Q1717.91 556.746 1720.13 557.301 Q1722.35 557.857 1724.83 557.857 Q1728.83 557.857 1731.17 555.751 Q1733.51 553.644 1733.51 550.033 Q1733.51 546.422 1731.17 544.315 Q1728.83 542.209 1724.83 542.209 Q1722.95 542.209 1721.08 542.626 Q1719.22 543.042 1717.28 543.922 L1717.28 526.561 Z" fill="#000000" fill-rule="nonzero" fill-opacity="1" /><path clip-path="url(#clip690)" d="M1650.85 266.815 Q1647.23 266.815 1645.41 270.379 Q1643.6 273.921 1643.6 281.051 Q1643.6 288.157 1645.41 291.722 Q1647.23 295.264 1650.85 295.264 Q1654.48 295.264 1656.29 291.722 Q1658.11 288.157 1658.11 281.051 Q1658.11 273.921 1656.29 270.379 Q1654.48 266.815 1650.85 266.815 M1650.85 263.111 Q1656.66 263.111 1659.71 267.717 Q1662.79 272.301 1662.79 281.051 Q1662.79 289.777 1659.71 294.384 Q1656.66 298.967 1650.85 298.967 Q1645.04 298.967 1641.96 294.384 Q1638.9 289.777 1638.9 281.051 Q1638.9 272.301 1641.96 267.717 Q1645.04 263.111 1650.85 263.111 Z" fill="#000000" fill-rule="nonzero" fill-opacity="1" /><path clip-path="url(#clip690)" d="M1671.01 292.416 L1675.89 292.416 L1675.89 298.296 L1671.01 298.296 L1671.01 292.416 Z" fill="#000000" fill-rule="nonzero" fill-opacity="1" /><path clip-path="url(#clip690)" d="M1686.12 263.736 L1704.48 263.736 L1704.48 267.671 L1690.41 267.671 L1690.41 276.143 Q1691.42 275.796 1692.44 275.634 Q1693.46 275.449 1694.48 275.449 Q1700.27 275.449 1703.65 278.62 Q1707.03 281.791 1707.03 287.208 Q1707.03 292.787 1703.55 295.889 Q1700.08 298.967 1693.76 298.967 Q1691.59 298.967 1689.32 298.597 Q1687.07 298.227 1684.66 297.486 L1684.66 292.787 Q1686.75 293.921 1688.97 294.477 Q1691.19 295.032 1693.67 295.032 Q1697.67 295.032 1700.01 292.926 Q1702.35 290.819 1702.35 287.208 Q1702.35 283.597 1700.01 281.49 Q1697.67 279.384 1693.67 279.384 Q1691.79 279.384 1689.92 279.801 Q1688.07 280.217 1686.12 281.097 L1686.12 263.736 Z" fill="#000000" fill-rule="nonzero" fill-opacity="1" /><path clip-path="url(#clip690)" d="M1726.24 266.815 Q1722.63 266.815 1720.8 270.379 Q1718.99 273.921 1718.99 281.051 Q1718.99 288.157 1720.8 291.722 Q1722.63 295.264 1726.24 295.264 Q1729.87 295.264 1731.68 291.722 Q1733.51 288.157 1733.51 281.051 Q1733.51 273.921 1731.68 270.379 Q1729.87 266.815 1726.24 266.815 M1726.24 263.111 Q1732.05 263.111 1735.1 267.717 Q1738.18 272.301 1738.18 281.051 Q1738.18 289.777 1735.1 294.384 Q1732.05 298.967 1726.24 298.967 Q1720.43 298.967 1717.35 294.384 Q1714.29 289.777 1714.29 281.051 Q1714.29 272.301 1717.35 267.717 Q1720.43 263.111 1726.24 263.111 Z" fill="#000000" fill-rule="nonzero" fill-opacity="1" /><path clip-path="url(#clip690)" d="M2050.67 65.7705 L2050.67 89.8329 L2043.17 89.8329 L2043.17 27.2059 L2050.67 27.2059 L2050.67 34.0924 Q2053.02 30.0415 2056.58 28.0971 Q2060.19 26.1121 2065.17 26.1121 Q2073.43 26.1121 2078.58 32.6746 Q2083.76 39.2371 2083.76 49.9314 Q2083.76 60.6258 2078.58 67.1883 Q2073.43 73.7508 2065.17 73.7508 Q2060.19 73.7508 2056.58 71.8063 Q2053.02 69.8214 2050.67 65.7705 M2076.03 49.9314 Q2076.03 41.7081 2072.62 37.0496 Q2069.26 32.3505 2063.35 32.3505 Q2057.43 32.3505 2054.03 37.0496 Q2050.67 41.7081 2050.67 49.9314 Q2050.67 58.1548 2054.03 62.8538 Q2057.43 67.5124 2063.35 67.5124 Q2069.26 67.5124 2072.62 62.8538 Q2076.03 58.1548 2076.03 49.9314 Z" fill="#000000" fill-rule="nonzero" fill-opacity="1" /><polyline clip-path="url(#clip694)" style="stroke:#009af9; stroke-linecap:round; stroke-linejoin:round; stroke-width:4; stroke-opacity:1; fill:none" points="1774.18,176.48 1775.47,168.375 1776.77,162.907 1778.06,160.256 1779.35,160.605 1780.64,164.133 1781.93,171.024 1783.22,181.457 1783.22,202.122 1784.51,188.262 1785.81,181.812 1787.1,187.801 1788.39,211.258 1789.68,257.21 1790.97,330.688 1792.26,436.718 1792.26,389.032 1793.55,608.041 1794.85,801.634 1796.14,967.656 1797.43,1103.95 1798.72,1208.37 1800.01,1278.75 1801.3,1312.94 1801.3,1316.26 1802.6,1330.91 1803.89,1339.97 1805.18,1344.89 1806.47,1347.1 1807.76,1348.06 1809.05,1349.2 1810.34,1351.96 1810.34,1351.97 1811.64,1356.49 1812.93,1360.63 1814.22,1364.42 1815.51,1367.89 1816.8,1371.09 1818.09,1374.05 1819.38,1376.8 1819.38,1376.74 1820.68,1379.3 1821.97,1381.39 1823.26,1383.04 1824.55,1384.31 1825.84,1385.23 1827.13,1385.85 1828.42,1386.22 1828.42,1386.32 1829.72,1386.4 1831.01,1386.32 1832.3,1386.11 1833.59,1385.8 1834.88,1385.4 1836.17,1384.94 1837.46,1384.43 1837.46,1384.43 1838.76,1384.07 1840.05,1383.67 1841.34,1383.22 1842.63,1382.73 1843.92,1382.18 1845.21,1381.57 1846.5,1380.92 1846.5,1380.83 1847.8,1380.13 1849.09,1379.45 1850.38,1378.8 1851.67,1378.18 1852.96,1377.6 1854.25,1377.07 1855.54,1376.6 1855.54,1376.63 1856.84,1375.89 1858.13,1375.12 1859.42,1374.33 1860.71,1373.53 1862,1372.73 1863.29,1371.95 1864.59,1371.19 1864.59,1371.19 1865.88,1370.85 1867.17,1370.56 1868.46,1370.27 1869.75,1369.96 1871.04,1369.6 1872.33,1369.15 1873.63,1368.58 1873.63,1368.59 1874.92,1367.62 1876.21,1366.58 1877.5,1365.51 1878.79,1364.46 1880.08,1363.49 1881.37,1362.64 1882.67,1361.97 1882.67,1361.97 1883.96,1361.64 1885.25,1361.48 1886.54,1361.42 1887.83,1361.41 1889.12,1361.4 1890.41,1361.32 1891.71,1361.11 1891.71,1361.05 1893,1360.62 1894.29,1359.96 1895.58,1359.13 1896.87,1358.19 1898.16,1357.18 1899.45,1356.16 1900.75,1355.18 1900.75,1355.3 1902.04,1354.44 1903.33,1353.83 1904.62,1353.44 1905.91,1353.25 1907.2,1353.22 1908.49,1353.34 1909.79,1353.58 1909.79,1353.46 1911.08,1353.74 1912.37,1353.91 1913.66,1353.97 1914.95,1353.87 1916.24,1353.62 1917.53,1353.19 1918.83,1352.55 1918.83,1352.6 1920.12,1351.83 1921.41,1350.97 1922.7,1350.06 1923.99,1349.15 1925.28,1348.29 1926.57,1347.53 1927.87,1346.92 1927.87,1346.96 1929.16,1346.45 1930.45,1346.16 1931.74,1346.07 1933.03,1346.14 1934.32,1346.34 1935.62,1346.66 1936.91,1347.05 1936.91,1346.98 1938.2,1347.44 1939.49,1347.83 1940.78,1348.13 1942.07,1348.31 1943.36,1348.34 1944.66,1348.21 1945.95,1347.88 1945.95,1347.88 1947.24,1347.41 1948.53,1346.78 1949.82,1346.02 1951.11,1345.18 1952.4,1344.3 1953.7,1343.43 1954.99,1342.61 1954.99,1342.67 1956.28,1341.89 1957.57,1341.26 1958.86,1340.79 1960.15,1340.47 1961.44,1340.32 1962.74,1340.32 1964.03,1340.5 1964.03,1340.48 1965.32,1340.78 1966.61,1341.2 1967.9,1341.71 1969.19,1342.26 1970.48,1342.8 1971.78,1343.3 1973.07,1343.72 1973.07,1343.66 1974.36,1343.98 1975.65,1344.08 1976.94,1344 1978.23,1343.73 1979.52,1343.28 1980.82,1342.67 1982.11,1341.9 1982.11,1341.95 1983.4,1341.14 1984.69,1340.28 1985.98,1339.42 1987.27,1338.59 1988.56,1337.83 1989.86,1337.17 1991.15,1336.66 1991.15,1336.69 1992.44,1336.23 1993.73,1335.97 1995.02,1335.91 1996.31,1336.02 1997.61,1336.3 1998.9,1336.72 2000.19,1337.27 2000.19,1337.24 2001.48,1337.93 2002.77,1338.65 2004.06,1339.37 2005.35,1340.02 2006.65,1340.57 2007.94,1340.98 2009.23,1341.19 2009.23,1341.15 2010.52,1341.2 2011.81,1341 2013.1,1340.6 2014.39,1340.02 2015.69,1339.31 2016.98,1338.5 2018.27,1337.62 2018.27,1337.67 2019.56,1336.76 2020.85,1335.9 2022.14,1335.09 2023.43,1334.38 2024.73,1333.78 2026.02,1333.34 2027.31,1333.08 2027.31,1333.12 2028.6,1332.95 2029.89,1333.04 2031.18,1333.34 2032.47,1333.84 2033.77,1334.49 2035.06,1335.28 2036.35,1336.17 2036.35,1336.11 2037.64,1337.08 2038.93,1337.97 2040.22,1338.74 2041.51,1339.36 2042.81,1339.77 2044.1,1339.95 2045.39,1339.87 2045.39,1339.86 2046.68,1339.59 2047.97,1339.1 2049.26,1338.44 2050.55,1337.65 2051.85,1336.78 2053.14,1335.87 2054.43,1334.96 2054.43,1332.9 2055.72,1329.35 2057.01,1327.06 2058.3,1325.93 2059.6,1325.86 2060.89,1326.75 2062.18,1328.49 2063.47,1330.98 2063.47,1330.98 2064.76,1328.49 2066.05,1326.75 2067.34,1325.86 2068.64,1325.93 2069.93,1327.06 2071.22,1329.35 2072.51,1332.9 2072.51,1334.96 2073.8,1335.87 2075.09,1336.78 2076.38,1337.65 2077.68,1338.44 2078.97,1339.1 2080.26,1339.59 2081.55,1339.86 2081.55,1339.87 2082.84,1339.95 2084.13,1339.77 2085.42,1339.36 2086.72,1338.74 2088.01,1337.97 2089.3,1337.08 2090.59,1336.11 2090.59,1336.17 2091.88,1335.28 2093.17,1334.49 2094.46,1333.84 2095.76,1333.34 2097.05,1333.04 2098.34,1332.95 2099.63,1333.12 2099.63,1333.08 2100.92,1333.34 2102.21,1333.78 2103.5,1334.38 2104.8,1335.09 2106.09,1335.9 2107.38,1336.76 2108.67,1337.67 2108.67,1337.62 2109.96,1338.5 2111.25,1339.31 2112.54,1340.02 2113.84,1340.6 2115.13,1341 2116.42,1341.2 2117.71,1341.15 2117.71,1341.19 2119,1340.98 2120.29,1340.57 2121.59,1340.02 2122.88,1339.37 2124.17,1338.65 2125.46,1337.93 2126.75,1337.24 2126.75,1337.27 2128.04,1336.72 2129.33,1336.3 2130.63,1336.02 2131.92,1335.91 2133.21,1335.97 2134.5,1336.23 2135.79,1336.69 2135.79,1336.66 2137.08,1337.17 2138.37,1337.83 2139.67,1338.59 2140.96,1339.42 2142.25,1340.28 2143.54,1341.14 2144.83,1341.95 2144.83,1341.9 2146.12,1342.67 2147.41,1343.28 2148.71,1343.73 2150,1344 2151.29,1344.08 2152.58,1343.98 2153.87,1343.66 2153.87,1343.72 2155.16,1343.3 2156.45,1342.8 2157.75,1342.26 2159.04,1341.71 2160.33,1341.2 2161.62,1340.78 2162.91,1340.48 2162.91,1340.5 2164.2,1340.32 2165.49,1340.32 2166.79,1340.47 2168.08,1340.79 2169.37,1341.26 2170.66,1341.89 2171.95,1342.67 2171.95,1342.61 2173.24,1343.43 2174.53,1344.3 2175.83,1345.18 2177.12,1346.02 2178.41,1346.78 2179.7,1347.41 2180.99,1347.88 2180.99,1347.88 2182.28,1348.21 2183.57,1348.34 2184.87,1348.31 2186.16,1348.13 2187.45,1347.83 2188.74,1347.44 2190.03,1346.98 2190.03,1347.05 2191.32,1346.66 2192.62,1346.34 2193.91,1346.14 2195.2,1346.07 2196.49,1346.16 2197.78,1346.45 2199.07,1346.96 2199.07,1346.92 2200.36,1347.53 2201.66,1348.29 2202.95,1349.15 2204.24,1350.06 2205.53,1350.97 2206.82,1351.83 2208.11,1352.6 2208.11,1352.55 2209.4,1353.19 2210.7,1353.62 2211.99,1353.87 2213.28,1353.97 2214.57,1353.91 2215.86,1353.74 2217.15,1353.46 2217.15,1353.58 2218.44,1353.34 2219.74,1353.22 2221.03,1353.25 2222.32,1353.44 2223.61,1353.83 2224.9,1354.44 2226.19,1355.3 2226.19,1355.18 2227.48,1356.16 2228.78,1357.18 2230.07,1358.19 2231.36,1359.13 2232.65,1359.96 2233.94,1360.62 2235.23,1361.05 2235.23,1361.11 2236.52,1361.32 2237.82,1361.4 2239.11,1361.41 2240.4,1361.42 2241.69,1361.48 2242.98,1361.64 2244.27,1361.97 2244.27,1361.97 2245.56,1362.64 2246.86,1363.49 2248.15,1364.46 2249.44,1365.51 2250.73,1366.58 2252.02,1367.62 2253.31,1368.59 2253.31,1368.58 2254.61,1369.15 2255.9,1369.6 2257.19,1369.96 2258.48,1370.27 2259.77,1370.56 2261.06,1370.85 2262.35,1371.19 2262.35,1371.19 2263.65,1371.95 2264.94,1372.73 2266.23,1373.53 2267.52,1374.33 2268.81,1375.12 2270.1,1375.9 2271.39,1376.63 2271.39,1376.6 2272.69,1377.07 2273.98,1377.6 2275.27,1378.18 2276.56,1378.8 2277.85,1379.45 2279.14,1380.13 2280.43,1380.83 2280.43,1380.92 2281.73,1381.57 2283.02,1382.18 2284.31,1382.73 2285.6,1383.22 2286.89,1383.67 2288.18,1384.07 2289.47,1384.43 2289.47,1384.43 2290.77,1384.94 2292.06,1385.4 2293.35,1385.8 2294.64,1386.11 2295.93,1386.32 2297.22,1386.4 2298.51,1386.33 2298.51,1386.22 2299.81,1385.85 2301.1,1385.23 2302.39,1384.31 2303.68,1383.04 2304.97,1381.39 2306.26,1379.3 2307.55,1376.74 2307.55,1376.8 2308.85,1374.05 2310.14,1371.09 2311.43,1367.89 2312.72,1364.42 2314.01,1360.63 2315.3,1356.49 2316.6,1351.97 2316.6,1351.96 2317.89,1349.2 2319.18,1348.06 2320.47,1347.1 2321.76,1344.89 2323.05,1339.97 2324.34,1330.91 2325.64,1316.26 2325.64,1312.94 2326.93,1278.75 2328.22,1208.37 2329.51,1103.95 2330.8,967.656 2332.09,801.634 2333.38,608.041 2334.68,389.033 2334.68,436.718 2335.97,330.688 2337.26,257.211 2338.55,211.258 2339.84,187.801 2341.13,181.812 2342.42,188.262 2343.72,202.122 2343.72,181.457 2345.01,171.024 2346.3,164.133 2347.59,160.605 2348.88,160.256 2350.17,162.907 2351.46,168.375 2352.76,176.48 "/>
</svg>
