<?xml version="1.0" encoding="utf-8"?>
<svg xmlns="http://www.w3.org/2000/svg" xmlns:xlink="http://www.w3.org/1999/xlink" width="600" height="400" viewBox="0 0 2400 1600">
<defs>
  <clipPath id="clip340">
    <rect x="0" y="0" width="2400" height="1600"/>
  </clipPath>
</defs>
<path clip-path="url(#clip340)" d="M0 1600 L2400 1600 L2400 0 L0 0  Z" fill="#ffffff" fill-rule="evenodd" fill-opacity="1"/>
<defs>
  <clipPath id="clip341">
    <rect x="480" y="0" width="1681" height="1600"/>
  </clipPath>
</defs>
<path clip-path="url(#clip340)" d="M110.881 1486.45 L2352.76 1486.45 L2352.76 47.2441 L110.881 47.2441  Z" fill="#ffffff" fill-rule="evenodd" fill-opacity="1"/>
<defs>
  <clipPath id="clip342">
    <rect x="110" y="47" width="2243" height="1440"/>
  </clipPath>
</defs>
<polyline clip-path="url(#clip342)" style="stroke:#000000; stroke-linecap:round; stroke-linejoin:round; stroke-width:2; stroke-opacity:0.1; fill:none" points="174.33,1486.45 174.33,47.2441 "/>
<polyline clip-path="url(#clip342)" style="stroke:#000000; stroke-linecap:round; stroke-linejoin:round; stroke-width:2; stroke-opacity:0.1; fill:none" points="703.074,1486.45 703.074,47.2441 "/>
<polyline clip-path="url(#clip342)" style="stroke:#000000; stroke-linecap:round; stroke-linejoin:round; stroke-width:2; stroke-opacity:0.1; fill:none" points="1231.82,1486.45 1231.82,47.2441 "/>
<polyline clip-path="url(#clip342)" style="stroke:#000000; stroke-linecap:round; stroke-linejoin:round; stroke-width:2; stroke-opacity:0.1; fill:none" points="1760.56,1486.45 1760.56,47.2441 "/>
<polyline clip-path="url(#clip342)" style="stroke:#000000; stroke-linecap:round; stroke-linejoin:round; stroke-width:2; stroke-opacity:0.1; fill:none" points="2289.31,1486.45 2289.31,47.2441 "/>
<polyline clip-path="url(#clip340)" style="stroke:#000000; stroke-linecap:round; stroke-linejoin:round; stroke-width:4; stroke-opacity:1; fill:none" points="110.881,1486.45 2352.76,1486.45 "/>
<polyline clip-path="url(#clip340)" style="stroke:#000000; stroke-linecap:round; stroke-linejoin:round; stroke-width:4; stroke-opacity:1; fill:none" points="174.33,1486.45 174.33,1467.55 "/>
<polyline clip-path="url(#clip340)" style="stroke:#000000; stroke-linecap:round; stroke-linejoin:round; stroke-width:4; stroke-opacity:1; fill:none" points="703.074,1486.45 703.074,1467.55 "/>
<polyline clip-path="url(#clip340)" style="stroke:#000000; stroke-linecap:round; stroke-linejoin:round; stroke-width:4; stroke-opacity:1; fill:none" points="1231.82,1486.45 1231.82,1467.55 "/>
<polyline clip-path="url(#clip340)" style="stroke:#000000; stroke-linecap:round; stroke-linejoin:round; stroke-width:4; stroke-opacity:1; fill:none" points="1760.56,1486.45 1760.56,1467.55 "/>
<polyline clip-path="url(#clip340)" style="stroke:#000000; stroke-linecap:round; stroke-linejoin:round; stroke-width:4; stroke-opacity:1; fill:none" points="2289.31,1486.45 2289.31,1467.55 "/>
<path clip-path="url(#clip340)" d="M120.858 1532.02 L150.534 1532.02 L150.534 1535.95 L120.858 1535.95 L120.858 1532.02 Z" fill="#000000" fill-rule="nonzero" fill-opacity="1" /><path clip-path="url(#clip340)" d="M161.437 1544.91 L169.076 1544.91 L169.076 1518.55 L160.765 1520.21 L160.765 1515.95 L169.029 1514.29 L173.705 1514.29 L173.705 1544.91 L181.344 1544.91 L181.344 1548.85 L161.437 1548.85 L161.437 1544.91 Z" fill="#000000" fill-rule="nonzero" fill-opacity="1" /><path clip-path="url(#clip340)" d="M190.788 1542.97 L195.673 1542.97 L195.673 1548.85 L190.788 1548.85 L190.788 1542.97 Z" fill="#000000" fill-rule="nonzero" fill-opacity="1" /><path clip-path="url(#clip340)" d="M215.858 1517.37 Q212.247 1517.37 210.418 1520.93 Q208.612 1524.47 208.612 1531.6 Q208.612 1538.71 210.418 1542.27 Q212.247 1545.82 215.858 1545.82 Q219.492 1545.82 221.298 1542.27 Q223.126 1538.71 223.126 1531.6 Q223.126 1524.47 221.298 1520.93 Q219.492 1517.37 215.858 1517.37 M215.858 1513.66 Q221.668 1513.66 224.723 1518.27 Q227.802 1522.85 227.802 1531.6 Q227.802 1540.33 224.723 1544.94 Q221.668 1549.52 215.858 1549.52 Q210.048 1549.52 206.969 1544.94 Q203.913 1540.33 203.913 1531.6 Q203.913 1522.85 206.969 1518.27 Q210.048 1513.66 215.858 1513.66 Z" fill="#000000" fill-rule="nonzero" fill-opacity="1" /><path clip-path="url(#clip340)" d="M650.1 1532.02 L679.776 1532.02 L679.776 1535.95 L650.1 1535.95 L650.1 1532.02 Z" fill="#000000" fill-rule="nonzero" fill-opacity="1" /><path clip-path="url(#clip340)" d="M699.868 1517.37 Q696.257 1517.37 694.429 1520.93 Q692.623 1524.47 692.623 1531.6 Q692.623 1538.71 694.429 1542.27 Q696.257 1545.82 699.868 1545.82 Q703.503 1545.82 705.308 1542.27 Q707.137 1538.71 707.137 1531.6 Q707.137 1524.47 705.308 1520.93 Q703.503 1517.37 699.868 1517.37 M699.868 1513.66 Q705.678 1513.66 708.734 1518.27 Q711.813 1522.85 711.813 1531.6 Q711.813 1540.33 708.734 1544.94 Q705.678 1549.52 699.868 1549.52 Q694.058 1549.52 690.979 1544.94 Q687.924 1540.33 687.924 1531.6 Q687.924 1522.85 690.979 1518.27 Q694.058 1513.66 699.868 1513.66 Z" fill="#000000" fill-rule="nonzero" fill-opacity="1" /><path clip-path="url(#clip340)" d="M720.03 1542.97 L724.914 1542.97 L724.914 1548.85 L720.03 1548.85 L720.03 1542.97 Z" fill="#000000" fill-rule="nonzero" fill-opacity="1" /><path clip-path="url(#clip340)" d="M735.146 1514.29 L753.502 1514.29 L753.502 1518.22 L739.428 1518.22 L739.428 1526.7 Q740.447 1526.35 741.465 1526.19 Q742.484 1526 743.502 1526 Q749.289 1526 752.669 1529.17 Q756.049 1532.34 756.049 1537.76 Q756.049 1543.34 752.576 1546.44 Q749.104 1549.52 742.785 1549.52 Q740.609 1549.52 738.34 1549.15 Q736.095 1548.78 733.688 1548.04 L733.688 1543.34 Q735.771 1544.47 737.993 1545.03 Q740.215 1545.58 742.692 1545.58 Q746.697 1545.58 749.035 1543.48 Q751.373 1541.37 751.373 1537.76 Q751.373 1534.15 749.035 1532.04 Q746.697 1529.94 742.692 1529.94 Q740.817 1529.94 738.942 1530.35 Q737.09 1530.77 735.146 1531.65 L735.146 1514.29 Z" fill="#000000" fill-rule="nonzero" fill-opacity="1" /><path clip-path="url(#clip340)" d="M1209.2 1517.37 Q1205.59 1517.37 1203.76 1520.93 Q1201.96 1524.47 1201.96 1531.6 Q1201.96 1538.71 1203.76 1542.27 Q1205.59 1545.82 1209.2 1545.82 Q1212.84 1545.82 1214.64 1542.27 Q1216.47 1538.71 1216.47 1531.6 Q1216.47 1524.47 1214.64 1520.93 Q1212.84 1517.37 1209.2 1517.37 M1209.2 1513.66 Q1215.01 1513.66 1218.07 1518.27 Q1221.15 1522.85 1221.15 1531.6 Q1221.15 1540.33 1218.07 1544.94 Q1215.01 1549.52 1209.2 1549.52 Q1203.39 1549.52 1200.31 1544.94 Q1197.26 1540.33 1197.26 1531.6 Q1197.26 1522.85 1200.31 1518.27 Q1203.39 1513.66 1209.2 1513.66 Z" fill="#000000" fill-rule="nonzero" fill-opacity="1" /><path clip-path="url(#clip340)" d="M1229.36 1542.97 L1234.25 1542.97 L1234.25 1548.85 L1229.36 1548.85 L1229.36 1542.97 Z" fill="#000000" fill-rule="nonzero" fill-opacity="1" /><path clip-path="url(#clip340)" d="M1254.43 1517.37 Q1250.82 1517.37 1248.99 1520.93 Q1247.19 1524.47 1247.19 1531.6 Q1247.19 1538.71 1248.99 1542.27 Q1250.82 1545.82 1254.43 1545.82 Q1258.07 1545.82 1259.87 1542.27 Q1261.7 1538.71 1261.7 1531.6 Q1261.7 1524.47 1259.87 1520.93 Q1258.07 1517.37 1254.43 1517.37 M1254.43 1513.66 Q1260.24 1513.66 1263.3 1518.27 Q1266.38 1522.85 1266.38 1531.6 Q1266.38 1540.33 1263.3 1544.94 Q1260.24 1549.52 1254.43 1549.52 Q1248.62 1549.52 1245.55 1544.94 Q1242.49 1540.33 1242.49 1531.6 Q1242.49 1522.85 1245.55 1518.27 Q1248.62 1513.66 1254.43 1513.66 Z" fill="#000000" fill-rule="nonzero" fill-opacity="1" /><path clip-path="url(#clip340)" d="M1738.44 1517.37 Q1734.83 1517.37 1733 1520.93 Q1731.2 1524.47 1731.2 1531.6 Q1731.2 1538.71 1733 1542.27 Q1734.83 1545.82 1738.44 1545.82 Q1742.08 1545.82 1743.88 1542.27 Q1745.71 1538.71 1745.71 1531.6 Q1745.71 1524.47 1743.88 1520.93 Q1742.08 1517.37 1738.44 1517.37 M1738.44 1513.66 Q1744.25 1513.66 1747.31 1518.27 Q1750.39 1522.85 1750.39 1531.6 Q1750.39 1540.33 1747.31 1544.94 Q1744.25 1549.52 1738.44 1549.52 Q1732.63 1549.52 1729.56 1544.94 Q1726.5 1540.33 1726.5 1531.6 Q1726.5 1522.85 1729.56 1518.27 Q1732.63 1513.66 1738.44 1513.66 Z" fill="#000000" fill-rule="nonzero" fill-opacity="1" /><path clip-path="url(#clip340)" d="M1758.61 1542.97 L1763.49 1542.97 L1763.49 1548.85 L1758.61 1548.85 L1758.61 1542.97 Z" fill="#000000" fill-rule="nonzero" fill-opacity="1" /><path clip-path="url(#clip340)" d="M1773.72 1514.29 L1792.08 1514.29 L1792.08 1518.22 L1778 1518.22 L1778 1526.7 Q1779.02 1526.35 1780.04 1526.19 Q1781.06 1526 1782.08 1526 Q1787.87 1526 1791.25 1529.17 Q1794.62 1532.34 1794.62 1537.76 Q1794.62 1543.34 1791.15 1546.44 Q1787.68 1549.52 1781.36 1549.52 Q1779.19 1549.52 1776.92 1549.15 Q1774.67 1548.78 1772.26 1548.04 L1772.26 1543.34 Q1774.35 1544.47 1776.57 1545.03 Q1778.79 1545.58 1781.27 1545.58 Q1785.27 1545.58 1787.61 1543.48 Q1789.95 1541.37 1789.95 1537.76 Q1789.95 1534.15 1787.61 1532.04 Q1785.27 1529.94 1781.27 1529.94 Q1779.39 1529.94 1777.52 1530.35 Q1775.67 1530.77 1773.72 1531.65 L1773.72 1514.29 Z" fill="#000000" fill-rule="nonzero" fill-opacity="1" /><path clip-path="url(#clip340)" d="M2256.46 1544.91 L2264.1 1544.91 L2264.1 1518.55 L2255.79 1520.21 L2255.79 1515.95 L2264.05 1514.29 L2268.73 1514.29 L2268.73 1544.91 L2276.37 1544.91 L2276.37 1548.85 L2256.46 1548.85 L2256.46 1544.91 Z" fill="#000000" fill-rule="nonzero" fill-opacity="1" /><path clip-path="url(#clip340)" d="M2285.81 1542.97 L2290.7 1542.97 L2290.7 1548.85 L2285.81 1548.85 L2285.81 1542.97 Z" fill="#000000" fill-rule="nonzero" fill-opacity="1" /><path clip-path="url(#clip340)" d="M2310.88 1517.37 Q2307.27 1517.37 2305.44 1520.93 Q2303.64 1524.47 2303.64 1531.6 Q2303.64 1538.71 2305.44 1542.27 Q2307.27 1545.82 2310.88 1545.82 Q2314.51 1545.82 2316.32 1542.27 Q2318.15 1538.71 2318.15 1531.6 Q2318.15 1524.47 2316.32 1520.93 Q2314.51 1517.37 2310.88 1517.37 M2310.88 1513.66 Q2316.69 1513.66 2319.75 1518.27 Q2322.82 1522.85 2322.82 1531.6 Q2322.82 1540.33 2319.75 1544.94 Q2316.69 1549.52 2310.88 1549.52 Q2305.07 1549.52 2301.99 1544.94 Q2298.94 1540.33 2298.94 1531.6 Q2298.94 1522.85 2301.99 1518.27 Q2305.07 1513.66 2310.88 1513.66 Z" fill="#000000" fill-rule="nonzero" fill-opacity="1" /><polyline clip-path="url(#clip342)" style="stroke:#000000; stroke-linecap:round; stroke-linejoin:round; stroke-width:2; stroke-opacity:0.1; fill:none" points="110.881,1445.72 2352.76,1445.72 "/>
<polyline clip-path="url(#clip342)" style="stroke:#000000; stroke-linecap:round; stroke-linejoin:round; stroke-width:2; stroke-opacity:0.1; fill:none" points="110.881,993.136 2352.76,993.136 "/>
<polyline clip-path="url(#clip342)" style="stroke:#000000; stroke-linecap:round; stroke-linejoin:round; stroke-width:2; stroke-opacity:0.1; fill:none" points="110.881,540.556 2352.76,540.556 "/>
<polyline clip-path="url(#clip342)" style="stroke:#000000; stroke-linecap:round; stroke-linejoin:round; stroke-width:2; stroke-opacity:0.1; fill:none" points="110.881,87.9763 2352.76,87.9763 "/>
<polyline clip-path="url(#clip340)" style="stroke:#000000; stroke-linecap:round; stroke-linejoin:round; stroke-width:4; stroke-opacity:1; fill:none" points="110.881,1486.45 110.881,47.2441 "/>
<polyline clip-path="url(#clip340)" style="stroke:#000000; stroke-linecap:round; stroke-linejoin:round; stroke-width:4; stroke-opacity:1; fill:none" points="110.881,1445.72 129.779,1445.72 "/>
<polyline clip-path="url(#clip340)" style="stroke:#000000; stroke-linecap:round; stroke-linejoin:round; stroke-width:4; stroke-opacity:1; fill:none" points="110.881,993.136 129.779,993.136 "/>
<polyline clip-path="url(#clip340)" style="stroke:#000000; stroke-linecap:round; stroke-linejoin:round; stroke-width:4; stroke-opacity:1; fill:none" points="110.881,540.556 129.779,540.556 "/>
<polyline clip-path="url(#clip340)" style="stroke:#000000; stroke-linecap:round; stroke-linejoin:round; stroke-width:4; stroke-opacity:1; fill:none" points="110.881,87.9763 129.779,87.9763 "/>
<path clip-path="url(#clip340)" d="M62.9365 1431.51 Q59.3254 1431.51 57.4967 1435.08 Q55.6912 1438.62 55.6912 1445.75 Q55.6912 1452.86 57.4967 1456.42 Q59.3254 1459.96 62.9365 1459.96 Q66.5707 1459.96 68.3763 1456.42 Q70.205 1452.86 70.205 1445.75 Q70.205 1438.62 68.3763 1435.08 Q66.5707 1431.51 62.9365 1431.51 M62.9365 1427.81 Q68.7467 1427.81 71.8022 1432.42 Q74.8809 1437 74.8809 1445.75 Q74.8809 1454.48 71.8022 1459.08 Q68.7467 1463.67 62.9365 1463.67 Q57.1264 1463.67 54.0477 1459.08 Q50.9921 1454.48 50.9921 1445.75 Q50.9921 1437 54.0477 1432.42 Q57.1264 1427.81 62.9365 1427.81 Z" fill="#000000" fill-rule="nonzero" fill-opacity="1" /><path clip-path="url(#clip340)" d="M54.9736 1006.48 L62.6124 1006.48 L62.6124 980.115 L54.3023 981.782 L54.3023 977.523 L62.5661 975.856 L67.242 975.856 L67.242 1006.48 L74.8809 1006.48 L74.8809 1010.42 L54.9736 1010.42 L54.9736 1006.48 Z" fill="#000000" fill-rule="nonzero" fill-opacity="1" /><path clip-path="url(#clip340)" d="M58.5615 553.901 L74.8809 553.901 L74.8809 557.836 L52.9366 557.836 L52.9366 553.901 Q55.5986 551.146 60.1819 546.517 Q64.7883 541.864 65.9689 540.521 Q68.2143 537.998 69.0939 536.262 Q69.9967 534.503 69.9967 532.813 Q69.9967 530.058 68.0522 528.322 Q66.1309 526.586 63.0291 526.586 Q60.83 526.586 58.3763 527.35 Q55.9458 528.114 53.168 529.665 L53.168 524.943 Q55.9921 523.808 58.4458 523.23 Q60.8995 522.651 62.9365 522.651 Q68.3068 522.651 71.5013 525.336 Q74.6957 528.021 74.6957 532.512 Q74.6957 534.642 73.8855 536.563 Q73.0985 538.461 70.992 541.054 Q70.4133 541.725 67.3115 544.943 Q64.2096 548.137 58.5615 553.901 Z" fill="#000000" fill-rule="nonzero" fill-opacity="1" /><path clip-path="url(#clip340)" d="M67.7513 86.6221 Q71.1078 87.3397 72.9827 89.6082 Q74.8809 91.8767 74.8809 95.21 Q74.8809 100.326 71.3624 103.127 Q67.8439 105.928 61.3624 105.928 Q59.1865 105.928 56.8717 105.488 Q54.5801 105.071 52.1264 104.215 L52.1264 99.7008 Q54.0708 100.835 56.3856 101.414 Q58.7004 101.992 61.2236 101.992 Q65.6217 101.992 67.9133 100.256 Q70.2281 98.5202 70.2281 95.21 Q70.2281 92.1545 68.0754 90.4415 Q65.9457 88.7054 62.1263 88.7054 L58.0986 88.7054 L58.0986 84.8629 L62.3115 84.8629 Q65.7606 84.8629 67.5893 83.4971 Q69.418 82.1083 69.418 79.5157 Q69.418 76.8537 67.5198 75.4416 Q65.6448 74.0064 62.1263 74.0064 Q60.205 74.0064 58.006 74.4231 Q55.8069 74.8398 53.168 75.7194 L53.168 71.5528 Q55.8301 70.812 58.1449 70.4416 Q60.4828 70.0713 62.543 70.0713 Q67.867 70.0713 70.9689 72.5018 Q74.0707 74.9092 74.0707 79.0296 Q74.0707 81.8999 72.4272 83.8907 Q70.7837 85.8582 67.7513 86.6221 Z" fill="#000000" fill-rule="nonzero" fill-opacity="1" /><polyline clip-path="url(#clip342)" style="stroke:#009af9; stroke-linecap:round; stroke-linejoin:round; stroke-width:8; stroke-opacity:1; fill:none" points="174.33,87.9763 210.865,180.173 269.981,322.485 306.516,406.196 343.052,486.666 402.167,610.003 438.702,681.987 475.238,750.73 534.353,855.092 570.888,915.349 607.424,972.364 666.539,1057.75 703.074,1106.28 739.61,1151.57 798.725,1217.98 835.26,1254.78 871.796,1288.34 930.911,1335.78 967.446,1360.86 1003.98,1382.69 1063.1,1411.15 1099.63,1424.5 1136.17,1434.61 1195.28,1444.1 1231.82,1445.72 1268.35,1444.1 1327.47,1434.61 1364,1424.5 1400.54,1411.15 1459.66,1382.69 1496.19,1360.86 1532.73,1335.78 1591.84,1288.34 1628.38,1254.78 1664.91,1217.98 1724.03,1151.57 1760.56,1106.28 1797.1,1057.75 1856.21,972.364 1892.75,915.349 1929.28,855.092 1988.4,750.73 2024.93,681.987 2061.47,610.003 2120.59,486.666 2157.12,406.196 2193.66,322.485 2252.77,180.173 2289.31,87.9763 "/>
<circle clip-path="url(#clip342)" cx="174.33" cy="87.9763" r="14.4" fill="#e26f46" fill-rule="evenodd" fill-opacity="1" stroke="#000000" stroke-opacity="1" stroke-width="3.2"/>
<circle clip-path="url(#clip342)" cx="280.335" cy="346.538" r="14.4" fill="#e26f46" fill-rule="evenodd" fill-opacity="1" stroke="#000000" stroke-opacity="1" stroke-width="3.2"/>
<circle clip-path="url(#clip342)" cx="515.702" cy="823.082" r="14.4" fill="#e26f46" fill-rule="evenodd" fill-opacity="1" stroke="#000000" stroke-opacity="1" stroke-width="3.2"/>
<circle clip-path="url(#clip342)" cx="847.826" cy="1266.69" r="14.4" fill="#e26f46" fill-rule="evenodd" fill-opacity="1" stroke="#000000" stroke-opacity="1" stroke-width="3.2"/>
<circle clip-path="url(#clip342)" cx="1231.82" cy="1445.72" r="14.4" fill="#e26f46" fill-rule="evenodd" fill-opacity="1" stroke="#000000" stroke-opacity="1" stroke-width="3.2"/>
<circle clip-path="url(#clip342)" cx="1615.81" cy="1266.69" r="14.4" fill="#e26f46" fill-rule="evenodd" fill-opacity="1" stroke="#000000" stroke-opacity="1" stroke-width="3.2"/>
<circle clip-path="url(#clip342)" cx="1947.93" cy="823.082" r="14.4" fill="#e26f46" fill-rule="evenodd" fill-opacity="1" stroke="#000000" stroke-opacity="1" stroke-width="3.2"/>
<circle clip-path="url(#clip342)" cx="2183.3" cy="346.538" r="14.4" fill="#e26f46" fill-rule="evenodd" fill-opacity="1" stroke="#000000" stroke-opacity="1" stroke-width="3.2"/>
<circle clip-path="url(#clip342)" cx="2289.31" cy="87.9763" r="14.4" fill="#e26f46" fill-rule="evenodd" fill-opacity="1" stroke="#000000" stroke-opacity="1" stroke-width="3.2"/>
<path clip-path="url(#clip340)" d="M2004.4 1438.47 L2278.03 1438.47 L2278.03 1282.95 L2004.4 1282.95  Z" fill="#ffffff" fill-rule="evenodd" fill-opacity="1"/>
<polyline clip-path="url(#clip340)" style="stroke:#000000; stroke-linecap:round; stroke-linejoin:round; stroke-width:4; stroke-opacity:1; fill:none" points="2004.4,1438.47 2278.03,1438.47 2278.03,1282.95 2004.4,1282.95 2004.4,1438.47 "/>
<polyline clip-path="url(#clip340)" style="stroke:#009af9; stroke-linecap:round; stroke-linejoin:round; stroke-width:8; stroke-opacity:1; fill:none" points="2029.3,1334.79 2178.76,1334.79 "/>
<path clip-path="url(#clip340)" d="M2220.18 1316.06 L2220.18 1319.6 L2216.1 1319.6 Q2213.81 1319.6 2212.91 1320.52 Q2212.03 1321.45 2212.03 1323.86 L2212.03 1326.15 L2219.04 1326.15 L2219.04 1329.46 L2212.03 1329.46 L2212.03 1352.07 L2207.75 1352.07 L2207.75 1329.46 L2203.67 1329.46 L2203.67 1326.15 L2207.75 1326.15 L2207.75 1324.34 Q2207.75 1320.01 2209.76 1318.05 Q2211.77 1316.06 2216.15 1316.06 L2220.18 1316.06 Z" fill="#000000" fill-rule="nonzero" fill-opacity="1" /><path clip-path="url(#clip340)" d="M2227.77 1317.51 L2227.77 1330.36 L2223.83 1330.36 L2223.83 1317.51 L2227.77 1317.51 Z" fill="#000000" fill-rule="nonzero" fill-opacity="1" /><circle clip-path="url(#clip340)" cx="2104.03" cy="1386.63" r="20.48" fill="#e26f46" fill-rule="evenodd" fill-opacity="1" stroke="#000000" stroke-opacity="1" stroke-width="4.55111"/>
<path clip-path="url(#clip340)" d="M2208.35 1373.2 L2208.35 1400.07 L2214 1400.07 Q2221.15 1400.07 2224.46 1396.83 Q2227.79 1393.59 2227.79 1386.6 Q2227.79 1379.66 2224.46 1376.44 Q2221.15 1373.2 2214 1373.2 L2208.35 1373.2 M2203.67 1369.35 L2213.28 1369.35 Q2223.33 1369.35 2228.02 1373.54 Q2232.72 1377.71 2232.72 1386.6 Q2232.72 1395.53 2228 1399.72 Q2223.28 1403.91 2213.28 1403.91 L2203.67 1403.91 L2203.67 1369.35 Z" fill="#000000" fill-rule="nonzero" fill-opacity="1" /><path clip-path="url(#clip340)" d="M2253.12 1367.9 L2253.12 1371.44 L2249.04 1371.44 Q2246.75 1371.44 2245.85 1372.36 Q2244.97 1373.29 2244.97 1375.7 L2244.97 1377.99 L2251.98 1377.99 L2251.98 1381.3 L2244.97 1381.3 L2244.97 1403.91 L2240.69 1403.91 L2240.69 1381.3 L2236.61 1381.3 L2236.61 1377.99 L2240.69 1377.99 L2240.69 1376.18 Q2240.69 1371.85 2242.7 1369.89 Q2244.71 1367.9 2249.09 1367.9 L2253.12 1367.9 Z" fill="#000000" fill-rule="nonzero" fill-opacity="1" /></svg>
