<?xml version="1.0" encoding="utf-8"?>
<svg xmlns="http://www.w3.org/2000/svg" xmlns:xlink="http://www.w3.org/1999/xlink" width="600" height="400" viewBox="0 0 2400 1600">
<defs>
  <clipPath id="clip060">
    <rect x="0" y="0" width="2400" height="1600"/>
  </clipPath>
</defs>
<path clip-path="url(#clip060)" d="M0 1600 L2400 1600 L2400 0 L0 0  Z" fill="#ffffff" fill-rule="evenodd" fill-opacity="1"/>
<defs>
  <clipPath id="clip061">
    <rect x="480" y="0" width="1681" height="1600"/>
  </clipPath>
</defs>
<path clip-path="url(#clip060)" d="M224.098 1423.18 L2352.76 1423.18 L2352.76 123.472 L224.098 123.472  Z" fill="#ffffff" fill-rule="evenodd" fill-opacity="1"/>
<defs>
  <clipPath id="clip062">
    <rect x="224" y="123" width="2130" height="1301"/>
  </clipPath>
</defs>
<polyline clip-path="url(#clip062)" style="stroke:#000000; stroke-linecap:round; stroke-linejoin:round; stroke-width:2; stroke-opacity:0.1; fill:none" points="224.098,1423.18 224.098,123.472 "/>
<polyline clip-path="url(#clip062)" style="stroke:#000000; stroke-linecap:round; stroke-linejoin:round; stroke-width:2; stroke-opacity:0.1; fill:none" points="756.262,1423.18 756.262,123.472 "/>
<polyline clip-path="url(#clip062)" style="stroke:#000000; stroke-linecap:round; stroke-linejoin:round; stroke-width:2; stroke-opacity:0.1; fill:none" points="1288.43,1423.18 1288.43,123.472 "/>
<polyline clip-path="url(#clip062)" style="stroke:#000000; stroke-linecap:round; stroke-linejoin:round; stroke-width:2; stroke-opacity:0.1; fill:none" points="1820.59,1423.18 1820.59,123.472 "/>
<polyline clip-path="url(#clip062)" style="stroke:#000000; stroke-linecap:round; stroke-linejoin:round; stroke-width:2; stroke-opacity:0.1; fill:none" points="2352.76,1423.18 2352.76,123.472 "/>
<polyline clip-path="url(#clip062)" style="stroke:#000000; stroke-linecap:round; stroke-linejoin:round; stroke-width:2; stroke-opacity:0.1; fill:none" points="224.098,1266.84 2352.76,1266.84 "/>
<polyline clip-path="url(#clip062)" style="stroke:#000000; stroke-linecap:round; stroke-linejoin:round; stroke-width:2; stroke-opacity:0.1; fill:none" points="224.098,1102.34 2352.76,1102.34 "/>
<polyline clip-path="url(#clip062)" style="stroke:#000000; stroke-linecap:round; stroke-linejoin:round; stroke-width:2; stroke-opacity:0.1; fill:none" points="224.098,937.831 2352.76,937.831 "/>
<polyline clip-path="url(#clip062)" style="stroke:#000000; stroke-linecap:round; stroke-linejoin:round; stroke-width:2; stroke-opacity:0.1; fill:none" points="224.098,773.326 2352.76,773.326 "/>
<polyline clip-path="url(#clip062)" style="stroke:#000000; stroke-linecap:round; stroke-linejoin:round; stroke-width:2; stroke-opacity:0.1; fill:none" points="224.098,608.821 2352.76,608.821 "/>
<polyline clip-path="url(#clip062)" style="stroke:#000000; stroke-linecap:round; stroke-linejoin:round; stroke-width:2; stroke-opacity:0.1; fill:none" points="224.098,444.316 2352.76,444.316 "/>
<polyline clip-path="url(#clip062)" style="stroke:#000000; stroke-linecap:round; stroke-linejoin:round; stroke-width:2; stroke-opacity:0.1; fill:none" points="224.098,279.81 2352.76,279.81 "/>
<polyline clip-path="url(#clip060)" style="stroke:#000000; stroke-linecap:round; stroke-linejoin:round; stroke-width:4; stroke-opacity:1; fill:none" points="224.098,1423.18 2352.76,1423.18 "/>
<polyline clip-path="url(#clip060)" style="stroke:#000000; stroke-linecap:round; stroke-linejoin:round; stroke-width:4; stroke-opacity:1; fill:none" points="224.098,1423.18 224.098,1404.28 "/>
<polyline clip-path="url(#clip060)" style="stroke:#000000; stroke-linecap:round; stroke-linejoin:round; stroke-width:4; stroke-opacity:1; fill:none" points="756.262,1423.18 756.262,1404.28 "/>
<polyline clip-path="url(#clip060)" style="stroke:#000000; stroke-linecap:round; stroke-linejoin:round; stroke-width:4; stroke-opacity:1; fill:none" points="1288.43,1423.18 1288.43,1404.28 "/>
<polyline clip-path="url(#clip060)" style="stroke:#000000; stroke-linecap:round; stroke-linejoin:round; stroke-width:4; stroke-opacity:1; fill:none" points="1820.59,1423.18 1820.59,1404.28 "/>
<polyline clip-path="url(#clip060)" style="stroke:#000000; stroke-linecap:round; stroke-linejoin:round; stroke-width:4; stroke-opacity:1; fill:none" points="2352.76,1423.18 2352.76,1404.28 "/>
<path clip-path="url(#clip060)" d="M170.626 1468.75 L200.302 1468.75 L200.302 1472.69 L170.626 1472.69 L170.626 1468.75 Z" fill="#000000" fill-rule="nonzero" fill-opacity="1" /><path clip-path="url(#clip060)" d="M211.204 1481.64 L218.843 1481.64 L218.843 1455.28 L210.533 1456.95 L210.533 1452.69 L218.797 1451.02 L223.473 1451.02 L223.473 1481.64 L231.112 1481.64 L231.112 1485.58 L211.204 1485.58 L211.204 1481.64 Z" fill="#000000" fill-rule="nonzero" fill-opacity="1" /><path clip-path="url(#clip060)" d="M240.556 1479.7 L245.44 1479.7 L245.44 1485.58 L240.556 1485.58 L240.556 1479.7 Z" fill="#000000" fill-rule="nonzero" fill-opacity="1" /><path clip-path="url(#clip060)" d="M265.625 1454.1 Q262.014 1454.1 260.186 1457.66 Q258.38 1461.2 258.38 1468.33 Q258.38 1475.44 260.186 1479.01 Q262.014 1482.55 265.625 1482.55 Q269.26 1482.55 271.065 1479.01 Q272.894 1475.44 272.894 1468.33 Q272.894 1461.2 271.065 1457.66 Q269.26 1454.1 265.625 1454.1 M265.625 1450.39 Q271.436 1450.39 274.491 1455 Q277.57 1459.58 277.57 1468.33 Q277.57 1477.06 274.491 1481.67 Q271.436 1486.25 265.625 1486.25 Q259.815 1486.25 256.737 1481.67 Q253.681 1477.06 253.681 1468.33 Q253.681 1459.58 256.737 1455 Q259.815 1450.39 265.625 1450.39 Z" fill="#000000" fill-rule="nonzero" fill-opacity="1" /><path clip-path="url(#clip060)" d="M703.288 1468.75 L732.964 1468.75 L732.964 1472.69 L703.288 1472.69 L703.288 1468.75 Z" fill="#000000" fill-rule="nonzero" fill-opacity="1" /><path clip-path="url(#clip060)" d="M753.056 1454.1 Q749.445 1454.1 747.617 1457.66 Q745.811 1461.2 745.811 1468.33 Q745.811 1475.44 747.617 1479.01 Q749.445 1482.55 753.056 1482.55 Q756.691 1482.55 758.496 1479.01 Q760.325 1475.44 760.325 1468.33 Q760.325 1461.2 758.496 1457.66 Q756.691 1454.1 753.056 1454.1 M753.056 1450.39 Q758.867 1450.39 761.922 1455 Q765.001 1459.58 765.001 1468.33 Q765.001 1477.06 761.922 1481.67 Q758.867 1486.25 753.056 1486.25 Q747.246 1486.25 744.168 1481.67 Q741.112 1477.06 741.112 1468.33 Q741.112 1459.58 744.168 1455 Q747.246 1450.39 753.056 1450.39 Z" fill="#000000" fill-rule="nonzero" fill-opacity="1" /><path clip-path="url(#clip060)" d="M773.218 1479.7 L778.103 1479.7 L778.103 1485.58 L773.218 1485.58 L773.218 1479.7 Z" fill="#000000" fill-rule="nonzero" fill-opacity="1" /><path clip-path="url(#clip060)" d="M788.334 1451.02 L806.69 1451.02 L806.69 1454.96 L792.616 1454.96 L792.616 1463.43 Q793.635 1463.08 794.653 1462.92 Q795.672 1462.73 796.69 1462.73 Q802.477 1462.73 805.857 1465.9 Q809.237 1469.08 809.237 1474.49 Q809.237 1480.07 805.764 1483.17 Q802.292 1486.25 795.973 1486.25 Q793.797 1486.25 791.528 1485.88 Q789.283 1485.51 786.876 1484.77 L786.876 1480.07 Q788.959 1481.2 791.181 1481.76 Q793.403 1482.32 795.88 1482.32 Q799.885 1482.32 802.223 1480.21 Q804.561 1478.1 804.561 1474.49 Q804.561 1470.88 802.223 1468.77 Q799.885 1466.67 795.88 1466.67 Q794.005 1466.67 792.13 1467.08 Q790.278 1467.5 788.334 1468.38 L788.334 1451.02 Z" fill="#000000" fill-rule="nonzero" fill-opacity="1" /><path clip-path="url(#clip060)" d="M1265.81 1454.1 Q1262.2 1454.1 1260.37 1457.66 Q1258.57 1461.2 1258.57 1468.33 Q1258.57 1475.44 1260.37 1479.01 Q1262.2 1482.55 1265.81 1482.55 Q1269.45 1482.55 1271.25 1479.01 Q1273.08 1475.44 1273.08 1468.33 Q1273.08 1461.2 1271.25 1457.66 Q1269.45 1454.1 1265.81 1454.1 M1265.81 1450.39 Q1271.62 1450.39 1274.68 1455 Q1277.76 1459.58 1277.76 1468.33 Q1277.76 1477.06 1274.68 1481.67 Q1271.62 1486.25 1265.81 1486.25 Q1260 1486.25 1256.92 1481.67 Q1253.87 1477.06 1253.87 1468.33 Q1253.87 1459.58 1256.92 1455 Q1260 1450.39 1265.81 1450.39 Z" fill="#000000" fill-rule="nonzero" fill-opacity="1" /><path clip-path="url(#clip060)" d="M1285.97 1479.7 L1290.86 1479.7 L1290.86 1485.58 L1285.97 1485.58 L1285.97 1479.7 Z" fill="#000000" fill-rule="nonzero" fill-opacity="1" /><path clip-path="url(#clip060)" d="M1311.04 1454.1 Q1307.43 1454.1 1305.6 1457.66 Q1303.8 1461.2 1303.8 1468.33 Q1303.8 1475.44 1305.6 1479.01 Q1307.43 1482.55 1311.04 1482.55 Q1314.68 1482.55 1316.48 1479.01 Q1318.31 1475.44 1318.31 1468.33 Q1318.31 1461.2 1316.48 1457.66 Q1314.68 1454.1 1311.04 1454.1 M1311.04 1450.39 Q1316.85 1450.39 1319.91 1455 Q1322.99 1459.58 1322.99 1468.33 Q1322.99 1477.06 1319.91 1481.67 Q1316.85 1486.25 1311.04 1486.25 Q1305.23 1486.25 1302.15 1481.67 Q1299.1 1477.06 1299.1 1468.33 Q1299.1 1459.58 1302.15 1455 Q1305.23 1450.39 1311.04 1450.39 Z" fill="#000000" fill-rule="nonzero" fill-opacity="1" /><path clip-path="url(#clip060)" d="M1798.47 1454.1 Q1794.86 1454.1 1793.03 1457.66 Q1791.23 1461.2 1791.23 1468.33 Q1791.23 1475.44 1793.03 1479.01 Q1794.86 1482.55 1798.47 1482.55 Q1802.11 1482.55 1803.91 1479.01 Q1805.74 1475.44 1805.74 1468.33 Q1805.74 1461.2 1803.91 1457.66 Q1802.11 1454.1 1798.47 1454.1 M1798.47 1450.39 Q1804.28 1450.39 1807.34 1455 Q1810.42 1459.58 1810.42 1468.33 Q1810.42 1477.06 1807.34 1481.67 Q1804.28 1486.25 1798.47 1486.25 Q1792.66 1486.25 1789.58 1481.67 Q1786.53 1477.06 1786.53 1468.33 Q1786.53 1459.58 1789.58 1455 Q1792.66 1450.39 1798.47 1450.39 Z" fill="#000000" fill-rule="nonzero" fill-opacity="1" /><path clip-path="url(#clip060)" d="M1818.64 1479.7 L1823.52 1479.7 L1823.52 1485.58 L1818.64 1485.58 L1818.64 1479.7 Z" fill="#000000" fill-rule="nonzero" fill-opacity="1" /><path clip-path="url(#clip060)" d="M1833.75 1451.02 L1852.11 1451.02 L1852.11 1454.96 L1838.03 1454.96 L1838.03 1463.43 Q1839.05 1463.08 1840.07 1462.92 Q1841.09 1462.73 1842.11 1462.73 Q1847.89 1462.73 1851.27 1465.9 Q1854.65 1469.08 1854.65 1474.49 Q1854.65 1480.07 1851.18 1483.17 Q1847.71 1486.25 1841.39 1486.25 Q1839.21 1486.25 1836.95 1485.88 Q1834.7 1485.51 1832.29 1484.77 L1832.29 1480.07 Q1834.38 1481.2 1836.6 1481.76 Q1838.82 1482.32 1841.3 1482.32 Q1845.3 1482.32 1847.64 1480.21 Q1849.98 1478.1 1849.98 1474.49 Q1849.98 1470.88 1847.64 1468.77 Q1845.3 1466.67 1841.3 1466.67 Q1839.42 1466.67 1837.55 1467.08 Q1835.7 1467.5 1833.75 1468.38 L1833.75 1451.02 Z" fill="#000000" fill-rule="nonzero" fill-opacity="1" /><path clip-path="url(#clip060)" d="M2319.91 1481.64 L2327.55 1481.64 L2327.55 1455.28 L2319.24 1456.95 L2319.24 1452.69 L2327.5 1451.02 L2332.18 1451.02 L2332.18 1481.64 L2339.82 1481.64 L2339.82 1485.58 L2319.91 1485.58 L2319.91 1481.64 Z" fill="#000000" fill-rule="nonzero" fill-opacity="1" /><path clip-path="url(#clip060)" d="M2349.26 1479.7 L2354.14 1479.7 L2354.14 1485.58 L2349.26 1485.58 L2349.26 1479.7 Z" fill="#000000" fill-rule="nonzero" fill-opacity="1" /><path clip-path="url(#clip060)" d="M2374.33 1454.1 Q2370.72 1454.1 2368.89 1457.66 Q2367.08 1461.2 2367.08 1468.33 Q2367.08 1475.44 2368.89 1479.01 Q2370.72 1482.55 2374.33 1482.55 Q2377.96 1482.55 2379.77 1479.01 Q2381.6 1475.44 2381.6 1468.33 Q2381.6 1461.2 2379.77 1457.66 Q2377.96 1454.1 2374.33 1454.1 M2374.33 1450.39 Q2380.14 1450.39 2383.2 1455 Q2386.27 1459.58 2386.27 1468.33 Q2386.27 1477.06 2383.2 1481.67 Q2380.14 1486.25 2374.33 1486.25 Q2368.52 1486.25 2365.44 1481.67 Q2362.39 1477.06 2362.39 1468.33 Q2362.39 1459.58 2365.44 1455 Q2368.52 1450.39 2374.33 1450.39 Z" fill="#000000" fill-rule="nonzero" fill-opacity="1" /><path clip-path="url(#clip060)" d="M1302.6 1528.8 Q1302.6 1530.61 1301.47 1531.64 Q1300.35 1532.64 1299.06 1532.64 Q1297.83 1532.64 1297.19 1531.93 Q1296.55 1531.22 1296.55 1530.32 Q1296.55 1529.09 1297.45 1528.03 Q1298.35 1526.97 1299.7 1526.74 Q1298.38 1525.91 1296.42 1525.91 Q1295.13 1525.91 1294 1526.58 Q1292.91 1527.26 1292.23 1528.13 Q1291.59 1529 1291.01 1530.25 Q1290.46 1531.48 1290.23 1532.22 Q1290.04 1532.93 1289.88 1533.7 L1287.62 1542.72 Q1286.53 1547 1286.53 1548.51 Q1286.53 1550.38 1287.43 1551.64 Q1288.33 1552.86 1290.14 1552.86 Q1290.85 1552.86 1291.65 1552.67 Q1292.46 1552.44 1293.49 1551.86 Q1294.55 1551.25 1295.48 1550.35 Q1296.45 1549.42 1297.38 1547.84 Q1298.32 1546.26 1298.93 1544.23 Q1299.12 1543.52 1299.77 1543.52 Q1300.57 1543.52 1300.57 1544.17 Q1300.57 1544.71 1300.12 1545.87 Q1299.7 1547 1298.77 1548.48 Q1297.87 1549.93 1296.67 1551.25 Q1295.48 1552.54 1293.71 1553.44 Q1291.94 1554.34 1290.01 1554.34 Q1287.24 1554.34 1285.4 1552.86 Q1283.57 1551.38 1282.89 1549.32 Q1282.73 1549.61 1282.5 1550 Q1282.28 1550.38 1281.6 1551.25 Q1280.96 1552.09 1280.22 1552.73 Q1279.48 1553.34 1278.32 1553.83 Q1277.19 1554.34 1275.97 1554.34 Q1274.42 1554.34 1273.04 1553.89 Q1271.68 1553.44 1270.72 1552.41 Q1269.75 1551.38 1269.75 1549.96 Q1269.75 1548.38 1270.81 1547.29 Q1271.91 1546.16 1273.39 1546.16 Q1274.32 1546.16 1275.06 1546.71 Q1275.84 1547.26 1275.84 1548.45 Q1275.84 1549.77 1274.94 1550.77 Q1274.03 1551.77 1272.75 1552.02 Q1274.07 1552.86 1276.03 1552.86 Q1278.16 1552.86 1279.83 1550.99 Q1281.51 1549.13 1282.31 1546 Q1284.31 1538.5 1285.08 1535.15 Q1285.85 1531.77 1285.85 1530.32 Q1285.85 1528.96 1285.5 1528.03 Q1285.14 1527.1 1284.53 1526.68 Q1283.95 1526.23 1283.41 1526.07 Q1282.89 1525.91 1282.31 1525.91 Q1281.34 1525.91 1280.25 1526.29 Q1279.19 1526.68 1277.9 1527.58 Q1276.64 1528.45 1275.45 1530.25 Q1274.26 1532.06 1273.45 1534.54 Q1273.29 1535.28 1272.58 1535.28 Q1271.81 1535.24 1271.81 1534.6 Q1271.81 1534.05 1272.23 1532.93 Q1272.68 1531.77 1273.58 1530.32 Q1274.52 1528.87 1275.71 1527.58 Q1276.93 1526.26 1278.7 1525.36 Q1280.51 1524.46 1282.44 1524.46 Q1283.31 1524.46 1284.15 1524.65 Q1285.02 1524.81 1286.05 1525.29 Q1287.11 1525.78 1288.04 1526.84 Q1288.98 1527.9 1289.56 1529.45 Q1289.94 1528.71 1290.46 1528 Q1291.01 1527.29 1291.84 1526.42 Q1292.71 1525.52 1293.9 1525 Q1295.13 1524.46 1296.48 1524.46 Q1297.8 1524.46 1299.09 1524.81 Q1300.38 1525.13 1301.47 1526.19 Q1302.6 1527.23 1302.6 1528.8 Z" fill="#000000" fill-rule="nonzero" fill-opacity="1" /><polyline clip-path="url(#clip060)" style="stroke:#000000; stroke-linecap:round; stroke-linejoin:round; stroke-width:4; stroke-opacity:1; fill:none" points="224.098,1423.18 224.098,123.472 "/>
<polyline clip-path="url(#clip060)" style="stroke:#000000; stroke-linecap:round; stroke-linejoin:round; stroke-width:4; stroke-opacity:1; fill:none" points="224.098,1266.84 242.996,1266.84 "/>
<polyline clip-path="url(#clip060)" style="stroke:#000000; stroke-linecap:round; stroke-linejoin:round; stroke-width:4; stroke-opacity:1; fill:none" points="224.098,1102.34 242.996,1102.34 "/>
<polyline clip-path="url(#clip060)" style="stroke:#000000; stroke-linecap:round; stroke-linejoin:round; stroke-width:4; stroke-opacity:1; fill:none" points="224.098,937.831 242.996,937.831 "/>
<polyline clip-path="url(#clip060)" style="stroke:#000000; stroke-linecap:round; stroke-linejoin:round; stroke-width:4; stroke-opacity:1; fill:none" points="224.098,773.326 242.996,773.326 "/>
<polyline clip-path="url(#clip060)" style="stroke:#000000; stroke-linecap:round; stroke-linejoin:round; stroke-width:4; stroke-opacity:1; fill:none" points="224.098,608.821 242.996,608.821 "/>
<polyline clip-path="url(#clip060)" style="stroke:#000000; stroke-linecap:round; stroke-linejoin:round; stroke-width:4; stroke-opacity:1; fill:none" points="224.098,444.316 242.996,444.316 "/>
<polyline clip-path="url(#clip060)" style="stroke:#000000; stroke-linecap:round; stroke-linejoin:round; stroke-width:4; stroke-opacity:1; fill:none" points="224.098,279.81 242.996,279.81 "/>
<path clip-path="url(#clip060)" d="M51.9875 1267.29 L81.6633 1267.29 L81.6633 1271.23 L51.9875 1271.23 L51.9875 1267.29 Z" fill="#000000" fill-rule="nonzero" fill-opacity="1" /><path clip-path="url(#clip060)" d="M101.756 1252.64 Q98.1447 1252.64 96.316 1256.21 Q94.5104 1259.75 94.5104 1266.88 Q94.5104 1273.98 96.316 1277.55 Q98.1447 1281.09 101.756 1281.09 Q105.39 1281.09 107.196 1277.55 Q109.024 1273.98 109.024 1266.88 Q109.024 1259.75 107.196 1256.21 Q105.39 1252.64 101.756 1252.64 M101.756 1248.94 Q107.566 1248.94 110.621 1253.54 Q113.7 1258.13 113.7 1266.88 Q113.7 1275.6 110.621 1280.21 Q107.566 1284.79 101.756 1284.79 Q95.9456 1284.79 92.8669 1280.21 Q89.8114 1275.6 89.8114 1266.88 Q89.8114 1258.13 92.8669 1253.54 Q95.9456 1248.94 101.756 1248.94 Z" fill="#000000" fill-rule="nonzero" fill-opacity="1" /><path clip-path="url(#clip060)" d="M121.918 1278.24 L126.802 1278.24 L126.802 1284.12 L121.918 1284.12 L121.918 1278.24 Z" fill="#000000" fill-rule="nonzero" fill-opacity="1" /><path clip-path="url(#clip060)" d="M135.806 1249.56 L158.029 1249.56 L158.029 1251.55 L145.482 1284.12 L140.598 1284.12 L152.404 1253.5 L135.806 1253.5 L135.806 1249.56 Z" fill="#000000" fill-rule="nonzero" fill-opacity="1" /><path clip-path="url(#clip060)" d="M167.195 1249.56 L185.552 1249.56 L185.552 1253.5 L171.478 1253.5 L171.478 1261.97 Q172.496 1261.62 173.515 1261.46 Q174.533 1261.27 175.552 1261.27 Q181.339 1261.27 184.718 1264.45 Q188.098 1267.62 188.098 1273.03 Q188.098 1278.61 184.626 1281.71 Q181.153 1284.79 174.834 1284.79 Q172.658 1284.79 170.39 1284.42 Q168.144 1284.05 165.737 1283.31 L165.737 1278.61 Q167.82 1279.75 170.042 1280.3 Q172.265 1280.86 174.741 1280.86 Q178.746 1280.86 181.084 1278.75 Q183.422 1276.64 183.422 1273.03 Q183.422 1269.42 181.084 1267.32 Q178.746 1265.21 174.741 1265.21 Q172.866 1265.21 170.991 1265.63 Q169.14 1266.04 167.195 1266.92 L167.195 1249.56 Z" fill="#000000" fill-rule="nonzero" fill-opacity="1" /><path clip-path="url(#clip060)" d="M50.9921 1102.79 L80.6679 1102.79 L80.6679 1106.72 L50.9921 1106.72 L50.9921 1102.79 Z" fill="#000000" fill-rule="nonzero" fill-opacity="1" /><path clip-path="url(#clip060)" d="M100.76 1088.14 Q97.1493 1088.14 95.3206 1091.7 Q93.515 1095.24 93.515 1102.37 Q93.515 1109.48 95.3206 1113.04 Q97.1493 1116.58 100.76 1116.58 Q104.395 1116.58 106.2 1113.04 Q108.029 1109.48 108.029 1102.37 Q108.029 1095.24 106.2 1091.7 Q104.395 1088.14 100.76 1088.14 M100.76 1084.43 Q106.571 1084.43 109.626 1089.04 Q112.705 1093.62 112.705 1102.37 Q112.705 1111.1 109.626 1115.7 Q106.571 1120.29 100.76 1120.29 Q94.9502 1120.29 91.8715 1115.7 Q88.816 1111.1 88.816 1102.37 Q88.816 1093.62 91.8715 1089.04 Q94.9502 1084.43 100.76 1084.43 Z" fill="#000000" fill-rule="nonzero" fill-opacity="1" /><path clip-path="url(#clip060)" d="M120.922 1113.74 L125.807 1113.74 L125.807 1119.62 L120.922 1119.62 L120.922 1113.74 Z" fill="#000000" fill-rule="nonzero" fill-opacity="1" /><path clip-path="url(#clip060)" d="M136.038 1085.06 L154.394 1085.06 L154.394 1088.99 L140.32 1088.99 L140.32 1097.46 Q141.339 1097.12 142.357 1096.95 Q143.376 1096.77 144.394 1096.77 Q150.181 1096.77 153.561 1099.94 Q156.941 1103.11 156.941 1108.53 Q156.941 1114.11 153.468 1117.21 Q149.996 1120.29 143.677 1120.29 Q141.501 1120.29 139.232 1119.92 Q136.987 1119.55 134.58 1118.81 L134.58 1114.11 Q136.663 1115.24 138.885 1115.8 Q141.107 1116.35 143.584 1116.35 Q147.589 1116.35 149.927 1114.25 Q152.265 1112.14 152.265 1108.53 Q152.265 1104.92 149.927 1102.81 Q147.589 1100.7 143.584 1100.7 Q141.709 1100.7 139.834 1101.12 Q137.982 1101.54 136.038 1102.42 L136.038 1085.06 Z" fill="#000000" fill-rule="nonzero" fill-opacity="1" /><path clip-path="url(#clip060)" d="M176.153 1088.14 Q172.542 1088.14 170.714 1091.7 Q168.908 1095.24 168.908 1102.37 Q168.908 1109.48 170.714 1113.04 Q172.542 1116.58 176.153 1116.58 Q179.788 1116.58 181.593 1113.04 Q183.422 1109.48 183.422 1102.37 Q183.422 1095.24 181.593 1091.7 Q179.788 1088.14 176.153 1088.14 M176.153 1084.43 Q181.964 1084.43 185.019 1089.04 Q188.098 1093.62 188.098 1102.37 Q188.098 1111.1 185.019 1115.7 Q181.964 1120.29 176.153 1120.29 Q170.343 1120.29 167.265 1115.7 Q164.209 1111.1 164.209 1102.37 Q164.209 1093.62 167.265 1089.04 Q170.343 1084.43 176.153 1084.43 Z" fill="#000000" fill-rule="nonzero" fill-opacity="1" /><path clip-path="url(#clip060)" d="M51.9875 938.283 L81.6633 938.283 L81.6633 942.218 L51.9875 942.218 L51.9875 938.283 Z" fill="#000000" fill-rule="nonzero" fill-opacity="1" /><path clip-path="url(#clip060)" d="M101.756 923.63 Q98.1447 923.63 96.316 927.195 Q94.5104 930.736 94.5104 937.866 Q94.5104 944.972 96.316 948.537 Q98.1447 952.079 101.756 952.079 Q105.39 952.079 107.196 948.537 Q109.024 944.972 109.024 937.866 Q109.024 930.736 107.196 927.195 Q105.39 923.63 101.756 923.63 M101.756 919.926 Q107.566 919.926 110.621 924.533 Q113.7 929.116 113.7 937.866 Q113.7 946.593 110.621 951.199 Q107.566 955.782 101.756 955.782 Q95.9456 955.782 92.8669 951.199 Q89.8114 946.593 89.8114 937.866 Q89.8114 929.116 92.8669 924.533 Q95.9456 919.926 101.756 919.926 Z" fill="#000000" fill-rule="nonzero" fill-opacity="1" /><path clip-path="url(#clip060)" d="M121.918 949.232 L126.802 949.232 L126.802 955.111 L121.918 955.111 L121.918 949.232 Z" fill="#000000" fill-rule="nonzero" fill-opacity="1" /><path clip-path="url(#clip060)" d="M141.015 951.176 L157.334 951.176 L157.334 955.111 L135.39 955.111 L135.39 951.176 Q138.052 948.421 142.635 943.792 Q147.242 939.139 148.422 937.796 Q150.668 935.273 151.547 933.537 Q152.45 931.778 152.45 930.088 Q152.45 927.334 150.505 925.597 Q148.584 923.861 145.482 923.861 Q143.283 923.861 140.83 924.625 Q138.399 925.389 135.621 926.94 L135.621 922.218 Q138.445 921.084 140.899 920.505 Q143.353 919.926 145.39 919.926 Q150.76 919.926 153.955 922.611 Q157.149 925.297 157.149 929.787 Q157.149 931.917 156.339 933.838 Q155.552 935.736 153.445 938.329 Q152.867 939 149.765 942.218 Q146.663 945.412 141.015 951.176 Z" fill="#000000" fill-rule="nonzero" fill-opacity="1" /><path clip-path="url(#clip060)" d="M167.195 920.551 L185.552 920.551 L185.552 924.486 L171.478 924.486 L171.478 932.959 Q172.496 932.611 173.515 932.449 Q174.533 932.264 175.552 932.264 Q181.339 932.264 184.718 935.435 Q188.098 938.607 188.098 944.023 Q188.098 949.602 184.626 952.704 Q181.153 955.782 174.834 955.782 Q172.658 955.782 170.39 955.412 Q168.144 955.042 165.737 954.301 L165.737 949.602 Q167.82 950.736 170.042 951.292 Q172.265 951.847 174.741 951.847 Q178.746 951.847 181.084 949.741 Q183.422 947.634 183.422 944.023 Q183.422 940.412 181.084 938.306 Q178.746 936.199 174.741 936.199 Q172.866 936.199 170.991 936.616 Q169.14 937.033 167.195 937.912 L167.195 920.551 Z" fill="#000000" fill-rule="nonzero" fill-opacity="1" /><path clip-path="url(#clip060)" d="M100.76 759.125 Q97.1493 759.125 95.3206 762.689 Q93.515 766.231 93.515 773.361 Q93.515 780.467 95.3206 784.032 Q97.1493 787.574 100.76 787.574 Q104.395 787.574 106.2 784.032 Q108.029 780.467 108.029 773.361 Q108.029 766.231 106.2 762.689 Q104.395 759.125 100.76 759.125 M100.76 755.421 Q106.571 755.421 109.626 760.027 Q112.705 764.611 112.705 773.361 Q112.705 782.088 109.626 786.694 Q106.571 791.277 100.76 791.277 Q94.9502 791.277 91.8715 786.694 Q88.816 782.088 88.816 773.361 Q88.816 764.611 91.8715 760.027 Q94.9502 755.421 100.76 755.421 Z" fill="#000000" fill-rule="nonzero" fill-opacity="1" /><path clip-path="url(#clip060)" d="M120.922 784.726 L125.807 784.726 L125.807 790.606 L120.922 790.606 L120.922 784.726 Z" fill="#000000" fill-rule="nonzero" fill-opacity="1" /><path clip-path="url(#clip060)" d="M145.992 759.125 Q142.381 759.125 140.552 762.689 Q138.746 766.231 138.746 773.361 Q138.746 780.467 140.552 784.032 Q142.381 787.574 145.992 787.574 Q149.626 787.574 151.431 784.032 Q153.26 780.467 153.26 773.361 Q153.26 766.231 151.431 762.689 Q149.626 759.125 145.992 759.125 M145.992 755.421 Q151.802 755.421 154.857 760.027 Q157.936 764.611 157.936 773.361 Q157.936 782.088 154.857 786.694 Q151.802 791.277 145.992 791.277 Q140.181 791.277 137.103 786.694 Q134.047 782.088 134.047 773.361 Q134.047 764.611 137.103 760.027 Q140.181 755.421 145.992 755.421 Z" fill="#000000" fill-rule="nonzero" fill-opacity="1" /><path clip-path="url(#clip060)" d="M176.153 759.125 Q172.542 759.125 170.714 762.689 Q168.908 766.231 168.908 773.361 Q168.908 780.467 170.714 784.032 Q172.542 787.574 176.153 787.574 Q179.788 787.574 181.593 784.032 Q183.422 780.467 183.422 773.361 Q183.422 766.231 181.593 762.689 Q179.788 759.125 176.153 759.125 M176.153 755.421 Q181.964 755.421 185.019 760.027 Q188.098 764.611 188.098 773.361 Q188.098 782.088 185.019 786.694 Q181.964 791.277 176.153 791.277 Q170.343 791.277 167.265 786.694 Q164.209 782.088 164.209 773.361 Q164.209 764.611 167.265 760.027 Q170.343 755.421 176.153 755.421 Z" fill="#000000" fill-rule="nonzero" fill-opacity="1" /><path clip-path="url(#clip060)" d="M101.756 594.619 Q98.1447 594.619 96.316 598.184 Q94.5104 601.726 94.5104 608.856 Q94.5104 615.962 96.316 619.527 Q98.1447 623.068 101.756 623.068 Q105.39 623.068 107.196 619.527 Q109.024 615.962 109.024 608.856 Q109.024 601.726 107.196 598.184 Q105.39 594.619 101.756 594.619 M101.756 590.916 Q107.566 590.916 110.621 595.522 Q113.7 600.106 113.7 608.856 Q113.7 617.582 110.621 622.189 Q107.566 626.772 101.756 626.772 Q95.9456 626.772 92.8669 622.189 Q89.8114 617.582 89.8114 608.856 Q89.8114 600.106 92.8669 595.522 Q95.9456 590.916 101.756 590.916 Z" fill="#000000" fill-rule="nonzero" fill-opacity="1" /><path clip-path="url(#clip060)" d="M121.918 620.221 L126.802 620.221 L126.802 626.101 L121.918 626.101 L121.918 620.221 Z" fill="#000000" fill-rule="nonzero" fill-opacity="1" /><path clip-path="url(#clip060)" d="M141.015 622.166 L157.334 622.166 L157.334 626.101 L135.39 626.101 L135.39 622.166 Q138.052 619.411 142.635 614.781 Q147.242 610.129 148.422 608.786 Q150.668 606.263 151.547 604.527 Q152.45 602.768 152.45 601.078 Q152.45 598.323 150.505 596.587 Q148.584 594.851 145.482 594.851 Q143.283 594.851 140.83 595.615 Q138.399 596.379 135.621 597.93 L135.621 593.207 Q138.445 592.073 140.899 591.495 Q143.353 590.916 145.39 590.916 Q150.76 590.916 153.955 593.601 Q157.149 596.286 157.149 600.777 Q157.149 602.906 156.339 604.828 Q155.552 606.726 153.445 609.318 Q152.867 609.99 149.765 613.207 Q146.663 616.402 141.015 622.166 Z" fill="#000000" fill-rule="nonzero" fill-opacity="1" /><path clip-path="url(#clip060)" d="M167.195 591.541 L185.552 591.541 L185.552 595.476 L171.478 595.476 L171.478 603.948 Q172.496 603.601 173.515 603.439 Q174.533 603.254 175.552 603.254 Q181.339 603.254 184.718 606.425 Q188.098 609.596 188.098 615.013 Q188.098 620.592 184.626 623.693 Q181.153 626.772 174.834 626.772 Q172.658 626.772 170.39 626.402 Q168.144 626.031 165.737 625.291 L165.737 620.592 Q167.82 621.726 170.042 622.281 Q172.265 622.837 174.741 622.837 Q178.746 622.837 181.084 620.73 Q183.422 618.624 183.422 615.013 Q183.422 611.402 181.084 609.295 Q178.746 607.189 174.741 607.189 Q172.866 607.189 170.991 607.606 Q169.14 608.022 167.195 608.902 L167.195 591.541 Z" fill="#000000" fill-rule="nonzero" fill-opacity="1" /><path clip-path="url(#clip060)" d="M100.76 430.114 Q97.1493 430.114 95.3206 433.679 Q93.515 437.221 93.515 444.35 Q93.515 451.457 95.3206 455.022 Q97.1493 458.563 100.76 458.563 Q104.395 458.563 106.2 455.022 Q108.029 451.457 108.029 444.35 Q108.029 437.221 106.2 433.679 Q104.395 430.114 100.76 430.114 M100.76 426.411 Q106.571 426.411 109.626 431.017 Q112.705 435.6 112.705 444.35 Q112.705 453.077 109.626 457.684 Q106.571 462.267 100.76 462.267 Q94.9502 462.267 91.8715 457.684 Q88.816 453.077 88.816 444.35 Q88.816 435.6 91.8715 431.017 Q94.9502 426.411 100.76 426.411 Z" fill="#000000" fill-rule="nonzero" fill-opacity="1" /><path clip-path="url(#clip060)" d="M120.922 455.716 L125.807 455.716 L125.807 461.596 L120.922 461.596 L120.922 455.716 Z" fill="#000000" fill-rule="nonzero" fill-opacity="1" /><path clip-path="url(#clip060)" d="M136.038 427.036 L154.394 427.036 L154.394 430.971 L140.32 430.971 L140.32 439.443 Q141.339 439.096 142.357 438.934 Q143.376 438.749 144.394 438.749 Q150.181 438.749 153.561 441.92 Q156.941 445.091 156.941 450.508 Q156.941 456.086 153.468 459.188 Q149.996 462.267 143.677 462.267 Q141.501 462.267 139.232 461.897 Q136.987 461.526 134.58 460.785 L134.58 456.086 Q136.663 457.221 138.885 457.776 Q141.107 458.332 143.584 458.332 Q147.589 458.332 149.927 456.225 Q152.265 454.119 152.265 450.508 Q152.265 446.897 149.927 444.79 Q147.589 442.684 143.584 442.684 Q141.709 442.684 139.834 443.1 Q137.982 443.517 136.038 444.397 L136.038 427.036 Z" fill="#000000" fill-rule="nonzero" fill-opacity="1" /><path clip-path="url(#clip060)" d="M176.153 430.114 Q172.542 430.114 170.714 433.679 Q168.908 437.221 168.908 444.35 Q168.908 451.457 170.714 455.022 Q172.542 458.563 176.153 458.563 Q179.788 458.563 181.593 455.022 Q183.422 451.457 183.422 444.35 Q183.422 437.221 181.593 433.679 Q179.788 430.114 176.153 430.114 M176.153 426.411 Q181.964 426.411 185.019 431.017 Q188.098 435.6 188.098 444.35 Q188.098 453.077 185.019 457.684 Q181.964 462.267 176.153 462.267 Q170.343 462.267 167.265 457.684 Q164.209 453.077 164.209 444.35 Q164.209 435.6 167.265 431.017 Q170.343 426.411 176.153 426.411 Z" fill="#000000" fill-rule="nonzero" fill-opacity="1" /><path clip-path="url(#clip060)" d="M101.756 265.609 Q98.1447 265.609 96.316 269.174 Q94.5104 272.716 94.5104 279.845 Q94.5104 286.952 96.316 290.516 Q98.1447 294.058 101.756 294.058 Q105.39 294.058 107.196 290.516 Q109.024 286.952 109.024 279.845 Q109.024 272.716 107.196 269.174 Q105.39 265.609 101.756 265.609 M101.756 261.905 Q107.566 261.905 110.621 266.512 Q113.7 271.095 113.7 279.845 Q113.7 288.572 110.621 293.178 Q107.566 297.762 101.756 297.762 Q95.9456 297.762 92.8669 293.178 Q89.8114 288.572 89.8114 279.845 Q89.8114 271.095 92.8669 266.512 Q95.9456 261.905 101.756 261.905 Z" fill="#000000" fill-rule="nonzero" fill-opacity="1" /><path clip-path="url(#clip060)" d="M121.918 291.211 L126.802 291.211 L126.802 297.09 L121.918 297.09 L121.918 291.211 Z" fill="#000000" fill-rule="nonzero" fill-opacity="1" /><path clip-path="url(#clip060)" d="M135.806 262.53 L158.029 262.53 L158.029 264.521 L145.482 297.09 L140.598 297.09 L152.404 266.466 L135.806 266.466 L135.806 262.53 Z" fill="#000000" fill-rule="nonzero" fill-opacity="1" /><path clip-path="url(#clip060)" d="M167.195 262.53 L185.552 262.53 L185.552 266.466 L171.478 266.466 L171.478 274.938 Q172.496 274.591 173.515 274.429 Q174.533 274.243 175.552 274.243 Q181.339 274.243 184.718 277.415 Q188.098 280.586 188.098 286.003 Q188.098 291.581 184.626 294.683 Q181.153 297.762 174.834 297.762 Q172.658 297.762 170.39 297.391 Q168.144 297.021 165.737 296.28 L165.737 291.581 Q167.82 292.715 170.042 293.271 Q172.265 293.827 174.741 293.827 Q178.746 293.827 181.084 291.72 Q183.422 289.614 183.422 286.003 Q183.422 282.391 181.084 280.285 Q178.746 278.179 174.741 278.179 Q172.866 278.179 170.991 278.595 Q169.14 279.012 167.195 279.891 L167.195 262.53 Z" fill="#000000" fill-rule="nonzero" fill-opacity="1" /><path clip-path="url(#clip060)" d="M1199.08 28.5427 L1199.08 35.5912 Q1195.92 33.9709 1192.52 33.1607 Q1189.12 32.3505 1185.47 32.3505 Q1179.92 32.3505 1177.13 34.0519 Q1174.37 35.7533 1174.37 39.156 Q1174.37 41.7486 1176.36 43.2475 Q1178.34 44.7058 1184.34 46.0426 L1186.89 46.6097 Q1194.83 48.3111 1198.15 51.4303 Q1201.51 54.509 1201.51 60.0587 Q1201.51 66.3781 1196.49 70.0644 Q1191.51 73.7508 1182.76 73.7508 Q1179.11 73.7508 1175.14 73.0216 Q1171.21 72.3329 1166.84 70.9151 L1166.84 63.2184 Q1170.97 65.3654 1174.98 66.4591 Q1178.99 67.5124 1182.92 67.5124 Q1188.19 67.5124 1191.02 65.73 Q1193.86 63.9071 1193.86 60.6258 Q1193.86 57.5877 1191.79 55.9673 Q1189.77 54.3469 1182.84 52.8481 L1180.25 52.2405 Q1173.32 50.7821 1170.24 47.7845 Q1167.16 44.7463 1167.16 39.4801 Q1167.16 33.0797 1171.7 29.5959 Q1176.24 26.1121 1184.58 26.1121 Q1188.71 26.1121 1192.36 26.7198 Q1196.01 27.3274 1199.08 28.5427 Z" fill="#000000" fill-rule="nonzero" fill-opacity="1" /><path clip-path="url(#clip060)" d="M1246.03 28.9478 L1246.03 35.9153 Q1242.87 34.1734 1239.67 33.3227 Q1236.51 32.4315 1233.27 32.4315 Q1226.02 32.4315 1222.01 37.0496 Q1218 41.6271 1218 49.9314 Q1218 58.2358 1222.01 62.8538 Q1226.02 67.4314 1233.27 67.4314 Q1236.51 67.4314 1239.67 66.5807 Q1242.87 65.6895 1246.03 63.9476 L1246.03 70.8341 Q1242.91 72.2924 1239.55 73.0216 Q1236.23 73.7508 1232.46 73.7508 Q1222.21 73.7508 1216.18 67.3098 Q1210.14 60.8689 1210.14 49.9314 Q1210.14 38.832 1216.22 32.472 Q1222.34 26.1121 1232.95 26.1121 Q1236.39 26.1121 1239.67 26.8413 Q1242.96 27.5299 1246.03 28.9478 Z" fill="#000000" fill-rule="nonzero" fill-opacity="1" /><path clip-path="url(#clip060)" d="M1279.62 49.7694 Q1270.58 49.7694 1267.1 51.8354 Q1263.62 53.9013 1263.62 58.8839 Q1263.62 62.8538 1266.21 65.2034 Q1268.84 67.5124 1273.34 67.5124 Q1279.54 67.5124 1283.26 63.1374 Q1287.03 58.7219 1287.03 51.4303 L1287.03 49.7694 L1279.62 49.7694 M1294.48 46.6907 L1294.48 72.576 L1287.03 72.576 L1287.03 65.6895 Q1284.48 69.8214 1280.67 71.8063 Q1276.86 73.7508 1271.35 73.7508 Q1264.38 73.7508 1260.25 69.8619 Q1256.16 65.9325 1256.16 59.3701 Q1256.16 51.7138 1261.27 47.825 Q1266.41 43.9361 1276.58 43.9361 L1287.03 43.9361 L1287.03 43.2069 Q1287.03 38.0623 1283.63 35.2672 Q1280.26 32.4315 1274.15 32.4315 Q1270.26 32.4315 1266.57 33.3632 Q1262.89 34.295 1259.48 36.1584 L1259.48 29.2718 Q1263.57 27.692 1267.42 26.9223 Q1271.27 26.1121 1274.92 26.1121 Q1284.76 26.1121 1289.62 31.2163 Q1294.48 36.3204 1294.48 46.6907 Z" fill="#000000" fill-rule="nonzero" fill-opacity="1" /><path clip-path="url(#clip060)" d="M1309.84 9.54393 L1317.29 9.54393 L1317.29 72.576 L1309.84 72.576 L1309.84 9.54393 Z" fill="#000000" fill-rule="nonzero" fill-opacity="1" /><path clip-path="url(#clip060)" d="M1353.5 49.7694 Q1344.47 49.7694 1340.99 51.8354 Q1337.5 53.9013 1337.5 58.8839 Q1337.5 62.8538 1340.1 65.2034 Q1342.73 67.5124 1347.23 67.5124 Q1353.42 67.5124 1357.15 63.1374 Q1360.92 58.7219 1360.92 51.4303 L1360.92 49.7694 L1353.5 49.7694 M1368.37 46.6907 L1368.37 72.576 L1360.92 72.576 L1360.92 65.6895 Q1358.37 69.8214 1354.56 71.8063 Q1350.75 73.7508 1345.24 73.7508 Q1338.27 73.7508 1334.14 69.8619 Q1330.05 65.9325 1330.05 59.3701 Q1330.05 51.7138 1335.15 47.825 Q1340.3 43.9361 1350.47 43.9361 L1360.92 43.9361 L1360.92 43.2069 Q1360.92 38.0623 1357.52 35.2672 Q1354.15 32.4315 1348.04 32.4315 Q1344.15 32.4315 1340.46 33.3632 Q1336.77 34.295 1333.37 36.1584 L1333.37 29.2718 Q1337.46 27.692 1341.31 26.9223 Q1345.16 26.1121 1348.81 26.1121 Q1358.65 26.1121 1363.51 31.2163 Q1368.37 36.3204 1368.37 46.6907 Z" fill="#000000" fill-rule="nonzero" fill-opacity="1" /><path clip-path="url(#clip060)" d="M1410.01 34.1734 Q1408.76 33.4443 1407.26 33.1202 Q1405.8 32.7556 1404.02 32.7556 Q1397.7 32.7556 1394.3 36.8875 Q1390.94 40.9789 1390.94 48.6757 L1390.94 72.576 L1383.44 72.576 L1383.44 27.2059 L1390.94 27.2059 L1390.94 34.2544 Q1393.28 30.1225 1397.05 28.1376 Q1400.82 26.1121 1406.21 26.1121 Q1406.98 26.1121 1407.91 26.2337 Q1408.84 26.3147 1409.97 26.5172 L1410.01 34.1734 Z" fill="#000000" fill-rule="nonzero" fill-opacity="1" /><polyline clip-path="url(#clip062)" style="stroke:#009af9; stroke-linecap:round; stroke-linejoin:round; stroke-width:4; stroke-opacity:1; fill:none" points="224.098,308.035 225.286,307.75 226.474,307.464 227.661,307.179 228.849,306.894 230.037,306.609 231.225,306.325 232.413,306.04 232.413,306.04 233.601,305.756 234.789,305.472 235.977,305.188 237.164,304.904 238.352,304.62 239.54,304.337 240.728,304.054 240.728,304.054 241.916,303.771 243.104,303.488 244.292,303.205 245.479,302.922 246.667,302.64 247.855,302.358 249.043,302.076 249.043,302.076 250.231,301.794 251.419,301.512 252.607,301.231 253.795,300.949 254.982,300.668 256.17,300.387 257.358,300.106 257.358,300.106 258.546,299.826 259.734,299.545 260.922,299.265 262.11,298.984 263.297,298.704 264.485,298.425 265.673,298.145 265.673,298.145 266.861,297.865 268.049,297.586 269.237,297.307 270.425,297.028 271.613,296.749 272.8,296.47 273.988,296.192 273.988,296.192 275.176,295.913 276.364,295.635 277.552,295.357 278.74,295.079 279.928,294.802 281.115,294.524 282.303,294.247 282.303,294.247 283.491,293.969 284.679,293.692 285.867,293.416 287.055,293.139 288.243,292.862 289.431,292.586 290.618,292.31 290.618,292.31 291.806,292.034 292.994,291.758 294.182,291.482 295.37,291.206 296.558,290.931 297.746,290.656 298.934,290.381 298.934,290.381 300.121,290.106 301.309,289.831 302.497,289.556 303.685,289.282 304.873,289.008 306.061,288.733 307.249,288.46 307.249,288.46 308.436,288.186 309.624,287.912 310.812,287.639 312,287.365 313.188,287.092 314.376,286.819 315.564,286.546 315.564,286.546 316.752,286.274 317.939,286.001 319.127,285.729 320.315,285.456 321.503,285.184 322.691,284.912 323.879,284.641 323.879,284.641 325.067,284.369 326.254,284.098 327.442,283.826 328.63,283.555 329.818,283.284 331.006,283.014 332.194,282.743 332.194,282.743 333.382,282.472 334.57,282.202 335.757,281.932 336.945,281.662 338.133,281.392 339.321,281.122 340.509,280.853 340.509,280.853 341.697,280.583 342.885,280.314 344.072,280.045 345.26,279.776 346.448,279.507 347.636,279.239 348.824,278.97 348.824,278.97 350.012,278.702 351.2,278.434 352.388,278.166 353.575,277.898 354.763,277.63 355.951,277.362 357.139,277.095 357.139,277.095 358.327,276.828 359.515,276.561 360.703,276.294 361.89,276.027 363.078,275.76 364.266,275.494 365.454,275.227 365.454,275.227 366.642,274.961 367.83,274.695 369.018,274.429 370.206,274.163 371.393,273.898 372.581,273.632 373.769,273.367 373.769,273.367 374.957,273.102 376.145,272.837 377.333,272.572 378.521,272.307 379.708,272.043 380.896,271.778 382.084,271.514 382.084,271.514 383.272,271.25 384.46,270.986 385.648,270.722 386.836,270.459 388.024,270.195 389.211,269.932 390.399,269.668 390.399,269.668 391.587,269.405 392.775,269.142 393.963,268.88 395.151,268.617 396.339,268.355 397.526,268.092 398.714,267.83 398.714,267.83 399.902,267.568 401.09,267.306 402.278,267.044 403.466,266.783 404.654,266.521 405.842,266.26 407.029,265.999 407.029,265.999 408.217,265.738 409.405,265.477 410.593,265.216 411.781,264.956 412.969,264.695 414.157,264.435 415.344,264.175 415.344,264.175 416.532,263.915 417.72,263.655 418.908,263.395 420.096,263.136 421.284,262.876 422.472,262.617 423.66,262.358 423.66,262.358 424.847,262.099 426.035,261.84 427.223,261.581 428.411,261.323 429.599,261.064 430.787,260.806 431.975,260.548 431.975,260.548 433.163,260.29 434.35,260.032 435.538,259.774 436.726,259.517 437.914,259.259 439.102,259.002 440.29,258.745 440.29,258.693 441.478,258.488 442.665,258.259 443.853,258.01 445.041,257.743 446.229,257.461 447.417,257.167 448.605,256.864 448.605,160.256 449.793,288.842 450.981,320.953 452.168,292.325 453.356,238.695 454.544,195.799 455.732,199.374 456.92,285.157 456.92,732.015 458.108,978.11 459.296,1124.17 460.483,1195.16 461.671,1216.06 462.859,1211.85 464.047,1207.5 465.235,1227.97 465.235,1226.45 466.423,1227.73 467.611,1227.23 468.799,1225.37 469.986,1222.57 471.174,1219.25 472.362,1215.85 473.55,1212.77 473.55,1209.8 474.738,1210.97 475.926,1214.07 477.114,1218.27 478.301,1222.75 479.489,1226.69 480.677,1229.28 481.865,1229.69 481.865,1254.48 483.053,1226.81 484.241,1210.56 485.429,1204.03 486.617,1205.53 487.804,1213.38 488.992,1225.89 490.18,1241.38 490.18,1327.98 491.368,1202.73 492.556,1098.54 493.744,1019.05 494.932,967.931 496.119,948.824 497.307,965.384 498.495,1021.26 498.495,1001.61 499.683,990.961 500.871,985.52 502.059,983.915 503.247,984.775 504.435,986.727 505.622,988.4 506.81,988.422 506.81,988.078 507.998,988.639 509.186,989.201 510.374,989.762 511.562,990.321 512.75,990.877 513.937,991.427 515.125,991.972 515.125,991.972 516.313,992.524 517.501,993.074 518.689,993.622 519.877,994.169 521.065,994.714 522.253,995.258 523.44,995.802 523.44,995.802 524.628,996.344 525.816,996.886 527.004,997.426 528.192,997.966 529.38,998.504 530.568,999.041 531.755,999.578 531.755,999.578 532.943,1000.11 534.131,1000.65 535.319,1001.18 536.507,1001.71 537.695,1002.24 538.883,1002.78 540.071,1003.3 540.071,1003.3 541.258,1003.83 542.446,1004.36 543.634,1004.89 544.822,1005.41 546.01,1005.94 547.198,1006.46 548.386,1006.98 548.386,1006.98 549.573,1007.51 550.761,1008.03 551.949,1008.55 553.137,1009.07 554.325,1009.59 555.513,1010.1 556.701,1010.62 556.701,1010.62 557.889,1011.13 559.076,1011.65 560.264,1012.16 561.452,1012.68 562.64,1013.19 563.828,1013.7 565.016,1014.21 565.016,1014.21 566.204,1014.72 567.391,1015.23 568.579,1015.74 569.767,1016.24 570.955,1016.75 572.143,1017.25 573.331,1017.76 573.331,1017.76 574.519,1018.26 575.707,1018.76 576.894,1019.27 578.082,1019.77 579.27,1020.27 580.458,1020.77 581.646,1021.27 581.646,1021.27 582.834,1021.76 584.022,1022.26 585.21,1022.76 586.397,1023.25 587.585,1023.75 588.773,1024.24 589.961,1024.73 589.961,1024.73 591.149,1025.23 592.337,1025.72 593.525,1026.21 594.712,1026.7 595.9,1027.19 597.088,1027.68 598.276,1028.16 598.276,1028.16 599.464,1028.65 600.652,1029.14 601.84,1029.62 603.028,1030.11 604.215,1030.59 605.403,1031.07 606.591,1031.56 606.591,1031.56 607.779,1032.04 608.967,1032.52 610.155,1033 611.343,1033.48 612.53,1033.96 613.718,1034.44 614.906,1034.91 614.906,1034.91 616.094,1035.39 617.282,1035.87 618.47,1036.34 619.658,1036.82 620.846,1037.29 622.033,1037.76 623.221,1038.24 623.221,1038.24 624.409,1038.71 625.597,1039.18 626.785,1039.65 627.973,1040.12 629.161,1040.59 630.348,1041.06 631.536,1041.52 631.536,1041.52 632.724,1041.99 633.912,1042.46 635.1,1042.92 636.288,1043.39 637.476,1043.85 638.664,1044.32 639.851,1044.78 639.851,1044.78 641.039,1045.24 642.227,1045.7 643.415,1046.16 644.603,1046.62 645.791,1047.08 646.979,1047.54 648.166,1048 648.166,1048 649.354,1048.46 650.542,1048.92 651.73,1049.37 652.918,1049.83 654.106,1050.29 655.294,1050.74 656.482,1051.19 656.482,1051.19 657.669,1051.65 658.857,1052.1 660.045,1052.55 661.233,1053.01 662.421,1053.46 663.609,1053.91 664.797,1054.36 664.797,1054.36 665.984,1054.81 667.172,1055.26 668.36,1055.7 669.548,1056.15 670.736,1056.6 671.924,1057.04 673.112,1057.49 673.112,1057.49 674.3,1057.94 675.487,1058.38 676.675,1058.82 677.863,1059.27 679.051,1059.71 680.239,1060.15 681.427,1060.59 681.427,1060.59 682.615,1061.04 683.802,1061.48 684.99,1061.92 686.178,1062.36 687.366,1062.79 688.554,1063.23 689.742,1063.67 689.742,1063.67 690.93,1064.11 692.118,1064.54 693.305,1064.98 694.493,1065.42 695.681,1065.85 696.869,1066.29 698.057,1066.72 698.057,1066.72 699.245,1067.15 700.433,1067.59 701.62,1068.02 702.808,1068.45 703.996,1068.88 705.184,1069.31 706.372,1069.74 706.372,1069.74 707.56,1070.17 708.748,1070.6 709.936,1071.03 711.123,1071.46 712.311,1071.89 713.499,1072.31 714.687,1072.74 714.687,1072.74 715.875,1073.17 717.063,1073.59 718.251,1074.02 719.438,1074.44 720.626,1074.87 721.814,1075.29 723.002,1075.71 723.002,1075.71 724.19,1076.13 725.378,1076.56 726.566,1076.98 727.754,1077.4 728.941,1077.82 730.129,1078.24 731.317,1078.66 731.317,1078.66 732.505,1079.08 733.693,1079.5 734.881,1079.92 736.069,1080.33 737.257,1080.75 738.444,1081.17 739.632,1081.58 739.632,1081.58 740.82,1082 742.008,1082.41 743.196,1082.83 744.384,1083.24 745.572,1083.66 746.759,1084.07 747.947,1084.48 747.947,1084.48 749.135,1084.9 750.323,1085.31 751.511,1085.72 752.699,1086.13 753.887,1086.54 755.075,1086.95 756.262,1087.36 756.262,1087.36 757.45,1087.77 758.638,1088.18 759.826,1088.59 761.014,1088.99 762.202,1089.4 763.39,1089.81 764.577,1090.21 764.577,1090.21 765.765,1090.62 766.953,1091.03 768.141,1091.43 769.329,1091.84 770.517,1092.24 771.705,1092.64 772.893,1093.05 772.893,1093.05 774.08,1093.45 775.268,1093.85 776.456,1094.25 777.644,1094.66 778.832,1095.06 780.02,1095.46 781.208,1095.86 781.208,1095.86 782.395,1096.26 783.583,1096.66 784.771,1097.06 785.959,1097.45 787.147,1097.85 788.335,1098.25 789.523,1098.65 789.523,1098.65 790.711,1099.05 791.898,1099.44 793.086,1099.84 794.274,1100.23 795.462,1100.63 796.65,1101.02 797.838,1101.42 797.838,1101.42 799.026,1101.81 800.213,1102.21 801.401,1102.6 802.589,1102.99 803.777,1103.38 804.965,1103.78 806.153,1104.17 806.153,1104.17 807.341,1104.56 808.529,1104.95 809.716,1105.34 810.904,1105.73 812.092,1106.12 813.28,1106.51 814.468,1106.9 814.468,1106.9 815.656,1107.29 816.844,1107.67 818.031,1108.06 819.219,1108.45 820.407,1108.83 821.595,1109.22 822.783,1109.61 822.783,1109.61 823.971,1109.99 825.159,1110.38 826.347,1110.76 827.534,1111.15 828.722,1111.53 829.91,1111.91 831.098,1112.3 831.098,1112.3 832.286,1112.68 833.474,1113.06 834.662,1113.45 835.849,1113.83 837.037,1114.21 838.225,1114.59 839.413,1114.97 839.413,1114.97 840.601,1115.35 841.789,1115.73 842.977,1116.11 844.165,1116.49 845.352,1116.87 846.54,1117.25 847.728,1117.63 847.728,1117.63 848.916,1118 850.104,1118.38 851.292,1118.76 852.48,1119.13 853.667,1119.51 854.855,1119.89 856.043,1120.26 856.043,1120.26 857.231,1120.64 858.419,1121.01 859.607,1121.39 860.795,1121.76 861.983,1122.13 863.17,1122.51 864.358,1122.88 864.358,1122.88 865.546,1123.25 866.734,1123.63 867.922,1124 869.11,1124.37 870.298,1124.74 871.485,1125.11 872.673,1125.48 872.673,1125.48 873.861,1125.85 875.049,1126.22 876.237,1126.59 877.425,1126.96 878.613,1127.33 879.801,1127.7 880.988,1128.07 880.988,1128.07 882.176,1128.44 883.364,1128.8 884.552,1129.17 885.74,1129.54 886.928,1129.9 888.116,1130.27 889.304,1130.64 889.304,1130.64 890.491,1131 891.679,1131.37 892.867,1131.73 894.055,1132.1 895.243,1132.46 896.431,1132.82 897.619,1133.19 897.619,1133.19 898.806,1133.55 899.994,1133.91 901.182,1134.28 902.37,1134.64 903.558,1135 904.746,1135.36 905.934,1135.72 905.934,1135.72 907.122,1136.08 908.309,1136.45 909.497,1136.81 910.685,1137.17 911.873,1137.53 913.061,1137.88 914.249,1138.24 914.249,1138.24 915.437,1138.6 916.624,1138.96 917.812,1139.32 919,1139.68 920.188,1140.03 921.376,1140.39 922.564,1140.75 922.564,1140.75 923.752,1141.11 924.94,1141.46 926.127,1141.82 927.315,1142.17 928.503,1142.53 929.691,1142.88 930.879,1143.24 930.879,1143.24 932.067,1143.59 933.255,1143.95 934.442,1144.3 935.63,1144.65 936.818,1145.01 938.006,1145.36 939.194,1145.71 939.194,1145.71 940.382,1146.06 941.57,1146.42 942.758,1146.77 943.945,1147.12 945.133,1147.47 946.321,1147.82 947.509,1148.17 947.509,1148.17 948.697,1148.52 949.885,1148.87 951.073,1149.22 952.26,1149.57 953.448,1149.92 954.636,1150.27 955.824,1150.62 955.824,1150.62 957.012,1150.97 958.2,1151.31 959.388,1151.66 960.576,1152.01 961.763,1152.35 962.951,1152.7 964.139,1153.05 964.139,1153.05 965.327,1153.39 966.515,1153.74 967.703,1154.09 968.891,1154.43 970.078,1154.78 971.266,1155.12 972.454,1155.46 972.454,1155.46 973.642,1155.81 974.83,1156.15 976.018,1156.5 977.206,1156.84 978.394,1157.18 979.581,1157.53 980.769,1157.87 980.769,1157.87 981.957,1158.21 983.145,1158.55 984.333,1158.89 985.521,1159.23 986.709,1159.58 987.896,1159.92 989.084,1160.26 989.084,1160.26 990.272,1160.6 991.46,1160.94 992.648,1161.28 993.836,1161.62 995.024,1161.96 996.212,1162.29 997.399,1162.63 997.399,1162.63 998.587,1162.97 999.775,1163.31 1000.96,1163.65 1002.15,1163.98 1003.34,1164.32 1004.53,1164.66 1005.71,1165 1005.71,1165 1006.9,1165.33 1008.09,1165.67 1009.28,1166 1010.47,1166.34 1011.65,1166.68 1012.84,1167.01 1014.03,1167.35 1014.03,1167.35 1015.22,1167.68 1016.41,1168.01 1017.59,1168.35 1018.78,1168.68 1019.97,1169.02 1021.16,1169.35 1022.34,1169.68 1022.34,1169.68 1023.53,1170.02 1024.72,1170.35 1025.91,1170.68 1027.1,1171.01 1028.28,1171.34 1029.47,1171.68 1030.66,1172.01 1030.66,1172.01 1031.85,1172.34 1033.04,1172.67 1034.22,1173 1035.41,1173.33 1036.6,1173.66 1037.79,1173.99 1038.97,1174.32 1038.97,1174.32 1040.16,1174.65 1041.35,1174.98 1042.54,1175.31 1043.73,1175.63 1044.91,1175.96 1046.1,1176.29 1047.29,1176.62 1047.29,1176.62 1048.48,1176.95 1049.67,1177.27 1050.85,1177.6 1052.04,1177.93 1053.23,1178.25 1054.42,1178.58 1055.6,1178.91 1055.6,1178.91 1056.79,1179.23 1057.98,1179.56 1059.17,1179.88 1060.36,1180.21 1061.54,1180.53 1062.73,1180.86 1063.92,1181.18 1063.92,1181.18 1065.11,1181.51 1066.3,1181.83 1067.48,1182.15 1068.67,1182.48 1069.86,1182.8 1071.05,1183.12 1072.24,1183.44 1072.24,1183.44 1073.42,1183.77 1074.61,1184.09 1075.8,1184.41 1076.99,1184.73 1078.17,1185.05 1079.36,1185.38 1080.55,1185.7 1080.55,1185.7 1081.74,1186.02 1082.93,1186.34 1084.11,1186.66 1085.3,1186.98 1086.49,1187.3 1087.68,1187.62 1088.87,1187.94 1088.87,1187.94 1090.05,1188.26 1091.24,1188.58 1092.43,1188.89 1093.62,1189.21 1094.8,1189.53 1095.99,1189.85 1097.18,1190.17 1097.18,1190.17 1098.37,1190.48 1099.56,1190.8 1100.74,1191.12 1101.93,1191.44 1103.12,1191.75 1104.31,1192.07 1105.5,1192.39 1105.5,1192.39 1106.68,1192.7 1107.87,1193.02 1109.06,1193.33 1110.25,1193.65 1111.43,1193.96 1112.62,1194.28 1113.81,1194.59 1113.81,1194.59 1115,1194.91 1116.19,1195.22 1117.37,1195.53 1118.56,1195.85 1119.75,1196.16 1120.94,1196.48 1122.13,1196.79 1122.13,1196.79 1123.31,1197.1 1124.5,1197.41 1125.69,1197.73 1126.88,1198.04 1128.06,1198.35 1129.25,1198.66 1130.44,1198.97 1130.44,1198.97 1131.63,1199.29 1132.82,1199.6 1134,1199.91 1135.19,1200.22 1136.38,1200.53 1137.57,1200.84 1138.76,1201.15 1138.76,1201.15 1139.94,1201.46 1141.13,1201.77 1142.32,1202.08 1143.51,1202.39 1144.69,1202.7 1145.88,1203 1147.07,1203.31 1147.07,1203.31 1148.26,1203.62 1149.45,1203.93 1150.63,1204.24 1151.82,1204.55 1153.01,1204.85 1154.2,1205.16 1155.39,1205.47 1155.39,1205.47 1156.57,1205.77 1157.76,1206.08 1158.95,1206.39 1160.14,1206.69 1161.33,1207 1162.51,1207.31 1163.7,1207.61 1163.7,1207.61 1164.89,1207.92 1166.08,1208.22 1167.26,1208.53 1168.45,1208.83 1169.64,1209.14 1170.83,1209.44 1172.02,1209.74 1172.02,1209.74 1173.2,1210.05 1174.39,1210.35 1175.58,1210.66 1176.77,1210.96 1177.96,1211.26 1179.14,1211.57 1180.33,1211.87 1180.33,1211.87 1181.52,1212.17 1182.71,1212.47 1183.89,1212.78 1185.08,1213.08 1186.27,1213.38 1187.46,1213.68 1188.65,1213.98 1188.65,1213.98 1189.83,1214.28 1191.02,1214.58 1192.21,1214.89 1193.4,1215.19 1194.59,1215.49 1195.77,1215.79 1196.96,1216.09 1196.96,1216.09 1198.15,1216.39 1199.34,1216.69 1200.52,1216.99 1201.71,1217.28 1202.9,1217.58 1204.09,1217.88 1205.28,1218.18 1205.28,1218.18 1206.46,1218.48 1207.65,1218.78 1208.84,1219.08 1210.03,1219.37 1211.22,1219.67 1212.4,1219.97 1213.59,1220.27 1213.59,1220.27 1214.78,1220.56 1215.97,1220.86 1217.15,1221.16 1218.34,1221.45 1219.53,1221.75 1220.72,1222.05 1221.91,1222.34 1221.91,1222.34 1223.09,1222.64 1224.28,1222.93 1225.47,1223.23 1226.66,1223.52 1227.85,1223.82 1229.03,1224.11 1230.22,1224.41 1230.22,1224.41 1231.41,1224.7 1232.6,1225 1233.78,1225.29 1234.97,1225.58 1236.16,1225.88 1237.35,1226.17 1238.54,1226.46 1238.54,1226.46 1239.72,1226.76 1240.91,1227.05 1242.1,1227.34 1243.29,1227.64 1244.48,1227.93 1245.66,1228.22 1246.85,1228.51 1246.85,1228.51 1248.04,1228.8 1249.23,1229.1 1250.42,1229.39 1251.6,1229.68 1252.79,1229.97 1253.98,1230.26 1255.17,1230.55 1255.17,1230.55 1256.35,1230.84 1257.54,1231.13 1258.73,1231.42 1259.92,1231.71 1261.11,1232 1262.29,1232.29 1263.48,1232.58 1263.48,1232.58 1264.67,1232.87 1265.86,1233.16 1267.05,1233.45 1268.23,1233.74 1269.42,1234.02 1270.61,1234.31 1271.8,1234.6 1271.8,1234.6 1272.98,1234.89 1274.17,1235.18 1275.36,1235.46 1276.55,1235.75 1277.74,1236.04 1278.92,1236.33 1280.11,1236.61 1280.11,1236.61 1281.3,1236.9 1282.49,1237.19 1283.68,1237.47 1284.86,1237.76 1286.05,1238.05 1287.24,1238.33 1288.43,1238.62 1288.43,1238.62 1289.61,1238.9 1290.8,1239.19 1291.99,1239.47 1293.18,1239.76 1294.37,1240.04 1295.55,1240.33 1296.74,1240.61 1296.74,1240.61 1297.93,1240.9 1299.12,1241.18 1300.31,1241.46 1301.49,1241.75 1302.68,1242.03 1303.87,1242.31 1305.06,1242.6 1305.06,1242.6 1306.24,1242.88 1307.43,1243.16 1308.62,1243.45 1309.81,1243.73 1311,1244.01 1312.18,1244.29 1313.37,1244.58 1313.37,1244.58 1314.56,1244.86 1315.75,1245.14 1316.94,1245.42 1318.12,1245.7 1319.31,1245.98 1320.5,1246.26 1321.69,1246.55 1321.69,1246.55 1322.88,1246.83 1324.06,1247.11 1325.25,1247.39 1326.44,1247.67 1327.63,1247.95 1328.81,1248.23 1330,1248.51 1330,1248.51 1331.19,1248.79 1332.38,1249.07 1333.57,1249.35 1334.75,1249.62 1335.94,1249.9 1337.13,1250.18 1338.32,1250.46 1338.32,1250.46 1339.51,1250.74 1340.69,1251.02 1341.88,1251.29 1343.07,1251.57 1344.26,1251.85 1345.44,1252.13 1346.63,1252.41 1346.63,1252.41 1347.82,1252.68 1349.01,1252.96 1350.2,1253.24 1351.38,1253.51 1352.57,1253.79 1353.76,1254.07 1354.95,1254.34 1354.95,1254.34 1356.14,1254.62 1357.32,1254.89 1358.51,1255.17 1359.7,1255.45 1360.89,1255.72 1362.07,1256 1363.26,1256.27 1363.26,1256.27 1364.45,1256.55 1365.64,1256.82 1366.83,1257.1 1368.01,1257.37 1369.2,1257.64 1370.39,1257.92 1371.58,1258.19 1371.58,1258.19 1372.77,1258.47 1373.95,1258.74 1375.14,1259.01 1376.33,1259.29 1377.52,1259.56 1378.7,1259.83 1379.89,1260.11 1379.89,1260.11 1381.08,1260.38 1382.27,1260.65 1383.46,1260.92 1384.64,1261.2 1385.83,1261.47 1387.02,1261.74 1388.21,1262.01 1388.21,1262.01 1389.4,1262.28 1390.58,1262.55 1391.77,1262.83 1392.96,1263.1 1394.15,1263.37 1395.33,1263.64 1396.52,1263.91 1396.52,1263.91 1397.71,1264.18 1398.9,1264.45 1400.09,1264.72 1401.27,1264.99 1402.46,1265.26 1403.65,1265.53 1404.84,1265.8 1404.84,1265.8 1406.03,1266.07 1407.21,1266.34 1408.4,1266.61 1409.59,1266.88 1410.78,1267.14 1411.97,1267.41 1413.15,1267.68 1413.15,1267.68 1414.34,1267.95 1415.53,1268.22 1416.72,1268.49 1417.9,1268.75 1419.09,1269.02 1420.28,1269.29 1421.47,1269.56 1421.47,1269.56 1422.66,1269.82 1423.84,1270.09 1425.03,1270.36 1426.22,1270.63 1427.41,1270.89 1428.6,1271.16 1429.78,1271.42 1429.78,1271.42 1430.97,1271.69 1432.16,1271.96 1433.35,1272.22 1434.53,1272.49 1435.72,1272.75 1436.91,1273.02 1438.1,1273.28 1438.1,1273.28 1439.29,1273.55 1440.47,1273.82 1441.66,1274.08 1442.85,1274.34 1444.04,1274.61 1445.23,1274.87 1446.41,1275.14 1446.41,1275.14 1447.6,1275.4 1448.79,1275.67 1449.98,1275.93 1451.16,1276.19 1452.35,1276.46 1453.54,1276.72 1454.73,1276.98 1454.73,1276.98 1455.92,1277.25 1457.1,1277.51 1458.29,1277.77 1459.48,1278.03 1460.67,1278.3 1461.86,1278.56 1463.04,1278.82 1463.04,1278.82 1464.23,1279.08 1465.42,1279.35 1466.61,1279.61 1467.79,1279.87 1468.98,1280.13 1470.17,1280.39 1471.36,1280.65 1471.36,1280.65 1472.55,1280.91 1473.73,1281.18 1474.92,1281.44 1476.11,1281.7 1477.3,1281.96 1478.49,1282.22 1479.67,1282.48 1479.67,1282.48 1480.86,1282.74 1482.05,1283 1483.24,1283.26 1484.42,1283.52 1485.61,1283.78 1486.8,1284.04 1487.99,1284.29 1487.99,1284.29 1489.18,1284.55 1490.36,1284.81 1491.55,1285.07 1492.74,1285.33 1493.93,1285.59 1495.12,1285.85 1496.3,1286.1 1496.3,1286.1 1497.49,1286.36 1498.68,1286.62 1499.87,1286.88 1501.06,1287.14 1502.24,1287.39 1503.43,1287.65 1504.62,1287.91 1504.62,1287.96 1505.81,1288.16 1506.99,1288.39 1508.18,1288.64 1509.37,1288.91 1510.56,1289.19 1511.75,1289.48 1512.93,1289.79 1512.93,1386.4 1514.12,1257.81 1515.31,1225.7 1516.5,1254.33 1517.69,1307.96 1518.87,1350.85 1520.06,1347.28 1521.25,1261.5 1521.25,814.636 1522.44,568.542 1523.62,422.486 1524.81,351.493 1526,330.59 1527.19,334.803 1528.38,339.157 1529.56,318.678 1529.56,320.202 1530.75,318.922 1531.94,319.424 1533.13,321.286 1534.32,324.085 1535.5,327.398 1536.69,330.805 1537.88,333.882 1537.88,336.854 1539.07,335.678 1540.25,332.581 1541.44,328.384 1542.63,323.904 1543.82,319.961 1545.01,317.375 1546.19,316.964 1546.19,292.175 1547.38,319.839 1548.57,336.092 1549.76,342.623 1550.95,341.119 1552.13,333.268 1553.32,320.758 1554.51,305.276 1554.51,218.669 1555.7,343.922 1556.88,448.116 1558.07,527.599 1559.26,578.721 1560.45,597.828 1561.64,581.268 1562.82,525.39 1562.82,545.042 1564.01,555.691 1565.2,561.132 1566.39,562.737 1567.58,561.877 1568.76,559.925 1569.95,558.252 1571.14,558.23 1571.14,558.574 1572.33,558.013 1573.52,557.451 1574.7,556.89 1575.89,556.331 1577.08,555.775 1578.27,555.225 1579.45,554.68 1579.45,554.68 1580.64,554.128 1581.83,553.578 1583.02,553.03 1584.21,552.483 1585.39,551.938 1586.58,551.394 1587.77,550.85 1587.77,550.85 1588.96,550.308 1590.15,549.766 1591.33,549.226 1592.52,548.686 1593.71,548.148 1594.9,547.611 1596.08,547.074 1596.08,547.074 1597.27,546.539 1598.46,546.004 1599.65,545.471 1600.84,544.939 1602.02,544.407 1603.21,543.877 1604.4,543.347 1604.4,543.347 1605.59,542.819 1606.78,542.291 1607.96,541.764 1609.15,541.239 1610.34,540.714 1611.53,540.19 1612.71,539.667 1612.71,539.667 1613.9,539.145 1615.09,538.624 1616.28,538.104 1617.47,537.585 1618.65,537.067 1619.84,536.549 1621.03,536.033 1621.03,536.033 1622.22,535.517 1623.41,535.003 1624.59,534.489 1625.78,533.976 1626.97,533.464 1628.16,532.953 1629.34,532.442 1629.34,532.442 1630.53,531.933 1631.72,531.424 1632.91,530.916 1634.1,530.409 1635.28,529.903 1636.47,529.398 1637.66,528.894 1637.66,528.894 1638.85,528.39 1640.04,527.888 1641.22,527.386 1642.41,526.885 1643.6,526.384 1644.79,525.885 1645.97,525.386 1645.97,525.386 1647.16,524.888 1648.35,524.391 1649.54,523.895 1650.73,523.4 1651.91,522.905 1653.1,522.411 1654.29,521.918 1654.29,521.918 1655.48,521.426 1656.67,520.934 1657.85,520.444 1659.04,519.954 1660.23,519.465 1661.42,518.976 1662.61,518.488 1662.61,518.488 1663.79,518.001 1664.98,517.515 1666.17,517.03 1667.36,516.545 1668.54,516.061 1669.73,515.578 1670.92,515.096 1670.92,515.096 1672.11,514.614 1673.3,514.133 1674.48,513.653 1675.67,513.173 1676.86,512.694 1678.05,512.216 1679.24,511.739 1679.24,511.739 1680.42,511.262 1681.61,510.786 1682.8,510.311 1683.99,509.836 1685.17,509.362 1686.36,508.889 1687.55,508.417 1687.55,508.417 1688.74,507.945 1689.93,507.474 1691.11,507.004 1692.3,506.534 1693.49,506.065 1694.68,505.596 1695.87,505.129 1695.87,505.129 1697.05,504.662 1698.24,504.195 1699.43,503.73 1700.62,503.264 1701.8,502.8 1702.99,502.336 1704.18,501.873 1704.18,501.873 1705.37,501.411 1706.56,500.949 1707.74,500.488 1708.93,500.027 1710.12,499.568 1711.31,499.108 1712.5,498.65 1712.5,498.65 1713.68,498.192 1714.87,497.735 1716.06,497.278 1717.25,496.822 1718.43,496.366 1719.62,495.911 1720.81,495.457 1720.81,495.457 1722,495.004 1723.19,494.551 1724.37,494.098 1725.56,493.647 1726.75,493.195 1727.94,492.745 1729.13,492.295 1729.13,492.295 1730.31,491.846 1731.5,491.397 1732.69,490.949 1733.88,490.501 1735.06,490.054 1736.25,489.608 1737.44,489.162 1737.44,489.162 1738.63,488.717 1739.82,488.272 1741,487.828 1742.19,487.385 1743.38,486.942 1744.57,486.499 1745.76,486.058 1745.76,486.058 1746.94,485.616 1748.13,485.176 1749.32,484.736 1750.51,484.296 1751.7,483.857 1752.88,483.419 1754.07,482.981 1754.07,482.981 1755.26,482.544 1756.45,482.107 1757.63,481.671 1758.82,481.235 1760.01,480.8 1761.2,480.366 1762.39,479.932 1762.39,479.932 1763.57,479.498 1764.76,479.065 1765.95,478.633 1767.14,478.201 1768.33,477.77 1769.51,477.339 1770.7,476.909 1770.7,476.909 1771.89,476.479 1773.08,476.05 1774.26,475.621 1775.45,475.193 1776.64,474.765 1777.83,474.338 1779.02,473.912 1779.02,473.912 1780.2,473.485 1781.39,473.06 1782.58,472.635 1783.77,472.21 1784.96,471.786 1786.14,471.363 1787.33,470.94 1787.33,470.94 1788.52,470.517 1789.71,470.095 1790.89,469.673 1792.08,469.252 1793.27,468.832 1794.46,468.412 1795.65,467.992 1795.65,467.992 1796.83,467.573 1798.02,467.155 1799.21,466.737 1800.4,466.319 1801.59,465.902 1802.77,465.485 1803.96,465.069 1803.96,465.069 1805.15,464.653 1806.34,464.238 1807.52,463.823 1808.71,463.409 1809.9,462.995 1811.09,462.582 1812.28,462.169 1812.28,462.169 1813.46,461.757 1814.65,461.345 1815.84,460.933 1817.03,460.522 1818.22,460.112 1819.4,459.702 1820.59,459.292 1820.59,459.292 1821.78,458.883 1822.97,458.474 1824.15,458.066 1825.34,457.658 1826.53,457.251 1827.72,456.844 1828.91,456.438 1828.91,456.438 1830.09,456.032 1831.28,455.626 1832.47,455.221 1833.66,454.816 1834.85,454.412 1836.03,454.008 1837.22,453.605 1837.22,453.605 1838.41,453.202 1839.6,452.8 1840.79,452.398 1841.97,451.996 1843.16,451.595 1844.35,451.194 1845.54,450.794 1845.54,450.794 1846.72,450.394 1847.91,449.995 1849.1,449.596 1850.29,449.197 1851.48,448.799 1852.66,448.401 1853.85,448.004 1853.85,448.004 1855.04,447.607 1856.23,447.21 1857.42,446.814 1858.6,446.419 1859.79,446.024 1860.98,445.629 1862.17,445.234 1862.17,445.234 1863.35,444.84 1864.54,444.447 1865.73,444.054 1866.92,443.661 1868.11,443.268 1869.29,442.876 1870.48,442.485 1870.48,442.485 1871.67,442.094 1872.86,441.703 1874.05,441.313 1875.23,440.923 1876.42,440.533 1877.61,440.144 1878.8,439.755 1878.8,439.755 1879.98,439.367 1881.17,438.979 1882.36,438.591 1883.55,438.204 1884.74,437.817 1885.92,437.431 1887.11,437.045 1887.11,437.045 1888.3,436.659 1889.49,436.274 1890.68,435.889 1891.86,435.505 1893.05,435.121 1894.24,434.737 1895.43,434.354 1895.43,434.354 1896.61,433.971 1897.8,433.588 1898.99,433.206 1900.18,432.824 1901.37,432.443 1902.55,432.062 1903.74,431.681 1903.74,431.681 1904.93,431.301 1906.12,430.921 1907.31,430.541 1908.49,430.162 1909.68,429.783 1910.87,429.405 1912.06,429.026 1912.06,429.026 1913.25,428.649 1914.43,428.271 1915.62,427.894 1916.81,427.518 1918,427.141 1919.18,426.765 1920.37,426.39 1920.37,426.39 1921.56,426.015 1922.75,425.64 1923.94,425.265 1925.12,424.891 1926.31,424.517 1927.5,424.144 1928.69,423.771 1928.69,423.771 1929.88,423.398 1931.06,423.026 1932.25,422.654 1933.44,422.282 1934.63,421.911 1935.81,421.54 1937,421.169 1937,421.169 1938.19,420.799 1939.38,420.429 1940.57,420.059 1941.75,419.69 1942.94,419.321 1944.13,418.952 1945.32,418.584 1945.32,418.584 1946.51,418.216 1947.69,417.849 1948.88,417.481 1950.07,417.115 1951.26,416.748 1952.44,416.382 1953.63,416.016 1953.63,416.016 1954.82,415.65 1956.01,415.285 1957.2,414.92 1958.38,414.556 1959.57,414.191 1960.76,413.828 1961.95,413.464 1961.95,413.464 1963.14,413.101 1964.32,412.738 1965.51,412.375 1966.7,412.013 1967.89,411.651 1969.07,411.289 1970.26,410.928 1970.26,410.928 1971.45,410.567 1972.64,410.206 1973.83,409.846 1975.01,409.486 1976.2,409.126 1977.39,408.767 1978.58,408.408 1978.58,408.408 1979.77,408.049 1980.95,407.691 1982.14,407.333 1983.33,406.975 1984.52,406.617 1985.7,406.26 1986.89,405.903 1986.89,405.903 1988.08,405.547 1989.27,405.191 1990.46,404.835 1991.64,404.479 1992.83,404.124 1994.02,403.769 1995.21,403.414 1995.21,403.414 1996.4,403.06 1997.58,402.705 1998.77,402.352 1999.96,401.998 2001.15,401.645 2002.34,401.292 2003.52,400.94 2003.52,400.94 2004.71,400.587 2005.9,400.235 2007.09,399.884 2008.27,399.532 2009.46,399.181 2010.65,398.83 2011.84,398.48 2011.84,398.48 2013.03,398.13 2014.21,397.78 2015.4,397.43 2016.59,397.081 2017.78,396.732 2018.97,396.383 2020.15,396.035 2020.15,396.035 2021.34,395.687 2022.53,395.339 2023.72,394.991 2024.9,394.644 2026.09,394.297 2027.28,393.95 2028.47,393.604 2028.47,393.604 2029.66,393.258 2030.84,392.912 2032.03,392.566 2033.22,392.221 2034.41,391.876 2035.6,391.531 2036.78,391.187 2036.78,391.187 2037.97,390.843 2039.16,390.499 2040.35,390.156 2041.53,389.812 2042.72,389.469 2043.91,389.127 2045.1,388.784 2045.1,388.784 2046.29,388.442 2047.47,388.1 2048.66,387.758 2049.85,387.417 2051.04,387.076 2052.23,386.735 2053.41,386.395 2053.41,386.395 2054.6,386.054 2055.79,385.715 2056.98,385.375 2058.16,385.035 2059.35,384.696 2060.54,384.357 2061.73,384.019 2061.73,384.019 2062.92,383.68 2064.1,383.342 2065.29,383.005 2066.48,382.667 2067.67,382.33 2068.86,381.993 2070.04,381.656 2070.04,381.656 2071.23,381.32 2072.42,380.983 2073.61,380.647 2074.79,380.312 2075.98,379.976 2077.17,379.641 2078.36,379.306 2078.36,379.306 2079.55,378.972 2080.73,378.637 2081.92,378.303 2083.11,377.969 2084.3,377.636 2085.49,377.302 2086.67,376.969 2086.67,376.969 2087.86,376.637 2089.05,376.304 2090.24,375.972 2091.43,375.64 2092.61,375.308 2093.8,374.976 2094.99,374.645 2094.99,374.645 2096.18,374.314 2097.36,373.983 2098.55,373.653 2099.74,373.322 2100.93,372.992 2102.12,372.663 2103.3,372.333 2103.3,372.333 2104.49,372.004 2105.68,371.675 2106.87,371.346 2108.06,371.018 2109.24,370.689 2110.43,370.361 2111.62,370.034 2111.62,370.034 2112.81,369.706 2113.99,369.379 2115.18,369.052 2116.37,368.725 2117.56,368.399 2118.75,368.072 2119.93,367.746 2119.93,367.746 2121.12,367.42 2122.31,367.095 2123.5,366.77 2124.69,366.445 2125.87,366.12 2127.06,365.795 2128.25,365.471 2128.25,365.471 2129.44,365.147 2130.62,364.823 2131.81,364.499 2133,364.176 2134.19,363.853 2135.38,363.53 2136.56,363.207 2136.56,363.207 2137.75,362.885 2138.94,362.562 2140.13,362.24 2141.32,361.919 2142.5,361.597 2143.69,361.276 2144.88,360.955 2144.88,360.955 2146.07,360.634 2147.25,360.314 2148.44,359.993 2149.63,359.673 2150.82,359.353 2152.01,359.034 2153.19,358.714 2153.19,358.714 2154.38,358.395 2155.57,358.076 2156.76,357.758 2157.95,357.439 2159.13,357.121 2160.32,356.803 2161.51,356.485 2161.51,356.485 2162.7,356.167 2163.89,355.85 2165.07,355.533 2166.26,355.216 2167.45,354.899 2168.64,354.583 2169.82,354.267 2169.82,354.267 2171.01,353.951 2172.2,353.635 2173.39,353.32 2174.58,353.004 2175.76,352.689 2176.95,352.374 2178.14,352.06 2178.14,352.06 2179.33,351.745 2180.52,351.431 2181.7,351.117 2182.89,350.803 2184.08,350.49 2185.27,350.177 2186.45,349.863 2186.45,349.863 2187.64,349.551 2188.83,349.238 2190.02,348.926 2191.21,348.613 2192.39,348.301 2193.58,347.99 2194.77,347.678 2194.77,347.678 2195.96,347.367 2197.15,347.056 2198.33,346.745 2199.52,346.434 2200.71,346.123 2201.9,345.813 2203.08,345.503 2203.08,345.503 2204.27,345.193 2205.46,344.884 2206.65,344.574 2207.84,344.265 2209.02,343.956 2210.21,343.647 2211.4,343.339 2211.4,343.339 2212.59,343.03 2213.78,342.722 2214.96,342.414 2216.15,342.107 2217.34,341.799 2218.53,341.492 2219.71,341.185 2219.71,341.185 2220.9,340.878 2222.09,340.571 2223.28,340.265 2224.47,339.958 2225.65,339.652 2226.84,339.346 2228.03,339.041 2228.03,339.041 2229.22,338.735 2230.41,338.43 2231.59,338.125 2232.78,337.82 2233.97,337.516 2235.16,337.211 2236.34,336.907 2236.34,336.907 2237.53,336.603 2238.72,336.299 2239.91,335.996 2241.1,335.692 2242.28,335.389 2243.47,335.086 2244.66,334.783 2244.66,334.783 2245.85,334.481 2247.04,334.178 2248.22,333.876 2249.41,333.574 2250.6,333.273 2251.79,332.971 2252.98,332.67 2252.98,332.67 2254.16,332.368 2255.35,332.067 2256.54,331.767 2257.73,331.466 2258.91,331.166 2260.1,330.865 2261.29,330.565 2261.29,330.565 2262.48,330.266 2263.67,329.966 2264.85,329.667 2266.04,329.368 2267.23,329.069 2268.42,328.77 2269.61,328.471 2269.61,328.471 2270.79,328.173 2271.98,327.874 2273.17,327.576 2274.36,327.279 2275.54,326.981 2276.73,326.683 2277.92,326.386 2277.92,326.386 2279.11,326.089 2280.3,325.792 2281.48,325.496 2282.67,325.199 2283.86,324.903 2285.05,324.607 2286.24,324.311 2286.24,324.311 2287.42,324.015 2288.61,323.719 2289.8,323.424 2290.99,323.129 2292.17,322.834 2293.36,322.539 2294.55,322.245 2294.55,322.245 2295.74,321.95 2296.93,321.656 2298.11,321.362 2299.3,321.068 2300.49,320.774 2301.68,320.481 2302.87,320.188 2302.87,320.188 2304.05,319.895 2305.24,319.602 2306.43,319.309 2307.62,319.016 2308.8,318.724 2309.99,318.432 2311.18,318.14 2311.18,318.14 2312.37,317.848 2313.56,317.557 2314.74,317.265 2315.93,316.974 2317.12,316.683 2318.31,316.392 2319.5,316.101 2319.5,316.101 2320.68,315.811 2321.87,315.52 2323.06,315.23 2324.25,314.94 2325.43,314.651 2326.62,314.361 2327.81,314.072 2327.81,314.072 2329,313.782 2330.19,313.493 2331.37,313.204 2332.56,312.916 2333.75,312.627 2334.94,312.339 2336.13,312.051 2336.13,312.051 2337.31,311.763 2338.5,311.475 2339.69,311.187 2340.88,310.9 2342.07,310.612 2343.25,310.325 2344.44,310.038 2344.44,310.038 2345.63,309.752 2346.82,309.465 2348,309.179 2349.19,308.893 2350.38,308.607 2351.57,308.321 2352.76,308.035 "/>
</svg>
