<?xml version="1.0" encoding="utf-8"?>
<svg xmlns="http://www.w3.org/2000/svg" xmlns:xlink="http://www.w3.org/1999/xlink" width="600" height="400" viewBox="0 0 2400 1600">
<defs>
  <clipPath id="clip940">
    <rect x="0" y="0" width="2400" height="1600"/>
  </clipPath>
</defs>
<path clip-path="url(#clip940)" d="M0 1600 L2400 1600 L2400 0 L0 0  Z" fill="#ffffff" fill-rule="evenodd" fill-opacity="1"/>
<defs>
  <clipPath id="clip941">
    <rect x="480" y="0" width="1681" height="1600"/>
  </clipPath>
</defs>
<path clip-path="url(#clip940)" d="M193.936 1423.18 L2352.76 1423.18 L2352.76 123.472 L193.936 123.472  Z" fill="#ffffff" fill-rule="evenodd" fill-opacity="1"/>
<defs>
  <clipPath id="clip942">
    <rect x="193" y="123" width="2160" height="1301"/>
  </clipPath>
</defs>
<polyline clip-path="url(#clip942)" style="stroke:#000000; stroke-linecap:round; stroke-linejoin:round; stroke-width:2; stroke-opacity:0.1; fill:none" points="193.936,1423.18 193.936,123.472 "/>
<polyline clip-path="url(#clip942)" style="stroke:#000000; stroke-linecap:round; stroke-linejoin:round; stroke-width:2; stroke-opacity:0.1; fill:none" points="733.641,1423.18 733.641,123.472 "/>
<polyline clip-path="url(#clip942)" style="stroke:#000000; stroke-linecap:round; stroke-linejoin:round; stroke-width:2; stroke-opacity:0.1; fill:none" points="1273.35,1423.18 1273.35,123.472 "/>
<polyline clip-path="url(#clip942)" style="stroke:#000000; stroke-linecap:round; stroke-linejoin:round; stroke-width:2; stroke-opacity:0.1; fill:none" points="1813.05,1423.18 1813.05,123.472 "/>
<polyline clip-path="url(#clip942)" style="stroke:#000000; stroke-linecap:round; stroke-linejoin:round; stroke-width:2; stroke-opacity:0.1; fill:none" points="2352.76,1423.18 2352.76,123.472 "/>
<polyline clip-path="url(#clip940)" style="stroke:#000000; stroke-linecap:round; stroke-linejoin:round; stroke-width:4; stroke-opacity:1; fill:none" points="193.936,1423.18 2352.76,1423.18 "/>
<polyline clip-path="url(#clip940)" style="stroke:#000000; stroke-linecap:round; stroke-linejoin:round; stroke-width:4; stroke-opacity:1; fill:none" points="193.936,1423.18 193.936,1404.28 "/>
<polyline clip-path="url(#clip940)" style="stroke:#000000; stroke-linecap:round; stroke-linejoin:round; stroke-width:4; stroke-opacity:1; fill:none" points="733.641,1423.18 733.641,1404.28 "/>
<polyline clip-path="url(#clip940)" style="stroke:#000000; stroke-linecap:round; stroke-linejoin:round; stroke-width:4; stroke-opacity:1; fill:none" points="1273.35,1423.18 1273.35,1404.28 "/>
<polyline clip-path="url(#clip940)" style="stroke:#000000; stroke-linecap:round; stroke-linejoin:round; stroke-width:4; stroke-opacity:1; fill:none" points="1813.05,1423.18 1813.05,1404.28 "/>
<polyline clip-path="url(#clip940)" style="stroke:#000000; stroke-linecap:round; stroke-linejoin:round; stroke-width:4; stroke-opacity:1; fill:none" points="2352.76,1423.18 2352.76,1404.28 "/>
<path clip-path="url(#clip940)" d="M140.464 1468.75 L170.14 1468.75 L170.14 1472.69 L140.464 1472.69 L140.464 1468.75 Z" fill="#000000" fill-rule="nonzero" fill-opacity="1" /><path clip-path="url(#clip940)" d="M181.043 1481.64 L188.681 1481.64 L188.681 1455.28 L180.371 1456.95 L180.371 1452.69 L188.635 1451.02 L193.311 1451.02 L193.311 1481.64 L200.95 1481.64 L200.95 1485.58 L181.043 1485.58 L181.043 1481.64 Z" fill="#000000" fill-rule="nonzero" fill-opacity="1" /><path clip-path="url(#clip940)" d="M210.394 1479.7 L215.278 1479.7 L215.278 1485.58 L210.394 1485.58 L210.394 1479.7 Z" fill="#000000" fill-rule="nonzero" fill-opacity="1" /><path clip-path="url(#clip940)" d="M235.464 1454.1 Q231.852 1454.1 230.024 1457.66 Q228.218 1461.2 228.218 1468.33 Q228.218 1475.44 230.024 1479.01 Q231.852 1482.55 235.464 1482.55 Q239.098 1482.55 240.903 1479.01 Q242.732 1475.44 242.732 1468.33 Q242.732 1461.2 240.903 1457.66 Q239.098 1454.1 235.464 1454.1 M235.464 1450.39 Q241.274 1450.39 244.329 1455 Q247.408 1459.58 247.408 1468.33 Q247.408 1477.06 244.329 1481.67 Q241.274 1486.25 235.464 1486.25 Q229.653 1486.25 226.575 1481.67 Q223.519 1477.06 223.519 1468.33 Q223.519 1459.58 226.575 1455 Q229.653 1450.39 235.464 1450.39 Z" fill="#000000" fill-rule="nonzero" fill-opacity="1" /><path clip-path="url(#clip940)" d="M680.667 1468.75 L710.342 1468.75 L710.342 1472.69 L680.667 1472.69 L680.667 1468.75 Z" fill="#000000" fill-rule="nonzero" fill-opacity="1" /><path clip-path="url(#clip940)" d="M730.435 1454.1 Q726.824 1454.1 724.995 1457.66 Q723.19 1461.2 723.19 1468.33 Q723.19 1475.44 724.995 1479.01 Q726.824 1482.55 730.435 1482.55 Q734.069 1482.55 735.875 1479.01 Q737.703 1475.44 737.703 1468.33 Q737.703 1461.2 735.875 1457.66 Q734.069 1454.1 730.435 1454.1 M730.435 1450.39 Q736.245 1450.39 739.301 1455 Q742.379 1459.58 742.379 1468.33 Q742.379 1477.06 739.301 1481.67 Q736.245 1486.25 730.435 1486.25 Q724.625 1486.25 721.546 1481.67 Q718.491 1477.06 718.491 1468.33 Q718.491 1459.58 721.546 1455 Q724.625 1450.39 730.435 1450.39 Z" fill="#000000" fill-rule="nonzero" fill-opacity="1" /><path clip-path="url(#clip940)" d="M750.597 1479.7 L755.481 1479.7 L755.481 1485.58 L750.597 1485.58 L750.597 1479.7 Z" fill="#000000" fill-rule="nonzero" fill-opacity="1" /><path clip-path="url(#clip940)" d="M765.713 1451.02 L784.069 1451.02 L784.069 1454.96 L769.995 1454.96 L769.995 1463.43 Q771.013 1463.08 772.032 1462.92 Q773.05 1462.73 774.069 1462.73 Q779.856 1462.73 783.236 1465.9 Q786.615 1469.08 786.615 1474.49 Q786.615 1480.07 783.143 1483.17 Q779.671 1486.25 773.351 1486.25 Q771.175 1486.25 768.907 1485.88 Q766.662 1485.51 764.254 1484.77 L764.254 1480.07 Q766.338 1481.2 768.56 1481.76 Q770.782 1482.32 773.259 1482.32 Q777.263 1482.32 779.601 1480.21 Q781.939 1478.1 781.939 1474.49 Q781.939 1470.88 779.601 1468.77 Q777.263 1466.67 773.259 1466.67 Q771.384 1466.67 769.509 1467.08 Q767.657 1467.5 765.713 1468.38 L765.713 1451.02 Z" fill="#000000" fill-rule="nonzero" fill-opacity="1" /><path clip-path="url(#clip940)" d="M1250.73 1454.1 Q1247.12 1454.1 1245.29 1457.66 Q1243.49 1461.2 1243.49 1468.33 Q1243.49 1475.44 1245.29 1479.01 Q1247.12 1482.55 1250.73 1482.55 Q1254.36 1482.55 1256.17 1479.01 Q1258 1475.44 1258 1468.33 Q1258 1461.2 1256.17 1457.66 Q1254.36 1454.1 1250.73 1454.1 M1250.73 1450.39 Q1256.54 1450.39 1259.6 1455 Q1262.67 1459.58 1262.67 1468.33 Q1262.67 1477.06 1259.6 1481.67 Q1256.54 1486.25 1250.73 1486.25 Q1244.92 1486.25 1241.84 1481.67 Q1238.79 1477.06 1238.79 1468.33 Q1238.79 1459.58 1241.84 1455 Q1244.92 1450.39 1250.73 1450.39 Z" fill="#000000" fill-rule="nonzero" fill-opacity="1" /><path clip-path="url(#clip940)" d="M1270.89 1479.7 L1275.78 1479.7 L1275.78 1485.58 L1270.89 1485.58 L1270.89 1479.7 Z" fill="#000000" fill-rule="nonzero" fill-opacity="1" /><path clip-path="url(#clip940)" d="M1295.96 1454.1 Q1292.35 1454.1 1290.52 1457.66 Q1288.72 1461.2 1288.72 1468.33 Q1288.72 1475.44 1290.52 1479.01 Q1292.35 1482.55 1295.96 1482.55 Q1299.6 1482.55 1301.4 1479.01 Q1303.23 1475.44 1303.23 1468.33 Q1303.23 1461.2 1301.4 1457.66 Q1299.6 1454.1 1295.96 1454.1 M1295.96 1450.39 Q1301.77 1450.39 1304.83 1455 Q1307.91 1459.58 1307.91 1468.33 Q1307.91 1477.06 1304.83 1481.67 Q1301.77 1486.25 1295.96 1486.25 Q1290.15 1486.25 1287.07 1481.67 Q1284.02 1477.06 1284.02 1468.33 Q1284.02 1459.58 1287.07 1455 Q1290.15 1450.39 1295.96 1450.39 Z" fill="#000000" fill-rule="nonzero" fill-opacity="1" /><path clip-path="url(#clip940)" d="M1790.93 1454.1 Q1787.32 1454.1 1785.49 1457.66 Q1783.69 1461.2 1783.69 1468.33 Q1783.69 1475.44 1785.49 1479.01 Q1787.32 1482.55 1790.93 1482.55 Q1794.57 1482.55 1796.37 1479.01 Q1798.2 1475.44 1798.2 1468.33 Q1798.2 1461.2 1796.37 1457.66 Q1794.57 1454.1 1790.93 1454.1 M1790.93 1450.39 Q1796.74 1450.39 1799.8 1455 Q1802.88 1459.58 1802.88 1468.33 Q1802.88 1477.06 1799.8 1481.67 Q1796.74 1486.25 1790.93 1486.25 Q1785.12 1486.25 1782.04 1481.67 Q1778.99 1477.06 1778.99 1468.33 Q1778.99 1459.58 1782.04 1455 Q1785.12 1450.39 1790.93 1450.39 Z" fill="#000000" fill-rule="nonzero" fill-opacity="1" /><path clip-path="url(#clip940)" d="M1811.09 1479.7 L1815.98 1479.7 L1815.98 1485.58 L1811.09 1485.58 L1811.09 1479.7 Z" fill="#000000" fill-rule="nonzero" fill-opacity="1" /><path clip-path="url(#clip940)" d="M1826.21 1451.02 L1844.57 1451.02 L1844.57 1454.96 L1830.49 1454.96 L1830.49 1463.43 Q1831.51 1463.08 1832.53 1462.92 Q1833.55 1462.73 1834.57 1462.73 Q1840.35 1462.73 1843.73 1465.9 Q1847.11 1469.08 1847.11 1474.49 Q1847.11 1480.07 1843.64 1483.17 Q1840.17 1486.25 1833.85 1486.25 Q1831.67 1486.25 1829.41 1485.88 Q1827.16 1485.51 1824.75 1484.77 L1824.75 1480.07 Q1826.84 1481.2 1829.06 1481.76 Q1831.28 1482.32 1833.76 1482.32 Q1837.76 1482.32 1840.1 1480.21 Q1842.44 1478.1 1842.44 1474.49 Q1842.44 1470.88 1840.1 1468.77 Q1837.76 1466.67 1833.76 1466.67 Q1831.88 1466.67 1830.01 1467.08 Q1828.16 1467.5 1826.21 1468.38 L1826.21 1451.02 Z" fill="#000000" fill-rule="nonzero" fill-opacity="1" /><path clip-path="url(#clip940)" d="M2319.91 1481.64 L2327.55 1481.64 L2327.55 1455.28 L2319.24 1456.95 L2319.24 1452.69 L2327.5 1451.02 L2332.18 1451.02 L2332.18 1481.64 L2339.82 1481.64 L2339.82 1485.58 L2319.91 1485.58 L2319.91 1481.64 Z" fill="#000000" fill-rule="nonzero" fill-opacity="1" /><path clip-path="url(#clip940)" d="M2349.26 1479.7 L2354.14 1479.7 L2354.14 1485.58 L2349.26 1485.58 L2349.26 1479.7 Z" fill="#000000" fill-rule="nonzero" fill-opacity="1" /><path clip-path="url(#clip940)" d="M2374.33 1454.1 Q2370.72 1454.1 2368.89 1457.66 Q2367.08 1461.2 2367.08 1468.33 Q2367.08 1475.44 2368.89 1479.01 Q2370.72 1482.55 2374.33 1482.55 Q2377.96 1482.55 2379.77 1479.01 Q2381.6 1475.44 2381.6 1468.33 Q2381.6 1461.2 2379.77 1457.66 Q2377.96 1454.1 2374.33 1454.1 M2374.33 1450.39 Q2380.14 1450.39 2383.2 1455 Q2386.27 1459.58 2386.27 1468.33 Q2386.27 1477.06 2383.2 1481.67 Q2380.14 1486.25 2374.33 1486.25 Q2368.52 1486.25 2365.44 1481.67 Q2362.39 1477.06 2362.39 1468.33 Q2362.39 1459.58 2365.44 1455 Q2368.52 1450.39 2374.33 1450.39 Z" fill="#000000" fill-rule="nonzero" fill-opacity="1" /><path clip-path="url(#clip940)" d="M1287.52 1528.8 Q1287.52 1530.61 1286.39 1531.64 Q1285.26 1532.64 1283.98 1532.64 Q1282.75 1532.64 1282.11 1531.93 Q1281.46 1531.22 1281.46 1530.32 Q1281.46 1529.09 1282.37 1528.03 Q1283.27 1526.97 1284.62 1526.74 Q1283.3 1525.91 1281.34 1525.91 Q1280.05 1525.91 1278.92 1526.58 Q1277.83 1527.26 1277.15 1528.13 Q1276.5 1529 1275.93 1530.25 Q1275.38 1531.48 1275.15 1532.22 Q1274.96 1532.93 1274.8 1533.7 L1272.54 1542.72 Q1271.45 1547 1271.45 1548.51 Q1271.45 1550.38 1272.35 1551.64 Q1273.25 1552.86 1275.06 1552.86 Q1275.76 1552.86 1276.57 1552.67 Q1277.37 1552.44 1278.41 1551.86 Q1279.47 1551.25 1280.4 1550.35 Q1281.37 1549.42 1282.3 1547.84 Q1283.24 1546.26 1283.85 1544.23 Q1284.04 1543.52 1284.69 1543.52 Q1285.49 1543.52 1285.49 1544.17 Q1285.49 1544.71 1285.04 1545.87 Q1284.62 1547 1283.69 1548.48 Q1282.79 1549.93 1281.59 1551.25 Q1280.4 1552.54 1278.63 1553.44 Q1276.86 1554.34 1274.93 1554.34 Q1272.16 1554.34 1270.32 1552.86 Q1268.49 1551.38 1267.81 1549.32 Q1267.65 1549.61 1267.42 1550 Q1267.2 1550.38 1266.52 1551.25 Q1265.88 1552.09 1265.14 1552.73 Q1264.4 1553.34 1263.24 1553.83 Q1262.11 1554.34 1260.89 1554.34 Q1259.34 1554.34 1257.95 1553.89 Q1256.6 1553.44 1255.64 1552.41 Q1254.67 1551.38 1254.67 1549.96 Q1254.67 1548.38 1255.73 1547.29 Q1256.83 1546.16 1258.31 1546.16 Q1259.24 1546.16 1259.98 1546.71 Q1260.76 1547.26 1260.76 1548.45 Q1260.76 1549.77 1259.85 1550.77 Q1258.95 1551.77 1257.66 1552.02 Q1258.98 1552.86 1260.95 1552.86 Q1263.08 1552.86 1264.75 1550.99 Q1266.42 1549.13 1267.23 1546 Q1269.23 1538.5 1270 1535.15 Q1270.77 1531.77 1270.77 1530.32 Q1270.77 1528.96 1270.42 1528.03 Q1270.06 1527.1 1269.45 1526.68 Q1268.87 1526.23 1268.32 1526.07 Q1267.81 1525.91 1267.23 1525.91 Q1266.26 1525.91 1265.17 1526.29 Q1264.11 1526.68 1262.82 1527.58 Q1261.56 1528.45 1260.37 1530.25 Q1259.18 1532.06 1258.37 1534.54 Q1258.21 1535.28 1257.5 1535.28 Q1256.73 1535.24 1256.73 1534.6 Q1256.73 1534.05 1257.15 1532.93 Q1257.6 1531.77 1258.5 1530.32 Q1259.44 1528.87 1260.63 1527.58 Q1261.85 1526.26 1263.62 1525.36 Q1265.43 1524.46 1267.36 1524.46 Q1268.23 1524.46 1269.07 1524.65 Q1269.93 1524.81 1270.97 1525.29 Q1272.03 1525.78 1272.96 1526.84 Q1273.9 1527.9 1274.48 1529.45 Q1274.86 1528.71 1275.38 1528 Q1275.93 1527.29 1276.76 1526.42 Q1277.63 1525.52 1278.82 1525 Q1280.05 1524.46 1281.4 1524.46 Q1282.72 1524.46 1284.01 1524.81 Q1285.3 1525.13 1286.39 1526.19 Q1287.52 1527.23 1287.52 1528.8 Z" fill="#000000" fill-rule="nonzero" fill-opacity="1" /><polyline clip-path="url(#clip942)" style="stroke:#000000; stroke-linecap:round; stroke-linejoin:round; stroke-width:2; stroke-opacity:0.1; fill:none" points="193.936,1332.14 2352.76,1332.14 "/>
<polyline clip-path="url(#clip942)" style="stroke:#000000; stroke-linecap:round; stroke-linejoin:round; stroke-width:2; stroke-opacity:0.1; fill:none" points="193.936,1052.73 2352.76,1052.73 "/>
<polyline clip-path="url(#clip942)" style="stroke:#000000; stroke-linecap:round; stroke-linejoin:round; stroke-width:2; stroke-opacity:0.1; fill:none" points="193.936,773.326 2352.76,773.326 "/>
<polyline clip-path="url(#clip942)" style="stroke:#000000; stroke-linecap:round; stroke-linejoin:round; stroke-width:2; stroke-opacity:0.1; fill:none" points="193.936,493.919 2352.76,493.919 "/>
<polyline clip-path="url(#clip942)" style="stroke:#000000; stroke-linecap:round; stroke-linejoin:round; stroke-width:2; stroke-opacity:0.1; fill:none" points="193.936,214.513 2352.76,214.513 "/>
<polyline clip-path="url(#clip940)" style="stroke:#000000; stroke-linecap:round; stroke-linejoin:round; stroke-width:4; stroke-opacity:1; fill:none" points="193.936,1423.18 193.936,123.472 "/>
<polyline clip-path="url(#clip940)" style="stroke:#000000; stroke-linecap:round; stroke-linejoin:round; stroke-width:4; stroke-opacity:1; fill:none" points="193.936,1332.14 212.834,1332.14 "/>
<polyline clip-path="url(#clip940)" style="stroke:#000000; stroke-linecap:round; stroke-linejoin:round; stroke-width:4; stroke-opacity:1; fill:none" points="193.936,1052.73 212.834,1052.73 "/>
<polyline clip-path="url(#clip940)" style="stroke:#000000; stroke-linecap:round; stroke-linejoin:round; stroke-width:4; stroke-opacity:1; fill:none" points="193.936,773.326 212.834,773.326 "/>
<polyline clip-path="url(#clip940)" style="stroke:#000000; stroke-linecap:round; stroke-linejoin:round; stroke-width:4; stroke-opacity:1; fill:none" points="193.936,493.919 212.834,493.919 "/>
<polyline clip-path="url(#clip940)" style="stroke:#000000; stroke-linecap:round; stroke-linejoin:round; stroke-width:4; stroke-opacity:1; fill:none" points="193.936,214.513 212.834,214.513 "/>
<path clip-path="url(#clip940)" d="M50.9921 1332.59 L80.6679 1332.59 L80.6679 1336.53 L50.9921 1336.53 L50.9921 1332.59 Z" fill="#000000" fill-rule="nonzero" fill-opacity="1" /><path clip-path="url(#clip940)" d="M91.5706 1345.48 L99.2095 1345.48 L99.2095 1319.12 L90.8993 1320.79 L90.8993 1316.53 L99.1632 1314.86 L103.839 1314.86 L103.839 1345.48 L111.478 1345.48 L111.478 1349.42 L91.5706 1349.42 L91.5706 1345.48 Z" fill="#000000" fill-rule="nonzero" fill-opacity="1" /><path clip-path="url(#clip940)" d="M120.922 1343.54 L125.807 1343.54 L125.807 1349.42 L120.922 1349.42 L120.922 1343.54 Z" fill="#000000" fill-rule="nonzero" fill-opacity="1" /><path clip-path="url(#clip940)" d="M145.992 1317.94 Q142.381 1317.94 140.552 1321.5 Q138.746 1325.04 138.746 1332.17 Q138.746 1339.28 140.552 1342.85 Q142.381 1346.39 145.992 1346.39 Q149.626 1346.39 151.431 1342.85 Q153.26 1339.28 153.26 1332.17 Q153.26 1325.04 151.431 1321.5 Q149.626 1317.94 145.992 1317.94 M145.992 1314.23 Q151.802 1314.23 154.857 1318.84 Q157.936 1323.42 157.936 1332.17 Q157.936 1340.9 154.857 1345.51 Q151.802 1350.09 145.992 1350.09 Q140.181 1350.09 137.103 1345.51 Q134.047 1340.9 134.047 1332.17 Q134.047 1323.42 137.103 1318.84 Q140.181 1314.23 145.992 1314.23 Z" fill="#000000" fill-rule="nonzero" fill-opacity="1" /><path clip-path="url(#clip940)" d="M51.9875 1053.18 L81.6633 1053.18 L81.6633 1057.12 L51.9875 1057.12 L51.9875 1053.18 Z" fill="#000000" fill-rule="nonzero" fill-opacity="1" /><path clip-path="url(#clip940)" d="M101.756 1038.53 Q98.1447 1038.53 96.316 1042.1 Q94.5104 1045.64 94.5104 1052.77 Q94.5104 1059.87 96.316 1063.44 Q98.1447 1066.98 101.756 1066.98 Q105.39 1066.98 107.196 1063.44 Q109.024 1059.87 109.024 1052.77 Q109.024 1045.64 107.196 1042.1 Q105.39 1038.53 101.756 1038.53 M101.756 1034.83 Q107.566 1034.83 110.621 1039.43 Q113.7 1044.02 113.7 1052.77 Q113.7 1061.49 110.621 1066.1 Q107.566 1070.68 101.756 1070.68 Q95.9456 1070.68 92.8669 1066.1 Q89.8114 1061.49 89.8114 1052.77 Q89.8114 1044.02 92.8669 1039.43 Q95.9456 1034.83 101.756 1034.83 Z" fill="#000000" fill-rule="nonzero" fill-opacity="1" /><path clip-path="url(#clip940)" d="M121.918 1064.13 L126.802 1064.13 L126.802 1070.01 L121.918 1070.01 L121.918 1064.13 Z" fill="#000000" fill-rule="nonzero" fill-opacity="1" /><path clip-path="url(#clip940)" d="M137.033 1035.45 L155.39 1035.45 L155.39 1039.39 L141.316 1039.39 L141.316 1047.86 Q142.334 1047.51 143.353 1047.35 Q144.371 1047.17 145.39 1047.17 Q151.177 1047.17 154.556 1050.34 Q157.936 1053.51 157.936 1058.92 Q157.936 1064.5 154.464 1067.61 Q150.992 1070.68 144.672 1070.68 Q142.496 1070.68 140.228 1070.31 Q137.982 1069.94 135.575 1069.2 L135.575 1064.5 Q137.658 1065.64 139.881 1066.19 Q142.103 1066.75 144.58 1066.75 Q148.584 1066.75 150.922 1064.64 Q153.26 1062.54 153.26 1058.92 Q153.26 1055.31 150.922 1053.21 Q148.584 1051.1 144.58 1051.1 Q142.705 1051.1 140.83 1051.52 Q138.978 1051.93 137.033 1052.81 L137.033 1035.45 Z" fill="#000000" fill-rule="nonzero" fill-opacity="1" /><path clip-path="url(#clip940)" d="M100.76 759.125 Q97.1493 759.125 95.3206 762.689 Q93.515 766.231 93.515 773.361 Q93.515 780.467 95.3206 784.032 Q97.1493 787.574 100.76 787.574 Q104.395 787.574 106.2 784.032 Q108.029 780.467 108.029 773.361 Q108.029 766.231 106.2 762.689 Q104.395 759.125 100.76 759.125 M100.76 755.421 Q106.571 755.421 109.626 760.027 Q112.705 764.611 112.705 773.361 Q112.705 782.088 109.626 786.694 Q106.571 791.277 100.76 791.277 Q94.9502 791.277 91.8715 786.694 Q88.816 782.088 88.816 773.361 Q88.816 764.611 91.8715 760.027 Q94.9502 755.421 100.76 755.421 Z" fill="#000000" fill-rule="nonzero" fill-opacity="1" /><path clip-path="url(#clip940)" d="M120.922 784.726 L125.807 784.726 L125.807 790.606 L120.922 790.606 L120.922 784.726 Z" fill="#000000" fill-rule="nonzero" fill-opacity="1" /><path clip-path="url(#clip940)" d="M145.992 759.125 Q142.381 759.125 140.552 762.689 Q138.746 766.231 138.746 773.361 Q138.746 780.467 140.552 784.032 Q142.381 787.574 145.992 787.574 Q149.626 787.574 151.431 784.032 Q153.26 780.467 153.26 773.361 Q153.26 766.231 151.431 762.689 Q149.626 759.125 145.992 759.125 M145.992 755.421 Q151.802 755.421 154.857 760.027 Q157.936 764.611 157.936 773.361 Q157.936 782.088 154.857 786.694 Q151.802 791.277 145.992 791.277 Q140.181 791.277 137.103 786.694 Q134.047 782.088 134.047 773.361 Q134.047 764.611 137.103 760.027 Q140.181 755.421 145.992 755.421 Z" fill="#000000" fill-rule="nonzero" fill-opacity="1" /><path clip-path="url(#clip940)" d="M101.756 479.718 Q98.1447 479.718 96.316 483.283 Q94.5104 486.824 94.5104 493.954 Q94.5104 501.061 96.316 504.625 Q98.1447 508.167 101.756 508.167 Q105.39 508.167 107.196 504.625 Q109.024 501.061 109.024 493.954 Q109.024 486.824 107.196 483.283 Q105.39 479.718 101.756 479.718 M101.756 476.014 Q107.566 476.014 110.621 480.621 Q113.7 485.204 113.7 493.954 Q113.7 502.681 110.621 507.287 Q107.566 511.871 101.756 511.871 Q95.9456 511.871 92.8669 507.287 Q89.8114 502.681 89.8114 493.954 Q89.8114 485.204 92.8669 480.621 Q95.9456 476.014 101.756 476.014 Z" fill="#000000" fill-rule="nonzero" fill-opacity="1" /><path clip-path="url(#clip940)" d="M121.918 505.32 L126.802 505.32 L126.802 511.199 L121.918 511.199 L121.918 505.32 Z" fill="#000000" fill-rule="nonzero" fill-opacity="1" /><path clip-path="url(#clip940)" d="M137.033 476.639 L155.39 476.639 L155.39 480.575 L141.316 480.575 L141.316 489.047 Q142.334 488.699 143.353 488.537 Q144.371 488.352 145.39 488.352 Q151.177 488.352 154.556 491.524 Q157.936 494.695 157.936 500.111 Q157.936 505.69 154.464 508.792 Q150.992 511.871 144.672 511.871 Q142.496 511.871 140.228 511.5 Q137.982 511.13 135.575 510.389 L135.575 505.69 Q137.658 506.824 139.881 507.38 Q142.103 507.935 144.58 507.935 Q148.584 507.935 150.922 505.829 Q153.26 503.723 153.26 500.111 Q153.26 496.5 150.922 494.394 Q148.584 492.287 144.58 492.287 Q142.705 492.287 140.83 492.704 Q138.978 493.121 137.033 494 L137.033 476.639 Z" fill="#000000" fill-rule="nonzero" fill-opacity="1" /><path clip-path="url(#clip940)" d="M91.5706 227.858 L99.2095 227.858 L99.2095 201.492 L90.8993 203.159 L90.8993 198.899 L99.1632 197.233 L103.839 197.233 L103.839 227.858 L111.478 227.858 L111.478 231.793 L91.5706 231.793 L91.5706 227.858 Z" fill="#000000" fill-rule="nonzero" fill-opacity="1" /><path clip-path="url(#clip940)" d="M120.922 225.913 L125.807 225.913 L125.807 231.793 L120.922 231.793 L120.922 225.913 Z" fill="#000000" fill-rule="nonzero" fill-opacity="1" /><path clip-path="url(#clip940)" d="M145.992 200.311 Q142.381 200.311 140.552 203.876 Q138.746 207.418 138.746 214.547 Q138.746 221.654 140.552 225.219 Q142.381 228.76 145.992 228.76 Q149.626 228.76 151.431 225.219 Q153.26 221.654 153.26 214.547 Q153.26 207.418 151.431 203.876 Q149.626 200.311 145.992 200.311 M145.992 196.608 Q151.802 196.608 154.857 201.214 Q157.936 205.798 157.936 214.547 Q157.936 223.274 154.857 227.881 Q151.802 232.464 145.992 232.464 Q140.181 232.464 137.103 227.881 Q134.047 223.274 134.047 214.547 Q134.047 205.798 137.103 201.214 Q140.181 196.608 145.992 196.608 Z" fill="#000000" fill-rule="nonzero" fill-opacity="1" /><path clip-path="url(#clip940)" d="M1184 28.5427 L1184 35.5912 Q1180.84 33.9709 1177.44 33.1607 Q1174.04 32.3505 1170.39 32.3505 Q1164.84 32.3505 1162.05 34.0519 Q1159.29 35.7533 1159.29 39.156 Q1159.29 41.7486 1161.28 43.2475 Q1163.26 44.7058 1169.26 46.0426 L1171.81 46.6097 Q1179.75 48.3111 1183.07 51.4303 Q1186.43 54.509 1186.43 60.0587 Q1186.43 66.3781 1181.41 70.0644 Q1176.43 73.7508 1167.68 73.7508 Q1164.03 73.7508 1160.06 73.0216 Q1156.13 72.3329 1151.76 70.9151 L1151.76 63.2184 Q1155.89 65.3654 1159.9 66.4591 Q1163.91 67.5124 1167.84 67.5124 Q1173.11 67.5124 1175.94 65.73 Q1178.78 63.9071 1178.78 60.6258 Q1178.78 57.5877 1176.71 55.9673 Q1174.69 54.3469 1167.76 52.8481 L1165.17 52.2405 Q1158.24 50.7821 1155.16 47.7845 Q1152.08 44.7463 1152.08 39.4801 Q1152.08 33.0797 1156.62 29.5959 Q1161.16 26.1121 1169.5 26.1121 Q1173.63 26.1121 1177.28 26.7198 Q1180.92 27.3274 1184 28.5427 Z" fill="#000000" fill-rule="nonzero" fill-opacity="1" /><path clip-path="url(#clip940)" d="M1230.95 28.9478 L1230.95 35.9153 Q1227.79 34.1734 1224.59 33.3227 Q1221.43 32.4315 1218.19 32.4315 Q1210.94 32.4315 1206.93 37.0496 Q1202.92 41.6271 1202.92 49.9314 Q1202.92 58.2358 1206.93 62.8538 Q1210.94 67.4314 1218.19 67.4314 Q1221.43 67.4314 1224.59 66.5807 Q1227.79 65.6895 1230.95 63.9476 L1230.95 70.8341 Q1227.83 72.2924 1224.47 73.0216 Q1221.15 73.7508 1217.38 73.7508 Q1207.13 73.7508 1201.1 67.3098 Q1195.06 60.8689 1195.06 49.9314 Q1195.06 38.832 1201.14 32.472 Q1207.26 26.1121 1217.87 26.1121 Q1221.31 26.1121 1224.59 26.8413 Q1227.87 27.5299 1230.95 28.9478 Z" fill="#000000" fill-rule="nonzero" fill-opacity="1" /><path clip-path="url(#clip940)" d="M1264.54 49.7694 Q1255.5 49.7694 1252.02 51.8354 Q1248.53 53.9013 1248.53 58.8839 Q1248.53 62.8538 1251.13 65.2034 Q1253.76 67.5124 1258.26 67.5124 Q1264.45 67.5124 1268.18 63.1374 Q1271.95 58.7219 1271.95 51.4303 L1271.95 49.7694 L1264.54 49.7694 M1279.4 46.6907 L1279.4 72.576 L1271.95 72.576 L1271.95 65.6895 Q1269.4 69.8214 1265.59 71.8063 Q1261.78 73.7508 1256.27 73.7508 Q1249.3 73.7508 1245.17 69.8619 Q1241.08 65.9325 1241.08 59.3701 Q1241.08 51.7138 1246.18 47.825 Q1251.33 43.9361 1261.5 43.9361 L1271.95 43.9361 L1271.95 43.2069 Q1271.95 38.0623 1268.55 35.2672 Q1265.18 32.4315 1259.07 32.4315 Q1255.18 32.4315 1251.49 33.3632 Q1247.81 34.295 1244.4 36.1584 L1244.4 29.2718 Q1248.49 27.692 1252.34 26.9223 Q1256.19 26.1121 1259.84 26.1121 Q1269.68 26.1121 1274.54 31.2163 Q1279.4 36.3204 1279.4 46.6907 Z" fill="#000000" fill-rule="nonzero" fill-opacity="1" /><path clip-path="url(#clip940)" d="M1294.75 9.54393 L1302.21 9.54393 L1302.21 72.576 L1294.75 72.576 L1294.75 9.54393 Z" fill="#000000" fill-rule="nonzero" fill-opacity="1" /><path clip-path="url(#clip940)" d="M1338.42 49.7694 Q1329.39 49.7694 1325.91 51.8354 Q1322.42 53.9013 1322.42 58.8839 Q1322.42 62.8538 1325.02 65.2034 Q1327.65 67.5124 1332.14 67.5124 Q1338.34 67.5124 1342.07 63.1374 Q1345.84 58.7219 1345.84 51.4303 L1345.84 49.7694 L1338.42 49.7694 M1353.29 46.6907 L1353.29 72.576 L1345.84 72.576 L1345.84 65.6895 Q1343.28 69.8214 1339.48 71.8063 Q1335.67 73.7508 1330.16 73.7508 Q1323.19 73.7508 1319.06 69.8619 Q1314.97 65.9325 1314.97 59.3701 Q1314.97 51.7138 1320.07 47.825 Q1325.22 43.9361 1335.39 43.9361 L1345.84 43.9361 L1345.84 43.2069 Q1345.84 38.0623 1342.43 35.2672 Q1339.07 32.4315 1332.96 32.4315 Q1329.07 32.4315 1325.38 33.3632 Q1321.69 34.295 1318.29 36.1584 L1318.29 29.2718 Q1322.38 27.692 1326.23 26.9223 Q1330.08 26.1121 1333.72 26.1121 Q1343.57 26.1121 1348.43 31.2163 Q1353.29 36.3204 1353.29 46.6907 Z" fill="#000000" fill-rule="nonzero" fill-opacity="1" /><path clip-path="url(#clip940)" d="M1394.93 34.1734 Q1393.68 33.4443 1392.18 33.1202 Q1390.72 32.7556 1388.94 32.7556 Q1382.62 32.7556 1379.22 36.8875 Q1375.85 40.9789 1375.85 48.6757 L1375.85 72.576 L1368.36 72.576 L1368.36 27.2059 L1375.85 27.2059 L1375.85 34.2544 Q1378.2 30.1225 1381.97 28.1376 Q1385.74 26.1121 1391.13 26.1121 Q1391.9 26.1121 1392.83 26.2337 Q1393.76 26.3147 1394.89 26.5172 L1394.93 34.1734 Z" fill="#000000" fill-rule="nonzero" fill-opacity="1" /><polyline clip-path="url(#clip942)" style="stroke:#009af9; stroke-linecap:round; stroke-linejoin:round; stroke-width:4; stroke-opacity:1; fill:none" points="193.936,378.185 195.141,377.943 196.345,377.701 197.55,377.458 198.755,377.216 199.959,376.974 201.164,376.733 202.369,376.491 202.369,376.491 203.574,376.25 204.778,376.008 205.983,375.767 207.188,375.526 208.392,375.286 209.597,375.045 210.802,374.804 210.802,374.804 212.006,374.564 213.211,374.324 214.416,374.084 215.621,373.844 216.825,373.604 218.03,373.364 219.235,373.125 219.235,373.125 220.439,372.885 221.644,372.646 222.849,372.407 224.053,372.168 225.258,371.929 226.463,371.69 227.668,371.452 227.668,371.452 228.872,371.214 230.077,370.975 231.282,370.737 232.486,370.499 233.691,370.261 234.896,370.024 236.1,369.786 236.1,369.786 237.305,369.549 238.51,369.312 239.715,369.075 240.919,368.838 242.124,368.601 243.329,368.364 244.533,368.128 244.533,368.128 245.738,367.891 246.943,367.655 248.147,367.419 249.352,367.183 250.557,366.947 251.762,366.711 252.966,366.476 252.966,366.476 254.171,366.24 255.376,366.005 256.58,365.77 257.785,365.535 258.99,365.3 260.194,365.065 261.399,364.831 261.399,364.831 262.604,364.596 263.809,364.362 265.013,364.128 266.218,363.894 267.423,363.66 268.627,363.426 269.832,363.193 269.832,363.193 271.037,362.959 272.241,362.726 273.446,362.493 274.651,362.26 275.856,362.027 277.06,361.794 278.265,361.561 278.265,361.561 279.47,361.329 280.674,361.096 281.879,360.864 283.084,360.632 284.288,360.4 285.493,360.168 286.698,359.936 286.698,359.936 287.902,359.705 289.107,359.473 290.312,359.242 291.517,359.011 292.721,358.78 293.926,358.549 295.131,358.318 295.131,358.318 296.335,358.087 297.54,357.857 298.745,357.627 299.949,357.396 301.154,357.166 302.359,356.936 303.564,356.706 303.564,356.706 304.768,356.477 305.973,356.247 307.178,356.018 308.382,355.788 309.587,355.559 310.792,355.33 311.996,355.101 311.996,355.101 313.201,354.872 314.406,354.644 315.611,354.415 316.815,354.187 318.02,353.958 319.225,353.73 320.429,353.502 320.429,353.502 321.634,353.274 322.839,353.047 324.043,352.819 325.248,352.592 326.453,352.364 327.658,352.137 328.862,351.91 328.862,351.91 330.067,351.683 331.272,351.456 332.476,351.229 333.681,351.003 334.886,350.776 336.09,350.55 337.295,350.324 337.295,350.324 338.5,350.098 339.705,349.872 340.909,349.646 342.114,349.42 343.319,349.195 344.523,348.969 345.728,348.744 345.728,348.744 346.933,348.519 348.137,348.294 349.342,348.069 350.547,347.844 351.752,347.619 352.956,347.395 354.161,347.171 354.161,347.171 355.366,346.946 356.57,346.722 357.775,346.498 358.98,346.274 360.184,346.05 361.389,345.827 362.594,345.603 362.594,345.603 363.799,345.38 365.003,345.156 366.208,344.933 367.413,344.71 368.617,344.487 369.822,344.265 371.027,344.042 371.027,344.042 372.231,343.819 373.436,343.597 374.641,343.375 375.845,343.153 377.05,342.93 378.255,342.709 379.46,342.487 379.46,342.487 380.664,342.265 381.869,342.044 383.074,341.822 384.278,341.601 385.483,341.38 386.688,341.159 387.892,340.938 387.892,340.938 389.097,340.717 390.302,340.496 391.507,340.276 392.711,340.055 393.916,339.835 395.121,339.615 396.325,339.395 396.325,339.394 397.53,339.175 398.735,338.955 399.939,338.735 401.144,338.516 402.349,338.296 403.554,338.077 404.758,337.857 404.758,338.468 405.963,337.514 407.168,337.018 408.372,336.866 409.577,336.947 410.782,337.148 411.986,337.356 413.191,337.46 413.191,637.528 414.396,241.187 415.601,160.256 416.805,297.147 418.01,554.272 419.215,834.044 420.419,1038.87 421.624,1071.18 421.624,987.086 422.829,940.469 424.033,919.641 425.238,917.006 426.443,924.965 427.648,935.92 428.852,942.275 430.057,936.431 430.057,933.091 431.262,934.38 432.466,935.458 433.671,936.345 434.876,937.064 436.08,937.637 437.285,938.085 438.49,938.431 438.49,938.385 439.695,938.96 440.899,939.508 442.104,940.035 443.309,940.546 444.513,941.047 445.718,941.544 446.923,942.044 446.923,942.045 448.127,942.55 449.332,943.053 450.537,943.554 451.741,944.053 452.946,944.551 454.151,945.047 455.356,945.543 455.356,945.543 456.56,946.038 457.765,946.532 458.97,947.024 460.174,947.516 461.379,948.007 462.584,948.496 463.788,948.984 463.788,948.984 464.993,949.472 466.198,949.958 467.403,950.443 468.607,950.928 469.812,951.411 471.017,951.893 472.221,952.374 472.221,952.374 473.426,952.855 474.631,953.334 475.835,953.812 477.04,954.29 478.245,954.766 479.45,955.241 480.654,955.716 480.654,955.716 481.859,956.189 483.064,956.662 484.268,957.133 485.473,957.604 486.678,958.074 487.882,958.543 489.087,959.01 489.087,959.01 490.292,959.477 491.497,959.943 492.701,960.408 493.906,960.873 495.111,961.336 496.315,961.799 497.52,962.26 497.52,962.26 498.725,962.721 499.929,963.181 501.134,963.639 502.339,964.098 503.544,964.555 504.748,965.011 505.953,965.467 505.953,965.467 507.158,965.921 508.362,966.375 509.567,966.828 510.772,967.28 511.976,967.731 513.181,968.182 514.386,968.632 514.386,968.632 515.591,969.08 516.795,969.529 518,969.976 519.205,970.422 520.409,970.868 521.614,971.313 522.819,971.757 522.819,971.757 524.023,972.2 525.228,972.642 526.433,973.084 527.638,973.525 528.842,973.965 530.047,974.405 531.252,974.843 531.252,974.843 532.456,975.281 533.661,975.718 534.866,976.155 536.07,976.59 537.275,977.025 538.48,977.459 539.684,977.893 539.684,977.893 540.889,978.325 542.094,978.757 543.299,979.188 544.503,979.619 545.708,980.049 546.913,980.478 548.117,980.906 548.117,980.906 549.322,981.334 550.527,981.761 551.731,982.187 552.936,982.612 554.141,983.037 555.346,983.461 556.55,983.885 556.55,983.885 557.755,984.308 558.96,984.73 560.164,985.151 561.369,985.572 562.574,985.992 563.778,986.411 564.983,986.83 564.983,986.83 566.188,987.248 567.393,987.665 568.597,988.082 569.802,988.498 571.007,988.914 572.211,989.328 573.416,989.743 573.416,989.743 574.621,990.156 575.825,990.569 577.03,990.981 578.235,991.393 579.44,991.804 580.644,992.214 581.849,992.624 581.849,992.624 583.054,993.033 584.258,993.441 585.463,993.849 586.668,994.256 587.872,994.663 589.077,995.069 590.282,995.475 590.282,995.475 591.487,995.879 592.691,996.284 593.896,996.687 595.101,997.09 596.305,997.493 597.51,997.894 598.715,998.296 598.715,998.296 599.919,998.696 601.124,999.096 602.329,999.496 603.534,999.895 604.738,1000.29 605.943,1000.69 607.148,1001.09 607.148,1001.09 608.352,1001.48 609.557,1001.88 610.762,1002.28 611.966,1002.67 613.171,1003.07 614.376,1003.46 615.581,1003.85 615.581,1003.85 616.785,1004.25 617.99,1004.64 619.195,1005.03 620.399,1005.42 621.604,1005.81 622.809,1006.2 624.013,1006.59 624.013,1006.59 625.218,1006.98 626.423,1007.37 627.627,1007.76 628.832,1008.14 630.037,1008.53 631.242,1008.92 632.446,1009.3 632.446,1009.3 633.651,1009.69 634.856,1010.07 636.06,1010.46 637.265,1010.84 638.47,1011.22 639.674,1011.6 640.879,1011.99 640.879,1011.99 642.084,1012.37 643.289,1012.75 644.493,1013.13 645.698,1013.51 646.903,1013.89 648.107,1014.27 649.312,1014.65 649.312,1014.65 650.517,1015.03 651.721,1015.4 652.926,1015.78 654.131,1016.16 655.336,1016.53 656.54,1016.91 657.745,1017.28 657.745,1017.28 658.95,1017.66 660.154,1018.03 661.359,1018.41 662.564,1018.78 663.768,1019.15 664.973,1019.52 666.178,1019.9 666.178,1019.9 667.383,1020.27 668.587,1020.64 669.792,1021.01 670.997,1021.38 672.201,1021.75 673.406,1022.12 674.611,1022.49 674.611,1022.49 675.815,1022.85 677.02,1023.22 678.225,1023.59 679.43,1023.96 680.634,1024.32 681.839,1024.69 683.044,1025.05 683.044,1025.05 684.248,1025.42 685.453,1025.78 686.658,1026.15 687.862,1026.51 689.067,1026.87 690.272,1027.24 691.477,1027.6 691.477,1027.6 692.681,1027.96 693.886,1028.32 695.091,1028.68 696.295,1029.04 697.5,1029.4 698.705,1029.76 699.909,1030.12 699.909,1030.12 701.114,1030.48 702.319,1030.84 703.524,1031.2 704.728,1031.56 705.933,1031.91 707.138,1032.27 708.342,1032.63 708.342,1032.63 709.547,1032.98 710.752,1033.34 711.956,1033.69 713.161,1034.05 714.366,1034.4 715.57,1034.75 716.775,1035.11 716.775,1035.11 717.98,1035.46 719.185,1035.81 720.389,1036.17 721.594,1036.52 722.799,1036.87 724.003,1037.22 725.208,1037.57 725.208,1037.57 726.413,1037.92 727.617,1038.27 728.822,1038.62 730.027,1038.97 731.232,1039.32 732.436,1039.67 733.641,1040.01 733.641,1040.01 734.846,1040.36 736.05,1040.71 737.255,1041.06 738.46,1041.4 739.664,1041.75 740.869,1042.09 742.074,1042.44 742.074,1042.44 743.279,1042.78 744.483,1043.13 745.688,1043.47 746.893,1043.82 748.097,1044.16 749.302,1044.5 750.507,1044.84 750.507,1044.84 751.711,1045.19 752.916,1045.53 754.121,1045.87 755.326,1046.21 756.53,1046.55 757.735,1046.89 758.94,1047.23 758.94,1047.23 760.144,1047.57 761.349,1047.91 762.554,1048.25 763.758,1048.59 764.963,1048.93 766.168,1049.26 767.373,1049.6 767.373,1049.6 768.577,1049.94 769.782,1050.27 770.987,1050.61 772.191,1050.95 773.396,1051.28 774.601,1051.62 775.805,1051.95 775.805,1051.95 777.01,1052.29 778.215,1052.62 779.42,1052.96 780.624,1053.29 781.829,1053.62 783.034,1053.95 784.238,1054.29 784.238,1054.29 785.443,1054.62 786.648,1054.95 787.852,1055.28 789.057,1055.61 790.262,1055.94 791.467,1056.28 792.671,1056.61 792.671,1056.61 793.876,1056.94 795.081,1057.26 796.285,1057.59 797.49,1057.92 798.695,1058.25 799.899,1058.58 801.104,1058.91 801.104,1058.91 802.309,1059.23 803.513,1059.56 804.718,1059.89 805.923,1060.22 807.128,1060.54 808.332,1060.87 809.537,1061.19 809.537,1061.19 810.742,1061.52 811.946,1061.84 813.151,1062.17 814.356,1062.49 815.56,1062.82 816.765,1063.14 817.97,1063.46 817.97,1063.46 819.175,1063.79 820.379,1064.11 821.584,1064.43 822.789,1064.75 823.993,1065.07 825.198,1065.4 826.403,1065.72 826.403,1065.72 827.607,1066.04 828.812,1066.36 830.017,1066.68 831.222,1067 832.426,1067.32 833.631,1067.64 834.836,1067.96 834.836,1067.96 836.04,1068.27 837.245,1068.59 838.45,1068.91 839.654,1069.23 840.859,1069.55 842.064,1069.86 843.269,1070.18 843.269,1070.18 844.473,1070.5 845.678,1070.81 846.883,1071.13 848.087,1071.44 849.292,1071.76 850.497,1072.07 851.701,1072.39 851.701,1072.39 852.906,1072.7 854.111,1073.02 855.316,1073.33 856.52,1073.65 857.725,1073.96 858.93,1074.27 860.134,1074.58 860.134,1074.58 861.339,1074.9 862.544,1075.21 863.748,1075.52 864.953,1075.83 866.158,1076.14 867.363,1076.45 868.567,1076.77 868.567,1076.77 869.772,1077.08 870.977,1077.39 872.181,1077.7 873.386,1078.01 874.591,1078.32 875.795,1078.62 877,1078.93 877,1078.93 878.205,1079.24 879.41,1079.55 880.614,1079.86 881.819,1080.17 883.024,1080.47 884.228,1080.78 885.433,1081.09 885.433,1081.09 886.638,1081.39 887.842,1081.7 889.047,1082.01 890.252,1082.31 891.456,1082.62 892.661,1082.92 893.866,1083.23 893.866,1083.23 895.071,1083.53 896.275,1083.84 897.48,1084.14 898.685,1084.44 899.889,1084.75 901.094,1085.05 902.299,1085.35 902.299,1085.35 903.503,1085.66 904.708,1085.96 905.913,1086.26 907.118,1086.56 908.322,1086.86 909.527,1087.17 910.732,1087.47 910.732,1087.47 911.936,1087.77 913.141,1088.07 914.346,1088.37 915.55,1088.67 916.755,1088.97 917.96,1089.27 919.165,1089.57 919.165,1089.57 920.369,1089.87 921.574,1090.17 922.779,1090.47 923.983,1090.76 925.188,1091.06 926.393,1091.36 927.597,1091.66 927.597,1091.66 928.802,1091.96 930.007,1092.25 931.212,1092.55 932.416,1092.85 933.621,1093.14 934.826,1093.44 936.03,1093.73 936.03,1093.73 937.235,1094.03 938.44,1094.33 939.644,1094.62 940.849,1094.92 942.054,1095.21 943.259,1095.5 944.463,1095.8 944.463,1095.8 945.668,1096.09 946.873,1096.39 948.077,1096.68 949.282,1096.97 950.487,1097.27 951.691,1097.56 952.896,1097.85 952.896,1097.85 954.101,1098.14 955.306,1098.44 956.51,1098.73 957.715,1099.02 958.92,1099.31 960.124,1099.6 961.329,1099.89 961.329,1099.89 962.534,1100.18 963.738,1100.47 964.943,1100.76 966.148,1101.05 967.353,1101.34 968.557,1101.63 969.762,1101.92 969.762,1101.92 970.967,1102.21 972.171,1102.5 973.376,1102.79 974.581,1103.08 975.785,1103.36 976.99,1103.65 978.195,1103.94 978.195,1103.94 979.399,1104.23 980.604,1104.51 981.809,1104.8 983.014,1105.09 984.218,1105.37 985.423,1105.66 986.628,1105.95 986.628,1105.95 987.832,1106.23 989.037,1106.52 990.242,1106.8 991.446,1107.09 992.651,1107.37 993.856,1107.66 995.061,1107.94 995.061,1107.94 996.265,1108.22 997.47,1108.51 998.675,1108.79 999.879,1109.08 1001.08,1109.36 1002.29,1109.64 1003.49,1109.93 1003.49,1109.93 1004.7,1110.21 1005.9,1110.49 1007.11,1110.77 1008.31,1111.05 1009.52,1111.34 1010.72,1111.62 1011.93,1111.9 1011.93,1111.9 1013.13,1112.18 1014.34,1112.46 1015.54,1112.74 1016.75,1113.02 1017.95,1113.3 1019.15,1113.58 1020.36,1113.86 1020.36,1113.86 1021.56,1114.14 1022.77,1114.42 1023.97,1114.7 1025.18,1114.98 1026.38,1115.26 1027.59,1115.54 1028.79,1115.82 1028.79,1115.82 1030,1116.09 1031.2,1116.37 1032.41,1116.65 1033.61,1116.93 1034.82,1117.2 1036.02,1117.48 1037.23,1117.76 1037.23,1117.76 1038.43,1118.03 1039.63,1118.31 1040.84,1118.59 1042.04,1118.86 1043.25,1119.14 1044.45,1119.41 1045.66,1119.69 1045.66,1119.69 1046.86,1119.97 1048.07,1120.24 1049.27,1120.52 1050.48,1120.79 1051.68,1121.06 1052.89,1121.34 1054.09,1121.61 1054.09,1121.61 1055.3,1121.89 1056.5,1122.16 1057.7,1122.43 1058.91,1122.71 1060.11,1122.98 1061.32,1123.25 1062.52,1123.53 1062.52,1123.53 1063.73,1123.8 1064.93,1124.07 1066.14,1124.34 1067.34,1124.61 1068.55,1124.89 1069.75,1125.16 1070.96,1125.43 1070.96,1125.43 1072.16,1125.7 1073.37,1125.97 1074.57,1126.24 1075.78,1126.51 1076.98,1126.78 1078.18,1127.05 1079.39,1127.32 1079.39,1127.32 1080.59,1127.59 1081.8,1127.86 1083,1128.13 1084.21,1128.4 1085.41,1128.67 1086.62,1128.94 1087.82,1129.21 1087.82,1129.21 1089.03,1129.47 1090.23,1129.74 1091.44,1130.01 1092.64,1130.28 1093.85,1130.54 1095.05,1130.81 1096.26,1131.08 1096.26,1131.08 1097.46,1131.35 1098.66,1131.61 1099.87,1131.88 1101.07,1132.15 1102.28,1132.41 1103.48,1132.68 1104.69,1132.94 1104.69,1132.94 1105.89,1133.21 1107.1,1133.48 1108.3,1133.74 1109.51,1134.01 1110.71,1134.27 1111.92,1134.54 1113.12,1134.8 1113.12,1134.8 1114.33,1135.06 1115.53,1135.33 1116.74,1135.59 1117.94,1135.86 1119.14,1136.12 1120.35,1136.38 1121.55,1136.65 1121.55,1136.65 1122.76,1136.91 1123.96,1137.17 1125.17,1137.44 1126.37,1137.7 1127.58,1137.96 1128.78,1138.22 1129.99,1138.49 1129.99,1138.49 1131.19,1138.75 1132.4,1139.01 1133.6,1139.27 1134.81,1139.53 1136.01,1139.79 1137.22,1140.05 1138.42,1140.31 1138.42,1140.31 1139.62,1140.58 1140.83,1140.84 1142.03,1141.1 1143.24,1141.36 1144.44,1141.62 1145.65,1141.88 1146.85,1142.14 1146.85,1142.14 1148.06,1142.39 1149.26,1142.65 1150.47,1142.91 1151.67,1143.17 1152.88,1143.43 1154.08,1143.69 1155.29,1143.95 1155.29,1143.95 1156.49,1144.21 1157.69,1144.46 1158.9,1144.72 1160.1,1144.98 1161.31,1145.24 1162.51,1145.49 1163.72,1145.75 1163.72,1145.75 1164.92,1146.01 1166.13,1146.26 1167.33,1146.52 1168.54,1146.78 1169.74,1147.03 1170.95,1147.29 1172.15,1147.55 1172.15,1147.55 1173.36,1147.8 1174.56,1148.06 1175.77,1148.31 1176.97,1148.57 1178.17,1148.82 1179.38,1149.08 1180.58,1149.33 1180.58,1149.33 1181.79,1149.59 1182.99,1149.84 1184.2,1150.1 1185.4,1150.35 1186.61,1150.6 1187.81,1150.86 1189.02,1151.11 1189.02,1151.11 1190.22,1151.37 1191.43,1151.62 1192.63,1151.87 1193.84,1152.12 1195.04,1152.38 1196.25,1152.63 1197.45,1152.88 1197.45,1152.88 1198.65,1153.13 1199.86,1153.39 1201.06,1153.64 1202.27,1153.89 1203.47,1154.14 1204.68,1154.39 1205.88,1154.64 1205.88,1154.64 1207.09,1154.9 1208.29,1155.15 1209.5,1155.4 1210.7,1155.65 1211.91,1155.9 1213.11,1156.15 1214.32,1156.4 1214.32,1156.4 1215.52,1156.65 1216.73,1156.9 1217.93,1157.15 1219.13,1157.4 1220.34,1157.65 1221.54,1157.9 1222.75,1158.15 1222.75,1158.15 1223.95,1158.4 1225.16,1158.64 1226.36,1158.89 1227.57,1159.14 1228.77,1159.39 1229.98,1159.64 1231.18,1159.89 1231.18,1159.89 1232.39,1160.13 1233.59,1160.38 1234.8,1160.63 1236,1160.88 1237.2,1161.12 1238.41,1161.37 1239.61,1161.62 1239.61,1161.62 1240.82,1161.86 1242.02,1162.11 1243.23,1162.36 1244.43,1162.6 1245.64,1162.85 1246.84,1163.09 1248.05,1163.34 1248.05,1163.34 1249.25,1163.59 1250.46,1163.83 1251.66,1164.08 1252.87,1164.32 1254.07,1164.57 1255.28,1164.81 1256.48,1165.06 1256.48,1165.06 1257.68,1165.3 1258.89,1165.55 1260.09,1165.79 1261.3,1166.03 1262.5,1166.28 1263.71,1166.52 1264.91,1166.77 1264.91,1166.77 1266.12,1167.01 1267.32,1167.25 1268.53,1167.5 1269.73,1167.74 1270.94,1167.98 1272.14,1168.22 1273.35,1168.47 1273.35,1168.47 1274.55,1168.71 1275.76,1168.95 1276.96,1169.19 1278.16,1169.44 1279.37,1169.68 1280.57,1169.92 1281.78,1170.16 1281.78,1170.16 1282.98,1170.4 1284.19,1170.64 1285.39,1170.88 1286.6,1171.13 1287.8,1171.37 1289.01,1171.61 1290.21,1171.85 1290.21,1171.85 1291.42,1172.09 1292.62,1172.33 1293.83,1172.57 1295.03,1172.81 1296.24,1173.05 1297.44,1173.29 1298.64,1173.53 1298.64,1173.53 1299.85,1173.77 1301.05,1174.01 1302.26,1174.25 1303.46,1174.48 1304.67,1174.72 1305.87,1174.96 1307.08,1175.2 1307.08,1175.2 1308.28,1175.44 1309.49,1175.68 1310.69,1175.91 1311.9,1176.15 1313.1,1176.39 1314.31,1176.63 1315.51,1176.87 1315.51,1176.87 1316.72,1177.1 1317.92,1177.34 1319.12,1177.58 1320.33,1177.81 1321.53,1178.05 1322.74,1178.29 1323.94,1178.52 1323.94,1178.52 1325.15,1178.76 1326.35,1179 1327.56,1179.23 1328.76,1179.47 1329.97,1179.7 1331.17,1179.94 1332.38,1180.18 1332.38,1180.18 1333.58,1180.41 1334.79,1180.65 1335.99,1180.88 1337.19,1181.12 1338.4,1181.35 1339.6,1181.59 1340.81,1181.82 1340.81,1181.82 1342.01,1182.06 1343.22,1182.29 1344.42,1182.52 1345.63,1182.76 1346.83,1182.99 1348.04,1183.23 1349.24,1183.46 1349.24,1183.46 1350.45,1183.69 1351.65,1183.93 1352.86,1184.16 1354.06,1184.39 1355.27,1184.63 1356.47,1184.86 1357.67,1185.09 1357.67,1185.09 1358.88,1185.32 1360.08,1185.56 1361.29,1185.79 1362.49,1186.02 1363.7,1186.25 1364.9,1186.48 1366.11,1186.72 1366.11,1186.72 1367.31,1186.95 1368.52,1187.18 1369.72,1187.41 1370.93,1187.64 1372.13,1187.87 1373.34,1188.1 1374.54,1188.33 1374.54,1188.33 1375.75,1188.56 1376.95,1188.8 1378.15,1189.03 1379.36,1189.26 1380.56,1189.49 1381.77,1189.72 1382.97,1189.95 1382.97,1189.95 1384.18,1190.18 1385.38,1190.4 1386.59,1190.63 1387.79,1190.86 1389,1191.09 1390.2,1191.32 1391.41,1191.55 1391.41,1191.55 1392.61,1191.78 1393.82,1192.01 1395.02,1192.24 1396.23,1192.47 1397.43,1192.69 1398.63,1192.92 1399.84,1193.15 1399.84,1193.15 1401.04,1193.38 1402.25,1193.61 1403.45,1193.83 1404.66,1194.06 1405.86,1194.29 1407.07,1194.51 1408.27,1194.74 1408.27,1194.74 1409.48,1194.97 1410.68,1195.2 1411.89,1195.42 1413.09,1195.65 1414.3,1195.88 1415.5,1196.1 1416.71,1196.33 1416.71,1196.33 1417.91,1196.55 1419.11,1196.78 1420.32,1197.01 1421.52,1197.23 1422.73,1197.46 1423.93,1197.68 1425.14,1197.91 1425.14,1197.91 1426.34,1198.13 1427.55,1198.36 1428.75,1198.58 1429.96,1198.81 1431.16,1199.03 1432.37,1199.26 1433.57,1199.48 1433.57,1199.48 1434.78,1199.71 1435.98,1199.93 1437.18,1200.15 1438.39,1200.38 1439.59,1200.6 1440.8,1200.83 1442,1201.05 1442,1201.05 1443.21,1201.27 1444.41,1201.5 1445.62,1201.72 1446.82,1201.94 1448.03,1202.16 1449.23,1202.39 1450.44,1202.61 1450.44,1202.61 1451.64,1202.83 1452.85,1203.06 1454.05,1203.28 1455.26,1203.5 1456.46,1203.72 1457.66,1203.94 1458.87,1204.17 1458.87,1204.17 1460.07,1204.39 1461.28,1204.61 1462.48,1204.83 1463.69,1205.05 1464.89,1205.27 1466.1,1205.49 1467.3,1205.71 1467.3,1205.71 1468.51,1205.94 1469.71,1206.16 1470.92,1206.38 1472.12,1206.6 1473.33,1206.82 1474.53,1207.04 1475.74,1207.26 1475.74,1207.26 1476.94,1207.48 1478.14,1207.7 1479.35,1207.92 1480.55,1208.14 1481.76,1208.36 1482.96,1208.58 1484.17,1208.79 1484.17,1208.18 1485.37,1209.14 1486.58,1209.63 1487.78,1209.79 1488.99,1209.7 1490.19,1209.5 1491.4,1209.3 1492.6,1209.19 1492.6,909.124 1493.81,1305.46 1495.01,1386.4 1496.22,1249.5 1497.42,992.38 1498.62,712.608 1499.83,507.777 1501.03,475.475 1501.03,559.566 1502.24,606.183 1503.44,627.011 1504.65,629.646 1505.85,621.687 1507.06,610.732 1508.26,604.377 1509.47,610.221 1509.47,613.561 1510.67,612.272 1511.88,611.194 1513.08,610.307 1514.29,609.588 1515.49,609.015 1516.7,608.567 1517.9,608.221 1517.9,608.267 1519.1,607.692 1520.31,607.144 1521.51,606.617 1522.72,606.106 1523.92,605.605 1525.13,605.108 1526.33,604.608 1526.33,604.607 1527.54,604.102 1528.74,603.599 1529.95,603.098 1531.15,602.599 1532.36,602.101 1533.56,601.605 1534.77,601.109 1534.77,601.109 1535.97,600.614 1537.17,600.12 1538.38,599.627 1539.58,599.136 1540.79,598.645 1541.99,598.156 1543.2,597.668 1543.2,597.668 1544.4,597.18 1545.61,596.694 1546.81,596.209 1548.02,595.724 1549.22,595.241 1550.43,594.759 1551.63,594.278 1551.63,594.278 1552.84,593.797 1554.04,593.318 1555.25,592.84 1556.45,592.362 1557.65,591.886 1558.86,591.411 1560.06,590.936 1560.06,590.936 1561.27,590.463 1562.47,589.99 1563.68,589.519 1564.88,589.048 1566.09,588.578 1567.29,588.109 1568.5,587.642 1568.5,587.642 1569.7,587.175 1570.91,586.709 1572.11,586.243 1573.32,585.779 1574.52,585.316 1575.73,584.853 1576.93,584.392 1576.93,584.392 1578.13,583.931 1579.34,583.471 1580.54,583.012 1581.75,582.554 1582.95,582.097 1584.16,581.641 1585.36,581.185 1585.36,581.185 1586.57,580.731 1587.77,580.277 1588.98,579.824 1590.18,579.372 1591.39,578.92 1592.59,578.47 1593.8,578.02 1593.8,578.02 1595,577.571 1596.21,577.123 1597.41,576.676 1598.61,576.23 1599.82,575.784 1601.02,575.339 1602.23,574.895 1602.23,574.895 1603.43,574.452 1604.64,574.01 1605.84,573.568 1607.05,573.127 1608.25,572.687 1609.46,572.247 1610.66,571.809 1610.66,571.809 1611.87,571.371 1613.07,570.934 1614.28,570.497 1615.48,570.062 1616.69,569.627 1617.89,569.193 1619.09,568.759 1619.09,568.759 1620.3,568.327 1621.5,567.895 1622.71,567.464 1623.91,567.033 1625.12,566.603 1626.32,566.174 1627.53,565.746 1627.53,565.746 1628.73,565.318 1629.94,564.891 1631.14,564.465 1632.35,564.04 1633.55,563.615 1634.76,563.191 1635.96,562.767 1635.96,562.767 1637.16,562.344 1638.37,561.922 1639.57,561.501 1640.78,561.08 1641.98,560.66 1643.19,560.241 1644.39,559.822 1644.39,559.822 1645.6,559.404 1646.8,558.987 1648.01,558.57 1649.21,558.154 1650.42,557.738 1651.62,557.324 1652.83,556.909 1652.83,556.909 1654.03,556.496 1655.24,556.083 1656.44,555.671 1657.64,555.259 1658.85,554.848 1660.05,554.438 1661.26,554.028 1661.26,554.028 1662.46,553.619 1663.67,553.211 1664.87,552.803 1666.08,552.395 1667.28,551.989 1668.49,551.583 1669.69,551.177 1669.69,551.177 1670.9,550.773 1672.1,550.368 1673.31,549.965 1674.51,549.562 1675.72,549.159 1676.92,548.757 1678.12,548.356 1678.12,548.356 1679.33,547.956 1680.53,547.556 1681.74,547.156 1682.94,546.757 1684.15,546.359 1685.35,545.961 1686.56,545.564 1686.56,545.564 1687.76,545.167 1688.97,544.771 1690.17,544.376 1691.38,543.981 1692.58,543.586 1693.79,543.192 1694.99,542.799 1694.99,542.799 1696.2,542.407 1697.4,542.014 1698.6,541.623 1699.81,541.232 1701.01,540.841 1702.22,540.451 1703.42,540.062 1703.42,540.062 1704.63,539.673 1705.83,539.284 1707.04,538.897 1708.24,538.509 1709.45,538.123 1710.65,537.736 1711.86,537.351 1711.86,537.351 1713.06,536.965 1714.27,536.581 1715.47,536.197 1716.68,535.813 1717.88,535.43 1719.08,535.047 1720.29,534.665 1720.29,534.665 1721.49,534.283 1722.7,533.902 1723.9,533.522 1725.11,533.142 1726.31,532.762 1727.52,532.383 1728.72,532.004 1728.72,532.004 1729.93,531.626 1731.13,531.249 1732.34,530.872 1733.54,530.495 1734.75,530.119 1735.95,529.743 1737.15,529.368 1737.15,529.368 1738.36,528.993 1739.56,528.619 1740.77,528.245 1741.97,527.872 1743.18,527.499 1744.38,527.127 1745.59,526.755 1745.59,526.755 1746.79,526.384 1748,526.013 1749.2,525.643 1750.41,525.273 1751.61,524.903 1752.82,524.534 1754.02,524.166 1754.02,524.166 1755.23,523.798 1756.43,523.43 1757.63,523.063 1758.84,522.696 1760.04,522.33 1761.25,521.964 1762.45,521.599 1762.45,521.599 1763.66,521.234 1764.86,520.869 1766.07,520.505 1767.27,520.141 1768.48,519.778 1769.68,519.416 1770.89,519.053 1770.89,519.053 1772.09,518.691 1773.3,518.33 1774.5,517.969 1775.71,517.608 1776.91,517.248 1778.11,516.889 1779.32,516.529 1779.32,516.529 1780.52,516.171 1781.73,515.812 1782.93,515.454 1784.14,515.097 1785.34,514.739 1786.55,514.383 1787.75,514.026 1787.75,514.026 1788.96,513.67 1790.16,513.315 1791.37,512.96 1792.57,512.605 1793.78,512.251 1794.98,511.897 1796.19,511.544 1796.19,511.544 1797.39,511.191 1798.59,510.838 1799.8,510.486 1801,510.134 1802.21,509.783 1803.41,509.432 1804.62,509.081 1804.62,509.081 1805.82,508.731 1807.03,508.381 1808.23,508.032 1809.44,507.683 1810.64,507.334 1811.85,506.986 1813.05,506.638 1813.05,506.638 1814.26,506.29 1815.46,505.943 1816.67,505.597 1817.87,505.25 1819.07,504.904 1820.28,504.559 1821.48,504.214 1821.48,504.214 1822.69,503.869 1823.89,503.525 1825.1,503.181 1826.3,502.837 1827.51,502.494 1828.71,502.151 1829.92,501.808 1829.92,501.808 1831.12,501.466 1832.33,501.124 1833.53,500.783 1834.74,500.442 1835.94,500.101 1837.14,499.761 1838.35,499.421 1838.35,499.421 1839.55,499.081 1840.76,498.742 1841.96,498.403 1843.17,498.065 1844.37,497.727 1845.58,497.389 1846.78,497.052 1846.78,497.052 1847.99,496.714 1849.19,496.378 1850.4,496.041 1851.6,495.705 1852.81,495.37 1854.01,495.034 1855.22,494.7 1855.22,494.7 1856.42,494.365 1857.62,494.031 1858.83,493.697 1860.03,493.363 1861.24,493.03 1862.44,492.697 1863.65,492.365 1863.65,492.365 1864.85,492.033 1866.06,491.701 1867.26,491.369 1868.47,491.038 1869.67,490.707 1870.88,490.377 1872.08,490.047 1872.08,490.047 1873.29,489.717 1874.49,489.387 1875.7,489.058 1876.9,488.729 1878.1,488.401 1879.31,488.073 1880.51,487.745 1880.51,487.745 1881.72,487.417 1882.92,487.09 1884.13,486.763 1885.33,486.437 1886.54,486.111 1887.74,485.785 1888.95,485.459 1888.95,485.459 1890.15,485.134 1891.36,484.809 1892.56,484.485 1893.77,484.16 1894.97,483.836 1896.18,483.513 1897.38,483.19 1897.38,483.19 1898.58,482.867 1899.79,482.544 1900.99,482.222 1902.2,481.9 1903.4,481.578 1904.61,481.256 1905.81,480.935 1905.81,480.935 1907.02,480.615 1908.22,480.294 1909.43,479.974 1910.63,479.654 1911.84,479.334 1913.04,479.015 1914.25,478.696 1914.25,478.696 1915.45,478.378 1916.66,478.059 1917.86,477.741 1919.06,477.423 1920.27,477.106 1921.47,476.789 1922.68,476.472 1922.68,476.472 1923.88,476.155 1925.09,475.839 1926.29,475.523 1927.5,475.208 1928.7,474.892 1929.91,474.577 1931.11,474.262 1931.11,474.262 1932.32,473.948 1933.52,473.634 1934.73,473.32 1935.93,473.006 1937.13,472.693 1938.34,472.38 1939.54,472.067 1939.54,472.067 1940.75,471.755 1941.95,471.443 1943.16,471.131 1944.36,470.819 1945.57,470.508 1946.77,470.197 1947.98,469.886 1947.98,469.886 1949.18,469.576 1950.39,469.266 1951.59,468.956 1952.8,468.646 1954,468.337 1955.21,468.028 1956.41,467.719 1956.41,467.719 1957.61,467.411 1958.82,467.102 1960.02,466.794 1961.23,466.487 1962.43,466.179 1963.64,465.872 1964.84,465.566 1964.84,465.566 1966.05,465.259 1967.25,464.953 1968.46,464.647 1969.66,464.341 1970.87,464.035 1972.07,463.73 1973.28,463.425 1973.28,463.425 1974.48,463.121 1975.69,462.816 1976.89,462.512 1978.09,462.208 1979.3,461.905 1980.5,461.601 1981.71,461.298 1981.71,461.298 1982.91,460.996 1984.12,460.693 1985.32,460.391 1986.53,460.089 1987.73,459.787 1988.94,459.486 1990.14,459.184 1990.14,459.184 1991.35,458.883 1992.55,458.583 1993.76,458.282 1994.96,457.982 1996.17,457.682 1997.37,457.382 1998.57,457.083 1998.57,457.083 1999.78,456.784 2000.98,456.485 2002.19,456.186 2003.39,455.888 2004.6,455.59 2005.8,455.292 2007.01,454.994 2007.01,454.994 2008.21,454.697 2009.42,454.4 2010.62,454.103 2011.83,453.806 2013.03,453.51 2014.24,453.214 2015.44,452.918 2015.44,452.918 2016.64,452.622 2017.85,452.327 2019.05,452.031 2020.26,451.737 2021.46,451.442 2022.67,451.147 2023.87,450.853 2023.87,450.853 2025.08,450.559 2026.28,450.266 2027.49,449.972 2028.69,449.679 2029.9,449.386 2031.1,449.093 2032.31,448.801 2032.31,448.801 2033.51,448.509 2034.72,448.217 2035.92,447.925 2037.12,447.633 2038.33,447.342 2039.53,447.051 2040.74,446.76 2040.74,446.76 2041.94,446.47 2043.15,446.179 2044.35,445.889 2045.56,445.599 2046.76,445.31 2047.97,445.02 2049.17,444.731 2049.17,444.731 2050.38,444.442 2051.58,444.153 2052.79,443.865 2053.99,443.577 2055.2,443.289 2056.4,443.001 2057.6,442.713 2057.6,442.713 2058.81,442.426 2060.01,442.139 2061.22,441.852 2062.42,441.565 2063.63,441.279 2064.83,440.993 2066.04,440.707 2066.04,440.707 2067.24,440.421 2068.45,440.135 2069.65,439.85 2070.86,439.565 2072.06,439.28 2073.27,438.996 2074.47,438.711 2074.47,438.711 2075.68,438.427 2076.88,438.143 2078.08,437.859 2079.29,437.576 2080.49,437.293 2081.7,437.009 2082.9,436.727 2082.9,436.727 2084.11,436.444 2085.31,436.162 2086.52,435.879 2087.72,435.597 2088.93,435.316 2090.13,435.034 2091.34,434.753 2091.34,434.753 2092.54,434.472 2093.75,434.191 2094.95,433.91 2096.16,433.63 2097.36,433.349 2098.56,433.069 2099.77,432.79 2099.77,432.79 2100.97,432.51 2102.18,432.23 2103.38,431.951 2104.59,431.672 2105.79,431.394 2107,431.115 2108.2,430.837 2108.2,430.837 2109.41,430.559 2110.61,430.281 2111.82,430.003 2113.02,429.725 2114.23,429.448 2115.43,429.171 2116.63,428.894 2116.63,428.894 2117.84,428.617 2119.04,428.341 2120.25,428.065 2121.45,427.789 2122.66,427.513 2123.86,427.237 2125.07,426.962 2125.07,426.962 2126.27,426.686 2127.48,426.411 2128.68,426.137 2129.89,425.862 2131.09,425.587 2132.3,425.313 2133.5,425.039 2133.5,425.039 2134.71,424.765 2135.91,424.492 2137.11,424.218 2138.32,423.945 2139.52,423.672 2140.73,423.399 2141.93,423.127 2141.93,423.127 2143.14,422.854 2144.34,422.582 2145.55,422.31 2146.75,422.038 2147.96,421.767 2149.16,421.495 2150.37,421.224 2150.37,421.224 2151.57,420.953 2152.78,420.682 2153.98,420.411 2155.19,420.141 2156.39,419.871 2157.59,419.601 2158.8,419.331 2158.8,419.331 2160,419.061 2161.21,418.791 2162.41,418.522 2163.62,418.253 2164.82,417.984 2166.03,417.715 2167.23,417.447 2167.23,417.447 2168.44,417.179 2169.64,416.91 2170.85,416.642 2172.05,416.375 2173.26,416.107 2174.46,415.84 2175.67,415.573 2175.67,415.573 2176.87,415.306 2178.07,415.039 2179.28,414.772 2180.48,414.506 2181.69,414.239 2182.89,413.973 2184.1,413.707 2184.1,413.707 2185.3,413.442 2186.51,413.176 2187.71,412.911 2188.92,412.646 2190.12,412.381 2191.33,412.116 2192.53,411.851 2192.53,411.851 2193.74,411.587 2194.94,411.323 2196.15,411.059 2197.35,410.795 2198.55,410.531 2199.76,410.268 2200.96,410.004 2200.96,410.004 2202.17,409.741 2203.37,409.478 2204.58,409.216 2205.78,408.953 2206.99,408.691 2208.19,408.428 2209.4,408.166 2209.4,408.166 2210.6,407.905 2211.81,407.643 2213.01,407.381 2214.22,407.12 2215.42,406.859 2216.62,406.598 2217.83,406.337 2217.83,406.337 2219.03,406.076 2220.24,405.816 2221.44,405.556 2222.65,405.296 2223.85,405.036 2225.06,404.776 2226.26,404.516 2226.26,404.516 2227.47,404.257 2228.67,403.998 2229.88,403.739 2231.08,403.48 2232.29,403.221 2233.49,402.963 2234.7,402.704 2234.7,402.704 2235.9,402.446 2237.1,402.188 2238.31,401.931 2239.51,401.673 2240.72,401.415 2241.92,401.158 2243.13,400.901 2243.13,400.901 2244.33,400.644 2245.54,400.387 2246.74,400.131 2247.95,399.874 2249.15,399.618 2250.36,399.362 2251.56,399.106 2251.56,399.106 2252.77,398.85 2253.97,398.594 2255.18,398.339 2256.38,398.084 2257.58,397.829 2258.79,397.574 2259.99,397.319 2259.99,397.319 2261.2,397.064 2262.4,396.81 2263.61,396.556 2264.81,396.302 2266.02,396.048 2267.22,395.794 2268.43,395.54 2268.43,395.54 2269.63,395.287 2270.84,395.034 2272.04,394.78 2273.25,394.528 2274.45,394.275 2275.66,394.022 2276.86,393.77 2276.86,393.77 2278.06,393.517 2279.27,393.265 2280.47,393.013 2281.68,392.762 2282.88,392.51 2284.09,392.258 2285.29,392.007 2285.29,392.007 2286.5,391.756 2287.7,391.505 2288.91,391.254 2290.11,391.004 2291.32,390.753 2292.52,390.503 2293.73,390.253 2293.73,390.253 2294.93,390.003 2296.14,389.753 2297.34,389.503 2298.54,389.253 2299.75,389.004 2300.95,388.755 2302.16,388.506 2302.16,388.506 2303.36,388.257 2304.57,388.008 2305.77,387.76 2306.98,387.511 2308.18,387.263 2309.39,387.015 2310.59,386.767 2310.59,386.767 2311.8,386.519 2313,386.271 2314.21,386.024 2315.41,385.777 2316.61,385.529 2317.82,385.282 2319.02,385.035 2319.02,385.035 2320.23,384.789 2321.43,384.542 2322.64,384.296 2323.84,384.05 2325.05,383.803 2326.25,383.558 2327.46,383.312 2327.46,383.312 2328.66,383.066 2329.87,382.821 2331.07,382.575 2332.28,382.33 2333.48,382.085 2334.69,381.84 2335.89,381.595 2335.89,381.595 2337.09,381.351 2338.3,381.107 2339.5,380.862 2340.71,380.618 2341.91,380.374 2343.12,380.13 2344.32,379.887 2344.32,379.887 2345.53,379.643 2346.73,379.4 2347.94,379.157 2349.14,378.914 2350.35,378.671 2351.55,378.428 2352.76,378.185 "/>
</svg>
