<?xml version="1.0" encoding="utf-8"?>
<svg xmlns="http://www.w3.org/2000/svg" xmlns:xlink="http://www.w3.org/1999/xlink" width="600" height="400" viewBox="0 0 2400 1600">
<defs>
  <clipPath id="clip430">
    <rect x="0" y="0" width="2400" height="1600"/>
  </clipPath>
</defs>
<path clip-path="url(#clip430)" d="M0 1600 L2400 1600 L2400 0 L0 0  Z" fill="#ffffff" fill-rule="evenodd" fill-opacity="1"/>
<defs>
  <clipPath id="clip431">
    <rect x="480" y="0" width="1681" height="1600"/>
  </clipPath>
</defs>
<path clip-path="url(#clip430)" d="M193.936 1423.18 L2352.76 1423.18 L2352.76 123.472 L193.936 123.472  Z" fill="#ffffff" fill-rule="evenodd" fill-opacity="1"/>
<defs>
  <clipPath id="clip432">
    <rect x="193" y="123" width="2160" height="1301"/>
  </clipPath>
</defs>
<polyline clip-path="url(#clip432)" style="stroke:#000000; stroke-linecap:round; stroke-linejoin:round; stroke-width:2; stroke-opacity:0.1; fill:none" points="193.936,1423.18 193.936,123.472 "/>
<polyline clip-path="url(#clip432)" style="stroke:#000000; stroke-linecap:round; stroke-linejoin:round; stroke-width:2; stroke-opacity:0.1; fill:none" points="733.641,1423.18 733.641,123.472 "/>
<polyline clip-path="url(#clip432)" style="stroke:#000000; stroke-linecap:round; stroke-linejoin:round; stroke-width:2; stroke-opacity:0.1; fill:none" points="1273.35,1423.18 1273.35,123.472 "/>
<polyline clip-path="url(#clip432)" style="stroke:#000000; stroke-linecap:round; stroke-linejoin:round; stroke-width:2; stroke-opacity:0.1; fill:none" points="1813.05,1423.18 1813.05,123.472 "/>
<polyline clip-path="url(#clip432)" style="stroke:#000000; stroke-linecap:round; stroke-linejoin:round; stroke-width:2; stroke-opacity:0.1; fill:none" points="2352.76,1423.18 2352.76,123.472 "/>
<polyline clip-path="url(#clip432)" style="stroke:#000000; stroke-linecap:round; stroke-linejoin:round; stroke-width:2; stroke-opacity:0.1; fill:none" points="193.936,1382.38 2352.76,1382.38 "/>
<polyline clip-path="url(#clip432)" style="stroke:#000000; stroke-linecap:round; stroke-linejoin:round; stroke-width:2; stroke-opacity:0.1; fill:none" points="193.936,1077.85 2352.76,1077.85 "/>
<polyline clip-path="url(#clip432)" style="stroke:#000000; stroke-linecap:round; stroke-linejoin:round; stroke-width:2; stroke-opacity:0.1; fill:none" points="193.936,773.326 2352.76,773.326 "/>
<polyline clip-path="url(#clip432)" style="stroke:#000000; stroke-linecap:round; stroke-linejoin:round; stroke-width:2; stroke-opacity:0.1; fill:none" points="193.936,468.8 2352.76,468.8 "/>
<polyline clip-path="url(#clip432)" style="stroke:#000000; stroke-linecap:round; stroke-linejoin:round; stroke-width:2; stroke-opacity:0.1; fill:none" points="193.936,164.275 2352.76,164.275 "/>
<polyline clip-path="url(#clip430)" style="stroke:#000000; stroke-linecap:round; stroke-linejoin:round; stroke-width:4; stroke-opacity:1; fill:none" points="193.936,1423.18 2352.76,1423.18 "/>
<polyline clip-path="url(#clip430)" style="stroke:#000000; stroke-linecap:round; stroke-linejoin:round; stroke-width:4; stroke-opacity:1; fill:none" points="193.936,1423.18 193.936,1404.28 "/>
<polyline clip-path="url(#clip430)" style="stroke:#000000; stroke-linecap:round; stroke-linejoin:round; stroke-width:4; stroke-opacity:1; fill:none" points="733.641,1423.18 733.641,1404.28 "/>
<polyline clip-path="url(#clip430)" style="stroke:#000000; stroke-linecap:round; stroke-linejoin:round; stroke-width:4; stroke-opacity:1; fill:none" points="1273.35,1423.18 1273.35,1404.28 "/>
<polyline clip-path="url(#clip430)" style="stroke:#000000; stroke-linecap:round; stroke-linejoin:round; stroke-width:4; stroke-opacity:1; fill:none" points="1813.05,1423.18 1813.05,1404.28 "/>
<polyline clip-path="url(#clip430)" style="stroke:#000000; stroke-linecap:round; stroke-linejoin:round; stroke-width:4; stroke-opacity:1; fill:none" points="2352.76,1423.18 2352.76,1404.28 "/>
<path clip-path="url(#clip430)" d="M140.464 1468.75 L170.14 1468.75 L170.14 1472.69 L140.464 1472.69 L140.464 1468.75 Z" fill="#000000" fill-rule="nonzero" fill-opacity="1" /><path clip-path="url(#clip430)" d="M181.043 1481.64 L188.681 1481.64 L188.681 1455.28 L180.371 1456.95 L180.371 1452.69 L188.635 1451.02 L193.311 1451.02 L193.311 1481.64 L200.95 1481.64 L200.95 1485.58 L181.043 1485.58 L181.043 1481.64 Z" fill="#000000" fill-rule="nonzero" fill-opacity="1" /><path clip-path="url(#clip430)" d="M210.394 1479.7 L215.278 1479.7 L215.278 1485.58 L210.394 1485.58 L210.394 1479.7 Z" fill="#000000" fill-rule="nonzero" fill-opacity="1" /><path clip-path="url(#clip430)" d="M235.464 1454.1 Q231.852 1454.1 230.024 1457.66 Q228.218 1461.2 228.218 1468.33 Q228.218 1475.44 230.024 1479.01 Q231.852 1482.55 235.464 1482.55 Q239.098 1482.55 240.903 1479.01 Q242.732 1475.44 242.732 1468.33 Q242.732 1461.2 240.903 1457.66 Q239.098 1454.1 235.464 1454.1 M235.464 1450.39 Q241.274 1450.39 244.329 1455 Q247.408 1459.58 247.408 1468.33 Q247.408 1477.06 244.329 1481.67 Q241.274 1486.25 235.464 1486.25 Q229.653 1486.25 226.575 1481.67 Q223.519 1477.06 223.519 1468.33 Q223.519 1459.58 226.575 1455 Q229.653 1450.39 235.464 1450.39 Z" fill="#000000" fill-rule="nonzero" fill-opacity="1" /><path clip-path="url(#clip430)" d="M680.667 1468.75 L710.342 1468.75 L710.342 1472.69 L680.667 1472.69 L680.667 1468.75 Z" fill="#000000" fill-rule="nonzero" fill-opacity="1" /><path clip-path="url(#clip430)" d="M730.435 1454.1 Q726.824 1454.1 724.995 1457.66 Q723.19 1461.2 723.19 1468.33 Q723.19 1475.44 724.995 1479.01 Q726.824 1482.55 730.435 1482.55 Q734.069 1482.55 735.875 1479.01 Q737.703 1475.44 737.703 1468.33 Q737.703 1461.2 735.875 1457.66 Q734.069 1454.1 730.435 1454.1 M730.435 1450.39 Q736.245 1450.39 739.301 1455 Q742.379 1459.58 742.379 1468.33 Q742.379 1477.06 739.301 1481.67 Q736.245 1486.25 730.435 1486.25 Q724.625 1486.25 721.546 1481.67 Q718.491 1477.06 718.491 1468.33 Q718.491 1459.58 721.546 1455 Q724.625 1450.39 730.435 1450.39 Z" fill="#000000" fill-rule="nonzero" fill-opacity="1" /><path clip-path="url(#clip430)" d="M750.597 1479.7 L755.481 1479.7 L755.481 1485.58 L750.597 1485.58 L750.597 1479.7 Z" fill="#000000" fill-rule="nonzero" fill-opacity="1" /><path clip-path="url(#clip430)" d="M765.713 1451.02 L784.069 1451.02 L784.069 1454.96 L769.995 1454.96 L769.995 1463.43 Q771.013 1463.08 772.032 1462.92 Q773.05 1462.73 774.069 1462.73 Q779.856 1462.73 783.236 1465.9 Q786.615 1469.08 786.615 1474.49 Q786.615 1480.07 783.143 1483.17 Q779.671 1486.25 773.351 1486.25 Q771.175 1486.25 768.907 1485.88 Q766.662 1485.51 764.254 1484.77 L764.254 1480.07 Q766.338 1481.2 768.56 1481.76 Q770.782 1482.32 773.259 1482.32 Q777.263 1482.32 779.601 1480.21 Q781.939 1478.1 781.939 1474.49 Q781.939 1470.88 779.601 1468.77 Q777.263 1466.67 773.259 1466.67 Q771.384 1466.67 769.509 1467.08 Q767.657 1467.5 765.713 1468.38 L765.713 1451.02 Z" fill="#000000" fill-rule="nonzero" fill-opacity="1" /><path clip-path="url(#clip430)" d="M1250.73 1454.1 Q1247.12 1454.1 1245.29 1457.66 Q1243.49 1461.2 1243.49 1468.33 Q1243.49 1475.44 1245.29 1479.01 Q1247.12 1482.55 1250.73 1482.55 Q1254.36 1482.55 1256.17 1479.01 Q1258 1475.44 1258 1468.33 Q1258 1461.2 1256.17 1457.66 Q1254.36 1454.1 1250.73 1454.1 M1250.73 1450.39 Q1256.54 1450.39 1259.6 1455 Q1262.67 1459.58 1262.67 1468.33 Q1262.67 1477.06 1259.6 1481.67 Q1256.54 1486.25 1250.73 1486.25 Q1244.92 1486.25 1241.84 1481.67 Q1238.79 1477.06 1238.79 1468.33 Q1238.79 1459.58 1241.84 1455 Q1244.92 1450.39 1250.73 1450.39 Z" fill="#000000" fill-rule="nonzero" fill-opacity="1" /><path clip-path="url(#clip430)" d="M1270.89 1479.7 L1275.78 1479.7 L1275.78 1485.58 L1270.89 1485.58 L1270.89 1479.7 Z" fill="#000000" fill-rule="nonzero" fill-opacity="1" /><path clip-path="url(#clip430)" d="M1295.96 1454.1 Q1292.35 1454.1 1290.52 1457.66 Q1288.72 1461.2 1288.72 1468.33 Q1288.72 1475.44 1290.52 1479.01 Q1292.35 1482.55 1295.96 1482.55 Q1299.6 1482.55 1301.4 1479.01 Q1303.23 1475.44 1303.23 1468.33 Q1303.23 1461.2 1301.4 1457.66 Q1299.6 1454.1 1295.96 1454.1 M1295.96 1450.39 Q1301.77 1450.39 1304.83 1455 Q1307.91 1459.58 1307.91 1468.33 Q1307.91 1477.06 1304.83 1481.67 Q1301.77 1486.25 1295.96 1486.25 Q1290.15 1486.25 1287.07 1481.67 Q1284.02 1477.06 1284.02 1468.33 Q1284.02 1459.58 1287.07 1455 Q1290.15 1450.39 1295.96 1450.39 Z" fill="#000000" fill-rule="nonzero" fill-opacity="1" /><path clip-path="url(#clip430)" d="M1790.93 1454.1 Q1787.32 1454.1 1785.49 1457.66 Q1783.69 1461.2 1783.69 1468.33 Q1783.69 1475.44 1785.49 1479.01 Q1787.32 1482.55 1790.93 1482.55 Q1794.57 1482.55 1796.37 1479.01 Q1798.2 1475.44 1798.2 1468.33 Q1798.2 1461.2 1796.37 1457.66 Q1794.57 1454.1 1790.93 1454.1 M1790.93 1450.39 Q1796.74 1450.39 1799.8 1455 Q1802.88 1459.58 1802.88 1468.33 Q1802.88 1477.06 1799.8 1481.67 Q1796.74 1486.25 1790.93 1486.25 Q1785.12 1486.25 1782.04 1481.67 Q1778.99 1477.06 1778.99 1468.33 Q1778.99 1459.58 1782.04 1455 Q1785.12 1450.39 1790.93 1450.39 Z" fill="#000000" fill-rule="nonzero" fill-opacity="1" /><path clip-path="url(#clip430)" d="M1811.09 1479.7 L1815.98 1479.7 L1815.98 1485.58 L1811.09 1485.58 L1811.09 1479.7 Z" fill="#000000" fill-rule="nonzero" fill-opacity="1" /><path clip-path="url(#clip430)" d="M1826.21 1451.02 L1844.57 1451.02 L1844.57 1454.96 L1830.49 1454.96 L1830.49 1463.43 Q1831.51 1463.08 1832.53 1462.92 Q1833.55 1462.73 1834.57 1462.73 Q1840.35 1462.73 1843.73 1465.9 Q1847.11 1469.08 1847.11 1474.49 Q1847.11 1480.07 1843.64 1483.17 Q1840.17 1486.25 1833.85 1486.25 Q1831.67 1486.25 1829.41 1485.88 Q1827.16 1485.51 1824.75 1484.77 L1824.75 1480.07 Q1826.84 1481.2 1829.06 1481.76 Q1831.28 1482.32 1833.76 1482.32 Q1837.76 1482.32 1840.1 1480.21 Q1842.44 1478.1 1842.44 1474.49 Q1842.44 1470.88 1840.1 1468.77 Q1837.76 1466.67 1833.76 1466.67 Q1831.88 1466.67 1830.01 1467.08 Q1828.16 1467.5 1826.21 1468.38 L1826.21 1451.02 Z" fill="#000000" fill-rule="nonzero" fill-opacity="1" /><path clip-path="url(#clip430)" d="M2319.91 1481.64 L2327.55 1481.64 L2327.55 1455.28 L2319.24 1456.95 L2319.24 1452.69 L2327.5 1451.02 L2332.18 1451.02 L2332.18 1481.64 L2339.82 1481.64 L2339.82 1485.58 L2319.91 1485.58 L2319.91 1481.64 Z" fill="#000000" fill-rule="nonzero" fill-opacity="1" /><path clip-path="url(#clip430)" d="M2349.26 1479.7 L2354.14 1479.7 L2354.14 1485.58 L2349.26 1485.58 L2349.26 1479.7 Z" fill="#000000" fill-rule="nonzero" fill-opacity="1" /><path clip-path="url(#clip430)" d="M2374.33 1454.1 Q2370.72 1454.1 2368.89 1457.66 Q2367.08 1461.2 2367.08 1468.33 Q2367.08 1475.44 2368.89 1479.01 Q2370.72 1482.55 2374.33 1482.55 Q2377.96 1482.55 2379.77 1479.01 Q2381.6 1475.44 2381.6 1468.33 Q2381.6 1461.2 2379.77 1457.66 Q2377.96 1454.1 2374.33 1454.1 M2374.33 1450.39 Q2380.14 1450.39 2383.2 1455 Q2386.27 1459.58 2386.27 1468.33 Q2386.27 1477.06 2383.2 1481.67 Q2380.14 1486.25 2374.33 1486.25 Q2368.52 1486.25 2365.44 1481.67 Q2362.39 1477.06 2362.39 1468.33 Q2362.39 1459.58 2365.44 1455 Q2368.52 1450.39 2374.33 1450.39 Z" fill="#000000" fill-rule="nonzero" fill-opacity="1" /><path clip-path="url(#clip430)" d="M1287.52 1528.8 Q1287.52 1530.61 1286.39 1531.64 Q1285.26 1532.64 1283.98 1532.64 Q1282.75 1532.64 1282.11 1531.93 Q1281.46 1531.22 1281.46 1530.32 Q1281.46 1529.09 1282.37 1528.03 Q1283.27 1526.97 1284.62 1526.74 Q1283.3 1525.91 1281.34 1525.91 Q1280.05 1525.91 1278.92 1526.58 Q1277.83 1527.26 1277.15 1528.13 Q1276.5 1529 1275.93 1530.25 Q1275.38 1531.48 1275.15 1532.22 Q1274.96 1532.93 1274.8 1533.7 L1272.54 1542.72 Q1271.45 1547 1271.45 1548.51 Q1271.45 1550.38 1272.35 1551.64 Q1273.25 1552.86 1275.06 1552.86 Q1275.76 1552.86 1276.57 1552.67 Q1277.37 1552.44 1278.41 1551.86 Q1279.47 1551.25 1280.4 1550.35 Q1281.37 1549.42 1282.3 1547.84 Q1283.24 1546.26 1283.85 1544.23 Q1284.04 1543.52 1284.69 1543.52 Q1285.49 1543.52 1285.49 1544.17 Q1285.49 1544.71 1285.04 1545.87 Q1284.62 1547 1283.69 1548.48 Q1282.79 1549.93 1281.59 1551.25 Q1280.4 1552.54 1278.63 1553.44 Q1276.86 1554.34 1274.93 1554.34 Q1272.16 1554.34 1270.32 1552.86 Q1268.49 1551.38 1267.81 1549.32 Q1267.65 1549.61 1267.42 1550 Q1267.2 1550.38 1266.52 1551.25 Q1265.88 1552.09 1265.14 1552.73 Q1264.4 1553.34 1263.24 1553.83 Q1262.11 1554.34 1260.89 1554.34 Q1259.34 1554.34 1257.95 1553.89 Q1256.6 1553.44 1255.64 1552.41 Q1254.67 1551.38 1254.67 1549.96 Q1254.67 1548.38 1255.73 1547.29 Q1256.83 1546.16 1258.31 1546.16 Q1259.24 1546.16 1259.98 1546.71 Q1260.76 1547.26 1260.76 1548.45 Q1260.76 1549.77 1259.85 1550.77 Q1258.95 1551.77 1257.66 1552.02 Q1258.98 1552.86 1260.95 1552.86 Q1263.08 1552.86 1264.75 1550.99 Q1266.42 1549.13 1267.23 1546 Q1269.23 1538.5 1270 1535.15 Q1270.77 1531.77 1270.77 1530.32 Q1270.77 1528.96 1270.42 1528.03 Q1270.06 1527.1 1269.45 1526.68 Q1268.87 1526.23 1268.32 1526.07 Q1267.81 1525.91 1267.23 1525.91 Q1266.26 1525.91 1265.17 1526.29 Q1264.11 1526.68 1262.82 1527.58 Q1261.56 1528.45 1260.37 1530.25 Q1259.18 1532.06 1258.37 1534.54 Q1258.21 1535.28 1257.5 1535.28 Q1256.73 1535.24 1256.73 1534.6 Q1256.73 1534.05 1257.15 1532.93 Q1257.6 1531.77 1258.5 1530.32 Q1259.44 1528.87 1260.63 1527.58 Q1261.85 1526.26 1263.62 1525.36 Q1265.43 1524.46 1267.36 1524.46 Q1268.23 1524.46 1269.07 1524.65 Q1269.93 1524.81 1270.97 1525.29 Q1272.03 1525.78 1272.96 1526.84 Q1273.9 1527.9 1274.48 1529.45 Q1274.86 1528.71 1275.38 1528 Q1275.93 1527.29 1276.76 1526.42 Q1277.63 1525.52 1278.82 1525 Q1280.05 1524.46 1281.4 1524.46 Q1282.72 1524.46 1284.01 1524.81 Q1285.3 1525.13 1286.39 1526.19 Q1287.52 1527.23 1287.52 1528.8 Z" fill="#000000" fill-rule="nonzero" fill-opacity="1" /><polyline clip-path="url(#clip430)" style="stroke:#000000; stroke-linecap:round; stroke-linejoin:round; stroke-width:4; stroke-opacity:1; fill:none" points="193.936,1423.18 193.936,123.472 "/>
<polyline clip-path="url(#clip430)" style="stroke:#000000; stroke-linecap:round; stroke-linejoin:round; stroke-width:4; stroke-opacity:1; fill:none" points="193.936,1382.38 212.834,1382.38 "/>
<polyline clip-path="url(#clip430)" style="stroke:#000000; stroke-linecap:round; stroke-linejoin:round; stroke-width:4; stroke-opacity:1; fill:none" points="193.936,1077.85 212.834,1077.85 "/>
<polyline clip-path="url(#clip430)" style="stroke:#000000; stroke-linecap:round; stroke-linejoin:round; stroke-width:4; stroke-opacity:1; fill:none" points="193.936,773.326 212.834,773.326 "/>
<polyline clip-path="url(#clip430)" style="stroke:#000000; stroke-linecap:round; stroke-linejoin:round; stroke-width:4; stroke-opacity:1; fill:none" points="193.936,468.8 212.834,468.8 "/>
<polyline clip-path="url(#clip430)" style="stroke:#000000; stroke-linecap:round; stroke-linejoin:round; stroke-width:4; stroke-opacity:1; fill:none" points="193.936,164.275 212.834,164.275 "/>
<path clip-path="url(#clip430)" d="M50.9921 1382.83 L80.6679 1382.83 L80.6679 1386.76 L50.9921 1386.76 L50.9921 1382.83 Z" fill="#000000" fill-rule="nonzero" fill-opacity="1" /><path clip-path="url(#clip430)" d="M91.5706 1395.72 L99.2095 1395.72 L99.2095 1369.36 L90.8993 1371.02 L90.8993 1366.76 L99.1632 1365.1 L103.839 1365.1 L103.839 1395.72 L111.478 1395.72 L111.478 1399.66 L91.5706 1399.66 L91.5706 1395.72 Z" fill="#000000" fill-rule="nonzero" fill-opacity="1" /><path clip-path="url(#clip430)" d="M120.922 1393.78 L125.807 1393.78 L125.807 1399.66 L120.922 1399.66 L120.922 1393.78 Z" fill="#000000" fill-rule="nonzero" fill-opacity="1" /><path clip-path="url(#clip430)" d="M145.992 1368.18 Q142.381 1368.18 140.552 1371.74 Q138.746 1375.28 138.746 1382.41 Q138.746 1389.52 140.552 1393.08 Q142.381 1396.62 145.992 1396.62 Q149.626 1396.62 151.431 1393.08 Q153.26 1389.52 153.26 1382.41 Q153.26 1375.28 151.431 1371.74 Q149.626 1368.18 145.992 1368.18 M145.992 1364.47 Q151.802 1364.47 154.857 1369.08 Q157.936 1373.66 157.936 1382.41 Q157.936 1391.14 154.857 1395.75 Q151.802 1400.33 145.992 1400.33 Q140.181 1400.33 137.103 1395.75 Q134.047 1391.14 134.047 1382.41 Q134.047 1373.66 137.103 1369.08 Q140.181 1364.47 145.992 1364.47 Z" fill="#000000" fill-rule="nonzero" fill-opacity="1" /><path clip-path="url(#clip430)" d="M51.9875 1078.3 L81.6633 1078.3 L81.6633 1082.24 L51.9875 1082.24 L51.9875 1078.3 Z" fill="#000000" fill-rule="nonzero" fill-opacity="1" /><path clip-path="url(#clip430)" d="M101.756 1063.65 Q98.1447 1063.65 96.316 1067.21 Q94.5104 1070.76 94.5104 1077.89 Q94.5104 1084.99 96.316 1088.56 Q98.1447 1092.1 101.756 1092.1 Q105.39 1092.1 107.196 1088.56 Q109.024 1084.99 109.024 1077.89 Q109.024 1070.76 107.196 1067.21 Q105.39 1063.65 101.756 1063.65 M101.756 1059.95 Q107.566 1059.95 110.621 1064.55 Q113.7 1069.14 113.7 1077.89 Q113.7 1086.61 110.621 1091.22 Q107.566 1095.8 101.756 1095.8 Q95.9456 1095.8 92.8669 1091.22 Q89.8114 1086.61 89.8114 1077.89 Q89.8114 1069.14 92.8669 1064.55 Q95.9456 1059.95 101.756 1059.95 Z" fill="#000000" fill-rule="nonzero" fill-opacity="1" /><path clip-path="url(#clip430)" d="M121.918 1089.25 L126.802 1089.25 L126.802 1095.13 L121.918 1095.13 L121.918 1089.25 Z" fill="#000000" fill-rule="nonzero" fill-opacity="1" /><path clip-path="url(#clip430)" d="M137.033 1060.57 L155.39 1060.57 L155.39 1064.51 L141.316 1064.51 L141.316 1072.98 Q142.334 1072.63 143.353 1072.47 Q144.371 1072.28 145.39 1072.28 Q151.177 1072.28 154.556 1075.46 Q157.936 1078.63 157.936 1084.04 Q157.936 1089.62 154.464 1092.72 Q150.992 1095.8 144.672 1095.8 Q142.496 1095.8 140.228 1095.43 Q137.982 1095.06 135.575 1094.32 L135.575 1089.62 Q137.658 1090.76 139.881 1091.31 Q142.103 1091.87 144.58 1091.87 Q148.584 1091.87 150.922 1089.76 Q153.26 1087.65 153.26 1084.04 Q153.26 1080.43 150.922 1078.33 Q148.584 1076.22 144.58 1076.22 Q142.705 1076.22 140.83 1076.64 Q138.978 1077.05 137.033 1077.93 L137.033 1060.57 Z" fill="#000000" fill-rule="nonzero" fill-opacity="1" /><path clip-path="url(#clip430)" d="M100.76 759.125 Q97.1493 759.125 95.3206 762.689 Q93.515 766.231 93.515 773.361 Q93.515 780.467 95.3206 784.032 Q97.1493 787.574 100.76 787.574 Q104.395 787.574 106.2 784.032 Q108.029 780.467 108.029 773.361 Q108.029 766.231 106.2 762.689 Q104.395 759.125 100.76 759.125 M100.76 755.421 Q106.571 755.421 109.626 760.027 Q112.705 764.611 112.705 773.361 Q112.705 782.088 109.626 786.694 Q106.571 791.277 100.76 791.277 Q94.9502 791.277 91.8715 786.694 Q88.816 782.088 88.816 773.361 Q88.816 764.611 91.8715 760.027 Q94.9502 755.421 100.76 755.421 Z" fill="#000000" fill-rule="nonzero" fill-opacity="1" /><path clip-path="url(#clip430)" d="M120.922 784.726 L125.807 784.726 L125.807 790.606 L120.922 790.606 L120.922 784.726 Z" fill="#000000" fill-rule="nonzero" fill-opacity="1" /><path clip-path="url(#clip430)" d="M145.992 759.125 Q142.381 759.125 140.552 762.689 Q138.746 766.231 138.746 773.361 Q138.746 780.467 140.552 784.032 Q142.381 787.574 145.992 787.574 Q149.626 787.574 151.431 784.032 Q153.26 780.467 153.26 773.361 Q153.26 766.231 151.431 762.689 Q149.626 759.125 145.992 759.125 M145.992 755.421 Q151.802 755.421 154.857 760.027 Q157.936 764.611 157.936 773.361 Q157.936 782.088 154.857 786.694 Q151.802 791.277 145.992 791.277 Q140.181 791.277 137.103 786.694 Q134.047 782.088 134.047 773.361 Q134.047 764.611 137.103 760.027 Q140.181 755.421 145.992 755.421 Z" fill="#000000" fill-rule="nonzero" fill-opacity="1" /><path clip-path="url(#clip430)" d="M101.756 454.599 Q98.1447 454.599 96.316 458.164 Q94.5104 461.706 94.5104 468.835 Q94.5104 475.942 96.316 479.506 Q98.1447 483.048 101.756 483.048 Q105.39 483.048 107.196 479.506 Q109.024 475.942 109.024 468.835 Q109.024 461.706 107.196 458.164 Q105.39 454.599 101.756 454.599 M101.756 450.895 Q107.566 450.895 110.621 455.502 Q113.7 460.085 113.7 468.835 Q113.7 477.562 110.621 482.168 Q107.566 486.752 101.756 486.752 Q95.9456 486.752 92.8669 482.168 Q89.8114 477.562 89.8114 468.835 Q89.8114 460.085 92.8669 455.502 Q95.9456 450.895 101.756 450.895 Z" fill="#000000" fill-rule="nonzero" fill-opacity="1" /><path clip-path="url(#clip430)" d="M121.918 480.201 L126.802 480.201 L126.802 486.08 L121.918 486.08 L121.918 480.201 Z" fill="#000000" fill-rule="nonzero" fill-opacity="1" /><path clip-path="url(#clip430)" d="M137.033 451.52 L155.39 451.52 L155.39 455.456 L141.316 455.456 L141.316 463.928 Q142.334 463.581 143.353 463.419 Q144.371 463.233 145.39 463.233 Q151.177 463.233 154.556 466.405 Q157.936 469.576 157.936 474.993 Q157.936 480.571 154.464 483.673 Q150.992 486.752 144.672 486.752 Q142.496 486.752 140.228 486.381 Q137.982 486.011 135.575 485.27 L135.575 480.571 Q137.658 481.705 139.881 482.261 Q142.103 482.817 144.58 482.817 Q148.584 482.817 150.922 480.71 Q153.26 478.604 153.26 474.993 Q153.26 471.381 150.922 469.275 Q148.584 467.169 144.58 467.169 Q142.705 467.169 140.83 467.585 Q138.978 468.002 137.033 468.881 L137.033 451.52 Z" fill="#000000" fill-rule="nonzero" fill-opacity="1" /><path clip-path="url(#clip430)" d="M91.5706 177.62 L99.2095 177.62 L99.2095 151.254 L90.8993 152.921 L90.8993 148.662 L99.1632 146.995 L103.839 146.995 L103.839 177.62 L111.478 177.62 L111.478 181.555 L91.5706 181.555 L91.5706 177.62 Z" fill="#000000" fill-rule="nonzero" fill-opacity="1" /><path clip-path="url(#clip430)" d="M120.922 175.675 L125.807 175.675 L125.807 181.555 L120.922 181.555 L120.922 175.675 Z" fill="#000000" fill-rule="nonzero" fill-opacity="1" /><path clip-path="url(#clip430)" d="M145.992 150.074 Q142.381 150.074 140.552 153.638 Q138.746 157.18 138.746 164.31 Q138.746 171.416 140.552 174.981 Q142.381 178.523 145.992 178.523 Q149.626 178.523 151.431 174.981 Q153.26 171.416 153.26 164.31 Q153.26 157.18 151.431 153.638 Q149.626 150.074 145.992 150.074 M145.992 146.37 Q151.802 146.37 154.857 150.976 Q157.936 155.56 157.936 164.31 Q157.936 173.036 154.857 177.643 Q151.802 182.226 145.992 182.226 Q140.181 182.226 137.103 177.643 Q134.047 173.036 134.047 164.31 Q134.047 155.56 137.103 150.976 Q140.181 146.37 145.992 146.37 Z" fill="#000000" fill-rule="nonzero" fill-opacity="1" /><path clip-path="url(#clip430)" d="M1184 28.5427 L1184 35.5912 Q1180.84 33.9709 1177.44 33.1607 Q1174.04 32.3505 1170.39 32.3505 Q1164.84 32.3505 1162.05 34.0519 Q1159.29 35.7533 1159.29 39.156 Q1159.29 41.7486 1161.28 43.2475 Q1163.26 44.7058 1169.26 46.0426 L1171.81 46.6097 Q1179.75 48.3111 1183.07 51.4303 Q1186.43 54.509 1186.43 60.0587 Q1186.43 66.3781 1181.41 70.0644 Q1176.43 73.7508 1167.68 73.7508 Q1164.03 73.7508 1160.06 73.0216 Q1156.13 72.3329 1151.76 70.9151 L1151.76 63.2184 Q1155.89 65.3654 1159.9 66.4591 Q1163.91 67.5124 1167.84 67.5124 Q1173.11 67.5124 1175.94 65.73 Q1178.78 63.9071 1178.78 60.6258 Q1178.78 57.5877 1176.71 55.9673 Q1174.69 54.3469 1167.76 52.8481 L1165.17 52.2405 Q1158.24 50.7821 1155.16 47.7845 Q1152.08 44.7463 1152.08 39.4801 Q1152.08 33.0797 1156.62 29.5959 Q1161.16 26.1121 1169.5 26.1121 Q1173.63 26.1121 1177.28 26.7198 Q1180.92 27.3274 1184 28.5427 Z" fill="#000000" fill-rule="nonzero" fill-opacity="1" /><path clip-path="url(#clip430)" d="M1230.95 28.9478 L1230.95 35.9153 Q1227.79 34.1734 1224.59 33.3227 Q1221.43 32.4315 1218.19 32.4315 Q1210.94 32.4315 1206.93 37.0496 Q1202.92 41.6271 1202.92 49.9314 Q1202.92 58.2358 1206.93 62.8538 Q1210.94 67.4314 1218.19 67.4314 Q1221.43 67.4314 1224.59 66.5807 Q1227.79 65.6895 1230.95 63.9476 L1230.95 70.8341 Q1227.83 72.2924 1224.47 73.0216 Q1221.15 73.7508 1217.38 73.7508 Q1207.13 73.7508 1201.1 67.3098 Q1195.06 60.8689 1195.06 49.9314 Q1195.06 38.832 1201.14 32.472 Q1207.26 26.1121 1217.87 26.1121 Q1221.31 26.1121 1224.59 26.8413 Q1227.87 27.5299 1230.95 28.9478 Z" fill="#000000" fill-rule="nonzero" fill-opacity="1" /><path clip-path="url(#clip430)" d="M1264.54 49.7694 Q1255.5 49.7694 1252.02 51.8354 Q1248.53 53.9013 1248.53 58.8839 Q1248.53 62.8538 1251.13 65.2034 Q1253.76 67.5124 1258.26 67.5124 Q1264.45 67.5124 1268.18 63.1374 Q1271.95 58.7219 1271.95 51.4303 L1271.95 49.7694 L1264.54 49.7694 M1279.4 46.6907 L1279.4 72.576 L1271.95 72.576 L1271.95 65.6895 Q1269.4 69.8214 1265.59 71.8063 Q1261.78 73.7508 1256.27 73.7508 Q1249.3 73.7508 1245.17 69.8619 Q1241.08 65.9325 1241.08 59.3701 Q1241.08 51.7138 1246.18 47.825 Q1251.33 43.9361 1261.5 43.9361 L1271.95 43.9361 L1271.95 43.2069 Q1271.95 38.0623 1268.55 35.2672 Q1265.18 32.4315 1259.07 32.4315 Q1255.18 32.4315 1251.49 33.3632 Q1247.81 34.295 1244.4 36.1584 L1244.4 29.2718 Q1248.49 27.692 1252.34 26.9223 Q1256.19 26.1121 1259.84 26.1121 Q1269.68 26.1121 1274.54 31.2163 Q1279.4 36.3204 1279.4 46.6907 Z" fill="#000000" fill-rule="nonzero" fill-opacity="1" /><path clip-path="url(#clip430)" d="M1294.75 9.54393 L1302.21 9.54393 L1302.21 72.576 L1294.75 72.576 L1294.75 9.54393 Z" fill="#000000" fill-rule="nonzero" fill-opacity="1" /><path clip-path="url(#clip430)" d="M1338.42 49.7694 Q1329.39 49.7694 1325.91 51.8354 Q1322.42 53.9013 1322.42 58.8839 Q1322.42 62.8538 1325.02 65.2034 Q1327.65 67.5124 1332.14 67.5124 Q1338.34 67.5124 1342.07 63.1374 Q1345.84 58.7219 1345.84 51.4303 L1345.84 49.7694 L1338.42 49.7694 M1353.29 46.6907 L1353.29 72.576 L1345.84 72.576 L1345.84 65.6895 Q1343.28 69.8214 1339.48 71.8063 Q1335.67 73.7508 1330.16 73.7508 Q1323.19 73.7508 1319.06 69.8619 Q1314.97 65.9325 1314.97 59.3701 Q1314.97 51.7138 1320.07 47.825 Q1325.22 43.9361 1335.39 43.9361 L1345.84 43.9361 L1345.84 43.2069 Q1345.84 38.0623 1342.43 35.2672 Q1339.07 32.4315 1332.96 32.4315 Q1329.07 32.4315 1325.38 33.3632 Q1321.69 34.295 1318.29 36.1584 L1318.29 29.2718 Q1322.38 27.692 1326.23 26.9223 Q1330.08 26.1121 1333.72 26.1121 Q1343.57 26.1121 1348.43 31.2163 Q1353.29 36.3204 1353.29 46.6907 Z" fill="#000000" fill-rule="nonzero" fill-opacity="1" /><path clip-path="url(#clip430)" d="M1394.93 34.1734 Q1393.68 33.4443 1392.18 33.1202 Q1390.72 32.7556 1388.94 32.7556 Q1382.62 32.7556 1379.22 36.8875 Q1375.85 40.9789 1375.85 48.6757 L1375.85 72.576 L1368.36 72.576 L1368.36 27.2059 L1375.85 27.2059 L1375.85 34.2544 Q1378.2 30.1225 1381.97 28.1376 Q1385.74 26.1121 1391.13 26.1121 Q1391.9 26.1121 1392.83 26.2337 Q1393.76 26.3147 1394.89 26.5172 L1394.93 34.1734 Z" fill="#000000" fill-rule="nonzero" fill-opacity="1" /><polyline clip-path="url(#clip432)" style="stroke:#009af9; stroke-linecap:round; stroke-linejoin:round; stroke-width:4; stroke-opacity:1; fill:none" points="193.936,774.929 213.211,805.7 232.486,835.372 251.762,863.725 271.037,890.54 290.312,915.599 309.587,938.682 328.862,959.571 328.862,960.533 348.137,981.817 367.413,1002.08 386.688,1021.48 405.963,1040.16 425.238,1058.28 444.513,1075.98 463.788,1093.41 463.788,1092.59 483.064,1109.14 502.339,1125.02 521.614,1140.27 540.889,1154.95 560.164,1169.09 579.44,1182.75 598.715,1195.96 598.715,1197.23 617.99,1209.73 637.265,1222.16 656.54,1234.48 675.815,1246.63 695.091,1258.57 714.366,1270.25 733.641,1281.62 733.641,1276.82 752.916,1291.35 772.191,1301.72 791.467,1309.71 810.742,1317.15 830.017,1325.82 849.292,1337.54 868.567,1354.11 868.567,1338.37 887.842,1354.13 907.118,1362.55 926.393,1366.25 945.668,1367.85 964.943,1369.99 984.218,1375.3 1003.49,1386.4 1003.49,1376.98 1022.77,1383.45 1042.04,1386.18 1061.32,1383.38 1080.59,1373.3 1099.87,1354.14 1119.14,1324.15 1138.42,1281.54 1138.42,1274.15 1157.69,1142.94 1176.97,1036.64 1196.25,952.656 1215.52,888.402 1234.8,841.293 1254.07,808.743 1273.35,788.167 1273.35,771.723 1292.62,740.952 1311.9,711.28 1331.17,682.927 1350.45,656.112 1369.72,631.053 1389,607.97 1408.27,587.081 1408.27,586.119 1427.55,564.835 1446.82,544.569 1466.1,525.169 1485.37,506.487 1504.65,488.372 1523.92,470.672 1543.2,453.239 1543.2,454.063 1562.47,437.515 1581.75,421.636 1601.02,406.382 1620.3,391.706 1639.57,377.562 1658.85,363.906 1678.12,350.691 1678.12,349.417 1697.4,336.919 1716.68,324.487 1735.95,312.171 1755.23,300.018 1774.5,288.078 1793.78,276.398 1813.05,265.029 1813.05,269.832 1832.33,255.299 1851.6,244.936 1870.88,236.939 1890.15,229.504 1909.43,220.829 1928.7,209.11 1947.98,192.544 1947.98,208.277 1967.25,192.518 1986.53,184.103 2005.8,180.406 2025.08,178.801 2044.35,176.658 2063.63,171.353 2082.9,160.256 2082.9,169.669 2102.18,163.198 2121.45,160.473 2140.73,163.269 2160,173.356 2179.28,192.51 2198.55,222.503 2217.83,265.108 2217.83,272.505 2237.1,403.71 2256.38,510.011 2275.66,593.996 2294.93,658.25 2314.21,705.359 2333.48,737.909 2352.76,758.485 "/>
<polyline clip-path="url(#clip432)" style="stroke:#e26f46; stroke-linecap:round; stroke-linejoin:round; stroke-width:4; stroke-opacity:1; fill:none" points="193.936,774.819 213.211,805.783 232.486,835.433 251.762,863.664 271.037,890.372 290.312,915.452 309.587,938.798 328.862,960.307 328.862,960.676 348.137,981.677 367.413,1001.94 386.688,1021.48 405.963,1040.32 425.238,1058.47 444.513,1075.97 463.788,1092.82 463.788,1092.9 483.064,1109.12 502.339,1124.84 521.614,1140.07 540.889,1154.84 560.164,1169.17 579.44,1183.07 598.715,1196.57 598.715,1196.6 617.99,1209.69 637.265,1222.4 656.54,1234.72 675.815,1246.67 695.091,1258.24 714.366,1269.42 733.641,1280.24 733.641,1280.31 752.916,1290.68 772.191,1300.71 791.467,1310.36 810.742,1319.61 830.017,1328.43 849.292,1336.8 868.567,1344.67 868.567,1345.15 887.842,1352.03 907.118,1358.66 926.393,1364.84 945.668,1370.39 964.943,1375.13 984.218,1378.86 1003.49,1381.41 1003.49,1378.4 1022.77,1380.06 1042.04,1383.06 1061.32,1383.15 1080.59,1376.06 1099.87,1357.55 1119.14,1323.36 1138.42,1269.24 1138.42,1272.98 1157.69,1143.54 1176.97,1037.77 1196.25,953.522 1215.52,888.645 1234.8,840.986 1254.07,808.393 1273.35,788.713 1273.35,771.833 1292.62,740.869 1311.9,711.219 1331.17,682.988 1350.45,656.28 1369.72,631.2 1389,607.854 1408.27,586.345 1408.27,585.976 1427.55,564.975 1446.82,544.714 1466.1,525.174 1485.37,506.336 1504.65,488.178 1523.92,470.683 1543.2,453.831 1543.2,453.754 1562.47,437.533 1581.75,421.816 1601.02,406.582 1620.3,391.811 1639.57,377.483 1658.85,363.579 1678.12,350.078 1678.12,350.048 1697.4,336.962 1716.68,324.256 1735.95,311.931 1755.23,299.984 1774.5,288.417 1793.78,277.227 1813.05,266.415 1813.05,266.343 1832.33,255.968 1851.6,245.94 1870.88,236.287 1890.15,227.037 1909.43,218.218 1928.7,209.857 1947.98,201.982 1947.98,201.506 1967.25,194.619 1986.53,187.992 2005.8,181.809 2025.08,176.258 2044.35,171.523 2063.63,167.789 2082.9,165.242 2082.9,168.255 2102.18,166.591 2121.45,163.589 2140.73,163.505 2160,170.59 2179.28,189.1 2198.55,223.289 2217.83,277.409 2217.83,273.669 2237.1,403.113 2256.38,508.883 2275.66,593.13 2294.93,658.007 2314.21,705.666 2333.48,738.259 2352.76,757.939 "/>
</svg>
