<?xml version="1.0" encoding="utf-8"?>
<svg xmlns="http://www.w3.org/2000/svg" xmlns:xlink="http://www.w3.org/1999/xlink" width="600" height="400" viewBox="0 0 2400 1600">
<defs>
  <clipPath id="clip210">
    <rect x="0" y="0" width="2400" height="1600"/>
  </clipPath>
</defs>
<path clip-path="url(#clip210)" d="M0 1600 L2400 1600 L2400 0 L0 0  Z" fill="#ffffff" fill-rule="evenodd" fill-opacity="1"/>
<defs>
  <clipPath id="clip211">
    <rect x="480" y="0" width="1681" height="1600"/>
  </clipPath>
</defs>
<path clip-path="url(#clip210)" d="M224.584 1423.18 L2352.76 1423.18 L2352.76 123.472 L224.584 123.472  Z" fill="#ffffff" fill-rule="evenodd" fill-opacity="1"/>
<defs>
  <clipPath id="clip212">
    <rect x="224" y="123" width="2129" height="1301"/>
  </clipPath>
</defs>
<polyline clip-path="url(#clip212)" style="stroke:#000000; stroke-linecap:round; stroke-linejoin:round; stroke-width:2; stroke-opacity:0.1; fill:none" points="224.584,1423.18 224.584,123.472 "/>
<polyline clip-path="url(#clip212)" style="stroke:#000000; stroke-linecap:round; stroke-linejoin:round; stroke-width:2; stroke-opacity:0.1; fill:none" points="756.627,1423.18 756.627,123.472 "/>
<polyline clip-path="url(#clip212)" style="stroke:#000000; stroke-linecap:round; stroke-linejoin:round; stroke-width:2; stroke-opacity:0.1; fill:none" points="1288.67,1423.18 1288.67,123.472 "/>
<polyline clip-path="url(#clip212)" style="stroke:#000000; stroke-linecap:round; stroke-linejoin:round; stroke-width:2; stroke-opacity:0.1; fill:none" points="1820.71,1423.18 1820.71,123.472 "/>
<polyline clip-path="url(#clip212)" style="stroke:#000000; stroke-linecap:round; stroke-linejoin:round; stroke-width:2; stroke-opacity:0.1; fill:none" points="2352.76,1423.18 2352.76,123.472 "/>
<polyline clip-path="url(#clip210)" style="stroke:#000000; stroke-linecap:round; stroke-linejoin:round; stroke-width:4; stroke-opacity:1; fill:none" points="224.584,1423.18 2352.76,1423.18 "/>
<polyline clip-path="url(#clip210)" style="stroke:#000000; stroke-linecap:round; stroke-linejoin:round; stroke-width:4; stroke-opacity:1; fill:none" points="224.584,1423.18 224.584,1404.28 "/>
<polyline clip-path="url(#clip210)" style="stroke:#000000; stroke-linecap:round; stroke-linejoin:round; stroke-width:4; stroke-opacity:1; fill:none" points="756.627,1423.18 756.627,1404.28 "/>
<polyline clip-path="url(#clip210)" style="stroke:#000000; stroke-linecap:round; stroke-linejoin:round; stroke-width:4; stroke-opacity:1; fill:none" points="1288.67,1423.18 1288.67,1404.28 "/>
<polyline clip-path="url(#clip210)" style="stroke:#000000; stroke-linecap:round; stroke-linejoin:round; stroke-width:4; stroke-opacity:1; fill:none" points="1820.71,1423.18 1820.71,1404.28 "/>
<polyline clip-path="url(#clip210)" style="stroke:#000000; stroke-linecap:round; stroke-linejoin:round; stroke-width:4; stroke-opacity:1; fill:none" points="2352.76,1423.18 2352.76,1404.28 "/>
<path clip-path="url(#clip210)" d="M171.112 1468.75 L200.788 1468.75 L200.788 1472.69 L171.112 1472.69 L171.112 1468.75 Z" fill="#000000" fill-rule="nonzero" fill-opacity="1" /><path clip-path="url(#clip210)" d="M211.691 1481.64 L219.329 1481.64 L219.329 1455.28 L211.019 1456.95 L211.019 1452.69 L219.283 1451.02 L223.959 1451.02 L223.959 1481.64 L231.598 1481.64 L231.598 1485.58 L211.691 1485.58 L211.691 1481.64 Z" fill="#000000" fill-rule="nonzero" fill-opacity="1" /><path clip-path="url(#clip210)" d="M241.042 1479.7 L245.926 1479.7 L245.926 1485.58 L241.042 1485.58 L241.042 1479.7 Z" fill="#000000" fill-rule="nonzero" fill-opacity="1" /><path clip-path="url(#clip210)" d="M266.112 1454.1 Q262.5 1454.1 260.672 1457.66 Q258.866 1461.2 258.866 1468.33 Q258.866 1475.44 260.672 1479.01 Q262.5 1482.55 266.112 1482.55 Q269.746 1482.55 271.551 1479.01 Q273.38 1475.44 273.38 1468.33 Q273.38 1461.2 271.551 1457.66 Q269.746 1454.1 266.112 1454.1 M266.112 1450.39 Q271.922 1450.39 274.977 1455 Q278.056 1459.58 278.056 1468.33 Q278.056 1477.06 274.977 1481.67 Q271.922 1486.25 266.112 1486.25 Q260.301 1486.25 257.223 1481.67 Q254.167 1477.06 254.167 1468.33 Q254.167 1459.58 257.223 1455 Q260.301 1450.39 266.112 1450.39 Z" fill="#000000" fill-rule="nonzero" fill-opacity="1" /><path clip-path="url(#clip210)" d="M703.653 1468.75 L733.328 1468.75 L733.328 1472.69 L703.653 1472.69 L703.653 1468.75 Z" fill="#000000" fill-rule="nonzero" fill-opacity="1" /><path clip-path="url(#clip210)" d="M753.421 1454.1 Q749.81 1454.1 747.981 1457.66 Q746.176 1461.2 746.176 1468.33 Q746.176 1475.44 747.981 1479.01 Q749.81 1482.55 753.421 1482.55 Q757.055 1482.55 758.861 1479.01 Q760.689 1475.44 760.689 1468.33 Q760.689 1461.2 758.861 1457.66 Q757.055 1454.1 753.421 1454.1 M753.421 1450.39 Q759.231 1450.39 762.287 1455 Q765.365 1459.58 765.365 1468.33 Q765.365 1477.06 762.287 1481.67 Q759.231 1486.25 753.421 1486.25 Q747.611 1486.25 744.532 1481.67 Q741.477 1477.06 741.477 1468.33 Q741.477 1459.58 744.532 1455 Q747.611 1450.39 753.421 1450.39 Z" fill="#000000" fill-rule="nonzero" fill-opacity="1" /><path clip-path="url(#clip210)" d="M773.583 1479.7 L778.467 1479.7 L778.467 1485.58 L773.583 1485.58 L773.583 1479.7 Z" fill="#000000" fill-rule="nonzero" fill-opacity="1" /><path clip-path="url(#clip210)" d="M788.699 1451.02 L807.055 1451.02 L807.055 1454.96 L792.981 1454.96 L792.981 1463.43 Q793.999 1463.08 795.018 1462.92 Q796.036 1462.73 797.055 1462.73 Q802.842 1462.73 806.222 1465.9 Q809.601 1469.08 809.601 1474.49 Q809.601 1480.07 806.129 1483.17 Q802.657 1486.25 796.337 1486.25 Q794.161 1486.25 791.893 1485.88 Q789.648 1485.51 787.24 1484.77 L787.24 1480.07 Q789.324 1481.2 791.546 1481.76 Q793.768 1482.32 796.245 1482.32 Q800.249 1482.32 802.587 1480.21 Q804.925 1478.1 804.925 1474.49 Q804.925 1470.88 802.587 1468.77 Q800.249 1466.67 796.245 1466.67 Q794.37 1466.67 792.495 1467.08 Q790.643 1467.5 788.699 1468.38 L788.699 1451.02 Z" fill="#000000" fill-rule="nonzero" fill-opacity="1" /><path clip-path="url(#clip210)" d="M1266.05 1454.1 Q1262.44 1454.1 1260.61 1457.66 Q1258.81 1461.2 1258.81 1468.33 Q1258.81 1475.44 1260.61 1479.01 Q1262.44 1482.55 1266.05 1482.55 Q1269.69 1482.55 1271.49 1479.01 Q1273.32 1475.44 1273.32 1468.33 Q1273.32 1461.2 1271.49 1457.66 Q1269.69 1454.1 1266.05 1454.1 M1266.05 1450.39 Q1271.86 1450.39 1274.92 1455 Q1278 1459.58 1278 1468.33 Q1278 1477.06 1274.92 1481.67 Q1271.86 1486.25 1266.05 1486.25 Q1260.24 1486.25 1257.17 1481.67 Q1254.11 1477.06 1254.11 1468.33 Q1254.11 1459.58 1257.17 1455 Q1260.24 1450.39 1266.05 1450.39 Z" fill="#000000" fill-rule="nonzero" fill-opacity="1" /><path clip-path="url(#clip210)" d="M1286.22 1479.7 L1291.1 1479.7 L1291.1 1485.58 L1286.22 1485.58 L1286.22 1479.7 Z" fill="#000000" fill-rule="nonzero" fill-opacity="1" /><path clip-path="url(#clip210)" d="M1311.29 1454.1 Q1307.67 1454.1 1305.85 1457.66 Q1304.04 1461.2 1304.04 1468.33 Q1304.04 1475.44 1305.85 1479.01 Q1307.67 1482.55 1311.29 1482.55 Q1314.92 1482.55 1316.73 1479.01 Q1318.55 1475.44 1318.55 1468.33 Q1318.55 1461.2 1316.73 1457.66 Q1314.92 1454.1 1311.29 1454.1 M1311.29 1450.39 Q1317.1 1450.39 1320.15 1455 Q1323.23 1459.58 1323.23 1468.33 Q1323.23 1477.06 1320.15 1481.67 Q1317.1 1486.25 1311.29 1486.25 Q1305.48 1486.25 1302.4 1481.67 Q1299.34 1477.06 1299.34 1468.33 Q1299.34 1459.58 1302.4 1455 Q1305.48 1450.39 1311.29 1450.39 Z" fill="#000000" fill-rule="nonzero" fill-opacity="1" /><path clip-path="url(#clip210)" d="M1798.59 1454.1 Q1794.98 1454.1 1793.16 1457.66 Q1791.35 1461.2 1791.35 1468.33 Q1791.35 1475.44 1793.16 1479.01 Q1794.98 1482.55 1798.59 1482.55 Q1802.23 1482.55 1804.03 1479.01 Q1805.86 1475.44 1805.86 1468.33 Q1805.86 1461.2 1804.03 1457.66 Q1802.23 1454.1 1798.59 1454.1 M1798.59 1450.39 Q1804.41 1450.39 1807.46 1455 Q1810.54 1459.58 1810.54 1468.33 Q1810.54 1477.06 1807.46 1481.67 Q1804.41 1486.25 1798.59 1486.25 Q1792.78 1486.25 1789.71 1481.67 Q1786.65 1477.06 1786.65 1468.33 Q1786.65 1459.58 1789.71 1455 Q1792.78 1450.39 1798.59 1450.39 Z" fill="#000000" fill-rule="nonzero" fill-opacity="1" /><path clip-path="url(#clip210)" d="M1818.76 1479.7 L1823.64 1479.7 L1823.64 1485.58 L1818.76 1485.58 L1818.76 1479.7 Z" fill="#000000" fill-rule="nonzero" fill-opacity="1" /><path clip-path="url(#clip210)" d="M1833.87 1451.02 L1852.23 1451.02 L1852.23 1454.96 L1838.15 1454.96 L1838.15 1463.43 Q1839.17 1463.08 1840.19 1462.92 Q1841.21 1462.73 1842.23 1462.73 Q1848.02 1462.73 1851.4 1465.9 Q1854.78 1469.08 1854.78 1474.49 Q1854.78 1480.07 1851.3 1483.17 Q1847.83 1486.25 1841.51 1486.25 Q1839.34 1486.25 1837.07 1485.88 Q1834.82 1485.51 1832.41 1484.77 L1832.41 1480.07 Q1834.5 1481.2 1836.72 1481.76 Q1838.94 1482.32 1841.42 1482.32 Q1845.42 1482.32 1847.76 1480.21 Q1850.1 1478.1 1850.1 1474.49 Q1850.1 1470.88 1847.76 1468.77 Q1845.42 1466.67 1841.42 1466.67 Q1839.54 1466.67 1837.67 1467.08 Q1835.82 1467.5 1833.87 1468.38 L1833.87 1451.02 Z" fill="#000000" fill-rule="nonzero" fill-opacity="1" /><path clip-path="url(#clip210)" d="M2319.91 1481.64 L2327.55 1481.64 L2327.55 1455.28 L2319.24 1456.95 L2319.24 1452.69 L2327.5 1451.02 L2332.18 1451.02 L2332.18 1481.64 L2339.82 1481.64 L2339.82 1485.58 L2319.91 1485.58 L2319.91 1481.64 Z" fill="#000000" fill-rule="nonzero" fill-opacity="1" /><path clip-path="url(#clip210)" d="M2349.26 1479.7 L2354.14 1479.7 L2354.14 1485.58 L2349.26 1485.58 L2349.26 1479.7 Z" fill="#000000" fill-rule="nonzero" fill-opacity="1" /><path clip-path="url(#clip210)" d="M2374.33 1454.1 Q2370.72 1454.1 2368.89 1457.66 Q2367.08 1461.2 2367.08 1468.33 Q2367.08 1475.44 2368.89 1479.01 Q2370.72 1482.55 2374.33 1482.55 Q2377.96 1482.55 2379.77 1479.01 Q2381.6 1475.44 2381.6 1468.33 Q2381.6 1461.2 2379.77 1457.66 Q2377.96 1454.1 2374.33 1454.1 M2374.33 1450.39 Q2380.14 1450.39 2383.2 1455 Q2386.27 1459.58 2386.27 1468.33 Q2386.27 1477.06 2383.2 1481.67 Q2380.14 1486.25 2374.33 1486.25 Q2368.52 1486.25 2365.44 1481.67 Q2362.39 1477.06 2362.39 1468.33 Q2362.39 1459.58 2365.44 1455 Q2368.52 1450.39 2374.33 1450.39 Z" fill="#000000" fill-rule="nonzero" fill-opacity="1" /><path clip-path="url(#clip210)" d="M1302.84 1528.8 Q1302.84 1530.61 1301.72 1531.64 Q1300.59 1532.64 1299.3 1532.64 Q1298.08 1532.64 1297.43 1531.93 Q1296.79 1531.22 1296.79 1530.32 Q1296.79 1529.09 1297.69 1528.03 Q1298.59 1526.97 1299.94 1526.74 Q1298.62 1525.91 1296.66 1525.91 Q1295.37 1525.91 1294.24 1526.58 Q1293.15 1527.26 1292.47 1528.13 Q1291.83 1529 1291.25 1530.25 Q1290.7 1531.48 1290.48 1532.22 Q1290.28 1532.93 1290.12 1533.7 L1287.87 1542.72 Q1286.77 1547 1286.77 1548.51 Q1286.77 1550.38 1287.67 1551.64 Q1288.58 1552.86 1290.38 1552.86 Q1291.09 1552.86 1291.89 1552.67 Q1292.7 1552.44 1293.73 1551.86 Q1294.79 1551.25 1295.73 1550.35 Q1296.69 1549.42 1297.63 1547.84 Q1298.56 1546.26 1299.17 1544.23 Q1299.37 1543.52 1300.01 1543.52 Q1300.81 1543.52 1300.81 1544.17 Q1300.81 1544.71 1300.36 1545.87 Q1299.94 1547 1299.01 1548.48 Q1298.11 1549.93 1296.92 1551.25 Q1295.73 1552.54 1293.95 1553.44 Q1292.18 1554.34 1290.25 1554.34 Q1287.48 1554.34 1285.65 1552.86 Q1283.81 1551.38 1283.13 1549.32 Q1282.97 1549.61 1282.75 1550 Q1282.52 1550.38 1281.85 1551.25 Q1281.2 1552.09 1280.46 1552.73 Q1279.72 1553.34 1278.56 1553.83 Q1277.43 1554.34 1276.21 1554.34 Q1274.66 1554.34 1273.28 1553.89 Q1271.93 1553.44 1270.96 1552.41 Q1269.99 1551.38 1269.99 1549.96 Q1269.99 1548.38 1271.06 1547.29 Q1272.15 1546.16 1273.63 1546.16 Q1274.57 1546.16 1275.31 1546.71 Q1276.08 1547.26 1276.08 1548.45 Q1276.08 1549.77 1275.18 1550.77 Q1274.28 1551.77 1272.99 1552.02 Q1274.31 1552.86 1276.27 1552.86 Q1278.4 1552.86 1280.07 1550.99 Q1281.75 1549.13 1282.55 1546 Q1284.55 1538.5 1285.32 1535.15 Q1286.1 1531.77 1286.1 1530.32 Q1286.1 1528.96 1285.74 1528.03 Q1285.39 1527.1 1284.78 1526.68 Q1284.2 1526.23 1283.65 1526.07 Q1283.13 1525.91 1282.55 1525.91 Q1281.59 1525.91 1280.49 1526.29 Q1279.43 1526.68 1278.14 1527.58 Q1276.89 1528.45 1275.69 1530.25 Q1274.5 1532.06 1273.7 1534.54 Q1273.54 1535.28 1272.83 1535.28 Q1272.05 1535.24 1272.05 1534.6 Q1272.05 1534.05 1272.47 1532.93 Q1272.92 1531.77 1273.83 1530.32 Q1274.76 1528.87 1275.95 1527.58 Q1277.18 1526.26 1278.95 1525.36 Q1280.75 1524.46 1282.68 1524.46 Q1283.55 1524.46 1284.39 1524.65 Q1285.26 1524.81 1286.29 1525.29 Q1287.35 1525.78 1288.29 1526.84 Q1289.22 1527.9 1289.8 1529.45 Q1290.19 1528.71 1290.7 1528 Q1291.25 1527.29 1292.09 1526.42 Q1292.96 1525.52 1294.15 1525 Q1295.37 1524.46 1296.72 1524.46 Q1298.04 1524.46 1299.33 1524.81 Q1300.62 1525.13 1301.72 1526.19 Q1302.84 1527.23 1302.84 1528.8 Z" fill="#000000" fill-rule="nonzero" fill-opacity="1" /><polyline clip-path="url(#clip212)" style="stroke:#000000; stroke-linecap:round; stroke-linejoin:round; stroke-width:2; stroke-opacity:0.1; fill:none" points="224.584,1268.29 2352.76,1268.29 "/>
<polyline clip-path="url(#clip212)" style="stroke:#000000; stroke-linecap:round; stroke-linejoin:round; stroke-width:2; stroke-opacity:0.1; fill:none" points="224.584,1020.81 2352.76,1020.81 "/>
<polyline clip-path="url(#clip212)" style="stroke:#000000; stroke-linecap:round; stroke-linejoin:round; stroke-width:2; stroke-opacity:0.1; fill:none" points="224.584,773.332 2352.76,773.332 "/>
<polyline clip-path="url(#clip212)" style="stroke:#000000; stroke-linecap:round; stroke-linejoin:round; stroke-width:2; stroke-opacity:0.1; fill:none" points="224.584,525.852 2352.76,525.852 "/>
<polyline clip-path="url(#clip212)" style="stroke:#000000; stroke-linecap:round; stroke-linejoin:round; stroke-width:2; stroke-opacity:0.1; fill:none" points="224.584,278.372 2352.76,278.372 "/>
<polyline clip-path="url(#clip210)" style="stroke:#000000; stroke-linecap:round; stroke-linejoin:round; stroke-width:4; stroke-opacity:1; fill:none" points="224.584,1423.18 224.584,123.472 "/>
<polyline clip-path="url(#clip210)" style="stroke:#000000; stroke-linecap:round; stroke-linejoin:round; stroke-width:4; stroke-opacity:1; fill:none" points="224.584,1268.29 243.482,1268.29 "/>
<polyline clip-path="url(#clip210)" style="stroke:#000000; stroke-linecap:round; stroke-linejoin:round; stroke-width:4; stroke-opacity:1; fill:none" points="224.584,1020.81 243.482,1020.81 "/>
<polyline clip-path="url(#clip210)" style="stroke:#000000; stroke-linecap:round; stroke-linejoin:round; stroke-width:4; stroke-opacity:1; fill:none" points="224.584,773.332 243.482,773.332 "/>
<polyline clip-path="url(#clip210)" style="stroke:#000000; stroke-linecap:round; stroke-linejoin:round; stroke-width:4; stroke-opacity:1; fill:none" points="224.584,525.852 243.482,525.852 "/>
<polyline clip-path="url(#clip210)" style="stroke:#000000; stroke-linecap:round; stroke-linejoin:round; stroke-width:4; stroke-opacity:1; fill:none" points="224.584,278.372 243.482,278.372 "/>
<path clip-path="url(#clip210)" d="M50.9921 1268.74 L80.6679 1268.74 L80.6679 1272.68 L50.9921 1272.68 L50.9921 1268.74 Z" fill="#000000" fill-rule="nonzero" fill-opacity="1" /><path clip-path="url(#clip210)" d="M100.76 1254.09 Q97.1493 1254.09 95.3206 1257.66 Q93.515 1261.2 93.515 1268.33 Q93.515 1275.43 95.3206 1279 Q97.1493 1282.54 100.76 1282.54 Q104.395 1282.54 106.2 1279 Q108.029 1275.43 108.029 1268.33 Q108.029 1261.2 106.2 1257.66 Q104.395 1254.09 100.76 1254.09 M100.76 1250.39 Q106.571 1250.39 109.626 1254.99 Q112.705 1259.58 112.705 1268.33 Q112.705 1277.05 109.626 1281.66 Q106.571 1286.24 100.76 1286.24 Q94.9502 1286.24 91.8715 1281.66 Q88.816 1277.05 88.816 1268.33 Q88.816 1259.58 91.8715 1254.99 Q94.9502 1250.39 100.76 1250.39 Z" fill="#000000" fill-rule="nonzero" fill-opacity="1" /><path clip-path="url(#clip210)" d="M120.922 1279.69 L125.807 1279.69 L125.807 1285.57 L120.922 1285.57 L120.922 1279.69 Z" fill="#000000" fill-rule="nonzero" fill-opacity="1" /><path clip-path="url(#clip210)" d="M145.992 1254.09 Q142.381 1254.09 140.552 1257.66 Q138.746 1261.2 138.746 1268.33 Q138.746 1275.43 140.552 1279 Q142.381 1282.54 145.992 1282.54 Q149.626 1282.54 151.431 1279 Q153.26 1275.43 153.26 1268.33 Q153.26 1261.2 151.431 1257.66 Q149.626 1254.09 145.992 1254.09 M145.992 1250.39 Q151.802 1250.39 154.857 1254.99 Q157.936 1259.58 157.936 1268.33 Q157.936 1277.05 154.857 1281.66 Q151.802 1286.24 145.992 1286.24 Q140.181 1286.24 137.103 1281.66 Q134.047 1277.05 134.047 1268.33 Q134.047 1259.58 137.103 1254.99 Q140.181 1250.39 145.992 1250.39 Z" fill="#000000" fill-rule="nonzero" fill-opacity="1" /><path clip-path="url(#clip210)" d="M179.001 1255.09 L167.195 1273.54 L179.001 1273.54 L179.001 1255.09 M177.774 1251.01 L183.653 1251.01 L183.653 1273.54 L188.584 1273.54 L188.584 1277.42 L183.653 1277.42 L183.653 1285.57 L179.001 1285.57 L179.001 1277.42 L163.399 1277.42 L163.399 1272.91 L177.774 1251.01 Z" fill="#000000" fill-rule="nonzero" fill-opacity="1" /><path clip-path="url(#clip210)" d="M53.0754 1021.26 L82.7512 1021.26 L82.7512 1025.2 L53.0754 1025.2 L53.0754 1021.26 Z" fill="#000000" fill-rule="nonzero" fill-opacity="1" /><path clip-path="url(#clip210)" d="M102.844 1006.61 Q99.2326 1006.61 97.4039 1010.18 Q95.5984 1013.72 95.5984 1020.85 Q95.5984 1027.95 97.4039 1031.52 Q99.2326 1035.06 102.844 1035.06 Q106.478 1035.06 108.283 1031.52 Q110.112 1027.95 110.112 1020.85 Q110.112 1013.72 108.283 1010.18 Q106.478 1006.61 102.844 1006.61 M102.844 1002.91 Q108.654 1002.91 111.709 1007.51 Q114.788 1012.1 114.788 1020.85 Q114.788 1029.57 111.709 1034.18 Q108.654 1038.76 102.844 1038.76 Q97.0335 1038.76 93.9549 1034.18 Q90.8993 1029.57 90.8993 1020.85 Q90.8993 1012.1 93.9549 1007.51 Q97.0335 1002.91 102.844 1002.91 Z" fill="#000000" fill-rule="nonzero" fill-opacity="1" /><path clip-path="url(#clip210)" d="M123.006 1032.21 L127.89 1032.21 L127.89 1038.09 L123.006 1038.09 L123.006 1032.21 Z" fill="#000000" fill-rule="nonzero" fill-opacity="1" /><path clip-path="url(#clip210)" d="M148.075 1006.61 Q144.464 1006.61 142.635 1010.18 Q140.83 1013.72 140.83 1020.85 Q140.83 1027.95 142.635 1031.52 Q144.464 1035.06 148.075 1035.06 Q151.709 1035.06 153.515 1031.52 Q155.343 1027.95 155.343 1020.85 Q155.343 1013.72 153.515 1010.18 Q151.709 1006.61 148.075 1006.61 M148.075 1002.91 Q153.885 1002.91 156.941 1007.51 Q160.019 1012.1 160.019 1020.85 Q160.019 1029.57 156.941 1034.18 Q153.885 1038.76 148.075 1038.76 Q142.265 1038.76 139.186 1034.18 Q136.131 1029.57 136.131 1020.85 Q136.131 1012.1 139.186 1007.51 Q142.265 1002.91 148.075 1002.91 Z" fill="#000000" fill-rule="nonzero" fill-opacity="1" /><path clip-path="url(#clip210)" d="M172.265 1034.16 L188.584 1034.16 L188.584 1038.09 L166.64 1038.09 L166.64 1034.16 Q169.302 1031.4 173.885 1026.77 Q178.491 1022.12 179.672 1020.78 Q181.917 1018.25 182.797 1016.52 Q183.7 1014.76 183.7 1013.07 Q183.7 1010.31 181.755 1008.58 Q179.834 1006.84 176.732 1006.84 Q174.533 1006.84 172.079 1007.61 Q169.649 1008.37 166.871 1009.92 L166.871 1005.2 Q169.695 1004.06 172.149 1003.49 Q174.603 1002.91 176.64 1002.91 Q182.01 1002.91 185.204 1005.59 Q188.399 1008.28 188.399 1012.77 Q188.399 1014.9 187.589 1016.82 Q186.802 1018.72 184.695 1021.31 Q184.116 1021.98 181.015 1025.2 Q177.913 1028.39 172.265 1034.16 Z" fill="#000000" fill-rule="nonzero" fill-opacity="1" /><path clip-path="url(#clip210)" d="M101.246 759.131 Q97.6354 759.131 95.8067 762.696 Q94.0012 766.237 94.0012 773.367 Q94.0012 780.474 95.8067 784.038 Q97.6354 787.58 101.246 787.58 Q104.881 787.58 106.686 784.038 Q108.515 780.474 108.515 773.367 Q108.515 766.237 106.686 762.696 Q104.881 759.131 101.246 759.131 M101.246 755.427 Q107.057 755.427 110.112 760.034 Q113.191 764.617 113.191 773.367 Q113.191 782.094 110.112 786.7 Q107.057 791.284 101.246 791.284 Q95.4363 791.284 92.3576 786.7 Q89.3021 782.094 89.3021 773.367 Q89.3021 764.617 92.3576 760.034 Q95.4363 755.427 101.246 755.427 Z" fill="#000000" fill-rule="nonzero" fill-opacity="1" /><path clip-path="url(#clip210)" d="M121.408 784.733 L126.293 784.733 L126.293 790.612 L121.408 790.612 L121.408 784.733 Z" fill="#000000" fill-rule="nonzero" fill-opacity="1" /><path clip-path="url(#clip210)" d="M146.478 759.131 Q142.867 759.131 141.038 762.696 Q139.232 766.237 139.232 773.367 Q139.232 780.474 141.038 784.038 Q142.867 787.58 146.478 787.58 Q150.112 787.58 151.918 784.038 Q153.746 780.474 153.746 773.367 Q153.746 766.237 151.918 762.696 Q150.112 759.131 146.478 759.131 M146.478 755.427 Q152.288 755.427 155.343 760.034 Q158.422 764.617 158.422 773.367 Q158.422 782.094 155.343 786.7 Q152.288 791.284 146.478 791.284 Q140.668 791.284 137.589 786.7 Q134.533 782.094 134.533 773.367 Q134.533 764.617 137.589 760.034 Q140.668 755.427 146.478 755.427 Z" fill="#000000" fill-rule="nonzero" fill-opacity="1" /><path clip-path="url(#clip210)" d="M176.64 759.131 Q173.029 759.131 171.2 762.696 Q169.394 766.237 169.394 773.367 Q169.394 780.474 171.2 784.038 Q173.029 787.58 176.64 787.58 Q180.274 787.58 182.079 784.038 Q183.908 780.474 183.908 773.367 Q183.908 766.237 182.079 762.696 Q180.274 759.131 176.64 759.131 M176.64 755.427 Q182.45 755.427 185.505 760.034 Q188.584 764.617 188.584 773.367 Q188.584 782.094 185.505 786.7 Q182.45 791.284 176.64 791.284 Q170.829 791.284 167.751 786.7 Q164.695 782.094 164.695 773.367 Q164.695 764.617 167.751 760.034 Q170.829 755.427 176.64 755.427 Z" fill="#000000" fill-rule="nonzero" fill-opacity="1" /><path clip-path="url(#clip210)" d="M102.844 511.651 Q99.2326 511.651 97.4039 515.216 Q95.5984 518.758 95.5984 525.887 Q95.5984 532.994 97.4039 536.558 Q99.2326 540.1 102.844 540.1 Q106.478 540.1 108.283 536.558 Q110.112 532.994 110.112 525.887 Q110.112 518.758 108.283 515.216 Q106.478 511.651 102.844 511.651 M102.844 507.947 Q108.654 507.947 111.709 512.554 Q114.788 517.137 114.788 525.887 Q114.788 534.614 111.709 539.22 Q108.654 543.804 102.844 543.804 Q97.0335 543.804 93.9549 539.22 Q90.8993 534.614 90.8993 525.887 Q90.8993 517.137 93.9549 512.554 Q97.0335 507.947 102.844 507.947 Z" fill="#000000" fill-rule="nonzero" fill-opacity="1" /><path clip-path="url(#clip210)" d="M123.006 537.253 L127.89 537.253 L127.89 543.132 L123.006 543.132 L123.006 537.253 Z" fill="#000000" fill-rule="nonzero" fill-opacity="1" /><path clip-path="url(#clip210)" d="M148.075 511.651 Q144.464 511.651 142.635 515.216 Q140.83 518.758 140.83 525.887 Q140.83 532.994 142.635 536.558 Q144.464 540.1 148.075 540.1 Q151.709 540.1 153.515 536.558 Q155.343 532.994 155.343 525.887 Q155.343 518.758 153.515 515.216 Q151.709 511.651 148.075 511.651 M148.075 507.947 Q153.885 507.947 156.941 512.554 Q160.019 517.137 160.019 525.887 Q160.019 534.614 156.941 539.22 Q153.885 543.804 148.075 543.804 Q142.265 543.804 139.186 539.22 Q136.131 534.614 136.131 525.887 Q136.131 517.137 139.186 512.554 Q142.265 507.947 148.075 507.947 Z" fill="#000000" fill-rule="nonzero" fill-opacity="1" /><path clip-path="url(#clip210)" d="M172.265 539.197 L188.584 539.197 L188.584 543.132 L166.64 543.132 L166.64 539.197 Q169.302 536.443 173.885 531.813 Q178.491 527.16 179.672 525.818 Q181.917 523.295 182.797 521.558 Q183.7 519.799 183.7 518.109 Q183.7 515.355 181.755 513.619 Q179.834 511.883 176.732 511.883 Q174.533 511.883 172.079 512.646 Q169.649 513.41 166.871 514.961 L166.871 510.239 Q169.695 509.105 172.149 508.526 Q174.603 507.947 176.64 507.947 Q182.01 507.947 185.204 510.633 Q188.399 513.318 188.399 517.808 Q188.399 519.938 187.589 521.859 Q186.802 523.757 184.695 526.35 Q184.116 527.021 181.015 530.239 Q177.913 533.433 172.265 539.197 Z" fill="#000000" fill-rule="nonzero" fill-opacity="1" /><path clip-path="url(#clip210)" d="M100.76 264.171 Q97.1493 264.171 95.3206 267.736 Q93.515 271.278 93.515 278.407 Q93.515 285.514 95.3206 289.078 Q97.1493 292.62 100.76 292.62 Q104.395 292.62 106.2 289.078 Q108.029 285.514 108.029 278.407 Q108.029 271.278 106.2 267.736 Q104.395 264.171 100.76 264.171 M100.76 260.467 Q106.571 260.467 109.626 265.074 Q112.705 269.657 112.705 278.407 Q112.705 287.134 109.626 291.74 Q106.571 296.324 100.76 296.324 Q94.9502 296.324 91.8715 291.74 Q88.816 287.134 88.816 278.407 Q88.816 269.657 91.8715 265.074 Q94.9502 260.467 100.76 260.467 Z" fill="#000000" fill-rule="nonzero" fill-opacity="1" /><path clip-path="url(#clip210)" d="M120.922 289.773 L125.807 289.773 L125.807 295.652 L120.922 295.652 L120.922 289.773 Z" fill="#000000" fill-rule="nonzero" fill-opacity="1" /><path clip-path="url(#clip210)" d="M145.992 264.171 Q142.381 264.171 140.552 267.736 Q138.746 271.278 138.746 278.407 Q138.746 285.514 140.552 289.078 Q142.381 292.62 145.992 292.62 Q149.626 292.62 151.431 289.078 Q153.26 285.514 153.26 278.407 Q153.26 271.278 151.431 267.736 Q149.626 264.171 145.992 264.171 M145.992 260.467 Q151.802 260.467 154.857 265.074 Q157.936 269.657 157.936 278.407 Q157.936 287.134 154.857 291.74 Q151.802 296.324 145.992 296.324 Q140.181 296.324 137.103 291.74 Q134.047 287.134 134.047 278.407 Q134.047 269.657 137.103 265.074 Q140.181 260.467 145.992 260.467 Z" fill="#000000" fill-rule="nonzero" fill-opacity="1" /><path clip-path="url(#clip210)" d="M179.001 265.166 L167.195 283.615 L179.001 283.615 L179.001 265.166 M177.774 261.092 L183.653 261.092 L183.653 283.615 L188.584 283.615 L188.584 287.504 L183.653 287.504 L183.653 295.652 L179.001 295.652 L179.001 287.504 L163.399 287.504 L163.399 282.99 L177.774 261.092 Z" fill="#000000" fill-rule="nonzero" fill-opacity="1" /><path clip-path="url(#clip210)" d="M1199.33 28.5427 L1199.33 35.5912 Q1196.17 33.9709 1192.76 33.1607 Q1189.36 32.3505 1185.72 32.3505 Q1180.17 32.3505 1177.37 34.0519 Q1174.62 35.7533 1174.62 39.156 Q1174.62 41.7486 1176.6 43.2475 Q1178.59 44.7058 1184.58 46.0426 L1187.13 46.6097 Q1195.07 48.3111 1198.4 51.4303 Q1201.76 54.509 1201.76 60.0587 Q1201.76 66.3781 1196.73 70.0644 Q1191.75 73.7508 1183 73.7508 Q1179.36 73.7508 1175.39 73.0216 Q1171.46 72.3329 1167.08 70.9151 L1167.08 63.2184 Q1171.21 65.3654 1175.22 66.4591 Q1179.23 67.5124 1183.16 67.5124 Q1188.43 67.5124 1191.27 65.73 Q1194.1 63.9071 1194.1 60.6258 Q1194.1 57.5877 1192.04 55.9673 Q1190.01 54.3469 1183.08 52.8481 L1180.49 52.2405 Q1173.56 50.7821 1170.48 47.7845 Q1167.41 44.7463 1167.41 39.4801 Q1167.41 33.0797 1171.94 29.5959 Q1176.48 26.1121 1184.83 26.1121 Q1188.96 26.1121 1192.6 26.7198 Q1196.25 27.3274 1199.33 28.5427 Z" fill="#000000" fill-rule="nonzero" fill-opacity="1" /><path clip-path="url(#clip210)" d="M1246.28 28.9478 L1246.28 35.9153 Q1243.12 34.1734 1239.92 33.3227 Q1236.76 32.4315 1233.52 32.4315 Q1226.27 32.4315 1222.26 37.0496 Q1218.24 41.6271 1218.24 49.9314 Q1218.24 58.2358 1222.26 62.8538 Q1226.27 67.4314 1233.52 67.4314 Q1236.76 67.4314 1239.92 66.5807 Q1243.12 65.6895 1246.28 63.9476 L1246.28 70.8341 Q1243.16 72.2924 1239.8 73.0216 Q1236.47 73.7508 1232.71 73.7508 Q1222.46 73.7508 1216.42 67.3098 Q1210.39 60.8689 1210.39 49.9314 Q1210.39 38.832 1216.46 32.472 Q1222.58 26.1121 1233.19 26.1121 Q1236.64 26.1121 1239.92 26.8413 Q1243.2 27.5299 1246.28 28.9478 Z" fill="#000000" fill-rule="nonzero" fill-opacity="1" /><path clip-path="url(#clip210)" d="M1279.86 49.7694 Q1270.83 49.7694 1267.34 51.8354 Q1263.86 53.9013 1263.86 58.8839 Q1263.86 62.8538 1266.45 65.2034 Q1269.08 67.5124 1273.58 67.5124 Q1279.78 67.5124 1283.51 63.1374 Q1287.27 58.7219 1287.27 51.4303 L1287.27 49.7694 L1279.86 49.7694 M1294.73 46.6907 L1294.73 72.576 L1287.27 72.576 L1287.27 65.6895 Q1284.72 69.8214 1280.91 71.8063 Q1277.1 73.7508 1271.6 73.7508 Q1264.63 73.7508 1260.5 69.8619 Q1256.4 65.9325 1256.4 59.3701 Q1256.4 51.7138 1261.51 47.825 Q1266.65 43.9361 1276.82 43.9361 L1287.27 43.9361 L1287.27 43.2069 Q1287.27 38.0623 1283.87 35.2672 Q1280.51 32.4315 1274.39 32.4315 Q1270.5 32.4315 1266.82 33.3632 Q1263.13 34.295 1259.73 36.1584 L1259.73 29.2718 Q1263.82 27.692 1267.67 26.9223 Q1271.51 26.1121 1275.16 26.1121 Q1285 26.1121 1289.86 31.2163 Q1294.73 36.3204 1294.73 46.6907 Z" fill="#000000" fill-rule="nonzero" fill-opacity="1" /><path clip-path="url(#clip210)" d="M1310.08 9.54393 L1317.53 9.54393 L1317.53 72.576 L1310.08 72.576 L1310.08 9.54393 Z" fill="#000000" fill-rule="nonzero" fill-opacity="1" /><path clip-path="url(#clip210)" d="M1353.75 49.7694 Q1344.71 49.7694 1341.23 51.8354 Q1337.75 53.9013 1337.75 58.8839 Q1337.75 62.8538 1340.34 65.2034 Q1342.97 67.5124 1347.47 67.5124 Q1353.67 67.5124 1357.39 63.1374 Q1361.16 58.7219 1361.16 51.4303 L1361.16 49.7694 L1353.75 49.7694 M1368.61 46.6907 L1368.61 72.576 L1361.16 72.576 L1361.16 65.6895 Q1358.61 69.8214 1354.8 71.8063 Q1350.99 73.7508 1345.48 73.7508 Q1338.52 73.7508 1334.38 69.8619 Q1330.29 65.9325 1330.29 59.3701 Q1330.29 51.7138 1335.4 47.825 Q1340.54 43.9361 1350.71 43.9361 L1361.16 43.9361 L1361.16 43.2069 Q1361.16 38.0623 1357.76 35.2672 Q1354.4 32.4315 1348.28 32.4315 Q1344.39 32.4315 1340.7 33.3632 Q1337.02 34.295 1333.61 36.1584 L1333.61 29.2718 Q1337.71 27.692 1341.55 26.9223 Q1345.4 26.1121 1349.05 26.1121 Q1358.89 26.1121 1363.75 31.2163 Q1368.61 36.3204 1368.61 46.6907 Z" fill="#000000" fill-rule="nonzero" fill-opacity="1" /><path clip-path="url(#clip210)" d="M1410.26 34.1734 Q1409 33.4443 1407.5 33.1202 Q1406.04 32.7556 1404.26 32.7556 Q1397.94 32.7556 1394.54 36.8875 Q1391.18 40.9789 1391.18 48.6757 L1391.18 72.576 L1383.68 72.576 L1383.68 27.2059 L1391.18 27.2059 L1391.18 34.2544 Q1393.53 30.1225 1397.29 28.1376 Q1401.06 26.1121 1406.45 26.1121 Q1407.22 26.1121 1408.15 26.2337 Q1409.08 26.3147 1410.22 26.5172 L1410.26 34.1734 Z" fill="#000000" fill-rule="nonzero" fill-opacity="1" /><polyline clip-path="url(#clip212)" style="stroke:#009af9; stroke-linecap:round; stroke-linejoin:round; stroke-width:4; stroke-opacity:1; fill:none" points="224.584,768.467 243.586,735.748 262.587,701.892 281.589,667.513 300.59,633.222 319.592,599.633 338.593,567.359 357.595,537.014 357.595,534.205 376.596,504.533 395.598,474.498 414.599,444.67 433.601,415.617 452.602,387.91 471.604,362.118 490.605,338.81 490.605,336.391 509.607,314.248 528.609,292.59 547.61,271.852 566.612,252.468 585.613,234.871 604.615,219.496 623.616,206.776 623.616,205.055 642.618,193.839 661.619,183.873 680.621,175.391 699.622,168.625 718.624,163.808 737.625,161.174 756.627,160.954 756.627,160.256 775.628,161.668 794.63,164.901 813.632,169.955 832.633,176.832 851.635,185.532 870.636,196.057 889.638,208.409 889.638,208.804 908.639,222.609 927.641,238.546 946.642,256.375 965.644,275.858 984.645,296.756 1003.65,318.829 1022.65,341.839 1022.65,343.249 1041.65,367.387 1060.65,393.619 1079.65,421.51 1098.65,450.623 1117.66,480.524 1136.66,510.776 1155.66,540.944 1155.66,543.232 1174.66,573.988 1193.66,606.496 1212.66,640.19 1231.67,674.503 1250.67,708.868 1269.67,742.719 1288.67,775.489 1288.67,778.213 1307.67,810.912 1326.67,844.763 1345.67,879.148 1364.68,913.446 1383.68,947.04 1402.68,979.312 1421.68,1009.64 1421.68,1012.42 1440.68,1042.12 1459.68,1072.17 1478.69,1102 1497.69,1131.05 1516.69,1158.75 1535.69,1184.53 1554.69,1207.84 1554.69,1210.3 1573.69,1232.43 1592.69,1254.07 1611.7,1274.81 1630.7,1294.19 1649.7,1311.79 1668.7,1327.18 1687.7,1339.92 1687.7,1341.6 1706.7,1352.82 1725.71,1362.79 1744.71,1371.28 1763.71,1378.05 1782.71,1382.86 1801.71,1385.49 1820.71,1385.68 1820.71,1386.4 1839.71,1385 1858.72,1381.77 1877.72,1376.71 1896.72,1369.83 1915.72,1361.13 1934.72,1350.6 1953.72,1338.27 1953.72,1337.89 1972.73,1324.06 1991.73,1308.11 2010.73,1290.28 2029.73,1270.8 2048.73,1249.91 2067.73,1227.85 2086.73,1204.84 2086.73,1203.38 2105.74,1179.27 2124.74,1153.05 2143.74,1125.16 2162.74,1096.05 2181.74,1066.14 2200.74,1035.88 2219.75,1005.69 2219.75,1003.45 2238.75,972.69 2257.75,940.174 2276.75,906.471 2295.75,872.153 2314.75,837.789 2333.75,803.951 2352.76,771.209 "/>
<path clip-path="url(#clip210)" d="M1745.02 270.476 L2281.82 270.476 L2281.82 166.796 L1745.02 166.796  Z" fill="#ffffff" fill-rule="evenodd" fill-opacity="1"/>
<polyline clip-path="url(#clip210)" style="stroke:#000000; stroke-linecap:round; stroke-linejoin:round; stroke-width:4; stroke-opacity:1; fill:none" points="1745.02,270.476 2281.82,270.476 2281.82,166.796 1745.02,166.796 1745.02,270.476 "/>
<polyline clip-path="url(#clip210)" style="stroke:#009af9; stroke-linecap:round; stroke-linejoin:round; stroke-width:4; stroke-opacity:1; fill:none" points="1768.67,218.636 1910.54,218.636 "/>
<path clip-path="url(#clip210)" d="M1955.9 220.268 L1955.9 235.916 L1951.64 235.916 L1951.64 220.407 Q1951.64 216.726 1950.21 214.897 Q1948.77 213.069 1945.9 213.069 Q1942.45 213.069 1940.46 215.268 Q1938.47 217.467 1938.47 221.263 L1938.47 235.916 L1934.19 235.916 L1934.19 209.99 L1938.47 209.99 L1938.47 214.018 Q1940 211.68 1942.06 210.522 Q1944.14 209.365 1946.85 209.365 Q1951.32 209.365 1953.61 212.143 Q1955.9 214.897 1955.9 220.268 Z" fill="#000000" fill-rule="nonzero" fill-opacity="1" /><path clip-path="url(#clip210)" d="M1963.96 225.684 L1963.96 209.99 L1968.22 209.99 L1968.22 225.522 Q1968.22 229.203 1969.65 231.055 Q1971.09 232.883 1973.96 232.883 Q1977.41 232.883 1979.4 230.684 Q1981.41 228.485 1981.41 224.689 L1981.41 209.99 L1985.67 209.99 L1985.67 235.916 L1981.41 235.916 L1981.41 231.934 Q1979.86 234.295 1977.8 235.453 Q1975.76 236.587 1973.06 236.587 Q1968.59 236.587 1966.27 233.809 Q1963.96 231.031 1963.96 225.684 M1974.68 209.365 L1974.68 209.365 Z" fill="#000000" fill-rule="nonzero" fill-opacity="1" /><path clip-path="url(#clip210)" d="M2014.63 214.967 Q2016.23 212.096 2018.45 210.731 Q2020.67 209.365 2023.68 209.365 Q2027.73 209.365 2029.93 212.212 Q2032.13 215.036 2032.13 220.268 L2032.13 235.916 L2027.85 235.916 L2027.85 220.407 Q2027.85 216.68 2026.53 214.874 Q2025.21 213.069 2022.5 213.069 Q2019.19 213.069 2017.27 215.268 Q2015.35 217.467 2015.35 221.263 L2015.35 235.916 L2011.07 235.916 L2011.07 220.407 Q2011.07 216.657 2009.75 214.874 Q2008.43 213.069 2005.67 213.069 Q2002.41 213.069 2000.49 215.291 Q1998.57 217.49 1998.57 221.263 L1998.57 235.916 L1994.28 235.916 L1994.28 209.99 L1998.57 209.99 L1998.57 214.018 Q2000.02 211.633 2002.06 210.499 Q2004.1 209.365 2006.9 209.365 Q2009.72 209.365 2011.69 210.8 Q2013.68 212.235 2014.63 214.967 Z" fill="#000000" fill-rule="nonzero" fill-opacity="1" /><path clip-path="url(#clip210)" d="M2062.8 221.888 L2062.8 223.971 L2043.22 223.971 Q2043.5 228.369 2045.86 230.684 Q2048.24 232.976 2052.48 232.976 Q2054.93 232.976 2057.22 232.374 Q2059.54 231.772 2061.81 230.569 L2061.81 234.596 Q2059.51 235.568 2057.11 236.078 Q2054.7 236.587 2052.22 236.587 Q2046.02 236.587 2042.38 232.976 Q2038.77 229.365 2038.77 223.207 Q2038.77 216.842 2042.2 213.115 Q2045.65 209.365 2051.48 209.365 Q2056.71 209.365 2059.75 212.745 Q2062.8 216.101 2062.8 221.888 M2058.54 220.638 Q2058.5 217.143 2056.57 215.059 Q2054.68 212.976 2051.53 212.976 Q2047.96 212.976 2045.81 214.99 Q2043.68 217.004 2043.36 220.661 L2058.54 220.638 Z" fill="#000000" fill-rule="nonzero" fill-opacity="1" /><path clip-path="url(#clip210)" d="M2084.81 213.971 Q2084.1 213.555 2083.24 213.37 Q2082.41 213.161 2081.39 213.161 Q2077.78 213.161 2075.83 215.522 Q2073.91 217.86 2073.91 222.258 L2073.91 235.916 L2069.63 235.916 L2069.63 209.99 L2073.91 209.99 L2073.91 214.018 Q2075.25 211.657 2077.41 210.522 Q2079.56 209.365 2082.64 209.365 Q2083.08 209.365 2083.61 209.434 Q2084.14 209.481 2084.79 209.596 L2084.81 213.971 Z" fill="#000000" fill-rule="nonzero" fill-opacity="1" /><path clip-path="url(#clip210)" d="M2089.28 209.99 L2093.54 209.99 L2093.54 235.916 L2089.28 235.916 L2089.28 209.99 M2089.28 199.897 L2093.54 199.897 L2093.54 205.291 L2089.28 205.291 L2089.28 199.897 Z" fill="#000000" fill-rule="nonzero" fill-opacity="1" /><path clip-path="url(#clip210)" d="M2121.11 210.985 L2121.11 214.967 Q2119.31 213.971 2117.48 213.485 Q2115.67 212.976 2113.82 212.976 Q2109.68 212.976 2107.38 215.615 Q2105.09 218.231 2105.09 222.976 Q2105.09 227.721 2107.38 230.36 Q2109.68 232.976 2113.82 232.976 Q2115.67 232.976 2117.48 232.49 Q2119.31 231.981 2121.11 230.985 L2121.11 234.92 Q2119.33 235.754 2117.41 236.17 Q2115.51 236.587 2113.36 236.587 Q2107.5 236.587 2104.05 232.906 Q2100.6 229.226 2100.6 222.976 Q2100.6 216.633 2104.07 212.999 Q2107.57 209.365 2113.63 209.365 Q2115.6 209.365 2117.48 209.782 Q2119.35 210.175 2121.11 210.985 Z" fill="#000000" fill-rule="nonzero" fill-opacity="1" /><path clip-path="url(#clip210)" d="M2140.3 222.883 Q2135.14 222.883 2133.15 224.064 Q2131.16 225.244 2131.16 228.092 Q2131.16 230.36 2132.64 231.703 Q2134.14 233.022 2136.71 233.022 Q2140.25 233.022 2142.38 230.522 Q2144.54 227.999 2144.54 223.832 L2144.54 222.883 L2140.3 222.883 M2148.8 221.124 L2148.8 235.916 L2144.54 235.916 L2144.54 231.981 Q2143.08 234.342 2140.9 235.476 Q2138.73 236.587 2135.58 236.587 Q2131.6 236.587 2129.24 234.365 Q2126.9 232.119 2126.9 228.369 Q2126.9 223.994 2129.81 221.772 Q2132.75 219.55 2138.56 219.55 L2144.54 219.55 L2144.54 219.133 Q2144.54 216.194 2142.59 214.596 Q2140.67 212.976 2137.18 212.976 Q2134.95 212.976 2132.85 213.508 Q2130.74 214.041 2128.8 215.106 L2128.8 211.17 Q2131.13 210.268 2133.33 209.828 Q2135.53 209.365 2137.62 209.365 Q2143.24 209.365 2146.02 212.282 Q2148.8 215.198 2148.8 221.124 Z" fill="#000000" fill-rule="nonzero" fill-opacity="1" /><path clip-path="url(#clip210)" d="M2157.57 199.897 L2161.83 199.897 L2161.83 235.916 L2157.57 235.916 L2157.57 199.897 Z" fill="#000000" fill-rule="nonzero" fill-opacity="1" /><path clip-path="url(#clip210)" d="M2202.34 210.754 L2202.34 214.782 Q2200.53 213.856 2198.59 213.393 Q2196.64 212.93 2194.56 212.93 Q2191.39 212.93 2189.79 213.902 Q2188.22 214.874 2188.22 216.819 Q2188.22 218.3 2189.35 219.157 Q2190.49 219.99 2193.91 220.754 L2195.37 221.078 Q2199.91 222.05 2201.81 223.832 Q2203.73 225.592 2203.73 228.763 Q2203.73 232.374 2200.86 234.481 Q2198.01 236.587 2193.01 236.587 Q2190.93 236.587 2188.66 236.17 Q2186.41 235.777 2183.91 234.967 L2183.91 230.569 Q2186.27 231.795 2188.56 232.42 Q2190.86 233.022 2193.1 233.022 Q2196.11 233.022 2197.73 232.004 Q2199.35 230.962 2199.35 229.087 Q2199.35 227.351 2198.17 226.425 Q2197.01 225.499 2193.06 224.643 L2191.57 224.295 Q2187.62 223.462 2185.86 221.749 Q2184.1 220.013 2184.1 217.004 Q2184.1 213.346 2186.69 211.356 Q2189.28 209.365 2194.05 209.365 Q2196.41 209.365 2198.49 209.712 Q2200.58 210.059 2202.34 210.754 Z" fill="#000000" fill-rule="nonzero" fill-opacity="1" /><path clip-path="url(#clip210)" d="M2220.55 212.976 Q2217.13 212.976 2215.14 215.661 Q2213.15 218.323 2213.15 222.976 Q2213.15 227.629 2215.12 230.314 Q2217.11 232.976 2220.55 232.976 Q2223.96 232.976 2225.95 230.291 Q2227.94 227.606 2227.94 222.976 Q2227.94 218.37 2225.95 215.684 Q2223.96 212.976 2220.55 212.976 M2220.55 209.365 Q2226.11 209.365 2229.28 212.976 Q2232.45 216.587 2232.45 222.976 Q2232.45 229.342 2229.28 232.976 Q2226.11 236.587 2220.55 236.587 Q2214.98 236.587 2211.8 232.976 Q2208.66 229.342 2208.66 222.976 Q2208.66 216.587 2211.8 212.976 Q2214.98 209.365 2220.55 209.365 Z" fill="#000000" fill-rule="nonzero" fill-opacity="1" /><path clip-path="url(#clip210)" d="M2239.51 199.897 L2243.77 199.897 L2243.77 235.916 L2239.51 235.916 L2239.51 199.897 Z" fill="#000000" fill-rule="nonzero" fill-opacity="1" /><path clip-path="url(#clip210)" d="M2253.29 230.036 L2258.17 230.036 L2258.17 235.916 L2253.29 235.916 L2253.29 230.036 Z" fill="#000000" fill-rule="nonzero" fill-opacity="1" /></svg>
