<?xml version="1.0" encoding="utf-8"?>
<svg xmlns="http://www.w3.org/2000/svg" xmlns:xlink="http://www.w3.org/1999/xlink" width="600" height="400" viewBox="0 0 2400 1600">
<defs>
  <clipPath id="clip650">
    <rect x="0" y="0" width="2400" height="1600"/>
  </clipPath>
</defs>
<path clip-path="url(#clip650)" d="M0 1600 L2400 1600 L2400 0 L0 0  Z" fill="#ffffff" fill-rule="evenodd" fill-opacity="1"/>
<defs>
  <clipPath id="clip651">
    <rect x="480" y="0" width="1681" height="1600"/>
  </clipPath>
</defs>
<path clip-path="url(#clip650)" d="M224.584 1423.18 L2352.76 1423.18 L2352.76 123.472 L224.584 123.472  Z" fill="#ffffff" fill-rule="evenodd" fill-opacity="1"/>
<defs>
  <clipPath id="clip652">
    <rect x="224" y="123" width="2129" height="1301"/>
  </clipPath>
</defs>
<polyline clip-path="url(#clip652)" style="stroke:#000000; stroke-linecap:round; stroke-linejoin:round; stroke-width:2; stroke-opacity:0.1; fill:none" points="224.584,1423.18 224.584,123.472 "/>
<polyline clip-path="url(#clip652)" style="stroke:#000000; stroke-linecap:round; stroke-linejoin:round; stroke-width:2; stroke-opacity:0.1; fill:none" points="756.627,1423.18 756.627,123.472 "/>
<polyline clip-path="url(#clip652)" style="stroke:#000000; stroke-linecap:round; stroke-linejoin:round; stroke-width:2; stroke-opacity:0.1; fill:none" points="1288.67,1423.18 1288.67,123.472 "/>
<polyline clip-path="url(#clip652)" style="stroke:#000000; stroke-linecap:round; stroke-linejoin:round; stroke-width:2; stroke-opacity:0.1; fill:none" points="1820.71,1423.18 1820.71,123.472 "/>
<polyline clip-path="url(#clip652)" style="stroke:#000000; stroke-linecap:round; stroke-linejoin:round; stroke-width:2; stroke-opacity:0.1; fill:none" points="2352.76,1423.18 2352.76,123.472 "/>
<polyline clip-path="url(#clip650)" style="stroke:#000000; stroke-linecap:round; stroke-linejoin:round; stroke-width:4; stroke-opacity:1; fill:none" points="224.584,1423.18 2352.76,1423.18 "/>
<polyline clip-path="url(#clip650)" style="stroke:#000000; stroke-linecap:round; stroke-linejoin:round; stroke-width:4; stroke-opacity:1; fill:none" points="224.584,1423.18 224.584,1404.28 "/>
<polyline clip-path="url(#clip650)" style="stroke:#000000; stroke-linecap:round; stroke-linejoin:round; stroke-width:4; stroke-opacity:1; fill:none" points="756.627,1423.18 756.627,1404.28 "/>
<polyline clip-path="url(#clip650)" style="stroke:#000000; stroke-linecap:round; stroke-linejoin:round; stroke-width:4; stroke-opacity:1; fill:none" points="1288.67,1423.18 1288.67,1404.28 "/>
<polyline clip-path="url(#clip650)" style="stroke:#000000; stroke-linecap:round; stroke-linejoin:round; stroke-width:4; stroke-opacity:1; fill:none" points="1820.71,1423.18 1820.71,1404.28 "/>
<polyline clip-path="url(#clip650)" style="stroke:#000000; stroke-linecap:round; stroke-linejoin:round; stroke-width:4; stroke-opacity:1; fill:none" points="2352.76,1423.18 2352.76,1404.28 "/>
<path clip-path="url(#clip650)" d="M171.112 1468.75 L200.788 1468.75 L200.788 1472.69 L171.112 1472.69 L171.112 1468.75 Z" fill="#000000" fill-rule="nonzero" fill-opacity="1" /><path clip-path="url(#clip650)" d="M211.691 1481.64 L219.329 1481.64 L219.329 1455.28 L211.019 1456.95 L211.019 1452.69 L219.283 1451.02 L223.959 1451.02 L223.959 1481.64 L231.598 1481.64 L231.598 1485.58 L211.691 1485.58 L211.691 1481.64 Z" fill="#000000" fill-rule="nonzero" fill-opacity="1" /><path clip-path="url(#clip650)" d="M241.042 1479.7 L245.926 1479.7 L245.926 1485.58 L241.042 1485.58 L241.042 1479.7 Z" fill="#000000" fill-rule="nonzero" fill-opacity="1" /><path clip-path="url(#clip650)" d="M266.112 1454.1 Q262.5 1454.1 260.672 1457.66 Q258.866 1461.2 258.866 1468.33 Q258.866 1475.44 260.672 1479.01 Q262.5 1482.55 266.112 1482.55 Q269.746 1482.55 271.551 1479.01 Q273.38 1475.44 273.38 1468.33 Q273.38 1461.2 271.551 1457.66 Q269.746 1454.1 266.112 1454.1 M266.112 1450.39 Q271.922 1450.39 274.977 1455 Q278.056 1459.58 278.056 1468.33 Q278.056 1477.06 274.977 1481.67 Q271.922 1486.25 266.112 1486.25 Q260.301 1486.25 257.223 1481.67 Q254.167 1477.06 254.167 1468.33 Q254.167 1459.58 257.223 1455 Q260.301 1450.39 266.112 1450.39 Z" fill="#000000" fill-rule="nonzero" fill-opacity="1" /><path clip-path="url(#clip650)" d="M703.653 1468.75 L733.328 1468.75 L733.328 1472.69 L703.653 1472.69 L703.653 1468.75 Z" fill="#000000" fill-rule="nonzero" fill-opacity="1" /><path clip-path="url(#clip650)" d="M753.421 1454.1 Q749.81 1454.1 747.981 1457.66 Q746.176 1461.2 746.176 1468.33 Q746.176 1475.44 747.981 1479.01 Q749.81 1482.55 753.421 1482.55 Q757.055 1482.55 758.861 1479.01 Q760.689 1475.44 760.689 1468.33 Q760.689 1461.2 758.861 1457.66 Q757.055 1454.1 753.421 1454.1 M753.421 1450.39 Q759.231 1450.39 762.287 1455 Q765.365 1459.58 765.365 1468.33 Q765.365 1477.06 762.287 1481.67 Q759.231 1486.25 753.421 1486.25 Q747.611 1486.25 744.532 1481.67 Q741.477 1477.06 741.477 1468.33 Q741.477 1459.58 744.532 1455 Q747.611 1450.39 753.421 1450.39 Z" fill="#000000" fill-rule="nonzero" fill-opacity="1" /><path clip-path="url(#clip650)" d="M773.583 1479.7 L778.467 1479.7 L778.467 1485.58 L773.583 1485.58 L773.583 1479.7 Z" fill="#000000" fill-rule="nonzero" fill-opacity="1" /><path clip-path="url(#clip650)" d="M788.699 1451.02 L807.055 1451.02 L807.055 1454.96 L792.981 1454.96 L792.981 1463.43 Q793.999 1463.08 795.018 1462.92 Q796.036 1462.73 797.055 1462.73 Q802.842 1462.73 806.222 1465.9 Q809.601 1469.08 809.601 1474.49 Q809.601 1480.07 806.129 1483.17 Q802.657 1486.25 796.337 1486.25 Q794.161 1486.25 791.893 1485.88 Q789.648 1485.51 787.24 1484.77 L787.24 1480.07 Q789.324 1481.2 791.546 1481.76 Q793.768 1482.32 796.245 1482.32 Q800.249 1482.32 802.587 1480.21 Q804.925 1478.1 804.925 1474.49 Q804.925 1470.88 802.587 1468.77 Q800.249 1466.67 796.245 1466.67 Q794.37 1466.67 792.495 1467.08 Q790.643 1467.5 788.699 1468.38 L788.699 1451.02 Z" fill="#000000" fill-rule="nonzero" fill-opacity="1" /><path clip-path="url(#clip650)" d="M1266.05 1454.1 Q1262.44 1454.1 1260.61 1457.66 Q1258.81 1461.2 1258.81 1468.33 Q1258.81 1475.44 1260.61 1479.01 Q1262.44 1482.55 1266.05 1482.55 Q1269.69 1482.55 1271.49 1479.01 Q1273.32 1475.44 1273.32 1468.33 Q1273.32 1461.2 1271.49 1457.66 Q1269.69 1454.1 1266.05 1454.1 M1266.05 1450.39 Q1271.86 1450.39 1274.92 1455 Q1278 1459.58 1278 1468.33 Q1278 1477.06 1274.92 1481.67 Q1271.86 1486.25 1266.05 1486.25 Q1260.24 1486.25 1257.17 1481.67 Q1254.11 1477.06 1254.11 1468.33 Q1254.11 1459.58 1257.17 1455 Q1260.24 1450.39 1266.05 1450.39 Z" fill="#000000" fill-rule="nonzero" fill-opacity="1" /><path clip-path="url(#clip650)" d="M1286.22 1479.7 L1291.1 1479.7 L1291.1 1485.58 L1286.22 1485.58 L1286.22 1479.7 Z" fill="#000000" fill-rule="nonzero" fill-opacity="1" /><path clip-path="url(#clip650)" d="M1311.29 1454.1 Q1307.67 1454.1 1305.85 1457.66 Q1304.04 1461.2 1304.04 1468.33 Q1304.04 1475.44 1305.85 1479.01 Q1307.67 1482.55 1311.29 1482.55 Q1314.92 1482.55 1316.73 1479.01 Q1318.55 1475.44 1318.55 1468.33 Q1318.55 1461.2 1316.73 1457.66 Q1314.92 1454.1 1311.29 1454.1 M1311.29 1450.39 Q1317.1 1450.39 1320.15 1455 Q1323.23 1459.58 1323.23 1468.33 Q1323.23 1477.06 1320.15 1481.67 Q1317.1 1486.25 1311.29 1486.25 Q1305.48 1486.25 1302.4 1481.67 Q1299.34 1477.06 1299.34 1468.33 Q1299.34 1459.58 1302.4 1455 Q1305.48 1450.39 1311.29 1450.39 Z" fill="#000000" fill-rule="nonzero" fill-opacity="1" /><path clip-path="url(#clip650)" d="M1798.59 1454.1 Q1794.98 1454.1 1793.16 1457.66 Q1791.35 1461.2 1791.35 1468.33 Q1791.35 1475.44 1793.16 1479.01 Q1794.98 1482.55 1798.59 1482.55 Q1802.23 1482.55 1804.03 1479.01 Q1805.86 1475.44 1805.86 1468.33 Q1805.86 1461.2 1804.03 1457.66 Q1802.23 1454.1 1798.59 1454.1 M1798.59 1450.39 Q1804.41 1450.39 1807.46 1455 Q1810.54 1459.58 1810.54 1468.33 Q1810.54 1477.06 1807.46 1481.67 Q1804.41 1486.25 1798.59 1486.25 Q1792.78 1486.25 1789.71 1481.67 Q1786.65 1477.06 1786.65 1468.33 Q1786.65 1459.58 1789.71 1455 Q1792.78 1450.39 1798.59 1450.39 Z" fill="#000000" fill-rule="nonzero" fill-opacity="1" /><path clip-path="url(#clip650)" d="M1818.76 1479.7 L1823.64 1479.7 L1823.64 1485.58 L1818.76 1485.58 L1818.76 1479.7 Z" fill="#000000" fill-rule="nonzero" fill-opacity="1" /><path clip-path="url(#clip650)" d="M1833.87 1451.02 L1852.23 1451.02 L1852.23 1454.96 L1838.15 1454.96 L1838.15 1463.43 Q1839.17 1463.08 1840.19 1462.92 Q1841.21 1462.73 1842.23 1462.73 Q1848.02 1462.73 1851.4 1465.9 Q1854.78 1469.08 1854.78 1474.49 Q1854.78 1480.07 1851.3 1483.17 Q1847.83 1486.25 1841.51 1486.25 Q1839.34 1486.25 1837.07 1485.88 Q1834.82 1485.51 1832.41 1484.77 L1832.41 1480.07 Q1834.5 1481.2 1836.72 1481.76 Q1838.94 1482.32 1841.42 1482.32 Q1845.42 1482.32 1847.76 1480.21 Q1850.1 1478.1 1850.1 1474.49 Q1850.1 1470.88 1847.76 1468.77 Q1845.42 1466.67 1841.42 1466.67 Q1839.54 1466.67 1837.67 1467.08 Q1835.82 1467.5 1833.87 1468.38 L1833.87 1451.02 Z" fill="#000000" fill-rule="nonzero" fill-opacity="1" /><path clip-path="url(#clip650)" d="M2319.91 1481.64 L2327.55 1481.64 L2327.55 1455.28 L2319.24 1456.95 L2319.24 1452.69 L2327.5 1451.02 L2332.18 1451.02 L2332.18 1481.64 L2339.82 1481.64 L2339.82 1485.58 L2319.91 1485.58 L2319.91 1481.64 Z" fill="#000000" fill-rule="nonzero" fill-opacity="1" /><path clip-path="url(#clip650)" d="M2349.26 1479.7 L2354.14 1479.7 L2354.14 1485.58 L2349.26 1485.58 L2349.26 1479.7 Z" fill="#000000" fill-rule="nonzero" fill-opacity="1" /><path clip-path="url(#clip650)" d="M2374.33 1454.1 Q2370.72 1454.1 2368.89 1457.66 Q2367.08 1461.2 2367.08 1468.33 Q2367.08 1475.44 2368.89 1479.01 Q2370.72 1482.55 2374.33 1482.55 Q2377.96 1482.55 2379.77 1479.01 Q2381.6 1475.44 2381.6 1468.33 Q2381.6 1461.2 2379.77 1457.66 Q2377.96 1454.1 2374.33 1454.1 M2374.33 1450.39 Q2380.14 1450.39 2383.2 1455 Q2386.27 1459.58 2386.27 1468.33 Q2386.27 1477.06 2383.2 1481.67 Q2380.14 1486.25 2374.33 1486.25 Q2368.52 1486.25 2365.44 1481.67 Q2362.39 1477.06 2362.39 1468.33 Q2362.39 1459.58 2365.44 1455 Q2368.52 1450.39 2374.33 1450.39 Z" fill="#000000" fill-rule="nonzero" fill-opacity="1" /><path clip-path="url(#clip650)" d="M1302.84 1528.8 Q1302.84 1530.61 1301.72 1531.64 Q1300.59 1532.64 1299.3 1532.64 Q1298.08 1532.64 1297.43 1531.93 Q1296.79 1531.22 1296.79 1530.32 Q1296.79 1529.09 1297.69 1528.03 Q1298.59 1526.97 1299.94 1526.74 Q1298.62 1525.91 1296.66 1525.91 Q1295.37 1525.91 1294.24 1526.58 Q1293.15 1527.26 1292.47 1528.13 Q1291.83 1529 1291.25 1530.25 Q1290.7 1531.48 1290.48 1532.22 Q1290.28 1532.93 1290.12 1533.7 L1287.87 1542.72 Q1286.77 1547 1286.77 1548.51 Q1286.77 1550.38 1287.67 1551.64 Q1288.58 1552.86 1290.38 1552.86 Q1291.09 1552.86 1291.89 1552.67 Q1292.7 1552.44 1293.73 1551.86 Q1294.79 1551.25 1295.73 1550.35 Q1296.69 1549.42 1297.63 1547.84 Q1298.56 1546.26 1299.17 1544.23 Q1299.37 1543.52 1300.01 1543.52 Q1300.81 1543.52 1300.81 1544.17 Q1300.81 1544.71 1300.36 1545.87 Q1299.94 1547 1299.01 1548.48 Q1298.11 1549.93 1296.92 1551.25 Q1295.73 1552.54 1293.95 1553.44 Q1292.18 1554.34 1290.25 1554.34 Q1287.48 1554.34 1285.65 1552.86 Q1283.81 1551.38 1283.13 1549.32 Q1282.97 1549.61 1282.75 1550 Q1282.52 1550.38 1281.85 1551.25 Q1281.2 1552.09 1280.46 1552.73 Q1279.72 1553.34 1278.56 1553.83 Q1277.43 1554.34 1276.21 1554.34 Q1274.66 1554.34 1273.28 1553.89 Q1271.93 1553.44 1270.96 1552.41 Q1269.99 1551.38 1269.99 1549.96 Q1269.99 1548.38 1271.06 1547.29 Q1272.15 1546.16 1273.63 1546.16 Q1274.57 1546.16 1275.31 1546.71 Q1276.08 1547.26 1276.08 1548.45 Q1276.08 1549.77 1275.18 1550.77 Q1274.28 1551.77 1272.99 1552.02 Q1274.31 1552.86 1276.27 1552.86 Q1278.4 1552.86 1280.07 1550.99 Q1281.75 1549.13 1282.55 1546 Q1284.55 1538.5 1285.32 1535.15 Q1286.1 1531.77 1286.1 1530.32 Q1286.1 1528.96 1285.74 1528.03 Q1285.39 1527.1 1284.78 1526.68 Q1284.2 1526.23 1283.65 1526.07 Q1283.13 1525.91 1282.55 1525.91 Q1281.59 1525.91 1280.49 1526.29 Q1279.43 1526.68 1278.14 1527.58 Q1276.89 1528.45 1275.69 1530.25 Q1274.5 1532.06 1273.7 1534.54 Q1273.54 1535.28 1272.83 1535.28 Q1272.05 1535.24 1272.05 1534.6 Q1272.05 1534.05 1272.47 1532.93 Q1272.92 1531.77 1273.83 1530.32 Q1274.76 1528.87 1275.95 1527.58 Q1277.18 1526.26 1278.95 1525.36 Q1280.75 1524.46 1282.68 1524.46 Q1283.55 1524.46 1284.39 1524.65 Q1285.26 1524.81 1286.29 1525.29 Q1287.35 1525.78 1288.29 1526.84 Q1289.22 1527.9 1289.8 1529.45 Q1290.19 1528.71 1290.7 1528 Q1291.25 1527.29 1292.09 1526.42 Q1292.96 1525.52 1294.15 1525 Q1295.37 1524.46 1296.72 1524.46 Q1298.04 1524.46 1299.33 1524.81 Q1300.62 1525.13 1301.72 1526.19 Q1302.84 1527.23 1302.84 1528.8 Z" fill="#000000" fill-rule="nonzero" fill-opacity="1" /><polyline clip-path="url(#clip652)" style="stroke:#000000; stroke-linecap:round; stroke-linejoin:round; stroke-width:2; stroke-opacity:0.1; fill:none" points="224.584,1265.89 2352.76,1265.89 "/>
<polyline clip-path="url(#clip652)" style="stroke:#000000; stroke-linecap:round; stroke-linejoin:round; stroke-width:2; stroke-opacity:0.1; fill:none" points="224.584,1019.61 2352.76,1019.61 "/>
<polyline clip-path="url(#clip652)" style="stroke:#000000; stroke-linecap:round; stroke-linejoin:round; stroke-width:2; stroke-opacity:0.1; fill:none" points="224.584,773.326 2352.76,773.326 "/>
<polyline clip-path="url(#clip652)" style="stroke:#000000; stroke-linecap:round; stroke-linejoin:round; stroke-width:2; stroke-opacity:0.1; fill:none" points="224.584,527.042 2352.76,527.042 "/>
<polyline clip-path="url(#clip652)" style="stroke:#000000; stroke-linecap:round; stroke-linejoin:round; stroke-width:2; stroke-opacity:0.1; fill:none" points="224.584,280.757 2352.76,280.757 "/>
<polyline clip-path="url(#clip650)" style="stroke:#000000; stroke-linecap:round; stroke-linejoin:round; stroke-width:4; stroke-opacity:1; fill:none" points="224.584,1423.18 224.584,123.472 "/>
<polyline clip-path="url(#clip650)" style="stroke:#000000; stroke-linecap:round; stroke-linejoin:round; stroke-width:4; stroke-opacity:1; fill:none" points="224.584,1265.89 243.482,1265.89 "/>
<polyline clip-path="url(#clip650)" style="stroke:#000000; stroke-linecap:round; stroke-linejoin:round; stroke-width:4; stroke-opacity:1; fill:none" points="224.584,1019.61 243.482,1019.61 "/>
<polyline clip-path="url(#clip650)" style="stroke:#000000; stroke-linecap:round; stroke-linejoin:round; stroke-width:4; stroke-opacity:1; fill:none" points="224.584,773.326 243.482,773.326 "/>
<polyline clip-path="url(#clip650)" style="stroke:#000000; stroke-linecap:round; stroke-linejoin:round; stroke-width:4; stroke-opacity:1; fill:none" points="224.584,527.042 243.482,527.042 "/>
<polyline clip-path="url(#clip650)" style="stroke:#000000; stroke-linecap:round; stroke-linejoin:round; stroke-width:4; stroke-opacity:1; fill:none" points="224.584,280.757 243.482,280.757 "/>
<path clip-path="url(#clip650)" d="M50.9921 1266.35 L80.6679 1266.35 L80.6679 1270.28 L50.9921 1270.28 L50.9921 1266.35 Z" fill="#000000" fill-rule="nonzero" fill-opacity="1" /><path clip-path="url(#clip650)" d="M100.76 1251.69 Q97.1493 1251.69 95.3206 1255.26 Q93.515 1258.8 93.515 1265.93 Q93.515 1273.04 95.3206 1276.6 Q97.1493 1280.14 100.76 1280.14 Q104.395 1280.14 106.2 1276.6 Q108.029 1273.04 108.029 1265.93 Q108.029 1258.8 106.2 1255.26 Q104.395 1251.69 100.76 1251.69 M100.76 1247.99 Q106.571 1247.99 109.626 1252.6 Q112.705 1257.18 112.705 1265.93 Q112.705 1274.66 109.626 1279.26 Q106.571 1283.85 100.76 1283.85 Q94.9502 1283.85 91.8715 1279.26 Q88.816 1274.66 88.816 1265.93 Q88.816 1257.18 91.8715 1252.6 Q94.9502 1247.99 100.76 1247.99 Z" fill="#000000" fill-rule="nonzero" fill-opacity="1" /><path clip-path="url(#clip650)" d="M120.922 1277.3 L125.807 1277.3 L125.807 1283.17 L120.922 1283.17 L120.922 1277.3 Z" fill="#000000" fill-rule="nonzero" fill-opacity="1" /><path clip-path="url(#clip650)" d="M145.992 1251.69 Q142.381 1251.69 140.552 1255.26 Q138.746 1258.8 138.746 1265.93 Q138.746 1273.04 140.552 1276.6 Q142.381 1280.14 145.992 1280.14 Q149.626 1280.14 151.431 1276.6 Q153.26 1273.04 153.26 1265.93 Q153.26 1258.8 151.431 1255.26 Q149.626 1251.69 145.992 1251.69 M145.992 1247.99 Q151.802 1247.99 154.857 1252.6 Q157.936 1257.18 157.936 1265.93 Q157.936 1274.66 154.857 1279.26 Q151.802 1283.85 145.992 1283.85 Q140.181 1283.85 137.103 1279.26 Q134.047 1274.66 134.047 1265.93 Q134.047 1257.18 137.103 1252.6 Q140.181 1247.99 145.992 1247.99 Z" fill="#000000" fill-rule="nonzero" fill-opacity="1" /><path clip-path="url(#clip650)" d="M179.001 1252.69 L167.195 1271.14 L179.001 1271.14 L179.001 1252.69 M177.774 1248.61 L183.653 1248.61 L183.653 1271.14 L188.584 1271.14 L188.584 1275.03 L183.653 1275.03 L183.653 1283.17 L179.001 1283.17 L179.001 1275.03 L163.399 1275.03 L163.399 1270.51 L177.774 1248.61 Z" fill="#000000" fill-rule="nonzero" fill-opacity="1" /><path clip-path="url(#clip650)" d="M53.0754 1020.06 L82.7512 1020.06 L82.7512 1024 L53.0754 1024 L53.0754 1020.06 Z" fill="#000000" fill-rule="nonzero" fill-opacity="1" /><path clip-path="url(#clip650)" d="M102.844 1005.41 Q99.2326 1005.41 97.4039 1008.97 Q95.5984 1012.52 95.5984 1019.65 Q95.5984 1026.75 97.4039 1030.32 Q99.2326 1033.86 102.844 1033.86 Q106.478 1033.86 108.283 1030.32 Q110.112 1026.75 110.112 1019.65 Q110.112 1012.52 108.283 1008.97 Q106.478 1005.41 102.844 1005.41 M102.844 1001.71 Q108.654 1001.71 111.709 1006.31 Q114.788 1010.9 114.788 1019.65 Q114.788 1028.37 111.709 1032.98 Q108.654 1037.56 102.844 1037.56 Q97.0335 1037.56 93.9549 1032.98 Q90.8993 1028.37 90.8993 1019.65 Q90.8993 1010.9 93.9549 1006.31 Q97.0335 1001.71 102.844 1001.71 Z" fill="#000000" fill-rule="nonzero" fill-opacity="1" /><path clip-path="url(#clip650)" d="M123.006 1031.01 L127.89 1031.01 L127.89 1036.89 L123.006 1036.89 L123.006 1031.01 Z" fill="#000000" fill-rule="nonzero" fill-opacity="1" /><path clip-path="url(#clip650)" d="M148.075 1005.41 Q144.464 1005.41 142.635 1008.97 Q140.83 1012.52 140.83 1019.65 Q140.83 1026.75 142.635 1030.32 Q144.464 1033.86 148.075 1033.86 Q151.709 1033.86 153.515 1030.32 Q155.343 1026.75 155.343 1019.65 Q155.343 1012.52 153.515 1008.97 Q151.709 1005.41 148.075 1005.41 M148.075 1001.71 Q153.885 1001.71 156.941 1006.31 Q160.019 1010.9 160.019 1019.65 Q160.019 1028.37 156.941 1032.98 Q153.885 1037.56 148.075 1037.56 Q142.265 1037.56 139.186 1032.98 Q136.131 1028.37 136.131 1019.65 Q136.131 1010.9 139.186 1006.31 Q142.265 1001.71 148.075 1001.71 Z" fill="#000000" fill-rule="nonzero" fill-opacity="1" /><path clip-path="url(#clip650)" d="M172.265 1032.96 L188.584 1032.96 L188.584 1036.89 L166.64 1036.89 L166.64 1032.96 Q169.302 1030.2 173.885 1025.57 Q178.491 1020.92 179.672 1019.58 Q181.917 1017.05 182.797 1015.32 Q183.7 1013.56 183.7 1011.87 Q183.7 1009.11 181.755 1007.38 Q179.834 1005.64 176.732 1005.64 Q174.533 1005.64 172.079 1006.4 Q169.649 1007.17 166.871 1008.72 L166.871 1004 Q169.695 1002.86 172.149 1002.28 Q174.603 1001.71 176.64 1001.71 Q182.01 1001.71 185.204 1004.39 Q188.399 1007.08 188.399 1011.57 Q188.399 1013.7 187.589 1015.62 Q186.802 1017.52 184.695 1020.11 Q184.116 1020.78 181.015 1024 Q177.913 1027.19 172.265 1032.96 Z" fill="#000000" fill-rule="nonzero" fill-opacity="1" /><path clip-path="url(#clip650)" d="M101.246 759.125 Q97.6354 759.125 95.8067 762.689 Q94.0012 766.231 94.0012 773.361 Q94.0012 780.467 95.8067 784.032 Q97.6354 787.574 101.246 787.574 Q104.881 787.574 106.686 784.032 Q108.515 780.467 108.515 773.361 Q108.515 766.231 106.686 762.689 Q104.881 759.125 101.246 759.125 M101.246 755.421 Q107.057 755.421 110.112 760.027 Q113.191 764.611 113.191 773.361 Q113.191 782.088 110.112 786.694 Q107.057 791.277 101.246 791.277 Q95.4363 791.277 92.3576 786.694 Q89.3021 782.088 89.3021 773.361 Q89.3021 764.611 92.3576 760.027 Q95.4363 755.421 101.246 755.421 Z" fill="#000000" fill-rule="nonzero" fill-opacity="1" /><path clip-path="url(#clip650)" d="M121.408 784.726 L126.293 784.726 L126.293 790.606 L121.408 790.606 L121.408 784.726 Z" fill="#000000" fill-rule="nonzero" fill-opacity="1" /><path clip-path="url(#clip650)" d="M146.478 759.125 Q142.867 759.125 141.038 762.689 Q139.232 766.231 139.232 773.361 Q139.232 780.467 141.038 784.032 Q142.867 787.574 146.478 787.574 Q150.112 787.574 151.918 784.032 Q153.746 780.467 153.746 773.361 Q153.746 766.231 151.918 762.689 Q150.112 759.125 146.478 759.125 M146.478 755.421 Q152.288 755.421 155.343 760.027 Q158.422 764.611 158.422 773.361 Q158.422 782.088 155.343 786.694 Q152.288 791.277 146.478 791.277 Q140.668 791.277 137.589 786.694 Q134.533 782.088 134.533 773.361 Q134.533 764.611 137.589 760.027 Q140.668 755.421 146.478 755.421 Z" fill="#000000" fill-rule="nonzero" fill-opacity="1" /><path clip-path="url(#clip650)" d="M176.64 759.125 Q173.029 759.125 171.2 762.689 Q169.394 766.231 169.394 773.361 Q169.394 780.467 171.2 784.032 Q173.029 787.574 176.64 787.574 Q180.274 787.574 182.079 784.032 Q183.908 780.467 183.908 773.361 Q183.908 766.231 182.079 762.689 Q180.274 759.125 176.64 759.125 M176.64 755.421 Q182.45 755.421 185.505 760.027 Q188.584 764.611 188.584 773.361 Q188.584 782.088 185.505 786.694 Q182.45 791.277 176.64 791.277 Q170.829 791.277 167.751 786.694 Q164.695 782.088 164.695 773.361 Q164.695 764.611 167.751 760.027 Q170.829 755.421 176.64 755.421 Z" fill="#000000" fill-rule="nonzero" fill-opacity="1" /><path clip-path="url(#clip650)" d="M102.844 512.84 Q99.2326 512.84 97.4039 516.405 Q95.5984 519.947 95.5984 527.076 Q95.5984 534.183 97.4039 537.748 Q99.2326 541.289 102.844 541.289 Q106.478 541.289 108.283 537.748 Q110.112 534.183 110.112 527.076 Q110.112 519.947 108.283 516.405 Q106.478 512.84 102.844 512.84 M102.844 509.137 Q108.654 509.137 111.709 513.743 Q114.788 518.326 114.788 527.076 Q114.788 535.803 111.709 540.41 Q108.654 544.993 102.844 544.993 Q97.0335 544.993 93.9549 540.41 Q90.8993 535.803 90.8993 527.076 Q90.8993 518.326 93.9549 513.743 Q97.0335 509.137 102.844 509.137 Z" fill="#000000" fill-rule="nonzero" fill-opacity="1" /><path clip-path="url(#clip650)" d="M123.006 538.442 L127.89 538.442 L127.89 544.322 L123.006 544.322 L123.006 538.442 Z" fill="#000000" fill-rule="nonzero" fill-opacity="1" /><path clip-path="url(#clip650)" d="M148.075 512.84 Q144.464 512.84 142.635 516.405 Q140.83 519.947 140.83 527.076 Q140.83 534.183 142.635 537.748 Q144.464 541.289 148.075 541.289 Q151.709 541.289 153.515 537.748 Q155.343 534.183 155.343 527.076 Q155.343 519.947 153.515 516.405 Q151.709 512.84 148.075 512.84 M148.075 509.137 Q153.885 509.137 156.941 513.743 Q160.019 518.326 160.019 527.076 Q160.019 535.803 156.941 540.41 Q153.885 544.993 148.075 544.993 Q142.265 544.993 139.186 540.41 Q136.131 535.803 136.131 527.076 Q136.131 518.326 139.186 513.743 Q142.265 509.137 148.075 509.137 Z" fill="#000000" fill-rule="nonzero" fill-opacity="1" /><path clip-path="url(#clip650)" d="M172.265 540.386 L188.584 540.386 L188.584 544.322 L166.64 544.322 L166.64 540.386 Q169.302 537.632 173.885 533.002 Q178.491 528.35 179.672 527.007 Q181.917 524.484 182.797 522.748 Q183.7 520.988 183.7 519.299 Q183.7 516.544 181.755 514.808 Q179.834 513.072 176.732 513.072 Q174.533 513.072 172.079 513.836 Q169.649 514.6 166.871 516.15 L166.871 511.428 Q169.695 510.294 172.149 509.715 Q174.603 509.137 176.64 509.137 Q182.01 509.137 185.204 511.822 Q188.399 514.507 188.399 518.998 Q188.399 521.127 187.589 523.049 Q186.802 524.947 184.695 527.539 Q184.116 528.211 181.015 531.428 Q177.913 534.623 172.265 540.386 Z" fill="#000000" fill-rule="nonzero" fill-opacity="1" /><path clip-path="url(#clip650)" d="M100.76 266.556 Q97.1493 266.556 95.3206 270.121 Q93.515 273.662 93.515 280.792 Q93.515 287.898 95.3206 291.463 Q97.1493 295.005 100.76 295.005 Q104.395 295.005 106.2 291.463 Q108.029 287.898 108.029 280.792 Q108.029 273.662 106.2 270.121 Q104.395 266.556 100.76 266.556 M100.76 262.852 Q106.571 262.852 109.626 267.459 Q112.705 272.042 112.705 280.792 Q112.705 289.519 109.626 294.125 Q106.571 298.709 100.76 298.709 Q94.9502 298.709 91.8715 294.125 Q88.816 289.519 88.816 280.792 Q88.816 272.042 91.8715 267.459 Q94.9502 262.852 100.76 262.852 Z" fill="#000000" fill-rule="nonzero" fill-opacity="1" /><path clip-path="url(#clip650)" d="M120.922 292.158 L125.807 292.158 L125.807 298.037 L120.922 298.037 L120.922 292.158 Z" fill="#000000" fill-rule="nonzero" fill-opacity="1" /><path clip-path="url(#clip650)" d="M145.992 266.556 Q142.381 266.556 140.552 270.121 Q138.746 273.662 138.746 280.792 Q138.746 287.898 140.552 291.463 Q142.381 295.005 145.992 295.005 Q149.626 295.005 151.431 291.463 Q153.26 287.898 153.26 280.792 Q153.26 273.662 151.431 270.121 Q149.626 266.556 145.992 266.556 M145.992 262.852 Q151.802 262.852 154.857 267.459 Q157.936 272.042 157.936 280.792 Q157.936 289.519 154.857 294.125 Q151.802 298.709 145.992 298.709 Q140.181 298.709 137.103 294.125 Q134.047 289.519 134.047 280.792 Q134.047 272.042 137.103 267.459 Q140.181 262.852 145.992 262.852 Z" fill="#000000" fill-rule="nonzero" fill-opacity="1" /><path clip-path="url(#clip650)" d="M179.001 267.551 L167.195 286 L179.001 286 L179.001 267.551 M177.774 263.477 L183.653 263.477 L183.653 286 L188.584 286 L188.584 289.889 L183.653 289.889 L183.653 298.037 L179.001 298.037 L179.001 289.889 L163.399 289.889 L163.399 285.375 L177.774 263.477 Z" fill="#000000" fill-rule="nonzero" fill-opacity="1" /><path clip-path="url(#clip650)" d="M1199.33 28.5427 L1199.33 35.5912 Q1196.17 33.9709 1192.76 33.1607 Q1189.36 32.3505 1185.72 32.3505 Q1180.17 32.3505 1177.37 34.0519 Q1174.62 35.7533 1174.62 39.156 Q1174.62 41.7486 1176.6 43.2475 Q1178.59 44.7058 1184.58 46.0426 L1187.13 46.6097 Q1195.07 48.3111 1198.4 51.4303 Q1201.76 54.509 1201.76 60.0587 Q1201.76 66.3781 1196.73 70.0644 Q1191.75 73.7508 1183 73.7508 Q1179.36 73.7508 1175.39 73.0216 Q1171.46 72.3329 1167.08 70.9151 L1167.08 63.2184 Q1171.21 65.3654 1175.22 66.4591 Q1179.23 67.5124 1183.16 67.5124 Q1188.43 67.5124 1191.27 65.73 Q1194.1 63.9071 1194.1 60.6258 Q1194.1 57.5877 1192.04 55.9673 Q1190.01 54.3469 1183.08 52.8481 L1180.49 52.2405 Q1173.56 50.7821 1170.48 47.7845 Q1167.41 44.7463 1167.41 39.4801 Q1167.41 33.0797 1171.94 29.5959 Q1176.48 26.1121 1184.83 26.1121 Q1188.96 26.1121 1192.6 26.7198 Q1196.25 27.3274 1199.33 28.5427 Z" fill="#000000" fill-rule="nonzero" fill-opacity="1" /><path clip-path="url(#clip650)" d="M1246.28 28.9478 L1246.28 35.9153 Q1243.12 34.1734 1239.92 33.3227 Q1236.76 32.4315 1233.52 32.4315 Q1226.27 32.4315 1222.26 37.0496 Q1218.24 41.6271 1218.24 49.9314 Q1218.24 58.2358 1222.26 62.8538 Q1226.27 67.4314 1233.52 67.4314 Q1236.76 67.4314 1239.92 66.5807 Q1243.12 65.6895 1246.28 63.9476 L1246.28 70.8341 Q1243.16 72.2924 1239.8 73.0216 Q1236.47 73.7508 1232.71 73.7508 Q1222.46 73.7508 1216.42 67.3098 Q1210.39 60.8689 1210.39 49.9314 Q1210.39 38.832 1216.46 32.472 Q1222.58 26.1121 1233.19 26.1121 Q1236.64 26.1121 1239.92 26.8413 Q1243.2 27.5299 1246.28 28.9478 Z" fill="#000000" fill-rule="nonzero" fill-opacity="1" /><path clip-path="url(#clip650)" d="M1279.86 49.7694 Q1270.83 49.7694 1267.34 51.8354 Q1263.86 53.9013 1263.86 58.8839 Q1263.86 62.8538 1266.45 65.2034 Q1269.08 67.5124 1273.58 67.5124 Q1279.78 67.5124 1283.51 63.1374 Q1287.27 58.7219 1287.27 51.4303 L1287.27 49.7694 L1279.86 49.7694 M1294.73 46.6907 L1294.73 72.576 L1287.27 72.576 L1287.27 65.6895 Q1284.72 69.8214 1280.91 71.8063 Q1277.1 73.7508 1271.6 73.7508 Q1264.63 73.7508 1260.5 69.8619 Q1256.4 65.9325 1256.4 59.3701 Q1256.4 51.7138 1261.51 47.825 Q1266.65 43.9361 1276.82 43.9361 L1287.27 43.9361 L1287.27 43.2069 Q1287.27 38.0623 1283.87 35.2672 Q1280.51 32.4315 1274.39 32.4315 Q1270.5 32.4315 1266.82 33.3632 Q1263.13 34.295 1259.73 36.1584 L1259.73 29.2718 Q1263.82 27.692 1267.67 26.9223 Q1271.51 26.1121 1275.16 26.1121 Q1285 26.1121 1289.86 31.2163 Q1294.73 36.3204 1294.73 46.6907 Z" fill="#000000" fill-rule="nonzero" fill-opacity="1" /><path clip-path="url(#clip650)" d="M1310.08 9.54393 L1317.53 9.54393 L1317.53 72.576 L1310.08 72.576 L1310.08 9.54393 Z" fill="#000000" fill-rule="nonzero" fill-opacity="1" /><path clip-path="url(#clip650)" d="M1353.75 49.7694 Q1344.71 49.7694 1341.23 51.8354 Q1337.75 53.9013 1337.75 58.8839 Q1337.75 62.8538 1340.34 65.2034 Q1342.97 67.5124 1347.47 67.5124 Q1353.67 67.5124 1357.39 63.1374 Q1361.16 58.7219 1361.16 51.4303 L1361.16 49.7694 L1353.75 49.7694 M1368.61 46.6907 L1368.61 72.576 L1361.16 72.576 L1361.16 65.6895 Q1358.61 69.8214 1354.8 71.8063 Q1350.99 73.7508 1345.48 73.7508 Q1338.52 73.7508 1334.38 69.8619 Q1330.29 65.9325 1330.29 59.3701 Q1330.29 51.7138 1335.4 47.825 Q1340.54 43.9361 1350.71 43.9361 L1361.16 43.9361 L1361.16 43.2069 Q1361.16 38.0623 1357.76 35.2672 Q1354.4 32.4315 1348.28 32.4315 Q1344.39 32.4315 1340.7 33.3632 Q1337.02 34.295 1333.61 36.1584 L1333.61 29.2718 Q1337.71 27.692 1341.55 26.9223 Q1345.4 26.1121 1349.05 26.1121 Q1358.89 26.1121 1363.75 31.2163 Q1368.61 36.3204 1368.61 46.6907 Z" fill="#000000" fill-rule="nonzero" fill-opacity="1" /><path clip-path="url(#clip650)" d="M1410.26 34.1734 Q1409 33.4443 1407.5 33.1202 Q1406.04 32.7556 1404.26 32.7556 Q1397.94 32.7556 1394.54 36.8875 Q1391.18 40.9789 1391.18 48.6757 L1391.18 72.576 L1383.68 72.576 L1383.68 27.2059 L1391.18 27.2059 L1391.18 34.2544 Q1393.53 30.1225 1397.29 28.1376 Q1401.06 26.1121 1406.45 26.1121 Q1407.22 26.1121 1408.15 26.2337 Q1409.08 26.3147 1410.22 26.5172 L1410.26 34.1734 Z" fill="#000000" fill-rule="nonzero" fill-opacity="1" /><polyline clip-path="url(#clip652)" style="stroke:#009af9; stroke-linecap:round; stroke-linejoin:round; stroke-width:4; stroke-opacity:1; fill:none" points="224.584,768.484 243.586,735.923 262.587,702.231 281.589,668.017 300.59,633.892 319.592,600.466 338.593,568.348 357.595,538.149 357.595,535.354 376.596,505.825 395.598,475.935 414.599,446.251 433.601,417.339 452.602,389.766 471.604,364.098 490.605,340.903 490.605,338.496 509.607,316.459 528.609,294.906 547.61,274.269 566.612,254.978 585.613,237.466 604.615,222.165 623.616,209.507 623.616,207.794 642.618,196.632 661.619,186.714 680.621,178.273 699.622,171.54 718.624,166.747 737.625,164.125 756.627,163.906 756.627,163.212 775.628,164.617 794.63,167.834 813.632,172.864 832.633,179.707 851.635,188.365 870.636,198.84 889.638,211.131 889.638,211.525 908.639,225.263 927.641,241.123 946.642,258.866 965.644,278.255 984.645,299.052 1003.65,321.018 1022.65,343.917 1022.65,345.32 1041.65,369.342 1060.65,395.447 1079.65,423.203 1098.65,452.176 1117.66,481.932 1136.66,512.038 1155.66,542.061 1155.66,544.337 1174.66,574.944 1193.66,607.296 1212.66,640.827 1231.67,674.974 1250.67,709.173 1269.67,742.861 1288.67,775.473 1288.67,778.183 1307.67,810.724 1326.67,844.412 1345.67,878.63 1364.68,912.763 1383.68,946.195 1402.68,978.31 1421.68,1008.49 1421.68,1011.26 1440.68,1040.82 1459.68,1070.72 1478.69,1100.41 1497.69,1129.32 1516.69,1156.88 1535.69,1182.54 1554.69,1205.73 1554.69,1208.19 1573.69,1230.21 1592.69,1251.75 1611.7,1272.38 1630.7,1291.67 1649.7,1309.18 1668.7,1324.5 1687.7,1337.18 1687.7,1338.85 1706.7,1350.01 1725.71,1359.93 1744.71,1368.38 1763.71,1375.12 1782.71,1379.91 1801.71,1382.52 1820.71,1382.72 1820.71,1383.43 1839.71,1382.04 1858.72,1378.82 1877.72,1373.79 1896.72,1366.94 1915.72,1358.28 1934.72,1347.81 1953.72,1335.53 1953.72,1335.16 1972.73,1321.39 1991.73,1305.52 2010.73,1287.78 2029.73,1268.39 2048.73,1247.6 2067.73,1225.64 2086.73,1202.75 2086.73,1201.3 2105.74,1177.3 2124.74,1151.21 2143.74,1123.46 2162.74,1094.48 2181.74,1064.72 2200.74,1034.6 2219.75,1004.56 2219.75,1002.33 2238.75,971.72 2257.75,939.361 2276.75,905.821 2295.75,871.669 2314.75,837.471 2333.75,803.797 2352.76,771.213 "/>
<polyline clip-path="url(#clip652)" style="stroke:#e26f46; stroke-linecap:round; stroke-linejoin:round; stroke-width:4; stroke-opacity:1; fill:none" stroke-dasharray="16, 10" points="224.584,773.326 235.278,753.972 245.973,734.637 256.667,715.34 267.361,696.102 278.056,676.94 288.75,657.874 299.444,638.924 310.139,620.107 320.833,601.443 331.527,582.951 342.222,564.648 352.916,546.553 363.61,528.685 374.305,511.06 384.999,493.697 395.693,476.612 406.388,459.823 417.082,443.347 427.776,427.2 438.471,411.397 449.165,395.956 459.859,380.89 470.554,366.216 481.248,351.948 491.942,338.099 502.637,324.685 513.331,311.717 524.025,299.21 534.72,287.176 545.414,275.626 556.108,264.572 566.803,254.025 577.497,243.996 588.191,234.495 598.886,225.53 609.58,217.112 620.274,209.248 630.969,201.947 641.663,195.215 652.357,189.059 663.052,183.486 673.746,178.501 684.44,174.108 695.135,170.313 705.829,167.119 716.523,164.53 727.218,162.547 737.912,161.173 748.606,160.409 759.301,160.256 769.995,160.715 780.689,161.784 791.384,163.462 802.078,165.749 812.772,168.641 823.467,172.136 834.161,176.23 844.855,180.919 855.55,186.199 866.244,192.065 876.938,198.509 887.633,205.527 898.327,213.11 909.021,221.252 919.716,229.945 930.41,239.179 941.104,248.945 951.799,259.234 962.493,270.036 973.187,281.339 983.882,293.133 994.576,305.405 1005.27,318.144 1015.96,331.337 1026.66,344.97 1037.35,359.03 1048.05,373.503 1058.74,388.375 1069.44,403.63 1080.13,419.254 1090.82,435.231 1101.52,451.545 1112.21,468.18 1122.91,485.118 1133.6,502.345 1144.3,519.841 1154.99,537.59 1165.69,555.574 1176.38,573.775 1187.07,592.175 1197.77,610.755 1208.46,629.498 1219.16,648.383 1229.85,667.394 1240.55,686.51 1251.24,705.712 1261.93,724.982 1272.63,744.301 1283.32,763.648 1294.02,783.004 1304.71,802.351 1315.41,821.67 1326.1,840.94 1336.79,860.142 1347.49,879.258 1358.18,898.269 1368.88,917.154 1379.57,935.897 1390.27,954.477 1400.96,972.877 1411.65,991.078 1422.35,1009.06 1433.04,1026.81 1443.74,1044.31 1454.43,1061.53 1465.13,1078.47 1475.82,1095.11 1486.52,1111.42 1497.21,1127.4 1507.9,1143.02 1518.6,1158.28 1529.29,1173.15 1539.99,1187.62 1550.68,1201.68 1561.38,1215.32 1572.07,1228.51 1582.76,1241.25 1593.46,1253.52 1604.15,1265.31 1614.85,1276.62 1625.54,1287.42 1636.24,1297.71 1646.93,1307.47 1657.62,1316.71 1668.32,1325.4 1679.01,1333.54 1689.71,1341.13 1700.4,1348.14 1711.1,1354.59 1721.79,1360.45 1732.48,1365.73 1743.18,1370.42 1753.87,1374.52 1764.57,1378.01 1775.26,1380.9 1785.96,1383.19 1796.65,1384.87 1807.35,1385.94 1818.04,1386.4 1828.73,1386.24 1839.43,1385.48 1850.12,1384.11 1860.82,1382.12 1871.51,1379.53 1882.21,1376.34 1892.9,1372.54 1903.59,1368.15 1914.29,1363.17 1924.98,1357.59 1935.68,1351.44 1946.37,1344.71 1957.07,1337.4 1967.76,1329.54 1978.45,1321.12 1989.15,1312.16 1999.84,1302.66 2010.54,1292.63 2021.23,1282.08 2031.93,1271.03 2042.62,1259.48 2053.31,1247.44 2064.01,1234.93 2074.7,1221.97 2085.4,1208.55 2096.09,1194.7 2106.79,1180.44 2117.48,1165.76 2128.17,1150.7 2138.87,1135.25 2149.56,1119.45 2160.26,1103.31 2170.95,1086.83 2181.65,1070.04 2192.34,1052.96 2203.04,1035.59 2213.73,1017.97 2224.42,1000.1 2235.12,982.004 2245.81,963.701 2256.51,945.209 2267.2,926.545 2277.9,907.728 2288.59,888.778 2299.28,869.712 2309.98,850.55 2320.67,831.312 2331.37,812.015 2342.06,792.68 2352.76,773.326 "/>
<path clip-path="url(#clip650)" d="M1745.02 322.316 L2281.82 322.316 L2281.82 166.796 L1745.02 166.796  Z" fill="#ffffff" fill-rule="evenodd" fill-opacity="1"/>
<polyline clip-path="url(#clip650)" style="stroke:#000000; stroke-linecap:round; stroke-linejoin:round; stroke-width:4; stroke-opacity:1; fill:none" points="1745.02,322.316 2281.82,322.316 2281.82,166.796 1745.02,166.796 1745.02,322.316 "/>
<polyline clip-path="url(#clip650)" style="stroke:#009af9; stroke-linecap:round; stroke-linejoin:round; stroke-width:4; stroke-opacity:1; fill:none" points="1768.67,218.636 1910.54,218.636 "/>
<path clip-path="url(#clip650)" d="M1955.9 220.268 L1955.9 235.916 L1951.64 235.916 L1951.64 220.407 Q1951.64 216.726 1950.21 214.897 Q1948.77 213.069 1945.9 213.069 Q1942.45 213.069 1940.46 215.268 Q1938.47 217.467 1938.47 221.263 L1938.47 235.916 L1934.19 235.916 L1934.19 209.99 L1938.47 209.99 L1938.47 214.018 Q1940 211.68 1942.06 210.522 Q1944.14 209.365 1946.85 209.365 Q1951.32 209.365 1953.61 212.143 Q1955.9 214.897 1955.9 220.268 Z" fill="#000000" fill-rule="nonzero" fill-opacity="1" /><path clip-path="url(#clip650)" d="M1963.96 225.684 L1963.96 209.99 L1968.22 209.99 L1968.22 225.522 Q1968.22 229.203 1969.65 231.055 Q1971.09 232.883 1973.96 232.883 Q1977.41 232.883 1979.4 230.684 Q1981.41 228.485 1981.41 224.689 L1981.41 209.99 L1985.67 209.99 L1985.67 235.916 L1981.41 235.916 L1981.41 231.934 Q1979.86 234.295 1977.8 235.453 Q1975.76 236.587 1973.06 236.587 Q1968.59 236.587 1966.27 233.809 Q1963.96 231.031 1963.96 225.684 M1974.68 209.365 L1974.68 209.365 Z" fill="#000000" fill-rule="nonzero" fill-opacity="1" /><path clip-path="url(#clip650)" d="M2014.63 214.967 Q2016.23 212.096 2018.45 210.731 Q2020.67 209.365 2023.68 209.365 Q2027.73 209.365 2029.93 212.212 Q2032.13 215.036 2032.13 220.268 L2032.13 235.916 L2027.85 235.916 L2027.85 220.407 Q2027.85 216.68 2026.53 214.874 Q2025.21 213.069 2022.5 213.069 Q2019.19 213.069 2017.27 215.268 Q2015.35 217.467 2015.35 221.263 L2015.35 235.916 L2011.07 235.916 L2011.07 220.407 Q2011.07 216.657 2009.75 214.874 Q2008.43 213.069 2005.67 213.069 Q2002.41 213.069 2000.49 215.291 Q1998.57 217.49 1998.57 221.263 L1998.57 235.916 L1994.28 235.916 L1994.28 209.99 L1998.57 209.99 L1998.57 214.018 Q2000.02 211.633 2002.06 210.499 Q2004.1 209.365 2006.9 209.365 Q2009.72 209.365 2011.69 210.8 Q2013.68 212.235 2014.63 214.967 Z" fill="#000000" fill-rule="nonzero" fill-opacity="1" /><path clip-path="url(#clip650)" d="M2062.8 221.888 L2062.8 223.971 L2043.22 223.971 Q2043.5 228.369 2045.86 230.684 Q2048.24 232.976 2052.48 232.976 Q2054.93 232.976 2057.22 232.374 Q2059.54 231.772 2061.81 230.569 L2061.81 234.596 Q2059.51 235.568 2057.11 236.078 Q2054.7 236.587 2052.22 236.587 Q2046.02 236.587 2042.38 232.976 Q2038.77 229.365 2038.77 223.207 Q2038.77 216.842 2042.2 213.115 Q2045.65 209.365 2051.48 209.365 Q2056.71 209.365 2059.75 212.745 Q2062.8 216.101 2062.8 221.888 M2058.54 220.638 Q2058.5 217.143 2056.57 215.059 Q2054.68 212.976 2051.53 212.976 Q2047.96 212.976 2045.81 214.99 Q2043.68 217.004 2043.36 220.661 L2058.54 220.638 Z" fill="#000000" fill-rule="nonzero" fill-opacity="1" /><path clip-path="url(#clip650)" d="M2084.81 213.971 Q2084.1 213.555 2083.24 213.37 Q2082.41 213.161 2081.39 213.161 Q2077.78 213.161 2075.83 215.522 Q2073.91 217.86 2073.91 222.258 L2073.91 235.916 L2069.63 235.916 L2069.63 209.99 L2073.91 209.99 L2073.91 214.018 Q2075.25 211.657 2077.41 210.522 Q2079.56 209.365 2082.64 209.365 Q2083.08 209.365 2083.61 209.434 Q2084.14 209.481 2084.79 209.596 L2084.81 213.971 Z" fill="#000000" fill-rule="nonzero" fill-opacity="1" /><path clip-path="url(#clip650)" d="M2089.28 209.99 L2093.54 209.99 L2093.54 235.916 L2089.28 235.916 L2089.28 209.99 M2089.28 199.897 L2093.54 199.897 L2093.54 205.291 L2089.28 205.291 L2089.28 199.897 Z" fill="#000000" fill-rule="nonzero" fill-opacity="1" /><path clip-path="url(#clip650)" d="M2121.11 210.985 L2121.11 214.967 Q2119.31 213.971 2117.48 213.485 Q2115.67 212.976 2113.82 212.976 Q2109.68 212.976 2107.38 215.615 Q2105.09 218.231 2105.09 222.976 Q2105.09 227.721 2107.38 230.36 Q2109.68 232.976 2113.82 232.976 Q2115.67 232.976 2117.48 232.49 Q2119.31 231.981 2121.11 230.985 L2121.11 234.92 Q2119.33 235.754 2117.41 236.17 Q2115.51 236.587 2113.36 236.587 Q2107.5 236.587 2104.05 232.906 Q2100.6 229.226 2100.6 222.976 Q2100.6 216.633 2104.07 212.999 Q2107.57 209.365 2113.63 209.365 Q2115.6 209.365 2117.48 209.782 Q2119.35 210.175 2121.11 210.985 Z" fill="#000000" fill-rule="nonzero" fill-opacity="1" /><path clip-path="url(#clip650)" d="M2140.3 222.883 Q2135.14 222.883 2133.15 224.064 Q2131.16 225.244 2131.16 228.092 Q2131.16 230.36 2132.64 231.703 Q2134.14 233.022 2136.71 233.022 Q2140.25 233.022 2142.38 230.522 Q2144.54 227.999 2144.54 223.832 L2144.54 222.883 L2140.3 222.883 M2148.8 221.124 L2148.8 235.916 L2144.54 235.916 L2144.54 231.981 Q2143.08 234.342 2140.9 235.476 Q2138.73 236.587 2135.58 236.587 Q2131.6 236.587 2129.24 234.365 Q2126.9 232.119 2126.9 228.369 Q2126.9 223.994 2129.81 221.772 Q2132.75 219.55 2138.56 219.55 L2144.54 219.55 L2144.54 219.133 Q2144.54 216.194 2142.59 214.596 Q2140.67 212.976 2137.18 212.976 Q2134.95 212.976 2132.85 213.508 Q2130.74 214.041 2128.8 215.106 L2128.8 211.17 Q2131.13 210.268 2133.33 209.828 Q2135.53 209.365 2137.62 209.365 Q2143.24 209.365 2146.02 212.282 Q2148.8 215.198 2148.8 221.124 Z" fill="#000000" fill-rule="nonzero" fill-opacity="1" /><path clip-path="url(#clip650)" d="M2157.57 199.897 L2161.83 199.897 L2161.83 235.916 L2157.57 235.916 L2157.57 199.897 Z" fill="#000000" fill-rule="nonzero" fill-opacity="1" /><path clip-path="url(#clip650)" d="M2202.34 210.754 L2202.34 214.782 Q2200.53 213.856 2198.59 213.393 Q2196.64 212.93 2194.56 212.93 Q2191.39 212.93 2189.79 213.902 Q2188.22 214.874 2188.22 216.819 Q2188.22 218.3 2189.35 219.157 Q2190.49 219.99 2193.91 220.754 L2195.37 221.078 Q2199.91 222.05 2201.81 223.832 Q2203.73 225.592 2203.73 228.763 Q2203.73 232.374 2200.86 234.481 Q2198.01 236.587 2193.01 236.587 Q2190.93 236.587 2188.66 236.17 Q2186.41 235.777 2183.91 234.967 L2183.91 230.569 Q2186.27 231.795 2188.56 232.42 Q2190.86 233.022 2193.1 233.022 Q2196.11 233.022 2197.73 232.004 Q2199.35 230.962 2199.35 229.087 Q2199.35 227.351 2198.17 226.425 Q2197.01 225.499 2193.06 224.643 L2191.57 224.295 Q2187.62 223.462 2185.86 221.749 Q2184.1 220.013 2184.1 217.004 Q2184.1 213.346 2186.69 211.356 Q2189.28 209.365 2194.05 209.365 Q2196.41 209.365 2198.49 209.712 Q2200.58 210.059 2202.34 210.754 Z" fill="#000000" fill-rule="nonzero" fill-opacity="1" /><path clip-path="url(#clip650)" d="M2220.55 212.976 Q2217.13 212.976 2215.14 215.661 Q2213.15 218.323 2213.15 222.976 Q2213.15 227.629 2215.12 230.314 Q2217.11 232.976 2220.55 232.976 Q2223.96 232.976 2225.95 230.291 Q2227.94 227.606 2227.94 222.976 Q2227.94 218.37 2225.95 215.684 Q2223.96 212.976 2220.55 212.976 M2220.55 209.365 Q2226.11 209.365 2229.28 212.976 Q2232.45 216.587 2232.45 222.976 Q2232.45 229.342 2229.28 232.976 Q2226.11 236.587 2220.55 236.587 Q2214.98 236.587 2211.8 232.976 Q2208.66 229.342 2208.66 222.976 Q2208.66 216.587 2211.8 212.976 Q2214.98 209.365 2220.55 209.365 Z" fill="#000000" fill-rule="nonzero" fill-opacity="1" /><path clip-path="url(#clip650)" d="M2239.51 199.897 L2243.77 199.897 L2243.77 235.916 L2239.51 235.916 L2239.51 199.897 Z" fill="#000000" fill-rule="nonzero" fill-opacity="1" /><path clip-path="url(#clip650)" d="M2253.29 230.036 L2258.17 230.036 L2258.17 235.916 L2253.29 235.916 L2253.29 230.036 Z" fill="#000000" fill-rule="nonzero" fill-opacity="1" /><polyline clip-path="url(#clip650)" style="stroke:#e26f46; stroke-linecap:round; stroke-linejoin:round; stroke-width:4; stroke-opacity:1; fill:none" stroke-dasharray="16, 10" points="1768.67,270.476 1910.54,270.476 "/>
<path clip-path="url(#clip650)" d="M1947.59 274.723 Q1942.43 274.723 1940.44 275.904 Q1938.45 277.084 1938.45 279.932 Q1938.45 282.2 1939.93 283.543 Q1941.44 284.862 1944.01 284.862 Q1947.55 284.862 1949.68 282.362 Q1951.83 279.839 1951.83 275.672 L1951.83 274.723 L1947.59 274.723 M1956.09 272.964 L1956.09 287.756 L1951.83 287.756 L1951.83 283.821 Q1950.37 286.182 1948.2 287.316 Q1946.02 288.427 1942.87 288.427 Q1938.89 288.427 1936.53 286.205 Q1934.19 283.959 1934.19 280.209 Q1934.19 275.834 1937.11 273.612 Q1940.05 271.39 1945.86 271.39 L1951.83 271.39 L1951.83 270.973 Q1951.83 268.034 1949.89 266.436 Q1947.96 264.816 1944.47 264.816 Q1942.25 264.816 1940.14 265.348 Q1938.03 265.881 1936.09 266.946 L1936.09 263.01 Q1938.43 262.108 1940.63 261.668 Q1942.82 261.205 1944.91 261.205 Q1950.53 261.205 1953.31 264.122 Q1956.09 267.038 1956.09 272.964 Z" fill="#000000" fill-rule="nonzero" fill-opacity="1" /><path clip-path="url(#clip650)" d="M1986.41 272.108 L1986.41 287.756 L1982.15 287.756 L1982.15 272.247 Q1982.15 268.566 1980.72 266.737 Q1979.28 264.909 1976.41 264.909 Q1972.96 264.909 1970.97 267.108 Q1968.98 269.307 1968.98 273.103 L1968.98 287.756 L1964.7 287.756 L1964.7 261.83 L1968.98 261.83 L1968.98 265.858 Q1970.51 263.52 1972.57 262.362 Q1974.65 261.205 1977.36 261.205 Q1981.83 261.205 1984.12 263.983 Q1986.41 266.737 1986.41 272.108 Z" fill="#000000" fill-rule="nonzero" fill-opacity="1" /><path clip-path="url(#clip650)" d="M2006.69 274.723 Q2001.53 274.723 1999.54 275.904 Q1997.55 277.084 1997.55 279.932 Q1997.55 282.2 1999.03 283.543 Q2000.53 284.862 2003.1 284.862 Q2006.64 284.862 2008.77 282.362 Q2010.93 279.839 2010.93 275.672 L2010.93 274.723 L2006.69 274.723 M2015.19 272.964 L2015.19 287.756 L2010.93 287.756 L2010.93 283.821 Q2009.47 286.182 2007.29 287.316 Q2005.12 288.427 2001.97 288.427 Q1997.99 288.427 1995.63 286.205 Q1993.29 283.959 1993.29 280.209 Q1993.29 275.834 1996.2 273.612 Q1999.14 271.39 2004.95 271.39 L2010.93 271.39 L2010.93 270.973 Q2010.93 268.034 2008.98 266.436 Q2007.06 264.816 2003.57 264.816 Q2001.34 264.816 1999.24 265.348 Q1997.13 265.881 1995.19 266.946 L1995.19 263.01 Q1997.52 262.108 1999.72 261.668 Q2001.92 261.205 2004.01 261.205 Q2009.63 261.205 2012.41 264.122 Q2015.19 267.038 2015.19 272.964 Z" fill="#000000" fill-rule="nonzero" fill-opacity="1" /><path clip-path="url(#clip650)" d="M2023.96 251.737 L2028.22 251.737 L2028.22 287.756 L2023.96 287.756 L2023.96 251.737 Z" fill="#000000" fill-rule="nonzero" fill-opacity="1" /><path clip-path="url(#clip650)" d="M2047.92 290.163 Q2046.11 294.793 2044.4 296.205 Q2042.69 297.617 2039.82 297.617 L2036.41 297.617 L2036.41 294.052 L2038.91 294.052 Q2040.67 294.052 2041.64 293.219 Q2042.62 292.385 2043.8 289.283 L2044.56 287.339 L2034.07 261.83 L2038.59 261.83 L2046.69 282.108 L2054.79 261.83 L2059.31 261.83 L2047.92 290.163 Z" fill="#000000" fill-rule="nonzero" fill-opacity="1" /><path clip-path="url(#clip650)" d="M2069.4 254.469 L2069.4 261.83 L2078.17 261.83 L2078.17 265.14 L2069.4 265.14 L2069.4 279.214 Q2069.4 282.385 2070.25 283.288 Q2071.13 284.191 2073.8 284.191 L2078.17 284.191 L2078.17 287.756 L2073.8 287.756 Q2068.87 287.756 2066.99 285.927 Q2065.12 284.075 2065.12 279.214 L2065.12 265.14 L2061.99 265.14 L2061.99 261.83 L2065.12 261.83 L2065.12 254.469 L2069.4 254.469 Z" fill="#000000" fill-rule="nonzero" fill-opacity="1" /><path clip-path="url(#clip650)" d="M2083.77 261.83 L2088.03 261.83 L2088.03 287.756 L2083.77 287.756 L2083.77 261.83 M2083.77 251.737 L2088.03 251.737 L2088.03 257.131 L2083.77 257.131 L2083.77 251.737 Z" fill="#000000" fill-rule="nonzero" fill-opacity="1" /><path clip-path="url(#clip650)" d="M2115.6 262.825 L2115.6 266.807 Q2113.8 265.811 2111.97 265.325 Q2110.16 264.816 2108.31 264.816 Q2104.17 264.816 2101.88 267.455 Q2099.58 270.071 2099.58 274.816 Q2099.58 279.561 2101.88 282.2 Q2104.17 284.816 2108.31 284.816 Q2110.16 284.816 2111.97 284.33 Q2113.8 283.821 2115.6 282.825 L2115.6 286.76 Q2113.82 287.594 2111.9 288.01 Q2110 288.427 2107.85 288.427 Q2101.99 288.427 2098.54 284.746 Q2095.09 281.066 2095.09 274.816 Q2095.09 268.473 2098.56 264.839 Q2102.06 261.205 2108.12 261.205 Q2110.09 261.205 2111.97 261.622 Q2113.84 262.015 2115.6 262.825 Z" fill="#000000" fill-rule="nonzero" fill-opacity="1" /><path clip-path="url(#clip650)" d="M2134.79 274.723 Q2129.63 274.723 2127.64 275.904 Q2125.65 277.084 2125.65 279.932 Q2125.65 282.2 2127.13 283.543 Q2128.63 284.862 2131.2 284.862 Q2134.75 284.862 2136.87 282.362 Q2139.03 279.839 2139.03 275.672 L2139.03 274.723 L2134.79 274.723 M2143.29 272.964 L2143.29 287.756 L2139.03 287.756 L2139.03 283.821 Q2137.57 286.182 2135.39 287.316 Q2133.22 288.427 2130.07 288.427 Q2126.09 288.427 2123.73 286.205 Q2121.39 283.959 2121.39 280.209 Q2121.39 275.834 2124.31 273.612 Q2127.25 271.39 2133.06 271.39 L2139.03 271.39 L2139.03 270.973 Q2139.03 268.034 2137.08 266.436 Q2135.16 264.816 2131.67 264.816 Q2129.44 264.816 2127.34 265.348 Q2125.23 265.881 2123.29 266.946 L2123.29 263.01 Q2125.62 262.108 2127.82 261.668 Q2130.02 261.205 2132.11 261.205 Q2137.73 261.205 2140.51 264.122 Q2143.29 267.038 2143.29 272.964 Z" fill="#000000" fill-rule="nonzero" fill-opacity="1" /><path clip-path="url(#clip650)" d="M2152.06 251.737 L2156.32 251.737 L2156.32 287.756 L2152.06 287.756 L2152.06 251.737 Z" fill="#000000" fill-rule="nonzero" fill-opacity="1" /><path clip-path="url(#clip650)" d="M2196.83 262.594 L2196.83 266.622 Q2195.02 265.696 2193.08 265.233 Q2191.13 264.77 2189.05 264.77 Q2185.88 264.77 2184.28 265.742 Q2182.71 266.714 2182.71 268.659 Q2182.71 270.14 2183.84 270.997 Q2184.98 271.83 2188.4 272.594 L2189.86 272.918 Q2194.4 273.89 2196.3 275.672 Q2198.22 277.432 2198.22 280.603 Q2198.22 284.214 2195.35 286.321 Q2192.5 288.427 2187.5 288.427 Q2185.42 288.427 2183.15 288.01 Q2180.9 287.617 2178.4 286.807 L2178.4 282.409 Q2180.76 283.635 2183.06 284.26 Q2185.35 284.862 2187.59 284.862 Q2190.6 284.862 2192.22 283.844 Q2193.84 282.802 2193.84 280.927 Q2193.84 279.191 2192.66 278.265 Q2191.5 277.339 2187.55 276.483 L2186.06 276.135 Q2182.11 275.302 2180.35 273.589 Q2178.59 271.853 2178.59 268.844 Q2178.59 265.186 2181.18 263.196 Q2183.77 261.205 2188.54 261.205 Q2190.9 261.205 2192.99 261.552 Q2195.07 261.899 2196.83 262.594 Z" fill="#000000" fill-rule="nonzero" fill-opacity="1" /><path clip-path="url(#clip650)" d="M2215.05 264.816 Q2211.62 264.816 2209.63 267.501 Q2207.64 270.163 2207.64 274.816 Q2207.64 279.469 2209.61 282.154 Q2211.6 284.816 2215.05 284.816 Q2218.45 284.816 2220.44 282.131 Q2222.43 279.446 2222.43 274.816 Q2222.43 270.21 2220.44 267.524 Q2218.45 264.816 2215.05 264.816 M2215.05 261.205 Q2220.6 261.205 2223.77 264.816 Q2226.94 268.427 2226.94 274.816 Q2226.94 281.182 2223.77 284.816 Q2220.6 288.427 2215.05 288.427 Q2209.47 288.427 2206.3 284.816 Q2203.15 281.182 2203.15 274.816 Q2203.15 268.427 2206.3 264.816 Q2209.47 261.205 2215.05 261.205 Z" fill="#000000" fill-rule="nonzero" fill-opacity="1" /><path clip-path="url(#clip650)" d="M2234 251.737 L2238.26 251.737 L2238.26 287.756 L2234 287.756 L2234 251.737 Z" fill="#000000" fill-rule="nonzero" fill-opacity="1" /><path clip-path="url(#clip650)" d="M2247.78 281.876 L2252.66 281.876 L2252.66 287.756 L2247.78 287.756 L2247.78 281.876 Z" fill="#000000" fill-rule="nonzero" fill-opacity="1" /></svg>
