<?xml version="1.0" encoding="utf-8"?>
<svg xmlns="http://www.w3.org/2000/svg" xmlns:xlink="http://www.w3.org/1999/xlink" width="600" height="400" viewBox="0 0 2400 1600">
<defs>
  <clipPath id="clip790">
    <rect x="0" y="0" width="2400" height="1600"/>
  </clipPath>
</defs>
<path clip-path="url(#clip790)" d="M0 1600 L2400 1600 L2400 0 L0 0  Z" fill="#ffffff" fill-rule="evenodd" fill-opacity="1"/>
<defs>
  <clipPath id="clip791">
    <rect x="480" y="0" width="1681" height="1600"/>
  </clipPath>
</defs>
<path clip-path="url(#clip790)" d="M224.26 1486.45 L2352.76 1486.45 L2352.76 47.2441 L224.26 47.2441  Z" fill="#ffffff" fill-rule="evenodd" fill-opacity="1"/>
<defs>
  <clipPath id="clip792">
    <rect x="224" y="47" width="2129" height="1440"/>
  </clipPath>
</defs>
<polyline clip-path="url(#clip792)" style="stroke:#000000; stroke-linecap:round; stroke-linejoin:round; stroke-width:2; stroke-opacity:0.1; fill:none" points="284.5,1486.45 284.5,47.2441 "/>
<polyline clip-path="url(#clip792)" style="stroke:#000000; stroke-linecap:round; stroke-linejoin:round; stroke-width:2; stroke-opacity:0.1; fill:none" points="786.504,1486.45 786.504,47.2441 "/>
<polyline clip-path="url(#clip792)" style="stroke:#000000; stroke-linecap:round; stroke-linejoin:round; stroke-width:2; stroke-opacity:0.1; fill:none" points="1288.51,1486.45 1288.51,47.2441 "/>
<polyline clip-path="url(#clip792)" style="stroke:#000000; stroke-linecap:round; stroke-linejoin:round; stroke-width:2; stroke-opacity:0.1; fill:none" points="1790.51,1486.45 1790.51,47.2441 "/>
<polyline clip-path="url(#clip792)" style="stroke:#000000; stroke-linecap:round; stroke-linejoin:round; stroke-width:2; stroke-opacity:0.1; fill:none" points="2292.52,1486.45 2292.52,47.2441 "/>
<polyline clip-path="url(#clip790)" style="stroke:#000000; stroke-linecap:round; stroke-linejoin:round; stroke-width:4; stroke-opacity:1; fill:none" points="224.26,1486.45 2352.76,1486.45 "/>
<polyline clip-path="url(#clip790)" style="stroke:#000000; stroke-linecap:round; stroke-linejoin:round; stroke-width:4; stroke-opacity:1; fill:none" points="284.5,1486.45 284.5,1467.55 "/>
<polyline clip-path="url(#clip790)" style="stroke:#000000; stroke-linecap:round; stroke-linejoin:round; stroke-width:4; stroke-opacity:1; fill:none" points="786.504,1486.45 786.504,1467.55 "/>
<polyline clip-path="url(#clip790)" style="stroke:#000000; stroke-linecap:round; stroke-linejoin:round; stroke-width:4; stroke-opacity:1; fill:none" points="1288.51,1486.45 1288.51,1467.55 "/>
<polyline clip-path="url(#clip790)" style="stroke:#000000; stroke-linecap:round; stroke-linejoin:round; stroke-width:4; stroke-opacity:1; fill:none" points="1790.51,1486.45 1790.51,1467.55 "/>
<polyline clip-path="url(#clip790)" style="stroke:#000000; stroke-linecap:round; stroke-linejoin:round; stroke-width:4; stroke-opacity:1; fill:none" points="2292.52,1486.45 2292.52,1467.55 "/>
<path clip-path="url(#clip790)" d="M246.804 1517.37 Q243.193 1517.37 241.364 1520.93 Q239.558 1524.47 239.558 1531.6 Q239.558 1538.71 241.364 1542.27 Q243.193 1545.82 246.804 1545.82 Q250.438 1545.82 252.244 1542.27 Q254.072 1538.71 254.072 1531.6 Q254.072 1524.47 252.244 1520.93 Q250.438 1517.37 246.804 1517.37 M246.804 1513.66 Q252.614 1513.66 255.669 1518.27 Q258.748 1522.85 258.748 1531.6 Q258.748 1540.33 255.669 1544.94 Q252.614 1549.52 246.804 1549.52 Q240.994 1549.52 237.915 1544.94 Q234.859 1540.33 234.859 1531.6 Q234.859 1522.85 237.915 1518.27 Q240.994 1513.66 246.804 1513.66 Z" fill="#000000" fill-rule="nonzero" fill-opacity="1" /><path clip-path="url(#clip790)" d="M266.966 1542.97 L271.85 1542.97 L271.85 1548.85 L266.966 1548.85 L266.966 1542.97 Z" fill="#000000" fill-rule="nonzero" fill-opacity="1" /><path clip-path="url(#clip790)" d="M282.174 1548.13 L282.174 1543.87 Q283.933 1544.7 285.739 1545.14 Q287.544 1545.58 289.28 1545.58 Q293.91 1545.58 296.341 1542.48 Q298.794 1539.36 299.141 1533.01 Q297.799 1535.01 295.739 1536.07 Q293.679 1537.13 291.179 1537.13 Q285.993 1537.13 282.961 1534.01 Q279.952 1530.86 279.952 1525.42 Q279.952 1520.1 283.1 1516.88 Q286.248 1513.66 291.479 1513.66 Q297.475 1513.66 300.623 1518.27 Q303.794 1522.85 303.794 1531.6 Q303.794 1539.77 299.905 1544.66 Q296.04 1549.52 289.489 1549.52 Q287.73 1549.52 285.924 1549.17 Q284.118 1548.82 282.174 1548.13 M291.479 1533.48 Q294.628 1533.48 296.456 1531.32 Q298.308 1529.17 298.308 1525.42 Q298.308 1521.7 296.456 1519.54 Q294.628 1517.37 291.479 1517.37 Q288.331 1517.37 286.48 1519.54 Q284.651 1521.7 284.651 1525.42 Q284.651 1529.17 286.48 1531.32 Q288.331 1533.48 291.479 1533.48 Z" fill="#000000" fill-rule="nonzero" fill-opacity="1" /><path clip-path="url(#clip790)" d="M322.197 1517.37 Q318.586 1517.37 316.757 1520.93 Q314.952 1524.47 314.952 1531.6 Q314.952 1538.71 316.757 1542.27 Q318.586 1545.82 322.197 1545.82 Q325.831 1545.82 327.637 1542.27 Q329.465 1538.71 329.465 1531.6 Q329.465 1524.47 327.637 1520.93 Q325.831 1517.37 322.197 1517.37 M322.197 1513.66 Q328.007 1513.66 331.063 1518.27 Q334.141 1522.85 334.141 1531.6 Q334.141 1540.33 331.063 1544.94 Q328.007 1549.52 322.197 1549.52 Q316.387 1549.52 313.308 1544.94 Q310.253 1540.33 310.253 1531.6 Q310.253 1522.85 313.308 1518.27 Q316.387 1513.66 322.197 1513.66 Z" fill="#000000" fill-rule="nonzero" fill-opacity="1" /><path clip-path="url(#clip790)" d="M749.305 1517.37 Q745.694 1517.37 743.865 1520.93 Q742.06 1524.47 742.06 1531.6 Q742.06 1538.71 743.865 1542.27 Q745.694 1545.82 749.305 1545.82 Q752.939 1545.82 754.745 1542.27 Q756.574 1538.71 756.574 1531.6 Q756.574 1524.47 754.745 1520.93 Q752.939 1517.37 749.305 1517.37 M749.305 1513.66 Q755.115 1513.66 758.171 1518.27 Q761.25 1522.85 761.25 1531.6 Q761.25 1540.33 758.171 1544.94 Q755.115 1549.52 749.305 1549.52 Q743.495 1549.52 740.416 1544.94 Q737.361 1540.33 737.361 1531.6 Q737.361 1522.85 740.416 1518.27 Q743.495 1513.66 749.305 1513.66 Z" fill="#000000" fill-rule="nonzero" fill-opacity="1" /><path clip-path="url(#clip790)" d="M769.467 1542.97 L774.351 1542.97 L774.351 1548.85 L769.467 1548.85 L769.467 1542.97 Z" fill="#000000" fill-rule="nonzero" fill-opacity="1" /><path clip-path="url(#clip790)" d="M784.675 1548.13 L784.675 1543.87 Q786.435 1544.7 788.24 1545.14 Q790.046 1545.58 791.782 1545.58 Q796.411 1545.58 798.842 1542.48 Q801.296 1539.36 801.643 1533.01 Q800.3 1535.01 798.24 1536.07 Q796.18 1537.13 793.68 1537.13 Q788.495 1537.13 785.462 1534.01 Q782.453 1530.86 782.453 1525.42 Q782.453 1520.1 785.601 1516.88 Q788.749 1513.66 793.981 1513.66 Q799.976 1513.66 803.124 1518.27 Q806.296 1522.85 806.296 1531.6 Q806.296 1539.77 802.407 1544.66 Q798.541 1549.52 791.99 1549.52 Q790.231 1549.52 788.425 1549.17 Q786.62 1548.82 784.675 1548.13 M793.981 1533.48 Q797.129 1533.48 798.958 1531.32 Q800.81 1529.17 800.81 1525.42 Q800.81 1521.7 798.958 1519.54 Q797.129 1517.37 793.981 1517.37 Q790.833 1517.37 788.981 1519.54 Q787.152 1521.7 787.152 1525.42 Q787.152 1529.17 788.981 1531.32 Q790.833 1533.48 793.981 1533.48 Z" fill="#000000" fill-rule="nonzero" fill-opacity="1" /><path clip-path="url(#clip790)" d="M814.745 1514.29 L833.101 1514.29 L833.101 1518.22 L819.027 1518.22 L819.027 1526.7 Q820.046 1526.35 821.064 1526.19 Q822.083 1526 823.101 1526 Q828.888 1526 832.268 1529.17 Q835.647 1532.34 835.647 1537.76 Q835.647 1543.34 832.175 1546.44 Q828.703 1549.52 822.384 1549.52 Q820.208 1549.52 817.939 1549.15 Q815.694 1548.78 813.286 1548.04 L813.286 1543.34 Q815.37 1544.47 817.592 1545.03 Q819.814 1545.58 822.291 1545.58 Q826.296 1545.58 828.634 1543.48 Q830.971 1541.37 830.971 1537.76 Q830.971 1534.15 828.634 1532.04 Q826.296 1529.94 822.291 1529.94 Q820.416 1529.94 818.541 1530.35 Q816.689 1530.77 814.745 1531.65 L814.745 1514.29 Z" fill="#000000" fill-rule="nonzero" fill-opacity="1" /><path clip-path="url(#clip790)" d="M1240.58 1544.91 L1248.22 1544.91 L1248.22 1518.55 L1239.91 1520.21 L1239.91 1515.95 L1248.17 1514.29 L1252.85 1514.29 L1252.85 1544.91 L1260.49 1544.91 L1260.49 1548.85 L1240.58 1548.85 L1240.58 1544.91 Z" fill="#000000" fill-rule="nonzero" fill-opacity="1" /><path clip-path="url(#clip790)" d="M1269.93 1542.97 L1274.82 1542.97 L1274.82 1548.85 L1269.93 1548.85 L1269.93 1542.97 Z" fill="#000000" fill-rule="nonzero" fill-opacity="1" /><path clip-path="url(#clip790)" d="M1295 1517.37 Q1291.39 1517.37 1289.56 1520.93 Q1287.76 1524.47 1287.76 1531.6 Q1287.76 1538.71 1289.56 1542.27 Q1291.39 1545.82 1295 1545.82 Q1298.64 1545.82 1300.44 1542.27 Q1302.27 1538.71 1302.27 1531.6 Q1302.27 1524.47 1300.44 1520.93 Q1298.64 1517.37 1295 1517.37 M1295 1513.66 Q1300.81 1513.66 1303.87 1518.27 Q1306.95 1522.85 1306.95 1531.6 Q1306.95 1540.33 1303.87 1544.94 Q1300.81 1549.52 1295 1549.52 Q1289.19 1549.52 1286.11 1544.94 Q1283.06 1540.33 1283.06 1531.6 Q1283.06 1522.85 1286.11 1518.27 Q1289.19 1513.66 1295 1513.66 Z" fill="#000000" fill-rule="nonzero" fill-opacity="1" /><path clip-path="url(#clip790)" d="M1325.16 1517.37 Q1321.55 1517.37 1319.72 1520.93 Q1317.92 1524.47 1317.92 1531.6 Q1317.92 1538.71 1319.72 1542.27 Q1321.55 1545.82 1325.16 1545.82 Q1328.8 1545.82 1330.6 1542.27 Q1332.43 1538.71 1332.43 1531.6 Q1332.43 1524.47 1330.6 1520.93 Q1328.8 1517.37 1325.16 1517.37 M1325.16 1513.66 Q1330.97 1513.66 1334.03 1518.27 Q1337.11 1522.85 1337.11 1531.6 Q1337.11 1540.33 1334.03 1544.94 Q1330.97 1549.52 1325.16 1549.52 Q1319.35 1549.52 1316.27 1544.94 Q1313.22 1540.33 1313.22 1531.6 Q1313.22 1522.85 1316.27 1518.27 Q1319.35 1513.66 1325.16 1513.66 Z" fill="#000000" fill-rule="nonzero" fill-opacity="1" /><path clip-path="url(#clip790)" d="M1743.08 1544.91 L1750.72 1544.91 L1750.72 1518.55 L1742.41 1520.21 L1742.41 1515.95 L1750.67 1514.29 L1755.35 1514.29 L1755.35 1544.91 L1762.99 1544.91 L1762.99 1548.85 L1743.08 1548.85 L1743.08 1544.91 Z" fill="#000000" fill-rule="nonzero" fill-opacity="1" /><path clip-path="url(#clip790)" d="M1772.43 1542.97 L1777.32 1542.97 L1777.32 1548.85 L1772.43 1548.85 L1772.43 1542.97 Z" fill="#000000" fill-rule="nonzero" fill-opacity="1" /><path clip-path="url(#clip790)" d="M1797.5 1517.37 Q1793.89 1517.37 1792.06 1520.93 Q1790.26 1524.47 1790.26 1531.6 Q1790.26 1538.71 1792.06 1542.27 Q1793.89 1545.82 1797.5 1545.82 Q1801.14 1545.82 1802.94 1542.27 Q1804.77 1538.71 1804.77 1531.6 Q1804.77 1524.47 1802.94 1520.93 Q1801.14 1517.37 1797.5 1517.37 M1797.5 1513.66 Q1803.31 1513.66 1806.37 1518.27 Q1809.45 1522.85 1809.45 1531.6 Q1809.45 1540.33 1806.37 1544.94 Q1803.31 1549.52 1797.5 1549.52 Q1791.69 1549.52 1788.61 1544.94 Q1785.56 1540.33 1785.56 1531.6 Q1785.56 1522.85 1788.61 1518.27 Q1791.69 1513.66 1797.5 1513.66 Z" fill="#000000" fill-rule="nonzero" fill-opacity="1" /><path clip-path="url(#clip790)" d="M1817.71 1514.29 L1836.07 1514.29 L1836.07 1518.22 L1821.99 1518.22 L1821.99 1526.7 Q1823.01 1526.35 1824.03 1526.19 Q1825.05 1526 1826.07 1526 Q1831.85 1526 1835.23 1529.17 Q1838.61 1532.34 1838.61 1537.76 Q1838.61 1543.34 1835.14 1546.44 Q1831.67 1549.52 1825.35 1549.52 Q1823.17 1549.52 1820.91 1549.15 Q1818.66 1548.78 1816.25 1548.04 L1816.25 1543.34 Q1818.34 1544.47 1820.56 1545.03 Q1822.78 1545.58 1825.26 1545.58 Q1829.26 1545.58 1831.6 1543.48 Q1833.94 1541.37 1833.94 1537.76 Q1833.94 1534.15 1831.6 1532.04 Q1829.26 1529.94 1825.26 1529.94 Q1823.38 1529.94 1821.51 1530.35 Q1819.66 1530.77 1817.71 1531.65 L1817.71 1514.29 Z" fill="#000000" fill-rule="nonzero" fill-opacity="1" /><path clip-path="url(#clip790)" d="M2244.59 1544.91 L2252.23 1544.91 L2252.23 1518.55 L2243.92 1520.21 L2243.92 1515.95 L2252.18 1514.29 L2256.86 1514.29 L2256.86 1544.91 L2264.49 1544.91 L2264.49 1548.85 L2244.59 1548.85 L2244.59 1544.91 Z" fill="#000000" fill-rule="nonzero" fill-opacity="1" /><path clip-path="url(#clip790)" d="M2273.94 1542.97 L2278.82 1542.97 L2278.82 1548.85 L2273.94 1548.85 L2273.94 1542.97 Z" fill="#000000" fill-rule="nonzero" fill-opacity="1" /><path clip-path="url(#clip790)" d="M2289.82 1544.91 L2297.46 1544.91 L2297.46 1518.55 L2289.15 1520.21 L2289.15 1515.95 L2297.41 1514.29 L2302.09 1514.29 L2302.09 1544.91 L2309.73 1544.91 L2309.73 1548.85 L2289.82 1548.85 L2289.82 1544.91 Z" fill="#000000" fill-rule="nonzero" fill-opacity="1" /><path clip-path="url(#clip790)" d="M2329.17 1517.37 Q2325.56 1517.37 2323.73 1520.93 Q2321.93 1524.47 2321.93 1531.6 Q2321.93 1538.71 2323.73 1542.27 Q2325.56 1545.82 2329.17 1545.82 Q2332.8 1545.82 2334.61 1542.27 Q2336.44 1538.71 2336.44 1531.6 Q2336.44 1524.47 2334.61 1520.93 Q2332.8 1517.37 2329.17 1517.37 M2329.17 1513.66 Q2334.98 1513.66 2338.04 1518.27 Q2341.11 1522.85 2341.11 1531.6 Q2341.11 1540.33 2338.04 1544.94 Q2334.98 1549.52 2329.17 1549.52 Q2323.36 1549.52 2320.28 1544.94 Q2317.23 1540.33 2317.23 1531.6 Q2317.23 1522.85 2320.28 1518.27 Q2323.36 1513.66 2329.17 1513.66 Z" fill="#000000" fill-rule="nonzero" fill-opacity="1" /><polyline clip-path="url(#clip792)" style="stroke:#000000; stroke-linecap:round; stroke-linejoin:round; stroke-width:2; stroke-opacity:0.1; fill:none" points="224.26,1351.76 2352.76,1351.76 "/>
<polyline clip-path="url(#clip792)" style="stroke:#000000; stroke-linecap:round; stroke-linejoin:round; stroke-width:2; stroke-opacity:0.1; fill:none" points="224.26,1089.02 2352.76,1089.02 "/>
<polyline clip-path="url(#clip792)" style="stroke:#000000; stroke-linecap:round; stroke-linejoin:round; stroke-width:2; stroke-opacity:0.1; fill:none" points="224.26,826.285 2352.76,826.285 "/>
<polyline clip-path="url(#clip792)" style="stroke:#000000; stroke-linecap:round; stroke-linejoin:round; stroke-width:2; stroke-opacity:0.1; fill:none" points="224.26,563.545 2352.76,563.545 "/>
<polyline clip-path="url(#clip792)" style="stroke:#000000; stroke-linecap:round; stroke-linejoin:round; stroke-width:2; stroke-opacity:0.1; fill:none" points="224.26,300.805 2352.76,300.805 "/>
<polyline clip-path="url(#clip790)" style="stroke:#000000; stroke-linecap:round; stroke-linejoin:round; stroke-width:4; stroke-opacity:1; fill:none" points="224.26,1486.45 224.26,47.2441 "/>
<polyline clip-path="url(#clip790)" style="stroke:#000000; stroke-linecap:round; stroke-linejoin:round; stroke-width:4; stroke-opacity:1; fill:none" points="224.26,1351.76 243.158,1351.76 "/>
<polyline clip-path="url(#clip790)" style="stroke:#000000; stroke-linecap:round; stroke-linejoin:round; stroke-width:4; stroke-opacity:1; fill:none" points="224.26,1089.02 243.158,1089.02 "/>
<polyline clip-path="url(#clip790)" style="stroke:#000000; stroke-linecap:round; stroke-linejoin:round; stroke-width:4; stroke-opacity:1; fill:none" points="224.26,826.285 243.158,826.285 "/>
<polyline clip-path="url(#clip790)" style="stroke:#000000; stroke-linecap:round; stroke-linejoin:round; stroke-width:4; stroke-opacity:1; fill:none" points="224.26,563.545 243.158,563.545 "/>
<polyline clip-path="url(#clip790)" style="stroke:#000000; stroke-linecap:round; stroke-linejoin:round; stroke-width:4; stroke-opacity:1; fill:none" points="224.26,300.805 243.158,300.805 "/>
<path clip-path="url(#clip790)" d="M50.9921 1352.22 L80.6679 1352.22 L80.6679 1356.15 L50.9921 1356.15 L50.9921 1352.22 Z" fill="#000000" fill-rule="nonzero" fill-opacity="1" /><path clip-path="url(#clip790)" d="M100.76 1337.56 Q97.1493 1337.56 95.3206 1341.13 Q93.515 1344.67 93.515 1351.8 Q93.515 1358.91 95.3206 1362.47 Q97.1493 1366.01 100.76 1366.01 Q104.395 1366.01 106.2 1362.47 Q108.029 1358.91 108.029 1351.8 Q108.029 1344.67 106.2 1341.13 Q104.395 1337.56 100.76 1337.56 M100.76 1333.86 Q106.571 1333.86 109.626 1338.47 Q112.705 1343.05 112.705 1351.8 Q112.705 1360.53 109.626 1365.13 Q106.571 1369.72 100.76 1369.72 Q94.9502 1369.72 91.8715 1365.13 Q88.816 1360.53 88.816 1351.8 Q88.816 1343.05 91.8715 1338.47 Q94.9502 1333.86 100.76 1333.86 Z" fill="#000000" fill-rule="nonzero" fill-opacity="1" /><path clip-path="url(#clip790)" d="M120.922 1363.17 L125.807 1363.17 L125.807 1369.04 L120.922 1369.04 L120.922 1363.17 Z" fill="#000000" fill-rule="nonzero" fill-opacity="1" /><path clip-path="url(#clip790)" d="M145.992 1337.56 Q142.381 1337.56 140.552 1341.13 Q138.746 1344.67 138.746 1351.8 Q138.746 1358.91 140.552 1362.47 Q142.381 1366.01 145.992 1366.01 Q149.626 1366.01 151.431 1362.47 Q153.26 1358.91 153.26 1351.8 Q153.26 1344.67 151.431 1341.13 Q149.626 1337.56 145.992 1337.56 M145.992 1333.86 Q151.802 1333.86 154.857 1338.47 Q157.936 1343.05 157.936 1351.8 Q157.936 1360.53 154.857 1365.13 Q151.802 1369.72 145.992 1369.72 Q140.181 1369.72 137.103 1365.13 Q134.047 1360.53 134.047 1351.8 Q134.047 1343.05 137.103 1338.47 Q140.181 1333.86 145.992 1333.86 Z" fill="#000000" fill-rule="nonzero" fill-opacity="1" /><path clip-path="url(#clip790)" d="M176.732 1349.9 Q173.584 1349.9 171.732 1352.05 Q169.904 1354.21 169.904 1357.96 Q169.904 1361.68 171.732 1363.86 Q173.584 1366.01 176.732 1366.01 Q179.88 1366.01 181.709 1363.86 Q183.561 1361.68 183.561 1357.96 Q183.561 1354.21 181.709 1352.05 Q179.88 1349.9 176.732 1349.9 M186.015 1335.25 L186.015 1339.51 Q184.255 1338.67 182.45 1338.23 Q180.667 1337.8 178.908 1337.8 Q174.279 1337.8 171.825 1340.92 Q169.394 1344.05 169.047 1350.36 Q170.413 1348.35 172.473 1347.29 Q174.533 1346.2 177.01 1346.2 Q182.218 1346.2 185.228 1349.37 Q188.26 1352.52 188.26 1357.96 Q188.26 1363.28 185.112 1366.5 Q181.964 1369.72 176.732 1369.72 Q170.737 1369.72 167.566 1365.13 Q164.394 1360.53 164.394 1351.8 Q164.394 1343.61 168.283 1338.74 Q172.172 1333.86 178.723 1333.86 Q180.482 1333.86 182.265 1334.21 Q184.07 1334.55 186.015 1335.25 Z" fill="#000000" fill-rule="nonzero" fill-opacity="1" /><path clip-path="url(#clip790)" d="M51.8023 1089.48 L81.4781 1089.48 L81.4781 1093.41 L51.8023 1093.41 L51.8023 1089.48 Z" fill="#000000" fill-rule="nonzero" fill-opacity="1" /><path clip-path="url(#clip790)" d="M101.571 1074.82 Q97.9595 1074.82 96.1308 1078.39 Q94.3252 1081.93 94.3252 1089.06 Q94.3252 1096.17 96.1308 1099.73 Q97.9595 1103.27 101.571 1103.27 Q105.205 1103.27 107.01 1099.73 Q108.839 1096.17 108.839 1089.06 Q108.839 1081.93 107.01 1078.39 Q105.205 1074.82 101.571 1074.82 M101.571 1071.12 Q107.381 1071.12 110.436 1075.73 Q113.515 1080.31 113.515 1089.06 Q113.515 1097.79 110.436 1102.39 Q107.381 1106.98 101.571 1106.98 Q95.7604 1106.98 92.6817 1102.39 Q89.6262 1097.79 89.6262 1089.06 Q89.6262 1080.31 92.6817 1075.73 Q95.7604 1071.12 101.571 1071.12 Z" fill="#000000" fill-rule="nonzero" fill-opacity="1" /><path clip-path="url(#clip790)" d="M121.732 1100.43 L126.617 1100.43 L126.617 1106.3 L121.732 1106.3 L121.732 1100.43 Z" fill="#000000" fill-rule="nonzero" fill-opacity="1" /><path clip-path="url(#clip790)" d="M146.802 1074.82 Q143.191 1074.82 141.362 1078.39 Q139.556 1081.93 139.556 1089.06 Q139.556 1096.17 141.362 1099.73 Q143.191 1103.27 146.802 1103.27 Q150.436 1103.27 152.242 1099.73 Q154.07 1096.17 154.07 1089.06 Q154.07 1081.93 152.242 1078.39 Q150.436 1074.82 146.802 1074.82 M146.802 1071.12 Q152.612 1071.12 155.667 1075.73 Q158.746 1080.31 158.746 1089.06 Q158.746 1097.79 155.667 1102.39 Q152.612 1106.98 146.802 1106.98 Q140.992 1106.98 137.913 1102.39 Q134.857 1097.79 134.857 1089.06 Q134.857 1080.31 137.913 1075.73 Q140.992 1071.12 146.802 1071.12 Z" fill="#000000" fill-rule="nonzero" fill-opacity="1" /><path clip-path="url(#clip790)" d="M181.13 1087.67 Q184.487 1088.39 186.362 1090.66 Q188.26 1092.93 188.26 1096.26 Q188.26 1101.37 184.741 1104.18 Q181.223 1106.98 174.741 1106.98 Q172.566 1106.98 170.251 1106.54 Q167.959 1106.12 165.505 1105.26 L165.505 1100.75 Q167.45 1101.88 169.765 1102.46 Q172.079 1103.04 174.603 1103.04 Q179.001 1103.04 181.292 1101.3 Q183.607 1099.57 183.607 1096.26 Q183.607 1093.2 181.454 1091.49 Q179.325 1089.75 175.505 1089.75 L171.478 1089.75 L171.478 1085.91 L175.691 1085.91 Q179.14 1085.91 180.968 1084.55 Q182.797 1083.16 182.797 1080.56 Q182.797 1077.9 180.899 1076.49 Q179.024 1075.06 175.505 1075.06 Q173.584 1075.06 171.385 1075.47 Q169.186 1075.89 166.547 1076.77 L166.547 1072.6 Q169.209 1071.86 171.524 1071.49 Q173.862 1071.12 175.922 1071.12 Q181.246 1071.12 184.348 1073.55 Q187.45 1075.96 187.45 1080.08 Q187.45 1082.95 185.806 1084.94 Q184.163 1086.91 181.13 1087.67 Z" fill="#000000" fill-rule="nonzero" fill-opacity="1" /><path clip-path="url(#clip790)" d="M100.922 812.084 Q97.3113 812.084 95.4826 815.648 Q93.6771 819.19 93.6771 826.32 Q93.6771 833.426 95.4826 836.991 Q97.3113 840.533 100.922 840.533 Q104.557 840.533 106.362 836.991 Q108.191 833.426 108.191 826.32 Q108.191 819.19 106.362 815.648 Q104.557 812.084 100.922 812.084 M100.922 808.38 Q106.733 808.38 109.788 812.986 Q112.867 817.57 112.867 826.32 Q112.867 835.046 109.788 839.653 Q106.733 844.236 100.922 844.236 Q95.1123 844.236 92.0336 839.653 Q88.978 835.046 88.978 826.32 Q88.978 817.57 92.0336 812.986 Q95.1123 808.38 100.922 808.38 Z" fill="#000000" fill-rule="nonzero" fill-opacity="1" /><path clip-path="url(#clip790)" d="M121.084 837.685 L125.969 837.685 L125.969 843.565 L121.084 843.565 L121.084 837.685 Z" fill="#000000" fill-rule="nonzero" fill-opacity="1" /><path clip-path="url(#clip790)" d="M146.154 812.084 Q142.543 812.084 140.714 815.648 Q138.908 819.19 138.908 826.32 Q138.908 833.426 140.714 836.991 Q142.543 840.533 146.154 840.533 Q149.788 840.533 151.593 836.991 Q153.422 833.426 153.422 826.32 Q153.422 819.19 151.593 815.648 Q149.788 812.084 146.154 812.084 M146.154 808.38 Q151.964 808.38 155.019 812.986 Q158.098 817.57 158.098 826.32 Q158.098 835.046 155.019 839.653 Q151.964 844.236 146.154 844.236 Q140.343 844.236 137.265 839.653 Q134.209 835.046 134.209 826.32 Q134.209 817.57 137.265 812.986 Q140.343 808.38 146.154 808.38 Z" fill="#000000" fill-rule="nonzero" fill-opacity="1" /><path clip-path="url(#clip790)" d="M176.316 812.084 Q172.704 812.084 170.876 815.648 Q169.07 819.19 169.07 826.32 Q169.07 833.426 170.876 836.991 Q172.704 840.533 176.316 840.533 Q179.95 840.533 181.755 836.991 Q183.584 833.426 183.584 826.32 Q183.584 819.19 181.755 815.648 Q179.95 812.084 176.316 812.084 M176.316 808.38 Q182.126 808.38 185.181 812.986 Q188.26 817.57 188.26 826.32 Q188.26 835.046 185.181 839.653 Q182.126 844.236 176.316 844.236 Q170.505 844.236 167.427 839.653 Q164.371 835.046 164.371 826.32 Q164.371 817.57 167.427 812.986 Q170.505 808.38 176.316 808.38 Z" fill="#000000" fill-rule="nonzero" fill-opacity="1" /><path clip-path="url(#clip790)" d="M101.571 549.344 Q97.9595 549.344 96.1308 552.908 Q94.3252 556.45 94.3252 563.58 Q94.3252 570.686 96.1308 574.251 Q97.9595 577.793 101.571 577.793 Q105.205 577.793 107.01 574.251 Q108.839 570.686 108.839 563.58 Q108.839 556.45 107.01 552.908 Q105.205 549.344 101.571 549.344 M101.571 545.64 Q107.381 545.64 110.436 550.246 Q113.515 554.83 113.515 563.58 Q113.515 572.307 110.436 576.913 Q107.381 581.496 101.571 581.496 Q95.7604 581.496 92.6817 576.913 Q89.6262 572.307 89.6262 563.58 Q89.6262 554.83 92.6817 550.246 Q95.7604 545.64 101.571 545.64 Z" fill="#000000" fill-rule="nonzero" fill-opacity="1" /><path clip-path="url(#clip790)" d="M121.732 574.945 L126.617 574.945 L126.617 580.825 L121.732 580.825 L121.732 574.945 Z" fill="#000000" fill-rule="nonzero" fill-opacity="1" /><path clip-path="url(#clip790)" d="M146.802 549.344 Q143.191 549.344 141.362 552.908 Q139.556 556.45 139.556 563.58 Q139.556 570.686 141.362 574.251 Q143.191 577.793 146.802 577.793 Q150.436 577.793 152.242 574.251 Q154.07 570.686 154.07 563.58 Q154.07 556.45 152.242 552.908 Q150.436 549.344 146.802 549.344 M146.802 545.64 Q152.612 545.64 155.667 550.246 Q158.746 554.83 158.746 563.58 Q158.746 572.307 155.667 576.913 Q152.612 581.496 146.802 581.496 Q140.992 581.496 137.913 576.913 Q134.857 572.307 134.857 563.58 Q134.857 554.83 137.913 550.246 Q140.992 545.64 146.802 545.64 Z" fill="#000000" fill-rule="nonzero" fill-opacity="1" /><path clip-path="url(#clip790)" d="M181.13 562.191 Q184.487 562.908 186.362 565.177 Q188.26 567.445 188.26 570.779 Q188.26 575.894 184.741 578.695 Q181.223 581.496 174.741 581.496 Q172.566 581.496 170.251 581.056 Q167.959 580.64 165.505 579.783 L165.505 575.269 Q167.45 576.404 169.765 576.982 Q172.079 577.561 174.603 577.561 Q179.001 577.561 181.292 575.825 Q183.607 574.089 183.607 570.779 Q183.607 567.723 181.454 566.01 Q179.325 564.274 175.505 564.274 L171.478 564.274 L171.478 560.432 L175.691 560.432 Q179.14 560.432 180.968 559.066 Q182.797 557.677 182.797 555.084 Q182.797 552.422 180.899 551.01 Q179.024 549.575 175.505 549.575 Q173.584 549.575 171.385 549.992 Q169.186 550.408 166.547 551.288 L166.547 547.121 Q169.209 546.381 171.524 546.01 Q173.862 545.64 175.922 545.64 Q181.246 545.64 184.348 548.071 Q187.45 550.478 187.45 554.598 Q187.45 557.469 185.806 559.459 Q184.163 561.427 181.13 562.191 Z" fill="#000000" fill-rule="nonzero" fill-opacity="1" /><path clip-path="url(#clip790)" d="M100.76 286.604 Q97.1493 286.604 95.3206 290.169 Q93.515 293.71 93.515 300.84 Q93.515 307.946 95.3206 311.511 Q97.1493 315.053 100.76 315.053 Q104.395 315.053 106.2 311.511 Q108.029 307.946 108.029 300.84 Q108.029 293.71 106.2 290.169 Q104.395 286.604 100.76 286.604 M100.76 282.9 Q106.571 282.9 109.626 287.506 Q112.705 292.09 112.705 300.84 Q112.705 309.567 109.626 314.173 Q106.571 318.756 100.76 318.756 Q94.9502 318.756 91.8715 314.173 Q88.816 309.567 88.816 300.84 Q88.816 292.09 91.8715 287.506 Q94.9502 282.9 100.76 282.9 Z" fill="#000000" fill-rule="nonzero" fill-opacity="1" /><path clip-path="url(#clip790)" d="M120.922 312.205 L125.807 312.205 L125.807 318.085 L120.922 318.085 L120.922 312.205 Z" fill="#000000" fill-rule="nonzero" fill-opacity="1" /><path clip-path="url(#clip790)" d="M145.992 286.604 Q142.381 286.604 140.552 290.169 Q138.746 293.71 138.746 300.84 Q138.746 307.946 140.552 311.511 Q142.381 315.053 145.992 315.053 Q149.626 315.053 151.431 311.511 Q153.26 307.946 153.26 300.84 Q153.26 293.71 151.431 290.169 Q149.626 286.604 145.992 286.604 M145.992 282.9 Q151.802 282.9 154.857 287.506 Q157.936 292.09 157.936 300.84 Q157.936 309.567 154.857 314.173 Q151.802 318.756 145.992 318.756 Q140.181 318.756 137.103 314.173 Q134.047 309.567 134.047 300.84 Q134.047 292.09 137.103 287.506 Q140.181 282.9 145.992 282.9 Z" fill="#000000" fill-rule="nonzero" fill-opacity="1" /><path clip-path="url(#clip790)" d="M176.732 298.942 Q173.584 298.942 171.732 301.094 Q169.904 303.247 169.904 306.997 Q169.904 310.724 171.732 312.9 Q173.584 315.053 176.732 315.053 Q179.88 315.053 181.709 312.9 Q183.561 310.724 183.561 306.997 Q183.561 303.247 181.709 301.094 Q179.88 298.942 176.732 298.942 M186.015 284.289 L186.015 288.548 Q184.255 287.715 182.45 287.275 Q180.667 286.835 178.908 286.835 Q174.279 286.835 171.825 289.96 Q169.394 293.085 169.047 299.405 Q170.413 297.391 172.473 296.326 Q174.533 295.238 177.01 295.238 Q182.218 295.238 185.228 298.409 Q188.26 301.557 188.26 306.997 Q188.26 312.321 185.112 315.539 Q181.964 318.756 176.732 318.756 Q170.737 318.756 167.566 314.173 Q164.394 309.567 164.394 300.84 Q164.394 292.645 168.283 287.784 Q172.172 282.9 178.723 282.9 Q180.482 282.9 182.265 283.247 Q184.07 283.594 186.015 284.289 Z" fill="#000000" fill-rule="nonzero" fill-opacity="1" /><polyline clip-path="url(#clip792)" style="stroke:#009af9; stroke-linecap:round; stroke-linejoin:round; stroke-width:4; stroke-opacity:1; fill:none" points="284.5,87.9763 304.581,99.1766 324.661,110.609 344.741,122.327 364.821,134.279 384.901,146.446 404.981,158.819 425.061,171.399 445.142,184.184 465.222,197.167 485.302,210.341 505.382,223.698 525.462,237.271 545.542,251.016 565.622,264.921 585.703,278.991 605.783,293.227 625.863,307.621 645.943,322.154 666.023,336.821 686.103,351.617 706.184,366.539 726.264,381.577 746.344,396.755 766.424,412.044 786.504,427.429 806.584,442.897 826.664,458.454 846.745,474.094 866.825,489.811 886.905,505.599 906.985,521.45 927.065,537.357 947.145,553.315 967.225,569.315 987.306,585.352 1007.39,601.42 1027.47,617.512 1047.55,633.621 1067.63,649.743 1087.71,665.871 1107.79,681.998 1127.87,698.12 1147.95,714.232 1168.03,730.326 1188.11,746.396 1208.19,762.434 1228.27,778.436 1248.35,794.395 1268.43,810.305 1288.51,826.16 1308.59,841.955 1328.67,857.685 1348.75,873.343 1368.83,888.925 1388.91,904.425 1408.99,919.838 1429.07,935.158 1449.15,950.38 1469.23,965.499 1489.31,980.51 1509.39,995.408 1529.47,1010.19 1549.55,1024.85 1569.63,1039.37 1589.71,1053.77 1609.79,1068.03 1629.87,1082.15 1649.95,1096.13 1670.03,1109.96 1690.11,1123.63 1710.19,1137.14 1730.27,1150.49 1750.35,1163.68 1770.43,1176.7 1790.51,1189.54 1810.59,1202.21 1830.67,1214.69 1850.75,1226.99 1870.83,1239.11 1890.91,1251.03 1910.99,1262.77 1931.07,1274.3 1951.15,1285.64 1971.23,1296.77 1991.31,1307.71 2011.39,1318.43 2031.47,1328.94 2051.55,1339.25 2071.63,1349.34 2091.71,1359.21 2111.79,1368.87 2131.87,1378.3 2151.95,1387.52 2172.03,1396.51 2192.11,1405.28 2212.19,1413.82 2232.28,1422.14 2252.36,1430.23 2272.44,1438.09 2292.52,1445.72 "/>
<path clip-path="url(#clip790)" d="M1831.71 198.898 L2281.81 198.898 L2281.81 95.2176 L1831.71 95.2176  Z" fill="#ffffff" fill-rule="evenodd" fill-opacity="1"/>
<polyline clip-path="url(#clip790)" style="stroke:#000000; stroke-linecap:round; stroke-linejoin:round; stroke-width:4; stroke-opacity:1; fill:none" points="1831.71,198.898 2281.81,198.898 2281.81,95.2176 1831.71,95.2176 1831.71,198.898 "/>
<polyline clip-path="url(#clip790)" style="stroke:#009af9; stroke-linecap:round; stroke-linejoin:round; stroke-width:4; stroke-opacity:1; fill:none" points="1855.36,147.058 1997.26,147.058 "/>
<path clip-path="url(#clip790)" d="M2025.59 133.62 L2025.59 160.495 L2031.24 160.495 Q2038.39 160.495 2041.7 157.254 Q2045.03 154.014 2045.03 147.023 Q2045.03 140.078 2041.7 136.861 Q2038.39 133.62 2031.24 133.62 L2025.59 133.62 M2020.91 129.778 L2030.52 129.778 Q2040.56 129.778 2045.26 133.967 Q2049.96 138.134 2049.96 147.023 Q2049.96 155.958 2045.24 160.148 Q2040.52 164.338 2030.52 164.338 L2020.91 164.338 L2020.91 129.778 Z" fill="#000000" fill-rule="nonzero" fill-opacity="1" /><path clip-path="url(#clip790)" d="M2079.41 150.31 L2079.41 152.393 L2059.82 152.393 Q2060.1 156.791 2062.46 159.106 Q2064.85 161.398 2069.08 161.398 Q2071.54 161.398 2073.83 160.796 Q2076.14 160.194 2078.41 158.99 L2078.41 163.018 Q2076.12 163.99 2073.71 164.5 Q2071.31 165.009 2068.83 165.009 Q2062.62 165.009 2058.99 161.398 Q2055.38 157.787 2055.38 151.629 Q2055.38 145.264 2058.81 141.537 Q2062.25 137.787 2068.09 137.787 Q2073.32 137.787 2076.35 141.166 Q2079.41 144.523 2079.41 150.31 M2075.15 149.06 Q2075.1 145.565 2073.18 143.481 Q2071.28 141.398 2068.13 141.398 Q2064.57 141.398 2062.42 143.412 Q2060.29 145.426 2059.96 149.083 L2075.15 149.06 Z" fill="#000000" fill-rule="nonzero" fill-opacity="1" /><path clip-path="url(#clip790)" d="M2101.42 142.393 Q2100.7 141.977 2099.85 141.791 Q2099.01 141.583 2097.99 141.583 Q2094.38 141.583 2092.44 143.944 Q2090.52 146.282 2090.52 150.68 L2090.52 164.338 L2086.24 164.338 L2086.24 138.412 L2090.52 138.412 L2090.52 142.44 Q2091.86 140.078 2094.01 138.944 Q2096.17 137.787 2099.24 137.787 Q2099.68 137.787 2100.22 137.856 Q2100.75 137.903 2101.4 138.018 L2101.42 142.393 Z" fill="#000000" fill-rule="nonzero" fill-opacity="1" /><path clip-path="url(#clip790)" d="M2105.89 138.412 L2110.15 138.412 L2110.15 164.338 L2105.89 164.338 L2105.89 138.412 M2105.89 128.319 L2110.15 128.319 L2110.15 133.713 L2105.89 133.713 L2105.89 128.319 Z" fill="#000000" fill-rule="nonzero" fill-opacity="1" /><path clip-path="url(#clip790)" d="M2116 138.412 L2120.52 138.412 L2128.62 160.171 L2136.72 138.412 L2141.24 138.412 L2131.51 164.338 L2125.73 164.338 L2116 138.412 Z" fill="#000000" fill-rule="nonzero" fill-opacity="1" /><path clip-path="url(#clip790)" d="M2158.9 151.305 Q2153.74 151.305 2151.74 152.486 Q2149.75 153.666 2149.75 156.514 Q2149.75 158.782 2151.24 160.125 Q2152.74 161.444 2155.31 161.444 Q2158.85 161.444 2160.98 158.944 Q2163.13 156.421 2163.13 152.254 L2163.13 151.305 L2158.9 151.305 M2167.39 149.546 L2167.39 164.338 L2163.13 164.338 L2163.13 160.402 Q2161.68 162.763 2159.5 163.898 Q2157.32 165.009 2154.18 165.009 Q2150.19 165.009 2147.83 162.787 Q2145.49 160.541 2145.49 156.791 Q2145.49 152.416 2148.41 150.194 Q2151.35 147.972 2157.16 147.972 L2163.13 147.972 L2163.13 147.555 Q2163.13 144.615 2161.19 143.018 Q2159.27 141.398 2155.77 141.398 Q2153.55 141.398 2151.44 141.93 Q2149.34 142.463 2147.39 143.527 L2147.39 139.592 Q2149.73 138.69 2151.93 138.25 Q2154.13 137.787 2156.21 137.787 Q2161.84 137.787 2164.61 140.703 Q2167.39 143.62 2167.39 149.546 Z" fill="#000000" fill-rule="nonzero" fill-opacity="1" /><path clip-path="url(#clip790)" d="M2180.38 131.051 L2180.38 138.412 L2189.15 138.412 L2189.15 141.722 L2180.38 141.722 L2180.38 155.796 Q2180.38 158.967 2181.24 159.87 Q2182.11 160.773 2184.78 160.773 L2189.15 160.773 L2189.15 164.338 L2184.78 164.338 Q2179.85 164.338 2177.97 162.509 Q2176.1 160.657 2176.1 155.796 L2176.1 141.722 L2172.97 141.722 L2172.97 138.412 L2176.1 138.412 L2176.1 131.051 L2180.38 131.051 Z" fill="#000000" fill-rule="nonzero" fill-opacity="1" /><path clip-path="url(#clip790)" d="M2194.75 138.412 L2199.01 138.412 L2199.01 164.338 L2194.75 164.338 L2194.75 138.412 M2194.75 128.319 L2199.01 128.319 L2199.01 133.713 L2194.75 133.713 L2194.75 128.319 Z" fill="#000000" fill-rule="nonzero" fill-opacity="1" /><path clip-path="url(#clip790)" d="M2204.87 138.412 L2209.38 138.412 L2217.49 160.171 L2225.59 138.412 L2230.1 138.412 L2220.38 164.338 L2214.59 164.338 L2204.87 138.412 Z" fill="#000000" fill-rule="nonzero" fill-opacity="1" /><path clip-path="url(#clip790)" d="M2258.16 150.31 L2258.16 152.393 L2238.57 152.393 Q2238.85 156.791 2241.21 159.106 Q2243.6 161.398 2247.83 161.398 Q2250.29 161.398 2252.58 160.796 Q2254.89 160.194 2257.16 158.99 L2257.16 163.018 Q2254.87 163.99 2252.46 164.5 Q2250.05 165.009 2247.58 165.009 Q2241.37 165.009 2237.74 161.398 Q2234.13 157.787 2234.13 151.629 Q2234.13 145.264 2237.55 141.537 Q2241 137.787 2246.84 137.787 Q2252.07 137.787 2255.1 141.166 Q2258.16 144.523 2258.16 150.31 M2253.9 149.06 Q2253.85 145.565 2251.93 143.481 Q2250.03 141.398 2246.88 141.398 Q2243.32 141.398 2241.17 143.412 Q2239.04 145.426 2238.71 149.083 L2253.9 149.06 Z" fill="#000000" fill-rule="nonzero" fill-opacity="1" /></svg>
