<?xml version="1.0" encoding="utf-8"?>
<svg xmlns="http://www.w3.org/2000/svg" xmlns:xlink="http://www.w3.org/1999/xlink" width="600" height="400" viewBox="0 0 2400 1600">
<defs>
  <clipPath id="clip370">
    <rect x="0" y="0" width="2400" height="1600"/>
  </clipPath>
</defs>
<path clip-path="url(#clip370)" d="M0 1600 L2400 1600 L2400 0 L0 0  Z" fill="#ffffff" fill-rule="evenodd" fill-opacity="1"/>
<defs>
  <clipPath id="clip371">
    <rect x="480" y="0" width="1681" height="1600"/>
  </clipPath>
</defs>
<path clip-path="url(#clip370)" d="M193.936 1486.45 L2352.76 1486.45 L2352.76 47.2441 L193.936 47.2441  Z" fill="#ffffff" fill-rule="evenodd" fill-opacity="1"/>
<defs>
  <clipPath id="clip372">
    <rect x="193" y="47" width="2160" height="1440"/>
  </clipPath>
</defs>
<polyline clip-path="url(#clip372)" style="stroke:#000000; stroke-linecap:round; stroke-linejoin:round; stroke-width:2; stroke-opacity:0.1; fill:none" points="458.697,1486.45 458.697,47.2441 "/>
<polyline clip-path="url(#clip372)" style="stroke:#000000; stroke-linecap:round; stroke-linejoin:round; stroke-width:2; stroke-opacity:0.1; fill:none" points="866.021,1486.45 866.021,47.2441 "/>
<polyline clip-path="url(#clip372)" style="stroke:#000000; stroke-linecap:round; stroke-linejoin:round; stroke-width:2; stroke-opacity:0.1; fill:none" points="1273.35,1486.45 1273.35,47.2441 "/>
<polyline clip-path="url(#clip372)" style="stroke:#000000; stroke-linecap:round; stroke-linejoin:round; stroke-width:2; stroke-opacity:0.1; fill:none" points="1680.67,1486.45 1680.67,47.2441 "/>
<polyline clip-path="url(#clip372)" style="stroke:#000000; stroke-linecap:round; stroke-linejoin:round; stroke-width:2; stroke-opacity:0.1; fill:none" points="2087.99,1486.45 2087.99,47.2441 "/>
<polyline clip-path="url(#clip370)" style="stroke:#000000; stroke-linecap:round; stroke-linejoin:round; stroke-width:4; stroke-opacity:1; fill:none" points="193.936,1486.45 2352.76,1486.45 "/>
<polyline clip-path="url(#clip370)" style="stroke:#000000; stroke-linecap:round; stroke-linejoin:round; stroke-width:4; stroke-opacity:1; fill:none" points="458.697,1486.45 458.697,1467.55 "/>
<polyline clip-path="url(#clip370)" style="stroke:#000000; stroke-linecap:round; stroke-linejoin:round; stroke-width:4; stroke-opacity:1; fill:none" points="866.021,1486.45 866.021,1467.55 "/>
<polyline clip-path="url(#clip370)" style="stroke:#000000; stroke-linecap:round; stroke-linejoin:round; stroke-width:4; stroke-opacity:1; fill:none" points="1273.35,1486.45 1273.35,1467.55 "/>
<polyline clip-path="url(#clip370)" style="stroke:#000000; stroke-linecap:round; stroke-linejoin:round; stroke-width:4; stroke-opacity:1; fill:none" points="1680.67,1486.45 1680.67,1467.55 "/>
<polyline clip-path="url(#clip370)" style="stroke:#000000; stroke-linecap:round; stroke-linejoin:round; stroke-width:4; stroke-opacity:1; fill:none" points="2087.99,1486.45 2087.99,1467.55 "/>
<path clip-path="url(#clip370)" d="M427.598 1532.02 L457.273 1532.02 L457.273 1535.95 L427.598 1535.95 L427.598 1532.02 Z" fill="#000000" fill-rule="nonzero" fill-opacity="1" /><path clip-path="url(#clip370)" d="M480.213 1518.36 L468.408 1536.81 L480.213 1536.81 L480.213 1518.36 M478.986 1514.29 L484.866 1514.29 L484.866 1536.81 L489.796 1536.81 L489.796 1540.7 L484.866 1540.7 L484.866 1548.85 L480.213 1548.85 L480.213 1540.7 L464.611 1540.7 L464.611 1536.19 L478.986 1514.29 Z" fill="#000000" fill-rule="nonzero" fill-opacity="1" /><path clip-path="url(#clip370)" d="M835.964 1532.02 L865.639 1532.02 L865.639 1535.95 L835.964 1535.95 L835.964 1532.02 Z" fill="#000000" fill-rule="nonzero" fill-opacity="1" /><path clip-path="url(#clip370)" d="M879.76 1544.91 L896.079 1544.91 L896.079 1548.85 L874.135 1548.85 L874.135 1544.91 Q876.797 1542.16 881.38 1537.53 Q885.987 1532.88 887.167 1531.53 Q889.413 1529.01 890.292 1527.27 Q891.195 1525.51 891.195 1523.82 Q891.195 1521.07 889.25 1519.33 Q887.329 1517.6 884.227 1517.6 Q882.028 1517.6 879.575 1518.36 Q877.144 1519.13 874.366 1520.68 L874.366 1515.95 Q877.19 1514.82 879.644 1514.24 Q882.098 1513.66 884.135 1513.66 Q889.505 1513.66 892.7 1516.35 Q895.894 1519.03 895.894 1523.52 Q895.894 1525.65 895.084 1527.57 Q894.297 1529.47 892.19 1532.07 Q891.612 1532.74 888.51 1535.95 Q885.408 1539.15 879.76 1544.91 Z" fill="#000000" fill-rule="nonzero" fill-opacity="1" /><path clip-path="url(#clip370)" d="M1273.35 1517.37 Q1269.73 1517.37 1267.91 1520.93 Q1266.1 1524.47 1266.1 1531.6 Q1266.1 1538.71 1267.91 1542.27 Q1269.73 1545.82 1273.35 1545.82 Q1276.98 1545.82 1278.79 1542.27 Q1280.61 1538.71 1280.61 1531.6 Q1280.61 1524.47 1278.79 1520.93 Q1276.98 1517.37 1273.35 1517.37 M1273.35 1513.66 Q1279.16 1513.66 1282.21 1518.27 Q1285.29 1522.85 1285.29 1531.6 Q1285.29 1540.33 1282.21 1544.94 Q1279.16 1549.52 1273.35 1549.52 Q1267.54 1549.52 1264.46 1544.94 Q1261.4 1540.33 1261.4 1531.6 Q1261.4 1522.85 1264.46 1518.27 Q1267.54 1513.66 1273.35 1513.66 Z" fill="#000000" fill-rule="nonzero" fill-opacity="1" /><path clip-path="url(#clip370)" d="M1675.32 1544.91 L1691.64 1544.91 L1691.64 1548.85 L1669.7 1548.85 L1669.7 1544.91 Q1672.36 1542.16 1676.94 1537.53 Q1681.55 1532.88 1682.73 1531.53 Q1684.98 1529.01 1685.86 1527.27 Q1686.76 1525.51 1686.76 1523.82 Q1686.76 1521.07 1684.81 1519.33 Q1682.89 1517.6 1679.79 1517.6 Q1677.59 1517.6 1675.14 1518.36 Q1672.71 1519.13 1669.93 1520.68 L1669.93 1515.95 Q1672.75 1514.82 1675.21 1514.24 Q1677.66 1513.66 1679.7 1513.66 Q1685.07 1513.66 1688.26 1516.35 Q1691.46 1519.03 1691.46 1523.52 Q1691.46 1525.65 1690.65 1527.57 Q1689.86 1529.47 1687.75 1532.07 Q1687.18 1532.74 1684.07 1535.95 Q1680.97 1539.15 1675.32 1544.91 Z" fill="#000000" fill-rule="nonzero" fill-opacity="1" /><path clip-path="url(#clip370)" d="M2091 1518.36 L2079.2 1536.81 L2091 1536.81 L2091 1518.36 M2089.78 1514.29 L2095.66 1514.29 L2095.66 1536.81 L2100.59 1536.81 L2100.59 1540.7 L2095.66 1540.7 L2095.66 1548.85 L2091 1548.85 L2091 1540.7 L2075.4 1540.7 L2075.4 1536.19 L2089.78 1514.29 Z" fill="#000000" fill-rule="nonzero" fill-opacity="1" /><polyline clip-path="url(#clip372)" style="stroke:#000000; stroke-linecap:round; stroke-linejoin:round; stroke-width:2; stroke-opacity:0.1; fill:none" points="193.936,1486.45 2352.76,1486.45 "/>
<polyline clip-path="url(#clip372)" style="stroke:#000000; stroke-linecap:round; stroke-linejoin:round; stroke-width:2; stroke-opacity:0.1; fill:none" points="193.936,1246.58 2352.76,1246.58 "/>
<polyline clip-path="url(#clip372)" style="stroke:#000000; stroke-linecap:round; stroke-linejoin:round; stroke-width:2; stroke-opacity:0.1; fill:none" points="193.936,1006.71 2352.76,1006.71 "/>
<polyline clip-path="url(#clip372)" style="stroke:#000000; stroke-linecap:round; stroke-linejoin:round; stroke-width:2; stroke-opacity:0.1; fill:none" points="193.936,766.846 2352.76,766.846 "/>
<polyline clip-path="url(#clip372)" style="stroke:#000000; stroke-linecap:round; stroke-linejoin:round; stroke-width:2; stroke-opacity:0.1; fill:none" points="193.936,526.979 2352.76,526.979 "/>
<polyline clip-path="url(#clip372)" style="stroke:#000000; stroke-linecap:round; stroke-linejoin:round; stroke-width:2; stroke-opacity:0.1; fill:none" points="193.936,287.111 2352.76,287.111 "/>
<polyline clip-path="url(#clip372)" style="stroke:#000000; stroke-linecap:round; stroke-linejoin:round; stroke-width:2; stroke-opacity:0.1; fill:none" points="193.936,47.2441 2352.76,47.2441 "/>
<polyline clip-path="url(#clip370)" style="stroke:#000000; stroke-linecap:round; stroke-linejoin:round; stroke-width:4; stroke-opacity:1; fill:none" points="193.936,1486.45 193.936,47.2441 "/>
<polyline clip-path="url(#clip370)" style="stroke:#000000; stroke-linecap:round; stroke-linejoin:round; stroke-width:4; stroke-opacity:1; fill:none" points="193.936,1486.45 212.834,1486.45 "/>
<polyline clip-path="url(#clip370)" style="stroke:#000000; stroke-linecap:round; stroke-linejoin:round; stroke-width:4; stroke-opacity:1; fill:none" points="193.936,1246.58 212.834,1246.58 "/>
<polyline clip-path="url(#clip370)" style="stroke:#000000; stroke-linecap:round; stroke-linejoin:round; stroke-width:4; stroke-opacity:1; fill:none" points="193.936,1006.71 212.834,1006.71 "/>
<polyline clip-path="url(#clip370)" style="stroke:#000000; stroke-linecap:round; stroke-linejoin:round; stroke-width:4; stroke-opacity:1; fill:none" points="193.936,766.846 212.834,766.846 "/>
<polyline clip-path="url(#clip370)" style="stroke:#000000; stroke-linecap:round; stroke-linejoin:round; stroke-width:4; stroke-opacity:1; fill:none" points="193.936,526.979 212.834,526.979 "/>
<polyline clip-path="url(#clip370)" style="stroke:#000000; stroke-linecap:round; stroke-linejoin:round; stroke-width:4; stroke-opacity:1; fill:none" points="193.936,287.111 212.834,287.111 "/>
<polyline clip-path="url(#clip370)" style="stroke:#000000; stroke-linecap:round; stroke-linejoin:round; stroke-width:4; stroke-opacity:1; fill:none" points="193.936,47.2441 212.834,47.2441 "/>
<path clip-path="url(#clip370)" d="M51.9875 1486.9 L81.6633 1486.9 L81.6633 1490.83 L51.9875 1490.83 L51.9875 1486.9 Z" fill="#000000" fill-rule="nonzero" fill-opacity="1" /><path clip-path="url(#clip370)" d="M92.566 1499.79 L100.205 1499.79 L100.205 1473.43 L91.8947 1475.09 L91.8947 1470.83 L100.159 1469.17 L104.834 1469.17 L104.834 1499.79 L112.473 1499.79 L112.473 1503.73 L92.566 1503.73 L92.566 1499.79 Z" fill="#000000" fill-rule="nonzero" fill-opacity="1" /><path clip-path="url(#clip370)" d="M121.918 1497.85 L126.802 1497.85 L126.802 1503.73 L121.918 1503.73 L121.918 1497.85 Z" fill="#000000" fill-rule="nonzero" fill-opacity="1" /><path clip-path="url(#clip370)" d="M137.033 1469.17 L155.39 1469.17 L155.39 1473.1 L141.316 1473.1 L141.316 1481.58 Q142.334 1481.23 143.353 1481.07 Q144.371 1480.88 145.39 1480.88 Q151.177 1480.88 154.556 1484.05 Q157.936 1487.22 157.936 1492.64 Q157.936 1498.22 154.464 1501.32 Q150.992 1504.4 144.672 1504.4 Q142.496 1504.4 140.228 1504.03 Q137.982 1503.66 135.575 1502.92 L135.575 1498.22 Q137.658 1499.35 139.881 1499.91 Q142.103 1500.46 144.58 1500.46 Q148.584 1500.46 150.922 1498.36 Q153.26 1496.25 153.26 1492.64 Q153.26 1489.03 150.922 1486.92 Q148.584 1484.82 144.58 1484.82 Q142.705 1484.82 140.83 1485.23 Q138.978 1485.65 137.033 1486.53 L137.033 1469.17 Z" fill="#000000" fill-rule="nonzero" fill-opacity="1" /><path clip-path="url(#clip370)" d="M50.9921 1247.03 L80.6679 1247.03 L80.6679 1250.97 L50.9921 1250.97 L50.9921 1247.03 Z" fill="#000000" fill-rule="nonzero" fill-opacity="1" /><path clip-path="url(#clip370)" d="M91.5706 1259.93 L99.2095 1259.93 L99.2095 1233.56 L90.8993 1235.23 L90.8993 1230.97 L99.1632 1229.3 L103.839 1229.3 L103.839 1259.93 L111.478 1259.93 L111.478 1263.86 L91.5706 1263.86 L91.5706 1259.93 Z" fill="#000000" fill-rule="nonzero" fill-opacity="1" /><path clip-path="url(#clip370)" d="M120.922 1257.98 L125.807 1257.98 L125.807 1263.86 L120.922 1263.86 L120.922 1257.98 Z" fill="#000000" fill-rule="nonzero" fill-opacity="1" /><path clip-path="url(#clip370)" d="M145.992 1232.38 Q142.381 1232.38 140.552 1235.94 Q138.746 1239.49 138.746 1246.62 Q138.746 1253.72 140.552 1257.29 Q142.381 1260.83 145.992 1260.83 Q149.626 1260.83 151.431 1257.29 Q153.26 1253.72 153.26 1246.62 Q153.26 1239.49 151.431 1235.94 Q149.626 1232.38 145.992 1232.38 M145.992 1228.68 Q151.802 1228.68 154.857 1233.28 Q157.936 1237.87 157.936 1246.62 Q157.936 1255.34 154.857 1259.95 Q151.802 1264.53 145.992 1264.53 Q140.181 1264.53 137.103 1259.95 Q134.047 1255.34 134.047 1246.62 Q134.047 1237.87 137.103 1233.28 Q140.181 1228.68 145.992 1228.68 Z" fill="#000000" fill-rule="nonzero" fill-opacity="1" /><path clip-path="url(#clip370)" d="M51.9875 1007.16 L81.6633 1007.16 L81.6633 1011.1 L51.9875 1011.1 L51.9875 1007.16 Z" fill="#000000" fill-rule="nonzero" fill-opacity="1" /><path clip-path="url(#clip370)" d="M101.756 992.512 Q98.1447 992.512 96.316 996.077 Q94.5104 999.618 94.5104 1006.75 Q94.5104 1013.85 96.316 1017.42 Q98.1447 1020.96 101.756 1020.96 Q105.39 1020.96 107.196 1017.42 Q109.024 1013.85 109.024 1006.75 Q109.024 999.618 107.196 996.077 Q105.39 992.512 101.756 992.512 M101.756 988.808 Q107.566 988.808 110.621 993.415 Q113.7 997.998 113.7 1006.75 Q113.7 1015.47 110.621 1020.08 Q107.566 1024.66 101.756 1024.66 Q95.9456 1024.66 92.8669 1020.08 Q89.8114 1015.47 89.8114 1006.75 Q89.8114 997.998 92.8669 993.415 Q95.9456 988.808 101.756 988.808 Z" fill="#000000" fill-rule="nonzero" fill-opacity="1" /><path clip-path="url(#clip370)" d="M121.918 1018.11 L126.802 1018.11 L126.802 1023.99 L121.918 1023.99 L121.918 1018.11 Z" fill="#000000" fill-rule="nonzero" fill-opacity="1" /><path clip-path="url(#clip370)" d="M137.033 989.433 L155.39 989.433 L155.39 993.368 L141.316 993.368 L141.316 1001.84 Q142.334 1001.49 143.353 1001.33 Q144.371 1001.15 145.39 1001.15 Q151.177 1001.15 154.556 1004.32 Q157.936 1007.49 157.936 1012.91 Q157.936 1018.48 154.464 1021.59 Q150.992 1024.66 144.672 1024.66 Q142.496 1024.66 140.228 1024.29 Q137.982 1023.92 135.575 1023.18 L135.575 1018.48 Q137.658 1019.62 139.881 1020.17 Q142.103 1020.73 144.58 1020.73 Q148.584 1020.73 150.922 1018.62 Q153.26 1016.52 153.26 1012.91 Q153.26 1009.29 150.922 1007.19 Q148.584 1005.08 144.58 1005.08 Q142.705 1005.08 140.83 1005.5 Q138.978 1005.91 137.033 1006.79 L137.033 989.433 Z" fill="#000000" fill-rule="nonzero" fill-opacity="1" /><path clip-path="url(#clip370)" d="M100.76 752.645 Q97.1493 752.645 95.3206 756.209 Q93.515 759.751 93.515 766.881 Q93.515 773.987 95.3206 777.552 Q97.1493 781.094 100.76 781.094 Q104.395 781.094 106.2 777.552 Q108.029 773.987 108.029 766.881 Q108.029 759.751 106.2 756.209 Q104.395 752.645 100.76 752.645 M100.76 748.941 Q106.571 748.941 109.626 753.547 Q112.705 758.131 112.705 766.881 Q112.705 775.608 109.626 780.214 Q106.571 784.797 100.76 784.797 Q94.9502 784.797 91.8715 780.214 Q88.816 775.608 88.816 766.881 Q88.816 758.131 91.8715 753.547 Q94.9502 748.941 100.76 748.941 Z" fill="#000000" fill-rule="nonzero" fill-opacity="1" /><path clip-path="url(#clip370)" d="M120.922 778.246 L125.807 778.246 L125.807 784.126 L120.922 784.126 L120.922 778.246 Z" fill="#000000" fill-rule="nonzero" fill-opacity="1" /><path clip-path="url(#clip370)" d="M145.992 752.645 Q142.381 752.645 140.552 756.209 Q138.746 759.751 138.746 766.881 Q138.746 773.987 140.552 777.552 Q142.381 781.094 145.992 781.094 Q149.626 781.094 151.431 777.552 Q153.26 773.987 153.26 766.881 Q153.26 759.751 151.431 756.209 Q149.626 752.645 145.992 752.645 M145.992 748.941 Q151.802 748.941 154.857 753.547 Q157.936 758.131 157.936 766.881 Q157.936 775.608 154.857 780.214 Q151.802 784.797 145.992 784.797 Q140.181 784.797 137.103 780.214 Q134.047 775.608 134.047 766.881 Q134.047 758.131 137.103 753.547 Q140.181 748.941 145.992 748.941 Z" fill="#000000" fill-rule="nonzero" fill-opacity="1" /><path clip-path="url(#clip370)" d="M101.756 512.777 Q98.1447 512.777 96.316 516.342 Q94.5104 519.884 94.5104 527.013 Q94.5104 534.12 96.316 537.685 Q98.1447 541.226 101.756 541.226 Q105.39 541.226 107.196 537.685 Q109.024 534.12 109.024 527.013 Q109.024 519.884 107.196 516.342 Q105.39 512.777 101.756 512.777 M101.756 509.074 Q107.566 509.074 110.621 513.68 Q113.7 518.263 113.7 527.013 Q113.7 535.74 110.621 540.347 Q107.566 544.93 101.756 544.93 Q95.9456 544.93 92.8669 540.347 Q89.8114 535.74 89.8114 527.013 Q89.8114 518.263 92.8669 513.68 Q95.9456 509.074 101.756 509.074 Z" fill="#000000" fill-rule="nonzero" fill-opacity="1" /><path clip-path="url(#clip370)" d="M121.918 538.379 L126.802 538.379 L126.802 544.259 L121.918 544.259 L121.918 538.379 Z" fill="#000000" fill-rule="nonzero" fill-opacity="1" /><path clip-path="url(#clip370)" d="M137.033 509.699 L155.39 509.699 L155.39 513.634 L141.316 513.634 L141.316 522.106 Q142.334 521.759 143.353 521.597 Q144.371 521.412 145.39 521.412 Q151.177 521.412 154.556 524.583 Q157.936 527.754 157.936 533.171 Q157.936 538.749 154.464 541.851 Q150.992 544.93 144.672 544.93 Q142.496 544.93 140.228 544.56 Q137.982 544.189 135.575 543.449 L135.575 538.749 Q137.658 539.884 139.881 540.439 Q142.103 540.995 144.58 540.995 Q148.584 540.995 150.922 538.888 Q153.26 536.782 153.26 533.171 Q153.26 529.56 150.922 527.453 Q148.584 525.347 144.58 525.347 Q142.705 525.347 140.83 525.763 Q138.978 526.18 137.033 527.06 L137.033 509.699 Z" fill="#000000" fill-rule="nonzero" fill-opacity="1" /><path clip-path="url(#clip370)" d="M91.5706 300.456 L99.2095 300.456 L99.2095 274.091 L90.8993 275.757 L90.8993 271.498 L99.1632 269.831 L103.839 269.831 L103.839 300.456 L111.478 300.456 L111.478 304.391 L91.5706 304.391 L91.5706 300.456 Z" fill="#000000" fill-rule="nonzero" fill-opacity="1" /><path clip-path="url(#clip370)" d="M120.922 298.512 L125.807 298.512 L125.807 304.391 L120.922 304.391 L120.922 298.512 Z" fill="#000000" fill-rule="nonzero" fill-opacity="1" /><path clip-path="url(#clip370)" d="M145.992 272.91 Q142.381 272.91 140.552 276.475 Q138.746 280.017 138.746 287.146 Q138.746 294.253 140.552 297.817 Q142.381 301.359 145.992 301.359 Q149.626 301.359 151.431 297.817 Q153.26 294.253 153.26 287.146 Q153.26 280.017 151.431 276.475 Q149.626 272.91 145.992 272.91 M145.992 269.206 Q151.802 269.206 154.857 273.813 Q157.936 278.396 157.936 287.146 Q157.936 295.873 154.857 300.479 Q151.802 305.063 145.992 305.063 Q140.181 305.063 137.103 300.479 Q134.047 295.873 134.047 287.146 Q134.047 278.396 137.103 273.813 Q140.181 269.206 145.992 269.206 Z" fill="#000000" fill-rule="nonzero" fill-opacity="1" /><path clip-path="url(#clip370)" d="M92.566 60.5889 L100.205 60.5889 L100.205 34.2233 L91.8947 35.89 L91.8947 31.6308 L100.159 29.9641 L104.834 29.9641 L104.834 60.5889 L112.473 60.5889 L112.473 64.5241 L92.566 64.5241 L92.566 60.5889 Z" fill="#000000" fill-rule="nonzero" fill-opacity="1" /><path clip-path="url(#clip370)" d="M121.918 58.6445 L126.802 58.6445 L126.802 64.5241 L121.918 64.5241 L121.918 58.6445 Z" fill="#000000" fill-rule="nonzero" fill-opacity="1" /><path clip-path="url(#clip370)" d="M137.033 29.9641 L155.39 29.9641 L155.39 33.8993 L141.316 33.8993 L141.316 42.3714 Q142.334 42.0242 143.353 41.8622 Q144.371 41.677 145.39 41.677 Q151.177 41.677 154.556 44.8483 Q157.936 48.0196 157.936 53.4362 Q157.936 59.0149 154.464 62.1167 Q150.992 65.1954 144.672 65.1954 Q142.496 65.1954 140.228 64.825 Q137.982 64.4547 135.575 63.7139 L135.575 59.0149 Q137.658 60.1491 139.881 60.7047 Q142.103 61.2602 144.58 61.2602 Q148.584 61.2602 150.922 59.1538 Q153.26 57.0473 153.26 53.4362 Q153.26 49.8251 150.922 47.7186 Q148.584 45.6122 144.58 45.6122 Q142.705 45.6122 140.83 46.0288 Q138.978 46.4455 137.033 47.3251 L137.033 29.9641 Z" fill="#000000" fill-rule="nonzero" fill-opacity="1" /><polyline clip-path="url(#clip372)" style="stroke:#009af9; stroke-linecap:round; stroke-linejoin:round; stroke-width:4; stroke-opacity:1; fill:none" points="255.035,766.846 268.294,766.846 390.898,766.846 464.577,766.846 526.872,766.846 594.542,766.846 656.928,766.846 723.812,766.846 801.304,766.846 870.17,766.846 930.558,766.846 996.398,766.846 1062.63,766.846 1135.86,766.846 1205.53,766.846 1277.98,766.846 1338.96,766.846 1413.41,766.846 1481.62,766.846 1544.61,766.846 1608.42,766.846 1679.93,766.846 1744.73,766.846 1818.92,766.846 1887.62,766.846 1955.34,766.846 2021.1,766.846 2088.51,766.846 2162.36,766.846 2269.65,766.846 2291.66,766.846 "/>
<path clip-path="url(#clip370)" d="M1708.78 198.898 L2280.8 198.898 L2280.8 95.2176 L1708.78 95.2176  Z" fill="#ffffff" fill-rule="evenodd" fill-opacity="1"/>
<polyline clip-path="url(#clip370)" style="stroke:#000000; stroke-linecap:round; stroke-linejoin:round; stroke-width:4; stroke-opacity:1; fill:none" points="1708.78,198.898 2280.8,198.898 2280.8,95.2176 1708.78,95.2176 1708.78,198.898 "/>
<polyline clip-path="url(#clip370)" style="stroke:#009af9; stroke-linecap:round; stroke-linejoin:round; stroke-width:4; stroke-opacity:1; fill:none" points="1732.77,147.058 1876.69,147.058 "/>
<path clip-path="url(#clip370)" d="M1900.68 138.412 L1904.94 138.412 L1904.94 164.338 L1900.68 164.338 L1900.68 138.412 M1900.68 128.319 L1904.94 128.319 L1904.94 133.713 L1900.68 133.713 L1900.68 128.319 Z" fill="#000000" fill-rule="nonzero" fill-opacity="1" /><path clip-path="url(#clip370)" d="M1935.4 148.689 L1935.4 164.338 L1931.14 164.338 L1931.14 148.828 Q1931.14 145.148 1929.7 143.319 Q1928.27 141.49 1925.4 141.49 Q1921.95 141.49 1919.96 143.69 Q1917.97 145.889 1917.97 149.685 L1917.97 164.338 L1913.69 164.338 L1913.69 138.412 L1917.97 138.412 L1917.97 142.44 Q1919.5 140.102 1921.56 138.944 Q1923.64 137.787 1926.35 137.787 Q1930.81 137.787 1933.11 140.565 Q1935.4 143.319 1935.4 148.689 Z" fill="#000000" fill-rule="nonzero" fill-opacity="1" /><path clip-path="url(#clip370)" d="M1943.89 138.412 L1948.15 138.412 L1948.15 164.338 L1943.89 164.338 L1943.89 138.412 M1943.89 128.319 L1948.15 128.319 L1948.15 133.713 L1943.89 133.713 L1943.89 128.319 Z" fill="#000000" fill-rule="nonzero" fill-opacity="1" /><path clip-path="url(#clip370)" d="M1961.28 131.051 L1961.28 138.412 L1970.05 138.412 L1970.05 141.722 L1961.28 141.722 L1961.28 155.796 Q1961.28 158.967 1962.13 159.87 Q1963.01 160.773 1965.68 160.773 L1970.05 160.773 L1970.05 164.338 L1965.68 164.338 Q1960.75 164.338 1958.87 162.509 Q1957 160.657 1957 155.796 L1957 141.722 L1953.87 141.722 L1953.87 138.412 L1957 138.412 L1957 131.051 L1961.28 131.051 Z" fill="#000000" fill-rule="nonzero" fill-opacity="1" /><path clip-path="url(#clip370)" d="M1975.65 138.412 L1979.91 138.412 L1979.91 164.338 L1975.65 164.338 L1975.65 138.412 M1975.65 128.319 L1979.91 128.319 L1979.91 133.713 L1975.65 133.713 L1975.65 128.319 Z" fill="#000000" fill-rule="nonzero" fill-opacity="1" /><path clip-path="url(#clip370)" d="M2000.61 151.305 Q1995.44 151.305 1993.45 152.486 Q1991.46 153.666 1991.46 156.514 Q1991.46 158.782 1992.94 160.125 Q1994.45 161.444 1997.02 161.444 Q2000.56 161.444 2002.69 158.944 Q2004.84 156.421 2004.84 152.254 L2004.84 151.305 L2000.61 151.305 M2009.1 149.546 L2009.1 164.338 L2004.84 164.338 L2004.84 160.402 Q2003.38 162.763 2001.21 163.898 Q1999.03 165.009 1995.88 165.009 Q1991.9 165.009 1989.54 162.787 Q1987.2 160.541 1987.2 156.791 Q1987.2 152.416 1990.12 150.194 Q1993.06 147.972 1998.87 147.972 L2004.84 147.972 L2004.84 147.555 Q2004.84 144.615 2002.9 143.018 Q2000.98 141.398 1997.48 141.398 Q1995.26 141.398 1993.15 141.93 Q1991.05 142.463 1989.1 143.527 L1989.1 139.592 Q1991.44 138.69 1993.64 138.25 Q1995.84 137.787 1997.92 137.787 Q2003.55 137.787 2006.32 140.703 Q2009.1 143.62 2009.1 149.546 Z" fill="#000000" fill-rule="nonzero" fill-opacity="1" /><path clip-path="url(#clip370)" d="M2017.87 128.319 L2022.13 128.319 L2022.13 164.338 L2017.87 164.338 L2017.87 128.319 Z" fill="#000000" fill-rule="nonzero" fill-opacity="1" /><path clip-path="url(#clip370)" d="M2064.77 139.407 L2064.77 143.389 Q2062.97 142.393 2061.14 141.907 Q2059.33 141.398 2057.48 141.398 Q2053.34 141.398 2051.05 144.037 Q2048.75 146.652 2048.75 151.398 Q2048.75 156.143 2051.05 158.782 Q2053.34 161.398 2057.48 161.398 Q2059.33 161.398 2061.14 160.912 Q2062.97 160.402 2064.77 159.407 L2064.77 163.342 Q2062.99 164.176 2061.07 164.592 Q2059.17 165.009 2057.02 165.009 Q2051.16 165.009 2047.71 161.328 Q2044.26 157.648 2044.26 151.398 Q2044.26 145.055 2047.74 141.421 Q2051.23 137.787 2057.3 137.787 Q2059.26 137.787 2061.14 138.203 Q2063.01 138.597 2064.77 139.407 Z" fill="#000000" fill-rule="nonzero" fill-opacity="1" /><path clip-path="url(#clip370)" d="M2082.23 141.398 Q2078.8 141.398 2076.81 144.083 Q2074.82 146.745 2074.82 151.398 Q2074.82 156.051 2076.79 158.736 Q2078.78 161.398 2082.23 161.398 Q2085.63 161.398 2087.62 158.713 Q2089.61 156.027 2089.61 151.398 Q2089.61 146.791 2087.62 144.106 Q2085.63 141.398 2082.23 141.398 M2082.23 137.787 Q2087.78 137.787 2090.95 141.398 Q2094.12 145.009 2094.12 151.398 Q2094.12 157.764 2090.95 161.398 Q2087.78 165.009 2082.23 165.009 Q2076.65 165.009 2073.48 161.398 Q2070.33 157.764 2070.33 151.398 Q2070.33 145.009 2073.48 141.398 Q2076.65 137.787 2082.23 137.787 Z" fill="#000000" fill-rule="nonzero" fill-opacity="1" /><path clip-path="url(#clip370)" d="M2122.73 148.689 L2122.73 164.338 L2118.48 164.338 L2118.48 148.828 Q2118.48 145.148 2117.04 143.319 Q2115.61 141.49 2112.74 141.49 Q2109.29 141.49 2107.3 143.69 Q2105.3 145.889 2105.3 149.685 L2105.3 164.338 L2101.02 164.338 L2101.02 138.412 L2105.3 138.412 L2105.3 142.44 Q2106.83 140.102 2108.89 138.944 Q2110.98 137.787 2113.68 137.787 Q2118.15 137.787 2120.44 140.565 Q2122.73 143.319 2122.73 148.689 Z" fill="#000000" fill-rule="nonzero" fill-opacity="1" /><path clip-path="url(#clip370)" d="M2148.29 142.347 L2148.29 128.319 L2152.55 128.319 L2152.55 164.338 L2148.29 164.338 L2148.29 160.449 Q2146.95 162.763 2144.89 163.898 Q2142.85 165.009 2139.98 165.009 Q2135.28 165.009 2132.32 161.259 Q2129.38 157.509 2129.38 151.398 Q2129.38 145.287 2132.32 141.537 Q2135.28 137.787 2139.98 137.787 Q2142.85 137.787 2144.89 138.921 Q2146.95 140.032 2148.29 142.347 M2133.78 151.398 Q2133.78 156.097 2135.7 158.782 Q2137.64 161.444 2141.02 161.444 Q2144.4 161.444 2146.35 158.782 Q2148.29 156.097 2148.29 151.398 Q2148.29 146.699 2146.35 144.037 Q2144.4 141.352 2141.02 141.352 Q2137.64 141.352 2135.7 144.037 Q2133.78 146.699 2133.78 151.398 Z" fill="#000000" fill-rule="nonzero" fill-opacity="1" /><path clip-path="url(#clip370)" d="M2161.32 138.412 L2165.58 138.412 L2165.58 164.338 L2161.32 164.338 L2161.32 138.412 M2161.32 128.319 L2165.58 128.319 L2165.58 133.713 L2161.32 133.713 L2161.32 128.319 Z" fill="#000000" fill-rule="nonzero" fill-opacity="1" /><path clip-path="url(#clip370)" d="M2178.71 131.051 L2178.71 138.412 L2187.48 138.412 L2187.48 141.722 L2178.71 141.722 L2178.71 155.796 Q2178.71 158.967 2179.56 159.87 Q2180.44 160.773 2183.11 160.773 L2187.48 160.773 L2187.48 164.338 L2183.11 164.338 Q2178.17 164.338 2176.3 162.509 Q2174.42 160.657 2174.42 155.796 L2174.42 141.722 L2171.3 141.722 L2171.3 138.412 L2174.42 138.412 L2174.42 131.051 L2178.71 131.051 Z" fill="#000000" fill-rule="nonzero" fill-opacity="1" /><path clip-path="url(#clip370)" d="M2193.08 138.412 L2197.34 138.412 L2197.34 164.338 L2193.08 164.338 L2193.08 138.412 M2193.08 128.319 L2197.34 128.319 L2197.34 133.713 L2193.08 133.713 L2193.08 128.319 Z" fill="#000000" fill-rule="nonzero" fill-opacity="1" /><path clip-path="url(#clip370)" d="M2216.3 141.398 Q2212.87 141.398 2210.88 144.083 Q2208.89 146.745 2208.89 151.398 Q2208.89 156.051 2210.86 158.736 Q2212.85 161.398 2216.3 161.398 Q2219.7 161.398 2221.69 158.713 Q2223.68 156.027 2223.68 151.398 Q2223.68 146.791 2221.69 144.106 Q2219.7 141.398 2216.3 141.398 M2216.3 137.787 Q2221.85 137.787 2225.03 141.398 Q2228.2 145.009 2228.2 151.398 Q2228.2 157.764 2225.03 161.398 Q2221.85 165.009 2216.3 165.009 Q2210.72 165.009 2207.55 161.398 Q2204.4 157.764 2204.4 151.398 Q2204.4 145.009 2207.55 141.398 Q2210.72 137.787 2216.3 137.787 Z" fill="#000000" fill-rule="nonzero" fill-opacity="1" /><path clip-path="url(#clip370)" d="M2256.81 148.689 L2256.81 164.338 L2252.55 164.338 L2252.55 148.828 Q2252.55 145.148 2251.11 143.319 Q2249.68 141.49 2246.81 141.49 Q2243.36 141.49 2241.37 143.69 Q2239.38 145.889 2239.38 149.685 L2239.38 164.338 L2235.1 164.338 L2235.1 138.412 L2239.38 138.412 L2239.38 142.44 Q2240.91 140.102 2242.97 138.944 Q2245.05 137.787 2247.76 137.787 Q2252.23 137.787 2254.52 140.565 Q2256.81 143.319 2256.81 148.689 Z" fill="#000000" fill-rule="nonzero" fill-opacity="1" /></svg>
