<?xml version="1.0" encoding="utf-8"?>
<svg xmlns="http://www.w3.org/2000/svg" xmlns:xlink="http://www.w3.org/1999/xlink" width="600" height="400" viewBox="0 0 2400 1600">
<defs>
  <clipPath id="clip300">
    <rect x="0" y="0" width="2400" height="1600"/>
  </clipPath>
</defs>
<path clip-path="url(#clip300)" d="M0 1600 L2400 1600 L2400 0 L0 0  Z" fill="#ffffff" fill-rule="evenodd" fill-opacity="1"/>
<defs>
  <clipPath id="clip301">
    <rect x="480" y="0" width="1681" height="1600"/>
  </clipPath>
</defs>
<path clip-path="url(#clip300)" d="M156.274 1486.45 L2352.76 1486.45 L2352.76 47.2441 L156.274 47.2441  Z" fill="#ffffff" fill-rule="evenodd" fill-opacity="1"/>
<defs>
  <clipPath id="clip302">
    <rect x="156" y="47" width="2197" height="1440"/>
  </clipPath>
</defs>
<polyline clip-path="url(#clip302)" style="stroke:#000000; stroke-linecap:round; stroke-linejoin:round; stroke-width:2; stroke-opacity:0.1; fill:none" points="218.439,1486.45 218.439,47.2441 "/>
<polyline clip-path="url(#clip302)" style="stroke:#000000; stroke-linecap:round; stroke-linejoin:round; stroke-width:2; stroke-opacity:0.1; fill:none" points="736.477,1486.45 736.477,47.2441 "/>
<polyline clip-path="url(#clip302)" style="stroke:#000000; stroke-linecap:round; stroke-linejoin:round; stroke-width:2; stroke-opacity:0.1; fill:none" points="1254.52,1486.45 1254.52,47.2441 "/>
<polyline clip-path="url(#clip302)" style="stroke:#000000; stroke-linecap:round; stroke-linejoin:round; stroke-width:2; stroke-opacity:0.1; fill:none" points="1772.55,1486.45 1772.55,47.2441 "/>
<polyline clip-path="url(#clip302)" style="stroke:#000000; stroke-linecap:round; stroke-linejoin:round; stroke-width:2; stroke-opacity:0.1; fill:none" points="2290.59,1486.45 2290.59,47.2441 "/>
<polyline clip-path="url(#clip300)" style="stroke:#000000; stroke-linecap:round; stroke-linejoin:round; stroke-width:4; stroke-opacity:1; fill:none" points="156.274,1486.45 2352.76,1486.45 "/>
<polyline clip-path="url(#clip300)" style="stroke:#000000; stroke-linecap:round; stroke-linejoin:round; stroke-width:4; stroke-opacity:1; fill:none" points="218.439,1486.45 218.439,1467.55 "/>
<polyline clip-path="url(#clip300)" style="stroke:#000000; stroke-linecap:round; stroke-linejoin:round; stroke-width:4; stroke-opacity:1; fill:none" points="736.477,1486.45 736.477,1467.55 "/>
<polyline clip-path="url(#clip300)" style="stroke:#000000; stroke-linecap:round; stroke-linejoin:round; stroke-width:4; stroke-opacity:1; fill:none" points="1254.52,1486.45 1254.52,1467.55 "/>
<polyline clip-path="url(#clip300)" style="stroke:#000000; stroke-linecap:round; stroke-linejoin:round; stroke-width:4; stroke-opacity:1; fill:none" points="1772.55,1486.45 1772.55,1467.55 "/>
<polyline clip-path="url(#clip300)" style="stroke:#000000; stroke-linecap:round; stroke-linejoin:round; stroke-width:4; stroke-opacity:1; fill:none" points="2290.59,1486.45 2290.59,1467.55 "/>
<path clip-path="url(#clip300)" d="M164.967 1532.02 L194.643 1532.02 L194.643 1535.95 L164.967 1535.95 L164.967 1532.02 Z" fill="#000000" fill-rule="nonzero" fill-opacity="1" /><path clip-path="url(#clip300)" d="M205.545 1544.91 L213.184 1544.91 L213.184 1518.55 L204.874 1520.21 L204.874 1515.95 L213.138 1514.29 L217.814 1514.29 L217.814 1544.91 L225.453 1544.91 L225.453 1548.85 L205.545 1548.85 L205.545 1544.91 Z" fill="#000000" fill-rule="nonzero" fill-opacity="1" /><path clip-path="url(#clip300)" d="M234.897 1542.97 L239.781 1542.97 L239.781 1548.85 L234.897 1548.85 L234.897 1542.97 Z" fill="#000000" fill-rule="nonzero" fill-opacity="1" /><path clip-path="url(#clip300)" d="M259.966 1517.37 Q256.355 1517.37 254.527 1520.93 Q252.721 1524.47 252.721 1531.6 Q252.721 1538.71 254.527 1542.27 Q256.355 1545.82 259.966 1545.82 Q263.601 1545.82 265.406 1542.27 Q267.235 1538.71 267.235 1531.6 Q267.235 1524.47 265.406 1520.93 Q263.601 1517.37 259.966 1517.37 M259.966 1513.66 Q265.776 1513.66 268.832 1518.27 Q271.911 1522.85 271.911 1531.6 Q271.911 1540.33 268.832 1544.94 Q265.776 1549.52 259.966 1549.52 Q254.156 1549.52 251.077 1544.94 Q248.022 1540.33 248.022 1531.6 Q248.022 1522.85 251.077 1518.27 Q254.156 1513.66 259.966 1513.66 Z" fill="#000000" fill-rule="nonzero" fill-opacity="1" /><path clip-path="url(#clip300)" d="M683.503 1532.02 L713.178 1532.02 L713.178 1535.95 L683.503 1535.95 L683.503 1532.02 Z" fill="#000000" fill-rule="nonzero" fill-opacity="1" /><path clip-path="url(#clip300)" d="M733.271 1517.37 Q729.66 1517.37 727.831 1520.93 Q726.026 1524.47 726.026 1531.6 Q726.026 1538.71 727.831 1542.27 Q729.66 1545.82 733.271 1545.82 Q736.905 1545.82 738.711 1542.27 Q740.539 1538.71 740.539 1531.6 Q740.539 1524.47 738.711 1520.93 Q736.905 1517.37 733.271 1517.37 M733.271 1513.66 Q739.081 1513.66 742.137 1518.27 Q745.215 1522.85 745.215 1531.6 Q745.215 1540.33 742.137 1544.94 Q739.081 1549.52 733.271 1549.52 Q727.461 1549.52 724.382 1544.94 Q721.327 1540.33 721.327 1531.6 Q721.327 1522.85 724.382 1518.27 Q727.461 1513.66 733.271 1513.66 Z" fill="#000000" fill-rule="nonzero" fill-opacity="1" /><path clip-path="url(#clip300)" d="M753.433 1542.97 L758.317 1542.97 L758.317 1548.85 L753.433 1548.85 L753.433 1542.97 Z" fill="#000000" fill-rule="nonzero" fill-opacity="1" /><path clip-path="url(#clip300)" d="M768.548 1514.29 L786.905 1514.29 L786.905 1518.22 L772.831 1518.22 L772.831 1526.7 Q773.849 1526.35 774.868 1526.19 Q775.886 1526 776.905 1526 Q782.692 1526 786.072 1529.17 Q789.451 1532.34 789.451 1537.76 Q789.451 1543.34 785.979 1546.44 Q782.507 1549.52 776.187 1549.52 Q774.011 1549.52 771.743 1549.15 Q769.498 1548.78 767.09 1548.04 L767.09 1543.34 Q769.173 1544.47 771.396 1545.03 Q773.618 1545.58 776.095 1545.58 Q780.099 1545.58 782.437 1543.48 Q784.775 1541.37 784.775 1537.76 Q784.775 1534.15 782.437 1532.04 Q780.099 1529.94 776.095 1529.94 Q774.22 1529.94 772.345 1530.35 Q770.493 1530.77 768.548 1531.65 L768.548 1514.29 Z" fill="#000000" fill-rule="nonzero" fill-opacity="1" /><path clip-path="url(#clip300)" d="M1231.9 1517.37 Q1228.29 1517.37 1226.46 1520.93 Q1224.65 1524.47 1224.65 1531.6 Q1224.65 1538.71 1226.46 1542.27 Q1228.29 1545.82 1231.9 1545.82 Q1235.53 1545.82 1237.34 1542.27 Q1239.17 1538.71 1239.17 1531.6 Q1239.17 1524.47 1237.34 1520.93 Q1235.53 1517.37 1231.9 1517.37 M1231.9 1513.66 Q1237.71 1513.66 1240.77 1518.27 Q1243.84 1522.85 1243.84 1531.6 Q1243.84 1540.33 1240.77 1544.94 Q1237.71 1549.52 1231.9 1549.52 Q1226.09 1549.52 1223.01 1544.94 Q1219.96 1540.33 1219.96 1531.6 Q1219.96 1522.85 1223.01 1518.27 Q1226.09 1513.66 1231.9 1513.66 Z" fill="#000000" fill-rule="nonzero" fill-opacity="1" /><path clip-path="url(#clip300)" d="M1252.06 1542.97 L1256.95 1542.97 L1256.95 1548.85 L1252.06 1548.85 L1252.06 1542.97 Z" fill="#000000" fill-rule="nonzero" fill-opacity="1" /><path clip-path="url(#clip300)" d="M1277.13 1517.37 Q1273.52 1517.37 1271.69 1520.93 Q1269.89 1524.47 1269.89 1531.6 Q1269.89 1538.71 1271.69 1542.27 Q1273.52 1545.82 1277.13 1545.82 Q1280.76 1545.82 1282.57 1542.27 Q1284.4 1538.71 1284.4 1531.6 Q1284.4 1524.47 1282.57 1520.93 Q1280.76 1517.37 1277.13 1517.37 M1277.13 1513.66 Q1282.94 1513.66 1286 1518.27 Q1289.08 1522.85 1289.08 1531.6 Q1289.08 1540.33 1286 1544.94 Q1282.94 1549.52 1277.13 1549.52 Q1271.32 1549.52 1268.24 1544.94 Q1265.19 1540.33 1265.19 1531.6 Q1265.19 1522.85 1268.24 1518.27 Q1271.32 1513.66 1277.13 1513.66 Z" fill="#000000" fill-rule="nonzero" fill-opacity="1" /><path clip-path="url(#clip300)" d="M1750.44 1517.37 Q1746.82 1517.37 1745 1520.93 Q1743.19 1524.47 1743.19 1531.6 Q1743.19 1538.71 1745 1542.27 Q1746.82 1545.82 1750.44 1545.82 Q1754.07 1545.82 1755.88 1542.27 Q1757.7 1538.71 1757.7 1531.6 Q1757.7 1524.47 1755.88 1520.93 Q1754.07 1517.37 1750.44 1517.37 M1750.44 1513.66 Q1756.25 1513.66 1759.3 1518.27 Q1762.38 1522.85 1762.38 1531.6 Q1762.38 1540.33 1759.3 1544.94 Q1756.25 1549.52 1750.44 1549.52 Q1744.63 1549.52 1741.55 1544.94 Q1738.49 1540.33 1738.49 1531.6 Q1738.49 1522.85 1741.55 1518.27 Q1744.63 1513.66 1750.44 1513.66 Z" fill="#000000" fill-rule="nonzero" fill-opacity="1" /><path clip-path="url(#clip300)" d="M1770.6 1542.97 L1775.48 1542.97 L1775.48 1548.85 L1770.6 1548.85 L1770.6 1542.97 Z" fill="#000000" fill-rule="nonzero" fill-opacity="1" /><path clip-path="url(#clip300)" d="M1785.71 1514.29 L1804.07 1514.29 L1804.07 1518.22 L1790 1518.22 L1790 1526.7 Q1791.01 1526.35 1792.03 1526.19 Q1793.05 1526 1794.07 1526 Q1799.86 1526 1803.24 1529.17 Q1806.62 1532.34 1806.62 1537.76 Q1806.62 1543.34 1803.14 1546.44 Q1799.67 1549.52 1793.35 1549.52 Q1791.18 1549.52 1788.91 1549.15 Q1786.66 1548.78 1784.25 1548.04 L1784.25 1543.34 Q1786.34 1544.47 1788.56 1545.03 Q1790.78 1545.58 1793.26 1545.58 Q1797.26 1545.58 1799.6 1543.48 Q1801.94 1541.37 1801.94 1537.76 Q1801.94 1534.15 1799.6 1532.04 Q1797.26 1529.94 1793.26 1529.94 Q1791.38 1529.94 1789.51 1530.35 Q1787.66 1530.77 1785.71 1531.65 L1785.71 1514.29 Z" fill="#000000" fill-rule="nonzero" fill-opacity="1" /><path clip-path="url(#clip300)" d="M2257.74 1544.91 L2265.38 1544.91 L2265.38 1518.55 L2257.07 1520.21 L2257.07 1515.95 L2265.34 1514.29 L2270.01 1514.29 L2270.01 1544.91 L2277.65 1544.91 L2277.65 1548.85 L2257.74 1548.85 L2257.74 1544.91 Z" fill="#000000" fill-rule="nonzero" fill-opacity="1" /><path clip-path="url(#clip300)" d="M2287.1 1542.97 L2291.98 1542.97 L2291.98 1548.85 L2287.1 1548.85 L2287.1 1542.97 Z" fill="#000000" fill-rule="nonzero" fill-opacity="1" /><path clip-path="url(#clip300)" d="M2312.17 1517.37 Q2308.55 1517.37 2306.73 1520.93 Q2304.92 1524.47 2304.92 1531.6 Q2304.92 1538.71 2306.73 1542.27 Q2308.55 1545.82 2312.17 1545.82 Q2315.8 1545.82 2317.61 1542.27 Q2319.43 1538.71 2319.43 1531.6 Q2319.43 1524.47 2317.61 1520.93 Q2315.8 1517.37 2312.17 1517.37 M2312.17 1513.66 Q2317.98 1513.66 2321.03 1518.27 Q2324.11 1522.85 2324.11 1531.6 Q2324.11 1540.33 2321.03 1544.94 Q2317.98 1549.52 2312.17 1549.52 Q2306.36 1549.52 2303.28 1544.94 Q2300.22 1540.33 2300.22 1531.6 Q2300.22 1522.85 2303.28 1518.27 Q2306.36 1513.66 2312.17 1513.66 Z" fill="#000000" fill-rule="nonzero" fill-opacity="1" /><polyline clip-path="url(#clip302)" style="stroke:#000000; stroke-linecap:round; stroke-linejoin:round; stroke-width:2; stroke-opacity:0.1; fill:none" points="156.274,1309.94 2352.76,1309.94 "/>
<polyline clip-path="url(#clip302)" style="stroke:#000000; stroke-linecap:round; stroke-linejoin:round; stroke-width:2; stroke-opacity:0.1; fill:none" points="156.274,1038.39 2352.76,1038.39 "/>
<polyline clip-path="url(#clip302)" style="stroke:#000000; stroke-linecap:round; stroke-linejoin:round; stroke-width:2; stroke-opacity:0.1; fill:none" points="156.274,766.846 2352.76,766.846 "/>
<polyline clip-path="url(#clip302)" style="stroke:#000000; stroke-linecap:round; stroke-linejoin:round; stroke-width:2; stroke-opacity:0.1; fill:none" points="156.274,495.297 2352.76,495.297 "/>
<polyline clip-path="url(#clip302)" style="stroke:#000000; stroke-linecap:round; stroke-linejoin:round; stroke-width:2; stroke-opacity:0.1; fill:none" points="156.274,223.749 2352.76,223.749 "/>
<polyline clip-path="url(#clip300)" style="stroke:#000000; stroke-linecap:round; stroke-linejoin:round; stroke-width:4; stroke-opacity:1; fill:none" points="156.274,1486.45 156.274,47.2441 "/>
<polyline clip-path="url(#clip300)" style="stroke:#000000; stroke-linecap:round; stroke-linejoin:round; stroke-width:4; stroke-opacity:1; fill:none" points="156.274,1309.94 175.172,1309.94 "/>
<polyline clip-path="url(#clip300)" style="stroke:#000000; stroke-linecap:round; stroke-linejoin:round; stroke-width:4; stroke-opacity:1; fill:none" points="156.274,1038.39 175.172,1038.39 "/>
<polyline clip-path="url(#clip300)" style="stroke:#000000; stroke-linecap:round; stroke-linejoin:round; stroke-width:4; stroke-opacity:1; fill:none" points="156.274,766.846 175.172,766.846 "/>
<polyline clip-path="url(#clip300)" style="stroke:#000000; stroke-linecap:round; stroke-linejoin:round; stroke-width:4; stroke-opacity:1; fill:none" points="156.274,495.297 175.172,495.297 "/>
<polyline clip-path="url(#clip300)" style="stroke:#000000; stroke-linecap:round; stroke-linejoin:round; stroke-width:4; stroke-opacity:1; fill:none" points="156.274,223.749 175.172,223.749 "/>
<path clip-path="url(#clip300)" d="M62.9365 1295.74 Q59.3254 1295.74 57.4967 1299.31 Q55.6912 1302.85 55.6912 1309.98 Q55.6912 1317.08 57.4967 1320.65 Q59.3254 1324.19 62.9365 1324.19 Q66.5707 1324.19 68.3763 1320.65 Q70.205 1317.08 70.205 1309.98 Q70.205 1302.85 68.3763 1299.31 Q66.5707 1295.74 62.9365 1295.74 M62.9365 1292.04 Q68.7467 1292.04 71.8022 1296.64 Q74.8809 1301.23 74.8809 1309.98 Q74.8809 1318.7 71.8022 1323.31 Q68.7467 1327.89 62.9365 1327.89 Q57.1264 1327.89 54.0477 1323.31 Q50.9921 1318.7 50.9921 1309.98 Q50.9921 1301.23 54.0477 1296.64 Q57.1264 1292.04 62.9365 1292.04 Z" fill="#000000" fill-rule="nonzero" fill-opacity="1" /><path clip-path="url(#clip300)" d="M83.0984 1321.34 L87.9827 1321.34 L87.9827 1327.22 L83.0984 1327.22 L83.0984 1321.34 Z" fill="#000000" fill-rule="nonzero" fill-opacity="1" /><path clip-path="url(#clip300)" d="M108.746 1308.08 Q105.598 1308.08 103.746 1310.23 Q101.918 1312.39 101.918 1316.14 Q101.918 1319.86 103.746 1322.04 Q105.598 1324.19 108.746 1324.19 Q111.895 1324.19 113.723 1322.04 Q115.575 1319.86 115.575 1316.14 Q115.575 1312.39 113.723 1310.23 Q111.895 1308.08 108.746 1308.08 M118.029 1293.43 L118.029 1297.69 Q116.27 1296.85 114.464 1296.41 Q112.682 1295.97 110.922 1295.97 Q106.293 1295.97 103.839 1299.1 Q101.409 1302.22 101.061 1308.54 Q102.427 1306.53 104.487 1305.46 Q106.547 1304.38 109.024 1304.38 Q114.233 1304.38 117.242 1307.55 Q120.274 1310.7 120.274 1316.14 Q120.274 1321.46 117.126 1324.68 Q113.978 1327.89 108.746 1327.89 Q102.751 1327.89 99.5798 1323.31 Q96.4085 1318.7 96.4085 1309.98 Q96.4085 1301.78 100.297 1296.92 Q104.186 1292.04 110.737 1292.04 Q112.496 1292.04 114.279 1292.39 Q116.084 1292.73 118.029 1293.43 Z" fill="#000000" fill-rule="nonzero" fill-opacity="1" /><path clip-path="url(#clip300)" d="M63.1911 1024.19 Q59.58 1024.19 57.7513 1027.76 Q55.9458 1031.3 55.9458 1038.43 Q55.9458 1045.54 57.7513 1049.1 Q59.58 1052.64 63.1911 1052.64 Q66.8254 1052.64 68.6309 1049.1 Q70.4596 1045.54 70.4596 1038.43 Q70.4596 1031.3 68.6309 1027.76 Q66.8254 1024.19 63.1911 1024.19 M63.1911 1020.49 Q69.0013 1020.49 72.0568 1025.1 Q75.1355 1029.68 75.1355 1038.43 Q75.1355 1047.16 72.0568 1051.76 Q69.0013 1056.35 63.1911 1056.35 Q57.381 1056.35 54.3023 1051.76 Q51.2468 1047.16 51.2468 1038.43 Q51.2468 1029.68 54.3023 1025.1 Q57.381 1020.49 63.1911 1020.49 Z" fill="#000000" fill-rule="nonzero" fill-opacity="1" /><path clip-path="url(#clip300)" d="M83.3531 1049.8 L88.2373 1049.8 L88.2373 1055.67 L83.3531 1055.67 L83.3531 1049.8 Z" fill="#000000" fill-rule="nonzero" fill-opacity="1" /><path clip-path="url(#clip300)" d="M108.422 1039.26 Q105.089 1039.26 103.168 1041.05 Q101.27 1042.83 101.27 1045.95 Q101.27 1049.08 103.168 1050.86 Q105.089 1052.64 108.422 1052.64 Q111.756 1052.64 113.677 1050.86 Q115.598 1049.05 115.598 1045.95 Q115.598 1042.83 113.677 1041.05 Q111.779 1039.26 108.422 1039.26 M103.746 1037.27 Q100.737 1036.53 99.0474 1034.47 Q97.3808 1032.41 97.3808 1029.45 Q97.3808 1025.3 100.321 1022.9 Q103.284 1020.49 108.422 1020.49 Q113.584 1020.49 116.524 1022.9 Q119.464 1025.3 119.464 1029.45 Q119.464 1032.41 117.774 1034.47 Q116.108 1036.53 113.121 1037.27 Q116.501 1038.06 118.376 1040.35 Q120.274 1042.64 120.274 1045.95 Q120.274 1050.98 117.195 1053.66 Q114.14 1056.35 108.422 1056.35 Q102.705 1056.35 99.6261 1053.66 Q96.5706 1050.98 96.5706 1045.95 Q96.5706 1042.64 98.4687 1040.35 Q100.367 1038.06 103.746 1037.27 M102.034 1029.89 Q102.034 1032.57 103.7 1034.08 Q105.39 1035.58 108.422 1035.58 Q111.432 1035.58 113.121 1034.08 Q114.834 1032.57 114.834 1029.89 Q114.834 1027.2 113.121 1025.7 Q111.432 1024.19 108.422 1024.19 Q105.39 1024.19 103.7 1025.7 Q102.034 1027.2 102.034 1029.89 Z" fill="#000000" fill-rule="nonzero" fill-opacity="1" /><path clip-path="url(#clip300)" d="M53.9088 780.191 L61.5476 780.191 L61.5476 753.825 L53.2375 755.492 L53.2375 751.233 L61.5013 749.566 L66.1772 749.566 L66.1772 780.191 L73.8161 780.191 L73.8161 784.126 L53.9088 784.126 L53.9088 780.191 Z" fill="#000000" fill-rule="nonzero" fill-opacity="1" /><path clip-path="url(#clip300)" d="M83.2605 778.246 L88.1447 778.246 L88.1447 784.126 L83.2605 784.126 L83.2605 778.246 Z" fill="#000000" fill-rule="nonzero" fill-opacity="1" /><path clip-path="url(#clip300)" d="M108.33 752.645 Q104.719 752.645 102.89 756.209 Q101.084 759.751 101.084 766.881 Q101.084 773.987 102.89 777.552 Q104.719 781.094 108.33 781.094 Q111.964 781.094 113.77 777.552 Q115.598 773.987 115.598 766.881 Q115.598 759.751 113.77 756.209 Q111.964 752.645 108.33 752.645 M108.33 748.941 Q114.14 748.941 117.195 753.547 Q120.274 758.131 120.274 766.881 Q120.274 775.608 117.195 780.214 Q114.14 784.797 108.33 784.797 Q102.52 784.797 99.4409 780.214 Q96.3854 775.608 96.3854 766.881 Q96.3854 758.131 99.4409 753.547 Q102.52 748.941 108.33 748.941 Z" fill="#000000" fill-rule="nonzero" fill-opacity="1" /><path clip-path="url(#clip300)" d="M55.506 508.642 L63.1448 508.642 L63.1448 482.277 L54.8347 483.943 L54.8347 479.684 L63.0985 478.017 L67.7744 478.017 L67.7744 508.642 L75.4133 508.642 L75.4133 512.577 L55.506 512.577 L55.506 508.642 Z" fill="#000000" fill-rule="nonzero" fill-opacity="1" /><path clip-path="url(#clip300)" d="M84.8577 506.698 L89.7419 506.698 L89.7419 512.577 L84.8577 512.577 L84.8577 506.698 Z" fill="#000000" fill-rule="nonzero" fill-opacity="1" /><path clip-path="url(#clip300)" d="M103.955 508.642 L120.274 508.642 L120.274 512.577 L98.3298 512.577 L98.3298 508.642 Q100.992 505.888 105.575 501.258 Q110.182 496.605 111.362 495.263 Q113.608 492.739 114.487 491.003 Q115.39 489.244 115.39 487.554 Q115.39 484.8 113.445 483.064 Q111.524 481.327 108.422 481.327 Q106.223 481.327 103.77 482.091 Q101.339 482.855 98.5613 484.406 L98.5613 479.684 Q101.385 478.55 103.839 477.971 Q106.293 477.392 108.33 477.392 Q113.7 477.392 116.895 480.077 Q120.089 482.763 120.089 487.253 Q120.089 489.383 119.279 491.304 Q118.492 493.202 116.385 495.795 Q115.807 496.466 112.705 499.684 Q109.603 502.878 103.955 508.642 Z" fill="#000000" fill-rule="nonzero" fill-opacity="1" /><path clip-path="url(#clip300)" d="M53.4227 237.093 L61.0615 237.093 L61.0615 210.728 L52.7514 212.395 L52.7514 208.135 L61.0152 206.469 L65.6911 206.469 L65.6911 237.093 L73.33 237.093 L73.33 241.029 L53.4227 241.029 L53.4227 237.093 Z" fill="#000000" fill-rule="nonzero" fill-opacity="1" /><path clip-path="url(#clip300)" d="M82.7744 235.149 L87.6586 235.149 L87.6586 241.029 L82.7744 241.029 L82.7744 235.149 Z" fill="#000000" fill-rule="nonzero" fill-opacity="1" /><path clip-path="url(#clip300)" d="M110.691 210.543 L98.8854 228.992 L110.691 228.992 L110.691 210.543 M109.464 206.469 L115.344 206.469 L115.344 228.992 L120.274 228.992 L120.274 232.881 L115.344 232.881 L115.344 241.029 L110.691 241.029 L110.691 232.881 L95.0891 232.881 L95.0891 228.367 L109.464 206.469 Z" fill="#000000" fill-rule="nonzero" fill-opacity="1" /><polyline clip-path="url(#clip302)" style="stroke:#009af9; stroke-linecap:round; stroke-linejoin:round; stroke-width:12; stroke-opacity:1; fill:none" points="218.439,766.85 254.234,840.404 312.153,957.182 347.948,1026.65 347.948,1026.63 383.744,1093.07 441.662,1192.06 477.458,1246.89 477.458,1246.85 513.253,1296.08 571.172,1362.21 606.967,1394.05 606.967,1394 642.763,1418.51 700.681,1441.72 736.477,1445.72 736.477,1445.67 772.272,1441.73 830.191,1418.48 865.986,1394.03 865.986,1394 901.782,1362.21 959.7,1296.04 995.496,1246.87 995.496,1246.85 1031.29,1192.05 1089.21,1093.03 1125.01,1026.62 1125.01,1026.62 1160.8,957.155 1218.72,840.369 1254.52,766.83 1254.52,766.842 1290.31,693.288 1348.23,576.51 1384.02,507.039 1384.02,507.067 1419.82,440.619 1477.74,341.629 1513.53,286.802 1513.53,286.84 1549.33,237.615 1607.25,171.482 1643.04,139.646 1643.04,139.69 1678.84,115.182 1736.76,91.9749 1772.55,87.9763 1772.55,88.0194 1808.35,91.9587 1866.27,115.21 1902.06,139.658 1902.06,139.694 1937.86,171.481 1995.78,237.651 2031.57,286.824 2031.57,286.846 2067.37,341.642 2125.29,440.658 2161.08,507.068 2161.08,507.074 2196.88,576.537 2254.8,693.323 2290.59,766.862 "/>
<path clip-path="url(#clip300)" d="M229.49 198.898 L842.632 198.898 L842.632 95.2176 L229.49 95.2176  Z" fill="#ffffff" fill-rule="evenodd" fill-opacity="1"/>
<polyline clip-path="url(#clip300)" style="stroke:#000000; stroke-linecap:round; stroke-linejoin:round; stroke-width:4; stroke-opacity:1; fill:none" points="229.49,198.898 842.632,198.898 842.632,95.2176 229.49,95.2176 229.49,198.898 "/>
<polyline clip-path="url(#clip300)" style="stroke:#009af9; stroke-linecap:round; stroke-linejoin:round; stroke-width:12; stroke-opacity:1; fill:none" points="253.896,147.058 400.328,147.058 "/>
<path clip-path="url(#clip300)" d="M443.159 139.176 L443.159 143.203 Q441.353 142.277 439.409 141.815 Q437.464 141.352 435.381 141.352 Q432.21 141.352 430.613 142.324 Q429.039 143.296 429.039 145.24 Q429.039 146.722 430.173 147.578 Q431.307 148.412 434.733 149.176 L436.191 149.5 Q440.728 150.472 442.626 152.254 Q444.548 154.014 444.548 157.185 Q444.548 160.796 441.677 162.902 Q438.83 165.009 433.83 165.009 Q431.747 165.009 429.478 164.592 Q427.233 164.199 424.733 163.388 L424.733 158.99 Q427.094 160.217 429.386 160.842 Q431.677 161.444 433.923 161.444 Q436.932 161.444 438.552 160.426 Q440.173 159.384 440.173 157.509 Q440.173 155.773 438.992 154.847 Q437.835 153.921 433.877 153.064 L432.395 152.717 Q428.437 151.884 426.677 150.171 Q424.918 148.435 424.918 145.426 Q424.918 141.768 427.511 139.778 Q430.103 137.787 434.872 137.787 Q437.233 137.787 439.316 138.134 Q441.4 138.481 443.159 139.176 Z" fill="#000000" fill-rule="nonzero" fill-opacity="1" /><path clip-path="url(#clip300)" d="M461.376 141.398 Q457.95 141.398 455.96 144.083 Q453.969 146.745 453.969 151.398 Q453.969 156.051 455.937 158.736 Q457.927 161.398 461.376 161.398 Q464.779 161.398 466.77 158.713 Q468.761 156.027 468.761 151.398 Q468.761 146.791 466.77 144.106 Q464.779 141.398 461.376 141.398 M461.376 137.787 Q466.932 137.787 470.103 141.398 Q473.274 145.009 473.274 151.398 Q473.274 157.764 470.103 161.398 Q466.932 165.009 461.376 165.009 Q455.798 165.009 452.626 161.398 Q449.478 157.764 449.478 151.398 Q449.478 145.009 452.626 141.398 Q455.798 137.787 461.376 137.787 Z" fill="#000000" fill-rule="nonzero" fill-opacity="1" /><path clip-path="url(#clip300)" d="M480.335 128.319 L484.594 128.319 L484.594 164.338 L480.335 164.338 L480.335 128.319 Z" fill="#000000" fill-rule="nonzero" fill-opacity="1" /><path clip-path="url(#clip300)" d="M493.066 154.106 L493.066 138.412 L497.325 138.412 L497.325 153.944 Q497.325 157.625 498.76 159.476 Q500.196 161.305 503.066 161.305 Q506.515 161.305 508.506 159.106 Q510.52 156.907 510.52 153.111 L510.52 138.412 L514.779 138.412 L514.779 164.338 L510.52 164.338 L510.52 160.356 Q508.969 162.717 506.909 163.875 Q504.872 165.009 502.163 165.009 Q497.696 165.009 495.381 162.231 Q493.066 159.453 493.066 154.106 M503.784 137.787 L503.784 137.787 Z" fill="#000000" fill-rule="nonzero" fill-opacity="1" /><path clip-path="url(#clip300)" d="M527.765 131.051 L527.765 138.412 L536.538 138.412 L536.538 141.722 L527.765 141.722 L527.765 155.796 Q527.765 158.967 528.621 159.87 Q529.501 160.773 532.163 160.773 L536.538 160.773 L536.538 164.338 L532.163 164.338 Q527.232 164.338 525.358 162.509 Q523.483 160.657 523.483 155.796 L523.483 141.722 L520.358 141.722 L520.358 138.412 L523.483 138.412 L523.483 131.051 L527.765 131.051 Z" fill="#000000" fill-rule="nonzero" fill-opacity="1" /><path clip-path="url(#clip300)" d="M542.14 138.412 L546.399 138.412 L546.399 164.338 L542.14 164.338 L542.14 138.412 M542.14 128.319 L546.399 128.319 L546.399 133.713 L542.14 133.713 L542.14 128.319 Z" fill="#000000" fill-rule="nonzero" fill-opacity="1" /><path clip-path="url(#clip300)" d="M565.357 141.398 Q561.931 141.398 559.941 144.083 Q557.95 146.745 557.95 151.398 Q557.95 156.051 559.918 158.736 Q561.908 161.398 565.357 161.398 Q568.76 161.398 570.751 158.713 Q572.742 156.027 572.742 151.398 Q572.742 146.791 570.751 144.106 Q568.76 141.398 565.357 141.398 M565.357 137.787 Q570.913 137.787 574.084 141.398 Q577.255 145.009 577.255 151.398 Q577.255 157.764 574.084 161.398 Q570.913 165.009 565.357 165.009 Q559.779 165.009 556.607 161.398 Q553.459 157.764 553.459 151.398 Q553.459 145.009 556.607 141.398 Q559.779 137.787 565.357 137.787 Z" fill="#000000" fill-rule="nonzero" fill-opacity="1" /><path clip-path="url(#clip300)" d="M605.866 148.689 L605.866 164.338 L601.607 164.338 L601.607 148.828 Q601.607 145.148 600.172 143.319 Q598.737 141.49 595.866 141.49 Q592.417 141.49 590.427 143.69 Q588.436 145.889 588.436 149.685 L588.436 164.338 L584.153 164.338 L584.153 138.412 L588.436 138.412 L588.436 142.44 Q589.964 140.102 592.024 138.944 Q594.107 137.787 596.815 137.787 Q601.283 137.787 603.575 140.565 Q605.866 143.319 605.866 148.689 Z" fill="#000000" fill-rule="nonzero" fill-opacity="1" /><path clip-path="url(#clip300)" d="M641.213 151.305 Q636.051 151.305 634.061 152.486 Q632.07 153.666 632.07 156.514 Q632.07 158.782 633.551 160.125 Q635.056 161.444 637.625 161.444 Q641.167 161.444 643.297 158.944 Q645.449 156.421 645.449 152.254 L645.449 151.305 L641.213 151.305 M649.709 149.546 L649.709 164.338 L645.449 164.338 L645.449 160.402 Q643.991 162.763 641.815 163.898 Q639.639 165.009 636.491 165.009 Q632.51 165.009 630.149 162.787 Q627.811 160.541 627.811 156.791 Q627.811 152.416 630.727 150.194 Q633.667 147.972 639.477 147.972 L645.449 147.972 L645.449 147.555 Q645.449 144.615 643.505 143.018 Q641.584 141.398 638.088 141.398 Q635.866 141.398 633.76 141.93 Q631.653 142.463 629.709 143.527 L629.709 139.592 Q632.047 138.69 634.246 138.25 Q636.445 137.787 638.528 137.787 Q644.153 137.787 646.931 140.703 Q649.709 143.62 649.709 149.546 Z" fill="#000000" fill-rule="nonzero" fill-opacity="1" /><path clip-path="url(#clip300)" d="M662.695 131.051 L662.695 138.412 L671.468 138.412 L671.468 141.722 L662.695 141.722 L662.695 155.796 Q662.695 158.967 663.551 159.87 Q664.431 160.773 667.093 160.773 L671.468 160.773 L671.468 164.338 L667.093 164.338 Q662.162 164.338 660.287 162.509 Q658.412 160.657 658.412 155.796 L658.412 141.722 L655.287 141.722 L655.287 138.412 L658.412 138.412 L658.412 131.051 L662.695 131.051 Z" fill="#000000" fill-rule="nonzero" fill-opacity="1" /><path clip-path="url(#clip300)" d="M696.352 131.051 L696.352 138.412 L705.125 138.412 L705.125 141.722 L696.352 141.722 L696.352 155.796 Q696.352 158.967 697.208 159.87 Q698.088 160.773 700.75 160.773 L705.125 160.773 L705.125 164.338 L700.75 164.338 Q695.82 164.338 693.945 162.509 Q692.07 160.657 692.07 155.796 L692.07 141.722 L688.945 141.722 L688.945 138.412 L692.07 138.412 L692.07 131.051 L696.352 131.051 Z" fill="#000000" fill-rule="nonzero" fill-opacity="1" /><path clip-path="url(#clip300)" d="M711.282 142.81 L740.958 142.81 L740.958 146.699 L711.282 146.699 L711.282 142.81 M711.282 152.254 L740.958 152.254 L740.958 156.189 L711.282 156.189 L711.282 152.254 Z" fill="#000000" fill-rule="nonzero" fill-opacity="1" /><path clip-path="url(#clip300)" d="M755.078 160.402 L771.398 160.402 L771.398 164.338 L749.454 164.338 L749.454 160.402 Q752.116 157.648 756.699 153.018 Q761.305 148.365 762.486 147.023 Q764.731 144.5 765.611 142.764 Q766.514 141.004 766.514 139.315 Q766.514 136.56 764.569 134.824 Q762.648 133.088 759.546 133.088 Q757.347 133.088 754.893 133.852 Q752.463 134.615 749.685 136.166 L749.685 131.444 Q752.509 130.31 754.963 129.731 Q757.416 129.153 759.453 129.153 Q764.824 129.153 768.018 131.838 Q771.213 134.523 771.213 139.014 Q771.213 141.143 770.402 143.065 Q769.615 144.963 767.509 147.555 Q766.93 148.227 763.828 151.444 Q760.727 154.639 755.078 160.402 Z" fill="#000000" fill-rule="nonzero" fill-opacity="1" /><path clip-path="url(#clip300)" d="M781.213 158.458 L786.097 158.458 L786.097 164.338 L781.213 164.338 L781.213 158.458 Z" fill="#000000" fill-rule="nonzero" fill-opacity="1" /><path clip-path="url(#clip300)" d="M806.282 132.856 Q802.671 132.856 800.842 136.421 Q799.037 139.963 799.037 147.092 Q799.037 154.199 800.842 157.764 Q802.671 161.305 806.282 161.305 Q809.916 161.305 811.722 157.764 Q813.55 154.199 813.55 147.092 Q813.55 139.963 811.722 136.421 Q809.916 132.856 806.282 132.856 M806.282 129.153 Q812.092 129.153 815.148 133.759 Q818.226 138.342 818.226 147.092 Q818.226 155.819 815.148 160.426 Q812.092 165.009 806.282 165.009 Q800.472 165.009 797.393 160.426 Q794.338 155.819 794.338 147.092 Q794.338 138.342 797.393 133.759 Q800.472 129.153 806.282 129.153 Z" fill="#000000" fill-rule="nonzero" fill-opacity="1" /></svg>
