<?xml version="1.0" encoding="utf-8"?>
<svg xmlns="http://www.w3.org/2000/svg" xmlns:xlink="http://www.w3.org/1999/xlink" width="600" height="400" viewBox="0 0 2400 1600">
<defs>
  <clipPath id="clip300">
    <rect x="0" y="0" width="2400" height="1600"/>
  </clipPath>
</defs>
<path clip-path="url(#clip300)" d="M0 1600 L2400 1600 L2400 0 L0 0  Z" fill="#ffffff" fill-rule="evenodd" fill-opacity="1"/>
<defs>
  <clipPath id="clip301">
    <rect x="480" y="0" width="1681" height="1600"/>
  </clipPath>
</defs>
<path clip-path="url(#clip300)" d="M216.598 1486.45 L2352.76 1486.45 L2352.76 47.2441 L216.598 47.2441  Z" fill="#ffffff" fill-rule="evenodd" fill-opacity="1"/>
<defs>
  <clipPath id="clip302">
    <rect x="216" y="47" width="2137" height="1440"/>
  </clipPath>
</defs>
<polyline clip-path="url(#clip302)" style="stroke:#000000; stroke-linecap:round; stroke-linejoin:round; stroke-width:2; stroke-opacity:0.1; fill:none" points="277.055,1486.45 277.055,47.2441 "/>
<polyline clip-path="url(#clip302)" style="stroke:#000000; stroke-linecap:round; stroke-linejoin:round; stroke-width:2; stroke-opacity:0.1; fill:none" points="780.866,1486.45 780.866,47.2441 "/>
<polyline clip-path="url(#clip302)" style="stroke:#000000; stroke-linecap:round; stroke-linejoin:round; stroke-width:2; stroke-opacity:0.1; fill:none" points="1284.68,1486.45 1284.68,47.2441 "/>
<polyline clip-path="url(#clip302)" style="stroke:#000000; stroke-linecap:round; stroke-linejoin:round; stroke-width:2; stroke-opacity:0.1; fill:none" points="1788.49,1486.45 1788.49,47.2441 "/>
<polyline clip-path="url(#clip302)" style="stroke:#000000; stroke-linecap:round; stroke-linejoin:round; stroke-width:2; stroke-opacity:0.1; fill:none" points="2292.3,1486.45 2292.3,47.2441 "/>
<polyline clip-path="url(#clip300)" style="stroke:#000000; stroke-linecap:round; stroke-linejoin:round; stroke-width:4; stroke-opacity:1; fill:none" points="216.598,1486.45 2352.76,1486.45 "/>
<polyline clip-path="url(#clip300)" style="stroke:#000000; stroke-linecap:round; stroke-linejoin:round; stroke-width:4; stroke-opacity:1; fill:none" points="277.055,1486.45 277.055,1467.55 "/>
<polyline clip-path="url(#clip300)" style="stroke:#000000; stroke-linecap:round; stroke-linejoin:round; stroke-width:4; stroke-opacity:1; fill:none" points="780.866,1486.45 780.866,1467.55 "/>
<polyline clip-path="url(#clip300)" style="stroke:#000000; stroke-linecap:round; stroke-linejoin:round; stroke-width:4; stroke-opacity:1; fill:none" points="1284.68,1486.45 1284.68,1467.55 "/>
<polyline clip-path="url(#clip300)" style="stroke:#000000; stroke-linecap:round; stroke-linejoin:round; stroke-width:4; stroke-opacity:1; fill:none" points="1788.49,1486.45 1788.49,1467.55 "/>
<polyline clip-path="url(#clip300)" style="stroke:#000000; stroke-linecap:round; stroke-linejoin:round; stroke-width:4; stroke-opacity:1; fill:none" points="2292.3,1486.45 2292.3,1467.55 "/>
<path clip-path="url(#clip300)" d="M239.359 1517.37 Q235.748 1517.37 233.919 1520.93 Q232.113 1524.47 232.113 1531.6 Q232.113 1538.71 233.919 1542.27 Q235.748 1545.82 239.359 1545.82 Q242.993 1545.82 244.798 1542.27 Q246.627 1538.71 246.627 1531.6 Q246.627 1524.47 244.798 1520.93 Q242.993 1517.37 239.359 1517.37 M239.359 1513.66 Q245.169 1513.66 248.224 1518.27 Q251.303 1522.85 251.303 1531.6 Q251.303 1540.33 248.224 1544.94 Q245.169 1549.52 239.359 1549.52 Q233.549 1549.52 230.47 1544.94 Q227.414 1540.33 227.414 1531.6 Q227.414 1522.85 230.47 1518.27 Q233.549 1513.66 239.359 1513.66 Z" fill="#000000" fill-rule="nonzero" fill-opacity="1" /><path clip-path="url(#clip300)" d="M259.521 1542.97 L264.405 1542.97 L264.405 1548.85 L259.521 1548.85 L259.521 1542.97 Z" fill="#000000" fill-rule="nonzero" fill-opacity="1" /><path clip-path="url(#clip300)" d="M274.729 1548.13 L274.729 1543.87 Q276.488 1544.7 278.294 1545.14 Q280.099 1545.58 281.835 1545.58 Q286.465 1545.58 288.895 1542.48 Q291.349 1539.36 291.696 1533.01 Q290.354 1535.01 288.294 1536.07 Q286.233 1537.13 283.733 1537.13 Q278.548 1537.13 275.516 1534.01 Q272.507 1530.86 272.507 1525.42 Q272.507 1520.1 275.655 1516.88 Q278.803 1513.66 284.034 1513.66 Q290.03 1513.66 293.178 1518.27 Q296.349 1522.85 296.349 1531.6 Q296.349 1539.77 292.46 1544.66 Q288.595 1549.52 282.044 1549.52 Q280.284 1549.52 278.479 1549.17 Q276.673 1548.82 274.729 1548.13 M284.034 1533.48 Q287.182 1533.48 289.011 1531.32 Q290.863 1529.17 290.863 1525.42 Q290.863 1521.7 289.011 1519.54 Q287.182 1517.37 284.034 1517.37 Q280.886 1517.37 279.034 1519.54 Q277.206 1521.7 277.206 1525.42 Q277.206 1529.17 279.034 1531.32 Q280.886 1533.48 284.034 1533.48 Z" fill="#000000" fill-rule="nonzero" fill-opacity="1" /><path clip-path="url(#clip300)" d="M314.752 1517.37 Q311.141 1517.37 309.312 1520.93 Q307.506 1524.47 307.506 1531.6 Q307.506 1538.71 309.312 1542.27 Q311.141 1545.82 314.752 1545.82 Q318.386 1545.82 320.192 1542.27 Q322.02 1538.71 322.02 1531.6 Q322.02 1524.47 320.192 1520.93 Q318.386 1517.37 314.752 1517.37 M314.752 1513.66 Q320.562 1513.66 323.617 1518.27 Q326.696 1522.85 326.696 1531.6 Q326.696 1540.33 323.617 1544.94 Q320.562 1549.52 314.752 1549.52 Q308.942 1549.52 305.863 1544.94 Q302.807 1540.33 302.807 1531.6 Q302.807 1522.85 305.863 1518.27 Q308.942 1513.66 314.752 1513.66 Z" fill="#000000" fill-rule="nonzero" fill-opacity="1" /><path clip-path="url(#clip300)" d="M743.667 1517.37 Q740.056 1517.37 738.227 1520.93 Q736.422 1524.47 736.422 1531.6 Q736.422 1538.71 738.227 1542.27 Q740.056 1545.82 743.667 1545.82 Q747.301 1545.82 749.107 1542.27 Q750.936 1538.71 750.936 1531.6 Q750.936 1524.47 749.107 1520.93 Q747.301 1517.37 743.667 1517.37 M743.667 1513.66 Q749.477 1513.66 752.533 1518.27 Q755.612 1522.85 755.612 1531.6 Q755.612 1540.33 752.533 1544.94 Q749.477 1549.52 743.667 1549.52 Q737.857 1549.52 734.778 1544.94 Q731.723 1540.33 731.723 1531.6 Q731.723 1522.85 734.778 1518.27 Q737.857 1513.66 743.667 1513.66 Z" fill="#000000" fill-rule="nonzero" fill-opacity="1" /><path clip-path="url(#clip300)" d="M763.829 1542.97 L768.713 1542.97 L768.713 1548.85 L763.829 1548.85 L763.829 1542.97 Z" fill="#000000" fill-rule="nonzero" fill-opacity="1" /><path clip-path="url(#clip300)" d="M779.037 1548.13 L779.037 1543.87 Q780.797 1544.7 782.602 1545.14 Q784.408 1545.58 786.144 1545.58 Q790.773 1545.58 793.204 1542.48 Q795.658 1539.36 796.005 1533.01 Q794.662 1535.01 792.602 1536.07 Q790.542 1537.13 788.042 1537.13 Q782.857 1537.13 779.824 1534.01 Q776.815 1530.86 776.815 1525.42 Q776.815 1520.1 779.963 1516.88 Q783.111 1513.66 788.343 1513.66 Q794.338 1513.66 797.486 1518.27 Q800.658 1522.85 800.658 1531.6 Q800.658 1539.77 796.769 1544.66 Q792.903 1549.52 786.352 1549.52 Q784.593 1549.52 782.787 1549.17 Q780.982 1548.82 779.037 1548.13 M788.343 1533.48 Q791.491 1533.48 793.32 1531.32 Q795.172 1529.17 795.172 1525.42 Q795.172 1521.7 793.32 1519.54 Q791.491 1517.37 788.343 1517.37 Q785.195 1517.37 783.343 1519.54 Q781.514 1521.7 781.514 1525.42 Q781.514 1529.17 783.343 1531.32 Q785.195 1533.48 788.343 1533.48 Z" fill="#000000" fill-rule="nonzero" fill-opacity="1" /><path clip-path="url(#clip300)" d="M809.107 1514.29 L827.463 1514.29 L827.463 1518.22 L813.389 1518.22 L813.389 1526.7 Q814.408 1526.35 815.426 1526.19 Q816.445 1526 817.463 1526 Q823.25 1526 826.63 1529.17 Q830.009 1532.34 830.009 1537.76 Q830.009 1543.34 826.537 1546.44 Q823.065 1549.52 816.745 1549.52 Q814.57 1549.52 812.301 1549.15 Q810.056 1548.78 807.648 1548.04 L807.648 1543.34 Q809.732 1544.47 811.954 1545.03 Q814.176 1545.58 816.653 1545.58 Q820.658 1545.58 822.995 1543.48 Q825.333 1541.37 825.333 1537.76 Q825.333 1534.15 822.995 1532.04 Q820.658 1529.94 816.653 1529.94 Q814.778 1529.94 812.903 1530.35 Q811.051 1530.77 809.107 1531.65 L809.107 1514.29 Z" fill="#000000" fill-rule="nonzero" fill-opacity="1" /><path clip-path="url(#clip300)" d="M1236.75 1544.91 L1244.39 1544.91 L1244.39 1518.55 L1236.08 1520.21 L1236.08 1515.95 L1244.34 1514.29 L1249.02 1514.29 L1249.02 1544.91 L1256.66 1544.91 L1256.66 1548.85 L1236.75 1548.85 L1236.75 1544.91 Z" fill="#000000" fill-rule="nonzero" fill-opacity="1" /><path clip-path="url(#clip300)" d="M1266.1 1542.97 L1270.98 1542.97 L1270.98 1548.85 L1266.1 1548.85 L1266.1 1542.97 Z" fill="#000000" fill-rule="nonzero" fill-opacity="1" /><path clip-path="url(#clip300)" d="M1291.17 1517.37 Q1287.56 1517.37 1285.73 1520.93 Q1283.92 1524.47 1283.92 1531.6 Q1283.92 1538.71 1285.73 1542.27 Q1287.56 1545.82 1291.17 1545.82 Q1294.8 1545.82 1296.61 1542.27 Q1298.44 1538.71 1298.44 1531.6 Q1298.44 1524.47 1296.61 1520.93 Q1294.8 1517.37 1291.17 1517.37 M1291.17 1513.66 Q1296.98 1513.66 1300.04 1518.27 Q1303.11 1522.85 1303.11 1531.6 Q1303.11 1540.33 1300.04 1544.94 Q1296.98 1549.52 1291.17 1549.52 Q1285.36 1549.52 1282.28 1544.94 Q1279.23 1540.33 1279.23 1531.6 Q1279.23 1522.85 1282.28 1518.27 Q1285.36 1513.66 1291.17 1513.66 Z" fill="#000000" fill-rule="nonzero" fill-opacity="1" /><path clip-path="url(#clip300)" d="M1321.33 1517.37 Q1317.72 1517.37 1315.89 1520.93 Q1314.09 1524.47 1314.09 1531.6 Q1314.09 1538.71 1315.89 1542.27 Q1317.72 1545.82 1321.33 1545.82 Q1324.97 1545.82 1326.77 1542.27 Q1328.6 1538.71 1328.6 1531.6 Q1328.6 1524.47 1326.77 1520.93 Q1324.97 1517.37 1321.33 1517.37 M1321.33 1513.66 Q1327.14 1513.66 1330.2 1518.27 Q1333.28 1522.85 1333.28 1531.6 Q1333.28 1540.33 1330.2 1544.94 Q1327.14 1549.52 1321.33 1549.52 Q1315.52 1549.52 1312.44 1544.94 Q1309.39 1540.33 1309.39 1531.6 Q1309.39 1522.85 1312.44 1518.27 Q1315.52 1513.66 1321.33 1513.66 Z" fill="#000000" fill-rule="nonzero" fill-opacity="1" /><path clip-path="url(#clip300)" d="M1741.06 1544.91 L1748.7 1544.91 L1748.7 1518.55 L1740.39 1520.21 L1740.39 1515.95 L1748.65 1514.29 L1753.33 1514.29 L1753.33 1544.91 L1760.96 1544.91 L1760.96 1548.85 L1741.06 1548.85 L1741.06 1544.91 Z" fill="#000000" fill-rule="nonzero" fill-opacity="1" /><path clip-path="url(#clip300)" d="M1770.41 1542.97 L1775.29 1542.97 L1775.29 1548.85 L1770.41 1548.85 L1770.41 1542.97 Z" fill="#000000" fill-rule="nonzero" fill-opacity="1" /><path clip-path="url(#clip300)" d="M1795.48 1517.37 Q1791.87 1517.37 1790.04 1520.93 Q1788.23 1524.47 1788.23 1531.6 Q1788.23 1538.71 1790.04 1542.27 Q1791.87 1545.82 1795.48 1545.82 Q1799.11 1545.82 1800.92 1542.27 Q1802.75 1538.71 1802.75 1531.6 Q1802.75 1524.47 1800.92 1520.93 Q1799.11 1517.37 1795.48 1517.37 M1795.48 1513.66 Q1801.29 1513.66 1804.34 1518.27 Q1807.42 1522.85 1807.42 1531.6 Q1807.42 1540.33 1804.34 1544.94 Q1801.29 1549.52 1795.48 1549.52 Q1789.67 1549.52 1786.59 1544.94 Q1783.53 1540.33 1783.53 1531.6 Q1783.53 1522.85 1786.59 1518.27 Q1789.67 1513.66 1795.48 1513.66 Z" fill="#000000" fill-rule="nonzero" fill-opacity="1" /><path clip-path="url(#clip300)" d="M1815.69 1514.29 L1834.04 1514.29 L1834.04 1518.22 L1819.97 1518.22 L1819.97 1526.7 Q1820.99 1526.35 1822.01 1526.19 Q1823.02 1526 1824.04 1526 Q1829.83 1526 1833.21 1529.17 Q1836.59 1532.34 1836.59 1537.76 Q1836.59 1543.34 1833.12 1546.44 Q1829.64 1549.52 1823.33 1549.52 Q1821.15 1549.52 1818.88 1549.15 Q1816.64 1548.78 1814.23 1548.04 L1814.23 1543.34 Q1816.31 1544.47 1818.53 1545.03 Q1820.76 1545.58 1823.23 1545.58 Q1827.24 1545.58 1829.58 1543.48 Q1831.91 1541.37 1831.91 1537.76 Q1831.91 1534.15 1829.58 1532.04 Q1827.24 1529.94 1823.23 1529.94 Q1821.36 1529.94 1819.48 1530.35 Q1817.63 1530.77 1815.69 1531.65 L1815.69 1514.29 Z" fill="#000000" fill-rule="nonzero" fill-opacity="1" /><path clip-path="url(#clip300)" d="M2244.37 1544.91 L2252.01 1544.91 L2252.01 1518.55 L2243.7 1520.21 L2243.7 1515.95 L2251.96 1514.29 L2256.64 1514.29 L2256.64 1544.91 L2264.28 1544.91 L2264.28 1548.85 L2244.37 1548.85 L2244.37 1544.91 Z" fill="#000000" fill-rule="nonzero" fill-opacity="1" /><path clip-path="url(#clip300)" d="M2273.72 1542.97 L2278.61 1542.97 L2278.61 1548.85 L2273.72 1548.85 L2273.72 1542.97 Z" fill="#000000" fill-rule="nonzero" fill-opacity="1" /><path clip-path="url(#clip300)" d="M2289.6 1544.91 L2297.24 1544.91 L2297.24 1518.55 L2288.93 1520.21 L2288.93 1515.95 L2297.19 1514.29 L2301.87 1514.29 L2301.87 1544.91 L2309.51 1544.91 L2309.51 1548.85 L2289.6 1548.85 L2289.6 1544.91 Z" fill="#000000" fill-rule="nonzero" fill-opacity="1" /><path clip-path="url(#clip300)" d="M2328.95 1517.37 Q2325.34 1517.37 2323.51 1520.93 Q2321.71 1524.47 2321.71 1531.6 Q2321.71 1538.71 2323.51 1542.27 Q2325.34 1545.82 2328.95 1545.82 Q2332.59 1545.82 2334.39 1542.27 Q2336.22 1538.71 2336.22 1531.6 Q2336.22 1524.47 2334.39 1520.93 Q2332.59 1517.37 2328.95 1517.37 M2328.95 1513.66 Q2334.76 1513.66 2337.82 1518.27 Q2340.9 1522.85 2340.9 1531.6 Q2340.9 1540.33 2337.82 1544.94 Q2334.76 1549.52 2328.95 1549.52 Q2323.14 1549.52 2320.06 1544.94 Q2317.01 1540.33 2317.01 1531.6 Q2317.01 1522.85 2320.06 1518.27 Q2323.14 1513.66 2328.95 1513.66 Z" fill="#000000" fill-rule="nonzero" fill-opacity="1" /><polyline clip-path="url(#clip302)" style="stroke:#000000; stroke-linecap:round; stroke-linejoin:round; stroke-width:2; stroke-opacity:0.1; fill:none" points="216.598,1299.68 2352.76,1299.68 "/>
<polyline clip-path="url(#clip302)" style="stroke:#000000; stroke-linecap:round; stroke-linejoin:round; stroke-width:2; stroke-opacity:0.1; fill:none" points="216.598,988.208 2352.76,988.208 "/>
<polyline clip-path="url(#clip302)" style="stroke:#000000; stroke-linecap:round; stroke-linejoin:round; stroke-width:2; stroke-opacity:0.1; fill:none" points="216.598,676.737 2352.76,676.737 "/>
<polyline clip-path="url(#clip302)" style="stroke:#000000; stroke-linecap:round; stroke-linejoin:round; stroke-width:2; stroke-opacity:0.1; fill:none" points="216.598,365.267 2352.76,365.267 "/>
<polyline clip-path="url(#clip302)" style="stroke:#000000; stroke-linecap:round; stroke-linejoin:round; stroke-width:2; stroke-opacity:0.1; fill:none" points="216.598,53.7966 2352.76,53.7966 "/>
<polyline clip-path="url(#clip300)" style="stroke:#000000; stroke-linecap:round; stroke-linejoin:round; stroke-width:4; stroke-opacity:1; fill:none" points="216.598,1486.45 216.598,47.2441 "/>
<polyline clip-path="url(#clip300)" style="stroke:#000000; stroke-linecap:round; stroke-linejoin:round; stroke-width:4; stroke-opacity:1; fill:none" points="216.598,1299.68 235.496,1299.68 "/>
<polyline clip-path="url(#clip300)" style="stroke:#000000; stroke-linecap:round; stroke-linejoin:round; stroke-width:4; stroke-opacity:1; fill:none" points="216.598,988.208 235.496,988.208 "/>
<polyline clip-path="url(#clip300)" style="stroke:#000000; stroke-linecap:round; stroke-linejoin:round; stroke-width:4; stroke-opacity:1; fill:none" points="216.598,676.737 235.496,676.737 "/>
<polyline clip-path="url(#clip300)" style="stroke:#000000; stroke-linecap:round; stroke-linejoin:round; stroke-width:4; stroke-opacity:1; fill:none" points="216.598,365.267 235.496,365.267 "/>
<polyline clip-path="url(#clip300)" style="stroke:#000000; stroke-linecap:round; stroke-linejoin:round; stroke-width:4; stroke-opacity:1; fill:none" points="216.598,53.7966 235.496,53.7966 "/>
<path clip-path="url(#clip300)" d="M62.9365 1285.48 Q59.3254 1285.48 57.4967 1289.04 Q55.6912 1292.58 55.6912 1299.71 Q55.6912 1306.82 57.4967 1310.38 Q59.3254 1313.93 62.9365 1313.93 Q66.5707 1313.93 68.3763 1310.38 Q70.205 1306.82 70.205 1299.71 Q70.205 1292.58 68.3763 1289.04 Q66.5707 1285.48 62.9365 1285.48 M62.9365 1281.77 Q68.7467 1281.77 71.8022 1286.38 Q74.8809 1290.96 74.8809 1299.71 Q74.8809 1308.44 71.8022 1313.05 Q68.7467 1317.63 62.9365 1317.63 Q57.1264 1317.63 54.0477 1313.05 Q50.9921 1308.44 50.9921 1299.71 Q50.9921 1290.96 54.0477 1286.38 Q57.1264 1281.77 62.9365 1281.77 Z" fill="#000000" fill-rule="nonzero" fill-opacity="1" /><path clip-path="url(#clip300)" d="M83.0984 1311.08 L87.9827 1311.08 L87.9827 1316.96 L83.0984 1316.96 L83.0984 1311.08 Z" fill="#000000" fill-rule="nonzero" fill-opacity="1" /><path clip-path="url(#clip300)" d="M102.196 1313.02 L118.515 1313.02 L118.515 1316.96 L96.5706 1316.96 L96.5706 1313.02 Q99.2326 1310.27 103.816 1305.64 Q108.422 1300.99 109.603 1299.64 Q111.848 1297.12 112.728 1295.38 Q113.631 1293.62 113.631 1291.93 Q113.631 1289.18 111.686 1287.44 Q109.765 1285.71 106.663 1285.71 Q104.464 1285.71 102.01 1286.47 Q99.5798 1287.24 96.8021 1288.79 L96.8021 1284.06 Q99.6261 1282.93 102.08 1282.35 Q104.534 1281.77 106.571 1281.77 Q111.941 1281.77 115.135 1284.46 Q118.33 1287.14 118.33 1291.63 Q118.33 1293.76 117.52 1295.68 Q116.733 1297.58 114.626 1300.18 Q114.047 1300.85 110.946 1304.06 Q107.844 1307.26 102.196 1313.02 Z" fill="#000000" fill-rule="nonzero" fill-opacity="1" /><path clip-path="url(#clip300)" d="M141.177 1286.47 L129.371 1304.92 L141.177 1304.92 L141.177 1286.47 M139.95 1282.4 L145.83 1282.4 L145.83 1304.92 L150.76 1304.92 L150.76 1308.81 L145.83 1308.81 L145.83 1316.96 L141.177 1316.96 L141.177 1308.81 L125.575 1308.81 L125.575 1304.3 L139.95 1282.4 Z" fill="#000000" fill-rule="nonzero" fill-opacity="1" /><path clip-path="url(#clip300)" d="M169.07 1297.81 Q165.922 1297.81 164.07 1299.97 Q162.242 1302.12 162.242 1305.87 Q162.242 1309.6 164.07 1311.77 Q165.922 1313.93 169.07 1313.93 Q172.218 1313.93 174.047 1311.77 Q175.899 1309.6 175.899 1305.87 Q175.899 1302.12 174.047 1299.97 Q172.218 1297.81 169.07 1297.81 M178.353 1283.16 L178.353 1287.42 Q176.593 1286.59 174.788 1286.15 Q173.005 1285.71 171.246 1285.71 Q166.617 1285.71 164.163 1288.83 Q161.732 1291.96 161.385 1298.28 Q162.751 1296.26 164.811 1295.2 Q166.871 1294.11 169.348 1294.11 Q174.556 1294.11 177.566 1297.28 Q180.598 1300.43 180.598 1305.87 Q180.598 1311.19 177.45 1314.41 Q174.302 1317.63 169.07 1317.63 Q163.075 1317.63 159.904 1313.05 Q156.732 1308.44 156.732 1299.71 Q156.732 1291.52 160.621 1286.66 Q164.51 1281.77 171.061 1281.77 Q172.82 1281.77 174.603 1282.12 Q176.408 1282.47 178.353 1283.16 Z" fill="#000000" fill-rule="nonzero" fill-opacity="1" /><path clip-path="url(#clip300)" d="M64.0013 974.006 Q60.3902 974.006 58.5615 977.571 Q56.756 981.113 56.756 988.242 Q56.756 995.349 58.5615 998.914 Q60.3902 1002.46 64.0013 1002.46 Q67.6356 1002.46 69.4411 998.914 Q71.2698 995.349 71.2698 988.242 Q71.2698 981.113 69.4411 977.571 Q67.6356 974.006 64.0013 974.006 M64.0013 970.303 Q69.8115 970.303 72.867 974.909 Q75.9457 979.492 75.9457 988.242 Q75.9457 996.969 72.867 1001.58 Q69.8115 1006.16 64.0013 1006.16 Q58.1912 1006.16 55.1125 1001.58 Q52.0569 996.969 52.0569 988.242 Q52.0569 979.492 55.1125 974.909 Q58.1912 970.303 64.0013 970.303 Z" fill="#000000" fill-rule="nonzero" fill-opacity="1" /><path clip-path="url(#clip300)" d="M84.1632 999.608 L89.0475 999.608 L89.0475 1005.49 L84.1632 1005.49 L84.1632 999.608 Z" fill="#000000" fill-rule="nonzero" fill-opacity="1" /><path clip-path="url(#clip300)" d="M103.26 1001.55 L119.58 1001.55 L119.58 1005.49 L97.6354 1005.49 L97.6354 1001.55 Q100.297 998.798 104.881 994.168 Q109.487 989.515 110.668 988.173 Q112.913 985.65 113.793 983.914 Q114.695 982.154 114.695 980.465 Q114.695 977.71 112.751 975.974 Q110.83 974.238 107.728 974.238 Q105.529 974.238 103.075 975.002 Q100.645 975.766 97.8669 977.316 L97.8669 972.594 Q100.691 971.46 103.145 970.881 Q105.598 970.303 107.635 970.303 Q113.006 970.303 116.2 972.988 Q119.395 975.673 119.395 980.164 Q119.395 982.293 118.584 984.215 Q117.797 986.113 115.691 988.705 Q115.112 989.377 112.01 992.594 Q108.908 995.789 103.26 1001.55 Z" fill="#000000" fill-rule="nonzero" fill-opacity="1" /><path clip-path="url(#clip300)" d="M142.242 975.002 L130.436 993.451 L142.242 993.451 L142.242 975.002 M141.015 970.928 L146.894 970.928 L146.894 993.451 L151.825 993.451 L151.825 997.34 L146.894 997.34 L146.894 1005.49 L142.242 1005.49 L142.242 997.34 L126.64 997.34 L126.64 992.826 L141.015 970.928 Z" fill="#000000" fill-rule="nonzero" fill-opacity="1" /><path clip-path="url(#clip300)" d="M158.376 970.928 L180.598 970.928 L180.598 972.918 L168.052 1005.49 L163.167 1005.49 L174.973 974.863 L158.376 974.863 L158.376 970.928 Z" fill="#000000" fill-rule="nonzero" fill-opacity="1" /><path clip-path="url(#clip300)" d="M63.1911 662.536 Q59.58 662.536 57.7513 666.101 Q55.9458 669.642 55.9458 676.772 Q55.9458 683.878 57.7513 687.443 Q59.58 690.985 63.1911 690.985 Q66.8254 690.985 68.6309 687.443 Q70.4596 683.878 70.4596 676.772 Q70.4596 669.642 68.6309 666.101 Q66.8254 662.536 63.1911 662.536 M63.1911 658.832 Q69.0013 658.832 72.0568 663.439 Q75.1355 668.022 75.1355 676.772 Q75.1355 685.499 72.0568 690.105 Q69.0013 694.689 63.1911 694.689 Q57.381 694.689 54.3023 690.105 Q51.2468 685.499 51.2468 676.772 Q51.2468 668.022 54.3023 663.439 Q57.381 658.832 63.1911 658.832 Z" fill="#000000" fill-rule="nonzero" fill-opacity="1" /><path clip-path="url(#clip300)" d="M83.3531 688.138 L88.2373 688.138 L88.2373 694.017 L83.3531 694.017 L83.3531 688.138 Z" fill="#000000" fill-rule="nonzero" fill-opacity="1" /><path clip-path="url(#clip300)" d="M102.45 690.082 L118.77 690.082 L118.77 694.017 L96.8252 694.017 L96.8252 690.082 Q99.4872 687.327 104.071 682.698 Q108.677 678.045 109.858 676.703 Q112.103 674.179 112.983 672.443 Q113.885 670.684 113.885 668.994 Q113.885 666.24 111.941 664.504 Q110.02 662.767 106.918 662.767 Q104.719 662.767 102.265 663.531 Q99.8345 664.295 97.0567 665.846 L97.0567 661.124 Q99.8808 659.99 102.334 659.411 Q104.788 658.832 106.825 658.832 Q112.196 658.832 115.39 661.517 Q118.584 664.203 118.584 668.693 Q118.584 670.823 117.774 672.744 Q116.987 674.642 114.881 677.235 Q114.302 677.906 111.2 681.124 Q108.098 684.318 102.45 690.082 Z" fill="#000000" fill-rule="nonzero" fill-opacity="1" /><path clip-path="url(#clip300)" d="M141.431 663.531 L129.626 681.98 L141.431 681.98 L141.431 663.531 M140.205 659.457 L146.084 659.457 L146.084 681.98 L151.015 681.98 L151.015 685.869 L146.084 685.869 L146.084 694.017 L141.431 694.017 L141.431 685.869 L125.83 685.869 L125.83 681.355 L140.205 659.457 Z" fill="#000000" fill-rule="nonzero" fill-opacity="1" /><path clip-path="url(#clip300)" d="M168.746 677.605 Q165.413 677.605 163.492 679.388 Q161.593 681.17 161.593 684.295 Q161.593 687.42 163.492 689.202 Q165.413 690.985 168.746 690.985 Q172.079 690.985 174.001 689.202 Q175.922 687.397 175.922 684.295 Q175.922 681.17 174.001 679.388 Q172.103 677.605 168.746 677.605 M164.07 675.615 Q161.061 674.874 159.371 672.814 Q157.705 670.754 157.705 667.791 Q157.705 663.647 160.644 661.24 Q163.607 658.832 168.746 658.832 Q173.908 658.832 176.848 661.24 Q179.788 663.647 179.788 667.791 Q179.788 670.754 178.098 672.814 Q176.431 674.874 173.445 675.615 Q176.825 676.402 178.7 678.693 Q180.598 680.985 180.598 684.295 Q180.598 689.318 177.519 692.003 Q174.464 694.689 168.746 694.689 Q163.029 694.689 159.95 692.003 Q156.894 689.318 156.894 684.295 Q156.894 680.985 158.792 678.693 Q160.691 676.402 164.07 675.615 M162.357 668.23 Q162.357 670.916 164.024 672.42 Q165.714 673.925 168.746 673.925 Q171.755 673.925 173.445 672.42 Q175.158 670.916 175.158 668.23 Q175.158 665.545 173.445 664.041 Q171.755 662.536 168.746 662.536 Q165.714 662.536 164.024 664.041 Q162.357 665.545 162.357 668.23 Z" fill="#000000" fill-rule="nonzero" fill-opacity="1" /><path clip-path="url(#clip300)" d="M63.2837 351.066 Q59.6726 351.066 57.8439 354.63 Q56.0384 358.172 56.0384 365.302 Q56.0384 372.408 57.8439 375.973 Q59.6726 379.515 63.2837 379.515 Q66.918 379.515 68.7235 375.973 Q70.5522 372.408 70.5522 365.302 Q70.5522 358.172 68.7235 354.63 Q66.918 351.066 63.2837 351.066 M63.2837 347.362 Q69.0939 347.362 72.1494 351.968 Q75.2281 356.552 75.2281 365.302 Q75.2281 374.028 72.1494 378.635 Q69.0939 383.218 63.2837 383.218 Q57.4736 383.218 54.3949 378.635 Q51.3393 374.028 51.3393 365.302 Q51.3393 356.552 54.3949 351.968 Q57.4736 347.362 63.2837 347.362 Z" fill="#000000" fill-rule="nonzero" fill-opacity="1" /><path clip-path="url(#clip300)" d="M83.4457 376.667 L88.3299 376.667 L88.3299 382.547 L83.4457 382.547 L83.4457 376.667 Z" fill="#000000" fill-rule="nonzero" fill-opacity="1" /><path clip-path="url(#clip300)" d="M102.543 378.612 L118.862 378.612 L118.862 382.547 L96.9178 382.547 L96.9178 378.612 Q99.5798 375.857 104.163 371.228 Q108.77 366.575 109.95 365.232 Q112.196 362.709 113.075 360.973 Q113.978 359.214 113.978 357.524 Q113.978 354.769 112.033 353.033 Q110.112 351.297 107.01 351.297 Q104.811 351.297 102.358 352.061 Q99.927 352.825 97.1493 354.376 L97.1493 349.654 Q99.9733 348.519 102.427 347.941 Q104.881 347.362 106.918 347.362 Q112.288 347.362 115.483 350.047 Q118.677 352.732 118.677 357.223 Q118.677 359.353 117.867 361.274 Q117.08 363.172 114.973 365.765 Q114.395 366.436 111.293 369.653 Q108.191 372.848 102.543 378.612 Z" fill="#000000" fill-rule="nonzero" fill-opacity="1" /><path clip-path="url(#clip300)" d="M141.524 352.061 L129.719 370.51 L141.524 370.51 L141.524 352.061 M140.297 347.987 L146.177 347.987 L146.177 370.51 L151.107 370.51 L151.107 374.399 L146.177 374.399 L146.177 382.547 L141.524 382.547 L141.524 374.399 L125.922 374.399 L125.922 369.885 L140.297 347.987 Z" fill="#000000" fill-rule="nonzero" fill-opacity="1" /><path clip-path="url(#clip300)" d="M158.978 381.829 L158.978 377.57 Q160.737 378.403 162.542 378.843 Q164.348 379.283 166.084 379.283 Q170.714 379.283 173.144 376.181 Q175.598 373.056 175.945 366.714 Q174.603 368.704 172.542 369.769 Q170.482 370.834 167.982 370.834 Q162.797 370.834 159.765 367.709 Q156.755 364.561 156.755 359.121 Q156.755 353.797 159.904 350.579 Q163.052 347.362 168.283 347.362 Q174.279 347.362 177.427 351.968 Q180.598 356.552 180.598 365.302 Q180.598 373.473 176.709 378.357 Q172.843 383.218 166.292 383.218 Q164.533 383.218 162.728 382.871 Q160.922 382.524 158.978 381.829 M168.283 367.177 Q171.431 367.177 173.26 365.024 Q175.112 362.871 175.112 359.121 Q175.112 355.394 173.26 353.242 Q171.431 351.066 168.283 351.066 Q165.135 351.066 163.283 353.242 Q161.454 355.394 161.454 359.121 Q161.454 362.871 163.283 365.024 Q165.135 367.177 168.283 367.177 Z" fill="#000000" fill-rule="nonzero" fill-opacity="1" /><path clip-path="url(#clip300)" d="M63.0985 39.5953 Q59.4875 39.5953 57.6588 43.16 Q55.8532 46.7017 55.8532 53.8313 Q55.8532 60.9377 57.6588 64.5025 Q59.4875 68.0442 63.0985 68.0442 Q66.7328 68.0442 68.5383 64.5025 Q70.367 60.9377 70.367 53.8313 Q70.367 46.7017 68.5383 43.16 Q66.7328 39.5953 63.0985 39.5953 M63.0985 35.8916 Q68.9087 35.8916 71.9642 40.498 Q75.0429 45.0813 75.0429 53.8313 Q75.0429 62.5581 71.9642 67.1645 Q68.9087 71.7479 63.0985 71.7479 Q57.2884 71.7479 54.2097 67.1645 Q51.1542 62.5581 51.1542 53.8313 Q51.1542 45.0813 54.2097 40.498 Q57.2884 35.8916 63.0985 35.8916 Z" fill="#000000" fill-rule="nonzero" fill-opacity="1" /><path clip-path="url(#clip300)" d="M83.2605 65.197 L88.1447 65.197 L88.1447 71.0766 L83.2605 71.0766 L83.2605 65.197 Z" fill="#000000" fill-rule="nonzero" fill-opacity="1" /><path clip-path="url(#clip300)" d="M102.358 67.1414 L118.677 67.1414 L118.677 71.0766 L96.7326 71.0766 L96.7326 67.1414 Q99.3946 64.3868 103.978 59.7572 Q108.584 55.1044 109.765 53.7618 Q112.01 51.2387 112.89 49.5026 Q113.793 47.7434 113.793 46.0535 Q113.793 43.2989 111.848 41.5628 Q109.927 39.8267 106.825 39.8267 Q104.626 39.8267 102.172 40.5906 Q99.7419 41.3545 96.9641 42.9054 L96.9641 38.1832 Q99.7882 37.049 102.242 36.4703 Q104.696 35.8916 106.733 35.8916 Q112.103 35.8916 115.297 38.5767 Q118.492 41.2619 118.492 45.7526 Q118.492 47.8822 117.682 49.8035 Q116.895 51.7017 114.788 54.2942 Q114.209 54.9655 111.108 58.1831 Q108.006 61.3775 102.358 67.1414 Z" fill="#000000" fill-rule="nonzero" fill-opacity="1" /><path clip-path="url(#clip300)" d="M128.538 36.5166 L146.894 36.5166 L146.894 40.4517 L132.82 40.4517 L132.82 48.9239 Q133.839 48.5767 134.857 48.4146 Q135.876 48.2295 136.894 48.2295 Q142.681 48.2295 146.061 51.4007 Q149.441 54.572 149.441 59.9887 Q149.441 65.5673 145.968 68.6692 Q142.496 71.7479 136.177 71.7479 Q134.001 71.7479 131.732 71.3775 Q129.487 71.0071 127.08 70.2664 L127.08 65.5673 Q129.163 66.7016 131.385 67.2571 Q133.607 67.8127 136.084 67.8127 Q140.089 67.8127 142.427 65.7062 Q144.765 63.5998 144.765 59.9887 Q144.765 56.3776 142.427 54.2711 Q140.089 52.1646 136.084 52.1646 Q134.209 52.1646 132.334 52.5813 Q130.482 52.998 128.538 53.8776 L128.538 36.5166 Z" fill="#000000" fill-rule="nonzero" fill-opacity="1" /><path clip-path="url(#clip300)" d="M168.654 39.5953 Q165.042 39.5953 163.214 43.16 Q161.408 46.7017 161.408 53.8313 Q161.408 60.9377 163.214 64.5025 Q165.042 68.0442 168.654 68.0442 Q172.288 68.0442 174.093 64.5025 Q175.922 60.9377 175.922 53.8313 Q175.922 46.7017 174.093 43.16 Q172.288 39.5953 168.654 39.5953 M168.654 35.8916 Q174.464 35.8916 177.519 40.498 Q180.598 45.0813 180.598 53.8313 Q180.598 62.5581 177.519 67.1645 Q174.464 71.7479 168.654 71.7479 Q162.843 71.7479 159.765 67.1645 Q156.709 62.5581 156.709 53.8313 Q156.709 45.0813 159.765 40.498 Q162.843 35.8916 168.654 35.8916 Z" fill="#000000" fill-rule="nonzero" fill-opacity="1" /><polyline clip-path="url(#clip302)" style="stroke:#009af9; stroke-linecap:round; stroke-linejoin:round; stroke-width:4; stroke-opacity:1; fill:none" points="277.055,1445.72 297.208,1394.17 317.36,1342.72 337.513,1292.4 357.665,1242.82 377.817,1194.43 397.97,1146.29 418.122,1099.25 438.275,1053.15 458.427,1007.95 478.58,963.696 498.732,920.64 518.884,878.158 539.037,836.722 559.189,796.357 579.342,756.934 599.494,718.673 619.647,681.38 639.799,645.173 659.951,609.684 680.104,575.719 700.256,542.209 720.409,510.391 740.561,479.43 760.714,449.089 780.866,420.216 801.018,393.109 821.171,365.819 841.323,340.525 861.476,316.391 881.628,292.472 901.781,271.293 921.933,249.788 942.086,230.287 962.238,211.53 982.39,194.837 1002.54,178.07 1022.7,163.714 1042.85,149.725 1063,137.253 1083.15,126.444 1103.31,117.077 1123.46,107.325 1143.61,100.971 1163.76,95.1316 1183.91,91.2697 1204.07,89.478 1224.22,89.5419 1244.37,92.6725 1264.52,95.1794 1284.68,98.7077 1304.83,94.6111 1324.98,90.4934 1345.13,88.5284 1365.29,87.9763 1385.44,88.9317 1405.59,92.5507 1425.74,97.5664 1445.9,104.272 1466.05,112.282 1486.2,121.495 1506.35,132.402 1526.51,144.293 1546.66,156.921 1566.81,171.079 1586.96,185.986 1607.12,202.676 1627.27,219.955 1647.42,238.042 1667.57,257.402 1687.73,277.772 1707.88,298.978 1728.03,321.273 1748.18,344.241 1768.34,368.37 1788.49,393.588 1808.64,419.619 1828.79,446.584 1848.95,474.225 1869.1,502.869 1889.25,532.384 1909.4,563.021 1929.55,593.997 1949.71,625.419 1969.86,658.14 1990.01,691.946 2010.16,726.34 2030.32,761.349 2050.47,797.158 2070.62,833.154 2090.77,870.386 2110.93,908.095 2131.08,946.995 2151.23,985.997 2171.38,1026.71 2191.54,1067.48 2211.69,1108.98 2231.84,1151.1 2251.99,1193.72 2272.15,1236.93 2292.3,1280.62 "/>
<path clip-path="url(#clip300)" d="M1908.03 198.898 L2281.55 198.898 L2281.55 95.2176 L1908.03 95.2176  Z" fill="#ffffff" fill-rule="evenodd" fill-opacity="1"/>
<polyline clip-path="url(#clip300)" style="stroke:#000000; stroke-linecap:round; stroke-linejoin:round; stroke-width:4; stroke-opacity:1; fill:none" points="1908.03,198.898 2281.55,198.898 2281.55,95.2176 1908.03,95.2176 1908.03,198.898 "/>
<polyline clip-path="url(#clip300)" style="stroke:#009af9; stroke-linecap:round; stroke-linejoin:round; stroke-width:4; stroke-opacity:1; fill:none" points="1931.76,147.058 2074.17,147.058 "/>
<path clip-path="url(#clip300)" d="M2097.91 129.778 L2119.76 129.778 L2119.76 133.713 L2102.58 133.713 L2102.58 143.944 L2119.04 143.944 L2119.04 147.879 L2102.58 147.879 L2102.58 160.402 L2120.18 160.402 L2120.18 164.338 L2097.91 164.338 L2097.91 129.778 Z" fill="#000000" fill-rule="nonzero" fill-opacity="1" /><path clip-path="url(#clip300)" d="M2149.23 148.689 L2149.23 164.338 L2144.97 164.338 L2144.97 148.828 Q2144.97 145.148 2143.53 143.319 Q2142.1 141.49 2139.23 141.49 Q2135.78 141.49 2133.79 143.69 Q2131.8 145.889 2131.8 149.685 L2131.8 164.338 L2127.52 164.338 L2127.52 138.412 L2131.8 138.412 L2131.8 142.44 Q2133.33 140.102 2135.39 138.944 Q2137.47 137.787 2140.18 137.787 Q2144.64 137.787 2146.94 140.565 Q2149.23 143.319 2149.23 148.689 Z" fill="#000000" fill-rule="nonzero" fill-opacity="1" /><path clip-path="url(#clip300)" d="M2179.9 150.31 L2179.9 152.393 L2160.32 152.393 Q2160.59 156.791 2162.95 159.106 Q2165.34 161.398 2169.58 161.398 Q2172.03 161.398 2174.32 160.796 Q2176.64 160.194 2178.9 158.99 L2178.9 163.018 Q2176.61 163.99 2174.2 164.5 Q2171.8 165.009 2169.32 165.009 Q2163.12 165.009 2159.48 161.398 Q2155.87 157.787 2155.87 151.629 Q2155.87 145.264 2159.3 141.537 Q2162.75 137.787 2168.58 137.787 Q2173.81 137.787 2176.84 141.166 Q2179.9 144.523 2179.9 150.31 M2175.64 149.06 Q2175.59 145.565 2173.67 143.481 Q2171.77 141.398 2168.63 141.398 Q2165.06 141.398 2162.91 143.412 Q2160.78 145.426 2160.45 149.083 L2175.64 149.06 Z" fill="#000000" fill-rule="nonzero" fill-opacity="1" /><path clip-path="url(#clip300)" d="M2201.91 142.393 Q2201.2 141.977 2200.34 141.791 Q2199.51 141.583 2198.49 141.583 Q2194.88 141.583 2192.93 143.944 Q2191.01 146.282 2191.01 150.68 L2191.01 164.338 L2186.73 164.338 L2186.73 138.412 L2191.01 138.412 L2191.01 142.44 Q2192.35 140.078 2194.51 138.944 Q2196.66 137.787 2199.74 137.787 Q2200.18 137.787 2200.71 137.856 Q2201.24 137.903 2201.89 138.018 L2201.91 142.393 Z" fill="#000000" fill-rule="nonzero" fill-opacity="1" /><path clip-path="url(#clip300)" d="M2222.61 151.074 Q2222.61 146.444 2220.69 143.898 Q2218.79 141.352 2215.34 141.352 Q2211.91 141.352 2209.99 143.898 Q2208.09 146.444 2208.09 151.074 Q2208.09 155.68 2209.99 158.226 Q2211.91 160.773 2215.34 160.773 Q2218.79 160.773 2220.69 158.226 Q2222.61 155.68 2222.61 151.074 M2226.87 161.12 Q2226.87 167.74 2223.93 170.958 Q2220.99 174.199 2214.92 174.199 Q2212.68 174.199 2210.69 173.851 Q2208.7 173.527 2206.82 172.833 L2206.82 168.689 Q2208.7 169.708 2210.52 170.194 Q2212.35 170.68 2214.25 170.68 Q2218.44 170.68 2220.52 168.481 Q2222.61 166.305 2222.61 161.884 L2222.61 159.777 Q2221.29 162.069 2219.23 163.203 Q2217.17 164.338 2214.3 164.338 Q2209.53 164.338 2206.61 160.703 Q2203.7 157.069 2203.7 151.074 Q2203.7 145.055 2206.61 141.421 Q2209.53 137.787 2214.3 137.787 Q2217.17 137.787 2219.23 138.921 Q2221.29 140.055 2222.61 142.347 L2222.61 138.412 L2226.87 138.412 L2226.87 161.12 Z" fill="#000000" fill-rule="nonzero" fill-opacity="1" /><path clip-path="url(#clip300)" d="M2246.43 166.745 Q2244.62 171.375 2242.91 172.787 Q2241.2 174.199 2238.32 174.199 L2234.92 174.199 L2234.92 170.634 L2237.42 170.634 Q2239.18 170.634 2240.15 169.8 Q2241.13 168.967 2242.31 165.865 L2243.07 163.921 L2232.58 138.412 L2237.1 138.412 L2245.2 158.689 L2253.3 138.412 L2257.82 138.412 L2246.43 166.745 Z" fill="#000000" fill-rule="nonzero" fill-opacity="1" /></svg>
