<?xml version="1.0" encoding="utf-8"?>
<svg xmlns="http://www.w3.org/2000/svg" xmlns:xlink="http://www.w3.org/1999/xlink" width="600" height="400" viewBox="0 0 2400 1600">
<defs>
  <clipPath id="clip330">
    <rect x="0" y="0" width="2400" height="1600"/>
  </clipPath>
</defs>
<path clip-path="url(#clip330)" d="M0 1600 L2400 1600 L2400 0 L0 0  Z" fill="#ffffff" fill-rule="evenodd" fill-opacity="1"/>
<defs>
  <clipPath id="clip331">
    <rect x="480" y="0" width="1681" height="1600"/>
  </clipPath>
</defs>
<path clip-path="url(#clip330)" d="M156.274 1486.45 L2352.76 1486.45 L2352.76 47.2441 L156.274 47.2441  Z" fill="#ffffff" fill-rule="evenodd" fill-opacity="1"/>
<defs>
  <clipPath id="clip332">
    <rect x="156" y="47" width="2197" height="1440"/>
  </clipPath>
</defs>
<polyline clip-path="url(#clip332)" style="stroke:#000000; stroke-linecap:round; stroke-linejoin:round; stroke-width:2; stroke-opacity:0.1; fill:none" points="218.439,1486.45 218.439,47.2441 "/>
<polyline clip-path="url(#clip332)" style="stroke:#000000; stroke-linecap:round; stroke-linejoin:round; stroke-width:2; stroke-opacity:0.1; fill:none" points="736.477,1486.45 736.477,47.2441 "/>
<polyline clip-path="url(#clip332)" style="stroke:#000000; stroke-linecap:round; stroke-linejoin:round; stroke-width:2; stroke-opacity:0.1; fill:none" points="1254.52,1486.45 1254.52,47.2441 "/>
<polyline clip-path="url(#clip332)" style="stroke:#000000; stroke-linecap:round; stroke-linejoin:round; stroke-width:2; stroke-opacity:0.1; fill:none" points="1772.55,1486.45 1772.55,47.2441 "/>
<polyline clip-path="url(#clip332)" style="stroke:#000000; stroke-linecap:round; stroke-linejoin:round; stroke-width:2; stroke-opacity:0.1; fill:none" points="2290.59,1486.45 2290.59,47.2441 "/>
<polyline clip-path="url(#clip330)" style="stroke:#000000; stroke-linecap:round; stroke-linejoin:round; stroke-width:4; stroke-opacity:1; fill:none" points="156.274,1486.45 2352.76,1486.45 "/>
<polyline clip-path="url(#clip330)" style="stroke:#000000; stroke-linecap:round; stroke-linejoin:round; stroke-width:4; stroke-opacity:1; fill:none" points="218.439,1486.45 218.439,1467.55 "/>
<polyline clip-path="url(#clip330)" style="stroke:#000000; stroke-linecap:round; stroke-linejoin:round; stroke-width:4; stroke-opacity:1; fill:none" points="736.477,1486.45 736.477,1467.55 "/>
<polyline clip-path="url(#clip330)" style="stroke:#000000; stroke-linecap:round; stroke-linejoin:round; stroke-width:4; stroke-opacity:1; fill:none" points="1254.52,1486.45 1254.52,1467.55 "/>
<polyline clip-path="url(#clip330)" style="stroke:#000000; stroke-linecap:round; stroke-linejoin:round; stroke-width:4; stroke-opacity:1; fill:none" points="1772.55,1486.45 1772.55,1467.55 "/>
<polyline clip-path="url(#clip330)" style="stroke:#000000; stroke-linecap:round; stroke-linejoin:round; stroke-width:4; stroke-opacity:1; fill:none" points="2290.59,1486.45 2290.59,1467.55 "/>
<path clip-path="url(#clip330)" d="M164.967 1532.02 L194.643 1532.02 L194.643 1535.95 L164.967 1535.95 L164.967 1532.02 Z" fill="#000000" fill-rule="nonzero" fill-opacity="1" /><path clip-path="url(#clip330)" d="M205.545 1544.91 L213.184 1544.91 L213.184 1518.55 L204.874 1520.21 L204.874 1515.95 L213.138 1514.29 L217.814 1514.29 L217.814 1544.91 L225.453 1544.91 L225.453 1548.85 L205.545 1548.85 L205.545 1544.91 Z" fill="#000000" fill-rule="nonzero" fill-opacity="1" /><path clip-path="url(#clip330)" d="M234.897 1542.97 L239.781 1542.97 L239.781 1548.85 L234.897 1548.85 L234.897 1542.97 Z" fill="#000000" fill-rule="nonzero" fill-opacity="1" /><path clip-path="url(#clip330)" d="M259.966 1517.37 Q256.355 1517.37 254.527 1520.93 Q252.721 1524.47 252.721 1531.6 Q252.721 1538.71 254.527 1542.27 Q256.355 1545.82 259.966 1545.82 Q263.601 1545.82 265.406 1542.27 Q267.235 1538.71 267.235 1531.6 Q267.235 1524.47 265.406 1520.93 Q263.601 1517.37 259.966 1517.37 M259.966 1513.66 Q265.776 1513.66 268.832 1518.27 Q271.911 1522.85 271.911 1531.6 Q271.911 1540.33 268.832 1544.94 Q265.776 1549.52 259.966 1549.52 Q254.156 1549.52 251.077 1544.94 Q248.022 1540.33 248.022 1531.6 Q248.022 1522.85 251.077 1518.27 Q254.156 1513.66 259.966 1513.66 Z" fill="#000000" fill-rule="nonzero" fill-opacity="1" /><path clip-path="url(#clip330)" d="M683.503 1532.02 L713.178 1532.02 L713.178 1535.95 L683.503 1535.95 L683.503 1532.02 Z" fill="#000000" fill-rule="nonzero" fill-opacity="1" /><path clip-path="url(#clip330)" d="M733.271 1517.37 Q729.66 1517.37 727.831 1520.93 Q726.026 1524.47 726.026 1531.6 Q726.026 1538.71 727.831 1542.27 Q729.66 1545.82 733.271 1545.82 Q736.905 1545.82 738.711 1542.27 Q740.539 1538.71 740.539 1531.6 Q740.539 1524.47 738.711 1520.93 Q736.905 1517.37 733.271 1517.37 M733.271 1513.66 Q739.081 1513.66 742.137 1518.27 Q745.215 1522.85 745.215 1531.6 Q745.215 1540.33 742.137 1544.94 Q739.081 1549.52 733.271 1549.52 Q727.461 1549.52 724.382 1544.94 Q721.327 1540.33 721.327 1531.6 Q721.327 1522.85 724.382 1518.27 Q727.461 1513.66 733.271 1513.66 Z" fill="#000000" fill-rule="nonzero" fill-opacity="1" /><path clip-path="url(#clip330)" d="M753.433 1542.97 L758.317 1542.97 L758.317 1548.85 L753.433 1548.85 L753.433 1542.97 Z" fill="#000000" fill-rule="nonzero" fill-opacity="1" /><path clip-path="url(#clip330)" d="M768.548 1514.29 L786.905 1514.29 L786.905 1518.22 L772.831 1518.22 L772.831 1526.7 Q773.849 1526.35 774.868 1526.19 Q775.886 1526 776.905 1526 Q782.692 1526 786.072 1529.17 Q789.451 1532.34 789.451 1537.76 Q789.451 1543.34 785.979 1546.44 Q782.507 1549.52 776.187 1549.52 Q774.011 1549.52 771.743 1549.15 Q769.498 1548.78 767.09 1548.04 L767.09 1543.34 Q769.173 1544.47 771.396 1545.03 Q773.618 1545.58 776.095 1545.58 Q780.099 1545.58 782.437 1543.48 Q784.775 1541.37 784.775 1537.76 Q784.775 1534.15 782.437 1532.04 Q780.099 1529.94 776.095 1529.94 Q774.22 1529.94 772.345 1530.35 Q770.493 1530.77 768.548 1531.65 L768.548 1514.29 Z" fill="#000000" fill-rule="nonzero" fill-opacity="1" /><path clip-path="url(#clip330)" d="M1231.9 1517.37 Q1228.29 1517.37 1226.46 1520.93 Q1224.65 1524.47 1224.65 1531.6 Q1224.65 1538.71 1226.46 1542.27 Q1228.29 1545.82 1231.9 1545.82 Q1235.53 1545.82 1237.34 1542.27 Q1239.17 1538.71 1239.17 1531.6 Q1239.17 1524.47 1237.34 1520.93 Q1235.53 1517.37 1231.9 1517.37 M1231.9 1513.66 Q1237.71 1513.66 1240.77 1518.27 Q1243.84 1522.85 1243.84 1531.6 Q1243.84 1540.33 1240.77 1544.94 Q1237.71 1549.52 1231.9 1549.52 Q1226.09 1549.52 1223.01 1544.94 Q1219.96 1540.33 1219.96 1531.6 Q1219.96 1522.85 1223.01 1518.27 Q1226.09 1513.66 1231.9 1513.66 Z" fill="#000000" fill-rule="nonzero" fill-opacity="1" /><path clip-path="url(#clip330)" d="M1252.06 1542.97 L1256.95 1542.97 L1256.95 1548.85 L1252.06 1548.85 L1252.06 1542.97 Z" fill="#000000" fill-rule="nonzero" fill-opacity="1" /><path clip-path="url(#clip330)" d="M1277.13 1517.37 Q1273.52 1517.37 1271.69 1520.93 Q1269.89 1524.47 1269.89 1531.6 Q1269.89 1538.71 1271.69 1542.27 Q1273.52 1545.82 1277.13 1545.82 Q1280.76 1545.82 1282.57 1542.27 Q1284.4 1538.71 1284.4 1531.6 Q1284.4 1524.47 1282.57 1520.93 Q1280.76 1517.37 1277.13 1517.37 M1277.13 1513.66 Q1282.94 1513.66 1286 1518.27 Q1289.08 1522.85 1289.08 1531.6 Q1289.08 1540.33 1286 1544.94 Q1282.94 1549.52 1277.13 1549.52 Q1271.32 1549.52 1268.24 1544.94 Q1265.19 1540.33 1265.19 1531.6 Q1265.19 1522.85 1268.24 1518.27 Q1271.32 1513.66 1277.13 1513.66 Z" fill="#000000" fill-rule="nonzero" fill-opacity="1" /><path clip-path="url(#clip330)" d="M1750.44 1517.37 Q1746.82 1517.37 1745 1520.93 Q1743.19 1524.47 1743.19 1531.6 Q1743.19 1538.71 1745 1542.27 Q1746.82 1545.82 1750.44 1545.82 Q1754.07 1545.82 1755.88 1542.27 Q1757.7 1538.71 1757.7 1531.6 Q1757.7 1524.47 1755.88 1520.93 Q1754.07 1517.37 1750.44 1517.37 M1750.44 1513.66 Q1756.25 1513.66 1759.3 1518.27 Q1762.38 1522.85 1762.38 1531.6 Q1762.38 1540.33 1759.3 1544.94 Q1756.25 1549.52 1750.44 1549.52 Q1744.63 1549.52 1741.55 1544.94 Q1738.49 1540.33 1738.49 1531.6 Q1738.49 1522.85 1741.55 1518.27 Q1744.63 1513.66 1750.44 1513.66 Z" fill="#000000" fill-rule="nonzero" fill-opacity="1" /><path clip-path="url(#clip330)" d="M1770.6 1542.97 L1775.48 1542.97 L1775.48 1548.85 L1770.6 1548.85 L1770.6 1542.97 Z" fill="#000000" fill-rule="nonzero" fill-opacity="1" /><path clip-path="url(#clip330)" d="M1785.71 1514.29 L1804.07 1514.29 L1804.07 1518.22 L1790 1518.22 L1790 1526.7 Q1791.01 1526.35 1792.03 1526.19 Q1793.05 1526 1794.07 1526 Q1799.86 1526 1803.24 1529.17 Q1806.62 1532.34 1806.62 1537.76 Q1806.62 1543.34 1803.14 1546.44 Q1799.67 1549.52 1793.35 1549.52 Q1791.18 1549.52 1788.91 1549.15 Q1786.66 1548.78 1784.25 1548.04 L1784.25 1543.34 Q1786.34 1544.47 1788.56 1545.03 Q1790.78 1545.58 1793.26 1545.58 Q1797.26 1545.58 1799.6 1543.48 Q1801.94 1541.37 1801.94 1537.76 Q1801.94 1534.15 1799.6 1532.04 Q1797.26 1529.94 1793.26 1529.94 Q1791.38 1529.94 1789.51 1530.35 Q1787.66 1530.77 1785.71 1531.65 L1785.71 1514.29 Z" fill="#000000" fill-rule="nonzero" fill-opacity="1" /><path clip-path="url(#clip330)" d="M2257.74 1544.91 L2265.38 1544.91 L2265.38 1518.55 L2257.07 1520.21 L2257.07 1515.95 L2265.34 1514.29 L2270.01 1514.29 L2270.01 1544.91 L2277.65 1544.91 L2277.65 1548.85 L2257.74 1548.85 L2257.74 1544.91 Z" fill="#000000" fill-rule="nonzero" fill-opacity="1" /><path clip-path="url(#clip330)" d="M2287.1 1542.97 L2291.98 1542.97 L2291.98 1548.85 L2287.1 1548.85 L2287.1 1542.97 Z" fill="#000000" fill-rule="nonzero" fill-opacity="1" /><path clip-path="url(#clip330)" d="M2312.17 1517.37 Q2308.55 1517.37 2306.73 1520.93 Q2304.92 1524.47 2304.92 1531.6 Q2304.92 1538.71 2306.73 1542.27 Q2308.55 1545.82 2312.17 1545.82 Q2315.8 1545.82 2317.61 1542.27 Q2319.43 1538.71 2319.43 1531.6 Q2319.43 1524.47 2317.61 1520.93 Q2315.8 1517.37 2312.17 1517.37 M2312.17 1513.66 Q2317.98 1513.66 2321.03 1518.27 Q2324.11 1522.85 2324.11 1531.6 Q2324.11 1540.33 2321.03 1544.94 Q2317.98 1549.52 2312.17 1549.52 Q2306.36 1549.52 2303.28 1544.94 Q2300.22 1540.33 2300.22 1531.6 Q2300.22 1522.85 2303.28 1518.27 Q2306.36 1513.66 2312.17 1513.66 Z" fill="#000000" fill-rule="nonzero" fill-opacity="1" /><polyline clip-path="url(#clip332)" style="stroke:#000000; stroke-linecap:round; stroke-linejoin:round; stroke-width:2; stroke-opacity:0.1; fill:none" points="156.274,1309.94 2352.76,1309.94 "/>
<polyline clip-path="url(#clip332)" style="stroke:#000000; stroke-linecap:round; stroke-linejoin:round; stroke-width:2; stroke-opacity:0.1; fill:none" points="156.274,1038.39 2352.76,1038.39 "/>
<polyline clip-path="url(#clip332)" style="stroke:#000000; stroke-linecap:round; stroke-linejoin:round; stroke-width:2; stroke-opacity:0.1; fill:none" points="156.274,766.846 2352.76,766.846 "/>
<polyline clip-path="url(#clip332)" style="stroke:#000000; stroke-linecap:round; stroke-linejoin:round; stroke-width:2; stroke-opacity:0.1; fill:none" points="156.274,495.298 2352.76,495.298 "/>
<polyline clip-path="url(#clip332)" style="stroke:#000000; stroke-linecap:round; stroke-linejoin:round; stroke-width:2; stroke-opacity:0.1; fill:none" points="156.274,223.75 2352.76,223.75 "/>
<polyline clip-path="url(#clip330)" style="stroke:#000000; stroke-linecap:round; stroke-linejoin:round; stroke-width:4; stroke-opacity:1; fill:none" points="156.274,1486.45 156.274,47.2441 "/>
<polyline clip-path="url(#clip330)" style="stroke:#000000; stroke-linecap:round; stroke-linejoin:round; stroke-width:4; stroke-opacity:1; fill:none" points="156.274,1309.94 175.172,1309.94 "/>
<polyline clip-path="url(#clip330)" style="stroke:#000000; stroke-linecap:round; stroke-linejoin:round; stroke-width:4; stroke-opacity:1; fill:none" points="156.274,1038.39 175.172,1038.39 "/>
<polyline clip-path="url(#clip330)" style="stroke:#000000; stroke-linecap:round; stroke-linejoin:round; stroke-width:4; stroke-opacity:1; fill:none" points="156.274,766.846 175.172,766.846 "/>
<polyline clip-path="url(#clip330)" style="stroke:#000000; stroke-linecap:round; stroke-linejoin:round; stroke-width:4; stroke-opacity:1; fill:none" points="156.274,495.298 175.172,495.298 "/>
<polyline clip-path="url(#clip330)" style="stroke:#000000; stroke-linecap:round; stroke-linejoin:round; stroke-width:4; stroke-opacity:1; fill:none" points="156.274,223.75 175.172,223.75 "/>
<path clip-path="url(#clip330)" d="M62.9365 1295.74 Q59.3254 1295.74 57.4967 1299.31 Q55.6912 1302.85 55.6912 1309.98 Q55.6912 1317.08 57.4967 1320.65 Q59.3254 1324.19 62.9365 1324.19 Q66.5707 1324.19 68.3763 1320.65 Q70.205 1317.08 70.205 1309.98 Q70.205 1302.85 68.3763 1299.31 Q66.5707 1295.74 62.9365 1295.74 M62.9365 1292.04 Q68.7467 1292.04 71.8022 1296.64 Q74.8809 1301.23 74.8809 1309.98 Q74.8809 1318.7 71.8022 1323.31 Q68.7467 1327.89 62.9365 1327.89 Q57.1264 1327.89 54.0477 1323.31 Q50.9921 1318.7 50.9921 1309.98 Q50.9921 1301.23 54.0477 1296.64 Q57.1264 1292.04 62.9365 1292.04 Z" fill="#000000" fill-rule="nonzero" fill-opacity="1" /><path clip-path="url(#clip330)" d="M83.0984 1321.34 L87.9827 1321.34 L87.9827 1327.22 L83.0984 1327.22 L83.0984 1321.34 Z" fill="#000000" fill-rule="nonzero" fill-opacity="1" /><path clip-path="url(#clip330)" d="M108.746 1308.08 Q105.598 1308.08 103.746 1310.23 Q101.918 1312.38 101.918 1316.13 Q101.918 1319.86 103.746 1322.04 Q105.598 1324.19 108.746 1324.19 Q111.895 1324.19 113.723 1322.04 Q115.575 1319.86 115.575 1316.13 Q115.575 1312.38 113.723 1310.23 Q111.895 1308.08 108.746 1308.08 M118.029 1293.43 L118.029 1297.68 Q116.27 1296.85 114.464 1296.41 Q112.682 1295.97 110.922 1295.97 Q106.293 1295.97 103.839 1299.1 Q101.409 1302.22 101.061 1308.54 Q102.427 1306.53 104.487 1305.46 Q106.547 1304.37 109.024 1304.37 Q114.233 1304.37 117.242 1307.55 Q120.274 1310.69 120.274 1316.13 Q120.274 1321.46 117.126 1324.68 Q113.978 1327.89 108.746 1327.89 Q102.751 1327.89 99.5798 1323.31 Q96.4085 1318.7 96.4085 1309.98 Q96.4085 1301.78 100.297 1296.92 Q104.186 1292.04 110.737 1292.04 Q112.496 1292.04 114.279 1292.38 Q116.084 1292.73 118.029 1293.43 Z" fill="#000000" fill-rule="nonzero" fill-opacity="1" /><path clip-path="url(#clip330)" d="M63.1911 1024.19 Q59.58 1024.19 57.7513 1027.76 Q55.9458 1031.3 55.9458 1038.43 Q55.9458 1045.54 57.7513 1049.1 Q59.58 1052.64 63.1911 1052.64 Q66.8254 1052.64 68.6309 1049.1 Q70.4596 1045.54 70.4596 1038.43 Q70.4596 1031.3 68.6309 1027.76 Q66.8254 1024.19 63.1911 1024.19 M63.1911 1020.49 Q69.0013 1020.49 72.0568 1025.1 Q75.1355 1029.68 75.1355 1038.43 Q75.1355 1047.16 72.0568 1051.76 Q69.0013 1056.35 63.1911 1056.35 Q57.381 1056.35 54.3023 1051.76 Q51.2468 1047.16 51.2468 1038.43 Q51.2468 1029.68 54.3023 1025.1 Q57.381 1020.49 63.1911 1020.49 Z" fill="#000000" fill-rule="nonzero" fill-opacity="1" /><path clip-path="url(#clip330)" d="M83.3531 1049.79 L88.2373 1049.79 L88.2373 1055.67 L83.3531 1055.67 L83.3531 1049.79 Z" fill="#000000" fill-rule="nonzero" fill-opacity="1" /><path clip-path="url(#clip330)" d="M108.422 1039.26 Q105.089 1039.26 103.168 1041.04 Q101.27 1042.83 101.27 1045.95 Q101.27 1049.08 103.168 1050.86 Q105.089 1052.64 108.422 1052.64 Q111.756 1052.64 113.677 1050.86 Q115.598 1049.05 115.598 1045.95 Q115.598 1042.83 113.677 1041.04 Q111.779 1039.26 108.422 1039.26 M103.746 1037.27 Q100.737 1036.53 99.0474 1034.47 Q97.3808 1032.41 97.3808 1029.45 Q97.3808 1025.3 100.321 1022.9 Q103.284 1020.49 108.422 1020.49 Q113.584 1020.49 116.524 1022.9 Q119.464 1025.3 119.464 1029.45 Q119.464 1032.41 117.774 1034.47 Q116.108 1036.53 113.121 1037.27 Q116.501 1038.06 118.376 1040.35 Q120.274 1042.64 120.274 1045.95 Q120.274 1050.97 117.195 1053.66 Q114.14 1056.35 108.422 1056.35 Q102.705 1056.35 99.6261 1053.66 Q96.5706 1050.97 96.5706 1045.95 Q96.5706 1042.64 98.4687 1040.35 Q100.367 1038.06 103.746 1037.27 M102.034 1029.89 Q102.034 1032.57 103.7 1034.08 Q105.39 1035.58 108.422 1035.58 Q111.432 1035.58 113.121 1034.08 Q114.834 1032.57 114.834 1029.89 Q114.834 1027.2 113.121 1025.7 Q111.432 1024.19 108.422 1024.19 Q105.39 1024.19 103.7 1025.7 Q102.034 1027.2 102.034 1029.89 Z" fill="#000000" fill-rule="nonzero" fill-opacity="1" /><path clip-path="url(#clip330)" d="M53.9088 780.191 L61.5476 780.191 L61.5476 753.825 L53.2375 755.492 L53.2375 751.233 L61.5013 749.566 L66.1772 749.566 L66.1772 780.191 L73.8161 780.191 L73.8161 784.126 L53.9088 784.126 L53.9088 780.191 Z" fill="#000000" fill-rule="nonzero" fill-opacity="1" /><path clip-path="url(#clip330)" d="M83.2605 778.246 L88.1447 778.246 L88.1447 784.126 L83.2605 784.126 L83.2605 778.246 Z" fill="#000000" fill-rule="nonzero" fill-opacity="1" /><path clip-path="url(#clip330)" d="M108.33 752.645 Q104.719 752.645 102.89 756.209 Q101.084 759.751 101.084 766.881 Q101.084 773.987 102.89 777.552 Q104.719 781.094 108.33 781.094 Q111.964 781.094 113.77 777.552 Q115.598 773.987 115.598 766.881 Q115.598 759.751 113.77 756.209 Q111.964 752.645 108.33 752.645 M108.33 748.941 Q114.14 748.941 117.195 753.547 Q120.274 758.131 120.274 766.881 Q120.274 775.608 117.195 780.214 Q114.14 784.797 108.33 784.797 Q102.52 784.797 99.4409 780.214 Q96.3854 775.608 96.3854 766.881 Q96.3854 758.131 99.4409 753.547 Q102.52 748.941 108.33 748.941 Z" fill="#000000" fill-rule="nonzero" fill-opacity="1" /><path clip-path="url(#clip330)" d="M55.506 508.643 L63.1448 508.643 L63.1448 482.277 L54.8347 483.944 L54.8347 479.685 L63.0985 478.018 L67.7744 478.018 L67.7744 508.643 L75.4133 508.643 L75.4133 512.578 L55.506 512.578 L55.506 508.643 Z" fill="#000000" fill-rule="nonzero" fill-opacity="1" /><path clip-path="url(#clip330)" d="M84.8577 506.699 L89.7419 506.699 L89.7419 512.578 L84.8577 512.578 L84.8577 506.699 Z" fill="#000000" fill-rule="nonzero" fill-opacity="1" /><path clip-path="url(#clip330)" d="M103.955 508.643 L120.274 508.643 L120.274 512.578 L98.3298 512.578 L98.3298 508.643 Q100.992 505.888 105.575 501.259 Q110.182 496.606 111.362 495.263 Q113.608 492.74 114.487 491.004 Q115.39 489.245 115.39 487.555 Q115.39 484.8 113.445 483.064 Q111.524 481.328 108.422 481.328 Q106.223 481.328 103.77 482.092 Q101.339 482.856 98.5613 484.407 L98.5613 479.685 Q101.385 478.551 103.839 477.972 Q106.293 477.393 108.33 477.393 Q113.7 477.393 116.895 480.078 Q120.089 482.763 120.089 487.254 Q120.089 489.384 119.279 491.305 Q118.492 493.203 116.385 495.796 Q115.807 496.467 112.705 499.685 Q109.603 502.879 103.955 508.643 Z" fill="#000000" fill-rule="nonzero" fill-opacity="1" /><path clip-path="url(#clip330)" d="M53.4227 237.095 L61.0615 237.095 L61.0615 210.729 L52.7514 212.396 L52.7514 208.137 L61.0152 206.47 L65.6911 206.47 L65.6911 237.095 L73.33 237.095 L73.33 241.03 L53.4227 241.03 L53.4227 237.095 Z" fill="#000000" fill-rule="nonzero" fill-opacity="1" /><path clip-path="url(#clip330)" d="M82.7744 235.151 L87.6586 235.151 L87.6586 241.03 L82.7744 241.03 L82.7744 235.151 Z" fill="#000000" fill-rule="nonzero" fill-opacity="1" /><path clip-path="url(#clip330)" d="M110.691 210.544 L98.8854 228.993 L110.691 228.993 L110.691 210.544 M109.464 206.47 L115.344 206.47 L115.344 228.993 L120.274 228.993 L120.274 232.882 L115.344 232.882 L115.344 241.03 L110.691 241.03 L110.691 232.882 L95.0891 232.882 L95.0891 228.368 L109.464 206.47 Z" fill="#000000" fill-rule="nonzero" fill-opacity="1" /><polyline clip-path="url(#clip332)" style="stroke:#009af9; stroke-linecap:round; stroke-linejoin:round; stroke-width:4; stroke-opacity:1; fill:none" points="218.439,766.846 254.234,840.385 312.153,957.168 347.948,1026.64 383.744,1093.05 441.662,1192.05 477.458,1246.88 513.253,1296.05 571.172,1362.21 606.967,1394.04 642.763,1418.49 700.681,1441.72 736.477,1445.72 772.272,1441.72 830.191,1418.49 865.986,1394.04 901.782,1362.21 959.7,1296.05 995.496,1246.88 1031.29,1192.05 1089.21,1093.05 1125.01,1026.64 1160.8,957.168 1218.72,840.385 1254.52,766.846 1290.31,693.306 1348.23,576.524 1384.02,507.054 1419.82,440.641 1477.74,341.638 1513.53,286.813 1549.33,237.637 1607.25,171.485 1643.04,139.652 1678.84,115.201 1736.76,91.9712 1772.55,87.9763 1808.35,91.9712 1866.27,115.201 1902.06,139.652 1937.86,171.485 1995.78,237.637 2031.57,286.813 2067.37,341.638 2125.29,440.641 2161.08,507.054 2196.88,576.524 2254.8,693.306 2290.59,766.846 "/>
<path clip-path="url(#clip330)" d="M229.49 198.898 L805.271 198.898 L805.271 95.2176 L229.49 95.2176  Z" fill="#ffffff" fill-rule="evenodd" fill-opacity="1"/>
<polyline clip-path="url(#clip330)" style="stroke:#000000; stroke-linecap:round; stroke-linejoin:round; stroke-width:4; stroke-opacity:1; fill:none" points="229.49,198.898 805.271,198.898 805.271,95.2176 229.49,95.2176 229.49,198.898 "/>
<polyline clip-path="url(#clip330)" style="stroke:#009af9; stroke-linecap:round; stroke-linejoin:round; stroke-width:4; stroke-opacity:1; fill:none" points="253.896,147.058 400.328,147.058 "/>
<path clip-path="url(#clip330)" d="M424.733 138.412 L428.992 138.412 L428.992 164.338 L424.733 164.338 L424.733 138.412 M424.733 128.319 L428.992 128.319 L428.992 133.713 L424.733 133.713 L424.733 128.319 Z" fill="#000000" fill-rule="nonzero" fill-opacity="1" /><path clip-path="url(#clip330)" d="M459.455 148.689 L459.455 164.338 L455.196 164.338 L455.196 148.828 Q455.196 145.148 453.761 143.319 Q452.325 141.49 449.455 141.49 Q446.006 141.49 444.015 143.69 Q442.025 145.889 442.025 149.685 L442.025 164.338 L437.742 164.338 L437.742 138.412 L442.025 138.412 L442.025 142.44 Q443.552 140.102 445.613 138.944 Q447.696 137.787 450.404 137.787 Q454.872 137.787 457.163 140.565 Q459.455 143.319 459.455 148.689 Z" fill="#000000" fill-rule="nonzero" fill-opacity="1" /><path clip-path="url(#clip330)" d="M467.95 138.412 L472.21 138.412 L472.21 164.338 L467.95 164.338 L467.95 138.412 M467.95 128.319 L472.21 128.319 L472.21 133.713 L467.95 133.713 L467.95 128.319 Z" fill="#000000" fill-rule="nonzero" fill-opacity="1" /><path clip-path="url(#clip330)" d="M485.335 131.051 L485.335 138.412 L494.108 138.412 L494.108 141.722 L485.335 141.722 L485.335 155.796 Q485.335 158.967 486.191 159.87 Q487.071 160.773 489.733 160.773 L494.108 160.773 L494.108 164.338 L489.733 164.338 Q484.802 164.338 482.927 162.509 Q481.052 160.657 481.052 155.796 L481.052 141.722 L477.927 141.722 L477.927 138.412 L481.052 138.412 L481.052 131.051 L485.335 131.051 Z" fill="#000000" fill-rule="nonzero" fill-opacity="1" /><path clip-path="url(#clip330)" d="M499.709 138.412 L503.969 138.412 L503.969 164.338 L499.709 164.338 L499.709 138.412 M499.709 128.319 L503.969 128.319 L503.969 133.713 L499.709 133.713 L499.709 128.319 Z" fill="#000000" fill-rule="nonzero" fill-opacity="1" /><path clip-path="url(#clip330)" d="M524.663 151.305 Q519.501 151.305 517.51 152.486 Q515.52 153.666 515.52 156.514 Q515.52 158.782 517.001 160.125 Q518.506 161.444 521.075 161.444 Q524.617 161.444 526.746 158.944 Q528.899 156.421 528.899 152.254 L528.899 151.305 L524.663 151.305 M533.158 149.546 L533.158 164.338 L528.899 164.338 L528.899 160.402 Q527.441 162.763 525.265 163.898 Q523.089 165.009 519.941 165.009 Q515.959 165.009 513.598 162.787 Q511.26 160.541 511.26 156.791 Q511.26 152.416 514.177 150.194 Q517.117 147.972 522.927 147.972 L528.899 147.972 L528.899 147.555 Q528.899 144.615 526.955 143.018 Q525.033 141.398 521.538 141.398 Q519.316 141.398 517.209 141.93 Q515.103 142.463 513.158 143.527 L513.158 139.592 Q515.496 138.69 517.696 138.25 Q519.895 137.787 521.978 137.787 Q527.603 137.787 530.381 140.703 Q533.158 143.62 533.158 149.546 Z" fill="#000000" fill-rule="nonzero" fill-opacity="1" /><path clip-path="url(#clip330)" d="M541.931 128.319 L546.191 128.319 L546.191 164.338 L541.931 164.338 L541.931 128.319 Z" fill="#000000" fill-rule="nonzero" fill-opacity="1" /><path clip-path="url(#clip330)" d="M588.829 139.407 L588.829 143.389 Q587.024 142.393 585.195 141.907 Q583.39 141.398 581.538 141.398 Q577.394 141.398 575.103 144.037 Q572.811 146.652 572.811 151.398 Q572.811 156.143 575.103 158.782 Q577.394 161.398 581.538 161.398 Q583.39 161.398 585.195 160.912 Q587.024 160.402 588.829 159.407 L588.829 163.342 Q587.047 164.176 585.126 164.592 Q583.228 165.009 581.075 165.009 Q575.218 165.009 571.769 161.328 Q568.32 157.648 568.32 151.398 Q568.32 145.055 571.792 141.421 Q575.288 137.787 581.353 137.787 Q583.32 137.787 585.195 138.203 Q587.07 138.597 588.829 139.407 Z" fill="#000000" fill-rule="nonzero" fill-opacity="1" /><path clip-path="url(#clip330)" d="M606.283 141.398 Q602.857 141.398 600.866 144.083 Q598.876 146.745 598.876 151.398 Q598.876 156.051 600.843 158.736 Q602.834 161.398 606.283 161.398 Q609.686 161.398 611.676 158.713 Q613.667 156.027 613.667 151.398 Q613.667 146.791 611.676 144.106 Q609.686 141.398 606.283 141.398 M606.283 137.787 Q611.839 137.787 615.01 141.398 Q618.181 145.009 618.181 151.398 Q618.181 157.764 615.01 161.398 Q611.839 165.009 606.283 165.009 Q600.704 165.009 597.533 161.398 Q594.385 157.764 594.385 151.398 Q594.385 145.009 597.533 141.398 Q600.704 137.787 606.283 137.787 Z" fill="#000000" fill-rule="nonzero" fill-opacity="1" /><path clip-path="url(#clip330)" d="M646.792 148.689 L646.792 164.338 L642.533 164.338 L642.533 148.828 Q642.533 145.148 641.098 143.319 Q639.662 141.49 636.792 141.49 Q633.343 141.49 631.352 143.69 Q629.362 145.889 629.362 149.685 L629.362 164.338 L625.079 164.338 L625.079 138.412 L629.362 138.412 L629.362 142.44 Q630.889 140.102 632.95 138.944 Q635.033 137.787 637.741 137.787 Q642.209 137.787 644.5 140.565 Q646.792 143.319 646.792 148.689 Z" fill="#000000" fill-rule="nonzero" fill-opacity="1" /><path clip-path="url(#clip330)" d="M672.347 142.347 L672.347 128.319 L676.607 128.319 L676.607 164.338 L672.347 164.338 L672.347 160.449 Q671.005 162.763 668.945 163.898 Q666.908 165.009 664.037 165.009 Q659.338 165.009 656.375 161.259 Q653.436 157.509 653.436 151.398 Q653.436 145.287 656.375 141.537 Q659.338 137.787 664.037 137.787 Q666.908 137.787 668.945 138.921 Q671.005 140.032 672.347 142.347 M657.834 151.398 Q657.834 156.097 659.755 158.782 Q661.699 161.444 665.079 161.444 Q668.459 161.444 670.403 158.782 Q672.347 156.097 672.347 151.398 Q672.347 146.699 670.403 144.037 Q668.459 141.352 665.079 141.352 Q661.699 141.352 659.755 144.037 Q657.834 146.699 657.834 151.398 Z" fill="#000000" fill-rule="nonzero" fill-opacity="1" /><path clip-path="url(#clip330)" d="M685.38 138.412 L689.639 138.412 L689.639 164.338 L685.38 164.338 L685.38 138.412 M685.38 128.319 L689.639 128.319 L689.639 133.713 L685.38 133.713 L685.38 128.319 Z" fill="#000000" fill-rule="nonzero" fill-opacity="1" /><path clip-path="url(#clip330)" d="M702.764 131.051 L702.764 138.412 L711.537 138.412 L711.537 141.722 L702.764 141.722 L702.764 155.796 Q702.764 158.967 703.62 159.87 Q704.5 160.773 707.162 160.773 L711.537 160.773 L711.537 164.338 L707.162 164.338 Q702.232 164.338 700.357 162.509 Q698.482 160.657 698.482 155.796 L698.482 141.722 L695.357 141.722 L695.357 138.412 L698.482 138.412 L698.482 131.051 L702.764 131.051 Z" fill="#000000" fill-rule="nonzero" fill-opacity="1" /><path clip-path="url(#clip330)" d="M717.139 138.412 L721.398 138.412 L721.398 164.338 L717.139 164.338 L717.139 138.412 M717.139 128.319 L721.398 128.319 L721.398 133.713 L717.139 133.713 L717.139 128.319 Z" fill="#000000" fill-rule="nonzero" fill-opacity="1" /><path clip-path="url(#clip330)" d="M740.356 141.398 Q736.93 141.398 734.94 144.083 Q732.949 146.745 732.949 151.398 Q732.949 156.051 734.917 158.736 Q736.907 161.398 740.356 161.398 Q743.759 161.398 745.75 158.713 Q747.741 156.027 747.741 151.398 Q747.741 146.791 745.75 144.106 Q743.759 141.398 740.356 141.398 M740.356 137.787 Q745.912 137.787 749.083 141.398 Q752.254 145.009 752.254 151.398 Q752.254 157.764 749.083 161.398 Q745.912 165.009 740.356 165.009 Q734.778 165.009 731.606 161.398 Q728.458 157.764 728.458 151.398 Q728.458 145.009 731.606 141.398 Q734.778 137.787 740.356 137.787 Z" fill="#000000" fill-rule="nonzero" fill-opacity="1" /><path clip-path="url(#clip330)" d="M780.865 148.689 L780.865 164.338 L776.606 164.338 L776.606 148.828 Q776.606 145.148 775.171 143.319 Q773.736 141.49 770.865 141.49 Q767.416 141.49 765.426 143.69 Q763.435 145.889 763.435 149.685 L763.435 164.338 L759.153 164.338 L759.153 138.412 L763.435 138.412 L763.435 142.44 Q764.963 140.102 767.023 138.944 Q769.106 137.787 771.815 137.787 Q776.282 137.787 778.574 140.565 Q780.865 143.319 780.865 148.689 Z" fill="#000000" fill-rule="nonzero" fill-opacity="1" /></svg>
