<?xml version="1.0" encoding="utf-8"?>
<svg xmlns="http://www.w3.org/2000/svg" xmlns:xlink="http://www.w3.org/1999/xlink" width="600" height="400" viewBox="0 0 2400 1600">
<defs>
  <clipPath id="clip150">
    <rect x="0" y="0" width="2400" height="1600"/>
  </clipPath>
</defs>
<path clip-path="url(#clip150)" d="M0 1600 L2400 1600 L2400 0 L0 0  Z" fill="#ffffff" fill-rule="evenodd" fill-opacity="1"/>
<defs>
  <clipPath id="clip151">
    <rect x="480" y="0" width="1681" height="1600"/>
  </clipPath>
</defs>
<path clip-path="url(#clip150)" d="M193.936 1423.18 L2352.76 1423.18 L2352.76 123.472 L193.936 123.472  Z" fill="#ffffff" fill-rule="evenodd" fill-opacity="1"/>
<defs>
  <clipPath id="clip152">
    <rect x="193" y="123" width="2160" height="1301"/>
  </clipPath>
</defs>
<polyline clip-path="url(#clip152)" style="stroke:#000000; stroke-linecap:round; stroke-linejoin:round; stroke-width:2; stroke-opacity:0.1; fill:none" points="193.936,1423.18 193.936,123.472 "/>
<polyline clip-path="url(#clip152)" style="stroke:#000000; stroke-linecap:round; stroke-linejoin:round; stroke-width:2; stroke-opacity:0.1; fill:none" points="733.641,1423.18 733.641,123.472 "/>
<polyline clip-path="url(#clip152)" style="stroke:#000000; stroke-linecap:round; stroke-linejoin:round; stroke-width:2; stroke-opacity:0.1; fill:none" points="1273.35,1423.18 1273.35,123.472 "/>
<polyline clip-path="url(#clip152)" style="stroke:#000000; stroke-linecap:round; stroke-linejoin:round; stroke-width:2; stroke-opacity:0.1; fill:none" points="1813.05,1423.18 1813.05,123.472 "/>
<polyline clip-path="url(#clip152)" style="stroke:#000000; stroke-linecap:round; stroke-linejoin:round; stroke-width:2; stroke-opacity:0.1; fill:none" points="2352.76,1423.18 2352.76,123.472 "/>
<polyline clip-path="url(#clip150)" style="stroke:#000000; stroke-linecap:round; stroke-linejoin:round; stroke-width:4; stroke-opacity:1; fill:none" points="193.936,1423.18 2352.76,1423.18 "/>
<polyline clip-path="url(#clip150)" style="stroke:#000000; stroke-linecap:round; stroke-linejoin:round; stroke-width:4; stroke-opacity:1; fill:none" points="193.936,1423.18 193.936,1404.28 "/>
<polyline clip-path="url(#clip150)" style="stroke:#000000; stroke-linecap:round; stroke-linejoin:round; stroke-width:4; stroke-opacity:1; fill:none" points="733.641,1423.18 733.641,1404.28 "/>
<polyline clip-path="url(#clip150)" style="stroke:#000000; stroke-linecap:round; stroke-linejoin:round; stroke-width:4; stroke-opacity:1; fill:none" points="1273.35,1423.18 1273.35,1404.28 "/>
<polyline clip-path="url(#clip150)" style="stroke:#000000; stroke-linecap:round; stroke-linejoin:round; stroke-width:4; stroke-opacity:1; fill:none" points="1813.05,1423.18 1813.05,1404.28 "/>
<polyline clip-path="url(#clip150)" style="stroke:#000000; stroke-linecap:round; stroke-linejoin:round; stroke-width:4; stroke-opacity:1; fill:none" points="2352.76,1423.18 2352.76,1404.28 "/>
<path clip-path="url(#clip150)" d="M140.464 1468.75 L170.14 1468.75 L170.14 1472.69 L140.464 1472.69 L140.464 1468.75 Z" fill="#000000" fill-rule="nonzero" fill-opacity="1" /><path clip-path="url(#clip150)" d="M181.043 1481.64 L188.681 1481.64 L188.681 1455.28 L180.371 1456.95 L180.371 1452.69 L188.635 1451.02 L193.311 1451.02 L193.311 1481.64 L200.95 1481.64 L200.95 1485.58 L181.043 1485.58 L181.043 1481.64 Z" fill="#000000" fill-rule="nonzero" fill-opacity="1" /><path clip-path="url(#clip150)" d="M210.394 1479.7 L215.278 1479.7 L215.278 1485.58 L210.394 1485.58 L210.394 1479.7 Z" fill="#000000" fill-rule="nonzero" fill-opacity="1" /><path clip-path="url(#clip150)" d="M235.464 1454.1 Q231.852 1454.1 230.024 1457.66 Q228.218 1461.2 228.218 1468.33 Q228.218 1475.44 230.024 1479.01 Q231.852 1482.55 235.464 1482.55 Q239.098 1482.55 240.903 1479.01 Q242.732 1475.44 242.732 1468.33 Q242.732 1461.2 240.903 1457.66 Q239.098 1454.1 235.464 1454.1 M235.464 1450.39 Q241.274 1450.39 244.329 1455 Q247.408 1459.58 247.408 1468.33 Q247.408 1477.06 244.329 1481.67 Q241.274 1486.25 235.464 1486.25 Q229.653 1486.25 226.575 1481.67 Q223.519 1477.06 223.519 1468.33 Q223.519 1459.58 226.575 1455 Q229.653 1450.39 235.464 1450.39 Z" fill="#000000" fill-rule="nonzero" fill-opacity="1" /><path clip-path="url(#clip150)" d="M680.667 1468.75 L710.342 1468.75 L710.342 1472.69 L680.667 1472.69 L680.667 1468.75 Z" fill="#000000" fill-rule="nonzero" fill-opacity="1" /><path clip-path="url(#clip150)" d="M730.435 1454.1 Q726.824 1454.1 724.995 1457.66 Q723.19 1461.2 723.19 1468.33 Q723.19 1475.44 724.995 1479.01 Q726.824 1482.55 730.435 1482.55 Q734.069 1482.55 735.875 1479.01 Q737.703 1475.44 737.703 1468.33 Q737.703 1461.2 735.875 1457.66 Q734.069 1454.1 730.435 1454.1 M730.435 1450.39 Q736.245 1450.39 739.301 1455 Q742.379 1459.58 742.379 1468.33 Q742.379 1477.06 739.301 1481.67 Q736.245 1486.25 730.435 1486.25 Q724.625 1486.25 721.546 1481.67 Q718.491 1477.06 718.491 1468.33 Q718.491 1459.58 721.546 1455 Q724.625 1450.39 730.435 1450.39 Z" fill="#000000" fill-rule="nonzero" fill-opacity="1" /><path clip-path="url(#clip150)" d="M750.597 1479.7 L755.481 1479.7 L755.481 1485.58 L750.597 1485.58 L750.597 1479.7 Z" fill="#000000" fill-rule="nonzero" fill-opacity="1" /><path clip-path="url(#clip150)" d="M765.713 1451.02 L784.069 1451.02 L784.069 1454.96 L769.995 1454.96 L769.995 1463.43 Q771.013 1463.08 772.032 1462.92 Q773.05 1462.73 774.069 1462.73 Q779.856 1462.73 783.236 1465.9 Q786.615 1469.08 786.615 1474.49 Q786.615 1480.07 783.143 1483.17 Q779.671 1486.25 773.351 1486.25 Q771.175 1486.25 768.907 1485.88 Q766.662 1485.51 764.254 1484.77 L764.254 1480.07 Q766.338 1481.2 768.56 1481.76 Q770.782 1482.32 773.259 1482.32 Q777.263 1482.32 779.601 1480.21 Q781.939 1478.1 781.939 1474.49 Q781.939 1470.88 779.601 1468.77 Q777.263 1466.67 773.259 1466.67 Q771.384 1466.67 769.509 1467.08 Q767.657 1467.5 765.713 1468.38 L765.713 1451.02 Z" fill="#000000" fill-rule="nonzero" fill-opacity="1" /><path clip-path="url(#clip150)" d="M1250.73 1454.1 Q1247.12 1454.1 1245.29 1457.66 Q1243.49 1461.2 1243.49 1468.33 Q1243.49 1475.44 1245.29 1479.01 Q1247.12 1482.55 1250.73 1482.55 Q1254.36 1482.55 1256.17 1479.01 Q1258 1475.44 1258 1468.33 Q1258 1461.2 1256.17 1457.66 Q1254.36 1454.1 1250.73 1454.1 M1250.73 1450.39 Q1256.54 1450.39 1259.6 1455 Q1262.67 1459.58 1262.67 1468.33 Q1262.67 1477.06 1259.6 1481.67 Q1256.54 1486.25 1250.73 1486.25 Q1244.92 1486.25 1241.84 1481.67 Q1238.79 1477.06 1238.79 1468.33 Q1238.79 1459.58 1241.84 1455 Q1244.92 1450.39 1250.73 1450.39 Z" fill="#000000" fill-rule="nonzero" fill-opacity="1" /><path clip-path="url(#clip150)" d="M1270.89 1479.7 L1275.78 1479.7 L1275.78 1485.58 L1270.89 1485.58 L1270.89 1479.7 Z" fill="#000000" fill-rule="nonzero" fill-opacity="1" /><path clip-path="url(#clip150)" d="M1295.96 1454.1 Q1292.35 1454.1 1290.52 1457.66 Q1288.72 1461.2 1288.72 1468.33 Q1288.72 1475.44 1290.52 1479.01 Q1292.35 1482.55 1295.96 1482.55 Q1299.6 1482.55 1301.4 1479.01 Q1303.23 1475.44 1303.23 1468.33 Q1303.23 1461.2 1301.4 1457.66 Q1299.6 1454.1 1295.96 1454.1 M1295.96 1450.39 Q1301.77 1450.39 1304.83 1455 Q1307.91 1459.58 1307.91 1468.33 Q1307.91 1477.06 1304.83 1481.67 Q1301.77 1486.25 1295.96 1486.25 Q1290.15 1486.25 1287.07 1481.67 Q1284.02 1477.06 1284.02 1468.33 Q1284.02 1459.58 1287.07 1455 Q1290.15 1450.39 1295.96 1450.39 Z" fill="#000000" fill-rule="nonzero" fill-opacity="1" /><path clip-path="url(#clip150)" d="M1790.93 1454.1 Q1787.32 1454.1 1785.49 1457.66 Q1783.69 1461.2 1783.69 1468.33 Q1783.69 1475.44 1785.49 1479.01 Q1787.32 1482.55 1790.93 1482.55 Q1794.57 1482.55 1796.37 1479.01 Q1798.2 1475.44 1798.2 1468.33 Q1798.2 1461.2 1796.37 1457.66 Q1794.57 1454.1 1790.93 1454.1 M1790.93 1450.39 Q1796.74 1450.39 1799.8 1455 Q1802.88 1459.58 1802.88 1468.33 Q1802.88 1477.06 1799.8 1481.67 Q1796.74 1486.25 1790.93 1486.25 Q1785.12 1486.25 1782.04 1481.67 Q1778.99 1477.06 1778.99 1468.33 Q1778.99 1459.58 1782.04 1455 Q1785.12 1450.39 1790.93 1450.39 Z" fill="#000000" fill-rule="nonzero" fill-opacity="1" /><path clip-path="url(#clip150)" d="M1811.09 1479.7 L1815.98 1479.7 L1815.98 1485.58 L1811.09 1485.58 L1811.09 1479.7 Z" fill="#000000" fill-rule="nonzero" fill-opacity="1" /><path clip-path="url(#clip150)" d="M1826.21 1451.02 L1844.57 1451.02 L1844.57 1454.96 L1830.49 1454.96 L1830.49 1463.43 Q1831.51 1463.08 1832.53 1462.92 Q1833.55 1462.73 1834.57 1462.73 Q1840.35 1462.73 1843.73 1465.9 Q1847.11 1469.08 1847.11 1474.49 Q1847.11 1480.07 1843.64 1483.17 Q1840.17 1486.25 1833.85 1486.25 Q1831.67 1486.25 1829.41 1485.88 Q1827.16 1485.51 1824.75 1484.77 L1824.75 1480.07 Q1826.84 1481.2 1829.06 1481.76 Q1831.28 1482.32 1833.76 1482.32 Q1837.76 1482.32 1840.1 1480.21 Q1842.44 1478.1 1842.44 1474.49 Q1842.44 1470.88 1840.1 1468.77 Q1837.76 1466.67 1833.76 1466.67 Q1831.88 1466.67 1830.01 1467.08 Q1828.16 1467.5 1826.21 1468.38 L1826.21 1451.02 Z" fill="#000000" fill-rule="nonzero" fill-opacity="1" /><path clip-path="url(#clip150)" d="M2319.91 1481.64 L2327.55 1481.64 L2327.55 1455.28 L2319.24 1456.95 L2319.24 1452.69 L2327.5 1451.02 L2332.18 1451.02 L2332.18 1481.64 L2339.82 1481.64 L2339.82 1485.58 L2319.91 1485.58 L2319.91 1481.64 Z" fill="#000000" fill-rule="nonzero" fill-opacity="1" /><path clip-path="url(#clip150)" d="M2349.26 1479.7 L2354.14 1479.7 L2354.14 1485.58 L2349.26 1485.58 L2349.26 1479.7 Z" fill="#000000" fill-rule="nonzero" fill-opacity="1" /><path clip-path="url(#clip150)" d="M2374.33 1454.1 Q2370.72 1454.1 2368.89 1457.66 Q2367.08 1461.2 2367.08 1468.33 Q2367.08 1475.44 2368.89 1479.01 Q2370.72 1482.55 2374.33 1482.55 Q2377.96 1482.55 2379.77 1479.01 Q2381.6 1475.44 2381.6 1468.33 Q2381.6 1461.2 2379.77 1457.66 Q2377.96 1454.1 2374.33 1454.1 M2374.33 1450.39 Q2380.14 1450.39 2383.2 1455 Q2386.27 1459.58 2386.27 1468.33 Q2386.27 1477.06 2383.2 1481.67 Q2380.14 1486.25 2374.33 1486.25 Q2368.52 1486.25 2365.44 1481.67 Q2362.39 1477.06 2362.39 1468.33 Q2362.39 1459.58 2365.44 1455 Q2368.52 1450.39 2374.33 1450.39 Z" fill="#000000" fill-rule="nonzero" fill-opacity="1" /><path clip-path="url(#clip150)" d="M1287.52 1528.8 Q1287.52 1530.61 1286.39 1531.64 Q1285.26 1532.64 1283.98 1532.64 Q1282.75 1532.64 1282.11 1531.93 Q1281.46 1531.22 1281.46 1530.32 Q1281.46 1529.09 1282.37 1528.03 Q1283.27 1526.97 1284.62 1526.74 Q1283.3 1525.91 1281.34 1525.91 Q1280.05 1525.91 1278.92 1526.58 Q1277.83 1527.26 1277.15 1528.13 Q1276.5 1529 1275.93 1530.25 Q1275.38 1531.48 1275.15 1532.22 Q1274.96 1532.93 1274.8 1533.7 L1272.54 1542.72 Q1271.45 1547 1271.45 1548.51 Q1271.45 1550.38 1272.35 1551.64 Q1273.25 1552.86 1275.06 1552.86 Q1275.76 1552.86 1276.57 1552.67 Q1277.37 1552.44 1278.41 1551.86 Q1279.47 1551.25 1280.4 1550.35 Q1281.37 1549.42 1282.3 1547.84 Q1283.24 1546.26 1283.85 1544.23 Q1284.04 1543.52 1284.69 1543.52 Q1285.49 1543.52 1285.49 1544.17 Q1285.49 1544.71 1285.04 1545.87 Q1284.62 1547 1283.69 1548.48 Q1282.79 1549.93 1281.59 1551.25 Q1280.4 1552.54 1278.63 1553.44 Q1276.86 1554.34 1274.93 1554.34 Q1272.16 1554.34 1270.32 1552.86 Q1268.49 1551.38 1267.81 1549.32 Q1267.65 1549.61 1267.42 1550 Q1267.2 1550.38 1266.52 1551.25 Q1265.88 1552.09 1265.14 1552.73 Q1264.4 1553.34 1263.24 1553.83 Q1262.11 1554.34 1260.89 1554.34 Q1259.34 1554.34 1257.95 1553.89 Q1256.6 1553.44 1255.64 1552.41 Q1254.67 1551.38 1254.67 1549.96 Q1254.67 1548.38 1255.73 1547.29 Q1256.83 1546.16 1258.31 1546.16 Q1259.24 1546.16 1259.98 1546.71 Q1260.76 1547.26 1260.76 1548.45 Q1260.76 1549.77 1259.85 1550.77 Q1258.95 1551.77 1257.66 1552.02 Q1258.98 1552.86 1260.95 1552.86 Q1263.08 1552.86 1264.75 1550.99 Q1266.42 1549.13 1267.23 1546 Q1269.23 1538.5 1270 1535.15 Q1270.77 1531.77 1270.77 1530.32 Q1270.77 1528.96 1270.42 1528.03 Q1270.06 1527.1 1269.45 1526.68 Q1268.87 1526.23 1268.32 1526.07 Q1267.81 1525.91 1267.23 1525.91 Q1266.26 1525.91 1265.17 1526.29 Q1264.11 1526.68 1262.82 1527.58 Q1261.56 1528.45 1260.37 1530.25 Q1259.18 1532.06 1258.37 1534.54 Q1258.21 1535.28 1257.5 1535.28 Q1256.73 1535.24 1256.73 1534.6 Q1256.73 1534.05 1257.15 1532.93 Q1257.6 1531.77 1258.5 1530.32 Q1259.44 1528.87 1260.63 1527.58 Q1261.85 1526.26 1263.62 1525.36 Q1265.43 1524.46 1267.36 1524.46 Q1268.23 1524.46 1269.07 1524.65 Q1269.93 1524.81 1270.97 1525.29 Q1272.03 1525.78 1272.96 1526.84 Q1273.9 1527.9 1274.48 1529.45 Q1274.86 1528.71 1275.38 1528 Q1275.93 1527.29 1276.76 1526.42 Q1277.63 1525.52 1278.82 1525 Q1280.05 1524.46 1281.4 1524.46 Q1282.72 1524.46 1284.01 1524.81 Q1285.3 1525.13 1286.39 1526.19 Q1287.52 1527.23 1287.52 1528.8 Z" fill="#000000" fill-rule="nonzero" fill-opacity="1" /><polyline clip-path="url(#clip152)" style="stroke:#000000; stroke-linecap:round; stroke-linejoin:round; stroke-width:2; stroke-opacity:0.1; fill:none" points="193.936,1386.4 2352.76,1386.4 "/>
<polyline clip-path="url(#clip152)" style="stroke:#000000; stroke-linecap:round; stroke-linejoin:round; stroke-width:2; stroke-opacity:0.1; fill:none" points="193.936,1079.86 2352.76,1079.86 "/>
<polyline clip-path="url(#clip152)" style="stroke:#000000; stroke-linecap:round; stroke-linejoin:round; stroke-width:2; stroke-opacity:0.1; fill:none" points="193.936,773.326 2352.76,773.326 "/>
<polyline clip-path="url(#clip152)" style="stroke:#000000; stroke-linecap:round; stroke-linejoin:round; stroke-width:2; stroke-opacity:0.1; fill:none" points="193.936,466.791 2352.76,466.791 "/>
<polyline clip-path="url(#clip152)" style="stroke:#000000; stroke-linecap:round; stroke-linejoin:round; stroke-width:2; stroke-opacity:0.1; fill:none" points="193.936,160.256 2352.76,160.256 "/>
<polyline clip-path="url(#clip150)" style="stroke:#000000; stroke-linecap:round; stroke-linejoin:round; stroke-width:4; stroke-opacity:1; fill:none" points="193.936,1423.18 193.936,123.472 "/>
<polyline clip-path="url(#clip150)" style="stroke:#000000; stroke-linecap:round; stroke-linejoin:round; stroke-width:4; stroke-opacity:1; fill:none" points="193.936,1386.4 212.834,1386.4 "/>
<polyline clip-path="url(#clip150)" style="stroke:#000000; stroke-linecap:round; stroke-linejoin:round; stroke-width:4; stroke-opacity:1; fill:none" points="193.936,1079.86 212.834,1079.86 "/>
<polyline clip-path="url(#clip150)" style="stroke:#000000; stroke-linecap:round; stroke-linejoin:round; stroke-width:4; stroke-opacity:1; fill:none" points="193.936,773.326 212.834,773.326 "/>
<polyline clip-path="url(#clip150)" style="stroke:#000000; stroke-linecap:round; stroke-linejoin:round; stroke-width:4; stroke-opacity:1; fill:none" points="193.936,466.791 212.834,466.791 "/>
<polyline clip-path="url(#clip150)" style="stroke:#000000; stroke-linecap:round; stroke-linejoin:round; stroke-width:4; stroke-opacity:1; fill:none" points="193.936,160.256 212.834,160.256 "/>
<path clip-path="url(#clip150)" d="M50.9921 1386.85 L80.6679 1386.85 L80.6679 1390.78 L50.9921 1390.78 L50.9921 1386.85 Z" fill="#000000" fill-rule="nonzero" fill-opacity="1" /><path clip-path="url(#clip150)" d="M91.5706 1399.74 L99.2095 1399.74 L99.2095 1373.37 L90.8993 1375.04 L90.8993 1370.78 L99.1632 1369.12 L103.839 1369.12 L103.839 1399.74 L111.478 1399.74 L111.478 1403.68 L91.5706 1403.68 L91.5706 1399.74 Z" fill="#000000" fill-rule="nonzero" fill-opacity="1" /><path clip-path="url(#clip150)" d="M120.922 1397.8 L125.807 1397.8 L125.807 1403.68 L120.922 1403.68 L120.922 1397.8 Z" fill="#000000" fill-rule="nonzero" fill-opacity="1" /><path clip-path="url(#clip150)" d="M145.992 1372.19 Q142.381 1372.19 140.552 1375.76 Q138.746 1379.3 138.746 1386.43 Q138.746 1393.54 140.552 1397.1 Q142.381 1400.64 145.992 1400.64 Q149.626 1400.64 151.431 1397.1 Q153.26 1393.54 153.26 1386.43 Q153.26 1379.3 151.431 1375.76 Q149.626 1372.19 145.992 1372.19 M145.992 1368.49 Q151.802 1368.49 154.857 1373.1 Q157.936 1377.68 157.936 1386.43 Q157.936 1395.16 154.857 1399.76 Q151.802 1404.35 145.992 1404.35 Q140.181 1404.35 137.103 1399.76 Q134.047 1395.16 134.047 1386.43 Q134.047 1377.68 137.103 1373.1 Q140.181 1368.49 145.992 1368.49 Z" fill="#000000" fill-rule="nonzero" fill-opacity="1" /><path clip-path="url(#clip150)" d="M51.9875 1080.31 L81.6633 1080.31 L81.6633 1084.25 L51.9875 1084.25 L51.9875 1080.31 Z" fill="#000000" fill-rule="nonzero" fill-opacity="1" /><path clip-path="url(#clip150)" d="M101.756 1065.66 Q98.1447 1065.66 96.316 1069.22 Q94.5104 1072.77 94.5104 1079.9 Q94.5104 1087 96.316 1090.57 Q98.1447 1094.11 101.756 1094.11 Q105.39 1094.11 107.196 1090.57 Q109.024 1087 109.024 1079.9 Q109.024 1072.77 107.196 1069.22 Q105.39 1065.66 101.756 1065.66 M101.756 1061.96 Q107.566 1061.96 110.621 1066.56 Q113.7 1071.15 113.7 1079.9 Q113.7 1088.62 110.621 1093.23 Q107.566 1097.81 101.756 1097.81 Q95.9456 1097.81 92.8669 1093.23 Q89.8114 1088.62 89.8114 1079.9 Q89.8114 1071.15 92.8669 1066.56 Q95.9456 1061.96 101.756 1061.96 Z" fill="#000000" fill-rule="nonzero" fill-opacity="1" /><path clip-path="url(#clip150)" d="M121.918 1091.26 L126.802 1091.26 L126.802 1097.14 L121.918 1097.14 L121.918 1091.26 Z" fill="#000000" fill-rule="nonzero" fill-opacity="1" /><path clip-path="url(#clip150)" d="M137.033 1062.58 L155.39 1062.58 L155.39 1066.52 L141.316 1066.52 L141.316 1074.99 Q142.334 1074.64 143.353 1074.48 Q144.371 1074.29 145.39 1074.29 Q151.177 1074.29 154.556 1077.47 Q157.936 1080.64 157.936 1086.05 Q157.936 1091.63 154.464 1094.73 Q150.992 1097.81 144.672 1097.81 Q142.496 1097.81 140.228 1097.44 Q137.982 1097.07 135.575 1096.33 L135.575 1091.63 Q137.658 1092.77 139.881 1093.32 Q142.103 1093.88 144.58 1093.88 Q148.584 1093.88 150.922 1091.77 Q153.26 1089.66 153.26 1086.05 Q153.26 1082.44 150.922 1080.34 Q148.584 1078.23 144.58 1078.23 Q142.705 1078.23 140.83 1078.65 Q138.978 1079.06 137.033 1079.94 L137.033 1062.58 Z" fill="#000000" fill-rule="nonzero" fill-opacity="1" /><path clip-path="url(#clip150)" d="M100.76 759.125 Q97.1493 759.125 95.3206 762.689 Q93.515 766.231 93.515 773.361 Q93.515 780.467 95.3206 784.032 Q97.1493 787.574 100.76 787.574 Q104.395 787.574 106.2 784.032 Q108.029 780.467 108.029 773.361 Q108.029 766.231 106.2 762.689 Q104.395 759.125 100.76 759.125 M100.76 755.421 Q106.571 755.421 109.626 760.027 Q112.705 764.611 112.705 773.361 Q112.705 782.088 109.626 786.694 Q106.571 791.277 100.76 791.277 Q94.9502 791.277 91.8715 786.694 Q88.816 782.088 88.816 773.361 Q88.816 764.611 91.8715 760.027 Q94.9502 755.421 100.76 755.421 Z" fill="#000000" fill-rule="nonzero" fill-opacity="1" /><path clip-path="url(#clip150)" d="M120.922 784.726 L125.807 784.726 L125.807 790.606 L120.922 790.606 L120.922 784.726 Z" fill="#000000" fill-rule="nonzero" fill-opacity="1" /><path clip-path="url(#clip150)" d="M145.992 759.125 Q142.381 759.125 140.552 762.689 Q138.746 766.231 138.746 773.361 Q138.746 780.467 140.552 784.032 Q142.381 787.574 145.992 787.574 Q149.626 787.574 151.431 784.032 Q153.26 780.467 153.26 773.361 Q153.26 766.231 151.431 762.689 Q149.626 759.125 145.992 759.125 M145.992 755.421 Q151.802 755.421 154.857 760.027 Q157.936 764.611 157.936 773.361 Q157.936 782.088 154.857 786.694 Q151.802 791.277 145.992 791.277 Q140.181 791.277 137.103 786.694 Q134.047 782.088 134.047 773.361 Q134.047 764.611 137.103 760.027 Q140.181 755.421 145.992 755.421 Z" fill="#000000" fill-rule="nonzero" fill-opacity="1" /><path clip-path="url(#clip150)" d="M101.756 452.59 Q98.1447 452.59 96.316 456.155 Q94.5104 459.696 94.5104 466.826 Q94.5104 473.932 96.316 477.497 Q98.1447 481.039 101.756 481.039 Q105.39 481.039 107.196 477.497 Q109.024 473.932 109.024 466.826 Q109.024 459.696 107.196 456.155 Q105.39 452.59 101.756 452.59 M101.756 448.886 Q107.566 448.886 110.621 453.493 Q113.7 458.076 113.7 466.826 Q113.7 475.553 110.621 480.159 Q107.566 484.742 101.756 484.742 Q95.9456 484.742 92.8669 480.159 Q89.8114 475.553 89.8114 466.826 Q89.8114 458.076 92.8669 453.493 Q95.9456 448.886 101.756 448.886 Z" fill="#000000" fill-rule="nonzero" fill-opacity="1" /><path clip-path="url(#clip150)" d="M121.918 478.192 L126.802 478.192 L126.802 484.071 L121.918 484.071 L121.918 478.192 Z" fill="#000000" fill-rule="nonzero" fill-opacity="1" /><path clip-path="url(#clip150)" d="M137.033 449.511 L155.39 449.511 L155.39 453.446 L141.316 453.446 L141.316 461.918 Q142.334 461.571 143.353 461.409 Q144.371 461.224 145.39 461.224 Q151.177 461.224 154.556 464.395 Q157.936 467.567 157.936 472.983 Q157.936 478.562 154.464 481.664 Q150.992 484.742 144.672 484.742 Q142.496 484.742 140.228 484.372 Q137.982 484.002 135.575 483.261 L135.575 478.562 Q137.658 479.696 139.881 480.252 Q142.103 480.807 144.58 480.807 Q148.584 480.807 150.922 478.701 Q153.26 476.594 153.26 472.983 Q153.26 469.372 150.922 467.266 Q148.584 465.159 144.58 465.159 Q142.705 465.159 140.83 465.576 Q138.978 465.993 137.033 466.872 L137.033 449.511 Z" fill="#000000" fill-rule="nonzero" fill-opacity="1" /><path clip-path="url(#clip150)" d="M91.5706 173.601 L99.2095 173.601 L99.2095 147.236 L90.8993 148.902 L90.8993 144.643 L99.1632 142.976 L103.839 142.976 L103.839 173.601 L111.478 173.601 L111.478 177.536 L91.5706 177.536 L91.5706 173.601 Z" fill="#000000" fill-rule="nonzero" fill-opacity="1" /><path clip-path="url(#clip150)" d="M120.922 171.657 L125.807 171.657 L125.807 177.536 L120.922 177.536 L120.922 171.657 Z" fill="#000000" fill-rule="nonzero" fill-opacity="1" /><path clip-path="url(#clip150)" d="M145.992 146.055 Q142.381 146.055 140.552 149.62 Q138.746 153.161 138.746 160.291 Q138.746 167.397 140.552 170.962 Q142.381 174.504 145.992 174.504 Q149.626 174.504 151.431 170.962 Q153.26 167.397 153.26 160.291 Q153.26 153.161 151.431 149.62 Q149.626 146.055 145.992 146.055 M145.992 142.351 Q151.802 142.351 154.857 146.958 Q157.936 151.541 157.936 160.291 Q157.936 169.018 154.857 173.624 Q151.802 178.208 145.992 178.208 Q140.181 178.208 137.103 173.624 Q134.047 169.018 134.047 160.291 Q134.047 151.541 137.103 146.958 Q140.181 142.351 145.992 142.351 Z" fill="#000000" fill-rule="nonzero" fill-opacity="1" /><path clip-path="url(#clip150)" d="M1184 28.5427 L1184 35.5912 Q1180.84 33.9709 1177.44 33.1607 Q1174.04 32.3505 1170.39 32.3505 Q1164.84 32.3505 1162.05 34.0519 Q1159.29 35.7533 1159.29 39.156 Q1159.29 41.7486 1161.28 43.2475 Q1163.26 44.7058 1169.26 46.0426 L1171.81 46.6097 Q1179.75 48.3111 1183.07 51.4303 Q1186.43 54.509 1186.43 60.0587 Q1186.43 66.3781 1181.41 70.0644 Q1176.43 73.7508 1167.68 73.7508 Q1164.03 73.7508 1160.06 73.0216 Q1156.13 72.3329 1151.76 70.9151 L1151.76 63.2184 Q1155.89 65.3654 1159.9 66.4591 Q1163.91 67.5124 1167.84 67.5124 Q1173.11 67.5124 1175.94 65.73 Q1178.78 63.9071 1178.78 60.6258 Q1178.78 57.5877 1176.71 55.9673 Q1174.69 54.3469 1167.76 52.8481 L1165.17 52.2405 Q1158.24 50.7821 1155.16 47.7845 Q1152.08 44.7463 1152.08 39.4801 Q1152.08 33.0797 1156.62 29.5959 Q1161.16 26.1121 1169.5 26.1121 Q1173.63 26.1121 1177.28 26.7198 Q1180.92 27.3274 1184 28.5427 Z" fill="#000000" fill-rule="nonzero" fill-opacity="1" /><path clip-path="url(#clip150)" d="M1230.95 28.9478 L1230.95 35.9153 Q1227.79 34.1734 1224.59 33.3227 Q1221.43 32.4315 1218.19 32.4315 Q1210.94 32.4315 1206.93 37.0496 Q1202.92 41.6271 1202.92 49.9314 Q1202.92 58.2358 1206.93 62.8538 Q1210.94 67.4314 1218.19 67.4314 Q1221.43 67.4314 1224.59 66.5807 Q1227.79 65.6895 1230.95 63.9476 L1230.95 70.8341 Q1227.83 72.2924 1224.47 73.0216 Q1221.15 73.7508 1217.38 73.7508 Q1207.13 73.7508 1201.1 67.3098 Q1195.06 60.8689 1195.06 49.9314 Q1195.06 38.832 1201.14 32.472 Q1207.26 26.1121 1217.87 26.1121 Q1221.31 26.1121 1224.59 26.8413 Q1227.87 27.5299 1230.95 28.9478 Z" fill="#000000" fill-rule="nonzero" fill-opacity="1" /><path clip-path="url(#clip150)" d="M1264.54 49.7694 Q1255.5 49.7694 1252.02 51.8354 Q1248.53 53.9013 1248.53 58.8839 Q1248.53 62.8538 1251.13 65.2034 Q1253.76 67.5124 1258.26 67.5124 Q1264.45 67.5124 1268.18 63.1374 Q1271.95 58.7219 1271.95 51.4303 L1271.95 49.7694 L1264.54 49.7694 M1279.4 46.6907 L1279.4 72.576 L1271.95 72.576 L1271.95 65.6895 Q1269.4 69.8214 1265.59 71.8063 Q1261.78 73.7508 1256.27 73.7508 Q1249.3 73.7508 1245.17 69.8619 Q1241.08 65.9325 1241.08 59.3701 Q1241.08 51.7138 1246.18 47.825 Q1251.33 43.9361 1261.5 43.9361 L1271.95 43.9361 L1271.95 43.2069 Q1271.95 38.0623 1268.55 35.2672 Q1265.18 32.4315 1259.07 32.4315 Q1255.18 32.4315 1251.49 33.3632 Q1247.81 34.295 1244.4 36.1584 L1244.4 29.2718 Q1248.49 27.692 1252.34 26.9223 Q1256.19 26.1121 1259.84 26.1121 Q1269.68 26.1121 1274.54 31.2163 Q1279.4 36.3204 1279.4 46.6907 Z" fill="#000000" fill-rule="nonzero" fill-opacity="1" /><path clip-path="url(#clip150)" d="M1294.75 9.54393 L1302.21 9.54393 L1302.21 72.576 L1294.75 72.576 L1294.75 9.54393 Z" fill="#000000" fill-rule="nonzero" fill-opacity="1" /><path clip-path="url(#clip150)" d="M1338.42 49.7694 Q1329.39 49.7694 1325.91 51.8354 Q1322.42 53.9013 1322.42 58.8839 Q1322.42 62.8538 1325.02 65.2034 Q1327.65 67.5124 1332.14 67.5124 Q1338.34 67.5124 1342.07 63.1374 Q1345.84 58.7219 1345.84 51.4303 L1345.84 49.7694 L1338.42 49.7694 M1353.29 46.6907 L1353.29 72.576 L1345.84 72.576 L1345.84 65.6895 Q1343.28 69.8214 1339.48 71.8063 Q1335.67 73.7508 1330.16 73.7508 Q1323.19 73.7508 1319.06 69.8619 Q1314.97 65.9325 1314.97 59.3701 Q1314.97 51.7138 1320.07 47.825 Q1325.22 43.9361 1335.39 43.9361 L1345.84 43.9361 L1345.84 43.2069 Q1345.84 38.0623 1342.43 35.2672 Q1339.07 32.4315 1332.96 32.4315 Q1329.07 32.4315 1325.38 33.3632 Q1321.69 34.295 1318.29 36.1584 L1318.29 29.2718 Q1322.38 27.692 1326.23 26.9223 Q1330.08 26.1121 1333.72 26.1121 Q1343.57 26.1121 1348.43 31.2163 Q1353.29 36.3204 1353.29 46.6907 Z" fill="#000000" fill-rule="nonzero" fill-opacity="1" /><path clip-path="url(#clip150)" d="M1394.93 34.1734 Q1393.68 33.4443 1392.18 33.1202 Q1390.72 32.7556 1388.94 32.7556 Q1382.62 32.7556 1379.22 36.8875 Q1375.85 40.9789 1375.85 48.6757 L1375.85 72.576 L1368.36 72.576 L1368.36 27.2059 L1375.85 27.2059 L1375.85 34.2544 Q1378.2 30.1225 1381.97 28.1376 Q1385.74 26.1121 1391.13 26.1121 Q1391.9 26.1121 1392.83 26.2337 Q1393.76 26.3147 1394.89 26.5172 L1394.93 34.1734 Z" fill="#000000" fill-rule="nonzero" fill-opacity="1" /><polyline clip-path="url(#clip152)" style="stroke:#009af9; stroke-linecap:round; stroke-linejoin:round; stroke-width:4; stroke-opacity:1; fill:none" points="193.936,773.083 213.211,771.462 232.486,769.785 251.762,768.083 271.037,766.385 290.312,764.722 309.587,763.123 328.862,761.617 328.862,761.472 348.137,760.006 367.413,758.521 386.688,757.044 405.963,755.605 425.238,754.231 444.513,752.951 463.788,751.793 463.788,751.676 483.064,750.581 502.339,749.508 521.614,748.481 540.889,747.52 560.164,746.648 579.44,745.886 598.715,745.256 598.715,745.17 617.99,744.614 637.265,744.121 656.54,743.701 675.815,743.367 695.091,743.128 714.366,742.997 733.641,742.984 733.641,742.947 752.916,743.02 772.191,743.182 791.467,743.434 810.742,743.774 830.017,744.204 849.292,744.723 868.567,745.33 868.567,745.355 887.842,746.042 907.118,746.832 926.393,747.715 945.668,748.679 964.943,749.713 984.218,750.805 1003.49,751.945 1003.49,752.022 1022.77,753.215 1042.04,754.514 1061.32,755.894 1080.59,757.337 1099.87,758.818 1119.14,760.318 1138.42,761.813 1138.42,761.926 1157.69,763.449 1176.97,765.06 1196.25,766.73 1215.52,768.43 1234.8,770.132 1254.07,771.808 1273.35,773.429 1273.35,773.568 1292.62,775.189 1311.9,776.867 1331.17,778.569 1350.45,780.267 1369.72,781.93 1389,783.529 1408.27,785.033 1408.27,785.179 1427.55,786.646 1446.82,788.132 1466.1,789.608 1485.37,791.047 1504.65,792.42 1523.92,793.7 1543.2,794.859 1543.2,794.978 1562.47,796.072 1581.75,797.143 1601.02,798.17 1620.3,799.132 1639.57,800.004 1658.85,800.767 1678.12,801.397 1678.12,801.48 1697.4,802.037 1716.68,802.531 1735.95,802.951 1755.23,803.286 1774.5,803.524 1793.78,803.655 1813.05,803.666 1813.05,803.706 1832.33,803.633 1851.6,803.47 1870.88,803.218 1890.15,802.877 1909.43,802.448 1928.7,801.93 1947.98,801.324 1947.98,801.298 1967.25,800.61 1986.53,799.82 2005.8,798.937 2025.08,797.973 2044.35,796.94 2063.63,795.847 2082.9,794.706 2082.9,794.628 2102.18,793.436 2121.45,792.139 2140.73,790.758 2160,789.316 2179.28,787.834 2198.55,786.333 2217.83,784.837 2217.83,784.728 2237.1,783.203 2256.38,781.592 2275.66,779.921 2294.93,778.221 2314.21,776.52 2333.48,774.845 2352.76,773.226 "/>
<polyline clip-path="url(#clip152)" style="stroke:#e26f46; stroke-linecap:round; stroke-linejoin:round; stroke-width:4; stroke-opacity:1; fill:none" stroke-dasharray="16, 10" points="193.936,773.326 204.784,772.362 215.633,771.4 226.481,770.439 237.329,769.481 248.178,768.527 259.026,767.578 269.874,766.635 280.723,765.698 291.571,764.769 302.419,763.848 313.268,762.937 324.116,762.036 334.964,761.146 345.813,760.269 356.661,759.404 367.509,758.554 378.358,757.718 389.206,756.898 400.054,756.094 410.903,755.307 421.751,754.538 432.6,753.788 443.448,753.058 454.296,752.347 465.145,751.658 475.993,750.99 486.841,750.345 497.69,749.722 508.538,749.123 519.386,748.548 530.235,747.997 541.083,747.472 551.931,746.973 562.78,746.5 573.628,746.054 584.476,745.635 595.325,745.243 606.173,744.88 617.021,744.544 627.87,744.238 638.718,743.96 649.566,743.712 660.415,743.494 671.263,743.305 682.111,743.146 692.96,743.017 703.808,742.918 714.656,742.85 725.505,742.812 736.353,742.804 747.201,742.827 758.05,742.88 768.898,742.964 779.746,743.077 790.595,743.221 801.443,743.395 812.291,743.599 823.14,743.833 833.988,744.096 844.836,744.388 855.685,744.708 866.533,745.058 877.381,745.435 888.23,745.841 899.078,746.273 909.927,746.733 920.775,747.219 931.623,747.732 942.472,748.269 953.32,748.832 964.168,749.419 975.017,750.03 985.865,750.665 996.713,751.321 1007.56,752 1018.41,752.7 1029.26,753.421 1040.11,754.161 1050.95,754.92 1061.8,755.698 1072.65,756.494 1083.5,757.306 1094.35,758.134 1105.2,758.977 1116.05,759.835 1126.89,760.706 1137.74,761.59 1148.59,762.485 1159.44,763.391 1170.29,764.307 1181.14,765.232 1191.98,766.165 1202.83,767.106 1213.68,768.052 1224.53,769.004 1235.38,769.96 1246.23,770.919 1257.07,771.881 1267.92,772.844 1278.77,773.808 1289.62,774.771 1300.47,775.733 1311.32,776.692 1322.16,777.648 1333.01,778.6 1343.86,779.546 1354.71,780.487 1365.56,781.42 1376.41,782.345 1387.25,783.261 1398.1,784.167 1408.95,785.062 1419.8,785.946 1430.65,786.817 1441.5,787.675 1452.34,788.518 1463.19,789.346 1474.04,790.158 1484.89,790.954 1495.74,791.731 1506.59,792.491 1517.43,793.231 1528.28,793.952 1539.13,794.652 1549.98,795.331 1560.83,795.987 1571.68,796.622 1582.52,797.233 1593.37,797.82 1604.22,798.383 1615.07,798.92 1625.92,799.433 1636.77,799.919 1647.61,800.379 1658.46,800.811 1669.31,801.217 1680.16,801.594 1691.01,801.944 1701.86,802.264 1712.7,802.556 1723.55,802.819 1734.4,803.053 1745.25,803.257 1756.1,803.431 1766.95,803.575 1777.79,803.688 1788.64,803.772 1799.49,803.825 1810.34,803.848 1821.19,803.84 1832.04,803.802 1842.88,803.734 1853.73,803.635 1864.58,803.506 1875.43,803.347 1886.28,803.158 1897.13,802.94 1907.97,802.691 1918.82,802.414 1929.67,802.108 1940.52,801.772 1951.37,801.409 1962.22,801.017 1973.06,800.598 1983.91,800.152 1994.76,799.679 2005.61,799.18 2016.46,798.655 2027.31,798.104 2038.15,797.529 2049,796.93 2059.85,796.307 2070.7,795.662 2081.55,794.994 2092.4,794.305 2103.24,793.594 2114.09,792.864 2124.94,792.114 2135.79,791.345 2146.64,790.558 2157.49,789.754 2168.33,788.934 2179.18,788.098 2190.03,787.247 2200.88,786.383 2211.73,785.506 2222.58,784.616 2233.42,783.715 2244.27,782.804 2255.12,781.883 2265.97,780.954 2276.82,780.017 2287.67,779.074 2298.51,778.125 2309.36,777.171 2320.21,776.213 2331.06,775.252 2341.91,774.29 2352.76,773.326 "/>
<polyline clip-path="url(#clip152)" style="stroke:#3da44d; stroke-linecap:round; stroke-linejoin:round; stroke-width:4; stroke-opacity:1; fill:none" stroke-dasharray="2, 4" points="193.936,773.326 213.211,807.702 232.486,841.968 251.762,876.018 271.037,909.745 290.312,943.045 309.587,975.811 328.862,1007.94 328.862,1007.94 348.137,1039.33 367.413,1069.88 386.688,1099.5 405.963,1128.09 425.238,1155.57 444.513,1181.85 463.788,1206.83 463.788,1206.83 483.064,1230.46 502.339,1252.64 521.614,1273.32 540.889,1292.42 560.164,1309.9 579.44,1325.69 598.715,1339.73 598.715,1339.73 617.99,1352 637.265,1362.43 656.54,1371.02 675.815,1377.73 695.091,1382.54 714.366,1385.44 733.641,1386.4 752.916,1385.44 772.191,1382.54 791.467,1377.73 810.742,1371.02 830.017,1362.43 849.292,1352 868.567,1339.73 887.842,1325.69 907.118,1309.9 926.393,1292.42 945.668,1273.32 964.943,1252.64 984.218,1230.46 1003.49,1206.83 1022.77,1181.85 1042.04,1155.57 1061.32,1128.09 1080.59,1099.5 1099.87,1069.88 1119.14,1039.33 1138.42,1007.94 1157.69,975.811 1176.97,943.045 1196.25,909.745 1215.52,876.018 1234.8,841.968 1254.07,807.702 1273.35,773.326 1292.62,738.95 1311.9,704.684 1331.17,670.634 1350.45,636.906 1369.72,603.607 1389,570.841 1408.27,538.714 1427.55,507.322 1446.82,476.773 1466.1,447.157 1485.37,418.564 1504.65,391.084 1523.92,364.806 1543.2,339.82 1562.47,316.191 1581.75,294.009 1601.02,273.336 1620.3,254.231 1639.57,236.753 1658.85,220.964 1678.12,206.923 1697.4,194.654 1716.68,184.217 1735.95,175.634 1755.23,168.925 1774.5,164.112 1793.78,161.215 1813.05,160.256 1832.33,161.215 1851.6,164.112 1870.88,168.925 1890.15,175.634 1909.43,184.217 1928.7,194.654 1947.98,206.923 1967.25,220.964 1986.53,236.753 2005.8,254.231 2025.08,273.336 2044.35,294.009 2063.63,316.191 2082.9,339.82 2082.9,339.82 2102.18,364.806 2121.45,391.084 2140.73,418.564 2160,447.157 2179.28,476.773 2198.55,507.322 2217.83,538.714 2217.83,538.714 2237.1,570.841 2256.38,603.607 2275.66,636.906 2294.93,670.634 2314.21,704.684 2333.48,738.95 2352.76,773.326 "/>
<path clip-path="url(#clip150)" d="M265.897 374.156 L805.758 374.156 L805.758 166.796 L265.897 166.796  Z" fill="#ffffff" fill-rule="evenodd" fill-opacity="1"/>
<polyline clip-path="url(#clip150)" style="stroke:#000000; stroke-linecap:round; stroke-linejoin:round; stroke-width:4; stroke-opacity:1; fill:none" points="265.897,374.156 805.758,374.156 805.758,166.796 265.897,166.796 265.897,374.156 "/>
<polyline clip-path="url(#clip150)" style="stroke:#009af9; stroke-linecap:round; stroke-linejoin:round; stroke-width:4; stroke-opacity:1; fill:none" points="289.884,218.636 433.805,218.636 "/>
<path clip-path="url(#clip150)" d="M479.505 220.268 L479.505 235.916 L475.245 235.916 L475.245 220.407 Q475.245 216.726 473.81 214.897 Q472.375 213.069 469.505 213.069 Q466.056 213.069 464.065 215.268 Q462.074 217.467 462.074 221.263 L462.074 235.916 L457.792 235.916 L457.792 209.99 L462.074 209.99 L462.074 214.018 Q463.602 211.68 465.662 210.522 Q467.745 209.365 470.454 209.365 Q474.921 209.365 477.213 212.143 Q479.505 214.897 479.505 220.268 Z" fill="#000000" fill-rule="nonzero" fill-opacity="1" /><path clip-path="url(#clip150)" d="M487.56 225.684 L487.56 209.99 L491.819 209.99 L491.819 225.522 Q491.819 229.203 493.255 231.055 Q494.69 232.883 497.56 232.883 Q501.009 232.883 503 230.684 Q505.014 228.485 505.014 224.689 L505.014 209.99 L509.273 209.99 L509.273 235.916 L505.014 235.916 L505.014 231.934 Q503.463 234.295 501.403 235.453 Q499.366 236.587 496.657 236.587 Q492.19 236.587 489.875 233.809 Q487.56 231.031 487.56 225.684 M498.278 209.365 L498.278 209.365 Z" fill="#000000" fill-rule="nonzero" fill-opacity="1" /><path clip-path="url(#clip150)" d="M538.231 214.967 Q539.828 212.096 542.051 210.731 Q544.273 209.365 547.282 209.365 Q551.333 209.365 553.532 212.212 Q555.731 215.036 555.731 220.268 L555.731 235.916 L551.449 235.916 L551.449 220.407 Q551.449 216.68 550.129 214.874 Q548.81 213.069 546.101 213.069 Q542.791 213.069 540.87 215.268 Q538.949 217.467 538.949 221.263 L538.949 235.916 L534.666 235.916 L534.666 220.407 Q534.666 216.657 533.347 214.874 Q532.027 213.069 529.273 213.069 Q526.009 213.069 524.088 215.291 Q522.166 217.49 522.166 221.263 L522.166 235.916 L517.884 235.916 L517.884 209.99 L522.166 209.99 L522.166 214.018 Q523.625 211.633 525.662 210.499 Q527.699 209.365 530.5 209.365 Q533.324 209.365 535.291 210.8 Q537.282 212.235 538.231 214.967 Z" fill="#000000" fill-rule="nonzero" fill-opacity="1" /><path clip-path="url(#clip150)" d="M586.402 221.888 L586.402 223.971 L566.819 223.971 Q567.097 228.369 569.458 230.684 Q571.842 232.976 576.078 232.976 Q578.532 232.976 580.824 232.374 Q583.138 231.772 585.407 230.569 L585.407 234.596 Q583.115 235.568 580.708 236.078 Q578.3 236.587 575.824 236.587 Q569.62 236.587 565.986 232.976 Q562.375 229.365 562.375 223.207 Q562.375 216.842 565.8 213.115 Q569.25 209.365 575.083 209.365 Q580.314 209.365 583.347 212.745 Q586.402 216.101 586.402 221.888 M582.143 220.638 Q582.097 217.143 580.175 215.059 Q578.277 212.976 575.129 212.976 Q571.564 212.976 569.412 214.99 Q567.282 217.004 566.958 220.661 L582.143 220.638 Z" fill="#000000" fill-rule="nonzero" fill-opacity="1" /><path clip-path="url(#clip150)" d="M608.416 213.971 Q607.698 213.555 606.842 213.37 Q606.009 213.161 604.99 213.161 Q601.379 213.161 599.435 215.522 Q597.513 217.86 597.513 222.258 L597.513 235.916 L593.231 235.916 L593.231 209.99 L597.513 209.99 L597.513 214.018 Q598.856 211.657 601.009 210.522 Q603.161 209.365 606.24 209.365 Q606.68 209.365 607.212 209.434 Q607.745 209.481 608.393 209.596 L608.416 213.971 Z" fill="#000000" fill-rule="nonzero" fill-opacity="1" /><path clip-path="url(#clip150)" d="M612.884 209.99 L617.143 209.99 L617.143 235.916 L612.884 235.916 L612.884 209.99 M612.884 199.897 L617.143 199.897 L617.143 205.291 L612.884 205.291 L612.884 199.897 Z" fill="#000000" fill-rule="nonzero" fill-opacity="1" /><path clip-path="url(#clip150)" d="M644.712 210.985 L644.712 214.967 Q642.907 213.971 641.078 213.485 Q639.272 212.976 637.42 212.976 Q633.277 212.976 630.985 215.615 Q628.694 218.231 628.694 222.976 Q628.694 227.721 630.985 230.36 Q633.277 232.976 637.42 232.976 Q639.272 232.976 641.078 232.49 Q642.907 231.981 644.712 230.985 L644.712 234.92 Q642.93 235.754 641.008 236.17 Q639.11 236.587 636.957 236.587 Q631.101 236.587 627.652 232.906 Q624.203 229.226 624.203 222.976 Q624.203 216.633 627.675 212.999 Q631.17 209.365 637.235 209.365 Q639.203 209.365 641.078 209.782 Q642.953 210.175 644.712 210.985 Z" fill="#000000" fill-rule="nonzero" fill-opacity="1" /><path clip-path="url(#clip150)" d="M663.902 222.883 Q658.74 222.883 656.749 224.064 Q654.758 225.244 654.758 228.092 Q654.758 230.36 656.24 231.703 Q657.744 233.022 660.314 233.022 Q663.855 233.022 665.985 230.522 Q668.138 227.999 668.138 223.832 L668.138 222.883 L663.902 222.883 M672.397 221.124 L672.397 235.916 L668.138 235.916 L668.138 231.981 Q666.68 234.342 664.504 235.476 Q662.328 236.587 659.18 236.587 Q655.198 236.587 652.837 234.365 Q650.499 232.119 650.499 228.369 Q650.499 223.994 653.416 221.772 Q656.356 219.55 662.166 219.55 L668.138 219.55 L668.138 219.133 Q668.138 216.194 666.193 214.596 Q664.272 212.976 660.777 212.976 Q658.555 212.976 656.448 213.508 Q654.342 214.041 652.397 215.106 L652.397 211.17 Q654.735 210.268 656.934 209.828 Q659.133 209.365 661.217 209.365 Q666.842 209.365 669.619 212.282 Q672.397 215.198 672.397 221.124 Z" fill="#000000" fill-rule="nonzero" fill-opacity="1" /><path clip-path="url(#clip150)" d="M681.17 199.897 L685.429 199.897 L685.429 235.916 L681.17 235.916 L681.17 199.897 Z" fill="#000000" fill-rule="nonzero" fill-opacity="1" /><path clip-path="url(#clip150)" d="M725.938 210.754 L725.938 214.782 Q724.133 213.856 722.188 213.393 Q720.244 212.93 718.161 212.93 Q714.989 212.93 713.392 213.902 Q711.818 214.874 711.818 216.819 Q711.818 218.3 712.952 219.157 Q714.087 219.99 717.513 220.754 L718.971 221.078 Q723.508 222.05 725.406 223.832 Q727.327 225.592 727.327 228.763 Q727.327 232.374 724.457 234.481 Q721.61 236.587 716.61 236.587 Q714.526 236.587 712.258 236.17 Q710.013 235.777 707.513 234.967 L707.513 230.569 Q709.874 231.795 712.165 232.42 Q714.457 233.022 716.702 233.022 Q719.712 233.022 721.332 232.004 Q722.952 230.962 722.952 229.087 Q722.952 227.351 721.772 226.425 Q720.614 225.499 716.656 224.643 L715.175 224.295 Q711.216 223.462 709.457 221.749 Q707.698 220.013 707.698 217.004 Q707.698 213.346 710.29 211.356 Q712.883 209.365 717.651 209.365 Q720.013 209.365 722.096 209.712 Q724.179 210.059 725.938 210.754 Z" fill="#000000" fill-rule="nonzero" fill-opacity="1" /><path clip-path="url(#clip150)" d="M744.156 212.976 Q740.73 212.976 738.739 215.661 Q736.749 218.323 736.749 222.976 Q736.749 227.629 738.716 230.314 Q740.707 232.976 744.156 232.976 Q747.559 232.976 749.549 230.291 Q751.54 227.606 751.54 222.976 Q751.54 218.37 749.549 215.684 Q747.559 212.976 744.156 212.976 M744.156 209.365 Q749.711 209.365 752.883 212.976 Q756.054 216.587 756.054 222.976 Q756.054 229.342 752.883 232.976 Q749.711 236.587 744.156 236.587 Q738.577 236.587 735.406 232.976 Q732.258 229.342 732.258 222.976 Q732.258 216.587 735.406 212.976 Q738.577 209.365 744.156 209.365 Z" fill="#000000" fill-rule="nonzero" fill-opacity="1" /><path clip-path="url(#clip150)" d="M763.114 199.897 L767.373 199.897 L767.373 235.916 L763.114 235.916 L763.114 199.897 Z" fill="#000000" fill-rule="nonzero" fill-opacity="1" /><path clip-path="url(#clip150)" d="M776.887 230.036 L781.772 230.036 L781.772 235.916 L776.887 235.916 L776.887 230.036 Z" fill="#000000" fill-rule="nonzero" fill-opacity="1" /><polyline clip-path="url(#clip150)" style="stroke:#e26f46; stroke-linecap:round; stroke-linejoin:round; stroke-width:4; stroke-opacity:1; fill:none" stroke-dasharray="16, 10" points="289.884,270.476 433.805,270.476 "/>
<path clip-path="url(#clip150)" d="M471.194 274.723 Q466.032 274.723 464.042 275.904 Q462.051 277.084 462.051 279.932 Q462.051 282.2 463.532 283.543 Q465.037 284.862 467.607 284.862 Q471.148 284.862 473.278 282.362 Q475.431 279.839 475.431 275.672 L475.431 274.723 L471.194 274.723 M479.69 272.964 L479.69 287.756 L475.431 287.756 L475.431 283.821 Q473.972 286.182 471.796 287.316 Q469.62 288.427 466.472 288.427 Q462.491 288.427 460.13 286.205 Q457.792 283.959 457.792 280.209 Q457.792 275.834 460.708 273.612 Q463.648 271.39 469.458 271.39 L475.431 271.39 L475.431 270.973 Q475.431 268.034 473.486 266.436 Q471.565 264.816 468.069 264.816 Q465.847 264.816 463.741 265.348 Q461.634 265.881 459.69 266.946 L459.69 263.01 Q462.028 262.108 464.227 261.668 Q466.426 261.205 468.509 261.205 Q474.134 261.205 476.912 264.122 Q479.69 267.038 479.69 272.964 Z" fill="#000000" fill-rule="nonzero" fill-opacity="1" /><path clip-path="url(#clip150)" d="M510.014 272.108 L510.014 287.756 L505.754 287.756 L505.754 272.247 Q505.754 268.566 504.319 266.737 Q502.884 264.909 500.014 264.909 Q496.565 264.909 494.574 267.108 Q492.583 269.307 492.583 273.103 L492.583 287.756 L488.301 287.756 L488.301 261.83 L492.583 261.83 L492.583 265.858 Q494.111 263.52 496.171 262.362 Q498.255 261.205 500.963 261.205 Q505.43 261.205 507.722 263.983 Q510.014 266.737 510.014 272.108 Z" fill="#000000" fill-rule="nonzero" fill-opacity="1" /><path clip-path="url(#clip150)" d="M530.291 274.723 Q525.129 274.723 523.139 275.904 Q521.148 277.084 521.148 279.932 Q521.148 282.2 522.629 283.543 Q524.134 284.862 526.703 284.862 Q530.245 284.862 532.375 282.362 Q534.527 279.839 534.527 275.672 L534.527 274.723 L530.291 274.723 M538.787 272.964 L538.787 287.756 L534.527 287.756 L534.527 283.821 Q533.069 286.182 530.893 287.316 Q528.717 288.427 525.569 288.427 Q521.588 288.427 519.227 286.205 Q516.889 283.959 516.889 280.209 Q516.889 275.834 519.805 273.612 Q522.745 271.39 528.555 271.39 L534.527 271.39 L534.527 270.973 Q534.527 268.034 532.583 266.436 Q530.662 264.816 527.166 264.816 Q524.944 264.816 522.838 265.348 Q520.731 265.881 518.787 266.946 L518.787 263.01 Q521.125 262.108 523.324 261.668 Q525.523 261.205 527.606 261.205 Q533.231 261.205 536.009 264.122 Q538.787 267.038 538.787 272.964 Z" fill="#000000" fill-rule="nonzero" fill-opacity="1" /><path clip-path="url(#clip150)" d="M547.56 251.737 L551.819 251.737 L551.819 287.756 L547.56 287.756 L547.56 251.737 Z" fill="#000000" fill-rule="nonzero" fill-opacity="1" /><path clip-path="url(#clip150)" d="M571.518 290.163 Q569.712 294.793 568 296.205 Q566.287 297.617 563.416 297.617 L560.013 297.617 L560.013 294.052 L562.513 294.052 Q564.273 294.052 565.245 293.219 Q566.217 292.385 567.398 289.283 L568.162 287.339 L557.675 261.83 L562.189 261.83 L570.291 282.108 L578.393 261.83 L582.907 261.83 L571.518 290.163 Z" fill="#000000" fill-rule="nonzero" fill-opacity="1" /><path clip-path="url(#clip150)" d="M592.999 254.469 L592.999 261.83 L601.772 261.83 L601.772 265.14 L592.999 265.14 L592.999 279.214 Q592.999 282.385 593.856 283.288 Q594.735 284.191 597.397 284.191 L601.772 284.191 L601.772 287.756 L597.397 287.756 Q592.467 287.756 590.592 285.927 Q588.717 284.075 588.717 279.214 L588.717 265.14 L585.592 265.14 L585.592 261.83 L588.717 261.83 L588.717 254.469 L592.999 254.469 Z" fill="#000000" fill-rule="nonzero" fill-opacity="1" /><path clip-path="url(#clip150)" d="M607.374 261.83 L611.634 261.83 L611.634 287.756 L607.374 287.756 L607.374 261.83 M607.374 251.737 L611.634 251.737 L611.634 257.131 L607.374 257.131 L607.374 251.737 Z" fill="#000000" fill-rule="nonzero" fill-opacity="1" /><path clip-path="url(#clip150)" d="M639.203 262.825 L639.203 266.807 Q637.397 265.811 635.569 265.325 Q633.763 264.816 631.911 264.816 Q627.768 264.816 625.476 267.455 Q623.184 270.071 623.184 274.816 Q623.184 279.561 625.476 282.2 Q627.768 284.816 631.911 284.816 Q633.763 284.816 635.569 284.33 Q637.397 283.821 639.203 282.825 L639.203 286.76 Q637.42 287.594 635.499 288.01 Q633.601 288.427 631.448 288.427 Q625.592 288.427 622.143 284.746 Q618.694 281.066 618.694 274.816 Q618.694 268.473 622.166 264.839 Q625.661 261.205 631.726 261.205 Q633.694 261.205 635.569 261.622 Q637.444 262.015 639.203 262.825 Z" fill="#000000" fill-rule="nonzero" fill-opacity="1" /><path clip-path="url(#clip150)" d="M658.393 274.723 Q653.231 274.723 651.24 275.904 Q649.249 277.084 649.249 279.932 Q649.249 282.2 650.731 283.543 Q652.235 284.862 654.805 284.862 Q658.346 284.862 660.476 282.362 Q662.629 279.839 662.629 275.672 L662.629 274.723 L658.393 274.723 M666.888 272.964 L666.888 287.756 L662.629 287.756 L662.629 283.821 Q661.17 286.182 658.994 287.316 Q656.818 288.427 653.67 288.427 Q649.689 288.427 647.328 286.205 Q644.99 283.959 644.99 280.209 Q644.99 275.834 647.906 273.612 Q650.846 271.39 656.656 271.39 L662.629 271.39 L662.629 270.973 Q662.629 268.034 660.684 266.436 Q658.763 264.816 655.268 264.816 Q653.045 264.816 650.939 265.348 Q648.832 265.881 646.888 266.946 L646.888 263.01 Q649.226 262.108 651.425 261.668 Q653.624 261.205 655.707 261.205 Q661.332 261.205 664.11 264.122 Q666.888 267.038 666.888 272.964 Z" fill="#000000" fill-rule="nonzero" fill-opacity="1" /><path clip-path="url(#clip150)" d="M675.661 251.737 L679.92 251.737 L679.92 287.756 L675.661 287.756 L675.661 251.737 Z" fill="#000000" fill-rule="nonzero" fill-opacity="1" /><path clip-path="url(#clip150)" d="M720.429 262.594 L720.429 266.622 Q718.624 265.696 716.679 265.233 Q714.735 264.77 712.652 264.77 Q709.48 264.77 707.883 265.742 Q706.309 266.714 706.309 268.659 Q706.309 270.14 707.443 270.997 Q708.577 271.83 712.003 272.594 L713.462 272.918 Q717.999 273.89 719.897 275.672 Q721.818 277.432 721.818 280.603 Q721.818 284.214 718.948 286.321 Q716.101 288.427 711.101 288.427 Q709.017 288.427 706.749 288.01 Q704.503 287.617 702.003 286.807 L702.003 282.409 Q704.365 283.635 706.656 284.26 Q708.948 284.862 711.193 284.862 Q714.202 284.862 715.823 283.844 Q717.443 282.802 717.443 280.927 Q717.443 279.191 716.263 278.265 Q715.105 277.339 711.147 276.483 L709.665 276.135 Q705.707 275.302 703.948 273.589 Q702.189 271.853 702.189 268.844 Q702.189 265.186 704.781 263.196 Q707.374 261.205 712.142 261.205 Q714.503 261.205 716.587 261.552 Q718.67 261.899 720.429 262.594 Z" fill="#000000" fill-rule="nonzero" fill-opacity="1" /><path clip-path="url(#clip150)" d="M738.647 264.816 Q735.221 264.816 733.23 267.501 Q731.239 270.163 731.239 274.816 Q731.239 279.469 733.207 282.154 Q735.198 284.816 738.647 284.816 Q742.05 284.816 744.04 282.131 Q746.031 279.446 746.031 274.816 Q746.031 270.21 744.04 267.524 Q742.05 264.816 738.647 264.816 M738.647 261.205 Q744.202 261.205 747.374 264.816 Q750.545 268.427 750.545 274.816 Q750.545 281.182 747.374 284.816 Q744.202 288.427 738.647 288.427 Q733.068 288.427 729.897 284.816 Q726.749 281.182 726.749 274.816 Q726.749 268.427 729.897 264.816 Q733.068 261.205 738.647 261.205 Z" fill="#000000" fill-rule="nonzero" fill-opacity="1" /><path clip-path="url(#clip150)" d="M757.605 251.737 L761.864 251.737 L761.864 287.756 L757.605 287.756 L757.605 251.737 Z" fill="#000000" fill-rule="nonzero" fill-opacity="1" /><path clip-path="url(#clip150)" d="M771.378 281.876 L776.262 281.876 L776.262 287.756 L771.378 287.756 L771.378 281.876 Z" fill="#000000" fill-rule="nonzero" fill-opacity="1" /><polyline clip-path="url(#clip150)" style="stroke:#3da44d; stroke-linecap:round; stroke-linejoin:round; stroke-width:4; stroke-opacity:1; fill:none" stroke-dasharray="2, 4" points="289.884,322.316 433.805,322.316 "/>
<path clip-path="url(#clip150)" d="M457.792 329.364 L457.792 313.67 L462.051 313.67 L462.051 329.202 Q462.051 332.883 463.486 334.735 Q464.921 336.563 467.792 336.563 Q471.241 336.563 473.231 334.364 Q475.245 332.165 475.245 328.369 L475.245 313.67 L479.505 313.67 L479.505 339.596 L475.245 339.596 L475.245 335.614 Q473.694 337.975 471.634 339.133 Q469.597 340.267 466.889 340.267 Q462.421 340.267 460.107 337.489 Q457.792 334.711 457.792 329.364 M468.509 313.045 L468.509 313.045 Z" fill="#000000" fill-rule="nonzero" fill-opacity="1" /><path clip-path="url(#clip150)" d="M498.88 308.114 Q495.268 308.114 493.44 311.679 Q491.634 315.221 491.634 322.35 Q491.634 329.457 493.44 333.022 Q495.268 336.563 498.88 336.563 Q502.514 336.563 504.319 333.022 Q506.148 329.457 506.148 322.35 Q506.148 315.221 504.319 311.679 Q502.514 308.114 498.88 308.114 M498.88 304.411 Q504.69 304.411 507.745 309.017 Q510.824 313.6 510.824 322.35 Q510.824 331.077 507.745 335.684 Q504.69 340.267 498.88 340.267 Q493.069 340.267 489.991 335.684 Q486.935 331.077 486.935 322.35 Q486.935 313.6 489.991 309.017 Q493.069 304.411 498.88 304.411 Z" fill="#000000" fill-rule="nonzero" fill-opacity="1" /></svg>
